M48
METRIC,TZ
T1C0.400
T2C0.600
T3C0.650
T4C0.850
%
G90
G05
T1
X26325Y-38500
X27050Y-33550
X27075Y-36200
X27075Y-37200
X28000Y-33350
X28100Y-37200
X28400Y-35100
X29100Y-37200
X30350Y-35100
X30600Y-31475
X30600Y-32975
X31900Y-29600
X32700Y-33350
X33575Y-33350
X34350Y-31425
X34450Y-32475
X34450Y-33350
X35715Y-37485
X37200Y-31100
X37250Y-38700
X38200Y-33475
X38200Y-35475
X38225Y-34475
X38866Y-30283
X40975Y-28000
X40975Y-28925
X41175Y-31525
X41500Y-32375
X42000Y-28000
X42000Y-28925
X42145Y-35872
X42725Y-30875
X42925Y-37550
X43050Y-34150
X43600Y-38600
X44750Y-28425
X45550Y-37450
X46300Y-28425
X47575Y-29025
X48625Y-29025
X48650Y-31725
X48850Y-41350
X48900Y-32600
X50250Y-27700
X50250Y-30200
X50250Y-32500
X50250Y-36900
X50250Y-39075
X50250Y-41300
X52750Y-27700
X52750Y-41300
X53250Y-35900
X53250Y-36900
X54300Y-32025
X55750Y-27700
X55750Y-41300
X58200Y-30400
X58200Y-38600
X58400Y-27700
X58400Y-41300
X59500Y-30000
X59500Y-39000
T3
X27720Y-38950
X27720Y-40220
X28990Y-38950
X28990Y-40220
X30260Y-38950
X30260Y-40220
X31530Y-38950
X31530Y-40220
X32800Y-38950
X32800Y-40220
T4
X25412Y-32000
X25412Y-37000
T2
G00X22363Y-31000
M15
G01X23063Y-31000
M16
G05
G00X23063Y-38000
M15
G01X22363Y-38000
M16
G05
T0
M30
