G04 #@! TF.GenerationSoftware,KiCad,Pcbnew,(5.1.5)-3*
G04 #@! TF.CreationDate,2020-05-21T23:15:35+02:00*
G04 #@! TF.ProjectId,STRF,53545246-2e6b-4696-9361-645f70636258,rev?*
G04 #@! TF.SameCoordinates,Original*
G04 #@! TF.FileFunction,Soldermask,Top*
G04 #@! TF.FilePolarity,Negative*
%FSLAX46Y46*%
G04 Gerber Fmt 4.6, Leading zero omitted, Abs format (unit mm)*
G04 Created by KiCad (PCBNEW (5.1.5)-3) date 2020-05-21 23:15:35*
%MOMM*%
%LPD*%
G04 APERTURE LIST*
%ADD10C,0.100000*%
%ADD11C,0.150000*%
%ADD12C,0.120000*%
G04 APERTURE END LIST*
D10*
G36*
X58575000Y-27400000D02*
G01*
X59150000Y-27625000D01*
X59625000Y-28075000D01*
X59825000Y-28500000D01*
X59825000Y-28900000D01*
X59150000Y-28900000D01*
X59125000Y-28725000D01*
X58950000Y-28375000D01*
X58625000Y-28150000D01*
X58250000Y-28025000D01*
X58300000Y-27350000D01*
X58575000Y-27400000D01*
G37*
X58575000Y-27400000D02*
X59150000Y-27625000D01*
X59625000Y-28075000D01*
X59825000Y-28500000D01*
X59825000Y-28900000D01*
X59150000Y-28900000D01*
X59125000Y-28725000D01*
X58950000Y-28375000D01*
X58625000Y-28150000D01*
X58250000Y-28025000D01*
X58300000Y-27350000D01*
X58575000Y-27400000D01*
D11*
X58300000Y-27325000D02*
G75*
G02X59900000Y-28925000I0J-1600000D01*
G01*
D10*
G36*
X59925000Y-30425000D02*
G01*
X59075000Y-30425000D01*
X59075000Y-28950000D01*
X59925000Y-28950000D01*
X59925000Y-30425000D01*
G37*
X59925000Y-30425000D02*
X59075000Y-30425000D01*
X59075000Y-28950000D01*
X59925000Y-28950000D01*
X59925000Y-30425000D01*
D11*
X58200000Y-28075000D02*
G75*
G02X59100000Y-28975000I0J-900000D01*
G01*
D10*
G36*
X59860000Y-40250000D02*
G01*
X59760000Y-40620000D01*
X59390000Y-41200000D01*
X58630000Y-41600000D01*
X58240000Y-41630000D01*
X58250000Y-40980000D01*
X58250000Y-40970000D01*
X58610000Y-40880000D01*
X58980000Y-40580000D01*
X59170000Y-40110000D01*
X59160000Y-40030000D01*
X59850000Y-40020000D01*
X59860000Y-40250000D01*
G37*
X59860000Y-40250000D02*
X59760000Y-40620000D01*
X59390000Y-41200000D01*
X58630000Y-41600000D01*
X58240000Y-41630000D01*
X58250000Y-40980000D01*
X58250000Y-40970000D01*
X58610000Y-40880000D01*
X58980000Y-40580000D01*
X59170000Y-40110000D01*
X59160000Y-40030000D01*
X59850000Y-40020000D01*
X59860000Y-40250000D01*
D12*
X59120000Y-40000000D02*
G75*
G02X58210000Y-40910000I-910000J0D01*
G01*
D10*
G36*
X59910000Y-40000000D02*
G01*
X59110000Y-40000000D01*
X59100000Y-38570000D01*
X59900000Y-38570000D01*
X59910000Y-40000000D01*
G37*
X59910000Y-40000000D02*
X59110000Y-40000000D01*
X59100000Y-38570000D01*
X59900000Y-38570000D01*
X59910000Y-40000000D01*
D12*
X59900000Y-39990000D02*
G75*
G02X58200000Y-41690000I-1700000J0D01*
G01*
D10*
G36*
X50645000Y-37550000D02*
G01*
X50647500Y-37550000D01*
X50652500Y-40900000D01*
X58200000Y-40900000D01*
X58200000Y-41700000D01*
X49855000Y-41700000D01*
X49845000Y-38350000D01*
X49850000Y-38350000D01*
X49850000Y-36500000D01*
X50650000Y-36500000D01*
X50645000Y-37550000D01*
G37*
X50645000Y-37550000D02*
X50647500Y-37550000D01*
X50652500Y-40900000D01*
X58200000Y-40900000D01*
X58200000Y-41700000D01*
X49855000Y-41700000D01*
X49845000Y-38350000D01*
X49850000Y-38350000D01*
X49850000Y-36500000D01*
X50650000Y-36500000D01*
X50645000Y-37550000D01*
G36*
X58300000Y-28100000D02*
G01*
X50650000Y-28100000D01*
X50650000Y-33300000D01*
X49850000Y-33300000D01*
X49850000Y-27300000D01*
X58300000Y-27300000D01*
X58300000Y-28100000D01*
G37*
X58300000Y-28100000D02*
X50650000Y-28100000D01*
X50650000Y-33300000D01*
X49850000Y-33300000D01*
X49850000Y-27300000D01*
X58300000Y-27300000D01*
X58300000Y-28100000D01*
G36*
X47951000Y-41476000D02*
G01*
X46449000Y-41476000D01*
X46449000Y-40174000D01*
X47951000Y-40174000D01*
X47951000Y-41476000D01*
G37*
G36*
X45751000Y-41476000D02*
G01*
X44249000Y-41476000D01*
X44249000Y-40174000D01*
X45751000Y-40174000D01*
X45751000Y-41476000D01*
G37*
G36*
X26206938Y-40541716D02*
G01*
X26227557Y-40547971D01*
X26246553Y-40558124D01*
X26263208Y-40571792D01*
X26276876Y-40588447D01*
X26287029Y-40607443D01*
X26293284Y-40628062D01*
X26296000Y-40655640D01*
X26296000Y-41164360D01*
X26293284Y-41191938D01*
X26287029Y-41212557D01*
X26276876Y-41231553D01*
X26263208Y-41248208D01*
X26246553Y-41261876D01*
X26227557Y-41272029D01*
X26206938Y-41278284D01*
X26179360Y-41281000D01*
X25720640Y-41281000D01*
X25693062Y-41278284D01*
X25672443Y-41272029D01*
X25653447Y-41261876D01*
X25636792Y-41248208D01*
X25623124Y-41231553D01*
X25612971Y-41212557D01*
X25606716Y-41191938D01*
X25604000Y-41164360D01*
X25604000Y-40655640D01*
X25606716Y-40628062D01*
X25612971Y-40607443D01*
X25623124Y-40588447D01*
X25636792Y-40571792D01*
X25653447Y-40558124D01*
X25672443Y-40547971D01*
X25693062Y-40541716D01*
X25720640Y-40539000D01*
X26179360Y-40539000D01*
X26206938Y-40541716D01*
G37*
G36*
X27176938Y-40541716D02*
G01*
X27197557Y-40547971D01*
X27216553Y-40558124D01*
X27233208Y-40571792D01*
X27246876Y-40588447D01*
X27257029Y-40607443D01*
X27263284Y-40628062D01*
X27266000Y-40655640D01*
X27266000Y-41164360D01*
X27263284Y-41191938D01*
X27257029Y-41212557D01*
X27246876Y-41231553D01*
X27233208Y-41248208D01*
X27216553Y-41261876D01*
X27197557Y-41272029D01*
X27176938Y-41278284D01*
X27149360Y-41281000D01*
X26690640Y-41281000D01*
X26663062Y-41278284D01*
X26642443Y-41272029D01*
X26623447Y-41261876D01*
X26606792Y-41248208D01*
X26593124Y-41231553D01*
X26582971Y-41212557D01*
X26576716Y-41191938D01*
X26574000Y-41164360D01*
X26574000Y-40655640D01*
X26576716Y-40628062D01*
X26582971Y-40607443D01*
X26593124Y-40588447D01*
X26606792Y-40571792D01*
X26623447Y-40558124D01*
X26642443Y-40547971D01*
X26663062Y-40541716D01*
X26690640Y-40539000D01*
X27149360Y-40539000D01*
X27176938Y-40541716D01*
G37*
G36*
X49131938Y-40116716D02*
G01*
X49152557Y-40122971D01*
X49171553Y-40133124D01*
X49188208Y-40146792D01*
X49201876Y-40163447D01*
X49212029Y-40182443D01*
X49218284Y-40203062D01*
X49221000Y-40230640D01*
X49221000Y-40689360D01*
X49218284Y-40716938D01*
X49212029Y-40737557D01*
X49201876Y-40756553D01*
X49188208Y-40773208D01*
X49171553Y-40786876D01*
X49152557Y-40797029D01*
X49131938Y-40803284D01*
X49104360Y-40806000D01*
X48595640Y-40806000D01*
X48568062Y-40803284D01*
X48547443Y-40797029D01*
X48528447Y-40786876D01*
X48511792Y-40773208D01*
X48498124Y-40756553D01*
X48487971Y-40737557D01*
X48481716Y-40716938D01*
X48479000Y-40689360D01*
X48479000Y-40230640D01*
X48481716Y-40203062D01*
X48487971Y-40182443D01*
X48498124Y-40163447D01*
X48511792Y-40146792D01*
X48528447Y-40133124D01*
X48547443Y-40122971D01*
X48568062Y-40116716D01*
X48595640Y-40114000D01*
X49104360Y-40114000D01*
X49131938Y-40116716D01*
G37*
G36*
X43606938Y-40116716D02*
G01*
X43627557Y-40122971D01*
X43646553Y-40133124D01*
X43663208Y-40146792D01*
X43676876Y-40163447D01*
X43687029Y-40182443D01*
X43693284Y-40203062D01*
X43696000Y-40230640D01*
X43696000Y-40689360D01*
X43693284Y-40716938D01*
X43687029Y-40737557D01*
X43676876Y-40756553D01*
X43663208Y-40773208D01*
X43646553Y-40786876D01*
X43627557Y-40797029D01*
X43606938Y-40803284D01*
X43579360Y-40806000D01*
X43070640Y-40806000D01*
X43043062Y-40803284D01*
X43022443Y-40797029D01*
X43003447Y-40786876D01*
X42986792Y-40773208D01*
X42973124Y-40756553D01*
X42962971Y-40737557D01*
X42956716Y-40716938D01*
X42954000Y-40689360D01*
X42954000Y-40230640D01*
X42956716Y-40203062D01*
X42962971Y-40182443D01*
X42973124Y-40163447D01*
X42986792Y-40146792D01*
X43003447Y-40133124D01*
X43022443Y-40122971D01*
X43043062Y-40116716D01*
X43070640Y-40114000D01*
X43579360Y-40114000D01*
X43606938Y-40116716D01*
G37*
G36*
X28950721Y-38400174D02*
G01*
X29050995Y-38441709D01*
X29090653Y-38468208D01*
X29141242Y-38502010D01*
X29217990Y-38578758D01*
X29225518Y-38590025D01*
X29278291Y-38669005D01*
X29309516Y-38744389D01*
X29321067Y-38766000D01*
X29336612Y-38784941D01*
X29355554Y-38800487D01*
X29377165Y-38812038D01*
X29400614Y-38819151D01*
X29425000Y-38821553D01*
X29449386Y-38819151D01*
X29472835Y-38812038D01*
X29494446Y-38800487D01*
X29513387Y-38784942D01*
X29528933Y-38766000D01*
X29540484Y-38744389D01*
X29571709Y-38669005D01*
X29624482Y-38590025D01*
X29632010Y-38578758D01*
X29708758Y-38502010D01*
X29759347Y-38468208D01*
X29799005Y-38441709D01*
X29899279Y-38400174D01*
X30005730Y-38379000D01*
X30114270Y-38379000D01*
X30220721Y-38400174D01*
X30320995Y-38441709D01*
X30360653Y-38468208D01*
X30411242Y-38502010D01*
X30487990Y-38578758D01*
X30495518Y-38590025D01*
X30548291Y-38669005D01*
X30579516Y-38744389D01*
X30591067Y-38766000D01*
X30606612Y-38784941D01*
X30625554Y-38800487D01*
X30647165Y-38812038D01*
X30670614Y-38819151D01*
X30695000Y-38821553D01*
X30719386Y-38819151D01*
X30742835Y-38812038D01*
X30764446Y-38800487D01*
X30783387Y-38784942D01*
X30798933Y-38766000D01*
X30810484Y-38744389D01*
X30841709Y-38669005D01*
X30894482Y-38590025D01*
X30902010Y-38578758D01*
X30978758Y-38502010D01*
X31029347Y-38468208D01*
X31069005Y-38441709D01*
X31169279Y-38400174D01*
X31275730Y-38379000D01*
X31384270Y-38379000D01*
X31490721Y-38400174D01*
X31590995Y-38441709D01*
X31630653Y-38468208D01*
X31681242Y-38502010D01*
X31757990Y-38578758D01*
X31765518Y-38590025D01*
X31818291Y-38669005D01*
X31849516Y-38744389D01*
X31861067Y-38766000D01*
X31876612Y-38784941D01*
X31895554Y-38800487D01*
X31917165Y-38812038D01*
X31940614Y-38819151D01*
X31965000Y-38821553D01*
X31989386Y-38819151D01*
X32012835Y-38812038D01*
X32034446Y-38800487D01*
X32053387Y-38784942D01*
X32068933Y-38766000D01*
X32080484Y-38744389D01*
X32111709Y-38669005D01*
X32164482Y-38590025D01*
X32172010Y-38578758D01*
X32248758Y-38502010D01*
X32299347Y-38468208D01*
X32339005Y-38441709D01*
X32439279Y-38400174D01*
X32545730Y-38379000D01*
X32654270Y-38379000D01*
X32760721Y-38400174D01*
X32860995Y-38441709D01*
X32900653Y-38468208D01*
X32951242Y-38502010D01*
X33027990Y-38578758D01*
X33035518Y-38590025D01*
X33090068Y-38671664D01*
X33105614Y-38690606D01*
X33124556Y-38706151D01*
X33146167Y-38717702D01*
X33169615Y-38724815D01*
X33194002Y-38727217D01*
X33218388Y-38724815D01*
X33241837Y-38717702D01*
X33263447Y-38706151D01*
X33282389Y-38690605D01*
X33297934Y-38671663D01*
X33309485Y-38650052D01*
X33316598Y-38626604D01*
X33319000Y-38602218D01*
X33319000Y-38379000D01*
X34421000Y-38379000D01*
X34421000Y-39481000D01*
X34197782Y-39481000D01*
X34173396Y-39483402D01*
X34149947Y-39490515D01*
X34128336Y-39502066D01*
X34109394Y-39517611D01*
X34093849Y-39536553D01*
X34082298Y-39558164D01*
X34075185Y-39581613D01*
X34072783Y-39605999D01*
X34075185Y-39630385D01*
X34082298Y-39653834D01*
X34093849Y-39675445D01*
X34109394Y-39694387D01*
X34128336Y-39709932D01*
X34157178Y-39729204D01*
X34221242Y-39772010D01*
X34297990Y-39848758D01*
X34297991Y-39848760D01*
X34358291Y-39939005D01*
X34399826Y-40039279D01*
X34421000Y-40145730D01*
X34421000Y-40254270D01*
X34399826Y-40360721D01*
X34358291Y-40460995D01*
X34358290Y-40460996D01*
X34297990Y-40551242D01*
X34221242Y-40627990D01*
X34175812Y-40658345D01*
X34130995Y-40688291D01*
X34030721Y-40729826D01*
X33924270Y-40751000D01*
X33815730Y-40751000D01*
X33709279Y-40729826D01*
X33609005Y-40688291D01*
X33564188Y-40658345D01*
X33518758Y-40627990D01*
X33442010Y-40551242D01*
X33381710Y-40460996D01*
X33381709Y-40460995D01*
X33350484Y-40385611D01*
X33338933Y-40364000D01*
X33323388Y-40345059D01*
X33304446Y-40329513D01*
X33282835Y-40317962D01*
X33259386Y-40310849D01*
X33235000Y-40308447D01*
X33210614Y-40310849D01*
X33187165Y-40317962D01*
X33165554Y-40329513D01*
X33146613Y-40345058D01*
X33131067Y-40364000D01*
X33119516Y-40385611D01*
X33088291Y-40460995D01*
X33088290Y-40460996D01*
X33027990Y-40551242D01*
X32951242Y-40627990D01*
X32905812Y-40658345D01*
X32860995Y-40688291D01*
X32760721Y-40729826D01*
X32654270Y-40751000D01*
X32545730Y-40751000D01*
X32439279Y-40729826D01*
X32339005Y-40688291D01*
X32294188Y-40658345D01*
X32248758Y-40627990D01*
X32172010Y-40551242D01*
X32111710Y-40460996D01*
X32111709Y-40460995D01*
X32080484Y-40385611D01*
X32068933Y-40364000D01*
X32053388Y-40345059D01*
X32034446Y-40329513D01*
X32012835Y-40317962D01*
X31989386Y-40310849D01*
X31965000Y-40308447D01*
X31940614Y-40310849D01*
X31917165Y-40317962D01*
X31895554Y-40329513D01*
X31876613Y-40345058D01*
X31861067Y-40364000D01*
X31849516Y-40385611D01*
X31818291Y-40460995D01*
X31818290Y-40460996D01*
X31757990Y-40551242D01*
X31681242Y-40627990D01*
X31635812Y-40658345D01*
X31590995Y-40688291D01*
X31490721Y-40729826D01*
X31384270Y-40751000D01*
X31275730Y-40751000D01*
X31169279Y-40729826D01*
X31069005Y-40688291D01*
X31024188Y-40658345D01*
X30978758Y-40627990D01*
X30902010Y-40551242D01*
X30841710Y-40460996D01*
X30841709Y-40460995D01*
X30810484Y-40385611D01*
X30798933Y-40364000D01*
X30783388Y-40345059D01*
X30764446Y-40329513D01*
X30742835Y-40317962D01*
X30719386Y-40310849D01*
X30695000Y-40308447D01*
X30670614Y-40310849D01*
X30647165Y-40317962D01*
X30625554Y-40329513D01*
X30606613Y-40345058D01*
X30591067Y-40364000D01*
X30579516Y-40385611D01*
X30548291Y-40460995D01*
X30548290Y-40460996D01*
X30487990Y-40551242D01*
X30411242Y-40627990D01*
X30365812Y-40658345D01*
X30320995Y-40688291D01*
X30220721Y-40729826D01*
X30114270Y-40751000D01*
X30005730Y-40751000D01*
X29899279Y-40729826D01*
X29799005Y-40688291D01*
X29754188Y-40658345D01*
X29708758Y-40627990D01*
X29632010Y-40551242D01*
X29571710Y-40460996D01*
X29571709Y-40460995D01*
X29540484Y-40385611D01*
X29528933Y-40364000D01*
X29513388Y-40345059D01*
X29494446Y-40329513D01*
X29472835Y-40317962D01*
X29449386Y-40310849D01*
X29425000Y-40308447D01*
X29400614Y-40310849D01*
X29377165Y-40317962D01*
X29355554Y-40329513D01*
X29336613Y-40345058D01*
X29321067Y-40364000D01*
X29309516Y-40385611D01*
X29278291Y-40460995D01*
X29278290Y-40460996D01*
X29217990Y-40551242D01*
X29141242Y-40627990D01*
X29095812Y-40658345D01*
X29050995Y-40688291D01*
X28950721Y-40729826D01*
X28844270Y-40751000D01*
X28735730Y-40751000D01*
X28629279Y-40729826D01*
X28529005Y-40688291D01*
X28484188Y-40658345D01*
X28438758Y-40627990D01*
X28362010Y-40551242D01*
X28301710Y-40460996D01*
X28301709Y-40460995D01*
X28260174Y-40360721D01*
X28239000Y-40254270D01*
X28239000Y-40145730D01*
X28260174Y-40039279D01*
X28301709Y-39939005D01*
X28362009Y-39848760D01*
X28362010Y-39848758D01*
X28438758Y-39772010D01*
X28529004Y-39711710D01*
X28529005Y-39711709D01*
X28604389Y-39680484D01*
X28626000Y-39668933D01*
X28644941Y-39653388D01*
X28660487Y-39634446D01*
X28672038Y-39612835D01*
X28679151Y-39589386D01*
X28681553Y-39565000D01*
X28898447Y-39565000D01*
X28900849Y-39589386D01*
X28907962Y-39612835D01*
X28919513Y-39634446D01*
X28935058Y-39653387D01*
X28954000Y-39668933D01*
X28975611Y-39680484D01*
X29050995Y-39711709D01*
X29050996Y-39711710D01*
X29141242Y-39772010D01*
X29217990Y-39848758D01*
X29217991Y-39848760D01*
X29278291Y-39939005D01*
X29309516Y-40014389D01*
X29321067Y-40036000D01*
X29336612Y-40054941D01*
X29355554Y-40070487D01*
X29377165Y-40082038D01*
X29400614Y-40089151D01*
X29425000Y-40091553D01*
X29449386Y-40089151D01*
X29472835Y-40082038D01*
X29494446Y-40070487D01*
X29513387Y-40054942D01*
X29528933Y-40036000D01*
X29540484Y-40014389D01*
X29571709Y-39939005D01*
X29632009Y-39848760D01*
X29632010Y-39848758D01*
X29708758Y-39772010D01*
X29799004Y-39711710D01*
X29799005Y-39711709D01*
X29874389Y-39680484D01*
X29896000Y-39668933D01*
X29914941Y-39653388D01*
X29930487Y-39634446D01*
X29942038Y-39612835D01*
X29949151Y-39589386D01*
X29951553Y-39565000D01*
X30168447Y-39565000D01*
X30170849Y-39589386D01*
X30177962Y-39612835D01*
X30189513Y-39634446D01*
X30205058Y-39653387D01*
X30224000Y-39668933D01*
X30245611Y-39680484D01*
X30320995Y-39711709D01*
X30320996Y-39711710D01*
X30411242Y-39772010D01*
X30487990Y-39848758D01*
X30487991Y-39848760D01*
X30548291Y-39939005D01*
X30579516Y-40014389D01*
X30591067Y-40036000D01*
X30606612Y-40054941D01*
X30625554Y-40070487D01*
X30647165Y-40082038D01*
X30670614Y-40089151D01*
X30695000Y-40091553D01*
X30719386Y-40089151D01*
X30742835Y-40082038D01*
X30764446Y-40070487D01*
X30783387Y-40054942D01*
X30798933Y-40036000D01*
X30810484Y-40014389D01*
X30841709Y-39939005D01*
X30902009Y-39848760D01*
X30902010Y-39848758D01*
X30978758Y-39772010D01*
X31069004Y-39711710D01*
X31069005Y-39711709D01*
X31144389Y-39680484D01*
X31166000Y-39668933D01*
X31184941Y-39653388D01*
X31200487Y-39634446D01*
X31212038Y-39612835D01*
X31219151Y-39589386D01*
X31221553Y-39565000D01*
X31438447Y-39565000D01*
X31440849Y-39589386D01*
X31447962Y-39612835D01*
X31459513Y-39634446D01*
X31475058Y-39653387D01*
X31494000Y-39668933D01*
X31515611Y-39680484D01*
X31590995Y-39711709D01*
X31590996Y-39711710D01*
X31681242Y-39772010D01*
X31757990Y-39848758D01*
X31757991Y-39848760D01*
X31818291Y-39939005D01*
X31849516Y-40014389D01*
X31861067Y-40036000D01*
X31876612Y-40054941D01*
X31895554Y-40070487D01*
X31917165Y-40082038D01*
X31940614Y-40089151D01*
X31965000Y-40091553D01*
X31989386Y-40089151D01*
X32012835Y-40082038D01*
X32034446Y-40070487D01*
X32053387Y-40054942D01*
X32068933Y-40036000D01*
X32080484Y-40014389D01*
X32111709Y-39939005D01*
X32172009Y-39848760D01*
X32172010Y-39848758D01*
X32248758Y-39772010D01*
X32339004Y-39711710D01*
X32339005Y-39711709D01*
X32414389Y-39680484D01*
X32436000Y-39668933D01*
X32454941Y-39653388D01*
X32470487Y-39634446D01*
X32482038Y-39612835D01*
X32489151Y-39589386D01*
X32491553Y-39565000D01*
X32708447Y-39565000D01*
X32710849Y-39589386D01*
X32717962Y-39612835D01*
X32729513Y-39634446D01*
X32745058Y-39653387D01*
X32764000Y-39668933D01*
X32785611Y-39680484D01*
X32860995Y-39711709D01*
X32860996Y-39711710D01*
X32951242Y-39772010D01*
X33027990Y-39848758D01*
X33027991Y-39848760D01*
X33088291Y-39939005D01*
X33119516Y-40014389D01*
X33131067Y-40036000D01*
X33146612Y-40054941D01*
X33165554Y-40070487D01*
X33187165Y-40082038D01*
X33210614Y-40089151D01*
X33235000Y-40091553D01*
X33259386Y-40089151D01*
X33282835Y-40082038D01*
X33304446Y-40070487D01*
X33323387Y-40054942D01*
X33338933Y-40036000D01*
X33350484Y-40014389D01*
X33381709Y-39939005D01*
X33442009Y-39848760D01*
X33442010Y-39848758D01*
X33518758Y-39772010D01*
X33582822Y-39729204D01*
X33611664Y-39709932D01*
X33630606Y-39694386D01*
X33646151Y-39675444D01*
X33657702Y-39653833D01*
X33664815Y-39630385D01*
X33667217Y-39605998D01*
X33664815Y-39581612D01*
X33657702Y-39558163D01*
X33646151Y-39536553D01*
X33630605Y-39517611D01*
X33611663Y-39502066D01*
X33590052Y-39490515D01*
X33566604Y-39483402D01*
X33542218Y-39481000D01*
X33319000Y-39481000D01*
X33319000Y-39257782D01*
X33316598Y-39233396D01*
X33309485Y-39209947D01*
X33297934Y-39188336D01*
X33282389Y-39169394D01*
X33263447Y-39153849D01*
X33241836Y-39142298D01*
X33218387Y-39135185D01*
X33194001Y-39132783D01*
X33169615Y-39135185D01*
X33146166Y-39142298D01*
X33124555Y-39153849D01*
X33105613Y-39169394D01*
X33090068Y-39188336D01*
X33048988Y-39249816D01*
X33027990Y-39281242D01*
X32951242Y-39357990D01*
X32905812Y-39388345D01*
X32860995Y-39418291D01*
X32785611Y-39449516D01*
X32764000Y-39461067D01*
X32745059Y-39476612D01*
X32729513Y-39495554D01*
X32717962Y-39517165D01*
X32710849Y-39540614D01*
X32708447Y-39565000D01*
X32491553Y-39565000D01*
X32489151Y-39540614D01*
X32482038Y-39517165D01*
X32470487Y-39495554D01*
X32454942Y-39476613D01*
X32436000Y-39461067D01*
X32414389Y-39449516D01*
X32339005Y-39418291D01*
X32294188Y-39388345D01*
X32248758Y-39357990D01*
X32172010Y-39281242D01*
X32126040Y-39212443D01*
X32111709Y-39190995D01*
X32080484Y-39115611D01*
X32068933Y-39094000D01*
X32053388Y-39075059D01*
X32034446Y-39059513D01*
X32012835Y-39047962D01*
X31989386Y-39040849D01*
X31965000Y-39038447D01*
X31940614Y-39040849D01*
X31917165Y-39047962D01*
X31895554Y-39059513D01*
X31876613Y-39075058D01*
X31861067Y-39094000D01*
X31849516Y-39115611D01*
X31818291Y-39190995D01*
X31803960Y-39212443D01*
X31757990Y-39281242D01*
X31681242Y-39357990D01*
X31635812Y-39388345D01*
X31590995Y-39418291D01*
X31515611Y-39449516D01*
X31494000Y-39461067D01*
X31475059Y-39476612D01*
X31459513Y-39495554D01*
X31447962Y-39517165D01*
X31440849Y-39540614D01*
X31438447Y-39565000D01*
X31221553Y-39565000D01*
X31219151Y-39540614D01*
X31212038Y-39517165D01*
X31200487Y-39495554D01*
X31184942Y-39476613D01*
X31166000Y-39461067D01*
X31144389Y-39449516D01*
X31069005Y-39418291D01*
X31024188Y-39388345D01*
X30978758Y-39357990D01*
X30902010Y-39281242D01*
X30856040Y-39212443D01*
X30841709Y-39190995D01*
X30810484Y-39115611D01*
X30798933Y-39094000D01*
X30783388Y-39075059D01*
X30764446Y-39059513D01*
X30742835Y-39047962D01*
X30719386Y-39040849D01*
X30695000Y-39038447D01*
X30670614Y-39040849D01*
X30647165Y-39047962D01*
X30625554Y-39059513D01*
X30606613Y-39075058D01*
X30591067Y-39094000D01*
X30579516Y-39115611D01*
X30548291Y-39190995D01*
X30533960Y-39212443D01*
X30487990Y-39281242D01*
X30411242Y-39357990D01*
X30365812Y-39388345D01*
X30320995Y-39418291D01*
X30245611Y-39449516D01*
X30224000Y-39461067D01*
X30205059Y-39476612D01*
X30189513Y-39495554D01*
X30177962Y-39517165D01*
X30170849Y-39540614D01*
X30168447Y-39565000D01*
X29951553Y-39565000D01*
X29949151Y-39540614D01*
X29942038Y-39517165D01*
X29930487Y-39495554D01*
X29914942Y-39476613D01*
X29896000Y-39461067D01*
X29874389Y-39449516D01*
X29799005Y-39418291D01*
X29754188Y-39388345D01*
X29708758Y-39357990D01*
X29632010Y-39281242D01*
X29586040Y-39212443D01*
X29571709Y-39190995D01*
X29540484Y-39115611D01*
X29528933Y-39094000D01*
X29513388Y-39075059D01*
X29494446Y-39059513D01*
X29472835Y-39047962D01*
X29449386Y-39040849D01*
X29425000Y-39038447D01*
X29400614Y-39040849D01*
X29377165Y-39047962D01*
X29355554Y-39059513D01*
X29336613Y-39075058D01*
X29321067Y-39094000D01*
X29309516Y-39115611D01*
X29278291Y-39190995D01*
X29263960Y-39212443D01*
X29217990Y-39281242D01*
X29141242Y-39357990D01*
X29095812Y-39388345D01*
X29050995Y-39418291D01*
X28975611Y-39449516D01*
X28954000Y-39461067D01*
X28935059Y-39476612D01*
X28919513Y-39495554D01*
X28907962Y-39517165D01*
X28900849Y-39540614D01*
X28898447Y-39565000D01*
X28681553Y-39565000D01*
X28679151Y-39540614D01*
X28672038Y-39517165D01*
X28660487Y-39495554D01*
X28644942Y-39476613D01*
X28626000Y-39461067D01*
X28604389Y-39449516D01*
X28529005Y-39418291D01*
X28484188Y-39388345D01*
X28438758Y-39357990D01*
X28362010Y-39281242D01*
X28316040Y-39212443D01*
X28301709Y-39190995D01*
X28260174Y-39090721D01*
X28239000Y-38984270D01*
X28239000Y-38875730D01*
X28260174Y-38769279D01*
X28301709Y-38669005D01*
X28354482Y-38590025D01*
X28362010Y-38578758D01*
X28438758Y-38502010D01*
X28489347Y-38468208D01*
X28529005Y-38441709D01*
X28629279Y-38400174D01*
X28735730Y-38379000D01*
X28844270Y-38379000D01*
X28950721Y-38400174D01*
G37*
G36*
X43606938Y-39146716D02*
G01*
X43627557Y-39152971D01*
X43646553Y-39163124D01*
X43663208Y-39176792D01*
X43676876Y-39193447D01*
X43687029Y-39212443D01*
X43693284Y-39233062D01*
X43696000Y-39260640D01*
X43696000Y-39719360D01*
X43693284Y-39746938D01*
X43687029Y-39767557D01*
X43676876Y-39786553D01*
X43663208Y-39803208D01*
X43646553Y-39816876D01*
X43627557Y-39827029D01*
X43606938Y-39833284D01*
X43579360Y-39836000D01*
X43070640Y-39836000D01*
X43043062Y-39833284D01*
X43022443Y-39827029D01*
X43003447Y-39816876D01*
X42986792Y-39803208D01*
X42973124Y-39786553D01*
X42962971Y-39767557D01*
X42956716Y-39746938D01*
X42954000Y-39719360D01*
X42954000Y-39260640D01*
X42956716Y-39233062D01*
X42962971Y-39212443D01*
X42973124Y-39193447D01*
X42986792Y-39176792D01*
X43003447Y-39163124D01*
X43022443Y-39152971D01*
X43043062Y-39146716D01*
X43070640Y-39144000D01*
X43579360Y-39144000D01*
X43606938Y-39146716D01*
G37*
G36*
X49131938Y-39146716D02*
G01*
X49152557Y-39152971D01*
X49171553Y-39163124D01*
X49188208Y-39176792D01*
X49201876Y-39193447D01*
X49212029Y-39212443D01*
X49218284Y-39233062D01*
X49221000Y-39260640D01*
X49221000Y-39719360D01*
X49218284Y-39746938D01*
X49212029Y-39767557D01*
X49201876Y-39786553D01*
X49188208Y-39803208D01*
X49171553Y-39816876D01*
X49152557Y-39827029D01*
X49131938Y-39833284D01*
X49104360Y-39836000D01*
X48595640Y-39836000D01*
X48568062Y-39833284D01*
X48547443Y-39827029D01*
X48528447Y-39816876D01*
X48511792Y-39803208D01*
X48498124Y-39786553D01*
X48487971Y-39767557D01*
X48481716Y-39746938D01*
X48479000Y-39719360D01*
X48479000Y-39260640D01*
X48481716Y-39233062D01*
X48487971Y-39212443D01*
X48498124Y-39193447D01*
X48511792Y-39176792D01*
X48528447Y-39163124D01*
X48547443Y-39152971D01*
X48568062Y-39146716D01*
X48595640Y-39144000D01*
X49104360Y-39144000D01*
X49131938Y-39146716D01*
G37*
G36*
X45751000Y-39776000D02*
G01*
X44249000Y-39776000D01*
X44249000Y-38474000D01*
X45751000Y-38474000D01*
X45751000Y-39776000D01*
G37*
G36*
X47951000Y-39776000D02*
G01*
X46449000Y-39776000D01*
X46449000Y-38474000D01*
X47951000Y-38474000D01*
X47951000Y-39776000D01*
G37*
G36*
X23526000Y-36701000D02*
G01*
X22918230Y-36701000D01*
X22893844Y-36703402D01*
X22870395Y-36710515D01*
X22848784Y-36722066D01*
X22829842Y-36737611D01*
X22814297Y-36756553D01*
X22802746Y-36778164D01*
X22795633Y-36801613D01*
X22793231Y-36825999D01*
X22795633Y-36850385D01*
X22802746Y-36873834D01*
X22814297Y-36895445D01*
X22829842Y-36914387D01*
X22848784Y-36929932D01*
X22870395Y-36941483D01*
X22893844Y-36948596D01*
X22905978Y-36950396D01*
X23016823Y-36961313D01*
X23177242Y-37009976D01*
X23309906Y-37080886D01*
X23325078Y-37088996D01*
X23454659Y-37195341D01*
X23561004Y-37324922D01*
X23569114Y-37340094D01*
X23640024Y-37472758D01*
X23688687Y-37633177D01*
X23705117Y-37800000D01*
X23688687Y-37966823D01*
X23640024Y-38127242D01*
X23569114Y-38259906D01*
X23561004Y-38275078D01*
X23454659Y-38404659D01*
X23325078Y-38511004D01*
X23325076Y-38511005D01*
X23177242Y-38590024D01*
X23016823Y-38638687D01*
X22891804Y-38651000D01*
X22458196Y-38651000D01*
X22333177Y-38638687D01*
X22172758Y-38590024D01*
X22024924Y-38511005D01*
X22024922Y-38511004D01*
X21895341Y-38404659D01*
X21788996Y-38275078D01*
X21780886Y-38259906D01*
X21709976Y-38127242D01*
X21661313Y-37966823D01*
X21644883Y-37800000D01*
X21661313Y-37633177D01*
X21709976Y-37472758D01*
X21780886Y-37340094D01*
X21788996Y-37324922D01*
X21895341Y-37195341D01*
X22024922Y-37088996D01*
X22040094Y-37080886D01*
X22172758Y-37009976D01*
X22333177Y-36961313D01*
X22444022Y-36950396D01*
X22468055Y-36945616D01*
X22490694Y-36936238D01*
X22511068Y-36922625D01*
X22528395Y-36905298D01*
X22542009Y-36884923D01*
X22551387Y-36862284D01*
X22556167Y-36838251D01*
X22556167Y-36813747D01*
X22551387Y-36789714D01*
X22542009Y-36767075D01*
X22528396Y-36746701D01*
X22511069Y-36729374D01*
X22490694Y-36715760D01*
X22468055Y-36706382D01*
X22444022Y-36701602D01*
X22431770Y-36701000D01*
X21824000Y-36701000D01*
X21824000Y-34699000D01*
X23526000Y-34699000D01*
X23526000Y-36701000D01*
G37*
G36*
X25876000Y-38551000D02*
G01*
X24374000Y-38551000D01*
X24374000Y-36849000D01*
X25876000Y-36849000D01*
X25876000Y-38551000D01*
G37*
G36*
X36411938Y-37761716D02*
G01*
X36432557Y-37767971D01*
X36451553Y-37778124D01*
X36468208Y-37791792D01*
X36481876Y-37808447D01*
X36492029Y-37827443D01*
X36498284Y-37848062D01*
X36501000Y-37875640D01*
X36501000Y-38384360D01*
X36498284Y-38411938D01*
X36492029Y-38432557D01*
X36481876Y-38451553D01*
X36468208Y-38468208D01*
X36451553Y-38481876D01*
X36432557Y-38492029D01*
X36411938Y-38498284D01*
X36384360Y-38501000D01*
X35925640Y-38501000D01*
X35898062Y-38498284D01*
X35877443Y-38492029D01*
X35858447Y-38481876D01*
X35841792Y-38468208D01*
X35828124Y-38451553D01*
X35817971Y-38432557D01*
X35811716Y-38411938D01*
X35809000Y-38384360D01*
X35809000Y-37875640D01*
X35811716Y-37848062D01*
X35817971Y-37827443D01*
X35828124Y-37808447D01*
X35841792Y-37791792D01*
X35858447Y-37778124D01*
X35877443Y-37767971D01*
X35898062Y-37761716D01*
X35925640Y-37759000D01*
X36384360Y-37759000D01*
X36411938Y-37761716D01*
G37*
G36*
X37381938Y-37761716D02*
G01*
X37402557Y-37767971D01*
X37421553Y-37778124D01*
X37438208Y-37791792D01*
X37451876Y-37808447D01*
X37462029Y-37827443D01*
X37468284Y-37848062D01*
X37471000Y-37875640D01*
X37471000Y-38384360D01*
X37468284Y-38411938D01*
X37462029Y-38432557D01*
X37451876Y-38451553D01*
X37438208Y-38468208D01*
X37421553Y-38481876D01*
X37402557Y-38492029D01*
X37381938Y-38498284D01*
X37354360Y-38501000D01*
X36895640Y-38501000D01*
X36868062Y-38498284D01*
X36847443Y-38492029D01*
X36828447Y-38481876D01*
X36811792Y-38468208D01*
X36798124Y-38451553D01*
X36787971Y-38432557D01*
X36781716Y-38411938D01*
X36779000Y-38384360D01*
X36779000Y-37875640D01*
X36781716Y-37848062D01*
X36787971Y-37827443D01*
X36798124Y-37808447D01*
X36811792Y-37791792D01*
X36828447Y-37778124D01*
X36847443Y-37767971D01*
X36868062Y-37761716D01*
X36895640Y-37759000D01*
X37354360Y-37759000D01*
X37381938Y-37761716D01*
G37*
G36*
X59751000Y-38051000D02*
G01*
X55449000Y-38051000D01*
X55449000Y-36599000D01*
X59751000Y-36599000D01*
X59751000Y-38051000D01*
G37*
G36*
X47816938Y-37206716D02*
G01*
X47837557Y-37212971D01*
X47856553Y-37223124D01*
X47873208Y-37236792D01*
X47886876Y-37253447D01*
X47897029Y-37272443D01*
X47903284Y-37293062D01*
X47906000Y-37320640D01*
X47906000Y-37829360D01*
X47903284Y-37856938D01*
X47897029Y-37877557D01*
X47886876Y-37896553D01*
X47873208Y-37913208D01*
X47856553Y-37926876D01*
X47837557Y-37937029D01*
X47816938Y-37943284D01*
X47789360Y-37946000D01*
X47330640Y-37946000D01*
X47303062Y-37943284D01*
X47282443Y-37937029D01*
X47263447Y-37926876D01*
X47246792Y-37913208D01*
X47233124Y-37896553D01*
X47222971Y-37877557D01*
X47216716Y-37856938D01*
X47214000Y-37829360D01*
X47214000Y-37320640D01*
X47216716Y-37293062D01*
X47222971Y-37272443D01*
X47233124Y-37253447D01*
X47246792Y-37236792D01*
X47263447Y-37223124D01*
X47282443Y-37212971D01*
X47303062Y-37206716D01*
X47330640Y-37204000D01*
X47789360Y-37204000D01*
X47816938Y-37206716D01*
G37*
G36*
X46846938Y-37206716D02*
G01*
X46867557Y-37212971D01*
X46886553Y-37223124D01*
X46903208Y-37236792D01*
X46916876Y-37253447D01*
X46927029Y-37272443D01*
X46933284Y-37293062D01*
X46936000Y-37320640D01*
X46936000Y-37829360D01*
X46933284Y-37856938D01*
X46927029Y-37877557D01*
X46916876Y-37896553D01*
X46903208Y-37913208D01*
X46886553Y-37926876D01*
X46867557Y-37937029D01*
X46846938Y-37943284D01*
X46819360Y-37946000D01*
X46360640Y-37946000D01*
X46333062Y-37943284D01*
X46312443Y-37937029D01*
X46293447Y-37926876D01*
X46276792Y-37913208D01*
X46263124Y-37896553D01*
X46252971Y-37877557D01*
X46246716Y-37856938D01*
X46244000Y-37829360D01*
X46244000Y-37320640D01*
X46246716Y-37293062D01*
X46252971Y-37272443D01*
X46263124Y-37253447D01*
X46276792Y-37236792D01*
X46293447Y-37223124D01*
X46312443Y-37212971D01*
X46333062Y-37206716D01*
X46360640Y-37204000D01*
X46819360Y-37204000D01*
X46846938Y-37206716D01*
G37*
G36*
X45056938Y-37181716D02*
G01*
X45077557Y-37187971D01*
X45096553Y-37198124D01*
X45113208Y-37211792D01*
X45126876Y-37228447D01*
X45137029Y-37247443D01*
X45143284Y-37268062D01*
X45146000Y-37295640D01*
X45146000Y-37804360D01*
X45143284Y-37831938D01*
X45137029Y-37852557D01*
X45126876Y-37871553D01*
X45113208Y-37888208D01*
X45096553Y-37901876D01*
X45077557Y-37912029D01*
X45056938Y-37918284D01*
X45029360Y-37921000D01*
X44570640Y-37921000D01*
X44543062Y-37918284D01*
X44522443Y-37912029D01*
X44503447Y-37901876D01*
X44486792Y-37888208D01*
X44473124Y-37871553D01*
X44462971Y-37852557D01*
X44456716Y-37831938D01*
X44454000Y-37804360D01*
X44454000Y-37295640D01*
X44456716Y-37268062D01*
X44462971Y-37247443D01*
X44473124Y-37228447D01*
X44486792Y-37211792D01*
X44503447Y-37198124D01*
X44522443Y-37187971D01*
X44543062Y-37181716D01*
X44570640Y-37179000D01*
X45029360Y-37179000D01*
X45056938Y-37181716D01*
G37*
G36*
X44086938Y-37181716D02*
G01*
X44107557Y-37187971D01*
X44126553Y-37198124D01*
X44143208Y-37211792D01*
X44156876Y-37228447D01*
X44167029Y-37247443D01*
X44173284Y-37268062D01*
X44176000Y-37295640D01*
X44176000Y-37804360D01*
X44173284Y-37831938D01*
X44167029Y-37852557D01*
X44156876Y-37871553D01*
X44143208Y-37888208D01*
X44126553Y-37901876D01*
X44107557Y-37912029D01*
X44086938Y-37918284D01*
X44059360Y-37921000D01*
X43600640Y-37921000D01*
X43573062Y-37918284D01*
X43552443Y-37912029D01*
X43533447Y-37901876D01*
X43516792Y-37888208D01*
X43503124Y-37871553D01*
X43492971Y-37852557D01*
X43486716Y-37831938D01*
X43484000Y-37804360D01*
X43484000Y-37295640D01*
X43486716Y-37268062D01*
X43492971Y-37247443D01*
X43503124Y-37228447D01*
X43516792Y-37211792D01*
X43533447Y-37198124D01*
X43552443Y-37187971D01*
X43573062Y-37181716D01*
X43600640Y-37179000D01*
X44059360Y-37179000D01*
X44086938Y-37181716D01*
G37*
G36*
X37070355Y-31530083D02*
G01*
X37075029Y-31531501D01*
X37079330Y-31533800D01*
X37085702Y-31539029D01*
X37106076Y-31552643D01*
X37128715Y-31562020D01*
X37152749Y-31566800D01*
X37177253Y-31566800D01*
X37201286Y-31562019D01*
X37223925Y-31552642D01*
X37244298Y-31539029D01*
X37250670Y-31533800D01*
X37254971Y-31531501D01*
X37259645Y-31530083D01*
X37270641Y-31529000D01*
X37559359Y-31529000D01*
X37570355Y-31530083D01*
X37575029Y-31531501D01*
X37579330Y-31533800D01*
X37585702Y-31539029D01*
X37606076Y-31552643D01*
X37628715Y-31562020D01*
X37652749Y-31566800D01*
X37677253Y-31566800D01*
X37701286Y-31562019D01*
X37723925Y-31552642D01*
X37744298Y-31539029D01*
X37750670Y-31533800D01*
X37754971Y-31531501D01*
X37759645Y-31530083D01*
X37770641Y-31529000D01*
X38059359Y-31529000D01*
X38070355Y-31530083D01*
X38075029Y-31531501D01*
X38079330Y-31533800D01*
X38085702Y-31539029D01*
X38106076Y-31552643D01*
X38128715Y-31562020D01*
X38152749Y-31566800D01*
X38177253Y-31566800D01*
X38201286Y-31562019D01*
X38223925Y-31552642D01*
X38244298Y-31539029D01*
X38250670Y-31533800D01*
X38254971Y-31531501D01*
X38259645Y-31530083D01*
X38270641Y-31529000D01*
X38559359Y-31529000D01*
X38570355Y-31530083D01*
X38575029Y-31531501D01*
X38579330Y-31533800D01*
X38585702Y-31539029D01*
X38606076Y-31552643D01*
X38628715Y-31562020D01*
X38652749Y-31566800D01*
X38677253Y-31566800D01*
X38701286Y-31562019D01*
X38723925Y-31552642D01*
X38744298Y-31539029D01*
X38750670Y-31533800D01*
X38754971Y-31531501D01*
X38759645Y-31530083D01*
X38770641Y-31529000D01*
X39059359Y-31529000D01*
X39070355Y-31530083D01*
X39075029Y-31531501D01*
X39079330Y-31533800D01*
X39085702Y-31539029D01*
X39106076Y-31552643D01*
X39128715Y-31562020D01*
X39152749Y-31566800D01*
X39177253Y-31566800D01*
X39201286Y-31562019D01*
X39223925Y-31552642D01*
X39244298Y-31539029D01*
X39250670Y-31533800D01*
X39254971Y-31531501D01*
X39259645Y-31530083D01*
X39270641Y-31529000D01*
X39559359Y-31529000D01*
X39570355Y-31530083D01*
X39575029Y-31531501D01*
X39579330Y-31533800D01*
X39585702Y-31539029D01*
X39606076Y-31552643D01*
X39628715Y-31562020D01*
X39652749Y-31566800D01*
X39677253Y-31566800D01*
X39701286Y-31562019D01*
X39723925Y-31552642D01*
X39744298Y-31539029D01*
X39750670Y-31533800D01*
X39754971Y-31531501D01*
X39759645Y-31530083D01*
X39770641Y-31529000D01*
X40059359Y-31529000D01*
X40070355Y-31530083D01*
X40075029Y-31531501D01*
X40079330Y-31533800D01*
X40085702Y-31539029D01*
X40106076Y-31552643D01*
X40128715Y-31562020D01*
X40152749Y-31566800D01*
X40177253Y-31566800D01*
X40201286Y-31562019D01*
X40223925Y-31552642D01*
X40244298Y-31539029D01*
X40250670Y-31533800D01*
X40254971Y-31531501D01*
X40259645Y-31530083D01*
X40270641Y-31529000D01*
X40559359Y-31529000D01*
X40570355Y-31530083D01*
X40575029Y-31531501D01*
X40579331Y-31533800D01*
X40583104Y-31536896D01*
X40586200Y-31540669D01*
X40588499Y-31544971D01*
X40589917Y-31549645D01*
X40591000Y-31560641D01*
X40591000Y-32404001D01*
X40593402Y-32428387D01*
X40600515Y-32451836D01*
X40612066Y-32473447D01*
X40627611Y-32492389D01*
X40646553Y-32507934D01*
X40668164Y-32519485D01*
X40691613Y-32526598D01*
X40715999Y-32529000D01*
X41559359Y-32529000D01*
X41570355Y-32530083D01*
X41575029Y-32531501D01*
X41579331Y-32533800D01*
X41583104Y-32536896D01*
X41586200Y-32540669D01*
X41588499Y-32544971D01*
X41589917Y-32549645D01*
X41591000Y-32560641D01*
X41591000Y-32849359D01*
X41589917Y-32860355D01*
X41588499Y-32865029D01*
X41586200Y-32869330D01*
X41580971Y-32875702D01*
X41567357Y-32896076D01*
X41557980Y-32918715D01*
X41553200Y-32942749D01*
X41553200Y-32967253D01*
X41557981Y-32991286D01*
X41567358Y-33013925D01*
X41580971Y-33034298D01*
X41586200Y-33040670D01*
X41588499Y-33044971D01*
X41589917Y-33049645D01*
X41591000Y-33060641D01*
X41591000Y-33349359D01*
X41589917Y-33360355D01*
X41588499Y-33365029D01*
X41586200Y-33369330D01*
X41580971Y-33375702D01*
X41567357Y-33396076D01*
X41557980Y-33418715D01*
X41553200Y-33442749D01*
X41553200Y-33467253D01*
X41557981Y-33491286D01*
X41567358Y-33513925D01*
X41580971Y-33534298D01*
X41586200Y-33540670D01*
X41588499Y-33544971D01*
X41589917Y-33549645D01*
X41591000Y-33560641D01*
X41591000Y-33849359D01*
X41589917Y-33860355D01*
X41588499Y-33865029D01*
X41586200Y-33869330D01*
X41580971Y-33875702D01*
X41567357Y-33896076D01*
X41557980Y-33918715D01*
X41553200Y-33942749D01*
X41553200Y-33967253D01*
X41557981Y-33991286D01*
X41567358Y-34013925D01*
X41580971Y-34034298D01*
X41586200Y-34040670D01*
X41588499Y-34044971D01*
X41589917Y-34049645D01*
X41591000Y-34060641D01*
X41591000Y-34349359D01*
X41589917Y-34360355D01*
X41588499Y-34365029D01*
X41586200Y-34369330D01*
X41580971Y-34375702D01*
X41567357Y-34396076D01*
X41557980Y-34418715D01*
X41553200Y-34442749D01*
X41553200Y-34467253D01*
X41557981Y-34491286D01*
X41567358Y-34513925D01*
X41580971Y-34534298D01*
X41586200Y-34540670D01*
X41588499Y-34544971D01*
X41589917Y-34549645D01*
X41591000Y-34560641D01*
X41591000Y-34849359D01*
X41589917Y-34860355D01*
X41588499Y-34865029D01*
X41586200Y-34869330D01*
X41580971Y-34875702D01*
X41567357Y-34896076D01*
X41557980Y-34918715D01*
X41553200Y-34942749D01*
X41553200Y-34967253D01*
X41557981Y-34991286D01*
X41567358Y-35013925D01*
X41580971Y-35034298D01*
X41586200Y-35040670D01*
X41588499Y-35044971D01*
X41589917Y-35049645D01*
X41591000Y-35060641D01*
X41591000Y-35349359D01*
X41589917Y-35360355D01*
X41588499Y-35365029D01*
X41586200Y-35369330D01*
X41580971Y-35375702D01*
X41567357Y-35396076D01*
X41557980Y-35418715D01*
X41553200Y-35442749D01*
X41553200Y-35467253D01*
X41557981Y-35491286D01*
X41567358Y-35513925D01*
X41580971Y-35534298D01*
X41586200Y-35540670D01*
X41588499Y-35544971D01*
X41589917Y-35549645D01*
X41591000Y-35560641D01*
X41591000Y-35849359D01*
X41589917Y-35860355D01*
X41588499Y-35865029D01*
X41586200Y-35869330D01*
X41580971Y-35875702D01*
X41567357Y-35896076D01*
X41557980Y-35918715D01*
X41553200Y-35942749D01*
X41553200Y-35967253D01*
X41557981Y-35991286D01*
X41567358Y-36013925D01*
X41580971Y-36034298D01*
X41586200Y-36040670D01*
X41588499Y-36044971D01*
X41589917Y-36049645D01*
X41591000Y-36060641D01*
X41591000Y-36349359D01*
X41589917Y-36360355D01*
X41588499Y-36365029D01*
X41586200Y-36369331D01*
X41583104Y-36373104D01*
X41579331Y-36376200D01*
X41575029Y-36378499D01*
X41570355Y-36379917D01*
X41559359Y-36381000D01*
X40715999Y-36381000D01*
X40691613Y-36383402D01*
X40668164Y-36390515D01*
X40646553Y-36402066D01*
X40627611Y-36417611D01*
X40612066Y-36436553D01*
X40600515Y-36458164D01*
X40593402Y-36481613D01*
X40591000Y-36505999D01*
X40591000Y-37349359D01*
X40589917Y-37360355D01*
X40588499Y-37365029D01*
X40586200Y-37369331D01*
X40583104Y-37373104D01*
X40579331Y-37376200D01*
X40575029Y-37378499D01*
X40570355Y-37379917D01*
X40559359Y-37381000D01*
X40270641Y-37381000D01*
X40259645Y-37379917D01*
X40254971Y-37378499D01*
X40250670Y-37376200D01*
X40244298Y-37370971D01*
X40223924Y-37357357D01*
X40201285Y-37347980D01*
X40177251Y-37343200D01*
X40152747Y-37343200D01*
X40128714Y-37347981D01*
X40106075Y-37357358D01*
X40085702Y-37370971D01*
X40079330Y-37376200D01*
X40075029Y-37378499D01*
X40070355Y-37379917D01*
X40059359Y-37381000D01*
X39770641Y-37381000D01*
X39759645Y-37379917D01*
X39754971Y-37378499D01*
X39750670Y-37376200D01*
X39744298Y-37370971D01*
X39723924Y-37357357D01*
X39701285Y-37347980D01*
X39677251Y-37343200D01*
X39652747Y-37343200D01*
X39628714Y-37347981D01*
X39606075Y-37357358D01*
X39585702Y-37370971D01*
X39579330Y-37376200D01*
X39575029Y-37378499D01*
X39570355Y-37379917D01*
X39559359Y-37381000D01*
X39270641Y-37381000D01*
X39259645Y-37379917D01*
X39254971Y-37378499D01*
X39250670Y-37376200D01*
X39244298Y-37370971D01*
X39223924Y-37357357D01*
X39201285Y-37347980D01*
X39177251Y-37343200D01*
X39152747Y-37343200D01*
X39128714Y-37347981D01*
X39106075Y-37357358D01*
X39085702Y-37370971D01*
X39079330Y-37376200D01*
X39075029Y-37378499D01*
X39070355Y-37379917D01*
X39059359Y-37381000D01*
X38770641Y-37381000D01*
X38759645Y-37379917D01*
X38754971Y-37378499D01*
X38750670Y-37376200D01*
X38744298Y-37370971D01*
X38723924Y-37357357D01*
X38701285Y-37347980D01*
X38677251Y-37343200D01*
X38652747Y-37343200D01*
X38628714Y-37347981D01*
X38606075Y-37357358D01*
X38585702Y-37370971D01*
X38579330Y-37376200D01*
X38575029Y-37378499D01*
X38570355Y-37379917D01*
X38559359Y-37381000D01*
X38270641Y-37381000D01*
X38259645Y-37379917D01*
X38254971Y-37378499D01*
X38250670Y-37376200D01*
X38244298Y-37370971D01*
X38223924Y-37357357D01*
X38201285Y-37347980D01*
X38177251Y-37343200D01*
X38152747Y-37343200D01*
X38128714Y-37347981D01*
X38106075Y-37357358D01*
X38085702Y-37370971D01*
X38079330Y-37376200D01*
X38075029Y-37378499D01*
X38070355Y-37379917D01*
X38059359Y-37381000D01*
X37770641Y-37381000D01*
X37759645Y-37379917D01*
X37754971Y-37378499D01*
X37750670Y-37376200D01*
X37744298Y-37370971D01*
X37723924Y-37357357D01*
X37701285Y-37347980D01*
X37677251Y-37343200D01*
X37652747Y-37343200D01*
X37628714Y-37347981D01*
X37606075Y-37357358D01*
X37585702Y-37370971D01*
X37579330Y-37376200D01*
X37575029Y-37378499D01*
X37570355Y-37379917D01*
X37559359Y-37381000D01*
X37270641Y-37381000D01*
X37259645Y-37379917D01*
X37254971Y-37378499D01*
X37250670Y-37376200D01*
X37244298Y-37370971D01*
X37223924Y-37357357D01*
X37201285Y-37347980D01*
X37177251Y-37343200D01*
X37152747Y-37343200D01*
X37128714Y-37347981D01*
X37106075Y-37357358D01*
X37085702Y-37370971D01*
X37079330Y-37376200D01*
X37075029Y-37378499D01*
X37070355Y-37379917D01*
X37059359Y-37381000D01*
X36770641Y-37381000D01*
X36759645Y-37379917D01*
X36754971Y-37378499D01*
X36750669Y-37376200D01*
X36746896Y-37373104D01*
X36743800Y-37369331D01*
X36741501Y-37365029D01*
X36740083Y-37360355D01*
X36739000Y-37349359D01*
X36739000Y-36505999D01*
X36736598Y-36481613D01*
X36729485Y-36458164D01*
X36717934Y-36436553D01*
X36702389Y-36417611D01*
X36683447Y-36402066D01*
X36661836Y-36390515D01*
X36638387Y-36383402D01*
X36614001Y-36381000D01*
X35770641Y-36381000D01*
X35759645Y-36379917D01*
X35754971Y-36378499D01*
X35750669Y-36376200D01*
X35746896Y-36373104D01*
X35743800Y-36369331D01*
X35741501Y-36365029D01*
X35740083Y-36360355D01*
X35739000Y-36349359D01*
X35739000Y-36270801D01*
X36716000Y-36270801D01*
X36716000Y-36279001D01*
X36718402Y-36303387D01*
X36725515Y-36326836D01*
X36737066Y-36348447D01*
X36752611Y-36367389D01*
X36771553Y-36382934D01*
X36793164Y-36394485D01*
X36816613Y-36401598D01*
X36840999Y-36404000D01*
X36849199Y-36404000D01*
X36873585Y-36401598D01*
X36897034Y-36394485D01*
X36918645Y-36382934D01*
X36937587Y-36367389D01*
X36953132Y-36348447D01*
X36964683Y-36326836D01*
X36971796Y-36303387D01*
X36972991Y-36291247D01*
X40356403Y-36291247D01*
X40361183Y-36315281D01*
X40370559Y-36337920D01*
X40384172Y-36358295D01*
X40401498Y-36375623D01*
X40421872Y-36389238D01*
X40444510Y-36398616D01*
X40468543Y-36403398D01*
X40480801Y-36404000D01*
X40489001Y-36404000D01*
X40513387Y-36401598D01*
X40536836Y-36394485D01*
X40558447Y-36382934D01*
X40577389Y-36367389D01*
X40592934Y-36348447D01*
X40604485Y-36326836D01*
X40611598Y-36303387D01*
X40614000Y-36279001D01*
X40614000Y-36270801D01*
X40611598Y-36246415D01*
X40604485Y-36222966D01*
X40592934Y-36201355D01*
X40577389Y-36182413D01*
X40558447Y-36166868D01*
X40536836Y-36155317D01*
X40513387Y-36148204D01*
X40489001Y-36145802D01*
X40464615Y-36148204D01*
X40441166Y-36155317D01*
X40419555Y-36166868D01*
X40400613Y-36182413D01*
X40392382Y-36191496D01*
X40384179Y-36199698D01*
X40370564Y-36220072D01*
X40361186Y-36242710D01*
X40356404Y-36266743D01*
X40356403Y-36291247D01*
X36972991Y-36291247D01*
X36974198Y-36279001D01*
X36971796Y-36254615D01*
X36964683Y-36231166D01*
X36953132Y-36209555D01*
X36937587Y-36190613D01*
X36928504Y-36182382D01*
X36920302Y-36174179D01*
X36899928Y-36160564D01*
X36877290Y-36151186D01*
X36853257Y-36146404D01*
X36828753Y-36146403D01*
X36804719Y-36151183D01*
X36782080Y-36160559D01*
X36761705Y-36174172D01*
X36744377Y-36191498D01*
X36730762Y-36211872D01*
X36721384Y-36234510D01*
X36716602Y-36258543D01*
X36716000Y-36270801D01*
X35739000Y-36270801D01*
X35739000Y-36060641D01*
X35740083Y-36049645D01*
X35741501Y-36044971D01*
X35743800Y-36040670D01*
X35749029Y-36034298D01*
X35762643Y-36013924D01*
X35772020Y-35991285D01*
X35776800Y-35967251D01*
X35776800Y-35942747D01*
X35772019Y-35918714D01*
X35762642Y-35896075D01*
X35749029Y-35875702D01*
X35743800Y-35869330D01*
X35741501Y-35865029D01*
X35740083Y-35860355D01*
X35739000Y-35849359D01*
X35739000Y-35560641D01*
X35740083Y-35549645D01*
X35741501Y-35544971D01*
X35743800Y-35540670D01*
X35749029Y-35534298D01*
X35762643Y-35513924D01*
X35772020Y-35491285D01*
X35776800Y-35467251D01*
X35776800Y-35442747D01*
X35772019Y-35418714D01*
X35762642Y-35396075D01*
X35749029Y-35375702D01*
X35743800Y-35369330D01*
X35741501Y-35365029D01*
X35740083Y-35360355D01*
X35739000Y-35349359D01*
X35739000Y-35060641D01*
X35740083Y-35049645D01*
X35741501Y-35044971D01*
X35743800Y-35040670D01*
X35749029Y-35034298D01*
X35762643Y-35013924D01*
X35772020Y-34991285D01*
X35776800Y-34967251D01*
X35776800Y-34942747D01*
X35772019Y-34918714D01*
X35762642Y-34896075D01*
X35749029Y-34875702D01*
X35743800Y-34869330D01*
X35741501Y-34865029D01*
X35740083Y-34860355D01*
X35739000Y-34849359D01*
X35739000Y-34560641D01*
X35740083Y-34549645D01*
X35741501Y-34544971D01*
X35743800Y-34540670D01*
X35749029Y-34534298D01*
X35762643Y-34513924D01*
X35772020Y-34491285D01*
X35776800Y-34467251D01*
X35776800Y-34442747D01*
X35772019Y-34418714D01*
X35762642Y-34396075D01*
X35749029Y-34375702D01*
X35743800Y-34369330D01*
X35741501Y-34365029D01*
X35740083Y-34360355D01*
X35739000Y-34349359D01*
X35739000Y-34060641D01*
X35740083Y-34049645D01*
X35741501Y-34044971D01*
X35743800Y-34040670D01*
X35749029Y-34034298D01*
X35762643Y-34013924D01*
X35772020Y-33991285D01*
X35776800Y-33967251D01*
X35776800Y-33942747D01*
X35772019Y-33918714D01*
X35762642Y-33896075D01*
X35749029Y-33875702D01*
X35743800Y-33869330D01*
X35741501Y-33865029D01*
X35740083Y-33860355D01*
X35739000Y-33849359D01*
X35739000Y-33560641D01*
X35740083Y-33549645D01*
X35741501Y-33544971D01*
X35743800Y-33540670D01*
X35749029Y-33534298D01*
X35762643Y-33513924D01*
X35772020Y-33491285D01*
X35776800Y-33467251D01*
X35776800Y-33442747D01*
X35772019Y-33418714D01*
X35762642Y-33396075D01*
X35749029Y-33375702D01*
X35743800Y-33369330D01*
X35741501Y-33365029D01*
X35740083Y-33360355D01*
X35739000Y-33349359D01*
X35739000Y-33060641D01*
X35740083Y-33049645D01*
X35741501Y-33044971D01*
X35743800Y-33040670D01*
X35749029Y-33034298D01*
X35762643Y-33013924D01*
X35772020Y-32991285D01*
X35776800Y-32967251D01*
X35776800Y-32942747D01*
X35772019Y-32918714D01*
X35762642Y-32896075D01*
X35749029Y-32875702D01*
X35743800Y-32869330D01*
X35741501Y-32865029D01*
X35740083Y-32860355D01*
X35739000Y-32849359D01*
X35739000Y-32630999D01*
X36716000Y-32630999D01*
X36716000Y-32639199D01*
X36718402Y-32663585D01*
X36725515Y-32687034D01*
X36737066Y-32708645D01*
X36752611Y-32727587D01*
X36771553Y-32743132D01*
X36793164Y-32754683D01*
X36816613Y-32761796D01*
X36840999Y-32764198D01*
X36865385Y-32761796D01*
X36888834Y-32754683D01*
X36910445Y-32743132D01*
X36929387Y-32727587D01*
X36937620Y-32718502D01*
X36945821Y-32710302D01*
X36959436Y-32689928D01*
X36968814Y-32667290D01*
X36973596Y-32643257D01*
X36973596Y-32630999D01*
X40355802Y-32630999D01*
X40358204Y-32655385D01*
X40365317Y-32678834D01*
X40376868Y-32700445D01*
X40392413Y-32719387D01*
X40401496Y-32727618D01*
X40409698Y-32735821D01*
X40430072Y-32749436D01*
X40452710Y-32758814D01*
X40476743Y-32763596D01*
X40501247Y-32763597D01*
X40525281Y-32758817D01*
X40547920Y-32749441D01*
X40568295Y-32735828D01*
X40585623Y-32718502D01*
X40599238Y-32698128D01*
X40608616Y-32675490D01*
X40613398Y-32651457D01*
X40614000Y-32639199D01*
X40614000Y-32630999D01*
X40611598Y-32606613D01*
X40604485Y-32583164D01*
X40592934Y-32561553D01*
X40577389Y-32542611D01*
X40558447Y-32527066D01*
X40536836Y-32515515D01*
X40513387Y-32508402D01*
X40489001Y-32506000D01*
X40480801Y-32506000D01*
X40456415Y-32508402D01*
X40432966Y-32515515D01*
X40411355Y-32527066D01*
X40392413Y-32542611D01*
X40376868Y-32561553D01*
X40365317Y-32583164D01*
X40358204Y-32606613D01*
X40355802Y-32630999D01*
X36973596Y-32630999D01*
X36973597Y-32618753D01*
X36968817Y-32594719D01*
X36959441Y-32572080D01*
X36945828Y-32551705D01*
X36928502Y-32534377D01*
X36908128Y-32520762D01*
X36885490Y-32511384D01*
X36861457Y-32506602D01*
X36849199Y-32506000D01*
X36840999Y-32506000D01*
X36816613Y-32508402D01*
X36793164Y-32515515D01*
X36771553Y-32527066D01*
X36752611Y-32542611D01*
X36737066Y-32561553D01*
X36725515Y-32583164D01*
X36718402Y-32606613D01*
X36716000Y-32630999D01*
X35739000Y-32630999D01*
X35739000Y-32560641D01*
X35740083Y-32549645D01*
X35741501Y-32544971D01*
X35743800Y-32540669D01*
X35746896Y-32536896D01*
X35750669Y-32533800D01*
X35754971Y-32531501D01*
X35759645Y-32530083D01*
X35770641Y-32529000D01*
X36614001Y-32529000D01*
X36638387Y-32526598D01*
X36661836Y-32519485D01*
X36683447Y-32507934D01*
X36702389Y-32492389D01*
X36717934Y-32473447D01*
X36729485Y-32451836D01*
X36736598Y-32428387D01*
X36739000Y-32404001D01*
X36739000Y-31560641D01*
X36740083Y-31549645D01*
X36741501Y-31544971D01*
X36743800Y-31540669D01*
X36746896Y-31536896D01*
X36750669Y-31533800D01*
X36754971Y-31531501D01*
X36759645Y-31530083D01*
X36770641Y-31529000D01*
X37059359Y-31529000D01*
X37070355Y-31530083D01*
G37*
G36*
X51636938Y-36531716D02*
G01*
X51657557Y-36537971D01*
X51676553Y-36548124D01*
X51693208Y-36561792D01*
X51706876Y-36578447D01*
X51717029Y-36597443D01*
X51723284Y-36618062D01*
X51726000Y-36645640D01*
X51726000Y-37154360D01*
X51723284Y-37181938D01*
X51717029Y-37202557D01*
X51706876Y-37221553D01*
X51693208Y-37238208D01*
X51676553Y-37251876D01*
X51657557Y-37262029D01*
X51636938Y-37268284D01*
X51609360Y-37271000D01*
X51150640Y-37271000D01*
X51123062Y-37268284D01*
X51102443Y-37262029D01*
X51083447Y-37251876D01*
X51066792Y-37238208D01*
X51053124Y-37221553D01*
X51042971Y-37202557D01*
X51036716Y-37181938D01*
X51034000Y-37154360D01*
X51034000Y-36645640D01*
X51036716Y-36618062D01*
X51042971Y-36597443D01*
X51053124Y-36578447D01*
X51066792Y-36561792D01*
X51083447Y-36548124D01*
X51102443Y-36537971D01*
X51123062Y-36531716D01*
X51150640Y-36529000D01*
X51609360Y-36529000D01*
X51636938Y-36531716D01*
G37*
G36*
X52606938Y-36531716D02*
G01*
X52627557Y-36537971D01*
X52646553Y-36548124D01*
X52663208Y-36561792D01*
X52676876Y-36578447D01*
X52687029Y-36597443D01*
X52693284Y-36618062D01*
X52696000Y-36645640D01*
X52696000Y-37154360D01*
X52693284Y-37181938D01*
X52687029Y-37202557D01*
X52676876Y-37221553D01*
X52663208Y-37238208D01*
X52646553Y-37251876D01*
X52627557Y-37262029D01*
X52606938Y-37268284D01*
X52579360Y-37271000D01*
X52120640Y-37271000D01*
X52093062Y-37268284D01*
X52072443Y-37262029D01*
X52053447Y-37251876D01*
X52036792Y-37238208D01*
X52023124Y-37221553D01*
X52012971Y-37202557D01*
X52006716Y-37181938D01*
X52004000Y-37154360D01*
X52004000Y-36645640D01*
X52006716Y-36618062D01*
X52012971Y-36597443D01*
X52023124Y-36578447D01*
X52036792Y-36561792D01*
X52053447Y-36548124D01*
X52072443Y-36537971D01*
X52093062Y-36531716D01*
X52120640Y-36529000D01*
X52579360Y-36529000D01*
X52606938Y-36531716D01*
G37*
G36*
X45055355Y-31750083D02*
G01*
X45060029Y-31751501D01*
X45064330Y-31753800D01*
X45070702Y-31759029D01*
X45091076Y-31772643D01*
X45113715Y-31782020D01*
X45137749Y-31786800D01*
X45162253Y-31786800D01*
X45186286Y-31782019D01*
X45208925Y-31772642D01*
X45229298Y-31759029D01*
X45235670Y-31753800D01*
X45239971Y-31751501D01*
X45244645Y-31750083D01*
X45255641Y-31749000D01*
X45544359Y-31749000D01*
X45555355Y-31750083D01*
X45560029Y-31751501D01*
X45564330Y-31753800D01*
X45570702Y-31759029D01*
X45591076Y-31772643D01*
X45613715Y-31782020D01*
X45637749Y-31786800D01*
X45662253Y-31786800D01*
X45686286Y-31782019D01*
X45708925Y-31772642D01*
X45729298Y-31759029D01*
X45735670Y-31753800D01*
X45739971Y-31751501D01*
X45744645Y-31750083D01*
X45755641Y-31749000D01*
X46044359Y-31749000D01*
X46055355Y-31750083D01*
X46060029Y-31751501D01*
X46064330Y-31753800D01*
X46070702Y-31759029D01*
X46091076Y-31772643D01*
X46113715Y-31782020D01*
X46137749Y-31786800D01*
X46162253Y-31786800D01*
X46186286Y-31782019D01*
X46208925Y-31772642D01*
X46229298Y-31759029D01*
X46235670Y-31753800D01*
X46239971Y-31751501D01*
X46244645Y-31750083D01*
X46255641Y-31749000D01*
X46544359Y-31749000D01*
X46555355Y-31750083D01*
X46560029Y-31751501D01*
X46564330Y-31753800D01*
X46570702Y-31759029D01*
X46591076Y-31772643D01*
X46613715Y-31782020D01*
X46637749Y-31786800D01*
X46662253Y-31786800D01*
X46686286Y-31782019D01*
X46708925Y-31772642D01*
X46729298Y-31759029D01*
X46735670Y-31753800D01*
X46739971Y-31751501D01*
X46744645Y-31750083D01*
X46755641Y-31749000D01*
X47044359Y-31749000D01*
X47055355Y-31750083D01*
X47060029Y-31751501D01*
X47064331Y-31753800D01*
X47068104Y-31756896D01*
X47071200Y-31760669D01*
X47073499Y-31764971D01*
X47074917Y-31769645D01*
X47076000Y-31780641D01*
X47076000Y-32644359D01*
X47074917Y-32655355D01*
X47073499Y-32660029D01*
X47071202Y-32664327D01*
X47064560Y-32672420D01*
X47050946Y-32692795D01*
X47041569Y-32715433D01*
X47036788Y-32739467D01*
X47036788Y-32763971D01*
X47041568Y-32788004D01*
X47050945Y-32810643D01*
X47064559Y-32831018D01*
X47081885Y-32848345D01*
X47102259Y-32861958D01*
X47129464Y-32876500D01*
X47153651Y-32896349D01*
X47173500Y-32920536D01*
X47188042Y-32947741D01*
X47201656Y-32968115D01*
X47218983Y-32985442D01*
X47239358Y-32999055D01*
X47261997Y-33008432D01*
X47286030Y-33013212D01*
X47310534Y-33013212D01*
X47334568Y-33008431D01*
X47357206Y-32999053D01*
X47377580Y-32985440D01*
X47385673Y-32978798D01*
X47389971Y-32976501D01*
X47394645Y-32975083D01*
X47405641Y-32974000D01*
X48269359Y-32974000D01*
X48280355Y-32975083D01*
X48285029Y-32976501D01*
X48289331Y-32978800D01*
X48293104Y-32981896D01*
X48296200Y-32985669D01*
X48298499Y-32989971D01*
X48299917Y-32994645D01*
X48301000Y-33005641D01*
X48301000Y-33294359D01*
X48299917Y-33305355D01*
X48298499Y-33310029D01*
X48296200Y-33314330D01*
X48290971Y-33320702D01*
X48277357Y-33341076D01*
X48267980Y-33363715D01*
X48263200Y-33387749D01*
X48263200Y-33412253D01*
X48267981Y-33436286D01*
X48277358Y-33458925D01*
X48290971Y-33479298D01*
X48296200Y-33485670D01*
X48298499Y-33489971D01*
X48299917Y-33494645D01*
X48301000Y-33505641D01*
X48301000Y-33794359D01*
X48299917Y-33805355D01*
X48298499Y-33810029D01*
X48296200Y-33814330D01*
X48290971Y-33820702D01*
X48277357Y-33841076D01*
X48267980Y-33863715D01*
X48263200Y-33887749D01*
X48263200Y-33912253D01*
X48267981Y-33936286D01*
X48277358Y-33958925D01*
X48290971Y-33979298D01*
X48296200Y-33985670D01*
X48298499Y-33989971D01*
X48299917Y-33994645D01*
X48301000Y-34005641D01*
X48301000Y-34294359D01*
X48299917Y-34305355D01*
X48298499Y-34310029D01*
X48296200Y-34314330D01*
X48290971Y-34320702D01*
X48277357Y-34341076D01*
X48267980Y-34363715D01*
X48263200Y-34387749D01*
X48263200Y-34412253D01*
X48267981Y-34436286D01*
X48277358Y-34458925D01*
X48290971Y-34479298D01*
X48296200Y-34485670D01*
X48298499Y-34489971D01*
X48299917Y-34494645D01*
X48301000Y-34505641D01*
X48301000Y-34794359D01*
X48299917Y-34805355D01*
X48298499Y-34810029D01*
X48296200Y-34814330D01*
X48290971Y-34820702D01*
X48277357Y-34841076D01*
X48267980Y-34863715D01*
X48263200Y-34887749D01*
X48263200Y-34912253D01*
X48267981Y-34936286D01*
X48277358Y-34958925D01*
X48290971Y-34979298D01*
X48296200Y-34985670D01*
X48298499Y-34989971D01*
X48299917Y-34994645D01*
X48301000Y-35005641D01*
X48301000Y-35294359D01*
X48299917Y-35305355D01*
X48298499Y-35310029D01*
X48296200Y-35314331D01*
X48293104Y-35318104D01*
X48289331Y-35321200D01*
X48285029Y-35323499D01*
X48280355Y-35324917D01*
X48269359Y-35326000D01*
X47405641Y-35326000D01*
X47394645Y-35324917D01*
X47389971Y-35323499D01*
X47385673Y-35321202D01*
X47377580Y-35314560D01*
X47357205Y-35300946D01*
X47334567Y-35291569D01*
X47310533Y-35286788D01*
X47286029Y-35286788D01*
X47261996Y-35291568D01*
X47239357Y-35300945D01*
X47218982Y-35314559D01*
X47201655Y-35331885D01*
X47188042Y-35352259D01*
X47173500Y-35379464D01*
X47153651Y-35403651D01*
X47129464Y-35423500D01*
X47102259Y-35438042D01*
X47081885Y-35451656D01*
X47064558Y-35468983D01*
X47050945Y-35489358D01*
X47041568Y-35511997D01*
X47036788Y-35536030D01*
X47036788Y-35560534D01*
X47041569Y-35584568D01*
X47050947Y-35607206D01*
X47064560Y-35627580D01*
X47071202Y-35635673D01*
X47073499Y-35639971D01*
X47074917Y-35644645D01*
X47076000Y-35655641D01*
X47076000Y-36519359D01*
X47074917Y-36530355D01*
X47073499Y-36535029D01*
X47071200Y-36539331D01*
X47068104Y-36543104D01*
X47064331Y-36546200D01*
X47060029Y-36548499D01*
X47055355Y-36549917D01*
X47044359Y-36551000D01*
X46755641Y-36551000D01*
X46744645Y-36549917D01*
X46739971Y-36548499D01*
X46735670Y-36546200D01*
X46729298Y-36540971D01*
X46708924Y-36527357D01*
X46686285Y-36517980D01*
X46662251Y-36513200D01*
X46637747Y-36513200D01*
X46613714Y-36517981D01*
X46591075Y-36527358D01*
X46570702Y-36540971D01*
X46564330Y-36546200D01*
X46560029Y-36548499D01*
X46555355Y-36549917D01*
X46544359Y-36551000D01*
X46255641Y-36551000D01*
X46244645Y-36549917D01*
X46239971Y-36548499D01*
X46235670Y-36546200D01*
X46229298Y-36540971D01*
X46208924Y-36527357D01*
X46186285Y-36517980D01*
X46162251Y-36513200D01*
X46137747Y-36513200D01*
X46113714Y-36517981D01*
X46091075Y-36527358D01*
X46070702Y-36540971D01*
X46064330Y-36546200D01*
X46060029Y-36548499D01*
X46055355Y-36549917D01*
X46044359Y-36551000D01*
X45755641Y-36551000D01*
X45744645Y-36549917D01*
X45739971Y-36548499D01*
X45735670Y-36546200D01*
X45729298Y-36540971D01*
X45708924Y-36527357D01*
X45686285Y-36517980D01*
X45662251Y-36513200D01*
X45637747Y-36513200D01*
X45613714Y-36517981D01*
X45591075Y-36527358D01*
X45570702Y-36540971D01*
X45564330Y-36546200D01*
X45560029Y-36548499D01*
X45555355Y-36549917D01*
X45544359Y-36551000D01*
X45255641Y-36551000D01*
X45244645Y-36549917D01*
X45239971Y-36548499D01*
X45235670Y-36546200D01*
X45229298Y-36540971D01*
X45208924Y-36527357D01*
X45186285Y-36517980D01*
X45162251Y-36513200D01*
X45137747Y-36513200D01*
X45113714Y-36517981D01*
X45091075Y-36527358D01*
X45070702Y-36540971D01*
X45064330Y-36546200D01*
X45060029Y-36548499D01*
X45055355Y-36549917D01*
X45044359Y-36551000D01*
X44755641Y-36551000D01*
X44744645Y-36549917D01*
X44739971Y-36548499D01*
X44735669Y-36546200D01*
X44731896Y-36543104D01*
X44728800Y-36539331D01*
X44726501Y-36535029D01*
X44725083Y-36530355D01*
X44724000Y-36519359D01*
X44724000Y-35655641D01*
X44725083Y-35644645D01*
X44726501Y-35639971D01*
X44728798Y-35635673D01*
X44735440Y-35627580D01*
X44749054Y-35607205D01*
X44758431Y-35584567D01*
X44763212Y-35560533D01*
X44763212Y-35536029D01*
X44758432Y-35511996D01*
X44749055Y-35489357D01*
X44735441Y-35468982D01*
X44718115Y-35451655D01*
X44697741Y-35438042D01*
X44670536Y-35423500D01*
X44646349Y-35403651D01*
X44626500Y-35379464D01*
X44611958Y-35352259D01*
X44598344Y-35331885D01*
X44581017Y-35314558D01*
X44560642Y-35300945D01*
X44538003Y-35291568D01*
X44513970Y-35286788D01*
X44489466Y-35286788D01*
X44465432Y-35291569D01*
X44442794Y-35300947D01*
X44422420Y-35314560D01*
X44414327Y-35321202D01*
X44410029Y-35323499D01*
X44405355Y-35324917D01*
X44394359Y-35326000D01*
X43530641Y-35326000D01*
X43519645Y-35324917D01*
X43514971Y-35323499D01*
X43510669Y-35321200D01*
X43506896Y-35318104D01*
X43503800Y-35314331D01*
X43501501Y-35310029D01*
X43500083Y-35305355D01*
X43499000Y-35294359D01*
X43499000Y-35005641D01*
X43500083Y-34994645D01*
X43501501Y-34989971D01*
X43503800Y-34985670D01*
X43509029Y-34979298D01*
X43522643Y-34958924D01*
X43532020Y-34936285D01*
X43536800Y-34912251D01*
X43536800Y-34887747D01*
X43532019Y-34863714D01*
X43522642Y-34841075D01*
X43509029Y-34820702D01*
X43503800Y-34814330D01*
X43501501Y-34810029D01*
X43500083Y-34805355D01*
X43499000Y-34794359D01*
X43499000Y-34505641D01*
X43500083Y-34494645D01*
X43501501Y-34489971D01*
X43503800Y-34485670D01*
X43509029Y-34479298D01*
X43522643Y-34458924D01*
X43532020Y-34436285D01*
X43536800Y-34412251D01*
X43536800Y-34387747D01*
X43532019Y-34363714D01*
X43522642Y-34341075D01*
X43509029Y-34320702D01*
X43503800Y-34314330D01*
X43501501Y-34310029D01*
X43500083Y-34305355D01*
X43499000Y-34294359D01*
X43499000Y-34005641D01*
X43500083Y-33994645D01*
X43501501Y-33989971D01*
X43503800Y-33985670D01*
X43509029Y-33979298D01*
X43522643Y-33958924D01*
X43532020Y-33936285D01*
X43536800Y-33912251D01*
X43536800Y-33887747D01*
X43532019Y-33863714D01*
X43522642Y-33841075D01*
X43509029Y-33820702D01*
X43503800Y-33814330D01*
X43501501Y-33810029D01*
X43500083Y-33805355D01*
X43499000Y-33794359D01*
X43499000Y-33505641D01*
X43500083Y-33494645D01*
X43501501Y-33489971D01*
X43503800Y-33485670D01*
X43509029Y-33479298D01*
X43522643Y-33458924D01*
X43532020Y-33436285D01*
X43536800Y-33412251D01*
X43536800Y-33387747D01*
X43532019Y-33363714D01*
X43522642Y-33341075D01*
X43509029Y-33320702D01*
X43503800Y-33314330D01*
X43501501Y-33310029D01*
X43500083Y-33305355D01*
X43499000Y-33294359D01*
X43499000Y-33005641D01*
X43500083Y-32994645D01*
X43501501Y-32989971D01*
X43503800Y-32985669D01*
X43506896Y-32981896D01*
X43510669Y-32978800D01*
X43514971Y-32976501D01*
X43519645Y-32975083D01*
X43530641Y-32974000D01*
X44394359Y-32974000D01*
X44405355Y-32975083D01*
X44410029Y-32976501D01*
X44414327Y-32978798D01*
X44422420Y-32985440D01*
X44442795Y-32999054D01*
X44465433Y-33008431D01*
X44489467Y-33013212D01*
X44513971Y-33013212D01*
X44538004Y-33008432D01*
X44560643Y-32999055D01*
X44581018Y-32985441D01*
X44598345Y-32968115D01*
X44611958Y-32947741D01*
X44626500Y-32920536D01*
X44646349Y-32896349D01*
X44670536Y-32876500D01*
X44697741Y-32861958D01*
X44718115Y-32848344D01*
X44735442Y-32831017D01*
X44749055Y-32810642D01*
X44758432Y-32788003D01*
X44763212Y-32763970D01*
X44763212Y-32739466D01*
X44758431Y-32715432D01*
X44749053Y-32692794D01*
X44735440Y-32672420D01*
X44728798Y-32664327D01*
X44726501Y-32660029D01*
X44725083Y-32655355D01*
X44724000Y-32644359D01*
X44724000Y-31780641D01*
X44725083Y-31769645D01*
X44726501Y-31764971D01*
X44728800Y-31760669D01*
X44731896Y-31756896D01*
X44735669Y-31753800D01*
X44739971Y-31751501D01*
X44744645Y-31750083D01*
X44755641Y-31749000D01*
X45044359Y-31749000D01*
X45055355Y-31750083D01*
G37*
G36*
X29831000Y-36426000D02*
G01*
X28669000Y-36426000D01*
X28669000Y-33774000D01*
X29831000Y-33774000D01*
X29831000Y-36426000D01*
G37*
G36*
X32031000Y-36426000D02*
G01*
X30869000Y-36426000D01*
X30869000Y-33774000D01*
X32031000Y-33774000D01*
X32031000Y-36426000D01*
G37*
G36*
X52606938Y-35531716D02*
G01*
X52627557Y-35537971D01*
X52646553Y-35548124D01*
X52663208Y-35561792D01*
X52676876Y-35578447D01*
X52687029Y-35597443D01*
X52693284Y-35618062D01*
X52696000Y-35645640D01*
X52696000Y-36154360D01*
X52693284Y-36181938D01*
X52687029Y-36202557D01*
X52676876Y-36221553D01*
X52663208Y-36238208D01*
X52646553Y-36251876D01*
X52627557Y-36262029D01*
X52606938Y-36268284D01*
X52579360Y-36271000D01*
X52120640Y-36271000D01*
X52093062Y-36268284D01*
X52072443Y-36262029D01*
X52053447Y-36251876D01*
X52036792Y-36238208D01*
X52023124Y-36221553D01*
X52012971Y-36202557D01*
X52006716Y-36181938D01*
X52004000Y-36154360D01*
X52004000Y-35645640D01*
X52006716Y-35618062D01*
X52012971Y-35597443D01*
X52023124Y-35578447D01*
X52036792Y-35561792D01*
X52053447Y-35548124D01*
X52072443Y-35537971D01*
X52093062Y-35531716D01*
X52120640Y-35529000D01*
X52579360Y-35529000D01*
X52606938Y-35531716D01*
G37*
G36*
X51636938Y-35531716D02*
G01*
X51657557Y-35537971D01*
X51676553Y-35548124D01*
X51693208Y-35561792D01*
X51706876Y-35578447D01*
X51717029Y-35597443D01*
X51723284Y-35618062D01*
X51726000Y-35645640D01*
X51726000Y-36154360D01*
X51723284Y-36181938D01*
X51717029Y-36202557D01*
X51706876Y-36221553D01*
X51693208Y-36238208D01*
X51676553Y-36251876D01*
X51657557Y-36262029D01*
X51636938Y-36268284D01*
X51609360Y-36271000D01*
X51150640Y-36271000D01*
X51123062Y-36268284D01*
X51102443Y-36262029D01*
X51083447Y-36251876D01*
X51066792Y-36238208D01*
X51053124Y-36221553D01*
X51042971Y-36202557D01*
X51036716Y-36181938D01*
X51034000Y-36154360D01*
X51034000Y-35645640D01*
X51036716Y-35618062D01*
X51042971Y-35597443D01*
X51053124Y-35578447D01*
X51066792Y-35561792D01*
X51083447Y-35548124D01*
X51102443Y-35537971D01*
X51123062Y-35531716D01*
X51150640Y-35529000D01*
X51609360Y-35529000D01*
X51636938Y-35531716D01*
G37*
G36*
X50631938Y-35551716D02*
G01*
X50652557Y-35557971D01*
X50671553Y-35568124D01*
X50688208Y-35581792D01*
X50701876Y-35598447D01*
X50712029Y-35617443D01*
X50718284Y-35638062D01*
X50721000Y-35665640D01*
X50721000Y-36124360D01*
X50718284Y-36151938D01*
X50712029Y-36172557D01*
X50701876Y-36191553D01*
X50688208Y-36208208D01*
X50671553Y-36221876D01*
X50652557Y-36232029D01*
X50631938Y-36238284D01*
X50604360Y-36241000D01*
X50095640Y-36241000D01*
X50068062Y-36238284D01*
X50047443Y-36232029D01*
X50028447Y-36221876D01*
X50011792Y-36208208D01*
X49998124Y-36191553D01*
X49987971Y-36172557D01*
X49981716Y-36151938D01*
X49979000Y-36124360D01*
X49979000Y-35665640D01*
X49981716Y-35638062D01*
X49987971Y-35617443D01*
X49998124Y-35598447D01*
X50011792Y-35581792D01*
X50028447Y-35568124D01*
X50047443Y-35557971D01*
X50068062Y-35551716D01*
X50095640Y-35549000D01*
X50604360Y-35549000D01*
X50631938Y-35551716D01*
G37*
G36*
X26076000Y-36051000D02*
G01*
X24624000Y-36051000D01*
X24624000Y-32949000D01*
X26076000Y-32949000D01*
X26076000Y-36051000D01*
G37*
G36*
X50631938Y-34581716D02*
G01*
X50652557Y-34587971D01*
X50671553Y-34598124D01*
X50688208Y-34611792D01*
X50701876Y-34628447D01*
X50712029Y-34647443D01*
X50718284Y-34668062D01*
X50721000Y-34695640D01*
X50721000Y-35154360D01*
X50718284Y-35181938D01*
X50712029Y-35202557D01*
X50701876Y-35221553D01*
X50688208Y-35238208D01*
X50671553Y-35251876D01*
X50652557Y-35262029D01*
X50631938Y-35268284D01*
X50604360Y-35271000D01*
X50095640Y-35271000D01*
X50068062Y-35268284D01*
X50047443Y-35262029D01*
X50028447Y-35251876D01*
X50011792Y-35238208D01*
X49998124Y-35221553D01*
X49987971Y-35202557D01*
X49981716Y-35181938D01*
X49979000Y-35154360D01*
X49979000Y-34695640D01*
X49981716Y-34668062D01*
X49987971Y-34647443D01*
X49998124Y-34628447D01*
X50011792Y-34611792D01*
X50028447Y-34598124D01*
X50047443Y-34587971D01*
X50068062Y-34581716D01*
X50095640Y-34579000D01*
X50604360Y-34579000D01*
X50631938Y-34581716D01*
G37*
G36*
X49631938Y-34541716D02*
G01*
X49652557Y-34547971D01*
X49671553Y-34558124D01*
X49688208Y-34571792D01*
X49701876Y-34588447D01*
X49712029Y-34607443D01*
X49718284Y-34628062D01*
X49721000Y-34655640D01*
X49721000Y-35114360D01*
X49718284Y-35141938D01*
X49712029Y-35162557D01*
X49701876Y-35181553D01*
X49688208Y-35198208D01*
X49671553Y-35211876D01*
X49652557Y-35222029D01*
X49631938Y-35228284D01*
X49604360Y-35231000D01*
X49095640Y-35231000D01*
X49068062Y-35228284D01*
X49047443Y-35222029D01*
X49028447Y-35211876D01*
X49011792Y-35198208D01*
X48998124Y-35181553D01*
X48987971Y-35162557D01*
X48981716Y-35141938D01*
X48979000Y-35114360D01*
X48979000Y-34655640D01*
X48981716Y-34628062D01*
X48987971Y-34607443D01*
X48998124Y-34588447D01*
X49011792Y-34571792D01*
X49028447Y-34558124D01*
X49047443Y-34547971D01*
X49068062Y-34541716D01*
X49095640Y-34539000D01*
X49604360Y-34539000D01*
X49631938Y-34541716D01*
G37*
G36*
X59651000Y-35001000D02*
G01*
X55949000Y-35001000D01*
X55949000Y-33999000D01*
X59651000Y-33999000D01*
X59651000Y-35001000D01*
G37*
G36*
X23016823Y-30361313D02*
G01*
X23147380Y-30400917D01*
X23166496Y-30406716D01*
X23177242Y-30409976D01*
X23293095Y-30471901D01*
X23325078Y-30488996D01*
X23454659Y-30595341D01*
X23561004Y-30724922D01*
X23561005Y-30724924D01*
X23640024Y-30872758D01*
X23688687Y-31033177D01*
X23705117Y-31200000D01*
X23688687Y-31366823D01*
X23640024Y-31527242D01*
X23601224Y-31599832D01*
X23561004Y-31675078D01*
X23454659Y-31804659D01*
X23325078Y-31911004D01*
X23325076Y-31911005D01*
X23177242Y-31990024D01*
X23016823Y-32038687D01*
X22905978Y-32049604D01*
X22881945Y-32054384D01*
X22859306Y-32063762D01*
X22838932Y-32077375D01*
X22821605Y-32094702D01*
X22807991Y-32115077D01*
X22798613Y-32137716D01*
X22793833Y-32161749D01*
X22793833Y-32186253D01*
X22798613Y-32210286D01*
X22807991Y-32232925D01*
X22821604Y-32253299D01*
X22838931Y-32270626D01*
X22859306Y-32284240D01*
X22881945Y-32293618D01*
X22905978Y-32298398D01*
X22918230Y-32299000D01*
X23526000Y-32299000D01*
X23526000Y-34301000D01*
X21824000Y-34301000D01*
X21824000Y-32299000D01*
X22431770Y-32299000D01*
X22456156Y-32296598D01*
X22479605Y-32289485D01*
X22501216Y-32277934D01*
X22520158Y-32262389D01*
X22535703Y-32243447D01*
X22547254Y-32221836D01*
X22554367Y-32198387D01*
X22556769Y-32174001D01*
X22554367Y-32149615D01*
X22547254Y-32126166D01*
X22535703Y-32104555D01*
X22520158Y-32085613D01*
X22501216Y-32070068D01*
X22479605Y-32058517D01*
X22456156Y-32051404D01*
X22444022Y-32049604D01*
X22333177Y-32038687D01*
X22172758Y-31990024D01*
X22024924Y-31911005D01*
X22024922Y-31911004D01*
X21895341Y-31804659D01*
X21788996Y-31675078D01*
X21748776Y-31599832D01*
X21709976Y-31527242D01*
X21661313Y-31366823D01*
X21644883Y-31200000D01*
X21661313Y-31033177D01*
X21709976Y-30872758D01*
X21788995Y-30724924D01*
X21788996Y-30724922D01*
X21895341Y-30595341D01*
X22024922Y-30488996D01*
X22056905Y-30471901D01*
X22172758Y-30409976D01*
X22183505Y-30406716D01*
X22202620Y-30400917D01*
X22333177Y-30361313D01*
X22458196Y-30349000D01*
X22891804Y-30349000D01*
X23016823Y-30361313D01*
G37*
G36*
X53526938Y-33531716D02*
G01*
X53547557Y-33537971D01*
X53566553Y-33548124D01*
X53583208Y-33561792D01*
X53596876Y-33578447D01*
X53607029Y-33597443D01*
X53613284Y-33618062D01*
X53616000Y-33645640D01*
X53616000Y-34154360D01*
X53613284Y-34181938D01*
X53607029Y-34202557D01*
X53596876Y-34221553D01*
X53583208Y-34238208D01*
X53566553Y-34251876D01*
X53547557Y-34262029D01*
X53526938Y-34268284D01*
X53499360Y-34271000D01*
X53040640Y-34271000D01*
X53013062Y-34268284D01*
X52992443Y-34262029D01*
X52973447Y-34251876D01*
X52956792Y-34238208D01*
X52943124Y-34221553D01*
X52932971Y-34202557D01*
X52926716Y-34181938D01*
X52924000Y-34154360D01*
X52924000Y-33645640D01*
X52926716Y-33618062D01*
X52932971Y-33597443D01*
X52943124Y-33578447D01*
X52956792Y-33561792D01*
X52973447Y-33548124D01*
X52992443Y-33537971D01*
X53013062Y-33531716D01*
X53040640Y-33529000D01*
X53499360Y-33529000D01*
X53526938Y-33531716D01*
G37*
G36*
X50606938Y-33531716D02*
G01*
X50627557Y-33537971D01*
X50646553Y-33548124D01*
X50663208Y-33561792D01*
X50676876Y-33578447D01*
X50687029Y-33597443D01*
X50693284Y-33618062D01*
X50696000Y-33645640D01*
X50696000Y-34154360D01*
X50693284Y-34181938D01*
X50687029Y-34202557D01*
X50676876Y-34221553D01*
X50663208Y-34238208D01*
X50646553Y-34251876D01*
X50627557Y-34262029D01*
X50606938Y-34268284D01*
X50579360Y-34271000D01*
X50120640Y-34271000D01*
X50093062Y-34268284D01*
X50072443Y-34262029D01*
X50053447Y-34251876D01*
X50036792Y-34238208D01*
X50023124Y-34221553D01*
X50012971Y-34202557D01*
X50006716Y-34181938D01*
X50004000Y-34154360D01*
X50004000Y-33645640D01*
X50006716Y-33618062D01*
X50012971Y-33597443D01*
X50023124Y-33578447D01*
X50036792Y-33561792D01*
X50053447Y-33548124D01*
X50072443Y-33537971D01*
X50093062Y-33531716D01*
X50120640Y-33529000D01*
X50579360Y-33529000D01*
X50606938Y-33531716D01*
G37*
G36*
X51576938Y-33531716D02*
G01*
X51597557Y-33537971D01*
X51616553Y-33548124D01*
X51633208Y-33561792D01*
X51646876Y-33578447D01*
X51657029Y-33597443D01*
X51663284Y-33618062D01*
X51666000Y-33645640D01*
X51666000Y-34154360D01*
X51663284Y-34181938D01*
X51657029Y-34202557D01*
X51646876Y-34221553D01*
X51633208Y-34238208D01*
X51616553Y-34251876D01*
X51597557Y-34262029D01*
X51576938Y-34268284D01*
X51549360Y-34271000D01*
X51090640Y-34271000D01*
X51063062Y-34268284D01*
X51042443Y-34262029D01*
X51023447Y-34251876D01*
X51006792Y-34238208D01*
X50993124Y-34221553D01*
X50982971Y-34202557D01*
X50976716Y-34181938D01*
X50974000Y-34154360D01*
X50974000Y-33645640D01*
X50976716Y-33618062D01*
X50982971Y-33597443D01*
X50993124Y-33578447D01*
X51006792Y-33561792D01*
X51023447Y-33548124D01*
X51042443Y-33537971D01*
X51063062Y-33531716D01*
X51090640Y-33529000D01*
X51549360Y-33529000D01*
X51576938Y-33531716D01*
G37*
G36*
X52556938Y-33531716D02*
G01*
X52577557Y-33537971D01*
X52596553Y-33548124D01*
X52613208Y-33561792D01*
X52626876Y-33578447D01*
X52637029Y-33597443D01*
X52643284Y-33618062D01*
X52646000Y-33645640D01*
X52646000Y-34154360D01*
X52643284Y-34181938D01*
X52637029Y-34202557D01*
X52626876Y-34221553D01*
X52613208Y-34238208D01*
X52596553Y-34251876D01*
X52577557Y-34262029D01*
X52556938Y-34268284D01*
X52529360Y-34271000D01*
X52070640Y-34271000D01*
X52043062Y-34268284D01*
X52022443Y-34262029D01*
X52003447Y-34251876D01*
X51986792Y-34238208D01*
X51973124Y-34221553D01*
X51962971Y-34202557D01*
X51956716Y-34181938D01*
X51954000Y-34154360D01*
X51954000Y-33645640D01*
X51956716Y-33618062D01*
X51962971Y-33597443D01*
X51973124Y-33578447D01*
X51986792Y-33561792D01*
X52003447Y-33548124D01*
X52022443Y-33537971D01*
X52043062Y-33531716D01*
X52070640Y-33529000D01*
X52529360Y-33529000D01*
X52556938Y-33531716D01*
G37*
G36*
X49631938Y-33571716D02*
G01*
X49652557Y-33577971D01*
X49671553Y-33588124D01*
X49688208Y-33601792D01*
X49701876Y-33618447D01*
X49712029Y-33637443D01*
X49718284Y-33658062D01*
X49721000Y-33685640D01*
X49721000Y-34144360D01*
X49718284Y-34171938D01*
X49712029Y-34192557D01*
X49701876Y-34211553D01*
X49688208Y-34228208D01*
X49671553Y-34241876D01*
X49652557Y-34252029D01*
X49631938Y-34258284D01*
X49604360Y-34261000D01*
X49095640Y-34261000D01*
X49068062Y-34258284D01*
X49047443Y-34252029D01*
X49028447Y-34241876D01*
X49011792Y-34228208D01*
X48998124Y-34211553D01*
X48987971Y-34192557D01*
X48981716Y-34171938D01*
X48979000Y-34144360D01*
X48979000Y-33685640D01*
X48981716Y-33658062D01*
X48987971Y-33637443D01*
X48998124Y-33618447D01*
X49011792Y-33601792D01*
X49028447Y-33588124D01*
X49047443Y-33577971D01*
X49068062Y-33571716D01*
X49095640Y-33569000D01*
X49604360Y-33569000D01*
X49631938Y-33571716D01*
G37*
G36*
X54581938Y-33556716D02*
G01*
X54602557Y-33562971D01*
X54621553Y-33573124D01*
X54638208Y-33586792D01*
X54651876Y-33603447D01*
X54662029Y-33622443D01*
X54668284Y-33643062D01*
X54671000Y-33670640D01*
X54671000Y-34129360D01*
X54668284Y-34156938D01*
X54662029Y-34177557D01*
X54651876Y-34196553D01*
X54638208Y-34213208D01*
X54621553Y-34226876D01*
X54602557Y-34237029D01*
X54581938Y-34243284D01*
X54554360Y-34246000D01*
X54045640Y-34246000D01*
X54018062Y-34243284D01*
X53997443Y-34237029D01*
X53978447Y-34226876D01*
X53961792Y-34213208D01*
X53948124Y-34196553D01*
X53937971Y-34177557D01*
X53931716Y-34156938D01*
X53929000Y-34129360D01*
X53929000Y-33670640D01*
X53931716Y-33643062D01*
X53937971Y-33622443D01*
X53948124Y-33603447D01*
X53961792Y-33586792D01*
X53978447Y-33573124D01*
X53997443Y-33562971D01*
X54018062Y-33556716D01*
X54045640Y-33554000D01*
X54554360Y-33554000D01*
X54581938Y-33556716D01*
G37*
G36*
X54581938Y-32586716D02*
G01*
X54602557Y-32592971D01*
X54621553Y-32603124D01*
X54638208Y-32616792D01*
X54651876Y-32633447D01*
X54662029Y-32652443D01*
X54668284Y-32673062D01*
X54671000Y-32700640D01*
X54671000Y-33159360D01*
X54668284Y-33186938D01*
X54662029Y-33207557D01*
X54651876Y-33226553D01*
X54638208Y-33243208D01*
X54621553Y-33256876D01*
X54602557Y-33267029D01*
X54581938Y-33273284D01*
X54554360Y-33276000D01*
X54045640Y-33276000D01*
X54018062Y-33273284D01*
X53997443Y-33267029D01*
X53978447Y-33256876D01*
X53961792Y-33243208D01*
X53948124Y-33226553D01*
X53937971Y-33207557D01*
X53931716Y-33186938D01*
X53929000Y-33159360D01*
X53929000Y-32700640D01*
X53931716Y-32673062D01*
X53937971Y-32652443D01*
X53948124Y-32633447D01*
X53961792Y-32616792D01*
X53978447Y-32603124D01*
X53997443Y-32592971D01*
X54018062Y-32586716D01*
X54045640Y-32584000D01*
X54554360Y-32584000D01*
X54581938Y-32586716D01*
G37*
G36*
X30101000Y-32741000D02*
G01*
X29199000Y-32741000D01*
X29199000Y-31739000D01*
X30101000Y-31739000D01*
X30101000Y-32741000D01*
G37*
G36*
X32001000Y-32741000D02*
G01*
X31099000Y-32741000D01*
X31099000Y-31739000D01*
X32001000Y-31739000D01*
X32001000Y-32741000D01*
G37*
G36*
X28389591Y-31760585D02*
G01*
X28423569Y-31770893D01*
X28454890Y-31787634D01*
X28482339Y-31810161D01*
X28504866Y-31837610D01*
X28521607Y-31868931D01*
X28531915Y-31902909D01*
X28536000Y-31944390D01*
X28536000Y-32545610D01*
X28531915Y-32587091D01*
X28521607Y-32621069D01*
X28504866Y-32652390D01*
X28482339Y-32679839D01*
X28454890Y-32702366D01*
X28423569Y-32719107D01*
X28389591Y-32729415D01*
X28348110Y-32733500D01*
X27671890Y-32733500D01*
X27630409Y-32729415D01*
X27596431Y-32719107D01*
X27565110Y-32702366D01*
X27537661Y-32679839D01*
X27515134Y-32652390D01*
X27498393Y-32621069D01*
X27488085Y-32587091D01*
X27484000Y-32545610D01*
X27484000Y-31944390D01*
X27488085Y-31902909D01*
X27498393Y-31868931D01*
X27515134Y-31837610D01*
X27537661Y-31810161D01*
X27565110Y-31787634D01*
X27596431Y-31770893D01*
X27630409Y-31760585D01*
X27671890Y-31756500D01*
X28348110Y-31756500D01*
X28389591Y-31760585D01*
G37*
G36*
X33559591Y-31755585D02*
G01*
X33593569Y-31765893D01*
X33624890Y-31782634D01*
X33652339Y-31805161D01*
X33674866Y-31832610D01*
X33691607Y-31863931D01*
X33701915Y-31897909D01*
X33706000Y-31939390D01*
X33706000Y-32540610D01*
X33701915Y-32582091D01*
X33691607Y-32616069D01*
X33674866Y-32647390D01*
X33652339Y-32674839D01*
X33624890Y-32697366D01*
X33593569Y-32714107D01*
X33559591Y-32724415D01*
X33518110Y-32728500D01*
X32841890Y-32728500D01*
X32800409Y-32724415D01*
X32766431Y-32714107D01*
X32735110Y-32697366D01*
X32707661Y-32674839D01*
X32685134Y-32647390D01*
X32668393Y-32616069D01*
X32658085Y-32582091D01*
X32654000Y-32540610D01*
X32654000Y-31939390D01*
X32658085Y-31897909D01*
X32668393Y-31863931D01*
X32685134Y-31832610D01*
X32707661Y-31805161D01*
X32735110Y-31782634D01*
X32766431Y-31765893D01*
X32800409Y-31755585D01*
X32841890Y-31751500D01*
X33518110Y-31751500D01*
X33559591Y-31755585D01*
G37*
G36*
X59751000Y-32401000D02*
G01*
X55449000Y-32401000D01*
X55449000Y-30949000D01*
X59751000Y-30949000D01*
X59751000Y-32401000D01*
G37*
G36*
X25876000Y-32151000D02*
G01*
X24374000Y-32151000D01*
X24374000Y-30449000D01*
X25876000Y-30449000D01*
X25876000Y-32151000D01*
G37*
G36*
X44856938Y-30506716D02*
G01*
X44877557Y-30512971D01*
X44896553Y-30523124D01*
X44913208Y-30536792D01*
X44926876Y-30553447D01*
X44937029Y-30572443D01*
X44943284Y-30593062D01*
X44946000Y-30620640D01*
X44946000Y-31129360D01*
X44943284Y-31156938D01*
X44937029Y-31177557D01*
X44926876Y-31196553D01*
X44913208Y-31213208D01*
X44896553Y-31226876D01*
X44877557Y-31237029D01*
X44856938Y-31243284D01*
X44829360Y-31246000D01*
X44370640Y-31246000D01*
X44343062Y-31243284D01*
X44322443Y-31237029D01*
X44303447Y-31226876D01*
X44286792Y-31213208D01*
X44273124Y-31196553D01*
X44262971Y-31177557D01*
X44256716Y-31156938D01*
X44254000Y-31129360D01*
X44254000Y-30620640D01*
X44256716Y-30593062D01*
X44262971Y-30572443D01*
X44273124Y-30553447D01*
X44286792Y-30536792D01*
X44303447Y-30523124D01*
X44322443Y-30512971D01*
X44343062Y-30506716D01*
X44370640Y-30504000D01*
X44829360Y-30504000D01*
X44856938Y-30506716D01*
G37*
G36*
X46816938Y-30506716D02*
G01*
X46837557Y-30512971D01*
X46856553Y-30523124D01*
X46873208Y-30536792D01*
X46886876Y-30553447D01*
X46897029Y-30572443D01*
X46903284Y-30593062D01*
X46906000Y-30620640D01*
X46906000Y-31129360D01*
X46903284Y-31156938D01*
X46897029Y-31177557D01*
X46886876Y-31196553D01*
X46873208Y-31213208D01*
X46856553Y-31226876D01*
X46837557Y-31237029D01*
X46816938Y-31243284D01*
X46789360Y-31246000D01*
X46330640Y-31246000D01*
X46303062Y-31243284D01*
X46282443Y-31237029D01*
X46263447Y-31226876D01*
X46246792Y-31213208D01*
X46233124Y-31196553D01*
X46222971Y-31177557D01*
X46216716Y-31156938D01*
X46214000Y-31129360D01*
X46214000Y-30620640D01*
X46216716Y-30593062D01*
X46222971Y-30572443D01*
X46233124Y-30553447D01*
X46246792Y-30536792D01*
X46263447Y-30523124D01*
X46282443Y-30512971D01*
X46303062Y-30506716D01*
X46330640Y-30504000D01*
X46789360Y-30504000D01*
X46816938Y-30506716D01*
G37*
G36*
X45846938Y-30506716D02*
G01*
X45867557Y-30512971D01*
X45886553Y-30523124D01*
X45903208Y-30536792D01*
X45916876Y-30553447D01*
X45927029Y-30572443D01*
X45933284Y-30593062D01*
X45936000Y-30620640D01*
X45936000Y-31129360D01*
X45933284Y-31156938D01*
X45927029Y-31177557D01*
X45916876Y-31196553D01*
X45903208Y-31213208D01*
X45886553Y-31226876D01*
X45867557Y-31237029D01*
X45846938Y-31243284D01*
X45819360Y-31246000D01*
X45360640Y-31246000D01*
X45333062Y-31243284D01*
X45312443Y-31237029D01*
X45293447Y-31226876D01*
X45276792Y-31213208D01*
X45263124Y-31196553D01*
X45252971Y-31177557D01*
X45246716Y-31156938D01*
X45244000Y-31129360D01*
X45244000Y-30620640D01*
X45246716Y-30593062D01*
X45252971Y-30572443D01*
X45263124Y-30553447D01*
X45276792Y-30536792D01*
X45293447Y-30523124D01*
X45312443Y-30512971D01*
X45333062Y-30506716D01*
X45360640Y-30504000D01*
X45819360Y-30504000D01*
X45846938Y-30506716D01*
G37*
G36*
X43886938Y-30506716D02*
G01*
X43907557Y-30512971D01*
X43926553Y-30523124D01*
X43943208Y-30536792D01*
X43956876Y-30553447D01*
X43967029Y-30572443D01*
X43973284Y-30593062D01*
X43976000Y-30620640D01*
X43976000Y-31129360D01*
X43973284Y-31156938D01*
X43967029Y-31177557D01*
X43956876Y-31196553D01*
X43943208Y-31213208D01*
X43926553Y-31226876D01*
X43907557Y-31237029D01*
X43886938Y-31243284D01*
X43859360Y-31246000D01*
X43400640Y-31246000D01*
X43373062Y-31243284D01*
X43352443Y-31237029D01*
X43333447Y-31226876D01*
X43316792Y-31213208D01*
X43303124Y-31196553D01*
X43292971Y-31177557D01*
X43286716Y-31156938D01*
X43284000Y-31129360D01*
X43284000Y-30620640D01*
X43286716Y-30593062D01*
X43292971Y-30572443D01*
X43303124Y-30553447D01*
X43316792Y-30536792D01*
X43333447Y-30523124D01*
X43352443Y-30512971D01*
X43373062Y-30506716D01*
X43400640Y-30504000D01*
X43859360Y-30504000D01*
X43886938Y-30506716D01*
G37*
G36*
X48906938Y-30556716D02*
G01*
X48927557Y-30562971D01*
X48946553Y-30573124D01*
X48963208Y-30586792D01*
X48976876Y-30603447D01*
X48987029Y-30622443D01*
X48993284Y-30643062D01*
X48996000Y-30670640D01*
X48996000Y-31129360D01*
X48993284Y-31156938D01*
X48987029Y-31177557D01*
X48976876Y-31196553D01*
X48963208Y-31213208D01*
X48946553Y-31226876D01*
X48927557Y-31237029D01*
X48906938Y-31243284D01*
X48879360Y-31246000D01*
X48370640Y-31246000D01*
X48343062Y-31243284D01*
X48322443Y-31237029D01*
X48303447Y-31226876D01*
X48286792Y-31213208D01*
X48273124Y-31196553D01*
X48262971Y-31177557D01*
X48256716Y-31156938D01*
X48254000Y-31129360D01*
X48254000Y-30670640D01*
X48256716Y-30643062D01*
X48262971Y-30622443D01*
X48273124Y-30603447D01*
X48286792Y-30586792D01*
X48303447Y-30573124D01*
X48322443Y-30562971D01*
X48343062Y-30556716D01*
X48370640Y-30554000D01*
X48879360Y-30554000D01*
X48906938Y-30556716D01*
G37*
G36*
X47856938Y-30551716D02*
G01*
X47877557Y-30557971D01*
X47896553Y-30568124D01*
X47913208Y-30581792D01*
X47926876Y-30598447D01*
X47937029Y-30617443D01*
X47943284Y-30638062D01*
X47946000Y-30665640D01*
X47946000Y-31124360D01*
X47943284Y-31151938D01*
X47937029Y-31172557D01*
X47926876Y-31191553D01*
X47913208Y-31208208D01*
X47896553Y-31221876D01*
X47877557Y-31232029D01*
X47856938Y-31238284D01*
X47829360Y-31241000D01*
X47320640Y-31241000D01*
X47293062Y-31238284D01*
X47272443Y-31232029D01*
X47253447Y-31221876D01*
X47236792Y-31208208D01*
X47223124Y-31191553D01*
X47212971Y-31172557D01*
X47206716Y-31151938D01*
X47204000Y-31124360D01*
X47204000Y-30665640D01*
X47206716Y-30638062D01*
X47212971Y-30617443D01*
X47223124Y-30598447D01*
X47236792Y-30581792D01*
X47253447Y-30568124D01*
X47272443Y-30557971D01*
X47293062Y-30551716D01*
X47320640Y-30549000D01*
X47829360Y-30549000D01*
X47856938Y-30551716D01*
G37*
G36*
X28389591Y-30185585D02*
G01*
X28423569Y-30195893D01*
X28454890Y-30212634D01*
X28482339Y-30235161D01*
X28504866Y-30262610D01*
X28521607Y-30293931D01*
X28531915Y-30327909D01*
X28536000Y-30369390D01*
X28536000Y-30970610D01*
X28531915Y-31012091D01*
X28521607Y-31046069D01*
X28504866Y-31077390D01*
X28482339Y-31104839D01*
X28454890Y-31127366D01*
X28423569Y-31144107D01*
X28389591Y-31154415D01*
X28348110Y-31158500D01*
X27671890Y-31158500D01*
X27630409Y-31154415D01*
X27596431Y-31144107D01*
X27565110Y-31127366D01*
X27537661Y-31104839D01*
X27515134Y-31077390D01*
X27498393Y-31046069D01*
X27488085Y-31012091D01*
X27484000Y-30970610D01*
X27484000Y-30369390D01*
X27488085Y-30327909D01*
X27498393Y-30293931D01*
X27515134Y-30262610D01*
X27537661Y-30235161D01*
X27565110Y-30212634D01*
X27596431Y-30195893D01*
X27630409Y-30185585D01*
X27671890Y-30181500D01*
X28348110Y-30181500D01*
X28389591Y-30185585D01*
G37*
G36*
X33559591Y-30180585D02*
G01*
X33593569Y-30190893D01*
X33624890Y-30207634D01*
X33652339Y-30230161D01*
X33674866Y-30257610D01*
X33691607Y-30288931D01*
X33701915Y-30322909D01*
X33706000Y-30364390D01*
X33706000Y-30965610D01*
X33701915Y-31007091D01*
X33691607Y-31041069D01*
X33674866Y-31072390D01*
X33652339Y-31099839D01*
X33624890Y-31122366D01*
X33593569Y-31139107D01*
X33559591Y-31149415D01*
X33518110Y-31153500D01*
X32841890Y-31153500D01*
X32800409Y-31149415D01*
X32766431Y-31139107D01*
X32735110Y-31122366D01*
X32707661Y-31099839D01*
X32685134Y-31072390D01*
X32668393Y-31041069D01*
X32658085Y-31007091D01*
X32654000Y-30965610D01*
X32654000Y-30364390D01*
X32658085Y-30322909D01*
X32668393Y-30288931D01*
X32685134Y-30257610D01*
X32707661Y-30230161D01*
X32735110Y-30207634D01*
X32766431Y-30190893D01*
X32800409Y-30180585D01*
X32841890Y-30176500D01*
X33518110Y-30176500D01*
X33559591Y-30180585D01*
G37*
G36*
X41446938Y-30411716D02*
G01*
X41467557Y-30417971D01*
X41486553Y-30428124D01*
X41503208Y-30441792D01*
X41516876Y-30458447D01*
X41527029Y-30477443D01*
X41533284Y-30498062D01*
X41536000Y-30525640D01*
X41536000Y-30984360D01*
X41533284Y-31011938D01*
X41527029Y-31032557D01*
X41516876Y-31051553D01*
X41503208Y-31068208D01*
X41486553Y-31081876D01*
X41467557Y-31092029D01*
X41446938Y-31098284D01*
X41419360Y-31101000D01*
X40910640Y-31101000D01*
X40883062Y-31098284D01*
X40862443Y-31092029D01*
X40843447Y-31081876D01*
X40826792Y-31068208D01*
X40813124Y-31051553D01*
X40802971Y-31032557D01*
X40796716Y-31011938D01*
X40794000Y-30984360D01*
X40794000Y-30525640D01*
X40796716Y-30498062D01*
X40802971Y-30477443D01*
X40813124Y-30458447D01*
X40826792Y-30441792D01*
X40843447Y-30428124D01*
X40862443Y-30417971D01*
X40883062Y-30411716D01*
X40910640Y-30409000D01*
X41419360Y-30409000D01*
X41446938Y-30411716D01*
G37*
G36*
X38721938Y-30411716D02*
G01*
X38742557Y-30417971D01*
X38761553Y-30428124D01*
X38778208Y-30441792D01*
X38791876Y-30458447D01*
X38802029Y-30477443D01*
X38808284Y-30498062D01*
X38811000Y-30525640D01*
X38811000Y-30984360D01*
X38808284Y-31011938D01*
X38802029Y-31032557D01*
X38791876Y-31051553D01*
X38778208Y-31068208D01*
X38761553Y-31081876D01*
X38742557Y-31092029D01*
X38721938Y-31098284D01*
X38694360Y-31101000D01*
X38185640Y-31101000D01*
X38158062Y-31098284D01*
X38137443Y-31092029D01*
X38118447Y-31081876D01*
X38101792Y-31068208D01*
X38088124Y-31051553D01*
X38077971Y-31032557D01*
X38071716Y-31011938D01*
X38069000Y-30984360D01*
X38069000Y-30525640D01*
X38071716Y-30498062D01*
X38077971Y-30477443D01*
X38088124Y-30458447D01*
X38101792Y-30441792D01*
X38118447Y-30428124D01*
X38137443Y-30417971D01*
X38158062Y-30411716D01*
X38185640Y-30409000D01*
X38694360Y-30409000D01*
X38721938Y-30411716D01*
G37*
G36*
X40396938Y-30411716D02*
G01*
X40417557Y-30417971D01*
X40436553Y-30428124D01*
X40453208Y-30441792D01*
X40466876Y-30458447D01*
X40477029Y-30477443D01*
X40483284Y-30498062D01*
X40486000Y-30525640D01*
X40486000Y-30984360D01*
X40483284Y-31011938D01*
X40477029Y-31032557D01*
X40466876Y-31051553D01*
X40453208Y-31068208D01*
X40436553Y-31081876D01*
X40417557Y-31092029D01*
X40396938Y-31098284D01*
X40369360Y-31101000D01*
X39860640Y-31101000D01*
X39833062Y-31098284D01*
X39812443Y-31092029D01*
X39793447Y-31081876D01*
X39776792Y-31068208D01*
X39763124Y-31051553D01*
X39752971Y-31032557D01*
X39746716Y-31011938D01*
X39744000Y-30984360D01*
X39744000Y-30525640D01*
X39746716Y-30498062D01*
X39752971Y-30477443D01*
X39763124Y-30458447D01*
X39776792Y-30441792D01*
X39793447Y-30428124D01*
X39812443Y-30417971D01*
X39833062Y-30411716D01*
X39860640Y-30409000D01*
X40369360Y-30409000D01*
X40396938Y-30411716D01*
G37*
G36*
X42496938Y-30406716D02*
G01*
X42517557Y-30412971D01*
X42536553Y-30423124D01*
X42553208Y-30436792D01*
X42566876Y-30453447D01*
X42577029Y-30472443D01*
X42583284Y-30493062D01*
X42586000Y-30520640D01*
X42586000Y-30979360D01*
X42583284Y-31006938D01*
X42577029Y-31027557D01*
X42566876Y-31046553D01*
X42553208Y-31063208D01*
X42536553Y-31076876D01*
X42517557Y-31087029D01*
X42496938Y-31093284D01*
X42469360Y-31096000D01*
X41960640Y-31096000D01*
X41933062Y-31093284D01*
X41912443Y-31087029D01*
X41893447Y-31076876D01*
X41876792Y-31063208D01*
X41863124Y-31046553D01*
X41852971Y-31027557D01*
X41846716Y-31006938D01*
X41844000Y-30979360D01*
X41844000Y-30520640D01*
X41846716Y-30493062D01*
X41852971Y-30472443D01*
X41863124Y-30453447D01*
X41876792Y-30436792D01*
X41893447Y-30423124D01*
X41912443Y-30412971D01*
X41933062Y-30406716D01*
X41960640Y-30404000D01*
X42469360Y-30404000D01*
X42496938Y-30406716D01*
G37*
G36*
X31051000Y-30741000D02*
G01*
X30149000Y-30741000D01*
X30149000Y-29739000D01*
X31051000Y-29739000D01*
X31051000Y-30741000D01*
G37*
G36*
X37419591Y-29695585D02*
G01*
X37453569Y-29705893D01*
X37484890Y-29722634D01*
X37512339Y-29745161D01*
X37534866Y-29772610D01*
X37551607Y-29803931D01*
X37561915Y-29837909D01*
X37566000Y-29879390D01*
X37566000Y-30480610D01*
X37561915Y-30522091D01*
X37551607Y-30556069D01*
X37534866Y-30587390D01*
X37512339Y-30614839D01*
X37484890Y-30637366D01*
X37453569Y-30654107D01*
X37419591Y-30664415D01*
X37378110Y-30668500D01*
X36701890Y-30668500D01*
X36660409Y-30664415D01*
X36626431Y-30654107D01*
X36595110Y-30637366D01*
X36567661Y-30614839D01*
X36545134Y-30587390D01*
X36528393Y-30556069D01*
X36518085Y-30522091D01*
X36514000Y-30480610D01*
X36514000Y-29879390D01*
X36518085Y-29837909D01*
X36528393Y-29803931D01*
X36545134Y-29772610D01*
X36567661Y-29745161D01*
X36595110Y-29722634D01*
X36626431Y-29705893D01*
X36660409Y-29695585D01*
X36701890Y-29691500D01*
X37378110Y-29691500D01*
X37419591Y-29695585D01*
G37*
G36*
X35719591Y-29695585D02*
G01*
X35753569Y-29705893D01*
X35784890Y-29722634D01*
X35812339Y-29745161D01*
X35834866Y-29772610D01*
X35851607Y-29803931D01*
X35861915Y-29837909D01*
X35866000Y-29879390D01*
X35866000Y-30480610D01*
X35861915Y-30522091D01*
X35851607Y-30556069D01*
X35834866Y-30587390D01*
X35812339Y-30614839D01*
X35784890Y-30637366D01*
X35753569Y-30654107D01*
X35719591Y-30664415D01*
X35678110Y-30668500D01*
X35001890Y-30668500D01*
X34960409Y-30664415D01*
X34926431Y-30654107D01*
X34895110Y-30637366D01*
X34867661Y-30614839D01*
X34845134Y-30587390D01*
X34828393Y-30556069D01*
X34818085Y-30522091D01*
X34814000Y-30480610D01*
X34814000Y-29879390D01*
X34818085Y-29837909D01*
X34828393Y-29803931D01*
X34845134Y-29772610D01*
X34867661Y-29745161D01*
X34895110Y-29722634D01*
X34926431Y-29705893D01*
X34960409Y-29695585D01*
X35001890Y-29691500D01*
X35678110Y-29691500D01*
X35719591Y-29695585D01*
G37*
G36*
X48906938Y-29586716D02*
G01*
X48927557Y-29592971D01*
X48946553Y-29603124D01*
X48963208Y-29616792D01*
X48976876Y-29633447D01*
X48987029Y-29652443D01*
X48993284Y-29673062D01*
X48996000Y-29700640D01*
X48996000Y-30159360D01*
X48993284Y-30186938D01*
X48987029Y-30207557D01*
X48976876Y-30226553D01*
X48963208Y-30243208D01*
X48946553Y-30256876D01*
X48927557Y-30267029D01*
X48906938Y-30273284D01*
X48879360Y-30276000D01*
X48370640Y-30276000D01*
X48343062Y-30273284D01*
X48322443Y-30267029D01*
X48303447Y-30256876D01*
X48286792Y-30243208D01*
X48273124Y-30226553D01*
X48262971Y-30207557D01*
X48256716Y-30186938D01*
X48254000Y-30159360D01*
X48254000Y-29700640D01*
X48256716Y-29673062D01*
X48262971Y-29652443D01*
X48273124Y-29633447D01*
X48286792Y-29616792D01*
X48303447Y-29603124D01*
X48322443Y-29592971D01*
X48343062Y-29586716D01*
X48370640Y-29584000D01*
X48879360Y-29584000D01*
X48906938Y-29586716D01*
G37*
G36*
X47856938Y-29581716D02*
G01*
X47877557Y-29587971D01*
X47896553Y-29598124D01*
X47913208Y-29611792D01*
X47926876Y-29628447D01*
X47937029Y-29647443D01*
X47943284Y-29668062D01*
X47946000Y-29695640D01*
X47946000Y-30154360D01*
X47943284Y-30181938D01*
X47937029Y-30202557D01*
X47926876Y-30221553D01*
X47913208Y-30238208D01*
X47896553Y-30251876D01*
X47877557Y-30262029D01*
X47856938Y-30268284D01*
X47829360Y-30271000D01*
X47320640Y-30271000D01*
X47293062Y-30268284D01*
X47272443Y-30262029D01*
X47253447Y-30251876D01*
X47236792Y-30238208D01*
X47223124Y-30221553D01*
X47212971Y-30202557D01*
X47206716Y-30181938D01*
X47204000Y-30154360D01*
X47204000Y-29695640D01*
X47206716Y-29668062D01*
X47212971Y-29647443D01*
X47223124Y-29628447D01*
X47236792Y-29611792D01*
X47253447Y-29598124D01*
X47272443Y-29587971D01*
X47293062Y-29581716D01*
X47320640Y-29579000D01*
X47829360Y-29579000D01*
X47856938Y-29581716D01*
G37*
G36*
X41446938Y-29441716D02*
G01*
X41467557Y-29447971D01*
X41486553Y-29458124D01*
X41503208Y-29471792D01*
X41516876Y-29488447D01*
X41527029Y-29507443D01*
X41533284Y-29528062D01*
X41536000Y-29555640D01*
X41536000Y-30014360D01*
X41533284Y-30041938D01*
X41527029Y-30062557D01*
X41516876Y-30081553D01*
X41503208Y-30098208D01*
X41486553Y-30111876D01*
X41467557Y-30122029D01*
X41446938Y-30128284D01*
X41419360Y-30131000D01*
X40910640Y-30131000D01*
X40883062Y-30128284D01*
X40862443Y-30122029D01*
X40843447Y-30111876D01*
X40826792Y-30098208D01*
X40813124Y-30081553D01*
X40802971Y-30062557D01*
X40796716Y-30041938D01*
X40794000Y-30014360D01*
X40794000Y-29555640D01*
X40796716Y-29528062D01*
X40802971Y-29507443D01*
X40813124Y-29488447D01*
X40826792Y-29471792D01*
X40843447Y-29458124D01*
X40862443Y-29447971D01*
X40883062Y-29441716D01*
X40910640Y-29439000D01*
X41419360Y-29439000D01*
X41446938Y-29441716D01*
G37*
G36*
X40396938Y-29441716D02*
G01*
X40417557Y-29447971D01*
X40436553Y-29458124D01*
X40453208Y-29471792D01*
X40466876Y-29488447D01*
X40477029Y-29507443D01*
X40483284Y-29528062D01*
X40486000Y-29555640D01*
X40486000Y-30014360D01*
X40483284Y-30041938D01*
X40477029Y-30062557D01*
X40466876Y-30081553D01*
X40453208Y-30098208D01*
X40436553Y-30111876D01*
X40417557Y-30122029D01*
X40396938Y-30128284D01*
X40369360Y-30131000D01*
X39860640Y-30131000D01*
X39833062Y-30128284D01*
X39812443Y-30122029D01*
X39793447Y-30111876D01*
X39776792Y-30098208D01*
X39763124Y-30081553D01*
X39752971Y-30062557D01*
X39746716Y-30041938D01*
X39744000Y-30014360D01*
X39744000Y-29555640D01*
X39746716Y-29528062D01*
X39752971Y-29507443D01*
X39763124Y-29488447D01*
X39776792Y-29471792D01*
X39793447Y-29458124D01*
X39812443Y-29447971D01*
X39833062Y-29441716D01*
X39860640Y-29439000D01*
X40369360Y-29439000D01*
X40396938Y-29441716D01*
G37*
G36*
X38721938Y-29441716D02*
G01*
X38742557Y-29447971D01*
X38761553Y-29458124D01*
X38778208Y-29471792D01*
X38791876Y-29488447D01*
X38802029Y-29507443D01*
X38808284Y-29528062D01*
X38811000Y-29555640D01*
X38811000Y-30014360D01*
X38808284Y-30041938D01*
X38802029Y-30062557D01*
X38791876Y-30081553D01*
X38778208Y-30098208D01*
X38761553Y-30111876D01*
X38742557Y-30122029D01*
X38721938Y-30128284D01*
X38694360Y-30131000D01*
X38185640Y-30131000D01*
X38158062Y-30128284D01*
X38137443Y-30122029D01*
X38118447Y-30111876D01*
X38101792Y-30098208D01*
X38088124Y-30081553D01*
X38077971Y-30062557D01*
X38071716Y-30041938D01*
X38069000Y-30014360D01*
X38069000Y-29555640D01*
X38071716Y-29528062D01*
X38077971Y-29507443D01*
X38088124Y-29488447D01*
X38101792Y-29471792D01*
X38118447Y-29458124D01*
X38137443Y-29447971D01*
X38158062Y-29441716D01*
X38185640Y-29439000D01*
X38694360Y-29439000D01*
X38721938Y-29441716D01*
G37*
G36*
X42496938Y-29436716D02*
G01*
X42517557Y-29442971D01*
X42536553Y-29453124D01*
X42553208Y-29466792D01*
X42566876Y-29483447D01*
X42577029Y-29502443D01*
X42583284Y-29523062D01*
X42586000Y-29550640D01*
X42586000Y-30009360D01*
X42583284Y-30036938D01*
X42577029Y-30057557D01*
X42566876Y-30076553D01*
X42553208Y-30093208D01*
X42536553Y-30106876D01*
X42517557Y-30117029D01*
X42496938Y-30123284D01*
X42469360Y-30126000D01*
X41960640Y-30126000D01*
X41933062Y-30123284D01*
X41912443Y-30117029D01*
X41893447Y-30106876D01*
X41876792Y-30093208D01*
X41863124Y-30076553D01*
X41852971Y-30057557D01*
X41846716Y-30036938D01*
X41844000Y-30009360D01*
X41844000Y-29550640D01*
X41846716Y-29523062D01*
X41852971Y-29502443D01*
X41863124Y-29483447D01*
X41876792Y-29466792D01*
X41893447Y-29453124D01*
X41912443Y-29442971D01*
X41933062Y-29436716D01*
X41960640Y-29434000D01*
X42469360Y-29434000D01*
X42496938Y-29436716D01*
G37*
G36*
X45079591Y-29053085D02*
G01*
X45113569Y-29063393D01*
X45144890Y-29080134D01*
X45172339Y-29102661D01*
X45194866Y-29130110D01*
X45211607Y-29161431D01*
X45221915Y-29195409D01*
X45226000Y-29236890D01*
X45226000Y-29913110D01*
X45221915Y-29954591D01*
X45211607Y-29988569D01*
X45194866Y-30019890D01*
X45172339Y-30047339D01*
X45144890Y-30069866D01*
X45113569Y-30086607D01*
X45079591Y-30096915D01*
X45038110Y-30101000D01*
X44436890Y-30101000D01*
X44395409Y-30096915D01*
X44361431Y-30086607D01*
X44330110Y-30069866D01*
X44302661Y-30047339D01*
X44280134Y-30019890D01*
X44263393Y-29988569D01*
X44253085Y-29954591D01*
X44249000Y-29913110D01*
X44249000Y-29236890D01*
X44253085Y-29195409D01*
X44263393Y-29161431D01*
X44280134Y-29130110D01*
X44302661Y-29102661D01*
X44330110Y-29080134D01*
X44361431Y-29063393D01*
X44395409Y-29053085D01*
X44436890Y-29049000D01*
X45038110Y-29049000D01*
X45079591Y-29053085D01*
G37*
G36*
X46654591Y-29053085D02*
G01*
X46688569Y-29063393D01*
X46719890Y-29080134D01*
X46747339Y-29102661D01*
X46769866Y-29130110D01*
X46786607Y-29161431D01*
X46796915Y-29195409D01*
X46801000Y-29236890D01*
X46801000Y-29913110D01*
X46796915Y-29954591D01*
X46786607Y-29988569D01*
X46769866Y-30019890D01*
X46747339Y-30047339D01*
X46719890Y-30069866D01*
X46688569Y-30086607D01*
X46654591Y-30096915D01*
X46613110Y-30101000D01*
X46011890Y-30101000D01*
X45970409Y-30096915D01*
X45936431Y-30086607D01*
X45905110Y-30069866D01*
X45877661Y-30047339D01*
X45855134Y-30019890D01*
X45838393Y-29988569D01*
X45828085Y-29954591D01*
X45824000Y-29913110D01*
X45824000Y-29236890D01*
X45828085Y-29195409D01*
X45838393Y-29161431D01*
X45855134Y-29130110D01*
X45877661Y-29102661D01*
X45905110Y-29080134D01*
X45936431Y-29063393D01*
X45970409Y-29053085D01*
X46011890Y-29049000D01*
X46613110Y-29049000D01*
X46654591Y-29053085D01*
G37*
G36*
X26468604Y-27678347D02*
G01*
X26505144Y-27689432D01*
X26538821Y-27707433D01*
X26568341Y-27731659D01*
X26592567Y-27761179D01*
X26610568Y-27794856D01*
X26621653Y-27831396D01*
X26626000Y-27875538D01*
X26626000Y-29324462D01*
X26621653Y-29368604D01*
X26610568Y-29405144D01*
X26592567Y-29438821D01*
X26568341Y-29468341D01*
X26538821Y-29492567D01*
X26505144Y-29510568D01*
X26468604Y-29521653D01*
X26424462Y-29526000D01*
X25475538Y-29526000D01*
X25431396Y-29521653D01*
X25394856Y-29510568D01*
X25361179Y-29492567D01*
X25331659Y-29468341D01*
X25307433Y-29438821D01*
X25289432Y-29405144D01*
X25278347Y-29368604D01*
X25274000Y-29324462D01*
X25274000Y-27875538D01*
X25278347Y-27831396D01*
X25289432Y-27794856D01*
X25307433Y-27761179D01*
X25331659Y-27731659D01*
X25361179Y-27707433D01*
X25394856Y-27689432D01*
X25431396Y-27678347D01*
X25475538Y-27674000D01*
X26424462Y-27674000D01*
X26468604Y-27678347D01*
G37*
G36*
X23668604Y-27678347D02*
G01*
X23705144Y-27689432D01*
X23738821Y-27707433D01*
X23768341Y-27731659D01*
X23792567Y-27761179D01*
X23810568Y-27794856D01*
X23821653Y-27831396D01*
X23826000Y-27875538D01*
X23826000Y-29324462D01*
X23821653Y-29368604D01*
X23810568Y-29405144D01*
X23792567Y-29438821D01*
X23768341Y-29468341D01*
X23738821Y-29492567D01*
X23705144Y-29510568D01*
X23668604Y-29521653D01*
X23624462Y-29526000D01*
X22675538Y-29526000D01*
X22631396Y-29521653D01*
X22594856Y-29510568D01*
X22561179Y-29492567D01*
X22531659Y-29468341D01*
X22507433Y-29438821D01*
X22489432Y-29405144D01*
X22478347Y-29368604D01*
X22474000Y-29324462D01*
X22474000Y-27875538D01*
X22478347Y-27831396D01*
X22489432Y-27794856D01*
X22507433Y-27761179D01*
X22531659Y-27731659D01*
X22561179Y-27707433D01*
X22594856Y-27689432D01*
X22631396Y-27678347D01*
X22675538Y-27674000D01*
X23624462Y-27674000D01*
X23668604Y-27678347D01*
G37*
G36*
X28096968Y-27653565D02*
G01*
X28135638Y-27665296D01*
X28171277Y-27684346D01*
X28202517Y-27709983D01*
X28228154Y-27741223D01*
X28247204Y-27776862D01*
X28258935Y-27815532D01*
X28263500Y-27861888D01*
X28263500Y-28938112D01*
X28258935Y-28984468D01*
X28247204Y-29023138D01*
X28228154Y-29058777D01*
X28202517Y-29090017D01*
X28171277Y-29115654D01*
X28135638Y-29134704D01*
X28096968Y-29146435D01*
X28050612Y-29151000D01*
X27399388Y-29151000D01*
X27353032Y-29146435D01*
X27314362Y-29134704D01*
X27278723Y-29115654D01*
X27247483Y-29090017D01*
X27221846Y-29058777D01*
X27202796Y-29023138D01*
X27191065Y-28984468D01*
X27186500Y-28938112D01*
X27186500Y-27861888D01*
X27191065Y-27815532D01*
X27202796Y-27776862D01*
X27221846Y-27741223D01*
X27247483Y-27709983D01*
X27278723Y-27684346D01*
X27314362Y-27665296D01*
X27353032Y-27653565D01*
X27399388Y-27649000D01*
X28050612Y-27649000D01*
X28096968Y-27653565D01*
G37*
G36*
X29971968Y-27653565D02*
G01*
X30010638Y-27665296D01*
X30046277Y-27684346D01*
X30077517Y-27709983D01*
X30103154Y-27741223D01*
X30122204Y-27776862D01*
X30133935Y-27815532D01*
X30138500Y-27861888D01*
X30138500Y-28938112D01*
X30133935Y-28984468D01*
X30122204Y-29023138D01*
X30103154Y-29058777D01*
X30077517Y-29090017D01*
X30046277Y-29115654D01*
X30010638Y-29134704D01*
X29971968Y-29146435D01*
X29925612Y-29151000D01*
X29274388Y-29151000D01*
X29228032Y-29146435D01*
X29189362Y-29134704D01*
X29153723Y-29115654D01*
X29122483Y-29090017D01*
X29096846Y-29058777D01*
X29077796Y-29023138D01*
X29066065Y-28984468D01*
X29061500Y-28938112D01*
X29061500Y-27861888D01*
X29066065Y-27815532D01*
X29077796Y-27776862D01*
X29096846Y-27741223D01*
X29122483Y-27709983D01*
X29153723Y-27684346D01*
X29189362Y-27665296D01*
X29228032Y-27653565D01*
X29274388Y-27649000D01*
X29925612Y-27649000D01*
X29971968Y-27653565D01*
G37*
G36*
X37419591Y-28120585D02*
G01*
X37453569Y-28130893D01*
X37484890Y-28147634D01*
X37512339Y-28170161D01*
X37534866Y-28197610D01*
X37551607Y-28228931D01*
X37561915Y-28262909D01*
X37566000Y-28304390D01*
X37566000Y-28905610D01*
X37561915Y-28947091D01*
X37551607Y-28981069D01*
X37534866Y-29012390D01*
X37512339Y-29039839D01*
X37484890Y-29062366D01*
X37453569Y-29079107D01*
X37419591Y-29089415D01*
X37378110Y-29093500D01*
X36701890Y-29093500D01*
X36660409Y-29089415D01*
X36626431Y-29079107D01*
X36595110Y-29062366D01*
X36567661Y-29039839D01*
X36545134Y-29012390D01*
X36528393Y-28981069D01*
X36518085Y-28947091D01*
X36514000Y-28905610D01*
X36514000Y-28304390D01*
X36518085Y-28262909D01*
X36528393Y-28228931D01*
X36545134Y-28197610D01*
X36567661Y-28170161D01*
X36595110Y-28147634D01*
X36626431Y-28130893D01*
X36660409Y-28120585D01*
X36701890Y-28116500D01*
X37378110Y-28116500D01*
X37419591Y-28120585D01*
G37*
G36*
X35719591Y-28120585D02*
G01*
X35753569Y-28130893D01*
X35784890Y-28147634D01*
X35812339Y-28170161D01*
X35834866Y-28197610D01*
X35851607Y-28228931D01*
X35861915Y-28262909D01*
X35866000Y-28304390D01*
X35866000Y-28905610D01*
X35861915Y-28947091D01*
X35851607Y-28981069D01*
X35834866Y-29012390D01*
X35812339Y-29039839D01*
X35784890Y-29062366D01*
X35753569Y-29079107D01*
X35719591Y-29089415D01*
X35678110Y-29093500D01*
X35001890Y-29093500D01*
X34960409Y-29089415D01*
X34926431Y-29079107D01*
X34895110Y-29062366D01*
X34867661Y-29039839D01*
X34845134Y-29012390D01*
X34828393Y-28981069D01*
X34818085Y-28947091D01*
X34814000Y-28905610D01*
X34814000Y-28304390D01*
X34818085Y-28262909D01*
X34828393Y-28228931D01*
X34845134Y-28197610D01*
X34867661Y-28170161D01*
X34895110Y-28147634D01*
X34926431Y-28130893D01*
X34960409Y-28120585D01*
X35001890Y-28116500D01*
X35678110Y-28116500D01*
X35719591Y-28120585D01*
G37*
G36*
X33579591Y-27878085D02*
G01*
X33613569Y-27888393D01*
X33644890Y-27905134D01*
X33672339Y-27927661D01*
X33694866Y-27955110D01*
X33711607Y-27986431D01*
X33721915Y-28020409D01*
X33726000Y-28061890D01*
X33726000Y-28738110D01*
X33721915Y-28779591D01*
X33711607Y-28813569D01*
X33694866Y-28844890D01*
X33672339Y-28872339D01*
X33644890Y-28894866D01*
X33613569Y-28911607D01*
X33579591Y-28921915D01*
X33538110Y-28926000D01*
X32936890Y-28926000D01*
X32895409Y-28921915D01*
X32861431Y-28911607D01*
X32830110Y-28894866D01*
X32802661Y-28872339D01*
X32780134Y-28844890D01*
X32763393Y-28813569D01*
X32753085Y-28779591D01*
X32749000Y-28738110D01*
X32749000Y-28061890D01*
X32753085Y-28020409D01*
X32763393Y-27986431D01*
X32780134Y-27955110D01*
X32802661Y-27927661D01*
X32830110Y-27905134D01*
X32861431Y-27888393D01*
X32895409Y-27878085D01*
X32936890Y-27874000D01*
X33538110Y-27874000D01*
X33579591Y-27878085D01*
G37*
G36*
X32004591Y-27878085D02*
G01*
X32038569Y-27888393D01*
X32069890Y-27905134D01*
X32097339Y-27927661D01*
X32119866Y-27955110D01*
X32136607Y-27986431D01*
X32146915Y-28020409D01*
X32151000Y-28061890D01*
X32151000Y-28738110D01*
X32146915Y-28779591D01*
X32136607Y-28813569D01*
X32119866Y-28844890D01*
X32097339Y-28872339D01*
X32069890Y-28894866D01*
X32038569Y-28911607D01*
X32004591Y-28921915D01*
X31963110Y-28926000D01*
X31361890Y-28926000D01*
X31320409Y-28921915D01*
X31286431Y-28911607D01*
X31255110Y-28894866D01*
X31227661Y-28872339D01*
X31205134Y-28844890D01*
X31188393Y-28813569D01*
X31178085Y-28779591D01*
X31174000Y-28738110D01*
X31174000Y-28061890D01*
X31178085Y-28020409D01*
X31188393Y-27986431D01*
X31205134Y-27955110D01*
X31227661Y-27927661D01*
X31255110Y-27905134D01*
X31286431Y-27888393D01*
X31320409Y-27878085D01*
X31361890Y-27874000D01*
X31963110Y-27874000D01*
X32004591Y-27878085D01*
G37*
G36*
X39032091Y-27858085D02*
G01*
X39066069Y-27868393D01*
X39097390Y-27885134D01*
X39124839Y-27907661D01*
X39147366Y-27935110D01*
X39164107Y-27966431D01*
X39174415Y-28000409D01*
X39178500Y-28041890D01*
X39178500Y-28718110D01*
X39174415Y-28759591D01*
X39164107Y-28793569D01*
X39147366Y-28824890D01*
X39124839Y-28852339D01*
X39097390Y-28874866D01*
X39066069Y-28891607D01*
X39032091Y-28901915D01*
X38990610Y-28906000D01*
X38389390Y-28906000D01*
X38347909Y-28901915D01*
X38313931Y-28891607D01*
X38282610Y-28874866D01*
X38255161Y-28852339D01*
X38232634Y-28824890D01*
X38215893Y-28793569D01*
X38205585Y-28759591D01*
X38201500Y-28718110D01*
X38201500Y-28041890D01*
X38205585Y-28000409D01*
X38215893Y-27966431D01*
X38232634Y-27935110D01*
X38255161Y-27907661D01*
X38282610Y-27885134D01*
X38313931Y-27868393D01*
X38347909Y-27858085D01*
X38389390Y-27854000D01*
X38990610Y-27854000D01*
X39032091Y-27858085D01*
G37*
G36*
X40607091Y-27858085D02*
G01*
X40641069Y-27868393D01*
X40672390Y-27885134D01*
X40699839Y-27907661D01*
X40722366Y-27935110D01*
X40739107Y-27966431D01*
X40749415Y-28000409D01*
X40753500Y-28041890D01*
X40753500Y-28718110D01*
X40749415Y-28759591D01*
X40739107Y-28793569D01*
X40722366Y-28824890D01*
X40699839Y-28852339D01*
X40672390Y-28874866D01*
X40641069Y-28891607D01*
X40607091Y-28901915D01*
X40565610Y-28906000D01*
X39964390Y-28906000D01*
X39922909Y-28901915D01*
X39888931Y-28891607D01*
X39857610Y-28874866D01*
X39830161Y-28852339D01*
X39807634Y-28824890D01*
X39790893Y-28793569D01*
X39780585Y-28759591D01*
X39776500Y-28718110D01*
X39776500Y-28041890D01*
X39780585Y-28000409D01*
X39790893Y-27966431D01*
X39807634Y-27935110D01*
X39830161Y-27907661D01*
X39857610Y-27885134D01*
X39888931Y-27868393D01*
X39922909Y-27858085D01*
X39964390Y-27854000D01*
X40565610Y-27854000D01*
X40607091Y-27858085D01*
G37*
M02*
