G04 #@! TF.GenerationSoftware,KiCad,Pcbnew,(5.1.5)-3*
G04 #@! TF.CreationDate,2020-05-13T19:19:56+02:00*
G04 #@! TF.ProjectId,STRF,53545246-2e6b-4696-9361-645f70636258,rev?*
G04 #@! TF.SameCoordinates,Original*
G04 #@! TF.FileFunction,Soldermask,Top*
G04 #@! TF.FilePolarity,Negative*
%FSLAX46Y46*%
G04 Gerber Fmt 4.6, Leading zero omitted, Abs format (unit mm)*
G04 Created by KiCad (PCBNEW (5.1.5)-3) date 2020-05-13 19:19:56*
%MOMM*%
%LPD*%
G04 APERTURE LIST*
%ADD10C,0.100000*%
%ADD11C,0.150000*%
%ADD12C,0.120000*%
G04 APERTURE END LIST*
D10*
G36*
X58575000Y-27400000D02*
G01*
X59150000Y-27625000D01*
X59625000Y-28075000D01*
X59825000Y-28500000D01*
X59825000Y-28900000D01*
X59150000Y-28900000D01*
X59125000Y-28725000D01*
X58950000Y-28375000D01*
X58625000Y-28150000D01*
X58250000Y-28025000D01*
X58300000Y-27350000D01*
X58575000Y-27400000D01*
G37*
X58575000Y-27400000D02*
X59150000Y-27625000D01*
X59625000Y-28075000D01*
X59825000Y-28500000D01*
X59825000Y-28900000D01*
X59150000Y-28900000D01*
X59125000Y-28725000D01*
X58950000Y-28375000D01*
X58625000Y-28150000D01*
X58250000Y-28025000D01*
X58300000Y-27350000D01*
X58575000Y-27400000D01*
D11*
X58300000Y-27325000D02*
G75*
G02X59900000Y-28925000I0J-1600000D01*
G01*
D10*
G36*
X59925000Y-30425000D02*
G01*
X59075000Y-30425000D01*
X59075000Y-28950000D01*
X59925000Y-28950000D01*
X59925000Y-30425000D01*
G37*
X59925000Y-30425000D02*
X59075000Y-30425000D01*
X59075000Y-28950000D01*
X59925000Y-28950000D01*
X59925000Y-30425000D01*
D11*
X58200000Y-28075000D02*
G75*
G02X59100000Y-28975000I0J-900000D01*
G01*
D10*
G36*
X59860000Y-40250000D02*
G01*
X59760000Y-40620000D01*
X59390000Y-41200000D01*
X58630000Y-41600000D01*
X58240000Y-41630000D01*
X58250000Y-40980000D01*
X58250000Y-40970000D01*
X58610000Y-40880000D01*
X58980000Y-40580000D01*
X59170000Y-40110000D01*
X59160000Y-40030000D01*
X59850000Y-40020000D01*
X59860000Y-40250000D01*
G37*
X59860000Y-40250000D02*
X59760000Y-40620000D01*
X59390000Y-41200000D01*
X58630000Y-41600000D01*
X58240000Y-41630000D01*
X58250000Y-40980000D01*
X58250000Y-40970000D01*
X58610000Y-40880000D01*
X58980000Y-40580000D01*
X59170000Y-40110000D01*
X59160000Y-40030000D01*
X59850000Y-40020000D01*
X59860000Y-40250000D01*
D12*
X59120000Y-40000000D02*
G75*
G02X58210000Y-40910000I-910000J0D01*
G01*
D10*
G36*
X59910000Y-40000000D02*
G01*
X59110000Y-40000000D01*
X59100000Y-38570000D01*
X59900000Y-38570000D01*
X59910000Y-40000000D01*
G37*
X59910000Y-40000000D02*
X59110000Y-40000000D01*
X59100000Y-38570000D01*
X59900000Y-38570000D01*
X59910000Y-40000000D01*
D12*
X59900000Y-39990000D02*
G75*
G02X58200000Y-41690000I-1700000J0D01*
G01*
D10*
G36*
X50645000Y-37550000D02*
G01*
X50647500Y-37550000D01*
X50652500Y-40900000D01*
X58200000Y-40900000D01*
X58200000Y-41700000D01*
X49855000Y-41700000D01*
X49845000Y-38350000D01*
X49850000Y-38350000D01*
X49850000Y-36500000D01*
X50650000Y-36500000D01*
X50645000Y-37550000D01*
G37*
X50645000Y-37550000D02*
X50647500Y-37550000D01*
X50652500Y-40900000D01*
X58200000Y-40900000D01*
X58200000Y-41700000D01*
X49855000Y-41700000D01*
X49845000Y-38350000D01*
X49850000Y-38350000D01*
X49850000Y-36500000D01*
X50650000Y-36500000D01*
X50645000Y-37550000D01*
G36*
X58300000Y-28100000D02*
G01*
X50650000Y-28100000D01*
X50650000Y-33300000D01*
X49850000Y-33300000D01*
X49850000Y-27300000D01*
X58300000Y-27300000D01*
X58300000Y-28100000D01*
G37*
X58300000Y-28100000D02*
X50650000Y-28100000D01*
X50650000Y-33300000D01*
X49850000Y-33300000D01*
X49850000Y-27300000D01*
X58300000Y-27300000D01*
X58300000Y-28100000D01*
G36*
X47951000Y-41476000D02*
G01*
X46449000Y-41476000D01*
X46449000Y-40174000D01*
X47951000Y-40174000D01*
X47951000Y-41476000D01*
G37*
G36*
X45751000Y-41476000D02*
G01*
X44249000Y-41476000D01*
X44249000Y-40174000D01*
X45751000Y-40174000D01*
X45751000Y-41476000D01*
G37*
G36*
X26206938Y-40131716D02*
G01*
X26227557Y-40137971D01*
X26246553Y-40148124D01*
X26263208Y-40161792D01*
X26276876Y-40178447D01*
X26287029Y-40197443D01*
X26293284Y-40218062D01*
X26296000Y-40245640D01*
X26296000Y-40704360D01*
X26293284Y-40731938D01*
X26287029Y-40752557D01*
X26276876Y-40771553D01*
X26263208Y-40788208D01*
X26246553Y-40801876D01*
X26227557Y-40812029D01*
X26206938Y-40818284D01*
X26179360Y-40821000D01*
X25670640Y-40821000D01*
X25643062Y-40818284D01*
X25622443Y-40812029D01*
X25603447Y-40801876D01*
X25586792Y-40788208D01*
X25573124Y-40771553D01*
X25562971Y-40752557D01*
X25556716Y-40731938D01*
X25554000Y-40704360D01*
X25554000Y-40245640D01*
X25556716Y-40218062D01*
X25562971Y-40197443D01*
X25573124Y-40178447D01*
X25586792Y-40161792D01*
X25603447Y-40148124D01*
X25622443Y-40137971D01*
X25643062Y-40131716D01*
X25670640Y-40129000D01*
X26179360Y-40129000D01*
X26206938Y-40131716D01*
G37*
G36*
X43606938Y-40116716D02*
G01*
X43627557Y-40122971D01*
X43646553Y-40133124D01*
X43663208Y-40146792D01*
X43676876Y-40163447D01*
X43687029Y-40182443D01*
X43693284Y-40203062D01*
X43696000Y-40230640D01*
X43696000Y-40689360D01*
X43693284Y-40716938D01*
X43687029Y-40737557D01*
X43676876Y-40756553D01*
X43663208Y-40773208D01*
X43646553Y-40786876D01*
X43627557Y-40797029D01*
X43606938Y-40803284D01*
X43579360Y-40806000D01*
X43070640Y-40806000D01*
X43043062Y-40803284D01*
X43022443Y-40797029D01*
X43003447Y-40786876D01*
X42986792Y-40773208D01*
X42973124Y-40756553D01*
X42962971Y-40737557D01*
X42956716Y-40716938D01*
X42954000Y-40689360D01*
X42954000Y-40230640D01*
X42956716Y-40203062D01*
X42962971Y-40182443D01*
X42973124Y-40163447D01*
X42986792Y-40146792D01*
X43003447Y-40133124D01*
X43022443Y-40122971D01*
X43043062Y-40116716D01*
X43070640Y-40114000D01*
X43579360Y-40114000D01*
X43606938Y-40116716D01*
G37*
G36*
X49131938Y-40116716D02*
G01*
X49152557Y-40122971D01*
X49171553Y-40133124D01*
X49188208Y-40146792D01*
X49201876Y-40163447D01*
X49212029Y-40182443D01*
X49218284Y-40203062D01*
X49221000Y-40230640D01*
X49221000Y-40689360D01*
X49218284Y-40716938D01*
X49212029Y-40737557D01*
X49201876Y-40756553D01*
X49188208Y-40773208D01*
X49171553Y-40786876D01*
X49152557Y-40797029D01*
X49131938Y-40803284D01*
X49104360Y-40806000D01*
X48595640Y-40806000D01*
X48568062Y-40803284D01*
X48547443Y-40797029D01*
X48528447Y-40786876D01*
X48511792Y-40773208D01*
X48498124Y-40756553D01*
X48487971Y-40737557D01*
X48481716Y-40716938D01*
X48479000Y-40689360D01*
X48479000Y-40230640D01*
X48481716Y-40203062D01*
X48487971Y-40182443D01*
X48498124Y-40163447D01*
X48511792Y-40146792D01*
X48528447Y-40133124D01*
X48547443Y-40122971D01*
X48568062Y-40116716D01*
X48595640Y-40114000D01*
X49104360Y-40114000D01*
X49131938Y-40116716D01*
G37*
G36*
X27880721Y-38420174D02*
G01*
X27980995Y-38461709D01*
X28020653Y-38488208D01*
X28071242Y-38522010D01*
X28147990Y-38598758D01*
X28163665Y-38622218D01*
X28208291Y-38689005D01*
X28239516Y-38764389D01*
X28251067Y-38786000D01*
X28266612Y-38804941D01*
X28285554Y-38820487D01*
X28307165Y-38832038D01*
X28330614Y-38839151D01*
X28355000Y-38841553D01*
X28379386Y-38839151D01*
X28402835Y-38832038D01*
X28424446Y-38820487D01*
X28443387Y-38804942D01*
X28458933Y-38786000D01*
X28470484Y-38764389D01*
X28501709Y-38689005D01*
X28546335Y-38622218D01*
X28562010Y-38598758D01*
X28638758Y-38522010D01*
X28689347Y-38488208D01*
X28729005Y-38461709D01*
X28829279Y-38420174D01*
X28935730Y-38399000D01*
X29044270Y-38399000D01*
X29150721Y-38420174D01*
X29250995Y-38461709D01*
X29290653Y-38488208D01*
X29341242Y-38522010D01*
X29417990Y-38598758D01*
X29433665Y-38622218D01*
X29478291Y-38689005D01*
X29509516Y-38764389D01*
X29521067Y-38786000D01*
X29536612Y-38804941D01*
X29555554Y-38820487D01*
X29577165Y-38832038D01*
X29600614Y-38839151D01*
X29625000Y-38841553D01*
X29649386Y-38839151D01*
X29672835Y-38832038D01*
X29694446Y-38820487D01*
X29713387Y-38804942D01*
X29728933Y-38786000D01*
X29740484Y-38764389D01*
X29771709Y-38689005D01*
X29816335Y-38622218D01*
X29832010Y-38598758D01*
X29908758Y-38522010D01*
X29959347Y-38488208D01*
X29999005Y-38461709D01*
X30099279Y-38420174D01*
X30205730Y-38399000D01*
X30314270Y-38399000D01*
X30420721Y-38420174D01*
X30520995Y-38461709D01*
X30560653Y-38488208D01*
X30611242Y-38522010D01*
X30687990Y-38598758D01*
X30703665Y-38622218D01*
X30748291Y-38689005D01*
X30779516Y-38764389D01*
X30791067Y-38786000D01*
X30806612Y-38804941D01*
X30825554Y-38820487D01*
X30847165Y-38832038D01*
X30870614Y-38839151D01*
X30895000Y-38841553D01*
X30919386Y-38839151D01*
X30942835Y-38832038D01*
X30964446Y-38820487D01*
X30983387Y-38804942D01*
X30998933Y-38786000D01*
X31010484Y-38764389D01*
X31041709Y-38689005D01*
X31086335Y-38622218D01*
X31102010Y-38598758D01*
X31178758Y-38522010D01*
X31229347Y-38488208D01*
X31269005Y-38461709D01*
X31369279Y-38420174D01*
X31475730Y-38399000D01*
X31584270Y-38399000D01*
X31690721Y-38420174D01*
X31790995Y-38461709D01*
X31830653Y-38488208D01*
X31881242Y-38522010D01*
X31957990Y-38598758D01*
X31973665Y-38622218D01*
X32020068Y-38691664D01*
X32035614Y-38710606D01*
X32054556Y-38726151D01*
X32076167Y-38737702D01*
X32099615Y-38744815D01*
X32124002Y-38747217D01*
X32148388Y-38744815D01*
X32171837Y-38737702D01*
X32193447Y-38726151D01*
X32212389Y-38710605D01*
X32227934Y-38691663D01*
X32239485Y-38670052D01*
X32246598Y-38646604D01*
X32249000Y-38622218D01*
X32249000Y-38399000D01*
X33351000Y-38399000D01*
X33351000Y-39501000D01*
X33127782Y-39501000D01*
X33103396Y-39503402D01*
X33079947Y-39510515D01*
X33058336Y-39522066D01*
X33039394Y-39537611D01*
X33023849Y-39556553D01*
X33012298Y-39578164D01*
X33005185Y-39601613D01*
X33002783Y-39625999D01*
X33005185Y-39650385D01*
X33012298Y-39673834D01*
X33023849Y-39695445D01*
X33039394Y-39714387D01*
X33058336Y-39729932D01*
X33106236Y-39761938D01*
X33151242Y-39792010D01*
X33227990Y-39868758D01*
X33227991Y-39868760D01*
X33288291Y-39959005D01*
X33329826Y-40059279D01*
X33351000Y-40165730D01*
X33351000Y-40274270D01*
X33329826Y-40380721D01*
X33288291Y-40480995D01*
X33288290Y-40480996D01*
X33227990Y-40571242D01*
X33151242Y-40647990D01*
X33151227Y-40648000D01*
X33060995Y-40708291D01*
X32960721Y-40749826D01*
X32854270Y-40771000D01*
X32745730Y-40771000D01*
X32639279Y-40749826D01*
X32539005Y-40708291D01*
X32448773Y-40648000D01*
X32448758Y-40647990D01*
X32372010Y-40571242D01*
X32311710Y-40480996D01*
X32311709Y-40480995D01*
X32280484Y-40405611D01*
X32268933Y-40384000D01*
X32253388Y-40365059D01*
X32234446Y-40349513D01*
X32212835Y-40337962D01*
X32189386Y-40330849D01*
X32165000Y-40328447D01*
X32140614Y-40330849D01*
X32117165Y-40337962D01*
X32095554Y-40349513D01*
X32076613Y-40365058D01*
X32061067Y-40384000D01*
X32049516Y-40405611D01*
X32018291Y-40480995D01*
X32018290Y-40480996D01*
X31957990Y-40571242D01*
X31881242Y-40647990D01*
X31881227Y-40648000D01*
X31790995Y-40708291D01*
X31690721Y-40749826D01*
X31584270Y-40771000D01*
X31475730Y-40771000D01*
X31369279Y-40749826D01*
X31269005Y-40708291D01*
X31178773Y-40648000D01*
X31178758Y-40647990D01*
X31102010Y-40571242D01*
X31041710Y-40480996D01*
X31041709Y-40480995D01*
X31010484Y-40405611D01*
X30998933Y-40384000D01*
X30983388Y-40365059D01*
X30964446Y-40349513D01*
X30942835Y-40337962D01*
X30919386Y-40330849D01*
X30895000Y-40328447D01*
X30870614Y-40330849D01*
X30847165Y-40337962D01*
X30825554Y-40349513D01*
X30806613Y-40365058D01*
X30791067Y-40384000D01*
X30779516Y-40405611D01*
X30748291Y-40480995D01*
X30748290Y-40480996D01*
X30687990Y-40571242D01*
X30611242Y-40647990D01*
X30611227Y-40648000D01*
X30520995Y-40708291D01*
X30420721Y-40749826D01*
X30314270Y-40771000D01*
X30205730Y-40771000D01*
X30099279Y-40749826D01*
X29999005Y-40708291D01*
X29908773Y-40648000D01*
X29908758Y-40647990D01*
X29832010Y-40571242D01*
X29771710Y-40480996D01*
X29771709Y-40480995D01*
X29740484Y-40405611D01*
X29728933Y-40384000D01*
X29713388Y-40365059D01*
X29694446Y-40349513D01*
X29672835Y-40337962D01*
X29649386Y-40330849D01*
X29625000Y-40328447D01*
X29600614Y-40330849D01*
X29577165Y-40337962D01*
X29555554Y-40349513D01*
X29536613Y-40365058D01*
X29521067Y-40384000D01*
X29509516Y-40405611D01*
X29478291Y-40480995D01*
X29478290Y-40480996D01*
X29417990Y-40571242D01*
X29341242Y-40647990D01*
X29341227Y-40648000D01*
X29250995Y-40708291D01*
X29150721Y-40749826D01*
X29044270Y-40771000D01*
X28935730Y-40771000D01*
X28829279Y-40749826D01*
X28729005Y-40708291D01*
X28638773Y-40648000D01*
X28638758Y-40647990D01*
X28562010Y-40571242D01*
X28501710Y-40480996D01*
X28501709Y-40480995D01*
X28470484Y-40405611D01*
X28458933Y-40384000D01*
X28443388Y-40365059D01*
X28424446Y-40349513D01*
X28402835Y-40337962D01*
X28379386Y-40330849D01*
X28355000Y-40328447D01*
X28330614Y-40330849D01*
X28307165Y-40337962D01*
X28285554Y-40349513D01*
X28266613Y-40365058D01*
X28251067Y-40384000D01*
X28239516Y-40405611D01*
X28208291Y-40480995D01*
X28208290Y-40480996D01*
X28147990Y-40571242D01*
X28071242Y-40647990D01*
X28071227Y-40648000D01*
X27980995Y-40708291D01*
X27880721Y-40749826D01*
X27774270Y-40771000D01*
X27665730Y-40771000D01*
X27559279Y-40749826D01*
X27459005Y-40708291D01*
X27368773Y-40648000D01*
X27368758Y-40647990D01*
X27292010Y-40571242D01*
X27231710Y-40480996D01*
X27231709Y-40480995D01*
X27190174Y-40380721D01*
X27169000Y-40274270D01*
X27169000Y-40165730D01*
X27190174Y-40059279D01*
X27231709Y-39959005D01*
X27292009Y-39868760D01*
X27292010Y-39868758D01*
X27368758Y-39792010D01*
X27417991Y-39759114D01*
X27459005Y-39731709D01*
X27534389Y-39700484D01*
X27556000Y-39688933D01*
X27574941Y-39673388D01*
X27590487Y-39654446D01*
X27602038Y-39632835D01*
X27609151Y-39609386D01*
X27611553Y-39585000D01*
X27828447Y-39585000D01*
X27830849Y-39609386D01*
X27837962Y-39632835D01*
X27849513Y-39654446D01*
X27865058Y-39673387D01*
X27884000Y-39688933D01*
X27905611Y-39700484D01*
X27980995Y-39731709D01*
X28022009Y-39759114D01*
X28071242Y-39792010D01*
X28147990Y-39868758D01*
X28147991Y-39868760D01*
X28208291Y-39959005D01*
X28239516Y-40034389D01*
X28251067Y-40056000D01*
X28266612Y-40074941D01*
X28285554Y-40090487D01*
X28307165Y-40102038D01*
X28330614Y-40109151D01*
X28355000Y-40111553D01*
X28379386Y-40109151D01*
X28402835Y-40102038D01*
X28424446Y-40090487D01*
X28443387Y-40074942D01*
X28458933Y-40056000D01*
X28470484Y-40034389D01*
X28501709Y-39959005D01*
X28562009Y-39868760D01*
X28562010Y-39868758D01*
X28638758Y-39792010D01*
X28687991Y-39759114D01*
X28729005Y-39731709D01*
X28804389Y-39700484D01*
X28826000Y-39688933D01*
X28844941Y-39673388D01*
X28860487Y-39654446D01*
X28872038Y-39632835D01*
X28879151Y-39609386D01*
X28881553Y-39585000D01*
X29098447Y-39585000D01*
X29100849Y-39609386D01*
X29107962Y-39632835D01*
X29119513Y-39654446D01*
X29135058Y-39673387D01*
X29154000Y-39688933D01*
X29175611Y-39700484D01*
X29250995Y-39731709D01*
X29292009Y-39759114D01*
X29341242Y-39792010D01*
X29417990Y-39868758D01*
X29417991Y-39868760D01*
X29478291Y-39959005D01*
X29509516Y-40034389D01*
X29521067Y-40056000D01*
X29536612Y-40074941D01*
X29555554Y-40090487D01*
X29577165Y-40102038D01*
X29600614Y-40109151D01*
X29625000Y-40111553D01*
X29649386Y-40109151D01*
X29672835Y-40102038D01*
X29694446Y-40090487D01*
X29713387Y-40074942D01*
X29728933Y-40056000D01*
X29740484Y-40034389D01*
X29771709Y-39959005D01*
X29832009Y-39868760D01*
X29832010Y-39868758D01*
X29908758Y-39792010D01*
X29957991Y-39759114D01*
X29999005Y-39731709D01*
X30074389Y-39700484D01*
X30096000Y-39688933D01*
X30114941Y-39673388D01*
X30130487Y-39654446D01*
X30142038Y-39632835D01*
X30149151Y-39609386D01*
X30151553Y-39585000D01*
X30368447Y-39585000D01*
X30370849Y-39609386D01*
X30377962Y-39632835D01*
X30389513Y-39654446D01*
X30405058Y-39673387D01*
X30424000Y-39688933D01*
X30445611Y-39700484D01*
X30520995Y-39731709D01*
X30562009Y-39759114D01*
X30611242Y-39792010D01*
X30687990Y-39868758D01*
X30687991Y-39868760D01*
X30748291Y-39959005D01*
X30779516Y-40034389D01*
X30791067Y-40056000D01*
X30806612Y-40074941D01*
X30825554Y-40090487D01*
X30847165Y-40102038D01*
X30870614Y-40109151D01*
X30895000Y-40111553D01*
X30919386Y-40109151D01*
X30942835Y-40102038D01*
X30964446Y-40090487D01*
X30983387Y-40074942D01*
X30998933Y-40056000D01*
X31010484Y-40034389D01*
X31041709Y-39959005D01*
X31102009Y-39868760D01*
X31102010Y-39868758D01*
X31178758Y-39792010D01*
X31227991Y-39759114D01*
X31269005Y-39731709D01*
X31344389Y-39700484D01*
X31366000Y-39688933D01*
X31384941Y-39673388D01*
X31400487Y-39654446D01*
X31412038Y-39632835D01*
X31419151Y-39609386D01*
X31421553Y-39585000D01*
X31638447Y-39585000D01*
X31640849Y-39609386D01*
X31647962Y-39632835D01*
X31659513Y-39654446D01*
X31675058Y-39673387D01*
X31694000Y-39688933D01*
X31715611Y-39700484D01*
X31790995Y-39731709D01*
X31832009Y-39759114D01*
X31881242Y-39792010D01*
X31957990Y-39868758D01*
X31957991Y-39868760D01*
X32018291Y-39959005D01*
X32049516Y-40034389D01*
X32061067Y-40056000D01*
X32076612Y-40074941D01*
X32095554Y-40090487D01*
X32117165Y-40102038D01*
X32140614Y-40109151D01*
X32165000Y-40111553D01*
X32189386Y-40109151D01*
X32212835Y-40102038D01*
X32234446Y-40090487D01*
X32253387Y-40074942D01*
X32268933Y-40056000D01*
X32280484Y-40034389D01*
X32311709Y-39959005D01*
X32372009Y-39868760D01*
X32372010Y-39868758D01*
X32448758Y-39792010D01*
X32493764Y-39761938D01*
X32541664Y-39729932D01*
X32560606Y-39714386D01*
X32576151Y-39695444D01*
X32587702Y-39673833D01*
X32594815Y-39650385D01*
X32597217Y-39625998D01*
X32594815Y-39601612D01*
X32587702Y-39578163D01*
X32576151Y-39556553D01*
X32560605Y-39537611D01*
X32541663Y-39522066D01*
X32520052Y-39510515D01*
X32496604Y-39503402D01*
X32472218Y-39501000D01*
X32249000Y-39501000D01*
X32249000Y-39277782D01*
X32246598Y-39253396D01*
X32239485Y-39229947D01*
X32227934Y-39208336D01*
X32212389Y-39189394D01*
X32193447Y-39173849D01*
X32171836Y-39162298D01*
X32148387Y-39155185D01*
X32124001Y-39152783D01*
X32099615Y-39155185D01*
X32076166Y-39162298D01*
X32054555Y-39173849D01*
X32035613Y-39189394D01*
X32020068Y-39208336D01*
X31985119Y-39260640D01*
X31957990Y-39301242D01*
X31881242Y-39377990D01*
X31835812Y-39408345D01*
X31790995Y-39438291D01*
X31715611Y-39469516D01*
X31694000Y-39481067D01*
X31675059Y-39496612D01*
X31659513Y-39515554D01*
X31647962Y-39537165D01*
X31640849Y-39560614D01*
X31638447Y-39585000D01*
X31421553Y-39585000D01*
X31419151Y-39560614D01*
X31412038Y-39537165D01*
X31400487Y-39515554D01*
X31384942Y-39496613D01*
X31366000Y-39481067D01*
X31344389Y-39469516D01*
X31269005Y-39438291D01*
X31224188Y-39408345D01*
X31178758Y-39377990D01*
X31102010Y-39301242D01*
X31068303Y-39250796D01*
X31041709Y-39210995D01*
X31010484Y-39135611D01*
X30998933Y-39114000D01*
X30983388Y-39095059D01*
X30964446Y-39079513D01*
X30942835Y-39067962D01*
X30919386Y-39060849D01*
X30895000Y-39058447D01*
X30870614Y-39060849D01*
X30847165Y-39067962D01*
X30825554Y-39079513D01*
X30806613Y-39095058D01*
X30791067Y-39114000D01*
X30779516Y-39135611D01*
X30748291Y-39210995D01*
X30721697Y-39250796D01*
X30687990Y-39301242D01*
X30611242Y-39377990D01*
X30565812Y-39408345D01*
X30520995Y-39438291D01*
X30445611Y-39469516D01*
X30424000Y-39481067D01*
X30405059Y-39496612D01*
X30389513Y-39515554D01*
X30377962Y-39537165D01*
X30370849Y-39560614D01*
X30368447Y-39585000D01*
X30151553Y-39585000D01*
X30149151Y-39560614D01*
X30142038Y-39537165D01*
X30130487Y-39515554D01*
X30114942Y-39496613D01*
X30096000Y-39481067D01*
X30074389Y-39469516D01*
X29999005Y-39438291D01*
X29954188Y-39408345D01*
X29908758Y-39377990D01*
X29832010Y-39301242D01*
X29798303Y-39250796D01*
X29771709Y-39210995D01*
X29740484Y-39135611D01*
X29728933Y-39114000D01*
X29713388Y-39095059D01*
X29694446Y-39079513D01*
X29672835Y-39067962D01*
X29649386Y-39060849D01*
X29625000Y-39058447D01*
X29600614Y-39060849D01*
X29577165Y-39067962D01*
X29555554Y-39079513D01*
X29536613Y-39095058D01*
X29521067Y-39114000D01*
X29509516Y-39135611D01*
X29478291Y-39210995D01*
X29451697Y-39250796D01*
X29417990Y-39301242D01*
X29341242Y-39377990D01*
X29295812Y-39408345D01*
X29250995Y-39438291D01*
X29175611Y-39469516D01*
X29154000Y-39481067D01*
X29135059Y-39496612D01*
X29119513Y-39515554D01*
X29107962Y-39537165D01*
X29100849Y-39560614D01*
X29098447Y-39585000D01*
X28881553Y-39585000D01*
X28879151Y-39560614D01*
X28872038Y-39537165D01*
X28860487Y-39515554D01*
X28844942Y-39496613D01*
X28826000Y-39481067D01*
X28804389Y-39469516D01*
X28729005Y-39438291D01*
X28684188Y-39408345D01*
X28638758Y-39377990D01*
X28562010Y-39301242D01*
X28528303Y-39250796D01*
X28501709Y-39210995D01*
X28470484Y-39135611D01*
X28458933Y-39114000D01*
X28443388Y-39095059D01*
X28424446Y-39079513D01*
X28402835Y-39067962D01*
X28379386Y-39060849D01*
X28355000Y-39058447D01*
X28330614Y-39060849D01*
X28307165Y-39067962D01*
X28285554Y-39079513D01*
X28266613Y-39095058D01*
X28251067Y-39114000D01*
X28239516Y-39135611D01*
X28208291Y-39210995D01*
X28181697Y-39250796D01*
X28147990Y-39301242D01*
X28071242Y-39377990D01*
X28025812Y-39408345D01*
X27980995Y-39438291D01*
X27905611Y-39469516D01*
X27884000Y-39481067D01*
X27865059Y-39496612D01*
X27849513Y-39515554D01*
X27837962Y-39537165D01*
X27830849Y-39560614D01*
X27828447Y-39585000D01*
X27611553Y-39585000D01*
X27609151Y-39560614D01*
X27602038Y-39537165D01*
X27590487Y-39515554D01*
X27574942Y-39496613D01*
X27556000Y-39481067D01*
X27534389Y-39469516D01*
X27459005Y-39438291D01*
X27414188Y-39408345D01*
X27368758Y-39377990D01*
X27292010Y-39301242D01*
X27258303Y-39250796D01*
X27231709Y-39210995D01*
X27190174Y-39110721D01*
X27169000Y-39004270D01*
X27169000Y-38895730D01*
X27190174Y-38789279D01*
X27231709Y-38689005D01*
X27276335Y-38622218D01*
X27292010Y-38598758D01*
X27368758Y-38522010D01*
X27419347Y-38488208D01*
X27459005Y-38461709D01*
X27559279Y-38420174D01*
X27665730Y-38399000D01*
X27774270Y-38399000D01*
X27880721Y-38420174D01*
G37*
G36*
X26206938Y-39161716D02*
G01*
X26227557Y-39167971D01*
X26246553Y-39178124D01*
X26263208Y-39191792D01*
X26276876Y-39208447D01*
X26287029Y-39227443D01*
X26293284Y-39248062D01*
X26296000Y-39275640D01*
X26296000Y-39734360D01*
X26293284Y-39761938D01*
X26287029Y-39782557D01*
X26276876Y-39801553D01*
X26263208Y-39818208D01*
X26246553Y-39831876D01*
X26227557Y-39842029D01*
X26206938Y-39848284D01*
X26179360Y-39851000D01*
X25670640Y-39851000D01*
X25643062Y-39848284D01*
X25622443Y-39842029D01*
X25603447Y-39831876D01*
X25586792Y-39818208D01*
X25573124Y-39801553D01*
X25562971Y-39782557D01*
X25556716Y-39761938D01*
X25554000Y-39734360D01*
X25554000Y-39275640D01*
X25556716Y-39248062D01*
X25562971Y-39227443D01*
X25573124Y-39208447D01*
X25586792Y-39191792D01*
X25603447Y-39178124D01*
X25622443Y-39167971D01*
X25643062Y-39161716D01*
X25670640Y-39159000D01*
X26179360Y-39159000D01*
X26206938Y-39161716D01*
G37*
G36*
X43606938Y-39146716D02*
G01*
X43627557Y-39152971D01*
X43646553Y-39163124D01*
X43663208Y-39176792D01*
X43676876Y-39193447D01*
X43687029Y-39212443D01*
X43693284Y-39233062D01*
X43696000Y-39260640D01*
X43696000Y-39719360D01*
X43693284Y-39746938D01*
X43687029Y-39767557D01*
X43676876Y-39786553D01*
X43663208Y-39803208D01*
X43646553Y-39816876D01*
X43627557Y-39827029D01*
X43606938Y-39833284D01*
X43579360Y-39836000D01*
X43070640Y-39836000D01*
X43043062Y-39833284D01*
X43022443Y-39827029D01*
X43003447Y-39816876D01*
X42986792Y-39803208D01*
X42973124Y-39786553D01*
X42962971Y-39767557D01*
X42956716Y-39746938D01*
X42954000Y-39719360D01*
X42954000Y-39260640D01*
X42956716Y-39233062D01*
X42962971Y-39212443D01*
X42973124Y-39193447D01*
X42986792Y-39176792D01*
X43003447Y-39163124D01*
X43022443Y-39152971D01*
X43043062Y-39146716D01*
X43070640Y-39144000D01*
X43579360Y-39144000D01*
X43606938Y-39146716D01*
G37*
G36*
X49131938Y-39146716D02*
G01*
X49152557Y-39152971D01*
X49171553Y-39163124D01*
X49188208Y-39176792D01*
X49201876Y-39193447D01*
X49212029Y-39212443D01*
X49218284Y-39233062D01*
X49221000Y-39260640D01*
X49221000Y-39719360D01*
X49218284Y-39746938D01*
X49212029Y-39767557D01*
X49201876Y-39786553D01*
X49188208Y-39803208D01*
X49171553Y-39816876D01*
X49152557Y-39827029D01*
X49131938Y-39833284D01*
X49104360Y-39836000D01*
X48595640Y-39836000D01*
X48568062Y-39833284D01*
X48547443Y-39827029D01*
X48528447Y-39816876D01*
X48511792Y-39803208D01*
X48498124Y-39786553D01*
X48487971Y-39767557D01*
X48481716Y-39746938D01*
X48479000Y-39719360D01*
X48479000Y-39260640D01*
X48481716Y-39233062D01*
X48487971Y-39212443D01*
X48498124Y-39193447D01*
X48511792Y-39176792D01*
X48528447Y-39163124D01*
X48547443Y-39152971D01*
X48568062Y-39146716D01*
X48595640Y-39144000D01*
X49104360Y-39144000D01*
X49131938Y-39146716D01*
G37*
G36*
X47951000Y-39776000D02*
G01*
X46449000Y-39776000D01*
X46449000Y-38474000D01*
X47951000Y-38474000D01*
X47951000Y-39776000D01*
G37*
G36*
X45751000Y-39776000D02*
G01*
X44249000Y-39776000D01*
X44249000Y-38474000D01*
X45751000Y-38474000D01*
X45751000Y-39776000D01*
G37*
G36*
X23713500Y-37961886D02*
G01*
X23714102Y-37974138D01*
X23716649Y-38000000D01*
X23714102Y-38025862D01*
X23713500Y-38038114D01*
X23713500Y-38111406D01*
X23704543Y-38128164D01*
X23700415Y-38139701D01*
X23674632Y-38224693D01*
X23666854Y-38250336D01*
X23606406Y-38363425D01*
X23525054Y-38462554D01*
X23425925Y-38543906D01*
X23312836Y-38604354D01*
X23280904Y-38614040D01*
X23190118Y-38641580D01*
X23139107Y-38646604D01*
X23094474Y-38651000D01*
X22330526Y-38651000D01*
X22285893Y-38646604D01*
X22234882Y-38641580D01*
X22144096Y-38614040D01*
X22112164Y-38604354D01*
X21999075Y-38543906D01*
X21899946Y-38462554D01*
X21818594Y-38363425D01*
X21758146Y-38250336D01*
X21750368Y-38224693D01*
X21724587Y-38139708D01*
X21715213Y-38117075D01*
X21711500Y-38111518D01*
X21711500Y-38038114D01*
X21710898Y-38025862D01*
X21708351Y-38000000D01*
X21710898Y-37974138D01*
X21711500Y-37961886D01*
X21711500Y-36749000D01*
X23713500Y-36749000D01*
X23713500Y-37961886D01*
G37*
G36*
X35971938Y-37781716D02*
G01*
X35992557Y-37787971D01*
X36011553Y-37798124D01*
X36028208Y-37811792D01*
X36041876Y-37828447D01*
X36052029Y-37847443D01*
X36058284Y-37868062D01*
X36061000Y-37895640D01*
X36061000Y-38404360D01*
X36058284Y-38431938D01*
X36052029Y-38452557D01*
X36041876Y-38471553D01*
X36028208Y-38488208D01*
X36011553Y-38501876D01*
X35992557Y-38512029D01*
X35971938Y-38518284D01*
X35944360Y-38521000D01*
X35485640Y-38521000D01*
X35458062Y-38518284D01*
X35437443Y-38512029D01*
X35418447Y-38501876D01*
X35401792Y-38488208D01*
X35388124Y-38471553D01*
X35377971Y-38452557D01*
X35371716Y-38431938D01*
X35369000Y-38404360D01*
X35369000Y-37895640D01*
X35371716Y-37868062D01*
X35377971Y-37847443D01*
X35388124Y-37828447D01*
X35401792Y-37811792D01*
X35418447Y-37798124D01*
X35437443Y-37787971D01*
X35458062Y-37781716D01*
X35485640Y-37779000D01*
X35944360Y-37779000D01*
X35971938Y-37781716D01*
G37*
G36*
X36941938Y-37781716D02*
G01*
X36962557Y-37787971D01*
X36981553Y-37798124D01*
X36998208Y-37811792D01*
X37011876Y-37828447D01*
X37022029Y-37847443D01*
X37028284Y-37868062D01*
X37031000Y-37895640D01*
X37031000Y-38404360D01*
X37028284Y-38431938D01*
X37022029Y-38452557D01*
X37011876Y-38471553D01*
X36998208Y-38488208D01*
X36981553Y-38501876D01*
X36962557Y-38512029D01*
X36941938Y-38518284D01*
X36914360Y-38521000D01*
X36455640Y-38521000D01*
X36428062Y-38518284D01*
X36407443Y-38512029D01*
X36388447Y-38501876D01*
X36371792Y-38488208D01*
X36358124Y-38471553D01*
X36347971Y-38452557D01*
X36341716Y-38431938D01*
X36339000Y-38404360D01*
X36339000Y-37895640D01*
X36341716Y-37868062D01*
X36347971Y-37847443D01*
X36358124Y-37828447D01*
X36371792Y-37811792D01*
X36388447Y-37798124D01*
X36407443Y-37787971D01*
X36428062Y-37781716D01*
X36455640Y-37779000D01*
X36914360Y-37779000D01*
X36941938Y-37781716D01*
G37*
G36*
X59751000Y-38051000D02*
G01*
X55449000Y-38051000D01*
X55449000Y-36599000D01*
X59751000Y-36599000D01*
X59751000Y-38051000D01*
G37*
G36*
X47816938Y-37206716D02*
G01*
X47837557Y-37212971D01*
X47856553Y-37223124D01*
X47873208Y-37236792D01*
X47886876Y-37253447D01*
X47897029Y-37272443D01*
X47903284Y-37293062D01*
X47906000Y-37320640D01*
X47906000Y-37829360D01*
X47903284Y-37856938D01*
X47897029Y-37877557D01*
X47886876Y-37896553D01*
X47873208Y-37913208D01*
X47856553Y-37926876D01*
X47837557Y-37937029D01*
X47816938Y-37943284D01*
X47789360Y-37946000D01*
X47330640Y-37946000D01*
X47303062Y-37943284D01*
X47282443Y-37937029D01*
X47263447Y-37926876D01*
X47246792Y-37913208D01*
X47233124Y-37896553D01*
X47222971Y-37877557D01*
X47216716Y-37856938D01*
X47214000Y-37829360D01*
X47214000Y-37320640D01*
X47216716Y-37293062D01*
X47222971Y-37272443D01*
X47233124Y-37253447D01*
X47246792Y-37236792D01*
X47263447Y-37223124D01*
X47282443Y-37212971D01*
X47303062Y-37206716D01*
X47330640Y-37204000D01*
X47789360Y-37204000D01*
X47816938Y-37206716D01*
G37*
G36*
X46846938Y-37206716D02*
G01*
X46867557Y-37212971D01*
X46886553Y-37223124D01*
X46903208Y-37236792D01*
X46916876Y-37253447D01*
X46927029Y-37272443D01*
X46933284Y-37293062D01*
X46936000Y-37320640D01*
X46936000Y-37829360D01*
X46933284Y-37856938D01*
X46927029Y-37877557D01*
X46916876Y-37896553D01*
X46903208Y-37913208D01*
X46886553Y-37926876D01*
X46867557Y-37937029D01*
X46846938Y-37943284D01*
X46819360Y-37946000D01*
X46360640Y-37946000D01*
X46333062Y-37943284D01*
X46312443Y-37937029D01*
X46293447Y-37926876D01*
X46276792Y-37913208D01*
X46263124Y-37896553D01*
X46252971Y-37877557D01*
X46246716Y-37856938D01*
X46244000Y-37829360D01*
X46244000Y-37320640D01*
X46246716Y-37293062D01*
X46252971Y-37272443D01*
X46263124Y-37253447D01*
X46276792Y-37236792D01*
X46293447Y-37223124D01*
X46312443Y-37212971D01*
X46333062Y-37206716D01*
X46360640Y-37204000D01*
X46819360Y-37204000D01*
X46846938Y-37206716D01*
G37*
G36*
X44086938Y-37181716D02*
G01*
X44107557Y-37187971D01*
X44126553Y-37198124D01*
X44143208Y-37211792D01*
X44156876Y-37228447D01*
X44167029Y-37247443D01*
X44173284Y-37268062D01*
X44176000Y-37295640D01*
X44176000Y-37804360D01*
X44173284Y-37831938D01*
X44167029Y-37852557D01*
X44156876Y-37871553D01*
X44143208Y-37888208D01*
X44126553Y-37901876D01*
X44107557Y-37912029D01*
X44086938Y-37918284D01*
X44059360Y-37921000D01*
X43600640Y-37921000D01*
X43573062Y-37918284D01*
X43552443Y-37912029D01*
X43533447Y-37901876D01*
X43516792Y-37888208D01*
X43503124Y-37871553D01*
X43492971Y-37852557D01*
X43486716Y-37831938D01*
X43484000Y-37804360D01*
X43484000Y-37295640D01*
X43486716Y-37268062D01*
X43492971Y-37247443D01*
X43503124Y-37228447D01*
X43516792Y-37211792D01*
X43533447Y-37198124D01*
X43552443Y-37187971D01*
X43573062Y-37181716D01*
X43600640Y-37179000D01*
X44059360Y-37179000D01*
X44086938Y-37181716D01*
G37*
G36*
X45056938Y-37181716D02*
G01*
X45077557Y-37187971D01*
X45096553Y-37198124D01*
X45113208Y-37211792D01*
X45126876Y-37228447D01*
X45137029Y-37247443D01*
X45143284Y-37268062D01*
X45146000Y-37295640D01*
X45146000Y-37804360D01*
X45143284Y-37831938D01*
X45137029Y-37852557D01*
X45126876Y-37871553D01*
X45113208Y-37888208D01*
X45096553Y-37901876D01*
X45077557Y-37912029D01*
X45056938Y-37918284D01*
X45029360Y-37921000D01*
X44570640Y-37921000D01*
X44543062Y-37918284D01*
X44522443Y-37912029D01*
X44503447Y-37901876D01*
X44486792Y-37888208D01*
X44473124Y-37871553D01*
X44462971Y-37852557D01*
X44456716Y-37831938D01*
X44454000Y-37804360D01*
X44454000Y-37295640D01*
X44456716Y-37268062D01*
X44462971Y-37247443D01*
X44473124Y-37228447D01*
X44486792Y-37211792D01*
X44503447Y-37198124D01*
X44522443Y-37187971D01*
X44543062Y-37181716D01*
X44570640Y-37179000D01*
X45029360Y-37179000D01*
X45056938Y-37181716D01*
G37*
G36*
X25638848Y-31253820D02*
G01*
X25638850Y-31253821D01*
X25638851Y-31253821D01*
X25780074Y-31312317D01*
X25780077Y-31312319D01*
X25907169Y-31397239D01*
X26015261Y-31505331D01*
X26091768Y-31619832D01*
X26100183Y-31632426D01*
X26157537Y-31770893D01*
X26158680Y-31773652D01*
X26185260Y-31907280D01*
X26188500Y-31923571D01*
X26188500Y-32076429D01*
X26158679Y-32226351D01*
X26100183Y-32367574D01*
X26100181Y-32367577D01*
X26015261Y-32494669D01*
X25907169Y-32602761D01*
X25832814Y-32652443D01*
X25780074Y-32687683D01*
X25729772Y-32708519D01*
X25708164Y-32720068D01*
X25689222Y-32735614D01*
X25673677Y-32754556D01*
X25662126Y-32776166D01*
X25655013Y-32799615D01*
X25652611Y-32824001D01*
X25655013Y-32848387D01*
X25662126Y-32871836D01*
X25673677Y-32893447D01*
X25689223Y-32912389D01*
X25708165Y-32927934D01*
X25729775Y-32939485D01*
X25753224Y-32946598D01*
X25777610Y-32949000D01*
X26138500Y-32949000D01*
X26138500Y-36051000D01*
X25777610Y-36051000D01*
X25753224Y-36053402D01*
X25729775Y-36060515D01*
X25708164Y-36072066D01*
X25689222Y-36087611D01*
X25673677Y-36106553D01*
X25662126Y-36128164D01*
X25655013Y-36151613D01*
X25652611Y-36175999D01*
X25655013Y-36200385D01*
X25662126Y-36223834D01*
X25673677Y-36245445D01*
X25689222Y-36264387D01*
X25708164Y-36279932D01*
X25729772Y-36291481D01*
X25780074Y-36312317D01*
X25780075Y-36312318D01*
X25907169Y-36397239D01*
X26015261Y-36505331D01*
X26090585Y-36618062D01*
X26100183Y-36632426D01*
X26105656Y-36645640D01*
X26158680Y-36773652D01*
X26188500Y-36923569D01*
X26188500Y-37076431D01*
X26159634Y-37221553D01*
X26158679Y-37226351D01*
X26100183Y-37367574D01*
X26100181Y-37367577D01*
X26015261Y-37494669D01*
X25907169Y-37602761D01*
X25856564Y-37636574D01*
X25780074Y-37687683D01*
X25638851Y-37746179D01*
X25638850Y-37746179D01*
X25638848Y-37746180D01*
X25488931Y-37776000D01*
X25336069Y-37776000D01*
X25186152Y-37746180D01*
X25186150Y-37746179D01*
X25186149Y-37746179D01*
X25044926Y-37687683D01*
X24968436Y-37636574D01*
X24917831Y-37602761D01*
X24809739Y-37494669D01*
X24724819Y-37367577D01*
X24724817Y-37367574D01*
X24666321Y-37226351D01*
X24665367Y-37221553D01*
X24636500Y-37076431D01*
X24636500Y-36923569D01*
X24666320Y-36773652D01*
X24719344Y-36645640D01*
X24724817Y-36632426D01*
X24734415Y-36618062D01*
X24809739Y-36505331D01*
X24917831Y-36397239D01*
X25044925Y-36312318D01*
X25044926Y-36312317D01*
X25095228Y-36291481D01*
X25116836Y-36279932D01*
X25135778Y-36264386D01*
X25151323Y-36245444D01*
X25162874Y-36223834D01*
X25169987Y-36200385D01*
X25172389Y-36175999D01*
X25169987Y-36151613D01*
X25162874Y-36128164D01*
X25151323Y-36106553D01*
X25135777Y-36087611D01*
X25116835Y-36072066D01*
X25095225Y-36060515D01*
X25071776Y-36053402D01*
X25047390Y-36051000D01*
X24686500Y-36051000D01*
X24686500Y-32949000D01*
X25047390Y-32949000D01*
X25071776Y-32946598D01*
X25095225Y-32939485D01*
X25116836Y-32927934D01*
X25135778Y-32912389D01*
X25151323Y-32893447D01*
X25162874Y-32871836D01*
X25169987Y-32848387D01*
X25172389Y-32824001D01*
X25169987Y-32799615D01*
X25162874Y-32776166D01*
X25151323Y-32754555D01*
X25135778Y-32735613D01*
X25116836Y-32720068D01*
X25095228Y-32708519D01*
X25044926Y-32687683D01*
X24992186Y-32652443D01*
X24917831Y-32602761D01*
X24809739Y-32494669D01*
X24724819Y-32367577D01*
X24724817Y-32367574D01*
X24666321Y-32226351D01*
X24636500Y-32076429D01*
X24636500Y-31923571D01*
X24639740Y-31907280D01*
X24666320Y-31773652D01*
X24667463Y-31770893D01*
X24724817Y-31632426D01*
X24733232Y-31619832D01*
X24809739Y-31505331D01*
X24917831Y-31397239D01*
X25044923Y-31312319D01*
X25044926Y-31312317D01*
X25186149Y-31253821D01*
X25186150Y-31253821D01*
X25186152Y-31253820D01*
X25336069Y-31224000D01*
X25488931Y-31224000D01*
X25638848Y-31253820D01*
G37*
G36*
X36630355Y-31550083D02*
G01*
X36635029Y-31551501D01*
X36639330Y-31553800D01*
X36645702Y-31559029D01*
X36666076Y-31572643D01*
X36688715Y-31582020D01*
X36712749Y-31586800D01*
X36737253Y-31586800D01*
X36761286Y-31582019D01*
X36783925Y-31572642D01*
X36804298Y-31559029D01*
X36810670Y-31553800D01*
X36814971Y-31551501D01*
X36819645Y-31550083D01*
X36830641Y-31549000D01*
X37119359Y-31549000D01*
X37130355Y-31550083D01*
X37135029Y-31551501D01*
X37139330Y-31553800D01*
X37145702Y-31559029D01*
X37166076Y-31572643D01*
X37188715Y-31582020D01*
X37212749Y-31586800D01*
X37237253Y-31586800D01*
X37261286Y-31582019D01*
X37283925Y-31572642D01*
X37304298Y-31559029D01*
X37310670Y-31553800D01*
X37314971Y-31551501D01*
X37319645Y-31550083D01*
X37330641Y-31549000D01*
X37619359Y-31549000D01*
X37630355Y-31550083D01*
X37635029Y-31551501D01*
X37639330Y-31553800D01*
X37645702Y-31559029D01*
X37666076Y-31572643D01*
X37688715Y-31582020D01*
X37712749Y-31586800D01*
X37737253Y-31586800D01*
X37761286Y-31582019D01*
X37783925Y-31572642D01*
X37804298Y-31559029D01*
X37810670Y-31553800D01*
X37814971Y-31551501D01*
X37819645Y-31550083D01*
X37830641Y-31549000D01*
X38119359Y-31549000D01*
X38130355Y-31550083D01*
X38135029Y-31551501D01*
X38139330Y-31553800D01*
X38145702Y-31559029D01*
X38166076Y-31572643D01*
X38188715Y-31582020D01*
X38212749Y-31586800D01*
X38237253Y-31586800D01*
X38261286Y-31582019D01*
X38283925Y-31572642D01*
X38304298Y-31559029D01*
X38310670Y-31553800D01*
X38314971Y-31551501D01*
X38319645Y-31550083D01*
X38330641Y-31549000D01*
X38619359Y-31549000D01*
X38630355Y-31550083D01*
X38635029Y-31551501D01*
X38639330Y-31553800D01*
X38645702Y-31559029D01*
X38666076Y-31572643D01*
X38688715Y-31582020D01*
X38712749Y-31586800D01*
X38737253Y-31586800D01*
X38761286Y-31582019D01*
X38783925Y-31572642D01*
X38804298Y-31559029D01*
X38810670Y-31553800D01*
X38814971Y-31551501D01*
X38819645Y-31550083D01*
X38830641Y-31549000D01*
X39119359Y-31549000D01*
X39130355Y-31550083D01*
X39135029Y-31551501D01*
X39139330Y-31553800D01*
X39145702Y-31559029D01*
X39166076Y-31572643D01*
X39188715Y-31582020D01*
X39212749Y-31586800D01*
X39237253Y-31586800D01*
X39261286Y-31582019D01*
X39283925Y-31572642D01*
X39304298Y-31559029D01*
X39310670Y-31553800D01*
X39314971Y-31551501D01*
X39319645Y-31550083D01*
X39330641Y-31549000D01*
X39619359Y-31549000D01*
X39630355Y-31550083D01*
X39635029Y-31551501D01*
X39639330Y-31553800D01*
X39645702Y-31559029D01*
X39666076Y-31572643D01*
X39688715Y-31582020D01*
X39712749Y-31586800D01*
X39737253Y-31586800D01*
X39761286Y-31582019D01*
X39783925Y-31572642D01*
X39804298Y-31559029D01*
X39810670Y-31553800D01*
X39814971Y-31551501D01*
X39819645Y-31550083D01*
X39830641Y-31549000D01*
X40119359Y-31549000D01*
X40130355Y-31550083D01*
X40135029Y-31551501D01*
X40139331Y-31553800D01*
X40143104Y-31556896D01*
X40146200Y-31560669D01*
X40148499Y-31564971D01*
X40149917Y-31569645D01*
X40151000Y-31580641D01*
X40151000Y-32424001D01*
X40153402Y-32448387D01*
X40160515Y-32471836D01*
X40172066Y-32493447D01*
X40187611Y-32512389D01*
X40206553Y-32527934D01*
X40228164Y-32539485D01*
X40251613Y-32546598D01*
X40275999Y-32549000D01*
X41119359Y-32549000D01*
X41130355Y-32550083D01*
X41135029Y-32551501D01*
X41139331Y-32553800D01*
X41143104Y-32556896D01*
X41146200Y-32560669D01*
X41148499Y-32564971D01*
X41149917Y-32569645D01*
X41151000Y-32580641D01*
X41151000Y-32869359D01*
X41149917Y-32880355D01*
X41148499Y-32885029D01*
X41146200Y-32889330D01*
X41140971Y-32895702D01*
X41127357Y-32916076D01*
X41117980Y-32938715D01*
X41113200Y-32962749D01*
X41113200Y-32987253D01*
X41117981Y-33011286D01*
X41127358Y-33033925D01*
X41140971Y-33054298D01*
X41146200Y-33060670D01*
X41148499Y-33064971D01*
X41149917Y-33069645D01*
X41151000Y-33080641D01*
X41151000Y-33369359D01*
X41149917Y-33380355D01*
X41148499Y-33385029D01*
X41146200Y-33389330D01*
X41140971Y-33395702D01*
X41127357Y-33416076D01*
X41117980Y-33438715D01*
X41113200Y-33462749D01*
X41113200Y-33487253D01*
X41117981Y-33511286D01*
X41127358Y-33533925D01*
X41140971Y-33554298D01*
X41146200Y-33560670D01*
X41148499Y-33564971D01*
X41149917Y-33569645D01*
X41151000Y-33580641D01*
X41151000Y-33869359D01*
X41149917Y-33880355D01*
X41148499Y-33885029D01*
X41146200Y-33889330D01*
X41140971Y-33895702D01*
X41127357Y-33916076D01*
X41117980Y-33938715D01*
X41113200Y-33962749D01*
X41113200Y-33987253D01*
X41117981Y-34011286D01*
X41127358Y-34033925D01*
X41140971Y-34054298D01*
X41146200Y-34060670D01*
X41148499Y-34064971D01*
X41149917Y-34069645D01*
X41151000Y-34080641D01*
X41151000Y-34369359D01*
X41149917Y-34380355D01*
X41148499Y-34385029D01*
X41146200Y-34389330D01*
X41140971Y-34395702D01*
X41127357Y-34416076D01*
X41117980Y-34438715D01*
X41113200Y-34462749D01*
X41113200Y-34487253D01*
X41117981Y-34511286D01*
X41127358Y-34533925D01*
X41140971Y-34554298D01*
X41146200Y-34560670D01*
X41148499Y-34564971D01*
X41149917Y-34569645D01*
X41151000Y-34580641D01*
X41151000Y-34869359D01*
X41149917Y-34880355D01*
X41148499Y-34885029D01*
X41146200Y-34889330D01*
X41140971Y-34895702D01*
X41127357Y-34916076D01*
X41117980Y-34938715D01*
X41113200Y-34962749D01*
X41113200Y-34987253D01*
X41117981Y-35011286D01*
X41127358Y-35033925D01*
X41140971Y-35054298D01*
X41146200Y-35060670D01*
X41148499Y-35064971D01*
X41149917Y-35069645D01*
X41151000Y-35080641D01*
X41151000Y-35369359D01*
X41149917Y-35380355D01*
X41148499Y-35385029D01*
X41146200Y-35389330D01*
X41140971Y-35395702D01*
X41127357Y-35416076D01*
X41117980Y-35438715D01*
X41113200Y-35462749D01*
X41113200Y-35487253D01*
X41117981Y-35511286D01*
X41127358Y-35533925D01*
X41140971Y-35554298D01*
X41146200Y-35560670D01*
X41148499Y-35564971D01*
X41149917Y-35569645D01*
X41151000Y-35580641D01*
X41151000Y-35869359D01*
X41149917Y-35880355D01*
X41148499Y-35885029D01*
X41146200Y-35889330D01*
X41140971Y-35895702D01*
X41127357Y-35916076D01*
X41117980Y-35938715D01*
X41113200Y-35962749D01*
X41113200Y-35987253D01*
X41117981Y-36011286D01*
X41127358Y-36033925D01*
X41140971Y-36054298D01*
X41146200Y-36060670D01*
X41148499Y-36064971D01*
X41149917Y-36069645D01*
X41151000Y-36080641D01*
X41151000Y-36369359D01*
X41149917Y-36380355D01*
X41148499Y-36385029D01*
X41146200Y-36389331D01*
X41143104Y-36393104D01*
X41139331Y-36396200D01*
X41135029Y-36398499D01*
X41130355Y-36399917D01*
X41119359Y-36401000D01*
X40275999Y-36401000D01*
X40251613Y-36403402D01*
X40228164Y-36410515D01*
X40206553Y-36422066D01*
X40187611Y-36437611D01*
X40172066Y-36456553D01*
X40160515Y-36478164D01*
X40153402Y-36501613D01*
X40151000Y-36525999D01*
X40151000Y-37369359D01*
X40149917Y-37380355D01*
X40148499Y-37385029D01*
X40146200Y-37389331D01*
X40143104Y-37393104D01*
X40139331Y-37396200D01*
X40135029Y-37398499D01*
X40130355Y-37399917D01*
X40119359Y-37401000D01*
X39830641Y-37401000D01*
X39819645Y-37399917D01*
X39814971Y-37398499D01*
X39810670Y-37396200D01*
X39804298Y-37390971D01*
X39783924Y-37377357D01*
X39761285Y-37367980D01*
X39737251Y-37363200D01*
X39712747Y-37363200D01*
X39688714Y-37367981D01*
X39666075Y-37377358D01*
X39645702Y-37390971D01*
X39639330Y-37396200D01*
X39635029Y-37398499D01*
X39630355Y-37399917D01*
X39619359Y-37401000D01*
X39330641Y-37401000D01*
X39319645Y-37399917D01*
X39314971Y-37398499D01*
X39310670Y-37396200D01*
X39304298Y-37390971D01*
X39283924Y-37377357D01*
X39261285Y-37367980D01*
X39237251Y-37363200D01*
X39212747Y-37363200D01*
X39188714Y-37367981D01*
X39166075Y-37377358D01*
X39145702Y-37390971D01*
X39139330Y-37396200D01*
X39135029Y-37398499D01*
X39130355Y-37399917D01*
X39119359Y-37401000D01*
X38830641Y-37401000D01*
X38819645Y-37399917D01*
X38814971Y-37398499D01*
X38810670Y-37396200D01*
X38804298Y-37390971D01*
X38783924Y-37377357D01*
X38761285Y-37367980D01*
X38737251Y-37363200D01*
X38712747Y-37363200D01*
X38688714Y-37367981D01*
X38666075Y-37377358D01*
X38645702Y-37390971D01*
X38639330Y-37396200D01*
X38635029Y-37398499D01*
X38630355Y-37399917D01*
X38619359Y-37401000D01*
X38330641Y-37401000D01*
X38319645Y-37399917D01*
X38314971Y-37398499D01*
X38310670Y-37396200D01*
X38304298Y-37390971D01*
X38283924Y-37377357D01*
X38261285Y-37367980D01*
X38237251Y-37363200D01*
X38212747Y-37363200D01*
X38188714Y-37367981D01*
X38166075Y-37377358D01*
X38145702Y-37390971D01*
X38139330Y-37396200D01*
X38135029Y-37398499D01*
X38130355Y-37399917D01*
X38119359Y-37401000D01*
X37830641Y-37401000D01*
X37819645Y-37399917D01*
X37814971Y-37398499D01*
X37810670Y-37396200D01*
X37804298Y-37390971D01*
X37783924Y-37377357D01*
X37761285Y-37367980D01*
X37737251Y-37363200D01*
X37712747Y-37363200D01*
X37688714Y-37367981D01*
X37666075Y-37377358D01*
X37645702Y-37390971D01*
X37639330Y-37396200D01*
X37635029Y-37398499D01*
X37630355Y-37399917D01*
X37619359Y-37401000D01*
X37330641Y-37401000D01*
X37319645Y-37399917D01*
X37314971Y-37398499D01*
X37310670Y-37396200D01*
X37304298Y-37390971D01*
X37283924Y-37377357D01*
X37261285Y-37367980D01*
X37237251Y-37363200D01*
X37212747Y-37363200D01*
X37188714Y-37367981D01*
X37166075Y-37377358D01*
X37145702Y-37390971D01*
X37139330Y-37396200D01*
X37135029Y-37398499D01*
X37130355Y-37399917D01*
X37119359Y-37401000D01*
X36830641Y-37401000D01*
X36819645Y-37399917D01*
X36814971Y-37398499D01*
X36810670Y-37396200D01*
X36804298Y-37390971D01*
X36783924Y-37377357D01*
X36761285Y-37367980D01*
X36737251Y-37363200D01*
X36712747Y-37363200D01*
X36688714Y-37367981D01*
X36666075Y-37377358D01*
X36645702Y-37390971D01*
X36639330Y-37396200D01*
X36635029Y-37398499D01*
X36630355Y-37399917D01*
X36619359Y-37401000D01*
X36330641Y-37401000D01*
X36319645Y-37399917D01*
X36314971Y-37398499D01*
X36310669Y-37396200D01*
X36306896Y-37393104D01*
X36303800Y-37389331D01*
X36301501Y-37385029D01*
X36300083Y-37380355D01*
X36299000Y-37369359D01*
X36299000Y-36525999D01*
X36296598Y-36501613D01*
X36289485Y-36478164D01*
X36277934Y-36456553D01*
X36262389Y-36437611D01*
X36243447Y-36422066D01*
X36221836Y-36410515D01*
X36198387Y-36403402D01*
X36174001Y-36401000D01*
X35330641Y-36401000D01*
X35319645Y-36399917D01*
X35314971Y-36398499D01*
X35310669Y-36396200D01*
X35306896Y-36393104D01*
X35303800Y-36389331D01*
X35301501Y-36385029D01*
X35300083Y-36380355D01*
X35299000Y-36369359D01*
X35299000Y-36290801D01*
X36276000Y-36290801D01*
X36276000Y-36299001D01*
X36278402Y-36323387D01*
X36285515Y-36346836D01*
X36297066Y-36368447D01*
X36312611Y-36387389D01*
X36331553Y-36402934D01*
X36353164Y-36414485D01*
X36376613Y-36421598D01*
X36400999Y-36424000D01*
X36409199Y-36424000D01*
X36433585Y-36421598D01*
X36457034Y-36414485D01*
X36478645Y-36402934D01*
X36497587Y-36387389D01*
X36513132Y-36368447D01*
X36524683Y-36346836D01*
X36531796Y-36323387D01*
X36532991Y-36311247D01*
X39916403Y-36311247D01*
X39921183Y-36335281D01*
X39930559Y-36357920D01*
X39944172Y-36378295D01*
X39961498Y-36395623D01*
X39981872Y-36409238D01*
X40004510Y-36418616D01*
X40028543Y-36423398D01*
X40040801Y-36424000D01*
X40049001Y-36424000D01*
X40073387Y-36421598D01*
X40096836Y-36414485D01*
X40118447Y-36402934D01*
X40137389Y-36387389D01*
X40152934Y-36368447D01*
X40164485Y-36346836D01*
X40171598Y-36323387D01*
X40174000Y-36299001D01*
X40174000Y-36290801D01*
X40171598Y-36266415D01*
X40164485Y-36242966D01*
X40152934Y-36221355D01*
X40137389Y-36202413D01*
X40118447Y-36186868D01*
X40096836Y-36175317D01*
X40073387Y-36168204D01*
X40049001Y-36165802D01*
X40024615Y-36168204D01*
X40001166Y-36175317D01*
X39979555Y-36186868D01*
X39960613Y-36202413D01*
X39952382Y-36211496D01*
X39944179Y-36219698D01*
X39930564Y-36240072D01*
X39921186Y-36262710D01*
X39916404Y-36286743D01*
X39916403Y-36311247D01*
X36532991Y-36311247D01*
X36534198Y-36299001D01*
X36531796Y-36274615D01*
X36524683Y-36251166D01*
X36513132Y-36229555D01*
X36497587Y-36210613D01*
X36488504Y-36202382D01*
X36480302Y-36194179D01*
X36459928Y-36180564D01*
X36437290Y-36171186D01*
X36413257Y-36166404D01*
X36388753Y-36166403D01*
X36364719Y-36171183D01*
X36342080Y-36180559D01*
X36321705Y-36194172D01*
X36304377Y-36211498D01*
X36290762Y-36231872D01*
X36281384Y-36254510D01*
X36276602Y-36278543D01*
X36276000Y-36290801D01*
X35299000Y-36290801D01*
X35299000Y-36080641D01*
X35300083Y-36069645D01*
X35301501Y-36064971D01*
X35303800Y-36060670D01*
X35309029Y-36054298D01*
X35322643Y-36033924D01*
X35332020Y-36011285D01*
X35336800Y-35987251D01*
X35336800Y-35962747D01*
X35332019Y-35938714D01*
X35322642Y-35916075D01*
X35309029Y-35895702D01*
X35303800Y-35889330D01*
X35301501Y-35885029D01*
X35300083Y-35880355D01*
X35299000Y-35869359D01*
X35299000Y-35580641D01*
X35300083Y-35569645D01*
X35301501Y-35564971D01*
X35303800Y-35560670D01*
X35309029Y-35554298D01*
X35322643Y-35533924D01*
X35332020Y-35511285D01*
X35336800Y-35487251D01*
X35336800Y-35462747D01*
X35332019Y-35438714D01*
X35322642Y-35416075D01*
X35309029Y-35395702D01*
X35303800Y-35389330D01*
X35301501Y-35385029D01*
X35300083Y-35380355D01*
X35299000Y-35369359D01*
X35299000Y-35080641D01*
X35300083Y-35069645D01*
X35301501Y-35064971D01*
X35303800Y-35060670D01*
X35309029Y-35054298D01*
X35322643Y-35033924D01*
X35332020Y-35011285D01*
X35336800Y-34987251D01*
X35336800Y-34962747D01*
X35332019Y-34938714D01*
X35322642Y-34916075D01*
X35309029Y-34895702D01*
X35303800Y-34889330D01*
X35301501Y-34885029D01*
X35300083Y-34880355D01*
X35299000Y-34869359D01*
X35299000Y-34580641D01*
X35300083Y-34569645D01*
X35301501Y-34564971D01*
X35303800Y-34560670D01*
X35309029Y-34554298D01*
X35322643Y-34533924D01*
X35332020Y-34511285D01*
X35336800Y-34487251D01*
X35336800Y-34462747D01*
X35332019Y-34438714D01*
X35322642Y-34416075D01*
X35309029Y-34395702D01*
X35303800Y-34389330D01*
X35301501Y-34385029D01*
X35300083Y-34380355D01*
X35299000Y-34369359D01*
X35299000Y-34080641D01*
X35300083Y-34069645D01*
X35301501Y-34064971D01*
X35303800Y-34060670D01*
X35309029Y-34054298D01*
X35322643Y-34033924D01*
X35332020Y-34011285D01*
X35336800Y-33987251D01*
X35336800Y-33962747D01*
X35332019Y-33938714D01*
X35322642Y-33916075D01*
X35309029Y-33895702D01*
X35303800Y-33889330D01*
X35301501Y-33885029D01*
X35300083Y-33880355D01*
X35299000Y-33869359D01*
X35299000Y-33580641D01*
X35300083Y-33569645D01*
X35301501Y-33564971D01*
X35303800Y-33560670D01*
X35309029Y-33554298D01*
X35322643Y-33533924D01*
X35332020Y-33511285D01*
X35336800Y-33487251D01*
X35336800Y-33462747D01*
X35332019Y-33438714D01*
X35322642Y-33416075D01*
X35309029Y-33395702D01*
X35303800Y-33389330D01*
X35301501Y-33385029D01*
X35300083Y-33380355D01*
X35299000Y-33369359D01*
X35299000Y-33080641D01*
X35300083Y-33069645D01*
X35301501Y-33064971D01*
X35303800Y-33060670D01*
X35309029Y-33054298D01*
X35322643Y-33033924D01*
X35332020Y-33011285D01*
X35336800Y-32987251D01*
X35336800Y-32962747D01*
X35332019Y-32938714D01*
X35322642Y-32916075D01*
X35309029Y-32895702D01*
X35303800Y-32889330D01*
X35301501Y-32885029D01*
X35300083Y-32880355D01*
X35299000Y-32869359D01*
X35299000Y-32650999D01*
X36276000Y-32650999D01*
X36276000Y-32659199D01*
X36278402Y-32683585D01*
X36285515Y-32707034D01*
X36297066Y-32728645D01*
X36312611Y-32747587D01*
X36331553Y-32763132D01*
X36353164Y-32774683D01*
X36376613Y-32781796D01*
X36400999Y-32784198D01*
X36425385Y-32781796D01*
X36448834Y-32774683D01*
X36470445Y-32763132D01*
X36489387Y-32747587D01*
X36497620Y-32738502D01*
X36505821Y-32730302D01*
X36519436Y-32709928D01*
X36528814Y-32687290D01*
X36533596Y-32663257D01*
X36533596Y-32650999D01*
X39915802Y-32650999D01*
X39918204Y-32675385D01*
X39925317Y-32698834D01*
X39936868Y-32720445D01*
X39952413Y-32739387D01*
X39961496Y-32747618D01*
X39969698Y-32755821D01*
X39990072Y-32769436D01*
X40012710Y-32778814D01*
X40036743Y-32783596D01*
X40061247Y-32783597D01*
X40085281Y-32778817D01*
X40107920Y-32769441D01*
X40128295Y-32755828D01*
X40145623Y-32738502D01*
X40159238Y-32718128D01*
X40168616Y-32695490D01*
X40173398Y-32671457D01*
X40174000Y-32659199D01*
X40174000Y-32650999D01*
X40171598Y-32626613D01*
X40164485Y-32603164D01*
X40152934Y-32581553D01*
X40137389Y-32562611D01*
X40118447Y-32547066D01*
X40096836Y-32535515D01*
X40073387Y-32528402D01*
X40049001Y-32526000D01*
X40040801Y-32526000D01*
X40016415Y-32528402D01*
X39992966Y-32535515D01*
X39971355Y-32547066D01*
X39952413Y-32562611D01*
X39936868Y-32581553D01*
X39925317Y-32603164D01*
X39918204Y-32626613D01*
X39915802Y-32650999D01*
X36533596Y-32650999D01*
X36533597Y-32638753D01*
X36528817Y-32614719D01*
X36519441Y-32592080D01*
X36505828Y-32571705D01*
X36488502Y-32554377D01*
X36468128Y-32540762D01*
X36445490Y-32531384D01*
X36421457Y-32526602D01*
X36409199Y-32526000D01*
X36400999Y-32526000D01*
X36376613Y-32528402D01*
X36353164Y-32535515D01*
X36331553Y-32547066D01*
X36312611Y-32562611D01*
X36297066Y-32581553D01*
X36285515Y-32603164D01*
X36278402Y-32626613D01*
X36276000Y-32650999D01*
X35299000Y-32650999D01*
X35299000Y-32580641D01*
X35300083Y-32569645D01*
X35301501Y-32564971D01*
X35303800Y-32560669D01*
X35306896Y-32556896D01*
X35310669Y-32553800D01*
X35314971Y-32551501D01*
X35319645Y-32550083D01*
X35330641Y-32549000D01*
X36174001Y-32549000D01*
X36198387Y-32546598D01*
X36221836Y-32539485D01*
X36243447Y-32527934D01*
X36262389Y-32512389D01*
X36277934Y-32493447D01*
X36289485Y-32471836D01*
X36296598Y-32448387D01*
X36299000Y-32424001D01*
X36299000Y-31580641D01*
X36300083Y-31569645D01*
X36301501Y-31564971D01*
X36303800Y-31560669D01*
X36306896Y-31556896D01*
X36310669Y-31553800D01*
X36314971Y-31551501D01*
X36319645Y-31550083D01*
X36330641Y-31549000D01*
X36619359Y-31549000D01*
X36630355Y-31550083D01*
G37*
G36*
X52606938Y-36531716D02*
G01*
X52627557Y-36537971D01*
X52646553Y-36548124D01*
X52663208Y-36561792D01*
X52676876Y-36578447D01*
X52687029Y-36597443D01*
X52693284Y-36618062D01*
X52696000Y-36645640D01*
X52696000Y-37154360D01*
X52693284Y-37181938D01*
X52687029Y-37202557D01*
X52676876Y-37221553D01*
X52663208Y-37238208D01*
X52646553Y-37251876D01*
X52627557Y-37262029D01*
X52606938Y-37268284D01*
X52579360Y-37271000D01*
X52120640Y-37271000D01*
X52093062Y-37268284D01*
X52072443Y-37262029D01*
X52053447Y-37251876D01*
X52036792Y-37238208D01*
X52023124Y-37221553D01*
X52012971Y-37202557D01*
X52006716Y-37181938D01*
X52004000Y-37154360D01*
X52004000Y-36645640D01*
X52006716Y-36618062D01*
X52012971Y-36597443D01*
X52023124Y-36578447D01*
X52036792Y-36561792D01*
X52053447Y-36548124D01*
X52072443Y-36537971D01*
X52093062Y-36531716D01*
X52120640Y-36529000D01*
X52579360Y-36529000D01*
X52606938Y-36531716D01*
G37*
G36*
X51636938Y-36531716D02*
G01*
X51657557Y-36537971D01*
X51676553Y-36548124D01*
X51693208Y-36561792D01*
X51706876Y-36578447D01*
X51717029Y-36597443D01*
X51723284Y-36618062D01*
X51726000Y-36645640D01*
X51726000Y-37154360D01*
X51723284Y-37181938D01*
X51717029Y-37202557D01*
X51706876Y-37221553D01*
X51693208Y-37238208D01*
X51676553Y-37251876D01*
X51657557Y-37262029D01*
X51636938Y-37268284D01*
X51609360Y-37271000D01*
X51150640Y-37271000D01*
X51123062Y-37268284D01*
X51102443Y-37262029D01*
X51083447Y-37251876D01*
X51066792Y-37238208D01*
X51053124Y-37221553D01*
X51042971Y-37202557D01*
X51036716Y-37181938D01*
X51034000Y-37154360D01*
X51034000Y-36645640D01*
X51036716Y-36618062D01*
X51042971Y-36597443D01*
X51053124Y-36578447D01*
X51066792Y-36561792D01*
X51083447Y-36548124D01*
X51102443Y-36537971D01*
X51123062Y-36531716D01*
X51150640Y-36529000D01*
X51609360Y-36529000D01*
X51636938Y-36531716D01*
G37*
G36*
X45055355Y-31750083D02*
G01*
X45060029Y-31751501D01*
X45064330Y-31753800D01*
X45070702Y-31759029D01*
X45091076Y-31772643D01*
X45113715Y-31782020D01*
X45137749Y-31786800D01*
X45162253Y-31786800D01*
X45186286Y-31782019D01*
X45208925Y-31772642D01*
X45229298Y-31759029D01*
X45235670Y-31753800D01*
X45239971Y-31751501D01*
X45244645Y-31750083D01*
X45255641Y-31749000D01*
X45544359Y-31749000D01*
X45555355Y-31750083D01*
X45560029Y-31751501D01*
X45564330Y-31753800D01*
X45570702Y-31759029D01*
X45591076Y-31772643D01*
X45613715Y-31782020D01*
X45637749Y-31786800D01*
X45662253Y-31786800D01*
X45686286Y-31782019D01*
X45708925Y-31772642D01*
X45729298Y-31759029D01*
X45735670Y-31753800D01*
X45739971Y-31751501D01*
X45744645Y-31750083D01*
X45755641Y-31749000D01*
X46044359Y-31749000D01*
X46055355Y-31750083D01*
X46060029Y-31751501D01*
X46064330Y-31753800D01*
X46070702Y-31759029D01*
X46091076Y-31772643D01*
X46113715Y-31782020D01*
X46137749Y-31786800D01*
X46162253Y-31786800D01*
X46186286Y-31782019D01*
X46208925Y-31772642D01*
X46229298Y-31759029D01*
X46235670Y-31753800D01*
X46239971Y-31751501D01*
X46244645Y-31750083D01*
X46255641Y-31749000D01*
X46544359Y-31749000D01*
X46555355Y-31750083D01*
X46560029Y-31751501D01*
X46564330Y-31753800D01*
X46570702Y-31759029D01*
X46591076Y-31772643D01*
X46613715Y-31782020D01*
X46637749Y-31786800D01*
X46662253Y-31786800D01*
X46686286Y-31782019D01*
X46708925Y-31772642D01*
X46729298Y-31759029D01*
X46735670Y-31753800D01*
X46739971Y-31751501D01*
X46744645Y-31750083D01*
X46755641Y-31749000D01*
X47044359Y-31749000D01*
X47055355Y-31750083D01*
X47060029Y-31751501D01*
X47064331Y-31753800D01*
X47068104Y-31756896D01*
X47071200Y-31760669D01*
X47073499Y-31764971D01*
X47074917Y-31769645D01*
X47076000Y-31780641D01*
X47076000Y-32644359D01*
X47074917Y-32655355D01*
X47073499Y-32660029D01*
X47071202Y-32664327D01*
X47064560Y-32672420D01*
X47050946Y-32692795D01*
X47041569Y-32715433D01*
X47036788Y-32739467D01*
X47036788Y-32763971D01*
X47041568Y-32788004D01*
X47050945Y-32810643D01*
X47064559Y-32831018D01*
X47081885Y-32848345D01*
X47102259Y-32861958D01*
X47129464Y-32876500D01*
X47153651Y-32896349D01*
X47173500Y-32920536D01*
X47188042Y-32947741D01*
X47201656Y-32968115D01*
X47218983Y-32985442D01*
X47239358Y-32999055D01*
X47261997Y-33008432D01*
X47286030Y-33013212D01*
X47310534Y-33013212D01*
X47334568Y-33008431D01*
X47357206Y-32999053D01*
X47377580Y-32985440D01*
X47385673Y-32978798D01*
X47389971Y-32976501D01*
X47394645Y-32975083D01*
X47405641Y-32974000D01*
X48269359Y-32974000D01*
X48280355Y-32975083D01*
X48285029Y-32976501D01*
X48289331Y-32978800D01*
X48293104Y-32981896D01*
X48296200Y-32985669D01*
X48298499Y-32989971D01*
X48299917Y-32994645D01*
X48301000Y-33005641D01*
X48301000Y-33294359D01*
X48299917Y-33305355D01*
X48298499Y-33310029D01*
X48296200Y-33314330D01*
X48290971Y-33320702D01*
X48277357Y-33341076D01*
X48267980Y-33363715D01*
X48263200Y-33387749D01*
X48263200Y-33412253D01*
X48267981Y-33436286D01*
X48277358Y-33458925D01*
X48290971Y-33479298D01*
X48296200Y-33485670D01*
X48298499Y-33489971D01*
X48299917Y-33494645D01*
X48301000Y-33505641D01*
X48301000Y-33794359D01*
X48299917Y-33805355D01*
X48298499Y-33810029D01*
X48296200Y-33814330D01*
X48290971Y-33820702D01*
X48277357Y-33841076D01*
X48267980Y-33863715D01*
X48263200Y-33887749D01*
X48263200Y-33912253D01*
X48267981Y-33936286D01*
X48277358Y-33958925D01*
X48290971Y-33979298D01*
X48296200Y-33985670D01*
X48298499Y-33989971D01*
X48299917Y-33994645D01*
X48301000Y-34005641D01*
X48301000Y-34294359D01*
X48299917Y-34305355D01*
X48298499Y-34310029D01*
X48296200Y-34314330D01*
X48290971Y-34320702D01*
X48277357Y-34341076D01*
X48267980Y-34363715D01*
X48263200Y-34387749D01*
X48263200Y-34412253D01*
X48267981Y-34436286D01*
X48277358Y-34458925D01*
X48290971Y-34479298D01*
X48296200Y-34485670D01*
X48298499Y-34489971D01*
X48299917Y-34494645D01*
X48301000Y-34505641D01*
X48301000Y-34794359D01*
X48299917Y-34805355D01*
X48298499Y-34810029D01*
X48296200Y-34814330D01*
X48290971Y-34820702D01*
X48277357Y-34841076D01*
X48267980Y-34863715D01*
X48263200Y-34887749D01*
X48263200Y-34912253D01*
X48267981Y-34936286D01*
X48277358Y-34958925D01*
X48290971Y-34979298D01*
X48296200Y-34985670D01*
X48298499Y-34989971D01*
X48299917Y-34994645D01*
X48301000Y-35005641D01*
X48301000Y-35294359D01*
X48299917Y-35305355D01*
X48298499Y-35310029D01*
X48296200Y-35314331D01*
X48293104Y-35318104D01*
X48289331Y-35321200D01*
X48285029Y-35323499D01*
X48280355Y-35324917D01*
X48269359Y-35326000D01*
X47405641Y-35326000D01*
X47394645Y-35324917D01*
X47389971Y-35323499D01*
X47385673Y-35321202D01*
X47377580Y-35314560D01*
X47357205Y-35300946D01*
X47334567Y-35291569D01*
X47310533Y-35286788D01*
X47286029Y-35286788D01*
X47261996Y-35291568D01*
X47239357Y-35300945D01*
X47218982Y-35314559D01*
X47201655Y-35331885D01*
X47188042Y-35352259D01*
X47173500Y-35379464D01*
X47153651Y-35403651D01*
X47129464Y-35423500D01*
X47102259Y-35438042D01*
X47081885Y-35451656D01*
X47064558Y-35468983D01*
X47050945Y-35489358D01*
X47041568Y-35511997D01*
X47036788Y-35536030D01*
X47036788Y-35560534D01*
X47041569Y-35584568D01*
X47050947Y-35607206D01*
X47064560Y-35627580D01*
X47071202Y-35635673D01*
X47073499Y-35639971D01*
X47074917Y-35644645D01*
X47076000Y-35655641D01*
X47076000Y-36519359D01*
X47074917Y-36530355D01*
X47073499Y-36535029D01*
X47071200Y-36539331D01*
X47068104Y-36543104D01*
X47064331Y-36546200D01*
X47060029Y-36548499D01*
X47055355Y-36549917D01*
X47044359Y-36551000D01*
X46755641Y-36551000D01*
X46744645Y-36549917D01*
X46739971Y-36548499D01*
X46735670Y-36546200D01*
X46729298Y-36540971D01*
X46708924Y-36527357D01*
X46686285Y-36517980D01*
X46662251Y-36513200D01*
X46637747Y-36513200D01*
X46613714Y-36517981D01*
X46591075Y-36527358D01*
X46570702Y-36540971D01*
X46564330Y-36546200D01*
X46560029Y-36548499D01*
X46555355Y-36549917D01*
X46544359Y-36551000D01*
X46255641Y-36551000D01*
X46244645Y-36549917D01*
X46239971Y-36548499D01*
X46235670Y-36546200D01*
X46229298Y-36540971D01*
X46208924Y-36527357D01*
X46186285Y-36517980D01*
X46162251Y-36513200D01*
X46137747Y-36513200D01*
X46113714Y-36517981D01*
X46091075Y-36527358D01*
X46070702Y-36540971D01*
X46064330Y-36546200D01*
X46060029Y-36548499D01*
X46055355Y-36549917D01*
X46044359Y-36551000D01*
X45755641Y-36551000D01*
X45744645Y-36549917D01*
X45739971Y-36548499D01*
X45735670Y-36546200D01*
X45729298Y-36540971D01*
X45708924Y-36527357D01*
X45686285Y-36517980D01*
X45662251Y-36513200D01*
X45637747Y-36513200D01*
X45613714Y-36517981D01*
X45591075Y-36527358D01*
X45570702Y-36540971D01*
X45564330Y-36546200D01*
X45560029Y-36548499D01*
X45555355Y-36549917D01*
X45544359Y-36551000D01*
X45255641Y-36551000D01*
X45244645Y-36549917D01*
X45239971Y-36548499D01*
X45235670Y-36546200D01*
X45229298Y-36540971D01*
X45208924Y-36527357D01*
X45186285Y-36517980D01*
X45162251Y-36513200D01*
X45137747Y-36513200D01*
X45113714Y-36517981D01*
X45091075Y-36527358D01*
X45070702Y-36540971D01*
X45064330Y-36546200D01*
X45060029Y-36548499D01*
X45055355Y-36549917D01*
X45044359Y-36551000D01*
X44755641Y-36551000D01*
X44744645Y-36549917D01*
X44739971Y-36548499D01*
X44735669Y-36546200D01*
X44731896Y-36543104D01*
X44728800Y-36539331D01*
X44726501Y-36535029D01*
X44725083Y-36530355D01*
X44724000Y-36519359D01*
X44724000Y-35655641D01*
X44725083Y-35644645D01*
X44726501Y-35639971D01*
X44728798Y-35635673D01*
X44735440Y-35627580D01*
X44749054Y-35607205D01*
X44758431Y-35584567D01*
X44763212Y-35560533D01*
X44763212Y-35536029D01*
X44758432Y-35511996D01*
X44749055Y-35489357D01*
X44735441Y-35468982D01*
X44718115Y-35451655D01*
X44697741Y-35438042D01*
X44670536Y-35423500D01*
X44646349Y-35403651D01*
X44626500Y-35379464D01*
X44611958Y-35352259D01*
X44598344Y-35331885D01*
X44581017Y-35314558D01*
X44560642Y-35300945D01*
X44538003Y-35291568D01*
X44513970Y-35286788D01*
X44489466Y-35286788D01*
X44465432Y-35291569D01*
X44442794Y-35300947D01*
X44422420Y-35314560D01*
X44414327Y-35321202D01*
X44410029Y-35323499D01*
X44405355Y-35324917D01*
X44394359Y-35326000D01*
X43530641Y-35326000D01*
X43519645Y-35324917D01*
X43514971Y-35323499D01*
X43510669Y-35321200D01*
X43506896Y-35318104D01*
X43503800Y-35314331D01*
X43501501Y-35310029D01*
X43500083Y-35305355D01*
X43499000Y-35294359D01*
X43499000Y-35005641D01*
X43500083Y-34994645D01*
X43501501Y-34989971D01*
X43503800Y-34985670D01*
X43509029Y-34979298D01*
X43522643Y-34958924D01*
X43532020Y-34936285D01*
X43536800Y-34912251D01*
X43536800Y-34887747D01*
X43532019Y-34863714D01*
X43522642Y-34841075D01*
X43509029Y-34820702D01*
X43503800Y-34814330D01*
X43501501Y-34810029D01*
X43500083Y-34805355D01*
X43499000Y-34794359D01*
X43499000Y-34505641D01*
X43500083Y-34494645D01*
X43501501Y-34489971D01*
X43503800Y-34485670D01*
X43509029Y-34479298D01*
X43522643Y-34458924D01*
X43532020Y-34436285D01*
X43536800Y-34412251D01*
X43536800Y-34387747D01*
X43532019Y-34363714D01*
X43522642Y-34341075D01*
X43509029Y-34320702D01*
X43503800Y-34314330D01*
X43501501Y-34310029D01*
X43500083Y-34305355D01*
X43499000Y-34294359D01*
X43499000Y-34005641D01*
X43500083Y-33994645D01*
X43501501Y-33989971D01*
X43503800Y-33985670D01*
X43509029Y-33979298D01*
X43522643Y-33958924D01*
X43532020Y-33936285D01*
X43536800Y-33912251D01*
X43536800Y-33887747D01*
X43532019Y-33863714D01*
X43522642Y-33841075D01*
X43509029Y-33820702D01*
X43503800Y-33814330D01*
X43501501Y-33810029D01*
X43500083Y-33805355D01*
X43499000Y-33794359D01*
X43499000Y-33505641D01*
X43500083Y-33494645D01*
X43501501Y-33489971D01*
X43503800Y-33485670D01*
X43509029Y-33479298D01*
X43522643Y-33458924D01*
X43532020Y-33436285D01*
X43536800Y-33412251D01*
X43536800Y-33387747D01*
X43532019Y-33363714D01*
X43522642Y-33341075D01*
X43509029Y-33320702D01*
X43503800Y-33314330D01*
X43501501Y-33310029D01*
X43500083Y-33305355D01*
X43499000Y-33294359D01*
X43499000Y-33005641D01*
X43500083Y-32994645D01*
X43501501Y-32989971D01*
X43503800Y-32985669D01*
X43506896Y-32981896D01*
X43510669Y-32978800D01*
X43514971Y-32976501D01*
X43519645Y-32975083D01*
X43530641Y-32974000D01*
X44394359Y-32974000D01*
X44405355Y-32975083D01*
X44410029Y-32976501D01*
X44414327Y-32978798D01*
X44422420Y-32985440D01*
X44442795Y-32999054D01*
X44465433Y-33008431D01*
X44489467Y-33013212D01*
X44513971Y-33013212D01*
X44538004Y-33008432D01*
X44560643Y-32999055D01*
X44581018Y-32985441D01*
X44598345Y-32968115D01*
X44611958Y-32947741D01*
X44626500Y-32920536D01*
X44646349Y-32896349D01*
X44670536Y-32876500D01*
X44697741Y-32861958D01*
X44718115Y-32848344D01*
X44735442Y-32831017D01*
X44749055Y-32810642D01*
X44758432Y-32788003D01*
X44763212Y-32763970D01*
X44763212Y-32739466D01*
X44758431Y-32715432D01*
X44749053Y-32692794D01*
X44735440Y-32672420D01*
X44728798Y-32664327D01*
X44726501Y-32660029D01*
X44725083Y-32655355D01*
X44724000Y-32644359D01*
X44724000Y-31780641D01*
X44725083Y-31769645D01*
X44726501Y-31764971D01*
X44728800Y-31760669D01*
X44731896Y-31756896D01*
X44735669Y-31753800D01*
X44739971Y-31751501D01*
X44744645Y-31750083D01*
X44755641Y-31749000D01*
X45044359Y-31749000D01*
X45055355Y-31750083D01*
G37*
G36*
X29831000Y-36426000D02*
G01*
X28669000Y-36426000D01*
X28669000Y-33774000D01*
X29831000Y-33774000D01*
X29831000Y-36426000D01*
G37*
G36*
X32031000Y-36426000D02*
G01*
X30869000Y-36426000D01*
X30869000Y-33774000D01*
X32031000Y-33774000D01*
X32031000Y-36426000D01*
G37*
G36*
X23713500Y-36301000D02*
G01*
X21711500Y-36301000D01*
X21711500Y-34699000D01*
X23713500Y-34699000D01*
X23713500Y-36301000D01*
G37*
G36*
X52606938Y-35531716D02*
G01*
X52627557Y-35537971D01*
X52646553Y-35548124D01*
X52663208Y-35561792D01*
X52676876Y-35578447D01*
X52687029Y-35597443D01*
X52693284Y-35618062D01*
X52696000Y-35645640D01*
X52696000Y-36154360D01*
X52693284Y-36181938D01*
X52687029Y-36202557D01*
X52676876Y-36221553D01*
X52663208Y-36238208D01*
X52646553Y-36251876D01*
X52627557Y-36262029D01*
X52606938Y-36268284D01*
X52579360Y-36271000D01*
X52120640Y-36271000D01*
X52093062Y-36268284D01*
X52072443Y-36262029D01*
X52053447Y-36251876D01*
X52036792Y-36238208D01*
X52023124Y-36221553D01*
X52012971Y-36202557D01*
X52006716Y-36181938D01*
X52004000Y-36154360D01*
X52004000Y-35645640D01*
X52006716Y-35618062D01*
X52012971Y-35597443D01*
X52023124Y-35578447D01*
X52036792Y-35561792D01*
X52053447Y-35548124D01*
X52072443Y-35537971D01*
X52093062Y-35531716D01*
X52120640Y-35529000D01*
X52579360Y-35529000D01*
X52606938Y-35531716D01*
G37*
G36*
X51636938Y-35531716D02*
G01*
X51657557Y-35537971D01*
X51676553Y-35548124D01*
X51693208Y-35561792D01*
X51706876Y-35578447D01*
X51717029Y-35597443D01*
X51723284Y-35618062D01*
X51726000Y-35645640D01*
X51726000Y-36154360D01*
X51723284Y-36181938D01*
X51717029Y-36202557D01*
X51706876Y-36221553D01*
X51693208Y-36238208D01*
X51676553Y-36251876D01*
X51657557Y-36262029D01*
X51636938Y-36268284D01*
X51609360Y-36271000D01*
X51150640Y-36271000D01*
X51123062Y-36268284D01*
X51102443Y-36262029D01*
X51083447Y-36251876D01*
X51066792Y-36238208D01*
X51053124Y-36221553D01*
X51042971Y-36202557D01*
X51036716Y-36181938D01*
X51034000Y-36154360D01*
X51034000Y-35645640D01*
X51036716Y-35618062D01*
X51042971Y-35597443D01*
X51053124Y-35578447D01*
X51066792Y-35561792D01*
X51083447Y-35548124D01*
X51102443Y-35537971D01*
X51123062Y-35531716D01*
X51150640Y-35529000D01*
X51609360Y-35529000D01*
X51636938Y-35531716D01*
G37*
G36*
X50631938Y-35551716D02*
G01*
X50652557Y-35557971D01*
X50671553Y-35568124D01*
X50688208Y-35581792D01*
X50701876Y-35598447D01*
X50712029Y-35617443D01*
X50718284Y-35638062D01*
X50721000Y-35665640D01*
X50721000Y-36124360D01*
X50718284Y-36151938D01*
X50712029Y-36172557D01*
X50701876Y-36191553D01*
X50688208Y-36208208D01*
X50671553Y-36221876D01*
X50652557Y-36232029D01*
X50631938Y-36238284D01*
X50604360Y-36241000D01*
X50095640Y-36241000D01*
X50068062Y-36238284D01*
X50047443Y-36232029D01*
X50028447Y-36221876D01*
X50011792Y-36208208D01*
X49998124Y-36191553D01*
X49987971Y-36172557D01*
X49981716Y-36151938D01*
X49979000Y-36124360D01*
X49979000Y-35665640D01*
X49981716Y-35638062D01*
X49987971Y-35617443D01*
X49998124Y-35598447D01*
X50011792Y-35581792D01*
X50028447Y-35568124D01*
X50047443Y-35557971D01*
X50068062Y-35551716D01*
X50095640Y-35549000D01*
X50604360Y-35549000D01*
X50631938Y-35551716D01*
G37*
G36*
X50631938Y-34581716D02*
G01*
X50652557Y-34587971D01*
X50671553Y-34598124D01*
X50688208Y-34611792D01*
X50701876Y-34628447D01*
X50712029Y-34647443D01*
X50718284Y-34668062D01*
X50721000Y-34695640D01*
X50721000Y-35154360D01*
X50718284Y-35181938D01*
X50712029Y-35202557D01*
X50701876Y-35221553D01*
X50688208Y-35238208D01*
X50671553Y-35251876D01*
X50652557Y-35262029D01*
X50631938Y-35268284D01*
X50604360Y-35271000D01*
X50095640Y-35271000D01*
X50068062Y-35268284D01*
X50047443Y-35262029D01*
X50028447Y-35251876D01*
X50011792Y-35238208D01*
X49998124Y-35221553D01*
X49987971Y-35202557D01*
X49981716Y-35181938D01*
X49979000Y-35154360D01*
X49979000Y-34695640D01*
X49981716Y-34668062D01*
X49987971Y-34647443D01*
X49998124Y-34628447D01*
X50011792Y-34611792D01*
X50028447Y-34598124D01*
X50047443Y-34587971D01*
X50068062Y-34581716D01*
X50095640Y-34579000D01*
X50604360Y-34579000D01*
X50631938Y-34581716D01*
G37*
G36*
X49631938Y-34541716D02*
G01*
X49652557Y-34547971D01*
X49671553Y-34558124D01*
X49688208Y-34571792D01*
X49701876Y-34588447D01*
X49712029Y-34607443D01*
X49718284Y-34628062D01*
X49721000Y-34655640D01*
X49721000Y-35114360D01*
X49718284Y-35141938D01*
X49712029Y-35162557D01*
X49701876Y-35181553D01*
X49688208Y-35198208D01*
X49671553Y-35211876D01*
X49652557Y-35222029D01*
X49631938Y-35228284D01*
X49604360Y-35231000D01*
X49095640Y-35231000D01*
X49068062Y-35228284D01*
X49047443Y-35222029D01*
X49028447Y-35211876D01*
X49011792Y-35198208D01*
X48998124Y-35181553D01*
X48987971Y-35162557D01*
X48981716Y-35141938D01*
X48979000Y-35114360D01*
X48979000Y-34655640D01*
X48981716Y-34628062D01*
X48987971Y-34607443D01*
X48998124Y-34588447D01*
X49011792Y-34571792D01*
X49028447Y-34558124D01*
X49047443Y-34547971D01*
X49068062Y-34541716D01*
X49095640Y-34539000D01*
X49604360Y-34539000D01*
X49631938Y-34541716D01*
G37*
G36*
X59651000Y-35186000D02*
G01*
X55949000Y-35186000D01*
X55949000Y-33814000D01*
X59651000Y-33814000D01*
X59651000Y-35186000D01*
G37*
G36*
X23713500Y-34301000D02*
G01*
X21711500Y-34301000D01*
X21711500Y-32699000D01*
X23713500Y-32699000D01*
X23713500Y-34301000D01*
G37*
G36*
X50606938Y-33531716D02*
G01*
X50627557Y-33537971D01*
X50646553Y-33548124D01*
X50663208Y-33561792D01*
X50676876Y-33578447D01*
X50687029Y-33597443D01*
X50693284Y-33618062D01*
X50696000Y-33645640D01*
X50696000Y-34154360D01*
X50693284Y-34181938D01*
X50687029Y-34202557D01*
X50676876Y-34221553D01*
X50663208Y-34238208D01*
X50646553Y-34251876D01*
X50627557Y-34262029D01*
X50606938Y-34268284D01*
X50579360Y-34271000D01*
X50120640Y-34271000D01*
X50093062Y-34268284D01*
X50072443Y-34262029D01*
X50053447Y-34251876D01*
X50036792Y-34238208D01*
X50023124Y-34221553D01*
X50012971Y-34202557D01*
X50006716Y-34181938D01*
X50004000Y-34154360D01*
X50004000Y-33645640D01*
X50006716Y-33618062D01*
X50012971Y-33597443D01*
X50023124Y-33578447D01*
X50036792Y-33561792D01*
X50053447Y-33548124D01*
X50072443Y-33537971D01*
X50093062Y-33531716D01*
X50120640Y-33529000D01*
X50579360Y-33529000D01*
X50606938Y-33531716D01*
G37*
G36*
X53526938Y-33531716D02*
G01*
X53547557Y-33537971D01*
X53566553Y-33548124D01*
X53583208Y-33561792D01*
X53596876Y-33578447D01*
X53607029Y-33597443D01*
X53613284Y-33618062D01*
X53616000Y-33645640D01*
X53616000Y-34154360D01*
X53613284Y-34181938D01*
X53607029Y-34202557D01*
X53596876Y-34221553D01*
X53583208Y-34238208D01*
X53566553Y-34251876D01*
X53547557Y-34262029D01*
X53526938Y-34268284D01*
X53499360Y-34271000D01*
X53040640Y-34271000D01*
X53013062Y-34268284D01*
X52992443Y-34262029D01*
X52973447Y-34251876D01*
X52956792Y-34238208D01*
X52943124Y-34221553D01*
X52932971Y-34202557D01*
X52926716Y-34181938D01*
X52924000Y-34154360D01*
X52924000Y-33645640D01*
X52926716Y-33618062D01*
X52932971Y-33597443D01*
X52943124Y-33578447D01*
X52956792Y-33561792D01*
X52973447Y-33548124D01*
X52992443Y-33537971D01*
X53013062Y-33531716D01*
X53040640Y-33529000D01*
X53499360Y-33529000D01*
X53526938Y-33531716D01*
G37*
G36*
X52556938Y-33531716D02*
G01*
X52577557Y-33537971D01*
X52596553Y-33548124D01*
X52613208Y-33561792D01*
X52626876Y-33578447D01*
X52637029Y-33597443D01*
X52643284Y-33618062D01*
X52646000Y-33645640D01*
X52646000Y-34154360D01*
X52643284Y-34181938D01*
X52637029Y-34202557D01*
X52626876Y-34221553D01*
X52613208Y-34238208D01*
X52596553Y-34251876D01*
X52577557Y-34262029D01*
X52556938Y-34268284D01*
X52529360Y-34271000D01*
X52070640Y-34271000D01*
X52043062Y-34268284D01*
X52022443Y-34262029D01*
X52003447Y-34251876D01*
X51986792Y-34238208D01*
X51973124Y-34221553D01*
X51962971Y-34202557D01*
X51956716Y-34181938D01*
X51954000Y-34154360D01*
X51954000Y-33645640D01*
X51956716Y-33618062D01*
X51962971Y-33597443D01*
X51973124Y-33578447D01*
X51986792Y-33561792D01*
X52003447Y-33548124D01*
X52022443Y-33537971D01*
X52043062Y-33531716D01*
X52070640Y-33529000D01*
X52529360Y-33529000D01*
X52556938Y-33531716D01*
G37*
G36*
X51576938Y-33531716D02*
G01*
X51597557Y-33537971D01*
X51616553Y-33548124D01*
X51633208Y-33561792D01*
X51646876Y-33578447D01*
X51657029Y-33597443D01*
X51663284Y-33618062D01*
X51666000Y-33645640D01*
X51666000Y-34154360D01*
X51663284Y-34181938D01*
X51657029Y-34202557D01*
X51646876Y-34221553D01*
X51633208Y-34238208D01*
X51616553Y-34251876D01*
X51597557Y-34262029D01*
X51576938Y-34268284D01*
X51549360Y-34271000D01*
X51090640Y-34271000D01*
X51063062Y-34268284D01*
X51042443Y-34262029D01*
X51023447Y-34251876D01*
X51006792Y-34238208D01*
X50993124Y-34221553D01*
X50982971Y-34202557D01*
X50976716Y-34181938D01*
X50974000Y-34154360D01*
X50974000Y-33645640D01*
X50976716Y-33618062D01*
X50982971Y-33597443D01*
X50993124Y-33578447D01*
X51006792Y-33561792D01*
X51023447Y-33548124D01*
X51042443Y-33537971D01*
X51063062Y-33531716D01*
X51090640Y-33529000D01*
X51549360Y-33529000D01*
X51576938Y-33531716D01*
G37*
G36*
X49631938Y-33571716D02*
G01*
X49652557Y-33577971D01*
X49671553Y-33588124D01*
X49688208Y-33601792D01*
X49701876Y-33618447D01*
X49712029Y-33637443D01*
X49718284Y-33658062D01*
X49721000Y-33685640D01*
X49721000Y-34144360D01*
X49718284Y-34171938D01*
X49712029Y-34192557D01*
X49701876Y-34211553D01*
X49688208Y-34228208D01*
X49671553Y-34241876D01*
X49652557Y-34252029D01*
X49631938Y-34258284D01*
X49604360Y-34261000D01*
X49095640Y-34261000D01*
X49068062Y-34258284D01*
X49047443Y-34252029D01*
X49028447Y-34241876D01*
X49011792Y-34228208D01*
X48998124Y-34211553D01*
X48987971Y-34192557D01*
X48981716Y-34171938D01*
X48979000Y-34144360D01*
X48979000Y-33685640D01*
X48981716Y-33658062D01*
X48987971Y-33637443D01*
X48998124Y-33618447D01*
X49011792Y-33601792D01*
X49028447Y-33588124D01*
X49047443Y-33577971D01*
X49068062Y-33571716D01*
X49095640Y-33569000D01*
X49604360Y-33569000D01*
X49631938Y-33571716D01*
G37*
G36*
X54581938Y-33556716D02*
G01*
X54602557Y-33562971D01*
X54621553Y-33573124D01*
X54638208Y-33586792D01*
X54651876Y-33603447D01*
X54662029Y-33622443D01*
X54668284Y-33643062D01*
X54671000Y-33670640D01*
X54671000Y-34129360D01*
X54668284Y-34156938D01*
X54662029Y-34177557D01*
X54651876Y-34196553D01*
X54638208Y-34213208D01*
X54621553Y-34226876D01*
X54602557Y-34237029D01*
X54581938Y-34243284D01*
X54554360Y-34246000D01*
X54045640Y-34246000D01*
X54018062Y-34243284D01*
X53997443Y-34237029D01*
X53978447Y-34226876D01*
X53961792Y-34213208D01*
X53948124Y-34196553D01*
X53937971Y-34177557D01*
X53931716Y-34156938D01*
X53929000Y-34129360D01*
X53929000Y-33670640D01*
X53931716Y-33643062D01*
X53937971Y-33622443D01*
X53948124Y-33603447D01*
X53961792Y-33586792D01*
X53978447Y-33573124D01*
X53997443Y-33562971D01*
X54018062Y-33556716D01*
X54045640Y-33554000D01*
X54554360Y-33554000D01*
X54581938Y-33556716D01*
G37*
G36*
X54581938Y-32586716D02*
G01*
X54602557Y-32592971D01*
X54621553Y-32603124D01*
X54638208Y-32616792D01*
X54651876Y-32633447D01*
X54662029Y-32652443D01*
X54668284Y-32673062D01*
X54671000Y-32700640D01*
X54671000Y-33159360D01*
X54668284Y-33186938D01*
X54662029Y-33207557D01*
X54651876Y-33226553D01*
X54638208Y-33243208D01*
X54621553Y-33256876D01*
X54602557Y-33267029D01*
X54581938Y-33273284D01*
X54554360Y-33276000D01*
X54045640Y-33276000D01*
X54018062Y-33273284D01*
X53997443Y-33267029D01*
X53978447Y-33256876D01*
X53961792Y-33243208D01*
X53948124Y-33226553D01*
X53937971Y-33207557D01*
X53931716Y-33186938D01*
X53929000Y-33159360D01*
X53929000Y-32700640D01*
X53931716Y-32673062D01*
X53937971Y-32652443D01*
X53948124Y-32633447D01*
X53961792Y-32616792D01*
X53978447Y-32603124D01*
X53997443Y-32592971D01*
X54018062Y-32586716D01*
X54045640Y-32584000D01*
X54554360Y-32584000D01*
X54581938Y-32586716D01*
G37*
G36*
X30101000Y-32741000D02*
G01*
X29199000Y-32741000D01*
X29199000Y-31739000D01*
X30101000Y-31739000D01*
X30101000Y-32741000D01*
G37*
G36*
X32001000Y-32741000D02*
G01*
X31099000Y-32741000D01*
X31099000Y-31739000D01*
X32001000Y-31739000D01*
X32001000Y-32741000D01*
G37*
G36*
X28389591Y-31760585D02*
G01*
X28423569Y-31770893D01*
X28454890Y-31787634D01*
X28482339Y-31810161D01*
X28504866Y-31837610D01*
X28521607Y-31868931D01*
X28531915Y-31902909D01*
X28536000Y-31944390D01*
X28536000Y-32545610D01*
X28531915Y-32587091D01*
X28521607Y-32621069D01*
X28504866Y-32652390D01*
X28482339Y-32679839D01*
X28454890Y-32702366D01*
X28423569Y-32719107D01*
X28389591Y-32729415D01*
X28348110Y-32733500D01*
X27671890Y-32733500D01*
X27630409Y-32729415D01*
X27596431Y-32719107D01*
X27565110Y-32702366D01*
X27537661Y-32679839D01*
X27515134Y-32652390D01*
X27498393Y-32621069D01*
X27488085Y-32587091D01*
X27484000Y-32545610D01*
X27484000Y-31944390D01*
X27488085Y-31902909D01*
X27498393Y-31868931D01*
X27515134Y-31837610D01*
X27537661Y-31810161D01*
X27565110Y-31787634D01*
X27596431Y-31770893D01*
X27630409Y-31760585D01*
X27671890Y-31756500D01*
X28348110Y-31756500D01*
X28389591Y-31760585D01*
G37*
G36*
X33559591Y-31755585D02*
G01*
X33593569Y-31765893D01*
X33624890Y-31782634D01*
X33652339Y-31805161D01*
X33674866Y-31832610D01*
X33691607Y-31863931D01*
X33701915Y-31897909D01*
X33706000Y-31939390D01*
X33706000Y-32540610D01*
X33701915Y-32582091D01*
X33691607Y-32616069D01*
X33674866Y-32647390D01*
X33652339Y-32674839D01*
X33624890Y-32697366D01*
X33593569Y-32714107D01*
X33559591Y-32724415D01*
X33518110Y-32728500D01*
X32841890Y-32728500D01*
X32800409Y-32724415D01*
X32766431Y-32714107D01*
X32735110Y-32697366D01*
X32707661Y-32674839D01*
X32685134Y-32647390D01*
X32668393Y-32616069D01*
X32658085Y-32582091D01*
X32654000Y-32540610D01*
X32654000Y-31939390D01*
X32658085Y-31897909D01*
X32668393Y-31863931D01*
X32685134Y-31832610D01*
X32707661Y-31805161D01*
X32735110Y-31782634D01*
X32766431Y-31765893D01*
X32800409Y-31755585D01*
X32841890Y-31751500D01*
X33518110Y-31751500D01*
X33559591Y-31755585D01*
G37*
G36*
X59751000Y-32401000D02*
G01*
X55449000Y-32401000D01*
X55449000Y-30949000D01*
X59751000Y-30949000D01*
X59751000Y-32401000D01*
G37*
G36*
X23126355Y-30352140D02*
G01*
X23190118Y-30358420D01*
X23280904Y-30385960D01*
X23312836Y-30395646D01*
X23425925Y-30456094D01*
X23525054Y-30537446D01*
X23606406Y-30636575D01*
X23666854Y-30749664D01*
X23666855Y-30749668D01*
X23700413Y-30860292D01*
X23709787Y-30882925D01*
X23713500Y-30888482D01*
X23713500Y-30961886D01*
X23714102Y-30974138D01*
X23716649Y-31000000D01*
X23714102Y-31025862D01*
X23713500Y-31038114D01*
X23713500Y-32251000D01*
X21711500Y-32251000D01*
X21711500Y-31038114D01*
X21710898Y-31025862D01*
X21708351Y-31000000D01*
X21710898Y-30974138D01*
X21711500Y-30961886D01*
X21711500Y-30888594D01*
X21720457Y-30871836D01*
X21724585Y-30860299D01*
X21758145Y-30749668D01*
X21758146Y-30749664D01*
X21818594Y-30636575D01*
X21899946Y-30537446D01*
X21999075Y-30456094D01*
X22112164Y-30395646D01*
X22144096Y-30385960D01*
X22234882Y-30358420D01*
X22298645Y-30352140D01*
X22330526Y-30349000D01*
X23094474Y-30349000D01*
X23126355Y-30352140D01*
G37*
G36*
X46816938Y-30506716D02*
G01*
X46837557Y-30512971D01*
X46856553Y-30523124D01*
X46873208Y-30536792D01*
X46886876Y-30553447D01*
X46897029Y-30572443D01*
X46903284Y-30593062D01*
X46906000Y-30620640D01*
X46906000Y-31129360D01*
X46903284Y-31156938D01*
X46897029Y-31177557D01*
X46886876Y-31196553D01*
X46873208Y-31213208D01*
X46856553Y-31226876D01*
X46837557Y-31237029D01*
X46816938Y-31243284D01*
X46789360Y-31246000D01*
X46330640Y-31246000D01*
X46303062Y-31243284D01*
X46282443Y-31237029D01*
X46263447Y-31226876D01*
X46246792Y-31213208D01*
X46233124Y-31196553D01*
X46222971Y-31177557D01*
X46216716Y-31156938D01*
X46214000Y-31129360D01*
X46214000Y-30620640D01*
X46216716Y-30593062D01*
X46222971Y-30572443D01*
X46233124Y-30553447D01*
X46246792Y-30536792D01*
X46263447Y-30523124D01*
X46282443Y-30512971D01*
X46303062Y-30506716D01*
X46330640Y-30504000D01*
X46789360Y-30504000D01*
X46816938Y-30506716D01*
G37*
G36*
X45846938Y-30506716D02*
G01*
X45867557Y-30512971D01*
X45886553Y-30523124D01*
X45903208Y-30536792D01*
X45916876Y-30553447D01*
X45927029Y-30572443D01*
X45933284Y-30593062D01*
X45936000Y-30620640D01*
X45936000Y-31129360D01*
X45933284Y-31156938D01*
X45927029Y-31177557D01*
X45916876Y-31196553D01*
X45903208Y-31213208D01*
X45886553Y-31226876D01*
X45867557Y-31237029D01*
X45846938Y-31243284D01*
X45819360Y-31246000D01*
X45360640Y-31246000D01*
X45333062Y-31243284D01*
X45312443Y-31237029D01*
X45293447Y-31226876D01*
X45276792Y-31213208D01*
X45263124Y-31196553D01*
X45252971Y-31177557D01*
X45246716Y-31156938D01*
X45244000Y-31129360D01*
X45244000Y-30620640D01*
X45246716Y-30593062D01*
X45252971Y-30572443D01*
X45263124Y-30553447D01*
X45276792Y-30536792D01*
X45293447Y-30523124D01*
X45312443Y-30512971D01*
X45333062Y-30506716D01*
X45360640Y-30504000D01*
X45819360Y-30504000D01*
X45846938Y-30506716D01*
G37*
G36*
X44856938Y-30506716D02*
G01*
X44877557Y-30512971D01*
X44896553Y-30523124D01*
X44913208Y-30536792D01*
X44926876Y-30553447D01*
X44937029Y-30572443D01*
X44943284Y-30593062D01*
X44946000Y-30620640D01*
X44946000Y-31129360D01*
X44943284Y-31156938D01*
X44937029Y-31177557D01*
X44926876Y-31196553D01*
X44913208Y-31213208D01*
X44896553Y-31226876D01*
X44877557Y-31237029D01*
X44856938Y-31243284D01*
X44829360Y-31246000D01*
X44370640Y-31246000D01*
X44343062Y-31243284D01*
X44322443Y-31237029D01*
X44303447Y-31226876D01*
X44286792Y-31213208D01*
X44273124Y-31196553D01*
X44262971Y-31177557D01*
X44256716Y-31156938D01*
X44254000Y-31129360D01*
X44254000Y-30620640D01*
X44256716Y-30593062D01*
X44262971Y-30572443D01*
X44273124Y-30553447D01*
X44286792Y-30536792D01*
X44303447Y-30523124D01*
X44322443Y-30512971D01*
X44343062Y-30506716D01*
X44370640Y-30504000D01*
X44829360Y-30504000D01*
X44856938Y-30506716D01*
G37*
G36*
X43886938Y-30506716D02*
G01*
X43907557Y-30512971D01*
X43926553Y-30523124D01*
X43943208Y-30536792D01*
X43956876Y-30553447D01*
X43967029Y-30572443D01*
X43973284Y-30593062D01*
X43976000Y-30620640D01*
X43976000Y-31129360D01*
X43973284Y-31156938D01*
X43967029Y-31177557D01*
X43956876Y-31196553D01*
X43943208Y-31213208D01*
X43926553Y-31226876D01*
X43907557Y-31237029D01*
X43886938Y-31243284D01*
X43859360Y-31246000D01*
X43400640Y-31246000D01*
X43373062Y-31243284D01*
X43352443Y-31237029D01*
X43333447Y-31226876D01*
X43316792Y-31213208D01*
X43303124Y-31196553D01*
X43292971Y-31177557D01*
X43286716Y-31156938D01*
X43284000Y-31129360D01*
X43284000Y-30620640D01*
X43286716Y-30593062D01*
X43292971Y-30572443D01*
X43303124Y-30553447D01*
X43316792Y-30536792D01*
X43333447Y-30523124D01*
X43352443Y-30512971D01*
X43373062Y-30506716D01*
X43400640Y-30504000D01*
X43859360Y-30504000D01*
X43886938Y-30506716D01*
G37*
G36*
X48906938Y-30556716D02*
G01*
X48927557Y-30562971D01*
X48946553Y-30573124D01*
X48963208Y-30586792D01*
X48976876Y-30603447D01*
X48987029Y-30622443D01*
X48993284Y-30643062D01*
X48996000Y-30670640D01*
X48996000Y-31129360D01*
X48993284Y-31156938D01*
X48987029Y-31177557D01*
X48976876Y-31196553D01*
X48963208Y-31213208D01*
X48946553Y-31226876D01*
X48927557Y-31237029D01*
X48906938Y-31243284D01*
X48879360Y-31246000D01*
X48370640Y-31246000D01*
X48343062Y-31243284D01*
X48322443Y-31237029D01*
X48303447Y-31226876D01*
X48286792Y-31213208D01*
X48273124Y-31196553D01*
X48262971Y-31177557D01*
X48256716Y-31156938D01*
X48254000Y-31129360D01*
X48254000Y-30670640D01*
X48256716Y-30643062D01*
X48262971Y-30622443D01*
X48273124Y-30603447D01*
X48286792Y-30586792D01*
X48303447Y-30573124D01*
X48322443Y-30562971D01*
X48343062Y-30556716D01*
X48370640Y-30554000D01*
X48879360Y-30554000D01*
X48906938Y-30556716D01*
G37*
G36*
X47856938Y-30551716D02*
G01*
X47877557Y-30557971D01*
X47896553Y-30568124D01*
X47913208Y-30581792D01*
X47926876Y-30598447D01*
X47937029Y-30617443D01*
X47943284Y-30638062D01*
X47946000Y-30665640D01*
X47946000Y-31124360D01*
X47943284Y-31151938D01*
X47937029Y-31172557D01*
X47926876Y-31191553D01*
X47913208Y-31208208D01*
X47896553Y-31221876D01*
X47877557Y-31232029D01*
X47856938Y-31238284D01*
X47829360Y-31241000D01*
X47320640Y-31241000D01*
X47293062Y-31238284D01*
X47272443Y-31232029D01*
X47253447Y-31221876D01*
X47236792Y-31208208D01*
X47223124Y-31191553D01*
X47212971Y-31172557D01*
X47206716Y-31151938D01*
X47204000Y-31124360D01*
X47204000Y-30665640D01*
X47206716Y-30638062D01*
X47212971Y-30617443D01*
X47223124Y-30598447D01*
X47236792Y-30581792D01*
X47253447Y-30568124D01*
X47272443Y-30557971D01*
X47293062Y-30551716D01*
X47320640Y-30549000D01*
X47829360Y-30549000D01*
X47856938Y-30551716D01*
G37*
G36*
X28389591Y-30185585D02*
G01*
X28423569Y-30195893D01*
X28454890Y-30212634D01*
X28482339Y-30235161D01*
X28504866Y-30262610D01*
X28521607Y-30293931D01*
X28531915Y-30327909D01*
X28536000Y-30369390D01*
X28536000Y-30970610D01*
X28531915Y-31012091D01*
X28521607Y-31046069D01*
X28504866Y-31077390D01*
X28482339Y-31104839D01*
X28454890Y-31127366D01*
X28423569Y-31144107D01*
X28389591Y-31154415D01*
X28348110Y-31158500D01*
X27671890Y-31158500D01*
X27630409Y-31154415D01*
X27596431Y-31144107D01*
X27565110Y-31127366D01*
X27537661Y-31104839D01*
X27515134Y-31077390D01*
X27498393Y-31046069D01*
X27488085Y-31012091D01*
X27484000Y-30970610D01*
X27484000Y-30369390D01*
X27488085Y-30327909D01*
X27498393Y-30293931D01*
X27515134Y-30262610D01*
X27537661Y-30235161D01*
X27565110Y-30212634D01*
X27596431Y-30195893D01*
X27630409Y-30185585D01*
X27671890Y-30181500D01*
X28348110Y-30181500D01*
X28389591Y-30185585D01*
G37*
G36*
X33559591Y-30180585D02*
G01*
X33593569Y-30190893D01*
X33624890Y-30207634D01*
X33652339Y-30230161D01*
X33674866Y-30257610D01*
X33691607Y-30288931D01*
X33701915Y-30322909D01*
X33706000Y-30364390D01*
X33706000Y-30965610D01*
X33701915Y-31007091D01*
X33691607Y-31041069D01*
X33674866Y-31072390D01*
X33652339Y-31099839D01*
X33624890Y-31122366D01*
X33593569Y-31139107D01*
X33559591Y-31149415D01*
X33518110Y-31153500D01*
X32841890Y-31153500D01*
X32800409Y-31149415D01*
X32766431Y-31139107D01*
X32735110Y-31122366D01*
X32707661Y-31099839D01*
X32685134Y-31072390D01*
X32668393Y-31041069D01*
X32658085Y-31007091D01*
X32654000Y-30965610D01*
X32654000Y-30364390D01*
X32658085Y-30322909D01*
X32668393Y-30288931D01*
X32685134Y-30257610D01*
X32707661Y-30230161D01*
X32735110Y-30207634D01*
X32766431Y-30190893D01*
X32800409Y-30180585D01*
X32841890Y-30176500D01*
X33518110Y-30176500D01*
X33559591Y-30180585D01*
G37*
G36*
X38281938Y-30431716D02*
G01*
X38302557Y-30437971D01*
X38321553Y-30448124D01*
X38338208Y-30461792D01*
X38351876Y-30478447D01*
X38362029Y-30497443D01*
X38368284Y-30518062D01*
X38371000Y-30545640D01*
X38371000Y-31004360D01*
X38368284Y-31031938D01*
X38362029Y-31052557D01*
X38351876Y-31071553D01*
X38338208Y-31088208D01*
X38321553Y-31101876D01*
X38302557Y-31112029D01*
X38281938Y-31118284D01*
X38254360Y-31121000D01*
X37745640Y-31121000D01*
X37718062Y-31118284D01*
X37697443Y-31112029D01*
X37678447Y-31101876D01*
X37661792Y-31088208D01*
X37648124Y-31071553D01*
X37637971Y-31052557D01*
X37631716Y-31031938D01*
X37629000Y-31004360D01*
X37629000Y-30545640D01*
X37631716Y-30518062D01*
X37637971Y-30497443D01*
X37648124Y-30478447D01*
X37661792Y-30461792D01*
X37678447Y-30448124D01*
X37697443Y-30437971D01*
X37718062Y-30431716D01*
X37745640Y-30429000D01*
X38254360Y-30429000D01*
X38281938Y-30431716D01*
G37*
G36*
X39956938Y-30431716D02*
G01*
X39977557Y-30437971D01*
X39996553Y-30448124D01*
X40013208Y-30461792D01*
X40026876Y-30478447D01*
X40037029Y-30497443D01*
X40043284Y-30518062D01*
X40046000Y-30545640D01*
X40046000Y-31004360D01*
X40043284Y-31031938D01*
X40037029Y-31052557D01*
X40026876Y-31071553D01*
X40013208Y-31088208D01*
X39996553Y-31101876D01*
X39977557Y-31112029D01*
X39956938Y-31118284D01*
X39929360Y-31121000D01*
X39420640Y-31121000D01*
X39393062Y-31118284D01*
X39372443Y-31112029D01*
X39353447Y-31101876D01*
X39336792Y-31088208D01*
X39323124Y-31071553D01*
X39312971Y-31052557D01*
X39306716Y-31031938D01*
X39304000Y-31004360D01*
X39304000Y-30545640D01*
X39306716Y-30518062D01*
X39312971Y-30497443D01*
X39323124Y-30478447D01*
X39336792Y-30461792D01*
X39353447Y-30448124D01*
X39372443Y-30437971D01*
X39393062Y-30431716D01*
X39420640Y-30429000D01*
X39929360Y-30429000D01*
X39956938Y-30431716D01*
G37*
G36*
X41006938Y-30431716D02*
G01*
X41027557Y-30437971D01*
X41046553Y-30448124D01*
X41063208Y-30461792D01*
X41076876Y-30478447D01*
X41087029Y-30497443D01*
X41093284Y-30518062D01*
X41096000Y-30545640D01*
X41096000Y-31004360D01*
X41093284Y-31031938D01*
X41087029Y-31052557D01*
X41076876Y-31071553D01*
X41063208Y-31088208D01*
X41046553Y-31101876D01*
X41027557Y-31112029D01*
X41006938Y-31118284D01*
X40979360Y-31121000D01*
X40470640Y-31121000D01*
X40443062Y-31118284D01*
X40422443Y-31112029D01*
X40403447Y-31101876D01*
X40386792Y-31088208D01*
X40373124Y-31071553D01*
X40362971Y-31052557D01*
X40356716Y-31031938D01*
X40354000Y-31004360D01*
X40354000Y-30545640D01*
X40356716Y-30518062D01*
X40362971Y-30497443D01*
X40373124Y-30478447D01*
X40386792Y-30461792D01*
X40403447Y-30448124D01*
X40422443Y-30437971D01*
X40443062Y-30431716D01*
X40470640Y-30429000D01*
X40979360Y-30429000D01*
X41006938Y-30431716D01*
G37*
G36*
X42056938Y-30426716D02*
G01*
X42077557Y-30432971D01*
X42096553Y-30443124D01*
X42113208Y-30456792D01*
X42126876Y-30473447D01*
X42137029Y-30492443D01*
X42143284Y-30513062D01*
X42146000Y-30540640D01*
X42146000Y-30999360D01*
X42143284Y-31026938D01*
X42137029Y-31047557D01*
X42126876Y-31066553D01*
X42113208Y-31083208D01*
X42096553Y-31096876D01*
X42077557Y-31107029D01*
X42056938Y-31113284D01*
X42029360Y-31116000D01*
X41520640Y-31116000D01*
X41493062Y-31113284D01*
X41472443Y-31107029D01*
X41453447Y-31096876D01*
X41436792Y-31083208D01*
X41423124Y-31066553D01*
X41412971Y-31047557D01*
X41406716Y-31026938D01*
X41404000Y-30999360D01*
X41404000Y-30540640D01*
X41406716Y-30513062D01*
X41412971Y-30492443D01*
X41423124Y-30473447D01*
X41436792Y-30456792D01*
X41453447Y-30443124D01*
X41472443Y-30432971D01*
X41493062Y-30426716D01*
X41520640Y-30424000D01*
X42029360Y-30424000D01*
X42056938Y-30426716D01*
G37*
G36*
X31051000Y-30741000D02*
G01*
X30149000Y-30741000D01*
X30149000Y-29739000D01*
X31051000Y-29739000D01*
X31051000Y-30741000D01*
G37*
G36*
X35279591Y-29715585D02*
G01*
X35313569Y-29725893D01*
X35344890Y-29742634D01*
X35372339Y-29765161D01*
X35394866Y-29792610D01*
X35411607Y-29823931D01*
X35421915Y-29857909D01*
X35426000Y-29899390D01*
X35426000Y-30500610D01*
X35421915Y-30542091D01*
X35411607Y-30576069D01*
X35394866Y-30607390D01*
X35372339Y-30634839D01*
X35344890Y-30657366D01*
X35313569Y-30674107D01*
X35279591Y-30684415D01*
X35238110Y-30688500D01*
X34561890Y-30688500D01*
X34520409Y-30684415D01*
X34486431Y-30674107D01*
X34455110Y-30657366D01*
X34427661Y-30634839D01*
X34405134Y-30607390D01*
X34388393Y-30576069D01*
X34378085Y-30542091D01*
X34374000Y-30500610D01*
X34374000Y-29899390D01*
X34378085Y-29857909D01*
X34388393Y-29823931D01*
X34405134Y-29792610D01*
X34427661Y-29765161D01*
X34455110Y-29742634D01*
X34486431Y-29725893D01*
X34520409Y-29715585D01*
X34561890Y-29711500D01*
X35238110Y-29711500D01*
X35279591Y-29715585D01*
G37*
G36*
X36979591Y-29715585D02*
G01*
X37013569Y-29725893D01*
X37044890Y-29742634D01*
X37072339Y-29765161D01*
X37094866Y-29792610D01*
X37111607Y-29823931D01*
X37121915Y-29857909D01*
X37126000Y-29899390D01*
X37126000Y-30500610D01*
X37121915Y-30542091D01*
X37111607Y-30576069D01*
X37094866Y-30607390D01*
X37072339Y-30634839D01*
X37044890Y-30657366D01*
X37013569Y-30674107D01*
X36979591Y-30684415D01*
X36938110Y-30688500D01*
X36261890Y-30688500D01*
X36220409Y-30684415D01*
X36186431Y-30674107D01*
X36155110Y-30657366D01*
X36127661Y-30634839D01*
X36105134Y-30607390D01*
X36088393Y-30576069D01*
X36078085Y-30542091D01*
X36074000Y-30500610D01*
X36074000Y-29899390D01*
X36078085Y-29857909D01*
X36088393Y-29823931D01*
X36105134Y-29792610D01*
X36127661Y-29765161D01*
X36155110Y-29742634D01*
X36186431Y-29725893D01*
X36220409Y-29715585D01*
X36261890Y-29711500D01*
X36938110Y-29711500D01*
X36979591Y-29715585D01*
G37*
G36*
X48906938Y-29586716D02*
G01*
X48927557Y-29592971D01*
X48946553Y-29603124D01*
X48963208Y-29616792D01*
X48976876Y-29633447D01*
X48987029Y-29652443D01*
X48993284Y-29673062D01*
X48996000Y-29700640D01*
X48996000Y-30159360D01*
X48993284Y-30186938D01*
X48987029Y-30207557D01*
X48976876Y-30226553D01*
X48963208Y-30243208D01*
X48946553Y-30256876D01*
X48927557Y-30267029D01*
X48906938Y-30273284D01*
X48879360Y-30276000D01*
X48370640Y-30276000D01*
X48343062Y-30273284D01*
X48322443Y-30267029D01*
X48303447Y-30256876D01*
X48286792Y-30243208D01*
X48273124Y-30226553D01*
X48262971Y-30207557D01*
X48256716Y-30186938D01*
X48254000Y-30159360D01*
X48254000Y-29700640D01*
X48256716Y-29673062D01*
X48262971Y-29652443D01*
X48273124Y-29633447D01*
X48286792Y-29616792D01*
X48303447Y-29603124D01*
X48322443Y-29592971D01*
X48343062Y-29586716D01*
X48370640Y-29584000D01*
X48879360Y-29584000D01*
X48906938Y-29586716D01*
G37*
G36*
X47856938Y-29581716D02*
G01*
X47877557Y-29587971D01*
X47896553Y-29598124D01*
X47913208Y-29611792D01*
X47926876Y-29628447D01*
X47937029Y-29647443D01*
X47943284Y-29668062D01*
X47946000Y-29695640D01*
X47946000Y-30154360D01*
X47943284Y-30181938D01*
X47937029Y-30202557D01*
X47926876Y-30221553D01*
X47913208Y-30238208D01*
X47896553Y-30251876D01*
X47877557Y-30262029D01*
X47856938Y-30268284D01*
X47829360Y-30271000D01*
X47320640Y-30271000D01*
X47293062Y-30268284D01*
X47272443Y-30262029D01*
X47253447Y-30251876D01*
X47236792Y-30238208D01*
X47223124Y-30221553D01*
X47212971Y-30202557D01*
X47206716Y-30181938D01*
X47204000Y-30154360D01*
X47204000Y-29695640D01*
X47206716Y-29668062D01*
X47212971Y-29647443D01*
X47223124Y-29628447D01*
X47236792Y-29611792D01*
X47253447Y-29598124D01*
X47272443Y-29587971D01*
X47293062Y-29581716D01*
X47320640Y-29579000D01*
X47829360Y-29579000D01*
X47856938Y-29581716D01*
G37*
G36*
X41006938Y-29461716D02*
G01*
X41027557Y-29467971D01*
X41046553Y-29478124D01*
X41063208Y-29491792D01*
X41076876Y-29508447D01*
X41087029Y-29527443D01*
X41093284Y-29548062D01*
X41096000Y-29575640D01*
X41096000Y-30034360D01*
X41093284Y-30061938D01*
X41087029Y-30082557D01*
X41076876Y-30101553D01*
X41063208Y-30118208D01*
X41046553Y-30131876D01*
X41027557Y-30142029D01*
X41006938Y-30148284D01*
X40979360Y-30151000D01*
X40470640Y-30151000D01*
X40443062Y-30148284D01*
X40422443Y-30142029D01*
X40403447Y-30131876D01*
X40386792Y-30118208D01*
X40373124Y-30101553D01*
X40362971Y-30082557D01*
X40356716Y-30061938D01*
X40354000Y-30034360D01*
X40354000Y-29575640D01*
X40356716Y-29548062D01*
X40362971Y-29527443D01*
X40373124Y-29508447D01*
X40386792Y-29491792D01*
X40403447Y-29478124D01*
X40422443Y-29467971D01*
X40443062Y-29461716D01*
X40470640Y-29459000D01*
X40979360Y-29459000D01*
X41006938Y-29461716D01*
G37*
G36*
X39956938Y-29461716D02*
G01*
X39977557Y-29467971D01*
X39996553Y-29478124D01*
X40013208Y-29491792D01*
X40026876Y-29508447D01*
X40037029Y-29527443D01*
X40043284Y-29548062D01*
X40046000Y-29575640D01*
X40046000Y-30034360D01*
X40043284Y-30061938D01*
X40037029Y-30082557D01*
X40026876Y-30101553D01*
X40013208Y-30118208D01*
X39996553Y-30131876D01*
X39977557Y-30142029D01*
X39956938Y-30148284D01*
X39929360Y-30151000D01*
X39420640Y-30151000D01*
X39393062Y-30148284D01*
X39372443Y-30142029D01*
X39353447Y-30131876D01*
X39336792Y-30118208D01*
X39323124Y-30101553D01*
X39312971Y-30082557D01*
X39306716Y-30061938D01*
X39304000Y-30034360D01*
X39304000Y-29575640D01*
X39306716Y-29548062D01*
X39312971Y-29527443D01*
X39323124Y-29508447D01*
X39336792Y-29491792D01*
X39353447Y-29478124D01*
X39372443Y-29467971D01*
X39393062Y-29461716D01*
X39420640Y-29459000D01*
X39929360Y-29459000D01*
X39956938Y-29461716D01*
G37*
G36*
X38281938Y-29461716D02*
G01*
X38302557Y-29467971D01*
X38321553Y-29478124D01*
X38338208Y-29491792D01*
X38351876Y-29508447D01*
X38362029Y-29527443D01*
X38368284Y-29548062D01*
X38371000Y-29575640D01*
X38371000Y-30034360D01*
X38368284Y-30061938D01*
X38362029Y-30082557D01*
X38351876Y-30101553D01*
X38338208Y-30118208D01*
X38321553Y-30131876D01*
X38302557Y-30142029D01*
X38281938Y-30148284D01*
X38254360Y-30151000D01*
X37745640Y-30151000D01*
X37718062Y-30148284D01*
X37697443Y-30142029D01*
X37678447Y-30131876D01*
X37661792Y-30118208D01*
X37648124Y-30101553D01*
X37637971Y-30082557D01*
X37631716Y-30061938D01*
X37629000Y-30034360D01*
X37629000Y-29575640D01*
X37631716Y-29548062D01*
X37637971Y-29527443D01*
X37648124Y-29508447D01*
X37661792Y-29491792D01*
X37678447Y-29478124D01*
X37697443Y-29467971D01*
X37718062Y-29461716D01*
X37745640Y-29459000D01*
X38254360Y-29459000D01*
X38281938Y-29461716D01*
G37*
G36*
X42056938Y-29456716D02*
G01*
X42077557Y-29462971D01*
X42096553Y-29473124D01*
X42113208Y-29486792D01*
X42126876Y-29503447D01*
X42137029Y-29522443D01*
X42143284Y-29543062D01*
X42146000Y-29570640D01*
X42146000Y-30029360D01*
X42143284Y-30056938D01*
X42137029Y-30077557D01*
X42126876Y-30096553D01*
X42113208Y-30113208D01*
X42096553Y-30126876D01*
X42077557Y-30137029D01*
X42056938Y-30143284D01*
X42029360Y-30146000D01*
X41520640Y-30146000D01*
X41493062Y-30143284D01*
X41472443Y-30137029D01*
X41453447Y-30126876D01*
X41436792Y-30113208D01*
X41423124Y-30096553D01*
X41412971Y-30077557D01*
X41406716Y-30056938D01*
X41404000Y-30029360D01*
X41404000Y-29570640D01*
X41406716Y-29543062D01*
X41412971Y-29522443D01*
X41423124Y-29503447D01*
X41436792Y-29486792D01*
X41453447Y-29473124D01*
X41472443Y-29462971D01*
X41493062Y-29456716D01*
X41520640Y-29454000D01*
X42029360Y-29454000D01*
X42056938Y-29456716D01*
G37*
G36*
X46654591Y-29053085D02*
G01*
X46688569Y-29063393D01*
X46719890Y-29080134D01*
X46747339Y-29102661D01*
X46769866Y-29130110D01*
X46786607Y-29161431D01*
X46796915Y-29195409D01*
X46801000Y-29236890D01*
X46801000Y-29913110D01*
X46796915Y-29954591D01*
X46786607Y-29988569D01*
X46769866Y-30019890D01*
X46747339Y-30047339D01*
X46719890Y-30069866D01*
X46688569Y-30086607D01*
X46654591Y-30096915D01*
X46613110Y-30101000D01*
X46011890Y-30101000D01*
X45970409Y-30096915D01*
X45936431Y-30086607D01*
X45905110Y-30069866D01*
X45877661Y-30047339D01*
X45855134Y-30019890D01*
X45838393Y-29988569D01*
X45828085Y-29954591D01*
X45824000Y-29913110D01*
X45824000Y-29236890D01*
X45828085Y-29195409D01*
X45838393Y-29161431D01*
X45855134Y-29130110D01*
X45877661Y-29102661D01*
X45905110Y-29080134D01*
X45936431Y-29063393D01*
X45970409Y-29053085D01*
X46011890Y-29049000D01*
X46613110Y-29049000D01*
X46654591Y-29053085D01*
G37*
G36*
X45079591Y-29053085D02*
G01*
X45113569Y-29063393D01*
X45144890Y-29080134D01*
X45172339Y-29102661D01*
X45194866Y-29130110D01*
X45211607Y-29161431D01*
X45221915Y-29195409D01*
X45226000Y-29236890D01*
X45226000Y-29913110D01*
X45221915Y-29954591D01*
X45211607Y-29988569D01*
X45194866Y-30019890D01*
X45172339Y-30047339D01*
X45144890Y-30069866D01*
X45113569Y-30086607D01*
X45079591Y-30096915D01*
X45038110Y-30101000D01*
X44436890Y-30101000D01*
X44395409Y-30096915D01*
X44361431Y-30086607D01*
X44330110Y-30069866D01*
X44302661Y-30047339D01*
X44280134Y-30019890D01*
X44263393Y-29988569D01*
X44253085Y-29954591D01*
X44249000Y-29913110D01*
X44249000Y-29236890D01*
X44253085Y-29195409D01*
X44263393Y-29161431D01*
X44280134Y-29130110D01*
X44302661Y-29102661D01*
X44330110Y-29080134D01*
X44361431Y-29063393D01*
X44395409Y-29053085D01*
X44436890Y-29049000D01*
X45038110Y-29049000D01*
X45079591Y-29053085D01*
G37*
G36*
X26468604Y-27678347D02*
G01*
X26505144Y-27689432D01*
X26538821Y-27707433D01*
X26568341Y-27731659D01*
X26592567Y-27761179D01*
X26610568Y-27794856D01*
X26621653Y-27831396D01*
X26626000Y-27875538D01*
X26626000Y-29324462D01*
X26621653Y-29368604D01*
X26610568Y-29405144D01*
X26592567Y-29438821D01*
X26568341Y-29468341D01*
X26538821Y-29492567D01*
X26505144Y-29510568D01*
X26468604Y-29521653D01*
X26424462Y-29526000D01*
X25475538Y-29526000D01*
X25431396Y-29521653D01*
X25394856Y-29510568D01*
X25361179Y-29492567D01*
X25331659Y-29468341D01*
X25307433Y-29438821D01*
X25289432Y-29405144D01*
X25278347Y-29368604D01*
X25274000Y-29324462D01*
X25274000Y-27875538D01*
X25278347Y-27831396D01*
X25289432Y-27794856D01*
X25307433Y-27761179D01*
X25331659Y-27731659D01*
X25361179Y-27707433D01*
X25394856Y-27689432D01*
X25431396Y-27678347D01*
X25475538Y-27674000D01*
X26424462Y-27674000D01*
X26468604Y-27678347D01*
G37*
G36*
X23668604Y-27678347D02*
G01*
X23705144Y-27689432D01*
X23738821Y-27707433D01*
X23768341Y-27731659D01*
X23792567Y-27761179D01*
X23810568Y-27794856D01*
X23821653Y-27831396D01*
X23826000Y-27875538D01*
X23826000Y-29324462D01*
X23821653Y-29368604D01*
X23810568Y-29405144D01*
X23792567Y-29438821D01*
X23768341Y-29468341D01*
X23738821Y-29492567D01*
X23705144Y-29510568D01*
X23668604Y-29521653D01*
X23624462Y-29526000D01*
X22675538Y-29526000D01*
X22631396Y-29521653D01*
X22594856Y-29510568D01*
X22561179Y-29492567D01*
X22531659Y-29468341D01*
X22507433Y-29438821D01*
X22489432Y-29405144D01*
X22478347Y-29368604D01*
X22474000Y-29324462D01*
X22474000Y-27875538D01*
X22478347Y-27831396D01*
X22489432Y-27794856D01*
X22507433Y-27761179D01*
X22531659Y-27731659D01*
X22561179Y-27707433D01*
X22594856Y-27689432D01*
X22631396Y-27678347D01*
X22675538Y-27674000D01*
X23624462Y-27674000D01*
X23668604Y-27678347D01*
G37*
G36*
X29971968Y-27653565D02*
G01*
X30010638Y-27665296D01*
X30046277Y-27684346D01*
X30077517Y-27709983D01*
X30103154Y-27741223D01*
X30122204Y-27776862D01*
X30133935Y-27815532D01*
X30138500Y-27861888D01*
X30138500Y-28938112D01*
X30133935Y-28984468D01*
X30122204Y-29023138D01*
X30103154Y-29058777D01*
X30077517Y-29090017D01*
X30046277Y-29115654D01*
X30010638Y-29134704D01*
X29971968Y-29146435D01*
X29925612Y-29151000D01*
X29274388Y-29151000D01*
X29228032Y-29146435D01*
X29189362Y-29134704D01*
X29153723Y-29115654D01*
X29122483Y-29090017D01*
X29096846Y-29058777D01*
X29077796Y-29023138D01*
X29066065Y-28984468D01*
X29061500Y-28938112D01*
X29061500Y-27861888D01*
X29066065Y-27815532D01*
X29077796Y-27776862D01*
X29096846Y-27741223D01*
X29122483Y-27709983D01*
X29153723Y-27684346D01*
X29189362Y-27665296D01*
X29228032Y-27653565D01*
X29274388Y-27649000D01*
X29925612Y-27649000D01*
X29971968Y-27653565D01*
G37*
G36*
X28096968Y-27653565D02*
G01*
X28135638Y-27665296D01*
X28171277Y-27684346D01*
X28202517Y-27709983D01*
X28228154Y-27741223D01*
X28247204Y-27776862D01*
X28258935Y-27815532D01*
X28263500Y-27861888D01*
X28263500Y-28938112D01*
X28258935Y-28984468D01*
X28247204Y-29023138D01*
X28228154Y-29058777D01*
X28202517Y-29090017D01*
X28171277Y-29115654D01*
X28135638Y-29134704D01*
X28096968Y-29146435D01*
X28050612Y-29151000D01*
X27399388Y-29151000D01*
X27353032Y-29146435D01*
X27314362Y-29134704D01*
X27278723Y-29115654D01*
X27247483Y-29090017D01*
X27221846Y-29058777D01*
X27202796Y-29023138D01*
X27191065Y-28984468D01*
X27186500Y-28938112D01*
X27186500Y-27861888D01*
X27191065Y-27815532D01*
X27202796Y-27776862D01*
X27221846Y-27741223D01*
X27247483Y-27709983D01*
X27278723Y-27684346D01*
X27314362Y-27665296D01*
X27353032Y-27653565D01*
X27399388Y-27649000D01*
X28050612Y-27649000D01*
X28096968Y-27653565D01*
G37*
G36*
X36979591Y-28140585D02*
G01*
X37013569Y-28150893D01*
X37044890Y-28167634D01*
X37072339Y-28190161D01*
X37094866Y-28217610D01*
X37111607Y-28248931D01*
X37121915Y-28282909D01*
X37126000Y-28324390D01*
X37126000Y-28925610D01*
X37121915Y-28967091D01*
X37111607Y-29001069D01*
X37094866Y-29032390D01*
X37072339Y-29059839D01*
X37044890Y-29082366D01*
X37013569Y-29099107D01*
X36979591Y-29109415D01*
X36938110Y-29113500D01*
X36261890Y-29113500D01*
X36220409Y-29109415D01*
X36186431Y-29099107D01*
X36155110Y-29082366D01*
X36127661Y-29059839D01*
X36105134Y-29032390D01*
X36088393Y-29001069D01*
X36078085Y-28967091D01*
X36074000Y-28925610D01*
X36074000Y-28324390D01*
X36078085Y-28282909D01*
X36088393Y-28248931D01*
X36105134Y-28217610D01*
X36127661Y-28190161D01*
X36155110Y-28167634D01*
X36186431Y-28150893D01*
X36220409Y-28140585D01*
X36261890Y-28136500D01*
X36938110Y-28136500D01*
X36979591Y-28140585D01*
G37*
G36*
X35279591Y-28140585D02*
G01*
X35313569Y-28150893D01*
X35344890Y-28167634D01*
X35372339Y-28190161D01*
X35394866Y-28217610D01*
X35411607Y-28248931D01*
X35421915Y-28282909D01*
X35426000Y-28324390D01*
X35426000Y-28925610D01*
X35421915Y-28967091D01*
X35411607Y-29001069D01*
X35394866Y-29032390D01*
X35372339Y-29059839D01*
X35344890Y-29082366D01*
X35313569Y-29099107D01*
X35279591Y-29109415D01*
X35238110Y-29113500D01*
X34561890Y-29113500D01*
X34520409Y-29109415D01*
X34486431Y-29099107D01*
X34455110Y-29082366D01*
X34427661Y-29059839D01*
X34405134Y-29032390D01*
X34388393Y-29001069D01*
X34378085Y-28967091D01*
X34374000Y-28925610D01*
X34374000Y-28324390D01*
X34378085Y-28282909D01*
X34388393Y-28248931D01*
X34405134Y-28217610D01*
X34427661Y-28190161D01*
X34455110Y-28167634D01*
X34486431Y-28150893D01*
X34520409Y-28140585D01*
X34561890Y-28136500D01*
X35238110Y-28136500D01*
X35279591Y-28140585D01*
G37*
G36*
X40167091Y-27878085D02*
G01*
X40201069Y-27888393D01*
X40232390Y-27905134D01*
X40259839Y-27927661D01*
X40282366Y-27955110D01*
X40299107Y-27986431D01*
X40309415Y-28020409D01*
X40313500Y-28061890D01*
X40313500Y-28738110D01*
X40309415Y-28779591D01*
X40299107Y-28813569D01*
X40282366Y-28844890D01*
X40259839Y-28872339D01*
X40232390Y-28894866D01*
X40201069Y-28911607D01*
X40167091Y-28921915D01*
X40125610Y-28926000D01*
X39524390Y-28926000D01*
X39482909Y-28921915D01*
X39448931Y-28911607D01*
X39417610Y-28894866D01*
X39390161Y-28872339D01*
X39367634Y-28844890D01*
X39350893Y-28813569D01*
X39340585Y-28779591D01*
X39336500Y-28738110D01*
X39336500Y-28061890D01*
X39340585Y-28020409D01*
X39350893Y-27986431D01*
X39367634Y-27955110D01*
X39390161Y-27927661D01*
X39417610Y-27905134D01*
X39448931Y-27888393D01*
X39482909Y-27878085D01*
X39524390Y-27874000D01*
X40125610Y-27874000D01*
X40167091Y-27878085D01*
G37*
G36*
X38592091Y-27878085D02*
G01*
X38626069Y-27888393D01*
X38657390Y-27905134D01*
X38684839Y-27927661D01*
X38707366Y-27955110D01*
X38724107Y-27986431D01*
X38734415Y-28020409D01*
X38738500Y-28061890D01*
X38738500Y-28738110D01*
X38734415Y-28779591D01*
X38724107Y-28813569D01*
X38707366Y-28844890D01*
X38684839Y-28872339D01*
X38657390Y-28894866D01*
X38626069Y-28911607D01*
X38592091Y-28921915D01*
X38550610Y-28926000D01*
X37949390Y-28926000D01*
X37907909Y-28921915D01*
X37873931Y-28911607D01*
X37842610Y-28894866D01*
X37815161Y-28872339D01*
X37792634Y-28844890D01*
X37775893Y-28813569D01*
X37765585Y-28779591D01*
X37761500Y-28738110D01*
X37761500Y-28061890D01*
X37765585Y-28020409D01*
X37775893Y-27986431D01*
X37792634Y-27955110D01*
X37815161Y-27927661D01*
X37842610Y-27905134D01*
X37873931Y-27888393D01*
X37907909Y-27878085D01*
X37949390Y-27874000D01*
X38550610Y-27874000D01*
X38592091Y-27878085D01*
G37*
G36*
X33579591Y-27878085D02*
G01*
X33613569Y-27888393D01*
X33644890Y-27905134D01*
X33672339Y-27927661D01*
X33694866Y-27955110D01*
X33711607Y-27986431D01*
X33721915Y-28020409D01*
X33726000Y-28061890D01*
X33726000Y-28738110D01*
X33721915Y-28779591D01*
X33711607Y-28813569D01*
X33694866Y-28844890D01*
X33672339Y-28872339D01*
X33644890Y-28894866D01*
X33613569Y-28911607D01*
X33579591Y-28921915D01*
X33538110Y-28926000D01*
X32936890Y-28926000D01*
X32895409Y-28921915D01*
X32861431Y-28911607D01*
X32830110Y-28894866D01*
X32802661Y-28872339D01*
X32780134Y-28844890D01*
X32763393Y-28813569D01*
X32753085Y-28779591D01*
X32749000Y-28738110D01*
X32749000Y-28061890D01*
X32753085Y-28020409D01*
X32763393Y-27986431D01*
X32780134Y-27955110D01*
X32802661Y-27927661D01*
X32830110Y-27905134D01*
X32861431Y-27888393D01*
X32895409Y-27878085D01*
X32936890Y-27874000D01*
X33538110Y-27874000D01*
X33579591Y-27878085D01*
G37*
G36*
X32004591Y-27878085D02*
G01*
X32038569Y-27888393D01*
X32069890Y-27905134D01*
X32097339Y-27927661D01*
X32119866Y-27955110D01*
X32136607Y-27986431D01*
X32146915Y-28020409D01*
X32151000Y-28061890D01*
X32151000Y-28738110D01*
X32146915Y-28779591D01*
X32136607Y-28813569D01*
X32119866Y-28844890D01*
X32097339Y-28872339D01*
X32069890Y-28894866D01*
X32038569Y-28911607D01*
X32004591Y-28921915D01*
X31963110Y-28926000D01*
X31361890Y-28926000D01*
X31320409Y-28921915D01*
X31286431Y-28911607D01*
X31255110Y-28894866D01*
X31227661Y-28872339D01*
X31205134Y-28844890D01*
X31188393Y-28813569D01*
X31178085Y-28779591D01*
X31174000Y-28738110D01*
X31174000Y-28061890D01*
X31178085Y-28020409D01*
X31188393Y-27986431D01*
X31205134Y-27955110D01*
X31227661Y-27927661D01*
X31255110Y-27905134D01*
X31286431Y-27888393D01*
X31320409Y-27878085D01*
X31361890Y-27874000D01*
X31963110Y-27874000D01*
X32004591Y-27878085D01*
G37*
M02*
