G04 #@! TF.GenerationSoftware,KiCad,Pcbnew,(5.1.5)-3*
G04 #@! TF.CreationDate,2020-05-14T19:34:47+02:00*
G04 #@! TF.ProjectId,STRF,53545246-2e6b-4696-9361-645f70636258,rev?*
G04 #@! TF.SameCoordinates,Original*
G04 #@! TF.FileFunction,Soldermask,Bot*
G04 #@! TF.FilePolarity,Negative*
%FSLAX46Y46*%
G04 Gerber Fmt 4.6, Leading zero omitted, Abs format (unit mm)*
G04 Created by KiCad (PCBNEW (5.1.5)-3) date 2020-05-14 19:34:47*
%MOMM*%
%LPD*%
G04 APERTURE LIST*
%ADD10C,0.100000*%
G04 APERTURE END LIST*
D10*
G36*
X28950721Y-38400174D02*
G01*
X29050995Y-38441709D01*
X29095812Y-38471655D01*
X29141242Y-38502010D01*
X29217990Y-38578758D01*
X29235093Y-38604355D01*
X29278291Y-38669005D01*
X29309516Y-38744389D01*
X29321067Y-38766000D01*
X29336612Y-38784941D01*
X29355554Y-38800487D01*
X29377165Y-38812038D01*
X29400614Y-38819151D01*
X29425000Y-38821553D01*
X29449386Y-38819151D01*
X29472835Y-38812038D01*
X29494446Y-38800487D01*
X29513387Y-38784942D01*
X29528933Y-38766000D01*
X29540484Y-38744389D01*
X29571709Y-38669005D01*
X29614907Y-38604355D01*
X29632010Y-38578758D01*
X29708758Y-38502010D01*
X29754188Y-38471655D01*
X29799005Y-38441709D01*
X29899279Y-38400174D01*
X30005730Y-38379000D01*
X30114270Y-38379000D01*
X30220721Y-38400174D01*
X30320995Y-38441709D01*
X30365812Y-38471655D01*
X30411242Y-38502010D01*
X30487990Y-38578758D01*
X30505093Y-38604355D01*
X30548291Y-38669005D01*
X30579516Y-38744389D01*
X30591067Y-38766000D01*
X30606612Y-38784941D01*
X30625554Y-38800487D01*
X30647165Y-38812038D01*
X30670614Y-38819151D01*
X30695000Y-38821553D01*
X30719386Y-38819151D01*
X30742835Y-38812038D01*
X30764446Y-38800487D01*
X30783387Y-38784942D01*
X30798933Y-38766000D01*
X30810484Y-38744389D01*
X30841709Y-38669005D01*
X30884907Y-38604355D01*
X30902010Y-38578758D01*
X30978758Y-38502010D01*
X31024188Y-38471655D01*
X31069005Y-38441709D01*
X31169279Y-38400174D01*
X31275730Y-38379000D01*
X31384270Y-38379000D01*
X31490721Y-38400174D01*
X31590995Y-38441709D01*
X31635812Y-38471655D01*
X31681242Y-38502010D01*
X31757990Y-38578758D01*
X31775093Y-38604355D01*
X31818291Y-38669005D01*
X31849516Y-38744389D01*
X31861067Y-38766000D01*
X31876612Y-38784941D01*
X31895554Y-38800487D01*
X31917165Y-38812038D01*
X31940614Y-38819151D01*
X31965000Y-38821553D01*
X31989386Y-38819151D01*
X32012835Y-38812038D01*
X32034446Y-38800487D01*
X32053387Y-38784942D01*
X32068933Y-38766000D01*
X32080484Y-38744389D01*
X32111709Y-38669005D01*
X32154907Y-38604355D01*
X32172010Y-38578758D01*
X32248758Y-38502010D01*
X32294188Y-38471655D01*
X32339005Y-38441709D01*
X32439279Y-38400174D01*
X32545730Y-38379000D01*
X32654270Y-38379000D01*
X32760721Y-38400174D01*
X32860995Y-38441709D01*
X32905812Y-38471655D01*
X32951242Y-38502010D01*
X33027990Y-38578758D01*
X33027991Y-38578760D01*
X33090068Y-38671664D01*
X33105614Y-38690606D01*
X33124556Y-38706151D01*
X33146167Y-38717702D01*
X33169615Y-38724815D01*
X33194002Y-38727217D01*
X33218388Y-38724815D01*
X33241837Y-38717702D01*
X33263447Y-38706151D01*
X33282389Y-38690605D01*
X33297934Y-38671663D01*
X33309485Y-38650052D01*
X33316598Y-38626604D01*
X33319000Y-38602218D01*
X33319000Y-38379000D01*
X34421000Y-38379000D01*
X34421000Y-39481000D01*
X34197782Y-39481000D01*
X34173396Y-39483402D01*
X34149947Y-39490515D01*
X34128336Y-39502066D01*
X34109394Y-39517611D01*
X34093849Y-39536553D01*
X34082298Y-39558164D01*
X34075185Y-39581613D01*
X34072783Y-39605999D01*
X34075185Y-39630385D01*
X34082298Y-39653834D01*
X34093849Y-39675445D01*
X34109394Y-39694387D01*
X34128336Y-39709932D01*
X34189816Y-39751012D01*
X34221242Y-39772010D01*
X34297990Y-39848758D01*
X34297991Y-39848760D01*
X34358291Y-39939005D01*
X34399826Y-40039279D01*
X34421000Y-40145730D01*
X34421000Y-40254270D01*
X34399826Y-40360721D01*
X34358291Y-40460995D01*
X34358290Y-40460996D01*
X34297990Y-40551242D01*
X34221242Y-40627990D01*
X34175812Y-40658345D01*
X34130995Y-40688291D01*
X34030721Y-40729826D01*
X33924270Y-40751000D01*
X33815730Y-40751000D01*
X33709279Y-40729826D01*
X33609005Y-40688291D01*
X33564188Y-40658345D01*
X33518758Y-40627990D01*
X33442010Y-40551242D01*
X33381710Y-40460996D01*
X33381709Y-40460995D01*
X33350484Y-40385611D01*
X33338933Y-40364000D01*
X33323388Y-40345059D01*
X33304446Y-40329513D01*
X33282835Y-40317962D01*
X33259386Y-40310849D01*
X33235000Y-40308447D01*
X33210614Y-40310849D01*
X33187165Y-40317962D01*
X33165554Y-40329513D01*
X33146613Y-40345058D01*
X33131067Y-40364000D01*
X33119516Y-40385611D01*
X33088291Y-40460995D01*
X33088290Y-40460996D01*
X33027990Y-40551242D01*
X32951242Y-40627990D01*
X32905812Y-40658345D01*
X32860995Y-40688291D01*
X32760721Y-40729826D01*
X32654270Y-40751000D01*
X32545730Y-40751000D01*
X32439279Y-40729826D01*
X32339005Y-40688291D01*
X32294188Y-40658345D01*
X32248758Y-40627990D01*
X32172010Y-40551242D01*
X32111710Y-40460996D01*
X32111709Y-40460995D01*
X32080484Y-40385611D01*
X32068933Y-40364000D01*
X32053388Y-40345059D01*
X32034446Y-40329513D01*
X32012835Y-40317962D01*
X31989386Y-40310849D01*
X31965000Y-40308447D01*
X31940614Y-40310849D01*
X31917165Y-40317962D01*
X31895554Y-40329513D01*
X31876613Y-40345058D01*
X31861067Y-40364000D01*
X31849516Y-40385611D01*
X31818291Y-40460995D01*
X31818290Y-40460996D01*
X31757990Y-40551242D01*
X31681242Y-40627990D01*
X31635812Y-40658345D01*
X31590995Y-40688291D01*
X31490721Y-40729826D01*
X31384270Y-40751000D01*
X31275730Y-40751000D01*
X31169279Y-40729826D01*
X31069005Y-40688291D01*
X31024188Y-40658345D01*
X30978758Y-40627990D01*
X30902010Y-40551242D01*
X30841710Y-40460996D01*
X30841709Y-40460995D01*
X30810484Y-40385611D01*
X30798933Y-40364000D01*
X30783388Y-40345059D01*
X30764446Y-40329513D01*
X30742835Y-40317962D01*
X30719386Y-40310849D01*
X30695000Y-40308447D01*
X30670614Y-40310849D01*
X30647165Y-40317962D01*
X30625554Y-40329513D01*
X30606613Y-40345058D01*
X30591067Y-40364000D01*
X30579516Y-40385611D01*
X30548291Y-40460995D01*
X30548290Y-40460996D01*
X30487990Y-40551242D01*
X30411242Y-40627990D01*
X30365812Y-40658345D01*
X30320995Y-40688291D01*
X30220721Y-40729826D01*
X30114270Y-40751000D01*
X30005730Y-40751000D01*
X29899279Y-40729826D01*
X29799005Y-40688291D01*
X29754188Y-40658345D01*
X29708758Y-40627990D01*
X29632010Y-40551242D01*
X29571710Y-40460996D01*
X29571709Y-40460995D01*
X29540484Y-40385611D01*
X29528933Y-40364000D01*
X29513388Y-40345059D01*
X29494446Y-40329513D01*
X29472835Y-40317962D01*
X29449386Y-40310849D01*
X29425000Y-40308447D01*
X29400614Y-40310849D01*
X29377165Y-40317962D01*
X29355554Y-40329513D01*
X29336613Y-40345058D01*
X29321067Y-40364000D01*
X29309516Y-40385611D01*
X29278291Y-40460995D01*
X29278290Y-40460996D01*
X29217990Y-40551242D01*
X29141242Y-40627990D01*
X29095812Y-40658345D01*
X29050995Y-40688291D01*
X28950721Y-40729826D01*
X28844270Y-40751000D01*
X28735730Y-40751000D01*
X28629279Y-40729826D01*
X28529005Y-40688291D01*
X28484188Y-40658345D01*
X28438758Y-40627990D01*
X28362010Y-40551242D01*
X28301710Y-40460996D01*
X28301709Y-40460995D01*
X28260174Y-40360721D01*
X28239000Y-40254270D01*
X28239000Y-40145730D01*
X28260174Y-40039279D01*
X28301709Y-39939005D01*
X28362009Y-39848760D01*
X28362010Y-39848758D01*
X28438758Y-39772010D01*
X28529004Y-39711710D01*
X28529005Y-39711709D01*
X28604389Y-39680484D01*
X28626000Y-39668933D01*
X28644941Y-39653388D01*
X28660487Y-39634446D01*
X28672038Y-39612835D01*
X28679151Y-39589386D01*
X28681553Y-39565000D01*
X28898447Y-39565000D01*
X28900849Y-39589386D01*
X28907962Y-39612835D01*
X28919513Y-39634446D01*
X28935058Y-39653387D01*
X28954000Y-39668933D01*
X28975611Y-39680484D01*
X29050995Y-39711709D01*
X29050996Y-39711710D01*
X29141242Y-39772010D01*
X29217990Y-39848758D01*
X29217991Y-39848760D01*
X29278291Y-39939005D01*
X29309516Y-40014389D01*
X29321067Y-40036000D01*
X29336612Y-40054941D01*
X29355554Y-40070487D01*
X29377165Y-40082038D01*
X29400614Y-40089151D01*
X29425000Y-40091553D01*
X29449386Y-40089151D01*
X29472835Y-40082038D01*
X29494446Y-40070487D01*
X29513387Y-40054942D01*
X29528933Y-40036000D01*
X29540484Y-40014389D01*
X29571709Y-39939005D01*
X29632009Y-39848760D01*
X29632010Y-39848758D01*
X29708758Y-39772010D01*
X29799004Y-39711710D01*
X29799005Y-39711709D01*
X29874389Y-39680484D01*
X29896000Y-39668933D01*
X29914941Y-39653388D01*
X29930487Y-39634446D01*
X29942038Y-39612835D01*
X29949151Y-39589386D01*
X29951553Y-39565000D01*
X30168447Y-39565000D01*
X30170849Y-39589386D01*
X30177962Y-39612835D01*
X30189513Y-39634446D01*
X30205058Y-39653387D01*
X30224000Y-39668933D01*
X30245611Y-39680484D01*
X30320995Y-39711709D01*
X30320996Y-39711710D01*
X30411242Y-39772010D01*
X30487990Y-39848758D01*
X30487991Y-39848760D01*
X30548291Y-39939005D01*
X30579516Y-40014389D01*
X30591067Y-40036000D01*
X30606612Y-40054941D01*
X30625554Y-40070487D01*
X30647165Y-40082038D01*
X30670614Y-40089151D01*
X30695000Y-40091553D01*
X30719386Y-40089151D01*
X30742835Y-40082038D01*
X30764446Y-40070487D01*
X30783387Y-40054942D01*
X30798933Y-40036000D01*
X30810484Y-40014389D01*
X30841709Y-39939005D01*
X30902009Y-39848760D01*
X30902010Y-39848758D01*
X30978758Y-39772010D01*
X31069004Y-39711710D01*
X31069005Y-39711709D01*
X31144389Y-39680484D01*
X31166000Y-39668933D01*
X31184941Y-39653388D01*
X31200487Y-39634446D01*
X31212038Y-39612835D01*
X31219151Y-39589386D01*
X31221553Y-39565000D01*
X31438447Y-39565000D01*
X31440849Y-39589386D01*
X31447962Y-39612835D01*
X31459513Y-39634446D01*
X31475058Y-39653387D01*
X31494000Y-39668933D01*
X31515611Y-39680484D01*
X31590995Y-39711709D01*
X31590996Y-39711710D01*
X31681242Y-39772010D01*
X31757990Y-39848758D01*
X31757991Y-39848760D01*
X31818291Y-39939005D01*
X31849516Y-40014389D01*
X31861067Y-40036000D01*
X31876612Y-40054941D01*
X31895554Y-40070487D01*
X31917165Y-40082038D01*
X31940614Y-40089151D01*
X31965000Y-40091553D01*
X31989386Y-40089151D01*
X32012835Y-40082038D01*
X32034446Y-40070487D01*
X32053387Y-40054942D01*
X32068933Y-40036000D01*
X32080484Y-40014389D01*
X32111709Y-39939005D01*
X32172009Y-39848760D01*
X32172010Y-39848758D01*
X32248758Y-39772010D01*
X32339004Y-39711710D01*
X32339005Y-39711709D01*
X32414389Y-39680484D01*
X32436000Y-39668933D01*
X32454941Y-39653388D01*
X32470487Y-39634446D01*
X32482038Y-39612835D01*
X32489151Y-39589386D01*
X32491553Y-39565000D01*
X32708447Y-39565000D01*
X32710849Y-39589386D01*
X32717962Y-39612835D01*
X32729513Y-39634446D01*
X32745058Y-39653387D01*
X32764000Y-39668933D01*
X32785611Y-39680484D01*
X32860995Y-39711709D01*
X32860996Y-39711710D01*
X32951242Y-39772010D01*
X33027990Y-39848758D01*
X33027991Y-39848760D01*
X33088291Y-39939005D01*
X33119516Y-40014389D01*
X33131067Y-40036000D01*
X33146612Y-40054941D01*
X33165554Y-40070487D01*
X33187165Y-40082038D01*
X33210614Y-40089151D01*
X33235000Y-40091553D01*
X33259386Y-40089151D01*
X33282835Y-40082038D01*
X33304446Y-40070487D01*
X33323387Y-40054942D01*
X33338933Y-40036000D01*
X33350484Y-40014389D01*
X33381709Y-39939005D01*
X33442009Y-39848760D01*
X33442010Y-39848758D01*
X33518758Y-39772010D01*
X33550184Y-39751012D01*
X33611664Y-39709932D01*
X33630606Y-39694386D01*
X33646151Y-39675444D01*
X33657702Y-39653833D01*
X33664815Y-39630385D01*
X33667217Y-39605998D01*
X33664815Y-39581612D01*
X33657702Y-39558163D01*
X33646151Y-39536553D01*
X33630605Y-39517611D01*
X33611663Y-39502066D01*
X33590052Y-39490515D01*
X33566604Y-39483402D01*
X33542218Y-39481000D01*
X33319000Y-39481000D01*
X33319000Y-39257782D01*
X33316598Y-39233396D01*
X33309485Y-39209947D01*
X33297934Y-39188336D01*
X33282389Y-39169394D01*
X33263447Y-39153849D01*
X33241836Y-39142298D01*
X33218387Y-39135185D01*
X33194001Y-39132783D01*
X33169615Y-39135185D01*
X33146166Y-39142298D01*
X33124555Y-39153849D01*
X33105613Y-39169394D01*
X33090068Y-39188336D01*
X33048988Y-39249816D01*
X33027990Y-39281242D01*
X32951242Y-39357990D01*
X32905812Y-39388345D01*
X32860995Y-39418291D01*
X32785611Y-39449516D01*
X32764000Y-39461067D01*
X32745059Y-39476612D01*
X32729513Y-39495554D01*
X32717962Y-39517165D01*
X32710849Y-39540614D01*
X32708447Y-39565000D01*
X32491553Y-39565000D01*
X32489151Y-39540614D01*
X32482038Y-39517165D01*
X32470487Y-39495554D01*
X32454942Y-39476613D01*
X32436000Y-39461067D01*
X32414389Y-39449516D01*
X32339005Y-39418291D01*
X32294188Y-39388345D01*
X32248758Y-39357990D01*
X32172010Y-39281242D01*
X32140041Y-39233396D01*
X32111709Y-39190995D01*
X32080484Y-39115611D01*
X32068933Y-39094000D01*
X32053388Y-39075059D01*
X32034446Y-39059513D01*
X32012835Y-39047962D01*
X31989386Y-39040849D01*
X31965000Y-39038447D01*
X31940614Y-39040849D01*
X31917165Y-39047962D01*
X31895554Y-39059513D01*
X31876613Y-39075058D01*
X31861067Y-39094000D01*
X31849516Y-39115611D01*
X31818291Y-39190995D01*
X31789959Y-39233396D01*
X31757990Y-39281242D01*
X31681242Y-39357990D01*
X31635812Y-39388345D01*
X31590995Y-39418291D01*
X31515611Y-39449516D01*
X31494000Y-39461067D01*
X31475059Y-39476612D01*
X31459513Y-39495554D01*
X31447962Y-39517165D01*
X31440849Y-39540614D01*
X31438447Y-39565000D01*
X31221553Y-39565000D01*
X31219151Y-39540614D01*
X31212038Y-39517165D01*
X31200487Y-39495554D01*
X31184942Y-39476613D01*
X31166000Y-39461067D01*
X31144389Y-39449516D01*
X31069005Y-39418291D01*
X31024188Y-39388345D01*
X30978758Y-39357990D01*
X30902010Y-39281242D01*
X30870041Y-39233396D01*
X30841709Y-39190995D01*
X30810484Y-39115611D01*
X30798933Y-39094000D01*
X30783388Y-39075059D01*
X30764446Y-39059513D01*
X30742835Y-39047962D01*
X30719386Y-39040849D01*
X30695000Y-39038447D01*
X30670614Y-39040849D01*
X30647165Y-39047962D01*
X30625554Y-39059513D01*
X30606613Y-39075058D01*
X30591067Y-39094000D01*
X30579516Y-39115611D01*
X30548291Y-39190995D01*
X30519959Y-39233396D01*
X30487990Y-39281242D01*
X30411242Y-39357990D01*
X30365812Y-39388345D01*
X30320995Y-39418291D01*
X30245611Y-39449516D01*
X30224000Y-39461067D01*
X30205059Y-39476612D01*
X30189513Y-39495554D01*
X30177962Y-39517165D01*
X30170849Y-39540614D01*
X30168447Y-39565000D01*
X29951553Y-39565000D01*
X29949151Y-39540614D01*
X29942038Y-39517165D01*
X29930487Y-39495554D01*
X29914942Y-39476613D01*
X29896000Y-39461067D01*
X29874389Y-39449516D01*
X29799005Y-39418291D01*
X29754188Y-39388345D01*
X29708758Y-39357990D01*
X29632010Y-39281242D01*
X29600041Y-39233396D01*
X29571709Y-39190995D01*
X29540484Y-39115611D01*
X29528933Y-39094000D01*
X29513388Y-39075059D01*
X29494446Y-39059513D01*
X29472835Y-39047962D01*
X29449386Y-39040849D01*
X29425000Y-39038447D01*
X29400614Y-39040849D01*
X29377165Y-39047962D01*
X29355554Y-39059513D01*
X29336613Y-39075058D01*
X29321067Y-39094000D01*
X29309516Y-39115611D01*
X29278291Y-39190995D01*
X29249959Y-39233396D01*
X29217990Y-39281242D01*
X29141242Y-39357990D01*
X29095812Y-39388345D01*
X29050995Y-39418291D01*
X28975611Y-39449516D01*
X28954000Y-39461067D01*
X28935059Y-39476612D01*
X28919513Y-39495554D01*
X28907962Y-39517165D01*
X28900849Y-39540614D01*
X28898447Y-39565000D01*
X28681553Y-39565000D01*
X28679151Y-39540614D01*
X28672038Y-39517165D01*
X28660487Y-39495554D01*
X28644942Y-39476613D01*
X28626000Y-39461067D01*
X28604389Y-39449516D01*
X28529005Y-39418291D01*
X28484188Y-39388345D01*
X28438758Y-39357990D01*
X28362010Y-39281242D01*
X28330041Y-39233396D01*
X28301709Y-39190995D01*
X28260174Y-39090721D01*
X28239000Y-38984270D01*
X28239000Y-38875730D01*
X28260174Y-38769279D01*
X28301709Y-38669005D01*
X28344907Y-38604355D01*
X28362010Y-38578758D01*
X28438758Y-38502010D01*
X28484188Y-38471655D01*
X28529005Y-38441709D01*
X28629279Y-38400174D01*
X28735730Y-38379000D01*
X28844270Y-38379000D01*
X28950721Y-38400174D01*
G37*
G36*
X23126355Y-37352140D02*
G01*
X23190118Y-37358420D01*
X23280904Y-37385960D01*
X23312836Y-37395646D01*
X23425925Y-37456094D01*
X23525054Y-37537446D01*
X23606406Y-37636575D01*
X23666854Y-37749664D01*
X23666855Y-37749668D01*
X23704080Y-37872382D01*
X23716649Y-38000000D01*
X23704080Y-38127618D01*
X23676540Y-38218404D01*
X23666854Y-38250336D01*
X23606406Y-38363425D01*
X23525054Y-38462554D01*
X23425925Y-38543906D01*
X23312836Y-38604354D01*
X23280904Y-38614040D01*
X23190118Y-38641580D01*
X23126355Y-38647860D01*
X23094474Y-38651000D01*
X22330526Y-38651000D01*
X22298645Y-38647860D01*
X22234882Y-38641580D01*
X22144096Y-38614040D01*
X22112164Y-38604354D01*
X21999075Y-38543906D01*
X21899946Y-38462554D01*
X21818594Y-38363425D01*
X21758146Y-38250336D01*
X21748460Y-38218404D01*
X21720920Y-38127618D01*
X21708351Y-38000000D01*
X21720920Y-37872382D01*
X21758145Y-37749668D01*
X21758146Y-37749664D01*
X21818594Y-37636575D01*
X21899946Y-37537446D01*
X21999075Y-37456094D01*
X22112164Y-37395646D01*
X22144096Y-37385960D01*
X22234882Y-37358420D01*
X22298645Y-37352140D01*
X22330526Y-37349000D01*
X23094474Y-37349000D01*
X23126355Y-37352140D01*
G37*
G36*
X59751000Y-38051000D02*
G01*
X55449000Y-38051000D01*
X55449000Y-36599000D01*
X59751000Y-36599000D01*
X59751000Y-38051000D01*
G37*
G36*
X25638848Y-36253820D02*
G01*
X25638850Y-36253821D01*
X25638851Y-36253821D01*
X25780074Y-36312317D01*
X25780077Y-36312319D01*
X25907169Y-36397239D01*
X26015261Y-36505331D01*
X26100181Y-36632423D01*
X26100183Y-36632426D01*
X26158679Y-36773649D01*
X26188500Y-36923571D01*
X26188500Y-37076429D01*
X26158679Y-37226351D01*
X26100183Y-37367574D01*
X26100181Y-37367577D01*
X26015261Y-37494669D01*
X25907169Y-37602761D01*
X25780077Y-37687681D01*
X25780074Y-37687683D01*
X25638851Y-37746179D01*
X25638850Y-37746179D01*
X25638848Y-37746180D01*
X25488931Y-37776000D01*
X25336069Y-37776000D01*
X25186152Y-37746180D01*
X25186150Y-37746179D01*
X25186149Y-37746179D01*
X25044926Y-37687683D01*
X25044923Y-37687681D01*
X24917831Y-37602761D01*
X24809739Y-37494669D01*
X24724819Y-37367577D01*
X24724817Y-37367574D01*
X24666321Y-37226351D01*
X24636500Y-37076429D01*
X24636500Y-36923571D01*
X24666321Y-36773649D01*
X24724817Y-36632426D01*
X24724819Y-36632423D01*
X24809739Y-36505331D01*
X24917831Y-36397239D01*
X25044923Y-36312319D01*
X25044926Y-36312317D01*
X25186149Y-36253821D01*
X25186150Y-36253821D01*
X25186152Y-36253820D01*
X25336069Y-36224000D01*
X25488931Y-36224000D01*
X25638848Y-36253820D01*
G37*
G36*
X25638848Y-31253820D02*
G01*
X25638850Y-31253821D01*
X25638851Y-31253821D01*
X25780074Y-31312317D01*
X25780077Y-31312319D01*
X25907169Y-31397239D01*
X26015261Y-31505331D01*
X26100181Y-31632423D01*
X26100183Y-31632426D01*
X26158679Y-31773649D01*
X26188500Y-31923571D01*
X26188500Y-32076429D01*
X26158679Y-32226351D01*
X26100183Y-32367574D01*
X26100181Y-32367577D01*
X26015261Y-32494669D01*
X25907169Y-32602761D01*
X25780077Y-32687681D01*
X25780074Y-32687683D01*
X25638851Y-32746179D01*
X25638850Y-32746179D01*
X25638848Y-32746180D01*
X25488931Y-32776000D01*
X25336069Y-32776000D01*
X25186152Y-32746180D01*
X25186150Y-32746179D01*
X25186149Y-32746179D01*
X25044926Y-32687683D01*
X25044923Y-32687681D01*
X24917831Y-32602761D01*
X24809739Y-32494669D01*
X24724819Y-32367577D01*
X24724817Y-32367574D01*
X24666321Y-32226351D01*
X24636500Y-32076429D01*
X24636500Y-31923571D01*
X24666321Y-31773649D01*
X24724817Y-31632426D01*
X24724819Y-31632423D01*
X24809739Y-31505331D01*
X24917831Y-31397239D01*
X25044923Y-31312319D01*
X25044926Y-31312317D01*
X25186149Y-31253821D01*
X25186150Y-31253821D01*
X25186152Y-31253820D01*
X25336069Y-31224000D01*
X25488931Y-31224000D01*
X25638848Y-31253820D01*
G37*
G36*
X59751000Y-32401000D02*
G01*
X55449000Y-32401000D01*
X55449000Y-30949000D01*
X59751000Y-30949000D01*
X59751000Y-32401000D01*
G37*
G36*
X23126355Y-30352140D02*
G01*
X23190118Y-30358420D01*
X23280904Y-30385960D01*
X23312836Y-30395646D01*
X23425925Y-30456094D01*
X23525054Y-30537446D01*
X23606406Y-30636575D01*
X23666854Y-30749664D01*
X23666855Y-30749668D01*
X23704080Y-30872382D01*
X23716649Y-31000000D01*
X23704080Y-31127618D01*
X23676540Y-31218404D01*
X23666854Y-31250336D01*
X23606406Y-31363425D01*
X23525054Y-31462554D01*
X23425925Y-31543906D01*
X23312836Y-31604354D01*
X23280904Y-31614040D01*
X23190118Y-31641580D01*
X23126355Y-31647860D01*
X23094474Y-31651000D01*
X22330526Y-31651000D01*
X22298645Y-31647860D01*
X22234882Y-31641580D01*
X22144096Y-31614040D01*
X22112164Y-31604354D01*
X21999075Y-31543906D01*
X21899946Y-31462554D01*
X21818594Y-31363425D01*
X21758146Y-31250336D01*
X21748460Y-31218404D01*
X21720920Y-31127618D01*
X21708351Y-31000000D01*
X21720920Y-30872382D01*
X21758145Y-30749668D01*
X21758146Y-30749664D01*
X21818594Y-30636575D01*
X21899946Y-30537446D01*
X21999075Y-30456094D01*
X22112164Y-30395646D01*
X22144096Y-30385960D01*
X22234882Y-30358420D01*
X22298645Y-30352140D01*
X22330526Y-30349000D01*
X23094474Y-30349000D01*
X23126355Y-30352140D01*
G37*
M02*
