G04 #@! TF.GenerationSoftware,KiCad,Pcbnew,(5.1.5)-3*
G04 #@! TF.CreationDate,2020-05-14T19:34:47+02:00*
G04 #@! TF.ProjectId,STRF,53545246-2e6b-4696-9361-645f70636258,rev?*
G04 #@! TF.SameCoordinates,Original*
G04 #@! TF.FileFunction,Copper,L2,Inr*
G04 #@! TF.FilePolarity,Positive*
%FSLAX46Y46*%
G04 Gerber Fmt 4.6, Leading zero omitted, Abs format (unit mm)*
G04 Created by KiCad (PCBNEW (5.1.5)-3) date 2020-05-14 19:34:47*
%MOMM*%
%LPD*%
G04 APERTURE LIST*
%ADD10O,1.000000X1.000000*%
%ADD11R,1.000000X1.000000*%
%ADD12C,1.450000*%
%ADD13O,1.900000X1.200000*%
%ADD14C,0.800000*%
%ADD15C,0.600000*%
%ADD16C,0.700000*%
%ADD17C,0.500000*%
%ADD18C,0.500000*%
%ADD19C,0.254000*%
G04 APERTURE END LIST*
D10*
X28790000Y-40200000D03*
X28790000Y-38930000D03*
X30060000Y-40200000D03*
X30060000Y-38930000D03*
X31330000Y-40200000D03*
X31330000Y-38930000D03*
X32600000Y-40200000D03*
X32600000Y-38930000D03*
X33870000Y-40200000D03*
D11*
X33870000Y-38930000D03*
D12*
X25412500Y-32000000D03*
X25412500Y-37000000D03*
D13*
X22712500Y-31000000D03*
X22712500Y-38000000D03*
D14*
X54300000Y-32025000D03*
D15*
X36155000Y-37465000D03*
D14*
X48625000Y-29025000D03*
X46300000Y-28425000D03*
X25030000Y-40910000D03*
X43620000Y-29920000D03*
X41415000Y-28905000D03*
X41415000Y-27980000D03*
X34350000Y-31425000D03*
X28000000Y-33350000D03*
X27075000Y-36200000D03*
X28100000Y-37200000D03*
X53250000Y-36900000D03*
X53250000Y-35900000D03*
X58200000Y-30400000D03*
X58200000Y-38600000D03*
X48850000Y-41350000D03*
X43600000Y-38600000D03*
X30600000Y-32975000D03*
X30600000Y-31475000D03*
D16*
X48900000Y-32600000D03*
D14*
X38665000Y-34455000D03*
X38640000Y-33455000D03*
X38640000Y-35455000D03*
X50250000Y-27700000D03*
X50250000Y-30200000D03*
X50250000Y-32500000D03*
X50250000Y-41300000D03*
X50250000Y-39075000D03*
X59500000Y-30000000D03*
X52750000Y-27700000D03*
X55750000Y-27700000D03*
X58400000Y-27700000D03*
X59500000Y-39000000D03*
X50250000Y-36900000D03*
D16*
X30350000Y-35100000D03*
D14*
X27075000Y-37200000D03*
X29100000Y-37200000D03*
D16*
X41940000Y-32355000D03*
D14*
X31900000Y-29600000D03*
X42440000Y-27980000D03*
X42440000Y-28905000D03*
X45550000Y-37450000D03*
X52750000Y-41300000D03*
X55750000Y-41300000D03*
X58400000Y-41300000D03*
X47575000Y-29025000D03*
D15*
X37690000Y-38680000D03*
X37640000Y-31080000D03*
D16*
X48650000Y-31725000D03*
D14*
X32700000Y-33350000D03*
X44750000Y-28425000D03*
X43070000Y-37620000D03*
X33575000Y-33350000D03*
X34450000Y-33350000D03*
X34450000Y-32475000D03*
D16*
X41615000Y-31505000D03*
D15*
X39306275Y-30262975D03*
D17*
X28400000Y-35100000D03*
D15*
X27050000Y-33550000D03*
X42580000Y-36290000D03*
X42599910Y-34555019D03*
D18*
X43600000Y-38600000D02*
X42000000Y-38600000D01*
D19*
G36*
X46948000Y-36825000D02*
G01*
X46950440Y-36849776D01*
X46957667Y-36873601D01*
X46969403Y-36895557D01*
X46985197Y-36914803D01*
X47004443Y-36930597D01*
X47026399Y-36942333D01*
X47050224Y-36949560D01*
X47075000Y-36952000D01*
X48273000Y-36952000D01*
X48273000Y-38800000D01*
X48275440Y-38824776D01*
X48282667Y-38848601D01*
X48294403Y-38870557D01*
X48310197Y-38889803D01*
X48329443Y-38905597D01*
X48351399Y-38917333D01*
X48375224Y-38924560D01*
X48400000Y-38927000D01*
X49273000Y-38927000D01*
X49273000Y-41566446D01*
X42927000Y-41546860D01*
X42927000Y-38387856D01*
X42993078Y-38401000D01*
X43146922Y-38401000D01*
X43297809Y-38370987D01*
X43439942Y-38312113D01*
X43567859Y-38226642D01*
X43617501Y-38177000D01*
X46225000Y-38177000D01*
X46249776Y-38174560D01*
X46273601Y-38167333D01*
X46295557Y-38155597D01*
X46314803Y-38139803D01*
X46330597Y-38120557D01*
X46342333Y-38098601D01*
X46349560Y-38074776D01*
X46352000Y-38050000D01*
X46352000Y-35877000D01*
X46948000Y-35877000D01*
X46948000Y-36825000D01*
G37*
X46948000Y-36825000D02*
X46950440Y-36849776D01*
X46957667Y-36873601D01*
X46969403Y-36895557D01*
X46985197Y-36914803D01*
X47004443Y-36930597D01*
X47026399Y-36942333D01*
X47050224Y-36949560D01*
X47075000Y-36952000D01*
X48273000Y-36952000D01*
X48273000Y-38800000D01*
X48275440Y-38824776D01*
X48282667Y-38848601D01*
X48294403Y-38870557D01*
X48310197Y-38889803D01*
X48329443Y-38905597D01*
X48351399Y-38917333D01*
X48375224Y-38924560D01*
X48400000Y-38927000D01*
X49273000Y-38927000D01*
X49273000Y-41566446D01*
X42927000Y-41546860D01*
X42927000Y-38387856D01*
X42993078Y-38401000D01*
X43146922Y-38401000D01*
X43297809Y-38370987D01*
X43439942Y-38312113D01*
X43567859Y-38226642D01*
X43617501Y-38177000D01*
X46225000Y-38177000D01*
X46249776Y-38174560D01*
X46273601Y-38167333D01*
X46295557Y-38155597D01*
X46314803Y-38139803D01*
X46330597Y-38120557D01*
X46342333Y-38098601D01*
X46349560Y-38074776D01*
X46352000Y-38050000D01*
X46352000Y-35877000D01*
X46948000Y-35877000D01*
X46948000Y-36825000D01*
G36*
X58509229Y-27438267D02*
G01*
X58806688Y-27528075D01*
X59081028Y-27673945D01*
X59321813Y-27870325D01*
X59519873Y-28109736D01*
X59667654Y-28383053D01*
X59759535Y-28679872D01*
X59794001Y-29007792D01*
X59794000Y-31619940D01*
X59794001Y-31619950D01*
X59794000Y-34480059D01*
X59794000Y-34480060D01*
X59794001Y-39980136D01*
X59761733Y-40309230D01*
X59671926Y-40606684D01*
X59526056Y-40881025D01*
X59329675Y-41121813D01*
X59090265Y-41319871D01*
X58816948Y-41467654D01*
X58520128Y-41559535D01*
X58192453Y-41593975D01*
X49927000Y-41568465D01*
X49927000Y-36250000D01*
X49924560Y-36225224D01*
X49917333Y-36201399D01*
X49905597Y-36179443D01*
X49889803Y-36160197D01*
X49870557Y-36144403D01*
X49848601Y-36132667D01*
X49824776Y-36125440D01*
X49800000Y-36123000D01*
X47877000Y-36123000D01*
X47877000Y-35250000D01*
X47874560Y-35225224D01*
X47867333Y-35201399D01*
X47855597Y-35179443D01*
X47839803Y-35160197D01*
X47820557Y-35144403D01*
X47798601Y-35132667D01*
X47774776Y-35125440D01*
X47750000Y-35123000D01*
X45900000Y-35123000D01*
X45875224Y-35125440D01*
X45851399Y-35132667D01*
X45829443Y-35144403D01*
X45810197Y-35160197D01*
X45794403Y-35179443D01*
X45782667Y-35201399D01*
X45775440Y-35225224D01*
X45773000Y-35250000D01*
X45773000Y-37673000D01*
X43851000Y-37673000D01*
X43851000Y-37543078D01*
X43820987Y-37392191D01*
X43762113Y-37250058D01*
X43676642Y-37122141D01*
X43567859Y-37013358D01*
X43439942Y-36927887D01*
X43297809Y-36869013D01*
X43146922Y-36839000D01*
X42993078Y-36839000D01*
X42980338Y-36841534D01*
X43014112Y-36818967D01*
X43108967Y-36724112D01*
X43183494Y-36612574D01*
X43234829Y-36488640D01*
X43261000Y-36357073D01*
X43261000Y-36222927D01*
X43234829Y-36091360D01*
X43183494Y-35967426D01*
X43108967Y-35855888D01*
X43014112Y-35761033D01*
X42902574Y-35686506D01*
X42778640Y-35635171D01*
X42647073Y-35609000D01*
X42512927Y-35609000D01*
X42381360Y-35635171D01*
X42257426Y-35686506D01*
X42145888Y-35761033D01*
X42051033Y-35855888D01*
X41976506Y-35967426D01*
X41925171Y-36091360D01*
X41899000Y-36222927D01*
X41899000Y-36357073D01*
X41925171Y-36488640D01*
X41976506Y-36612574D01*
X42051033Y-36724112D01*
X42145888Y-36818967D01*
X42257426Y-36893494D01*
X42381360Y-36944829D01*
X42512927Y-36971000D01*
X42635535Y-36971000D01*
X42572141Y-37013358D01*
X42463358Y-37122141D01*
X42377887Y-37250058D01*
X42319013Y-37392191D01*
X42289000Y-37543078D01*
X42289000Y-37678845D01*
X42276399Y-37682667D01*
X42254443Y-37694403D01*
X42235197Y-37710197D01*
X42219403Y-37729443D01*
X42207667Y-37751399D01*
X42200440Y-37775224D01*
X42198000Y-37800000D01*
X42198000Y-41544610D01*
X42021165Y-41544064D01*
X42021126Y-41544060D01*
X41997703Y-41543992D01*
X41981313Y-41543941D01*
X41981285Y-41543944D01*
X31181245Y-41512399D01*
X31165408Y-41513912D01*
X23270372Y-41494051D01*
X22940770Y-41461733D01*
X22643316Y-41371926D01*
X22368975Y-41226056D01*
X22128187Y-41029675D01*
X21930129Y-40790265D01*
X21782346Y-40516948D01*
X21690465Y-40220128D01*
X21656000Y-39892218D01*
X21656000Y-39231876D01*
X27695874Y-39231876D01*
X27775790Y-39439529D01*
X27894682Y-39627601D01*
X28022824Y-39762402D01*
X28009268Y-39782690D01*
X27942856Y-39943022D01*
X27909000Y-40113229D01*
X27909000Y-40286771D01*
X27942856Y-40456978D01*
X28009268Y-40617310D01*
X28105682Y-40761605D01*
X28228395Y-40884318D01*
X28372690Y-40980732D01*
X28533022Y-41047144D01*
X28703229Y-41081000D01*
X28876771Y-41081000D01*
X29046978Y-41047144D01*
X29207310Y-40980732D01*
X29351605Y-40884318D01*
X29425000Y-40810923D01*
X29498395Y-40884318D01*
X29642690Y-40980732D01*
X29803022Y-41047144D01*
X29973229Y-41081000D01*
X30146771Y-41081000D01*
X30316978Y-41047144D01*
X30477310Y-40980732D01*
X30621605Y-40884318D01*
X30695000Y-40810923D01*
X30768395Y-40884318D01*
X30912690Y-40980732D01*
X31073022Y-41047144D01*
X31243229Y-41081000D01*
X31416771Y-41081000D01*
X31586978Y-41047144D01*
X31747310Y-40980732D01*
X31891605Y-40884318D01*
X31965000Y-40810923D01*
X32038395Y-40884318D01*
X32182690Y-40980732D01*
X32343022Y-41047144D01*
X32513229Y-41081000D01*
X32686771Y-41081000D01*
X32856978Y-41047144D01*
X33017310Y-40980732D01*
X33161605Y-40884318D01*
X33235000Y-40810923D01*
X33308395Y-40884318D01*
X33452690Y-40980732D01*
X33613022Y-41047144D01*
X33783229Y-41081000D01*
X33956771Y-41081000D01*
X34126978Y-41047144D01*
X34287310Y-40980732D01*
X34431605Y-40884318D01*
X34554318Y-40761605D01*
X34650732Y-40617310D01*
X34717144Y-40456978D01*
X34751000Y-40286771D01*
X34751000Y-40113229D01*
X34717144Y-39943022D01*
X34650732Y-39782690D01*
X34611806Y-39724432D01*
X34640711Y-39700711D01*
X34688322Y-39642696D01*
X34723701Y-39576508D01*
X34745487Y-39504689D01*
X34752843Y-39430000D01*
X34752843Y-38612927D01*
X37009000Y-38612927D01*
X37009000Y-38747073D01*
X37035171Y-38878640D01*
X37086506Y-39002574D01*
X37161033Y-39114112D01*
X37255888Y-39208967D01*
X37367426Y-39283494D01*
X37491360Y-39334829D01*
X37622927Y-39361000D01*
X37757073Y-39361000D01*
X37888640Y-39334829D01*
X38012574Y-39283494D01*
X38124112Y-39208967D01*
X38218967Y-39114112D01*
X38293494Y-39002574D01*
X38344829Y-38878640D01*
X38371000Y-38747073D01*
X38371000Y-38612927D01*
X38344829Y-38481360D01*
X38293494Y-38357426D01*
X38218967Y-38245888D01*
X38124112Y-38151033D01*
X38012574Y-38076506D01*
X37888640Y-38025171D01*
X37757073Y-37999000D01*
X37622927Y-37999000D01*
X37491360Y-38025171D01*
X37367426Y-38076506D01*
X37255888Y-38151033D01*
X37161033Y-38245888D01*
X37086506Y-38357426D01*
X37035171Y-38481360D01*
X37009000Y-38612927D01*
X34752843Y-38612927D01*
X34752843Y-38430000D01*
X34745487Y-38355311D01*
X34723701Y-38283492D01*
X34688322Y-38217304D01*
X34640711Y-38159289D01*
X34582696Y-38111678D01*
X34516508Y-38076299D01*
X34444689Y-38054513D01*
X34370000Y-38047157D01*
X33370000Y-38047157D01*
X33315622Y-38052513D01*
X33160206Y-37942877D01*
X32956864Y-37852554D01*
X32901874Y-37835881D01*
X32727000Y-37962046D01*
X32727000Y-38803000D01*
X32747000Y-38803000D01*
X32747000Y-39057000D01*
X32727000Y-39057000D01*
X32727000Y-39077000D01*
X32473000Y-39077000D01*
X32473000Y-39057000D01*
X31457000Y-39057000D01*
X31457000Y-39077000D01*
X31203000Y-39077000D01*
X31203000Y-39057000D01*
X31183000Y-39057000D01*
X31183000Y-38803000D01*
X31203000Y-38803000D01*
X31203000Y-37962046D01*
X31457000Y-37962046D01*
X31457000Y-38803000D01*
X32473000Y-38803000D01*
X32473000Y-37962046D01*
X32298126Y-37835881D01*
X32243136Y-37852554D01*
X32039794Y-37942877D01*
X31965000Y-37995639D01*
X31890206Y-37942877D01*
X31686864Y-37852554D01*
X31631874Y-37835881D01*
X31457000Y-37962046D01*
X31203000Y-37962046D01*
X31028126Y-37835881D01*
X30973136Y-37852554D01*
X30769794Y-37942877D01*
X30587980Y-38071135D01*
X30499569Y-38164141D01*
X30477310Y-38149268D01*
X30316978Y-38082856D01*
X30146771Y-38049000D01*
X29973229Y-38049000D01*
X29803022Y-38082856D01*
X29642690Y-38149268D01*
X29620431Y-38164141D01*
X29532020Y-38071135D01*
X29350206Y-37942877D01*
X29146864Y-37852554D01*
X29091874Y-37835881D01*
X28917000Y-37962046D01*
X28917000Y-38803000D01*
X28937000Y-38803000D01*
X28937000Y-39057000D01*
X28917000Y-39057000D01*
X28917000Y-39077000D01*
X28663000Y-39077000D01*
X28663000Y-39057000D01*
X27820871Y-39057000D01*
X27695874Y-39231876D01*
X21656000Y-39231876D01*
X21656000Y-38685486D01*
X21665472Y-38697028D01*
X21814849Y-38819618D01*
X21985271Y-38910711D01*
X22170190Y-38966805D01*
X22314313Y-38981000D01*
X23110687Y-38981000D01*
X23254810Y-38966805D01*
X23439729Y-38910711D01*
X23610151Y-38819618D01*
X23759528Y-38697028D01*
X23816075Y-38628124D01*
X27695874Y-38628124D01*
X27820871Y-38803000D01*
X28663000Y-38803000D01*
X28663000Y-37962046D01*
X28488126Y-37835881D01*
X28433136Y-37852554D01*
X28229794Y-37942877D01*
X28047980Y-38071135D01*
X27894682Y-38232399D01*
X27775790Y-38420471D01*
X27695874Y-38628124D01*
X23816075Y-38628124D01*
X23882118Y-38547651D01*
X23973211Y-38377229D01*
X24029305Y-38192310D01*
X24048246Y-38000000D01*
X24029305Y-37807690D01*
X23973211Y-37622771D01*
X23882118Y-37452349D01*
X23759528Y-37302972D01*
X23610151Y-37180382D01*
X23439729Y-37089289D01*
X23254810Y-37033195D01*
X23110687Y-37019000D01*
X22314313Y-37019000D01*
X22170190Y-37033195D01*
X21985271Y-37089289D01*
X21814849Y-37180382D01*
X21665472Y-37302972D01*
X21656000Y-37314514D01*
X21656000Y-36891069D01*
X24306500Y-36891069D01*
X24306500Y-37108931D01*
X24349003Y-37322608D01*
X24432376Y-37523887D01*
X24553414Y-37705034D01*
X24707466Y-37859086D01*
X24888613Y-37980124D01*
X25089892Y-38063497D01*
X25303569Y-38106000D01*
X25521431Y-38106000D01*
X25735108Y-38063497D01*
X25936387Y-37980124D01*
X26117534Y-37859086D01*
X26271586Y-37705034D01*
X26392624Y-37523887D01*
X26475997Y-37322608D01*
X26518500Y-37108931D01*
X26518500Y-36891069D01*
X26475997Y-36677392D01*
X26392624Y-36476113D01*
X26271586Y-36294966D01*
X26117534Y-36140914D01*
X25936387Y-36019876D01*
X25735108Y-35936503D01*
X25521431Y-35894000D01*
X25303569Y-35894000D01*
X25089892Y-35936503D01*
X24888613Y-36019876D01*
X24707466Y-36140914D01*
X24553414Y-36294966D01*
X24432376Y-36476113D01*
X24349003Y-36677392D01*
X24306500Y-36891069D01*
X21656000Y-36891069D01*
X21656000Y-35037852D01*
X27769000Y-35037852D01*
X27769000Y-35162148D01*
X27793249Y-35284056D01*
X27840815Y-35398891D01*
X27909870Y-35502239D01*
X27997761Y-35590130D01*
X28101109Y-35659185D01*
X28215944Y-35706751D01*
X28337852Y-35731000D01*
X28462148Y-35731000D01*
X28584056Y-35706751D01*
X28698891Y-35659185D01*
X28802239Y-35590130D01*
X28890130Y-35502239D01*
X28959185Y-35398891D01*
X29006751Y-35284056D01*
X29031000Y-35162148D01*
X29031000Y-35037852D01*
X29006751Y-34915944D01*
X28959185Y-34801109D01*
X28890130Y-34697761D01*
X28802239Y-34609870D01*
X28698891Y-34540815D01*
X28584056Y-34493249D01*
X28557397Y-34487946D01*
X41918910Y-34487946D01*
X41918910Y-34622092D01*
X41945081Y-34753659D01*
X41996416Y-34877593D01*
X42070943Y-34989131D01*
X42165798Y-35083986D01*
X42277336Y-35158513D01*
X42401270Y-35209848D01*
X42532837Y-35236019D01*
X42666983Y-35236019D01*
X42798550Y-35209848D01*
X42922484Y-35158513D01*
X43034022Y-35083986D01*
X43128877Y-34989131D01*
X43203404Y-34877593D01*
X43254739Y-34753659D01*
X43280910Y-34622092D01*
X43280910Y-34487946D01*
X43254739Y-34356379D01*
X43203404Y-34232445D01*
X43128877Y-34120907D01*
X43034022Y-34026052D01*
X42922484Y-33951525D01*
X42798550Y-33900190D01*
X42666983Y-33874019D01*
X42532837Y-33874019D01*
X42401270Y-33900190D01*
X42277336Y-33951525D01*
X42165798Y-34026052D01*
X42070943Y-34120907D01*
X41996416Y-34232445D01*
X41945081Y-34356379D01*
X41918910Y-34487946D01*
X28557397Y-34487946D01*
X28462148Y-34469000D01*
X28337852Y-34469000D01*
X28215944Y-34493249D01*
X28101109Y-34540815D01*
X27997761Y-34609870D01*
X27909870Y-34697761D01*
X27840815Y-34801109D01*
X27793249Y-34915944D01*
X27769000Y-35037852D01*
X21656000Y-35037852D01*
X21656000Y-33482927D01*
X26369000Y-33482927D01*
X26369000Y-33617073D01*
X26395171Y-33748640D01*
X26446506Y-33872574D01*
X26521033Y-33984112D01*
X26615888Y-34078967D01*
X26727426Y-34153494D01*
X26851360Y-34204829D01*
X26982927Y-34231000D01*
X27117073Y-34231000D01*
X27248640Y-34204829D01*
X27372574Y-34153494D01*
X27484112Y-34078967D01*
X27578967Y-33984112D01*
X27653494Y-33872574D01*
X27704829Y-33748640D01*
X27731000Y-33617073D01*
X27731000Y-33482927D01*
X27704829Y-33351360D01*
X27672404Y-33273078D01*
X31919000Y-33273078D01*
X31919000Y-33426922D01*
X31949013Y-33577809D01*
X32007887Y-33719942D01*
X32093358Y-33847859D01*
X32202141Y-33956642D01*
X32330058Y-34042113D01*
X32472191Y-34100987D01*
X32623078Y-34131000D01*
X32776922Y-34131000D01*
X32927809Y-34100987D01*
X33069942Y-34042113D01*
X33137500Y-33996972D01*
X33205058Y-34042113D01*
X33347191Y-34100987D01*
X33498078Y-34131000D01*
X33651922Y-34131000D01*
X33802809Y-34100987D01*
X33944942Y-34042113D01*
X34012500Y-33996972D01*
X34080058Y-34042113D01*
X34222191Y-34100987D01*
X34373078Y-34131000D01*
X34526922Y-34131000D01*
X34677809Y-34100987D01*
X34819942Y-34042113D01*
X34947859Y-33956642D01*
X35056642Y-33847859D01*
X35142113Y-33719942D01*
X35200987Y-33577809D01*
X35231000Y-33426922D01*
X35231000Y-33273078D01*
X35200987Y-33122191D01*
X35142113Y-32980058D01*
X35096972Y-32912500D01*
X35142113Y-32844942D01*
X35200987Y-32702809D01*
X35231000Y-32551922D01*
X35231000Y-32398078D01*
X35200987Y-32247191D01*
X35142113Y-32105058D01*
X35056642Y-31977141D01*
X34947859Y-31868358D01*
X34819942Y-31782887D01*
X34677809Y-31724013D01*
X34526922Y-31694000D01*
X34373078Y-31694000D01*
X34222191Y-31724013D01*
X34080058Y-31782887D01*
X33952141Y-31868358D01*
X33843358Y-31977141D01*
X33757887Y-32105058D01*
X33699013Y-32247191D01*
X33669000Y-32398078D01*
X33669000Y-32551922D01*
X33673240Y-32573240D01*
X33651922Y-32569000D01*
X33498078Y-32569000D01*
X33347191Y-32599013D01*
X33205058Y-32657887D01*
X33137500Y-32703028D01*
X33069942Y-32657887D01*
X32927809Y-32599013D01*
X32776922Y-32569000D01*
X32623078Y-32569000D01*
X32472191Y-32599013D01*
X32330058Y-32657887D01*
X32202141Y-32743358D01*
X32093358Y-32852141D01*
X32007887Y-32980058D01*
X31949013Y-33122191D01*
X31919000Y-33273078D01*
X27672404Y-33273078D01*
X27653494Y-33227426D01*
X27578967Y-33115888D01*
X27484112Y-33021033D01*
X27372574Y-32946506D01*
X27248640Y-32895171D01*
X27117073Y-32869000D01*
X26982927Y-32869000D01*
X26851360Y-32895171D01*
X26727426Y-32946506D01*
X26615888Y-33021033D01*
X26521033Y-33115888D01*
X26446506Y-33227426D01*
X26395171Y-33351360D01*
X26369000Y-33482927D01*
X21656000Y-33482927D01*
X21656000Y-31685486D01*
X21665472Y-31697028D01*
X21814849Y-31819618D01*
X21985271Y-31910711D01*
X22170190Y-31966805D01*
X22314313Y-31981000D01*
X23110687Y-31981000D01*
X23254810Y-31966805D01*
X23439729Y-31910711D01*
X23476476Y-31891069D01*
X24306500Y-31891069D01*
X24306500Y-32108931D01*
X24349003Y-32322608D01*
X24432376Y-32523887D01*
X24553414Y-32705034D01*
X24707466Y-32859086D01*
X24888613Y-32980124D01*
X25089892Y-33063497D01*
X25303569Y-33106000D01*
X25521431Y-33106000D01*
X25735108Y-33063497D01*
X25936387Y-32980124D01*
X26117534Y-32859086D01*
X26271586Y-32705034D01*
X26392624Y-32523887D01*
X26475997Y-32322608D01*
X26518500Y-32108931D01*
X26518500Y-31891069D01*
X26475997Y-31677392D01*
X26392624Y-31476113D01*
X26271586Y-31294966D01*
X26117534Y-31140914D01*
X25936387Y-31019876D01*
X25919611Y-31012927D01*
X36959000Y-31012927D01*
X36959000Y-31147073D01*
X36985171Y-31278640D01*
X37036506Y-31402574D01*
X37111033Y-31514112D01*
X37205888Y-31608967D01*
X37317426Y-31683494D01*
X37441360Y-31734829D01*
X37572927Y-31761000D01*
X37707073Y-31761000D01*
X37838640Y-31734829D01*
X37962574Y-31683494D01*
X38074112Y-31608967D01*
X38168967Y-31514112D01*
X38223162Y-31433003D01*
X40884000Y-31433003D01*
X40884000Y-31576997D01*
X40912092Y-31718225D01*
X40967196Y-31851258D01*
X41047195Y-31970985D01*
X41149015Y-32072805D01*
X41268742Y-32152804D01*
X41401775Y-32207908D01*
X41543003Y-32236000D01*
X41686997Y-32236000D01*
X41828225Y-32207908D01*
X41961258Y-32152804D01*
X42080985Y-32072805D01*
X42182805Y-31970985D01*
X42262804Y-31851258D01*
X42317908Y-31718225D01*
X42330881Y-31653003D01*
X47919000Y-31653003D01*
X47919000Y-31796997D01*
X47947092Y-31938225D01*
X48002196Y-32071258D01*
X48082195Y-32190985D01*
X48184015Y-32292805D01*
X48303742Y-32372804D01*
X48436775Y-32427908D01*
X48578003Y-32456000D01*
X48721997Y-32456000D01*
X48863225Y-32427908D01*
X48996258Y-32372804D01*
X49115985Y-32292805D01*
X49217805Y-32190985D01*
X49297804Y-32071258D01*
X49352908Y-31938225D01*
X49381000Y-31796997D01*
X49381000Y-31653003D01*
X49352908Y-31511775D01*
X49297804Y-31378742D01*
X49217805Y-31259015D01*
X49115985Y-31157195D01*
X48996258Y-31077196D01*
X48863225Y-31022092D01*
X48721997Y-30994000D01*
X48578003Y-30994000D01*
X48436775Y-31022092D01*
X48303742Y-31077196D01*
X48184015Y-31157195D01*
X48082195Y-31259015D01*
X48002196Y-31378742D01*
X47947092Y-31511775D01*
X47919000Y-31653003D01*
X42330881Y-31653003D01*
X42346000Y-31576997D01*
X42346000Y-31433003D01*
X42317908Y-31291775D01*
X42262804Y-31158742D01*
X42182805Y-31039015D01*
X42080985Y-30937195D01*
X41961258Y-30857196D01*
X41828225Y-30802092D01*
X41686997Y-30774000D01*
X41543003Y-30774000D01*
X41401775Y-30802092D01*
X41268742Y-30857196D01*
X41149015Y-30937195D01*
X41047195Y-31039015D01*
X40967196Y-31158742D01*
X40912092Y-31291775D01*
X40884000Y-31433003D01*
X38223162Y-31433003D01*
X38243494Y-31402574D01*
X38294829Y-31278640D01*
X38321000Y-31147073D01*
X38321000Y-31012927D01*
X38294829Y-30881360D01*
X38243494Y-30757426D01*
X38168967Y-30645888D01*
X38074112Y-30551033D01*
X37962574Y-30476506D01*
X37838640Y-30425171D01*
X37707073Y-30399000D01*
X37572927Y-30399000D01*
X37441360Y-30425171D01*
X37317426Y-30476506D01*
X37205888Y-30551033D01*
X37111033Y-30645888D01*
X37036506Y-30757426D01*
X36985171Y-30881360D01*
X36959000Y-31012927D01*
X25919611Y-31012927D01*
X25735108Y-30936503D01*
X25521431Y-30894000D01*
X25303569Y-30894000D01*
X25089892Y-30936503D01*
X24888613Y-31019876D01*
X24707466Y-31140914D01*
X24553414Y-31294966D01*
X24432376Y-31476113D01*
X24349003Y-31677392D01*
X24306500Y-31891069D01*
X23476476Y-31891069D01*
X23610151Y-31819618D01*
X23759528Y-31697028D01*
X23882118Y-31547651D01*
X23973211Y-31377229D01*
X24029305Y-31192310D01*
X24048246Y-31000000D01*
X24029305Y-30807690D01*
X23973211Y-30622771D01*
X23882118Y-30452349D01*
X23759528Y-30302972D01*
X23629063Y-30195902D01*
X38625275Y-30195902D01*
X38625275Y-30330048D01*
X38651446Y-30461615D01*
X38702781Y-30585549D01*
X38777308Y-30697087D01*
X38872163Y-30791942D01*
X38983701Y-30866469D01*
X39107635Y-30917804D01*
X39239202Y-30943975D01*
X39373348Y-30943975D01*
X39504915Y-30917804D01*
X39628849Y-30866469D01*
X39740387Y-30791942D01*
X39835242Y-30697087D01*
X39909769Y-30585549D01*
X39961104Y-30461615D01*
X39987275Y-30330048D01*
X39987275Y-30195902D01*
X39961104Y-30064335D01*
X39909769Y-29940401D01*
X39835242Y-29828863D01*
X39740387Y-29734008D01*
X39628849Y-29659481D01*
X39504915Y-29608146D01*
X39373348Y-29581975D01*
X39239202Y-29581975D01*
X39107635Y-29608146D01*
X38983701Y-29659481D01*
X38872163Y-29734008D01*
X38777308Y-29828863D01*
X38702781Y-29940401D01*
X38651446Y-30064335D01*
X38625275Y-30195902D01*
X23629063Y-30195902D01*
X23610151Y-30180382D01*
X23439729Y-30089289D01*
X23254810Y-30033195D01*
X23110687Y-30019000D01*
X22314313Y-30019000D01*
X22170190Y-30033195D01*
X21985271Y-30089289D01*
X21814849Y-30180382D01*
X21665472Y-30302972D01*
X21656000Y-30314514D01*
X21656000Y-29019854D01*
X21688267Y-28690771D01*
X21778075Y-28393312D01*
X21802126Y-28348078D01*
X43969000Y-28348078D01*
X43969000Y-28501922D01*
X43999013Y-28652809D01*
X44057887Y-28794942D01*
X44143358Y-28922859D01*
X44252141Y-29031642D01*
X44380058Y-29117113D01*
X44522191Y-29175987D01*
X44673078Y-29206000D01*
X44826922Y-29206000D01*
X44977809Y-29175987D01*
X45119942Y-29117113D01*
X45247859Y-29031642D01*
X45356642Y-28922859D01*
X45442113Y-28794942D01*
X45500987Y-28652809D01*
X45531000Y-28501922D01*
X45531000Y-28348078D01*
X45500987Y-28197191D01*
X45442113Y-28055058D01*
X45356642Y-27927141D01*
X45247859Y-27818358D01*
X45119942Y-27732887D01*
X44977809Y-27674013D01*
X44826922Y-27644000D01*
X44673078Y-27644000D01*
X44522191Y-27674013D01*
X44380058Y-27732887D01*
X44252141Y-27818358D01*
X44143358Y-27927141D01*
X44057887Y-28055058D01*
X43999013Y-28197191D01*
X43969000Y-28348078D01*
X21802126Y-28348078D01*
X21923945Y-28118972D01*
X22120325Y-27878187D01*
X22359736Y-27680127D01*
X22633053Y-27532346D01*
X22929872Y-27440465D01*
X23257782Y-27406000D01*
X58180146Y-27406000D01*
X58509229Y-27438267D01*
G37*
X58509229Y-27438267D02*
X58806688Y-27528075D01*
X59081028Y-27673945D01*
X59321813Y-27870325D01*
X59519873Y-28109736D01*
X59667654Y-28383053D01*
X59759535Y-28679872D01*
X59794001Y-29007792D01*
X59794000Y-31619940D01*
X59794001Y-31619950D01*
X59794000Y-34480059D01*
X59794000Y-34480060D01*
X59794001Y-39980136D01*
X59761733Y-40309230D01*
X59671926Y-40606684D01*
X59526056Y-40881025D01*
X59329675Y-41121813D01*
X59090265Y-41319871D01*
X58816948Y-41467654D01*
X58520128Y-41559535D01*
X58192453Y-41593975D01*
X49927000Y-41568465D01*
X49927000Y-36250000D01*
X49924560Y-36225224D01*
X49917333Y-36201399D01*
X49905597Y-36179443D01*
X49889803Y-36160197D01*
X49870557Y-36144403D01*
X49848601Y-36132667D01*
X49824776Y-36125440D01*
X49800000Y-36123000D01*
X47877000Y-36123000D01*
X47877000Y-35250000D01*
X47874560Y-35225224D01*
X47867333Y-35201399D01*
X47855597Y-35179443D01*
X47839803Y-35160197D01*
X47820557Y-35144403D01*
X47798601Y-35132667D01*
X47774776Y-35125440D01*
X47750000Y-35123000D01*
X45900000Y-35123000D01*
X45875224Y-35125440D01*
X45851399Y-35132667D01*
X45829443Y-35144403D01*
X45810197Y-35160197D01*
X45794403Y-35179443D01*
X45782667Y-35201399D01*
X45775440Y-35225224D01*
X45773000Y-35250000D01*
X45773000Y-37673000D01*
X43851000Y-37673000D01*
X43851000Y-37543078D01*
X43820987Y-37392191D01*
X43762113Y-37250058D01*
X43676642Y-37122141D01*
X43567859Y-37013358D01*
X43439942Y-36927887D01*
X43297809Y-36869013D01*
X43146922Y-36839000D01*
X42993078Y-36839000D01*
X42980338Y-36841534D01*
X43014112Y-36818967D01*
X43108967Y-36724112D01*
X43183494Y-36612574D01*
X43234829Y-36488640D01*
X43261000Y-36357073D01*
X43261000Y-36222927D01*
X43234829Y-36091360D01*
X43183494Y-35967426D01*
X43108967Y-35855888D01*
X43014112Y-35761033D01*
X42902574Y-35686506D01*
X42778640Y-35635171D01*
X42647073Y-35609000D01*
X42512927Y-35609000D01*
X42381360Y-35635171D01*
X42257426Y-35686506D01*
X42145888Y-35761033D01*
X42051033Y-35855888D01*
X41976506Y-35967426D01*
X41925171Y-36091360D01*
X41899000Y-36222927D01*
X41899000Y-36357073D01*
X41925171Y-36488640D01*
X41976506Y-36612574D01*
X42051033Y-36724112D01*
X42145888Y-36818967D01*
X42257426Y-36893494D01*
X42381360Y-36944829D01*
X42512927Y-36971000D01*
X42635535Y-36971000D01*
X42572141Y-37013358D01*
X42463358Y-37122141D01*
X42377887Y-37250058D01*
X42319013Y-37392191D01*
X42289000Y-37543078D01*
X42289000Y-37678845D01*
X42276399Y-37682667D01*
X42254443Y-37694403D01*
X42235197Y-37710197D01*
X42219403Y-37729443D01*
X42207667Y-37751399D01*
X42200440Y-37775224D01*
X42198000Y-37800000D01*
X42198000Y-41544610D01*
X42021165Y-41544064D01*
X42021126Y-41544060D01*
X41997703Y-41543992D01*
X41981313Y-41543941D01*
X41981285Y-41543944D01*
X31181245Y-41512399D01*
X31165408Y-41513912D01*
X23270372Y-41494051D01*
X22940770Y-41461733D01*
X22643316Y-41371926D01*
X22368975Y-41226056D01*
X22128187Y-41029675D01*
X21930129Y-40790265D01*
X21782346Y-40516948D01*
X21690465Y-40220128D01*
X21656000Y-39892218D01*
X21656000Y-39231876D01*
X27695874Y-39231876D01*
X27775790Y-39439529D01*
X27894682Y-39627601D01*
X28022824Y-39762402D01*
X28009268Y-39782690D01*
X27942856Y-39943022D01*
X27909000Y-40113229D01*
X27909000Y-40286771D01*
X27942856Y-40456978D01*
X28009268Y-40617310D01*
X28105682Y-40761605D01*
X28228395Y-40884318D01*
X28372690Y-40980732D01*
X28533022Y-41047144D01*
X28703229Y-41081000D01*
X28876771Y-41081000D01*
X29046978Y-41047144D01*
X29207310Y-40980732D01*
X29351605Y-40884318D01*
X29425000Y-40810923D01*
X29498395Y-40884318D01*
X29642690Y-40980732D01*
X29803022Y-41047144D01*
X29973229Y-41081000D01*
X30146771Y-41081000D01*
X30316978Y-41047144D01*
X30477310Y-40980732D01*
X30621605Y-40884318D01*
X30695000Y-40810923D01*
X30768395Y-40884318D01*
X30912690Y-40980732D01*
X31073022Y-41047144D01*
X31243229Y-41081000D01*
X31416771Y-41081000D01*
X31586978Y-41047144D01*
X31747310Y-40980732D01*
X31891605Y-40884318D01*
X31965000Y-40810923D01*
X32038395Y-40884318D01*
X32182690Y-40980732D01*
X32343022Y-41047144D01*
X32513229Y-41081000D01*
X32686771Y-41081000D01*
X32856978Y-41047144D01*
X33017310Y-40980732D01*
X33161605Y-40884318D01*
X33235000Y-40810923D01*
X33308395Y-40884318D01*
X33452690Y-40980732D01*
X33613022Y-41047144D01*
X33783229Y-41081000D01*
X33956771Y-41081000D01*
X34126978Y-41047144D01*
X34287310Y-40980732D01*
X34431605Y-40884318D01*
X34554318Y-40761605D01*
X34650732Y-40617310D01*
X34717144Y-40456978D01*
X34751000Y-40286771D01*
X34751000Y-40113229D01*
X34717144Y-39943022D01*
X34650732Y-39782690D01*
X34611806Y-39724432D01*
X34640711Y-39700711D01*
X34688322Y-39642696D01*
X34723701Y-39576508D01*
X34745487Y-39504689D01*
X34752843Y-39430000D01*
X34752843Y-38612927D01*
X37009000Y-38612927D01*
X37009000Y-38747073D01*
X37035171Y-38878640D01*
X37086506Y-39002574D01*
X37161033Y-39114112D01*
X37255888Y-39208967D01*
X37367426Y-39283494D01*
X37491360Y-39334829D01*
X37622927Y-39361000D01*
X37757073Y-39361000D01*
X37888640Y-39334829D01*
X38012574Y-39283494D01*
X38124112Y-39208967D01*
X38218967Y-39114112D01*
X38293494Y-39002574D01*
X38344829Y-38878640D01*
X38371000Y-38747073D01*
X38371000Y-38612927D01*
X38344829Y-38481360D01*
X38293494Y-38357426D01*
X38218967Y-38245888D01*
X38124112Y-38151033D01*
X38012574Y-38076506D01*
X37888640Y-38025171D01*
X37757073Y-37999000D01*
X37622927Y-37999000D01*
X37491360Y-38025171D01*
X37367426Y-38076506D01*
X37255888Y-38151033D01*
X37161033Y-38245888D01*
X37086506Y-38357426D01*
X37035171Y-38481360D01*
X37009000Y-38612927D01*
X34752843Y-38612927D01*
X34752843Y-38430000D01*
X34745487Y-38355311D01*
X34723701Y-38283492D01*
X34688322Y-38217304D01*
X34640711Y-38159289D01*
X34582696Y-38111678D01*
X34516508Y-38076299D01*
X34444689Y-38054513D01*
X34370000Y-38047157D01*
X33370000Y-38047157D01*
X33315622Y-38052513D01*
X33160206Y-37942877D01*
X32956864Y-37852554D01*
X32901874Y-37835881D01*
X32727000Y-37962046D01*
X32727000Y-38803000D01*
X32747000Y-38803000D01*
X32747000Y-39057000D01*
X32727000Y-39057000D01*
X32727000Y-39077000D01*
X32473000Y-39077000D01*
X32473000Y-39057000D01*
X31457000Y-39057000D01*
X31457000Y-39077000D01*
X31203000Y-39077000D01*
X31203000Y-39057000D01*
X31183000Y-39057000D01*
X31183000Y-38803000D01*
X31203000Y-38803000D01*
X31203000Y-37962046D01*
X31457000Y-37962046D01*
X31457000Y-38803000D01*
X32473000Y-38803000D01*
X32473000Y-37962046D01*
X32298126Y-37835881D01*
X32243136Y-37852554D01*
X32039794Y-37942877D01*
X31965000Y-37995639D01*
X31890206Y-37942877D01*
X31686864Y-37852554D01*
X31631874Y-37835881D01*
X31457000Y-37962046D01*
X31203000Y-37962046D01*
X31028126Y-37835881D01*
X30973136Y-37852554D01*
X30769794Y-37942877D01*
X30587980Y-38071135D01*
X30499569Y-38164141D01*
X30477310Y-38149268D01*
X30316978Y-38082856D01*
X30146771Y-38049000D01*
X29973229Y-38049000D01*
X29803022Y-38082856D01*
X29642690Y-38149268D01*
X29620431Y-38164141D01*
X29532020Y-38071135D01*
X29350206Y-37942877D01*
X29146864Y-37852554D01*
X29091874Y-37835881D01*
X28917000Y-37962046D01*
X28917000Y-38803000D01*
X28937000Y-38803000D01*
X28937000Y-39057000D01*
X28917000Y-39057000D01*
X28917000Y-39077000D01*
X28663000Y-39077000D01*
X28663000Y-39057000D01*
X27820871Y-39057000D01*
X27695874Y-39231876D01*
X21656000Y-39231876D01*
X21656000Y-38685486D01*
X21665472Y-38697028D01*
X21814849Y-38819618D01*
X21985271Y-38910711D01*
X22170190Y-38966805D01*
X22314313Y-38981000D01*
X23110687Y-38981000D01*
X23254810Y-38966805D01*
X23439729Y-38910711D01*
X23610151Y-38819618D01*
X23759528Y-38697028D01*
X23816075Y-38628124D01*
X27695874Y-38628124D01*
X27820871Y-38803000D01*
X28663000Y-38803000D01*
X28663000Y-37962046D01*
X28488126Y-37835881D01*
X28433136Y-37852554D01*
X28229794Y-37942877D01*
X28047980Y-38071135D01*
X27894682Y-38232399D01*
X27775790Y-38420471D01*
X27695874Y-38628124D01*
X23816075Y-38628124D01*
X23882118Y-38547651D01*
X23973211Y-38377229D01*
X24029305Y-38192310D01*
X24048246Y-38000000D01*
X24029305Y-37807690D01*
X23973211Y-37622771D01*
X23882118Y-37452349D01*
X23759528Y-37302972D01*
X23610151Y-37180382D01*
X23439729Y-37089289D01*
X23254810Y-37033195D01*
X23110687Y-37019000D01*
X22314313Y-37019000D01*
X22170190Y-37033195D01*
X21985271Y-37089289D01*
X21814849Y-37180382D01*
X21665472Y-37302972D01*
X21656000Y-37314514D01*
X21656000Y-36891069D01*
X24306500Y-36891069D01*
X24306500Y-37108931D01*
X24349003Y-37322608D01*
X24432376Y-37523887D01*
X24553414Y-37705034D01*
X24707466Y-37859086D01*
X24888613Y-37980124D01*
X25089892Y-38063497D01*
X25303569Y-38106000D01*
X25521431Y-38106000D01*
X25735108Y-38063497D01*
X25936387Y-37980124D01*
X26117534Y-37859086D01*
X26271586Y-37705034D01*
X26392624Y-37523887D01*
X26475997Y-37322608D01*
X26518500Y-37108931D01*
X26518500Y-36891069D01*
X26475997Y-36677392D01*
X26392624Y-36476113D01*
X26271586Y-36294966D01*
X26117534Y-36140914D01*
X25936387Y-36019876D01*
X25735108Y-35936503D01*
X25521431Y-35894000D01*
X25303569Y-35894000D01*
X25089892Y-35936503D01*
X24888613Y-36019876D01*
X24707466Y-36140914D01*
X24553414Y-36294966D01*
X24432376Y-36476113D01*
X24349003Y-36677392D01*
X24306500Y-36891069D01*
X21656000Y-36891069D01*
X21656000Y-35037852D01*
X27769000Y-35037852D01*
X27769000Y-35162148D01*
X27793249Y-35284056D01*
X27840815Y-35398891D01*
X27909870Y-35502239D01*
X27997761Y-35590130D01*
X28101109Y-35659185D01*
X28215944Y-35706751D01*
X28337852Y-35731000D01*
X28462148Y-35731000D01*
X28584056Y-35706751D01*
X28698891Y-35659185D01*
X28802239Y-35590130D01*
X28890130Y-35502239D01*
X28959185Y-35398891D01*
X29006751Y-35284056D01*
X29031000Y-35162148D01*
X29031000Y-35037852D01*
X29006751Y-34915944D01*
X28959185Y-34801109D01*
X28890130Y-34697761D01*
X28802239Y-34609870D01*
X28698891Y-34540815D01*
X28584056Y-34493249D01*
X28557397Y-34487946D01*
X41918910Y-34487946D01*
X41918910Y-34622092D01*
X41945081Y-34753659D01*
X41996416Y-34877593D01*
X42070943Y-34989131D01*
X42165798Y-35083986D01*
X42277336Y-35158513D01*
X42401270Y-35209848D01*
X42532837Y-35236019D01*
X42666983Y-35236019D01*
X42798550Y-35209848D01*
X42922484Y-35158513D01*
X43034022Y-35083986D01*
X43128877Y-34989131D01*
X43203404Y-34877593D01*
X43254739Y-34753659D01*
X43280910Y-34622092D01*
X43280910Y-34487946D01*
X43254739Y-34356379D01*
X43203404Y-34232445D01*
X43128877Y-34120907D01*
X43034022Y-34026052D01*
X42922484Y-33951525D01*
X42798550Y-33900190D01*
X42666983Y-33874019D01*
X42532837Y-33874019D01*
X42401270Y-33900190D01*
X42277336Y-33951525D01*
X42165798Y-34026052D01*
X42070943Y-34120907D01*
X41996416Y-34232445D01*
X41945081Y-34356379D01*
X41918910Y-34487946D01*
X28557397Y-34487946D01*
X28462148Y-34469000D01*
X28337852Y-34469000D01*
X28215944Y-34493249D01*
X28101109Y-34540815D01*
X27997761Y-34609870D01*
X27909870Y-34697761D01*
X27840815Y-34801109D01*
X27793249Y-34915944D01*
X27769000Y-35037852D01*
X21656000Y-35037852D01*
X21656000Y-33482927D01*
X26369000Y-33482927D01*
X26369000Y-33617073D01*
X26395171Y-33748640D01*
X26446506Y-33872574D01*
X26521033Y-33984112D01*
X26615888Y-34078967D01*
X26727426Y-34153494D01*
X26851360Y-34204829D01*
X26982927Y-34231000D01*
X27117073Y-34231000D01*
X27248640Y-34204829D01*
X27372574Y-34153494D01*
X27484112Y-34078967D01*
X27578967Y-33984112D01*
X27653494Y-33872574D01*
X27704829Y-33748640D01*
X27731000Y-33617073D01*
X27731000Y-33482927D01*
X27704829Y-33351360D01*
X27672404Y-33273078D01*
X31919000Y-33273078D01*
X31919000Y-33426922D01*
X31949013Y-33577809D01*
X32007887Y-33719942D01*
X32093358Y-33847859D01*
X32202141Y-33956642D01*
X32330058Y-34042113D01*
X32472191Y-34100987D01*
X32623078Y-34131000D01*
X32776922Y-34131000D01*
X32927809Y-34100987D01*
X33069942Y-34042113D01*
X33137500Y-33996972D01*
X33205058Y-34042113D01*
X33347191Y-34100987D01*
X33498078Y-34131000D01*
X33651922Y-34131000D01*
X33802809Y-34100987D01*
X33944942Y-34042113D01*
X34012500Y-33996972D01*
X34080058Y-34042113D01*
X34222191Y-34100987D01*
X34373078Y-34131000D01*
X34526922Y-34131000D01*
X34677809Y-34100987D01*
X34819942Y-34042113D01*
X34947859Y-33956642D01*
X35056642Y-33847859D01*
X35142113Y-33719942D01*
X35200987Y-33577809D01*
X35231000Y-33426922D01*
X35231000Y-33273078D01*
X35200987Y-33122191D01*
X35142113Y-32980058D01*
X35096972Y-32912500D01*
X35142113Y-32844942D01*
X35200987Y-32702809D01*
X35231000Y-32551922D01*
X35231000Y-32398078D01*
X35200987Y-32247191D01*
X35142113Y-32105058D01*
X35056642Y-31977141D01*
X34947859Y-31868358D01*
X34819942Y-31782887D01*
X34677809Y-31724013D01*
X34526922Y-31694000D01*
X34373078Y-31694000D01*
X34222191Y-31724013D01*
X34080058Y-31782887D01*
X33952141Y-31868358D01*
X33843358Y-31977141D01*
X33757887Y-32105058D01*
X33699013Y-32247191D01*
X33669000Y-32398078D01*
X33669000Y-32551922D01*
X33673240Y-32573240D01*
X33651922Y-32569000D01*
X33498078Y-32569000D01*
X33347191Y-32599013D01*
X33205058Y-32657887D01*
X33137500Y-32703028D01*
X33069942Y-32657887D01*
X32927809Y-32599013D01*
X32776922Y-32569000D01*
X32623078Y-32569000D01*
X32472191Y-32599013D01*
X32330058Y-32657887D01*
X32202141Y-32743358D01*
X32093358Y-32852141D01*
X32007887Y-32980058D01*
X31949013Y-33122191D01*
X31919000Y-33273078D01*
X27672404Y-33273078D01*
X27653494Y-33227426D01*
X27578967Y-33115888D01*
X27484112Y-33021033D01*
X27372574Y-32946506D01*
X27248640Y-32895171D01*
X27117073Y-32869000D01*
X26982927Y-32869000D01*
X26851360Y-32895171D01*
X26727426Y-32946506D01*
X26615888Y-33021033D01*
X26521033Y-33115888D01*
X26446506Y-33227426D01*
X26395171Y-33351360D01*
X26369000Y-33482927D01*
X21656000Y-33482927D01*
X21656000Y-31685486D01*
X21665472Y-31697028D01*
X21814849Y-31819618D01*
X21985271Y-31910711D01*
X22170190Y-31966805D01*
X22314313Y-31981000D01*
X23110687Y-31981000D01*
X23254810Y-31966805D01*
X23439729Y-31910711D01*
X23476476Y-31891069D01*
X24306500Y-31891069D01*
X24306500Y-32108931D01*
X24349003Y-32322608D01*
X24432376Y-32523887D01*
X24553414Y-32705034D01*
X24707466Y-32859086D01*
X24888613Y-32980124D01*
X25089892Y-33063497D01*
X25303569Y-33106000D01*
X25521431Y-33106000D01*
X25735108Y-33063497D01*
X25936387Y-32980124D01*
X26117534Y-32859086D01*
X26271586Y-32705034D01*
X26392624Y-32523887D01*
X26475997Y-32322608D01*
X26518500Y-32108931D01*
X26518500Y-31891069D01*
X26475997Y-31677392D01*
X26392624Y-31476113D01*
X26271586Y-31294966D01*
X26117534Y-31140914D01*
X25936387Y-31019876D01*
X25919611Y-31012927D01*
X36959000Y-31012927D01*
X36959000Y-31147073D01*
X36985171Y-31278640D01*
X37036506Y-31402574D01*
X37111033Y-31514112D01*
X37205888Y-31608967D01*
X37317426Y-31683494D01*
X37441360Y-31734829D01*
X37572927Y-31761000D01*
X37707073Y-31761000D01*
X37838640Y-31734829D01*
X37962574Y-31683494D01*
X38074112Y-31608967D01*
X38168967Y-31514112D01*
X38223162Y-31433003D01*
X40884000Y-31433003D01*
X40884000Y-31576997D01*
X40912092Y-31718225D01*
X40967196Y-31851258D01*
X41047195Y-31970985D01*
X41149015Y-32072805D01*
X41268742Y-32152804D01*
X41401775Y-32207908D01*
X41543003Y-32236000D01*
X41686997Y-32236000D01*
X41828225Y-32207908D01*
X41961258Y-32152804D01*
X42080985Y-32072805D01*
X42182805Y-31970985D01*
X42262804Y-31851258D01*
X42317908Y-31718225D01*
X42330881Y-31653003D01*
X47919000Y-31653003D01*
X47919000Y-31796997D01*
X47947092Y-31938225D01*
X48002196Y-32071258D01*
X48082195Y-32190985D01*
X48184015Y-32292805D01*
X48303742Y-32372804D01*
X48436775Y-32427908D01*
X48578003Y-32456000D01*
X48721997Y-32456000D01*
X48863225Y-32427908D01*
X48996258Y-32372804D01*
X49115985Y-32292805D01*
X49217805Y-32190985D01*
X49297804Y-32071258D01*
X49352908Y-31938225D01*
X49381000Y-31796997D01*
X49381000Y-31653003D01*
X49352908Y-31511775D01*
X49297804Y-31378742D01*
X49217805Y-31259015D01*
X49115985Y-31157195D01*
X48996258Y-31077196D01*
X48863225Y-31022092D01*
X48721997Y-30994000D01*
X48578003Y-30994000D01*
X48436775Y-31022092D01*
X48303742Y-31077196D01*
X48184015Y-31157195D01*
X48082195Y-31259015D01*
X48002196Y-31378742D01*
X47947092Y-31511775D01*
X47919000Y-31653003D01*
X42330881Y-31653003D01*
X42346000Y-31576997D01*
X42346000Y-31433003D01*
X42317908Y-31291775D01*
X42262804Y-31158742D01*
X42182805Y-31039015D01*
X42080985Y-30937195D01*
X41961258Y-30857196D01*
X41828225Y-30802092D01*
X41686997Y-30774000D01*
X41543003Y-30774000D01*
X41401775Y-30802092D01*
X41268742Y-30857196D01*
X41149015Y-30937195D01*
X41047195Y-31039015D01*
X40967196Y-31158742D01*
X40912092Y-31291775D01*
X40884000Y-31433003D01*
X38223162Y-31433003D01*
X38243494Y-31402574D01*
X38294829Y-31278640D01*
X38321000Y-31147073D01*
X38321000Y-31012927D01*
X38294829Y-30881360D01*
X38243494Y-30757426D01*
X38168967Y-30645888D01*
X38074112Y-30551033D01*
X37962574Y-30476506D01*
X37838640Y-30425171D01*
X37707073Y-30399000D01*
X37572927Y-30399000D01*
X37441360Y-30425171D01*
X37317426Y-30476506D01*
X37205888Y-30551033D01*
X37111033Y-30645888D01*
X37036506Y-30757426D01*
X36985171Y-30881360D01*
X36959000Y-31012927D01*
X25919611Y-31012927D01*
X25735108Y-30936503D01*
X25521431Y-30894000D01*
X25303569Y-30894000D01*
X25089892Y-30936503D01*
X24888613Y-31019876D01*
X24707466Y-31140914D01*
X24553414Y-31294966D01*
X24432376Y-31476113D01*
X24349003Y-31677392D01*
X24306500Y-31891069D01*
X23476476Y-31891069D01*
X23610151Y-31819618D01*
X23759528Y-31697028D01*
X23882118Y-31547651D01*
X23973211Y-31377229D01*
X24029305Y-31192310D01*
X24048246Y-31000000D01*
X24029305Y-30807690D01*
X23973211Y-30622771D01*
X23882118Y-30452349D01*
X23759528Y-30302972D01*
X23629063Y-30195902D01*
X38625275Y-30195902D01*
X38625275Y-30330048D01*
X38651446Y-30461615D01*
X38702781Y-30585549D01*
X38777308Y-30697087D01*
X38872163Y-30791942D01*
X38983701Y-30866469D01*
X39107635Y-30917804D01*
X39239202Y-30943975D01*
X39373348Y-30943975D01*
X39504915Y-30917804D01*
X39628849Y-30866469D01*
X39740387Y-30791942D01*
X39835242Y-30697087D01*
X39909769Y-30585549D01*
X39961104Y-30461615D01*
X39987275Y-30330048D01*
X39987275Y-30195902D01*
X39961104Y-30064335D01*
X39909769Y-29940401D01*
X39835242Y-29828863D01*
X39740387Y-29734008D01*
X39628849Y-29659481D01*
X39504915Y-29608146D01*
X39373348Y-29581975D01*
X39239202Y-29581975D01*
X39107635Y-29608146D01*
X38983701Y-29659481D01*
X38872163Y-29734008D01*
X38777308Y-29828863D01*
X38702781Y-29940401D01*
X38651446Y-30064335D01*
X38625275Y-30195902D01*
X23629063Y-30195902D01*
X23610151Y-30180382D01*
X23439729Y-30089289D01*
X23254810Y-30033195D01*
X23110687Y-30019000D01*
X22314313Y-30019000D01*
X22170190Y-30033195D01*
X21985271Y-30089289D01*
X21814849Y-30180382D01*
X21665472Y-30302972D01*
X21656000Y-30314514D01*
X21656000Y-29019854D01*
X21688267Y-28690771D01*
X21778075Y-28393312D01*
X21802126Y-28348078D01*
X43969000Y-28348078D01*
X43969000Y-28501922D01*
X43999013Y-28652809D01*
X44057887Y-28794942D01*
X44143358Y-28922859D01*
X44252141Y-29031642D01*
X44380058Y-29117113D01*
X44522191Y-29175987D01*
X44673078Y-29206000D01*
X44826922Y-29206000D01*
X44977809Y-29175987D01*
X45119942Y-29117113D01*
X45247859Y-29031642D01*
X45356642Y-28922859D01*
X45442113Y-28794942D01*
X45500987Y-28652809D01*
X45531000Y-28501922D01*
X45531000Y-28348078D01*
X45500987Y-28197191D01*
X45442113Y-28055058D01*
X45356642Y-27927141D01*
X45247859Y-27818358D01*
X45119942Y-27732887D01*
X44977809Y-27674013D01*
X44826922Y-27644000D01*
X44673078Y-27644000D01*
X44522191Y-27674013D01*
X44380058Y-27732887D01*
X44252141Y-27818358D01*
X44143358Y-27927141D01*
X44057887Y-28055058D01*
X43999013Y-28197191D01*
X43969000Y-28348078D01*
X21802126Y-28348078D01*
X21923945Y-28118972D01*
X22120325Y-27878187D01*
X22359736Y-27680127D01*
X22633053Y-27532346D01*
X22929872Y-27440465D01*
X23257782Y-27406000D01*
X58180146Y-27406000D01*
X58509229Y-27438267D01*
M02*
