G04 #@! TF.GenerationSoftware,KiCad,Pcbnew,(5.1.5)-3*
G04 #@! TF.CreationDate,2020-05-11T01:57:27+02:00*
G04 #@! TF.ProjectId,STRF,53545246-2e6b-4696-9361-645f70636258,rev?*
G04 #@! TF.SameCoordinates,Original*
G04 #@! TF.FileFunction,Legend,Top*
G04 #@! TF.FilePolarity,Positive*
%FSLAX46Y46*%
G04 Gerber Fmt 4.6, Leading zero omitted, Abs format (unit mm)*
G04 Created by KiCad (PCBNEW (5.1.5)-3) date 2020-05-11 01:57:27*
%MOMM*%
%LPD*%
G04 APERTURE LIST*
%ADD10C,0.120000*%
%ADD11C,0.100000*%
%ADD12C,0.125000*%
%ADD13C,0.010000*%
G04 APERTURE END LIST*
D10*
X29680902Y-33000000D02*
G75*
G03X29680902Y-33000000I-55902J0D01*
G01*
D11*
X35608333Y-30700000D02*
X36141666Y-30700000D01*
X35875000Y-30966666D02*
X35875000Y-30433333D01*
X33908333Y-30700000D02*
X34441666Y-30700000D01*
X34175000Y-30966666D02*
X34175000Y-30433333D01*
D10*
X32355902Y-36050000D02*
G75*
G03X32355902Y-36050000I-55902J0D01*
G01*
X43305902Y-33150000D02*
G75*
G03X43305902Y-33150000I-55902J0D01*
G01*
X40030902Y-31325000D02*
G75*
G03X40030902Y-31325000I-55902J0D01*
G01*
D12*
X22789285Y-40573809D02*
X22903571Y-40611904D01*
X23094047Y-40611904D01*
X23170238Y-40573809D01*
X23208333Y-40535714D01*
X23246428Y-40459523D01*
X23246428Y-40383333D01*
X23208333Y-40307142D01*
X23170238Y-40269047D01*
X23094047Y-40230952D01*
X22941666Y-40192857D01*
X22865476Y-40154761D01*
X22827380Y-40116666D01*
X22789285Y-40040476D01*
X22789285Y-39964285D01*
X22827380Y-39888095D01*
X22865476Y-39850000D01*
X22941666Y-39811904D01*
X23132142Y-39811904D01*
X23246428Y-39850000D01*
X23513095Y-39811904D02*
X23703571Y-40611904D01*
X23855952Y-40040476D01*
X24008333Y-40611904D01*
X24198809Y-39811904D01*
X24503571Y-40611904D02*
X24503571Y-39811904D01*
X24694047Y-39811904D01*
X24808333Y-39850000D01*
X24884523Y-39926190D01*
X24922619Y-40002380D01*
X24960714Y-40154761D01*
X24960714Y-40269047D01*
X24922619Y-40421428D01*
X24884523Y-40497619D01*
X24808333Y-40573809D01*
X24694047Y-40611904D01*
X24503571Y-40611904D01*
D11*
X36066666Y-27251190D02*
X36466666Y-27251190D01*
X36266666Y-27751190D02*
X36266666Y-27251190D01*
X36633333Y-27251190D02*
X37100000Y-27751190D01*
X37100000Y-27251190D02*
X36633333Y-27751190D01*
X34783333Y-27751190D02*
X34550000Y-27513095D01*
X34383333Y-27751190D02*
X34383333Y-27251190D01*
X34650000Y-27251190D01*
X34716666Y-27275000D01*
X34750000Y-27298809D01*
X34783333Y-27346428D01*
X34783333Y-27417857D01*
X34750000Y-27465476D01*
X34716666Y-27489285D01*
X34650000Y-27513095D01*
X34383333Y-27513095D01*
X35016666Y-27251190D02*
X35483333Y-27751190D01*
X35483333Y-27251190D02*
X35016666Y-27751190D01*
D13*
G36*
X42140461Y-40556307D02*
G01*
X41065846Y-40556307D01*
X41065846Y-40243692D01*
X42140461Y-40243692D01*
X42140461Y-40556307D01*
G37*
X42140461Y-40556307D02*
X41065846Y-40556307D01*
X41065846Y-40243692D01*
X42140461Y-40243692D01*
X42140461Y-40556307D01*
G36*
X42296769Y-39833384D02*
G01*
X40987692Y-39833384D01*
X40987692Y-41298769D01*
X40616461Y-41298769D01*
X40616461Y-40467100D01*
X40616575Y-40258206D01*
X40617110Y-40084802D01*
X40618359Y-39943300D01*
X40620612Y-39830113D01*
X40624161Y-39741655D01*
X40629299Y-39674338D01*
X40636315Y-39624575D01*
X40645503Y-39588778D01*
X40657152Y-39563361D01*
X40671556Y-39544736D01*
X40689005Y-39529317D01*
X40692922Y-39526275D01*
X40711883Y-39519880D01*
X40752356Y-39514597D01*
X40816981Y-39510347D01*
X40908404Y-39507050D01*
X41029268Y-39504629D01*
X41182215Y-39503003D01*
X41369889Y-39502094D01*
X41510346Y-39501852D01*
X42296769Y-39501230D01*
X42296769Y-39833384D01*
G37*
X42296769Y-39833384D02*
X40987692Y-39833384D01*
X40987692Y-41298769D01*
X40616461Y-41298769D01*
X40616461Y-40467100D01*
X40616575Y-40258206D01*
X40617110Y-40084802D01*
X40618359Y-39943300D01*
X40620612Y-39830113D01*
X40624161Y-39741655D01*
X40629299Y-39674338D01*
X40636315Y-39624575D01*
X40645503Y-39588778D01*
X40657152Y-39563361D01*
X40671556Y-39544736D01*
X40689005Y-39529317D01*
X40692922Y-39526275D01*
X40711883Y-39519880D01*
X40752356Y-39514597D01*
X40816981Y-39510347D01*
X40908404Y-39507050D01*
X41029268Y-39504629D01*
X41182215Y-39503003D01*
X41369889Y-39502094D01*
X41510346Y-39501852D01*
X42296769Y-39501230D01*
X42296769Y-39833384D01*
G36*
X39467817Y-39502396D02*
G01*
X39632255Y-39503248D01*
X39765627Y-39505416D01*
X39871939Y-39509480D01*
X39955197Y-39516022D01*
X40019405Y-39525621D01*
X40068569Y-39538859D01*
X40106695Y-39556315D01*
X40137788Y-39578570D01*
X40165853Y-39606205D01*
X40191794Y-39636108D01*
X40233377Y-39697390D01*
X40261351Y-39769934D01*
X40277185Y-39861048D01*
X40282349Y-39978041D01*
X40280475Y-40077234D01*
X40275618Y-40178765D01*
X40268302Y-40251996D01*
X40256503Y-40307702D01*
X40238199Y-40356658D01*
X40221716Y-40390230D01*
X40141994Y-40510116D01*
X40041573Y-40600202D01*
X39915557Y-40664195D01*
X39822789Y-40692303D01*
X39698945Y-40722495D01*
X40028413Y-41005747D01*
X40357882Y-41289000D01*
X39814436Y-41299848D01*
X39477871Y-41006588D01*
X39141307Y-40713328D01*
X39019192Y-40712972D01*
X38897077Y-40712615D01*
X38897077Y-40380461D01*
X39292730Y-40380032D01*
X39431244Y-40379467D01*
X39536769Y-40377801D01*
X39615389Y-40374566D01*
X39673187Y-40369292D01*
X39716246Y-40361512D01*
X39750650Y-40350757D01*
X39768020Y-40343434D01*
X39832994Y-40303193D01*
X39876539Y-40247812D01*
X39901282Y-40170981D01*
X39909846Y-40066390D01*
X39908986Y-40004604D01*
X39903307Y-39843154D01*
X38818923Y-39832766D01*
X38818923Y-41298769D01*
X38447692Y-41298769D01*
X38447692Y-40467100D01*
X38447806Y-40258206D01*
X38448341Y-40084802D01*
X38449589Y-39943300D01*
X38451843Y-39830113D01*
X38455392Y-39741655D01*
X38460529Y-39674338D01*
X38467546Y-39624575D01*
X38476733Y-39588778D01*
X38488383Y-39563361D01*
X38502787Y-39544736D01*
X38520236Y-39529317D01*
X38524153Y-39526275D01*
X38543833Y-39519571D01*
X38585546Y-39514108D01*
X38652029Y-39509798D01*
X38746022Y-39506551D01*
X38870263Y-39504280D01*
X39027490Y-39502896D01*
X39220443Y-39502311D01*
X39268307Y-39502281D01*
X39467817Y-39502396D01*
G37*
X39467817Y-39502396D02*
X39632255Y-39503248D01*
X39765627Y-39505416D01*
X39871939Y-39509480D01*
X39955197Y-39516022D01*
X40019405Y-39525621D01*
X40068569Y-39538859D01*
X40106695Y-39556315D01*
X40137788Y-39578570D01*
X40165853Y-39606205D01*
X40191794Y-39636108D01*
X40233377Y-39697390D01*
X40261351Y-39769934D01*
X40277185Y-39861048D01*
X40282349Y-39978041D01*
X40280475Y-40077234D01*
X40275618Y-40178765D01*
X40268302Y-40251996D01*
X40256503Y-40307702D01*
X40238199Y-40356658D01*
X40221716Y-40390230D01*
X40141994Y-40510116D01*
X40041573Y-40600202D01*
X39915557Y-40664195D01*
X39822789Y-40692303D01*
X39698945Y-40722495D01*
X40028413Y-41005747D01*
X40357882Y-41289000D01*
X39814436Y-41299848D01*
X39477871Y-41006588D01*
X39141307Y-40713328D01*
X39019192Y-40712972D01*
X38897077Y-40712615D01*
X38897077Y-40380461D01*
X39292730Y-40380032D01*
X39431244Y-40379467D01*
X39536769Y-40377801D01*
X39615389Y-40374566D01*
X39673187Y-40369292D01*
X39716246Y-40361512D01*
X39750650Y-40350757D01*
X39768020Y-40343434D01*
X39832994Y-40303193D01*
X39876539Y-40247812D01*
X39901282Y-40170981D01*
X39909846Y-40066390D01*
X39908986Y-40004604D01*
X39903307Y-39843154D01*
X38818923Y-39832766D01*
X38818923Y-41298769D01*
X38447692Y-41298769D01*
X38447692Y-40467100D01*
X38447806Y-40258206D01*
X38448341Y-40084802D01*
X38449589Y-39943300D01*
X38451843Y-39830113D01*
X38455392Y-39741655D01*
X38460529Y-39674338D01*
X38467546Y-39624575D01*
X38476733Y-39588778D01*
X38488383Y-39563361D01*
X38502787Y-39544736D01*
X38520236Y-39529317D01*
X38524153Y-39526275D01*
X38543833Y-39519571D01*
X38585546Y-39514108D01*
X38652029Y-39509798D01*
X38746022Y-39506551D01*
X38870263Y-39504280D01*
X39027490Y-39502896D01*
X39220443Y-39502311D01*
X39268307Y-39502281D01*
X39467817Y-39502396D01*
G36*
X38193692Y-39833384D02*
G01*
X37490307Y-39833384D01*
X37490307Y-41298769D01*
X37119077Y-41298769D01*
X37119077Y-39833384D01*
X36396154Y-39833384D01*
X36396154Y-39501230D01*
X38193692Y-39501230D01*
X38193692Y-39833384D01*
G37*
X38193692Y-39833384D02*
X37490307Y-39833384D01*
X37490307Y-41298769D01*
X37119077Y-41298769D01*
X37119077Y-39833384D01*
X36396154Y-39833384D01*
X36396154Y-39501230D01*
X38193692Y-39501230D01*
X38193692Y-39833384D01*
G36*
X36083538Y-39833384D02*
G01*
X34897021Y-39833384D01*
X34845510Y-39884895D01*
X34810606Y-39930130D01*
X34795911Y-39983705D01*
X34794000Y-40027086D01*
X34805651Y-40116787D01*
X34842566Y-40178769D01*
X34907684Y-40217388D01*
X34926460Y-40223285D01*
X34967281Y-40229271D01*
X35040271Y-40234580D01*
X35138526Y-40238930D01*
X35255140Y-40242041D01*
X35383209Y-40243630D01*
X35429000Y-40243774D01*
X35570309Y-40244066D01*
X35678540Y-40245071D01*
X35759690Y-40247312D01*
X35819756Y-40251317D01*
X35864736Y-40257609D01*
X35900629Y-40266714D01*
X35933431Y-40279158D01*
X35957625Y-40290070D01*
X36030516Y-40333789D01*
X36101031Y-40391352D01*
X36126276Y-40417697D01*
X36193914Y-40523433D01*
X36233748Y-40644278D01*
X36246443Y-40772253D01*
X36232667Y-40899380D01*
X36193088Y-41017682D01*
X36128371Y-41119180D01*
X36062504Y-41180376D01*
X36019814Y-41209926D01*
X35978338Y-41234118D01*
X35933755Y-41253485D01*
X35881744Y-41268560D01*
X35817984Y-41279877D01*
X35738155Y-41287969D01*
X35637935Y-41293368D01*
X35513004Y-41296609D01*
X35359042Y-41298223D01*
X35171727Y-41298746D01*
X35103069Y-41298769D01*
X34422769Y-41298769D01*
X34422769Y-40966615D01*
X35078278Y-40966615D01*
X35269608Y-40966464D01*
X35425674Y-40965574D01*
X35550287Y-40963288D01*
X35647260Y-40958948D01*
X35720405Y-40951898D01*
X35773535Y-40941480D01*
X35810461Y-40927038D01*
X35834995Y-40907915D01*
X35850951Y-40883452D01*
X35862140Y-40852995D01*
X35868458Y-40830430D01*
X35879283Y-40763638D01*
X35868174Y-40704172D01*
X35860110Y-40683319D01*
X35841835Y-40646123D01*
X35818629Y-40616938D01*
X35785873Y-40594802D01*
X35738947Y-40578755D01*
X35673233Y-40567835D01*
X35584111Y-40561081D01*
X35466963Y-40557532D01*
X35317169Y-40556226D01*
X35248896Y-40556116D01*
X35104936Y-40555878D01*
X34994204Y-40554971D01*
X34910854Y-40552898D01*
X34849038Y-40549163D01*
X34802909Y-40543270D01*
X34766618Y-40534722D01*
X34734319Y-40523023D01*
X34704990Y-40509929D01*
X34616872Y-40455004D01*
X34536427Y-40380107D01*
X34473956Y-40296396D01*
X34442339Y-40225430D01*
X34426886Y-40135579D01*
X34423043Y-40030678D01*
X34430176Y-39925873D01*
X34447653Y-39836310D01*
X34460017Y-39802101D01*
X34522622Y-39702625D01*
X34610768Y-39613143D01*
X34707964Y-39548840D01*
X34731448Y-39538452D01*
X34758557Y-39530067D01*
X34793680Y-39523421D01*
X34841204Y-39518250D01*
X34905517Y-39514291D01*
X34991008Y-39511278D01*
X35102064Y-39508947D01*
X35243074Y-39507035D01*
X35418425Y-39505278D01*
X35433884Y-39505137D01*
X36083538Y-39499275D01*
X36083538Y-39833384D01*
G37*
X36083538Y-39833384D02*
X34897021Y-39833384D01*
X34845510Y-39884895D01*
X34810606Y-39930130D01*
X34795911Y-39983705D01*
X34794000Y-40027086D01*
X34805651Y-40116787D01*
X34842566Y-40178769D01*
X34907684Y-40217388D01*
X34926460Y-40223285D01*
X34967281Y-40229271D01*
X35040271Y-40234580D01*
X35138526Y-40238930D01*
X35255140Y-40242041D01*
X35383209Y-40243630D01*
X35429000Y-40243774D01*
X35570309Y-40244066D01*
X35678540Y-40245071D01*
X35759690Y-40247312D01*
X35819756Y-40251317D01*
X35864736Y-40257609D01*
X35900629Y-40266714D01*
X35933431Y-40279158D01*
X35957625Y-40290070D01*
X36030516Y-40333789D01*
X36101031Y-40391352D01*
X36126276Y-40417697D01*
X36193914Y-40523433D01*
X36233748Y-40644278D01*
X36246443Y-40772253D01*
X36232667Y-40899380D01*
X36193088Y-41017682D01*
X36128371Y-41119180D01*
X36062504Y-41180376D01*
X36019814Y-41209926D01*
X35978338Y-41234118D01*
X35933755Y-41253485D01*
X35881744Y-41268560D01*
X35817984Y-41279877D01*
X35738155Y-41287969D01*
X35637935Y-41293368D01*
X35513004Y-41296609D01*
X35359042Y-41298223D01*
X35171727Y-41298746D01*
X35103069Y-41298769D01*
X34422769Y-41298769D01*
X34422769Y-40966615D01*
X35078278Y-40966615D01*
X35269608Y-40966464D01*
X35425674Y-40965574D01*
X35550287Y-40963288D01*
X35647260Y-40958948D01*
X35720405Y-40951898D01*
X35773535Y-40941480D01*
X35810461Y-40927038D01*
X35834995Y-40907915D01*
X35850951Y-40883452D01*
X35862140Y-40852995D01*
X35868458Y-40830430D01*
X35879283Y-40763638D01*
X35868174Y-40704172D01*
X35860110Y-40683319D01*
X35841835Y-40646123D01*
X35818629Y-40616938D01*
X35785873Y-40594802D01*
X35738947Y-40578755D01*
X35673233Y-40567835D01*
X35584111Y-40561081D01*
X35466963Y-40557532D01*
X35317169Y-40556226D01*
X35248896Y-40556116D01*
X35104936Y-40555878D01*
X34994204Y-40554971D01*
X34910854Y-40552898D01*
X34849038Y-40549163D01*
X34802909Y-40543270D01*
X34766618Y-40534722D01*
X34734319Y-40523023D01*
X34704990Y-40509929D01*
X34616872Y-40455004D01*
X34536427Y-40380107D01*
X34473956Y-40296396D01*
X34442339Y-40225430D01*
X34426886Y-40135579D01*
X34423043Y-40030678D01*
X34430176Y-39925873D01*
X34447653Y-39836310D01*
X34460017Y-39802101D01*
X34522622Y-39702625D01*
X34610768Y-39613143D01*
X34707964Y-39548840D01*
X34731448Y-39538452D01*
X34758557Y-39530067D01*
X34793680Y-39523421D01*
X34841204Y-39518250D01*
X34905517Y-39514291D01*
X34991008Y-39511278D01*
X35102064Y-39508947D01*
X35243074Y-39507035D01*
X35418425Y-39505278D01*
X35433884Y-39505137D01*
X36083538Y-39499275D01*
X36083538Y-39833384D01*
D10*
X25152064Y-27690000D02*
X23947936Y-27690000D01*
X25152064Y-29510000D02*
X23947936Y-29510000D01*
X54840000Y-34750000D02*
X55340000Y-34500000D01*
X54840000Y-34250000D02*
X54840000Y-34750000D01*
X55340000Y-34500000D02*
X54840000Y-34250000D01*
X59600000Y-36450000D02*
X59600000Y-35340000D01*
X59600000Y-33660000D02*
X59600000Y-32550000D01*
X55890000Y-36450000D02*
X55890000Y-35340000D01*
X55890000Y-33660000D02*
X55890000Y-32550000D01*
X33560000Y-37820000D02*
X33560000Y-38950000D01*
X32800000Y-37820000D02*
X33560000Y-37820000D01*
X33495000Y-40527530D02*
X33495000Y-41350000D01*
X33495000Y-39710000D02*
X33495000Y-39912470D01*
X33363471Y-39710000D02*
X33495000Y-39710000D01*
X32093471Y-39710000D02*
X32236529Y-39710000D01*
X32040000Y-39513471D02*
X32040000Y-39656529D01*
X32040000Y-37820000D02*
X32040000Y-38386529D01*
X33495000Y-41350000D02*
X27025000Y-41350000D01*
X32040000Y-37820000D02*
X27025000Y-37820000D01*
X27025000Y-39257530D02*
X27025000Y-39912470D01*
X27025000Y-40527530D02*
X27025000Y-41350000D01*
X27025000Y-37820000D02*
X27025000Y-38642470D01*
X29450000Y-36710000D02*
X31900000Y-36710000D01*
X31250000Y-33490000D02*
X29450000Y-33490000D01*
X28520000Y-31294721D02*
X28520000Y-31620279D01*
X27500000Y-31294721D02*
X27500000Y-31620279D01*
X32670000Y-31615279D02*
X32670000Y-31289721D01*
X33690000Y-31615279D02*
X33690000Y-31289721D01*
X45362221Y-30085000D02*
X45687779Y-30085000D01*
X45362221Y-29065000D02*
X45687779Y-29065000D01*
X35635000Y-30212500D02*
X35635000Y-27927500D01*
X35635000Y-27927500D02*
X34165000Y-27927500D01*
X34165000Y-27927500D02*
X34165000Y-30212500D01*
X35865000Y-27927500D02*
X35865000Y-30212500D01*
X37335000Y-27927500D02*
X35865000Y-27927500D01*
X37335000Y-30212500D02*
X37335000Y-27927500D01*
X28921078Y-29110000D02*
X28403922Y-29110000D01*
X28921078Y-27690000D02*
X28403922Y-27690000D01*
X25712500Y-30600000D02*
X25712500Y-31050000D01*
X23862500Y-30600000D02*
X25712500Y-30600000D01*
X21312500Y-38400000D02*
X21562500Y-38400000D01*
X21312500Y-30600000D02*
X21562500Y-30600000D01*
X23862500Y-38400000D02*
X25712500Y-38400000D01*
X25712500Y-38400000D02*
X25712500Y-37950000D01*
X26262500Y-32800000D02*
X26262500Y-33250000D01*
X26262500Y-32800000D02*
X25812500Y-32800000D01*
X32612779Y-28910000D02*
X32287221Y-28910000D01*
X32612779Y-27890000D02*
X32287221Y-27890000D01*
X38874721Y-28910000D02*
X39200279Y-28910000D01*
X38874721Y-27890000D02*
X39200279Y-27890000D01*
X32180000Y-30480000D02*
X31250000Y-30480000D01*
X29020000Y-30480000D02*
X29950000Y-30480000D01*
X29020000Y-30480000D02*
X29020000Y-32640000D01*
X32180000Y-30480000D02*
X32180000Y-31940000D01*
X40835000Y-36610000D02*
X40835000Y-37085000D01*
X40835000Y-37085000D02*
X40360000Y-37085000D01*
X35615000Y-32340000D02*
X35615000Y-31865000D01*
X35615000Y-31865000D02*
X36090000Y-31865000D01*
X35615000Y-36610000D02*
X35615000Y-37085000D01*
X35615000Y-37085000D02*
X36090000Y-37085000D01*
X40835000Y-32340000D02*
X40835000Y-31865000D01*
X47285000Y-32040000D02*
X48010000Y-32040000D01*
X48010000Y-32040000D02*
X48010000Y-32765000D01*
X44515000Y-36260000D02*
X43790000Y-36260000D01*
X43790000Y-36260000D02*
X43790000Y-35535000D01*
X47285000Y-36260000D02*
X48010000Y-36260000D01*
X48010000Y-36260000D02*
X48010000Y-35535000D01*
X44515000Y-32040000D02*
X43790000Y-32040000D01*
X48100000Y-41625000D02*
X48100000Y-38325000D01*
X48100000Y-38325000D02*
X44100000Y-38325000D01*
M02*
