G04 #@! TF.GenerationSoftware,KiCad,Pcbnew,(5.1.5)-3*
G04 #@! TF.CreationDate,2020-05-21T23:15:35+02:00*
G04 #@! TF.ProjectId,STRF,53545246-2e6b-4696-9361-645f70636258,rev?*
G04 #@! TF.SameCoordinates,Original*
G04 #@! TF.FileFunction,Copper,L4,Bot*
G04 #@! TF.FilePolarity,Positive*
%FSLAX46Y46*%
G04 Gerber Fmt 4.6, Leading zero omitted, Abs format (unit mm)*
G04 Created by KiCad (PCBNEW (5.1.5)-3) date 2020-05-21 23:15:35*
%MOMM*%
%LPD*%
G04 APERTURE LIST*
%ADD10O,1.950000X1.600000*%
%ADD11R,4.200000X1.350000*%
%ADD12O,1.000000X1.000000*%
%ADD13R,1.000000X1.000000*%
%ADD14C,0.800000*%
%ADD15C,0.700000*%
%ADD16C,0.293370*%
%ADD17C,0.500000*%
%ADD18C,0.250000*%
%ADD19C,0.254000*%
G04 APERTURE END LIST*
D10*
X22675000Y-37800000D03*
X22675000Y-31200000D03*
D11*
X57600000Y-37325000D03*
X57600000Y-31675000D03*
D12*
X28790000Y-40200000D03*
X28790000Y-38930000D03*
X30060000Y-40200000D03*
X30060000Y-38930000D03*
X31330000Y-40200000D03*
X31330000Y-38930000D03*
X32600000Y-40200000D03*
X32600000Y-38930000D03*
X33870000Y-40200000D03*
D13*
X33870000Y-38930000D03*
D14*
X54300000Y-32025000D03*
D15*
X36155000Y-37465000D03*
D14*
X48625000Y-29025000D03*
X46300000Y-28425000D03*
X25030000Y-40910000D03*
X43620000Y-29920000D03*
X41415000Y-28905000D03*
X41415000Y-27980000D03*
X34350000Y-31425000D03*
X28000000Y-33350000D03*
X27075000Y-36200000D03*
X28100000Y-37200000D03*
X53250000Y-36900000D03*
X53250000Y-35900000D03*
X58200000Y-30400000D03*
X58200000Y-38600000D03*
X48850000Y-41350000D03*
X43600000Y-38600000D03*
X30600000Y-32975000D03*
X30600000Y-31475000D03*
D15*
X48900000Y-32600000D03*
D14*
X38665000Y-34455000D03*
X38640000Y-33455000D03*
X38640000Y-35455000D03*
X50250000Y-27700000D03*
X50250000Y-30200000D03*
X50250000Y-32500000D03*
X50250000Y-41300000D03*
X50250000Y-39075000D03*
X59500000Y-30000000D03*
X52750000Y-27700000D03*
X55750000Y-27700000D03*
X58400000Y-27700000D03*
X59500000Y-39000000D03*
X50250000Y-36900000D03*
D15*
X30350000Y-35100000D03*
D14*
X27075000Y-37200000D03*
X29100000Y-37200000D03*
D15*
X41940000Y-32355000D03*
D14*
X31900000Y-29600000D03*
X42440000Y-27980000D03*
X42440000Y-28905000D03*
X45550000Y-37450000D03*
X52750000Y-41300000D03*
X55750000Y-41300000D03*
X58400000Y-41300000D03*
X47575000Y-29025000D03*
D15*
X45250000Y-33500000D03*
X46500000Y-33500000D03*
X45250000Y-34750000D03*
X46500000Y-34750000D03*
D14*
X57250000Y-30400000D03*
X56250000Y-30400000D03*
X57250000Y-38600000D03*
X56250000Y-38600000D03*
D15*
X37690000Y-38680000D03*
X37640000Y-31080000D03*
X48650000Y-31725000D03*
D14*
X32700000Y-33350000D03*
X44750000Y-28425000D03*
X43070000Y-37620000D03*
X33575000Y-33350000D03*
X34450000Y-33350000D03*
X34450000Y-32475000D03*
D15*
X41615000Y-31505000D03*
X39306275Y-30262975D03*
X28700000Y-35100000D03*
X27050000Y-33550000D03*
X42580000Y-36290000D03*
X42599910Y-34555019D03*
D16*
X58200000Y-37325000D02*
X58200000Y-38600000D01*
X58200000Y-31675000D02*
X58200000Y-30400000D01*
D17*
X40390000Y-31346700D02*
X39306275Y-30262975D01*
X38645000Y-41200000D02*
X40390000Y-39455000D01*
X40390000Y-39455000D02*
X40390000Y-31346700D01*
X38645000Y-41200000D02*
X29080000Y-41200000D01*
X28790000Y-40910000D02*
X28790000Y-40200000D01*
X29080000Y-41200000D02*
X28790000Y-40910000D01*
X27050000Y-33750000D02*
X27050000Y-33550000D01*
X28400000Y-35100000D02*
X27050000Y-33750000D01*
D18*
X42599910Y-36270090D02*
X42580000Y-36290000D01*
X42599910Y-34555019D02*
X42599910Y-36270090D01*
D19*
G36*
X49123000Y-31164210D02*
G01*
X49115985Y-31157195D01*
X48996258Y-31077196D01*
X48863225Y-31022092D01*
X48721997Y-30994000D01*
X48578003Y-30994000D01*
X48436775Y-31022092D01*
X48303742Y-31077196D01*
X48184015Y-31157195D01*
X48082195Y-31259015D01*
X48002196Y-31378742D01*
X47947092Y-31511775D01*
X47919000Y-31653003D01*
X47919000Y-31796997D01*
X47947092Y-31938225D01*
X48002196Y-32071258D01*
X48082195Y-32190985D01*
X48184015Y-32292805D01*
X48303742Y-32372804D01*
X48436775Y-32427908D01*
X48578003Y-32456000D01*
X48721997Y-32456000D01*
X48863225Y-32427908D01*
X48996258Y-32372804D01*
X49115985Y-32292805D01*
X49123000Y-32285790D01*
X49123000Y-32848000D01*
X46850000Y-32848000D01*
X46825224Y-32850440D01*
X46801399Y-32857667D01*
X46779443Y-32869403D01*
X46760197Y-32885197D01*
X46744403Y-32904443D01*
X46732667Y-32926399D01*
X46725440Y-32950224D01*
X46723000Y-32975000D01*
X46723000Y-35348000D01*
X45900000Y-35348000D01*
X45875224Y-35350440D01*
X45851399Y-35357667D01*
X45829443Y-35369403D01*
X45810197Y-35385197D01*
X45794403Y-35404443D01*
X45782667Y-35426399D01*
X45775440Y-35450224D01*
X45773000Y-35475000D01*
X45773000Y-37673000D01*
X43851000Y-37673000D01*
X43851000Y-37543078D01*
X43820987Y-37392191D01*
X43762113Y-37250058D01*
X43676642Y-37122141D01*
X43567859Y-37013358D01*
X43439942Y-36927887D01*
X43297809Y-36869013D01*
X43146922Y-36839000D01*
X43064790Y-36839000D01*
X43147805Y-36755985D01*
X43227804Y-36636258D01*
X43282908Y-36503225D01*
X43311000Y-36361997D01*
X43311000Y-36218003D01*
X43282908Y-36076775D01*
X43227804Y-35943742D01*
X43147805Y-35824015D01*
X43105910Y-35782120D01*
X43105910Y-35082809D01*
X43167715Y-35021004D01*
X43247714Y-34901277D01*
X43302818Y-34768244D01*
X43330910Y-34627016D01*
X43330910Y-34483022D01*
X43302818Y-34341794D01*
X43247714Y-34208761D01*
X43167715Y-34089034D01*
X43065895Y-33987214D01*
X42946168Y-33907215D01*
X42813135Y-33852111D01*
X42671907Y-33824019D01*
X42527913Y-33824019D01*
X42386685Y-33852111D01*
X42253652Y-33907215D01*
X42133925Y-33987214D01*
X42032105Y-34089034D01*
X41952106Y-34208761D01*
X41897002Y-34341794D01*
X41868910Y-34483022D01*
X41868910Y-34627016D01*
X41897002Y-34768244D01*
X41952106Y-34901277D01*
X42032105Y-35021004D01*
X42093910Y-35082809D01*
X42093911Y-35742299D01*
X42012195Y-35824015D01*
X41932196Y-35943742D01*
X41877092Y-36076775D01*
X41849000Y-36218003D01*
X41849000Y-36361997D01*
X41877092Y-36503225D01*
X41932196Y-36636258D01*
X42012195Y-36755985D01*
X42114015Y-36857805D01*
X42233742Y-36937804D01*
X42366775Y-36992908D01*
X42508003Y-37021000D01*
X42564499Y-37021000D01*
X42463358Y-37122141D01*
X42377887Y-37250058D01*
X42319013Y-37392191D01*
X42289000Y-37543078D01*
X42289000Y-37678845D01*
X42276399Y-37682667D01*
X42254443Y-37694403D01*
X42235197Y-37710197D01*
X42219403Y-37729443D01*
X42207667Y-37751399D01*
X42200440Y-37775224D01*
X42198000Y-37800000D01*
X42198000Y-41544610D01*
X42021165Y-41544064D01*
X42021126Y-41544060D01*
X41997703Y-41543992D01*
X41981313Y-41543941D01*
X41981285Y-41543944D01*
X39201543Y-41535825D01*
X40814269Y-39923100D01*
X40838343Y-39903343D01*
X40864457Y-39871524D01*
X40917196Y-39807261D01*
X40975789Y-39697642D01*
X41011870Y-39578698D01*
X41013454Y-39562616D01*
X41021000Y-39485998D01*
X41021000Y-39485991D01*
X41024052Y-39455000D01*
X41021000Y-39424010D01*
X41021000Y-31931781D01*
X41047195Y-31970985D01*
X41149015Y-32072805D01*
X41268742Y-32152804D01*
X41401775Y-32207908D01*
X41543003Y-32236000D01*
X41686997Y-32236000D01*
X41828225Y-32207908D01*
X41961258Y-32152804D01*
X42080985Y-32072805D01*
X42182805Y-31970985D01*
X42262804Y-31851258D01*
X42317908Y-31718225D01*
X42346000Y-31576997D01*
X42346000Y-31433003D01*
X42317908Y-31291775D01*
X42262804Y-31158742D01*
X42182805Y-31039015D01*
X42080985Y-30937195D01*
X41961258Y-30857196D01*
X41828225Y-30802092D01*
X41686997Y-30774000D01*
X41543003Y-30774000D01*
X41401775Y-30802092D01*
X41268742Y-30857196D01*
X41149015Y-30937195D01*
X41047195Y-31039015D01*
X40984515Y-31132823D01*
X40975789Y-31104058D01*
X40917196Y-30994439D01*
X40858103Y-30922434D01*
X40858101Y-30922432D01*
X40838343Y-30898357D01*
X40814268Y-30878599D01*
X40015084Y-30079416D01*
X40009183Y-30049750D01*
X39954079Y-29916717D01*
X39874080Y-29796990D01*
X39772260Y-29695170D01*
X39652533Y-29615171D01*
X39519500Y-29560067D01*
X39378272Y-29531975D01*
X39234278Y-29531975D01*
X39093050Y-29560067D01*
X38960017Y-29615171D01*
X38840290Y-29695170D01*
X38738470Y-29796990D01*
X38658471Y-29916717D01*
X38603367Y-30049750D01*
X38575275Y-30190978D01*
X38575275Y-30334972D01*
X38603367Y-30476200D01*
X38658471Y-30609233D01*
X38738470Y-30728960D01*
X38840290Y-30830780D01*
X38960017Y-30910779D01*
X39093050Y-30965883D01*
X39122716Y-30971784D01*
X39759001Y-31608070D01*
X39759000Y-39193631D01*
X38383632Y-40569000D01*
X34670743Y-40569000D01*
X34717144Y-40456978D01*
X34751000Y-40286771D01*
X34751000Y-40113229D01*
X34717144Y-39943022D01*
X34650732Y-39782690D01*
X34611806Y-39724432D01*
X34640711Y-39700711D01*
X34688322Y-39642696D01*
X34723701Y-39576508D01*
X34745487Y-39504689D01*
X34752843Y-39430000D01*
X34752843Y-38608003D01*
X36959000Y-38608003D01*
X36959000Y-38751997D01*
X36987092Y-38893225D01*
X37042196Y-39026258D01*
X37122195Y-39145985D01*
X37224015Y-39247805D01*
X37343742Y-39327804D01*
X37476775Y-39382908D01*
X37618003Y-39411000D01*
X37761997Y-39411000D01*
X37903225Y-39382908D01*
X38036258Y-39327804D01*
X38155985Y-39247805D01*
X38257805Y-39145985D01*
X38337804Y-39026258D01*
X38392908Y-38893225D01*
X38421000Y-38751997D01*
X38421000Y-38608003D01*
X38392908Y-38466775D01*
X38337804Y-38333742D01*
X38257805Y-38214015D01*
X38155985Y-38112195D01*
X38036258Y-38032196D01*
X37903225Y-37977092D01*
X37761997Y-37949000D01*
X37618003Y-37949000D01*
X37476775Y-37977092D01*
X37343742Y-38032196D01*
X37224015Y-38112195D01*
X37122195Y-38214015D01*
X37042196Y-38333742D01*
X36987092Y-38466775D01*
X36959000Y-38608003D01*
X34752843Y-38608003D01*
X34752843Y-38430000D01*
X34745487Y-38355311D01*
X34723701Y-38283492D01*
X34688322Y-38217304D01*
X34640711Y-38159289D01*
X34582696Y-38111678D01*
X34516508Y-38076299D01*
X34444689Y-38054513D01*
X34370000Y-38047157D01*
X33370000Y-38047157D01*
X33315622Y-38052513D01*
X33160206Y-37942877D01*
X32956864Y-37852554D01*
X32901874Y-37835881D01*
X32727000Y-37962046D01*
X32727000Y-38803000D01*
X32747000Y-38803000D01*
X32747000Y-39057000D01*
X32727000Y-39057000D01*
X32727000Y-39077000D01*
X32473000Y-39077000D01*
X32473000Y-39057000D01*
X31457000Y-39057000D01*
X31457000Y-39077000D01*
X31203000Y-39077000D01*
X31203000Y-39057000D01*
X31183000Y-39057000D01*
X31183000Y-38803000D01*
X31203000Y-38803000D01*
X31203000Y-37962046D01*
X31457000Y-37962046D01*
X31457000Y-38803000D01*
X32473000Y-38803000D01*
X32473000Y-37962046D01*
X32298126Y-37835881D01*
X32243136Y-37852554D01*
X32039794Y-37942877D01*
X31965000Y-37995639D01*
X31890206Y-37942877D01*
X31686864Y-37852554D01*
X31631874Y-37835881D01*
X31457000Y-37962046D01*
X31203000Y-37962046D01*
X31028126Y-37835881D01*
X30973136Y-37852554D01*
X30769794Y-37942877D01*
X30587980Y-38071135D01*
X30499569Y-38164141D01*
X30477310Y-38149268D01*
X30316978Y-38082856D01*
X30146771Y-38049000D01*
X29973229Y-38049000D01*
X29803022Y-38082856D01*
X29642690Y-38149268D01*
X29620431Y-38164141D01*
X29532020Y-38071135D01*
X29350206Y-37942877D01*
X29146864Y-37852554D01*
X29091874Y-37835881D01*
X28917000Y-37962046D01*
X28917000Y-38803000D01*
X28937000Y-38803000D01*
X28937000Y-39057000D01*
X28917000Y-39057000D01*
X28917000Y-39077000D01*
X28663000Y-39077000D01*
X28663000Y-39057000D01*
X27820871Y-39057000D01*
X27695874Y-39231876D01*
X27775790Y-39439529D01*
X27894682Y-39627601D01*
X28022824Y-39762402D01*
X28009268Y-39782690D01*
X27942856Y-39943022D01*
X27909000Y-40113229D01*
X27909000Y-40286771D01*
X27942856Y-40456978D01*
X28009268Y-40617310D01*
X28105682Y-40761605D01*
X28159000Y-40814923D01*
X28159000Y-40879010D01*
X28155948Y-40910000D01*
X28159000Y-40940990D01*
X28159000Y-40940997D01*
X28168130Y-41033697D01*
X28204211Y-41152641D01*
X28262804Y-41262260D01*
X28341657Y-41358343D01*
X28365737Y-41378105D01*
X28494826Y-41507194D01*
X23270372Y-41494051D01*
X22940770Y-41461733D01*
X22643316Y-41371926D01*
X22368975Y-41226056D01*
X22128187Y-41029675D01*
X21930129Y-40790265D01*
X21782346Y-40516948D01*
X21690465Y-40220128D01*
X21656000Y-39892218D01*
X21656000Y-38633205D01*
X21660866Y-38639134D01*
X21840697Y-38786717D01*
X22045864Y-38896381D01*
X22268484Y-38963912D01*
X22441984Y-38981000D01*
X22908016Y-38981000D01*
X23081516Y-38963912D01*
X23304136Y-38896381D01*
X23509303Y-38786717D01*
X23689134Y-38639134D01*
X23698169Y-38628124D01*
X27695874Y-38628124D01*
X27820871Y-38803000D01*
X28663000Y-38803000D01*
X28663000Y-37962046D01*
X28488126Y-37835881D01*
X28433136Y-37852554D01*
X28229794Y-37942877D01*
X28047980Y-38071135D01*
X27894682Y-38232399D01*
X27775790Y-38420471D01*
X27695874Y-38628124D01*
X23698169Y-38628124D01*
X23836717Y-38459303D01*
X23946381Y-38254136D01*
X24013912Y-38031516D01*
X24036714Y-37800000D01*
X24013912Y-37568484D01*
X23946381Y-37345864D01*
X23836717Y-37140697D01*
X23689134Y-36960866D01*
X23509303Y-36813283D01*
X23304136Y-36703619D01*
X23081516Y-36636088D01*
X22908016Y-36619000D01*
X22441984Y-36619000D01*
X22268484Y-36636088D01*
X22045864Y-36703619D01*
X21840697Y-36813283D01*
X21660866Y-36960866D01*
X21656000Y-36966795D01*
X21656000Y-33478003D01*
X26319000Y-33478003D01*
X26319000Y-33621997D01*
X26347092Y-33763225D01*
X26402196Y-33896258D01*
X26462227Y-33986101D01*
X26464211Y-33992641D01*
X26522804Y-34102260D01*
X26601657Y-34198343D01*
X26625737Y-34218105D01*
X27975734Y-35568103D01*
X28047738Y-35627195D01*
X28157358Y-35685788D01*
X28276302Y-35721869D01*
X28321605Y-35726331D01*
X28353742Y-35747804D01*
X28486775Y-35802908D01*
X28628003Y-35831000D01*
X28771997Y-35831000D01*
X28913225Y-35802908D01*
X29046258Y-35747804D01*
X29165985Y-35667805D01*
X29267805Y-35565985D01*
X29347804Y-35446258D01*
X29402908Y-35313225D01*
X29431000Y-35171997D01*
X29431000Y-35028003D01*
X29402908Y-34886775D01*
X29347804Y-34753742D01*
X29267805Y-34634015D01*
X29165985Y-34532195D01*
X29046258Y-34452196D01*
X28913225Y-34397092D01*
X28771997Y-34369000D01*
X28628003Y-34369000D01*
X28572424Y-34380055D01*
X27781000Y-33588632D01*
X27781000Y-33478003D01*
X27752908Y-33336775D01*
X27726524Y-33273078D01*
X31919000Y-33273078D01*
X31919000Y-33426922D01*
X31949013Y-33577809D01*
X32007887Y-33719942D01*
X32093358Y-33847859D01*
X32202141Y-33956642D01*
X32330058Y-34042113D01*
X32472191Y-34100987D01*
X32623078Y-34131000D01*
X32776922Y-34131000D01*
X32927809Y-34100987D01*
X33069942Y-34042113D01*
X33137500Y-33996972D01*
X33205058Y-34042113D01*
X33347191Y-34100987D01*
X33498078Y-34131000D01*
X33651922Y-34131000D01*
X33802809Y-34100987D01*
X33944942Y-34042113D01*
X34012500Y-33996972D01*
X34080058Y-34042113D01*
X34222191Y-34100987D01*
X34373078Y-34131000D01*
X34526922Y-34131000D01*
X34677809Y-34100987D01*
X34819942Y-34042113D01*
X34947859Y-33956642D01*
X35056642Y-33847859D01*
X35142113Y-33719942D01*
X35200987Y-33577809D01*
X35231000Y-33426922D01*
X35231000Y-33273078D01*
X35200987Y-33122191D01*
X35142113Y-32980058D01*
X35096972Y-32912500D01*
X35142113Y-32844942D01*
X35200987Y-32702809D01*
X35231000Y-32551922D01*
X35231000Y-32398078D01*
X35200987Y-32247191D01*
X35142113Y-32105058D01*
X35056642Y-31977141D01*
X34947859Y-31868358D01*
X34819942Y-31782887D01*
X34677809Y-31724013D01*
X34526922Y-31694000D01*
X34373078Y-31694000D01*
X34222191Y-31724013D01*
X34080058Y-31782887D01*
X33952141Y-31868358D01*
X33843358Y-31977141D01*
X33757887Y-32105058D01*
X33699013Y-32247191D01*
X33669000Y-32398078D01*
X33669000Y-32551922D01*
X33673240Y-32573240D01*
X33651922Y-32569000D01*
X33498078Y-32569000D01*
X33347191Y-32599013D01*
X33205058Y-32657887D01*
X33137500Y-32703028D01*
X33069942Y-32657887D01*
X32927809Y-32599013D01*
X32776922Y-32569000D01*
X32623078Y-32569000D01*
X32472191Y-32599013D01*
X32330058Y-32657887D01*
X32202141Y-32743358D01*
X32093358Y-32852141D01*
X32007887Y-32980058D01*
X31949013Y-33122191D01*
X31919000Y-33273078D01*
X27726524Y-33273078D01*
X27697804Y-33203742D01*
X27617805Y-33084015D01*
X27515985Y-32982195D01*
X27396258Y-32902196D01*
X27263225Y-32847092D01*
X27121997Y-32819000D01*
X26978003Y-32819000D01*
X26836775Y-32847092D01*
X26703742Y-32902196D01*
X26584015Y-32982195D01*
X26482195Y-33084015D01*
X26402196Y-33203742D01*
X26347092Y-33336775D01*
X26319000Y-33478003D01*
X21656000Y-33478003D01*
X21656000Y-32033205D01*
X21660866Y-32039134D01*
X21840697Y-32186717D01*
X22045864Y-32296381D01*
X22268484Y-32363912D01*
X22441984Y-32381000D01*
X22908016Y-32381000D01*
X23081516Y-32363912D01*
X23304136Y-32296381D01*
X23509303Y-32186717D01*
X23689134Y-32039134D01*
X23836717Y-31859303D01*
X23946381Y-31654136D01*
X24013912Y-31431516D01*
X24036714Y-31200000D01*
X24017805Y-31008003D01*
X36909000Y-31008003D01*
X36909000Y-31151997D01*
X36937092Y-31293225D01*
X36992196Y-31426258D01*
X37072195Y-31545985D01*
X37174015Y-31647805D01*
X37293742Y-31727804D01*
X37426775Y-31782908D01*
X37568003Y-31811000D01*
X37711997Y-31811000D01*
X37853225Y-31782908D01*
X37986258Y-31727804D01*
X38105985Y-31647805D01*
X38207805Y-31545985D01*
X38287804Y-31426258D01*
X38342908Y-31293225D01*
X38371000Y-31151997D01*
X38371000Y-31008003D01*
X38342908Y-30866775D01*
X38287804Y-30733742D01*
X38207805Y-30614015D01*
X38105985Y-30512195D01*
X37986258Y-30432196D01*
X37853225Y-30377092D01*
X37711997Y-30349000D01*
X37568003Y-30349000D01*
X37426775Y-30377092D01*
X37293742Y-30432196D01*
X37174015Y-30512195D01*
X37072195Y-30614015D01*
X36992196Y-30733742D01*
X36937092Y-30866775D01*
X36909000Y-31008003D01*
X24017805Y-31008003D01*
X24013912Y-30968484D01*
X23946381Y-30745864D01*
X23836717Y-30540697D01*
X23689134Y-30360866D01*
X23509303Y-30213283D01*
X23304136Y-30103619D01*
X23081516Y-30036088D01*
X22908016Y-30019000D01*
X22441984Y-30019000D01*
X22268484Y-30036088D01*
X22045864Y-30103619D01*
X21840697Y-30213283D01*
X21660866Y-30360866D01*
X21656000Y-30366795D01*
X21656000Y-29019854D01*
X21688267Y-28690771D01*
X21778075Y-28393312D01*
X21802126Y-28348078D01*
X43969000Y-28348078D01*
X43969000Y-28501922D01*
X43999013Y-28652809D01*
X44057887Y-28794942D01*
X44143358Y-28922859D01*
X44252141Y-29031642D01*
X44380058Y-29117113D01*
X44522191Y-29175987D01*
X44673078Y-29206000D01*
X44826922Y-29206000D01*
X44977809Y-29175987D01*
X45119942Y-29117113D01*
X45247859Y-29031642D01*
X45356642Y-28922859D01*
X45442113Y-28794942D01*
X45500987Y-28652809D01*
X45531000Y-28501922D01*
X45531000Y-28348078D01*
X45500987Y-28197191D01*
X45442113Y-28055058D01*
X45356642Y-27927141D01*
X45247859Y-27818358D01*
X45119942Y-27732887D01*
X44977809Y-27674013D01*
X44826922Y-27644000D01*
X44673078Y-27644000D01*
X44522191Y-27674013D01*
X44380058Y-27732887D01*
X44252141Y-27818358D01*
X44143358Y-27927141D01*
X44057887Y-28055058D01*
X43999013Y-28197191D01*
X43969000Y-28348078D01*
X21802126Y-28348078D01*
X21923945Y-28118972D01*
X22120325Y-27878187D01*
X22359736Y-27680127D01*
X22633053Y-27532346D01*
X22929872Y-27440465D01*
X23257782Y-27406000D01*
X49123000Y-27406000D01*
X49123000Y-31164210D01*
G37*
X49123000Y-31164210D02*
X49115985Y-31157195D01*
X48996258Y-31077196D01*
X48863225Y-31022092D01*
X48721997Y-30994000D01*
X48578003Y-30994000D01*
X48436775Y-31022092D01*
X48303742Y-31077196D01*
X48184015Y-31157195D01*
X48082195Y-31259015D01*
X48002196Y-31378742D01*
X47947092Y-31511775D01*
X47919000Y-31653003D01*
X47919000Y-31796997D01*
X47947092Y-31938225D01*
X48002196Y-32071258D01*
X48082195Y-32190985D01*
X48184015Y-32292805D01*
X48303742Y-32372804D01*
X48436775Y-32427908D01*
X48578003Y-32456000D01*
X48721997Y-32456000D01*
X48863225Y-32427908D01*
X48996258Y-32372804D01*
X49115985Y-32292805D01*
X49123000Y-32285790D01*
X49123000Y-32848000D01*
X46850000Y-32848000D01*
X46825224Y-32850440D01*
X46801399Y-32857667D01*
X46779443Y-32869403D01*
X46760197Y-32885197D01*
X46744403Y-32904443D01*
X46732667Y-32926399D01*
X46725440Y-32950224D01*
X46723000Y-32975000D01*
X46723000Y-35348000D01*
X45900000Y-35348000D01*
X45875224Y-35350440D01*
X45851399Y-35357667D01*
X45829443Y-35369403D01*
X45810197Y-35385197D01*
X45794403Y-35404443D01*
X45782667Y-35426399D01*
X45775440Y-35450224D01*
X45773000Y-35475000D01*
X45773000Y-37673000D01*
X43851000Y-37673000D01*
X43851000Y-37543078D01*
X43820987Y-37392191D01*
X43762113Y-37250058D01*
X43676642Y-37122141D01*
X43567859Y-37013358D01*
X43439942Y-36927887D01*
X43297809Y-36869013D01*
X43146922Y-36839000D01*
X43064790Y-36839000D01*
X43147805Y-36755985D01*
X43227804Y-36636258D01*
X43282908Y-36503225D01*
X43311000Y-36361997D01*
X43311000Y-36218003D01*
X43282908Y-36076775D01*
X43227804Y-35943742D01*
X43147805Y-35824015D01*
X43105910Y-35782120D01*
X43105910Y-35082809D01*
X43167715Y-35021004D01*
X43247714Y-34901277D01*
X43302818Y-34768244D01*
X43330910Y-34627016D01*
X43330910Y-34483022D01*
X43302818Y-34341794D01*
X43247714Y-34208761D01*
X43167715Y-34089034D01*
X43065895Y-33987214D01*
X42946168Y-33907215D01*
X42813135Y-33852111D01*
X42671907Y-33824019D01*
X42527913Y-33824019D01*
X42386685Y-33852111D01*
X42253652Y-33907215D01*
X42133925Y-33987214D01*
X42032105Y-34089034D01*
X41952106Y-34208761D01*
X41897002Y-34341794D01*
X41868910Y-34483022D01*
X41868910Y-34627016D01*
X41897002Y-34768244D01*
X41952106Y-34901277D01*
X42032105Y-35021004D01*
X42093910Y-35082809D01*
X42093911Y-35742299D01*
X42012195Y-35824015D01*
X41932196Y-35943742D01*
X41877092Y-36076775D01*
X41849000Y-36218003D01*
X41849000Y-36361997D01*
X41877092Y-36503225D01*
X41932196Y-36636258D01*
X42012195Y-36755985D01*
X42114015Y-36857805D01*
X42233742Y-36937804D01*
X42366775Y-36992908D01*
X42508003Y-37021000D01*
X42564499Y-37021000D01*
X42463358Y-37122141D01*
X42377887Y-37250058D01*
X42319013Y-37392191D01*
X42289000Y-37543078D01*
X42289000Y-37678845D01*
X42276399Y-37682667D01*
X42254443Y-37694403D01*
X42235197Y-37710197D01*
X42219403Y-37729443D01*
X42207667Y-37751399D01*
X42200440Y-37775224D01*
X42198000Y-37800000D01*
X42198000Y-41544610D01*
X42021165Y-41544064D01*
X42021126Y-41544060D01*
X41997703Y-41543992D01*
X41981313Y-41543941D01*
X41981285Y-41543944D01*
X39201543Y-41535825D01*
X40814269Y-39923100D01*
X40838343Y-39903343D01*
X40864457Y-39871524D01*
X40917196Y-39807261D01*
X40975789Y-39697642D01*
X41011870Y-39578698D01*
X41013454Y-39562616D01*
X41021000Y-39485998D01*
X41021000Y-39485991D01*
X41024052Y-39455000D01*
X41021000Y-39424010D01*
X41021000Y-31931781D01*
X41047195Y-31970985D01*
X41149015Y-32072805D01*
X41268742Y-32152804D01*
X41401775Y-32207908D01*
X41543003Y-32236000D01*
X41686997Y-32236000D01*
X41828225Y-32207908D01*
X41961258Y-32152804D01*
X42080985Y-32072805D01*
X42182805Y-31970985D01*
X42262804Y-31851258D01*
X42317908Y-31718225D01*
X42346000Y-31576997D01*
X42346000Y-31433003D01*
X42317908Y-31291775D01*
X42262804Y-31158742D01*
X42182805Y-31039015D01*
X42080985Y-30937195D01*
X41961258Y-30857196D01*
X41828225Y-30802092D01*
X41686997Y-30774000D01*
X41543003Y-30774000D01*
X41401775Y-30802092D01*
X41268742Y-30857196D01*
X41149015Y-30937195D01*
X41047195Y-31039015D01*
X40984515Y-31132823D01*
X40975789Y-31104058D01*
X40917196Y-30994439D01*
X40858103Y-30922434D01*
X40858101Y-30922432D01*
X40838343Y-30898357D01*
X40814268Y-30878599D01*
X40015084Y-30079416D01*
X40009183Y-30049750D01*
X39954079Y-29916717D01*
X39874080Y-29796990D01*
X39772260Y-29695170D01*
X39652533Y-29615171D01*
X39519500Y-29560067D01*
X39378272Y-29531975D01*
X39234278Y-29531975D01*
X39093050Y-29560067D01*
X38960017Y-29615171D01*
X38840290Y-29695170D01*
X38738470Y-29796990D01*
X38658471Y-29916717D01*
X38603367Y-30049750D01*
X38575275Y-30190978D01*
X38575275Y-30334972D01*
X38603367Y-30476200D01*
X38658471Y-30609233D01*
X38738470Y-30728960D01*
X38840290Y-30830780D01*
X38960017Y-30910779D01*
X39093050Y-30965883D01*
X39122716Y-30971784D01*
X39759001Y-31608070D01*
X39759000Y-39193631D01*
X38383632Y-40569000D01*
X34670743Y-40569000D01*
X34717144Y-40456978D01*
X34751000Y-40286771D01*
X34751000Y-40113229D01*
X34717144Y-39943022D01*
X34650732Y-39782690D01*
X34611806Y-39724432D01*
X34640711Y-39700711D01*
X34688322Y-39642696D01*
X34723701Y-39576508D01*
X34745487Y-39504689D01*
X34752843Y-39430000D01*
X34752843Y-38608003D01*
X36959000Y-38608003D01*
X36959000Y-38751997D01*
X36987092Y-38893225D01*
X37042196Y-39026258D01*
X37122195Y-39145985D01*
X37224015Y-39247805D01*
X37343742Y-39327804D01*
X37476775Y-39382908D01*
X37618003Y-39411000D01*
X37761997Y-39411000D01*
X37903225Y-39382908D01*
X38036258Y-39327804D01*
X38155985Y-39247805D01*
X38257805Y-39145985D01*
X38337804Y-39026258D01*
X38392908Y-38893225D01*
X38421000Y-38751997D01*
X38421000Y-38608003D01*
X38392908Y-38466775D01*
X38337804Y-38333742D01*
X38257805Y-38214015D01*
X38155985Y-38112195D01*
X38036258Y-38032196D01*
X37903225Y-37977092D01*
X37761997Y-37949000D01*
X37618003Y-37949000D01*
X37476775Y-37977092D01*
X37343742Y-38032196D01*
X37224015Y-38112195D01*
X37122195Y-38214015D01*
X37042196Y-38333742D01*
X36987092Y-38466775D01*
X36959000Y-38608003D01*
X34752843Y-38608003D01*
X34752843Y-38430000D01*
X34745487Y-38355311D01*
X34723701Y-38283492D01*
X34688322Y-38217304D01*
X34640711Y-38159289D01*
X34582696Y-38111678D01*
X34516508Y-38076299D01*
X34444689Y-38054513D01*
X34370000Y-38047157D01*
X33370000Y-38047157D01*
X33315622Y-38052513D01*
X33160206Y-37942877D01*
X32956864Y-37852554D01*
X32901874Y-37835881D01*
X32727000Y-37962046D01*
X32727000Y-38803000D01*
X32747000Y-38803000D01*
X32747000Y-39057000D01*
X32727000Y-39057000D01*
X32727000Y-39077000D01*
X32473000Y-39077000D01*
X32473000Y-39057000D01*
X31457000Y-39057000D01*
X31457000Y-39077000D01*
X31203000Y-39077000D01*
X31203000Y-39057000D01*
X31183000Y-39057000D01*
X31183000Y-38803000D01*
X31203000Y-38803000D01*
X31203000Y-37962046D01*
X31457000Y-37962046D01*
X31457000Y-38803000D01*
X32473000Y-38803000D01*
X32473000Y-37962046D01*
X32298126Y-37835881D01*
X32243136Y-37852554D01*
X32039794Y-37942877D01*
X31965000Y-37995639D01*
X31890206Y-37942877D01*
X31686864Y-37852554D01*
X31631874Y-37835881D01*
X31457000Y-37962046D01*
X31203000Y-37962046D01*
X31028126Y-37835881D01*
X30973136Y-37852554D01*
X30769794Y-37942877D01*
X30587980Y-38071135D01*
X30499569Y-38164141D01*
X30477310Y-38149268D01*
X30316978Y-38082856D01*
X30146771Y-38049000D01*
X29973229Y-38049000D01*
X29803022Y-38082856D01*
X29642690Y-38149268D01*
X29620431Y-38164141D01*
X29532020Y-38071135D01*
X29350206Y-37942877D01*
X29146864Y-37852554D01*
X29091874Y-37835881D01*
X28917000Y-37962046D01*
X28917000Y-38803000D01*
X28937000Y-38803000D01*
X28937000Y-39057000D01*
X28917000Y-39057000D01*
X28917000Y-39077000D01*
X28663000Y-39077000D01*
X28663000Y-39057000D01*
X27820871Y-39057000D01*
X27695874Y-39231876D01*
X27775790Y-39439529D01*
X27894682Y-39627601D01*
X28022824Y-39762402D01*
X28009268Y-39782690D01*
X27942856Y-39943022D01*
X27909000Y-40113229D01*
X27909000Y-40286771D01*
X27942856Y-40456978D01*
X28009268Y-40617310D01*
X28105682Y-40761605D01*
X28159000Y-40814923D01*
X28159000Y-40879010D01*
X28155948Y-40910000D01*
X28159000Y-40940990D01*
X28159000Y-40940997D01*
X28168130Y-41033697D01*
X28204211Y-41152641D01*
X28262804Y-41262260D01*
X28341657Y-41358343D01*
X28365737Y-41378105D01*
X28494826Y-41507194D01*
X23270372Y-41494051D01*
X22940770Y-41461733D01*
X22643316Y-41371926D01*
X22368975Y-41226056D01*
X22128187Y-41029675D01*
X21930129Y-40790265D01*
X21782346Y-40516948D01*
X21690465Y-40220128D01*
X21656000Y-39892218D01*
X21656000Y-38633205D01*
X21660866Y-38639134D01*
X21840697Y-38786717D01*
X22045864Y-38896381D01*
X22268484Y-38963912D01*
X22441984Y-38981000D01*
X22908016Y-38981000D01*
X23081516Y-38963912D01*
X23304136Y-38896381D01*
X23509303Y-38786717D01*
X23689134Y-38639134D01*
X23698169Y-38628124D01*
X27695874Y-38628124D01*
X27820871Y-38803000D01*
X28663000Y-38803000D01*
X28663000Y-37962046D01*
X28488126Y-37835881D01*
X28433136Y-37852554D01*
X28229794Y-37942877D01*
X28047980Y-38071135D01*
X27894682Y-38232399D01*
X27775790Y-38420471D01*
X27695874Y-38628124D01*
X23698169Y-38628124D01*
X23836717Y-38459303D01*
X23946381Y-38254136D01*
X24013912Y-38031516D01*
X24036714Y-37800000D01*
X24013912Y-37568484D01*
X23946381Y-37345864D01*
X23836717Y-37140697D01*
X23689134Y-36960866D01*
X23509303Y-36813283D01*
X23304136Y-36703619D01*
X23081516Y-36636088D01*
X22908016Y-36619000D01*
X22441984Y-36619000D01*
X22268484Y-36636088D01*
X22045864Y-36703619D01*
X21840697Y-36813283D01*
X21660866Y-36960866D01*
X21656000Y-36966795D01*
X21656000Y-33478003D01*
X26319000Y-33478003D01*
X26319000Y-33621997D01*
X26347092Y-33763225D01*
X26402196Y-33896258D01*
X26462227Y-33986101D01*
X26464211Y-33992641D01*
X26522804Y-34102260D01*
X26601657Y-34198343D01*
X26625737Y-34218105D01*
X27975734Y-35568103D01*
X28047738Y-35627195D01*
X28157358Y-35685788D01*
X28276302Y-35721869D01*
X28321605Y-35726331D01*
X28353742Y-35747804D01*
X28486775Y-35802908D01*
X28628003Y-35831000D01*
X28771997Y-35831000D01*
X28913225Y-35802908D01*
X29046258Y-35747804D01*
X29165985Y-35667805D01*
X29267805Y-35565985D01*
X29347804Y-35446258D01*
X29402908Y-35313225D01*
X29431000Y-35171997D01*
X29431000Y-35028003D01*
X29402908Y-34886775D01*
X29347804Y-34753742D01*
X29267805Y-34634015D01*
X29165985Y-34532195D01*
X29046258Y-34452196D01*
X28913225Y-34397092D01*
X28771997Y-34369000D01*
X28628003Y-34369000D01*
X28572424Y-34380055D01*
X27781000Y-33588632D01*
X27781000Y-33478003D01*
X27752908Y-33336775D01*
X27726524Y-33273078D01*
X31919000Y-33273078D01*
X31919000Y-33426922D01*
X31949013Y-33577809D01*
X32007887Y-33719942D01*
X32093358Y-33847859D01*
X32202141Y-33956642D01*
X32330058Y-34042113D01*
X32472191Y-34100987D01*
X32623078Y-34131000D01*
X32776922Y-34131000D01*
X32927809Y-34100987D01*
X33069942Y-34042113D01*
X33137500Y-33996972D01*
X33205058Y-34042113D01*
X33347191Y-34100987D01*
X33498078Y-34131000D01*
X33651922Y-34131000D01*
X33802809Y-34100987D01*
X33944942Y-34042113D01*
X34012500Y-33996972D01*
X34080058Y-34042113D01*
X34222191Y-34100987D01*
X34373078Y-34131000D01*
X34526922Y-34131000D01*
X34677809Y-34100987D01*
X34819942Y-34042113D01*
X34947859Y-33956642D01*
X35056642Y-33847859D01*
X35142113Y-33719942D01*
X35200987Y-33577809D01*
X35231000Y-33426922D01*
X35231000Y-33273078D01*
X35200987Y-33122191D01*
X35142113Y-32980058D01*
X35096972Y-32912500D01*
X35142113Y-32844942D01*
X35200987Y-32702809D01*
X35231000Y-32551922D01*
X35231000Y-32398078D01*
X35200987Y-32247191D01*
X35142113Y-32105058D01*
X35056642Y-31977141D01*
X34947859Y-31868358D01*
X34819942Y-31782887D01*
X34677809Y-31724013D01*
X34526922Y-31694000D01*
X34373078Y-31694000D01*
X34222191Y-31724013D01*
X34080058Y-31782887D01*
X33952141Y-31868358D01*
X33843358Y-31977141D01*
X33757887Y-32105058D01*
X33699013Y-32247191D01*
X33669000Y-32398078D01*
X33669000Y-32551922D01*
X33673240Y-32573240D01*
X33651922Y-32569000D01*
X33498078Y-32569000D01*
X33347191Y-32599013D01*
X33205058Y-32657887D01*
X33137500Y-32703028D01*
X33069942Y-32657887D01*
X32927809Y-32599013D01*
X32776922Y-32569000D01*
X32623078Y-32569000D01*
X32472191Y-32599013D01*
X32330058Y-32657887D01*
X32202141Y-32743358D01*
X32093358Y-32852141D01*
X32007887Y-32980058D01*
X31949013Y-33122191D01*
X31919000Y-33273078D01*
X27726524Y-33273078D01*
X27697804Y-33203742D01*
X27617805Y-33084015D01*
X27515985Y-32982195D01*
X27396258Y-32902196D01*
X27263225Y-32847092D01*
X27121997Y-32819000D01*
X26978003Y-32819000D01*
X26836775Y-32847092D01*
X26703742Y-32902196D01*
X26584015Y-32982195D01*
X26482195Y-33084015D01*
X26402196Y-33203742D01*
X26347092Y-33336775D01*
X26319000Y-33478003D01*
X21656000Y-33478003D01*
X21656000Y-32033205D01*
X21660866Y-32039134D01*
X21840697Y-32186717D01*
X22045864Y-32296381D01*
X22268484Y-32363912D01*
X22441984Y-32381000D01*
X22908016Y-32381000D01*
X23081516Y-32363912D01*
X23304136Y-32296381D01*
X23509303Y-32186717D01*
X23689134Y-32039134D01*
X23836717Y-31859303D01*
X23946381Y-31654136D01*
X24013912Y-31431516D01*
X24036714Y-31200000D01*
X24017805Y-31008003D01*
X36909000Y-31008003D01*
X36909000Y-31151997D01*
X36937092Y-31293225D01*
X36992196Y-31426258D01*
X37072195Y-31545985D01*
X37174015Y-31647805D01*
X37293742Y-31727804D01*
X37426775Y-31782908D01*
X37568003Y-31811000D01*
X37711997Y-31811000D01*
X37853225Y-31782908D01*
X37986258Y-31727804D01*
X38105985Y-31647805D01*
X38207805Y-31545985D01*
X38287804Y-31426258D01*
X38342908Y-31293225D01*
X38371000Y-31151997D01*
X38371000Y-31008003D01*
X38342908Y-30866775D01*
X38287804Y-30733742D01*
X38207805Y-30614015D01*
X38105985Y-30512195D01*
X37986258Y-30432196D01*
X37853225Y-30377092D01*
X37711997Y-30349000D01*
X37568003Y-30349000D01*
X37426775Y-30377092D01*
X37293742Y-30432196D01*
X37174015Y-30512195D01*
X37072195Y-30614015D01*
X36992196Y-30733742D01*
X36937092Y-30866775D01*
X36909000Y-31008003D01*
X24017805Y-31008003D01*
X24013912Y-30968484D01*
X23946381Y-30745864D01*
X23836717Y-30540697D01*
X23689134Y-30360866D01*
X23509303Y-30213283D01*
X23304136Y-30103619D01*
X23081516Y-30036088D01*
X22908016Y-30019000D01*
X22441984Y-30019000D01*
X22268484Y-30036088D01*
X22045864Y-30103619D01*
X21840697Y-30213283D01*
X21660866Y-30360866D01*
X21656000Y-30366795D01*
X21656000Y-29019854D01*
X21688267Y-28690771D01*
X21778075Y-28393312D01*
X21802126Y-28348078D01*
X43969000Y-28348078D01*
X43969000Y-28501922D01*
X43999013Y-28652809D01*
X44057887Y-28794942D01*
X44143358Y-28922859D01*
X44252141Y-29031642D01*
X44380058Y-29117113D01*
X44522191Y-29175987D01*
X44673078Y-29206000D01*
X44826922Y-29206000D01*
X44977809Y-29175987D01*
X45119942Y-29117113D01*
X45247859Y-29031642D01*
X45356642Y-28922859D01*
X45442113Y-28794942D01*
X45500987Y-28652809D01*
X45531000Y-28501922D01*
X45531000Y-28348078D01*
X45500987Y-28197191D01*
X45442113Y-28055058D01*
X45356642Y-27927141D01*
X45247859Y-27818358D01*
X45119942Y-27732887D01*
X44977809Y-27674013D01*
X44826922Y-27644000D01*
X44673078Y-27644000D01*
X44522191Y-27674013D01*
X44380058Y-27732887D01*
X44252141Y-27818358D01*
X44143358Y-27927141D01*
X44057887Y-28055058D01*
X43999013Y-28197191D01*
X43969000Y-28348078D01*
X21802126Y-28348078D01*
X21923945Y-28118972D01*
X22120325Y-27878187D01*
X22359736Y-27680127D01*
X22633053Y-27532346D01*
X22929872Y-27440465D01*
X23257782Y-27406000D01*
X49123000Y-27406000D01*
X49123000Y-31164210D01*
M02*
