G04 #@! TF.GenerationSoftware,KiCad,Pcbnew,(5.1.5)-3*
G04 #@! TF.CreationDate,2020-05-13T19:19:55+02:00*
G04 #@! TF.ProjectId,STRF,53545246-2e6b-4696-9361-645f70636258,rev?*
G04 #@! TF.SameCoordinates,Original*
G04 #@! TF.FileFunction,Copper,L3,Inr*
G04 #@! TF.FilePolarity,Positive*
%FSLAX46Y46*%
G04 Gerber Fmt 4.6, Leading zero omitted, Abs format (unit mm)*
G04 Created by KiCad (PCBNEW (5.1.5)-3) date 2020-05-13 19:19:55*
%MOMM*%
%LPD*%
G04 APERTURE LIST*
%ADD10O,1.000000X1.000000*%
%ADD11R,1.000000X1.000000*%
%ADD12C,1.450000*%
%ADD13O,1.900000X1.200000*%
%ADD14C,0.800000*%
%ADD15C,0.600000*%
%ADD16C,0.700000*%
%ADD17C,0.500000*%
%ADD18C,0.254000*%
G04 APERTURE END LIST*
D10*
X27720000Y-40220000D03*
X27720000Y-38950000D03*
X28990000Y-40220000D03*
X28990000Y-38950000D03*
X30260000Y-40220000D03*
X30260000Y-38950000D03*
X31530000Y-40220000D03*
X31530000Y-38950000D03*
X32800000Y-40220000D03*
D11*
X32800000Y-38950000D03*
D12*
X25412500Y-32000000D03*
X25412500Y-37000000D03*
D13*
X22712500Y-31000000D03*
X22712500Y-38000000D03*
D14*
X54300000Y-32025000D03*
D15*
X35715000Y-37485000D03*
D14*
X48625000Y-29025000D03*
X46300000Y-28425000D03*
X26325000Y-38500000D03*
X42725000Y-30875000D03*
X40975000Y-28925000D03*
X40975000Y-28000000D03*
X34350000Y-31425000D03*
X28000000Y-33350000D03*
X27075000Y-36200000D03*
X28100000Y-37200000D03*
X53250000Y-36900000D03*
X53250000Y-35900000D03*
X58200000Y-30400000D03*
X58200000Y-38600000D03*
X48850000Y-41350000D03*
X43600000Y-38600000D03*
X30600000Y-32975000D03*
X30600000Y-31475000D03*
D16*
X48900000Y-32600000D03*
D14*
X38225000Y-34475000D03*
X38200000Y-33475000D03*
X38200000Y-35475000D03*
X50250000Y-27700000D03*
X50250000Y-30200000D03*
X50250000Y-32500000D03*
X50250000Y-41300000D03*
X50250000Y-39075000D03*
X59500000Y-30000000D03*
X52750000Y-27700000D03*
X55750000Y-27700000D03*
X58400000Y-27700000D03*
X59500000Y-39000000D03*
X50250000Y-36900000D03*
D16*
X30350000Y-35100000D03*
D14*
X27075000Y-37200000D03*
X29100000Y-37200000D03*
D16*
X41500000Y-32375000D03*
D14*
X31900000Y-29600000D03*
X42000000Y-28000000D03*
X42000000Y-28925000D03*
X45550000Y-37450000D03*
X52750000Y-41300000D03*
X55750000Y-41300000D03*
X58400000Y-41300000D03*
D15*
X37250000Y-38700000D03*
X37200000Y-31100000D03*
D14*
X47575000Y-29025000D03*
D16*
X48650000Y-31725000D03*
D14*
X32700000Y-33350000D03*
X44750000Y-28425000D03*
X42925000Y-37550000D03*
X33575000Y-33350000D03*
X34450000Y-33350000D03*
X34450000Y-32475000D03*
D16*
X41175000Y-31525000D03*
D15*
X38866275Y-30282975D03*
D17*
X28400000Y-35100000D03*
D15*
X27050000Y-33550000D03*
X43050000Y-34150000D03*
X42145420Y-35871685D03*
D18*
G36*
X40368358Y-27502141D02*
G01*
X40282887Y-27630058D01*
X40224013Y-27772191D01*
X40194000Y-27923078D01*
X40194000Y-28076922D01*
X40224013Y-28227809D01*
X40282887Y-28369942D01*
X40344732Y-28462500D01*
X40282887Y-28555058D01*
X40224013Y-28697191D01*
X40194000Y-28848078D01*
X40194000Y-29001922D01*
X40224013Y-29152809D01*
X40282887Y-29294942D01*
X40368358Y-29422859D01*
X40477141Y-29531642D01*
X40605058Y-29617113D01*
X40747191Y-29675987D01*
X40898078Y-29706000D01*
X41051922Y-29706000D01*
X41202809Y-29675987D01*
X41344942Y-29617113D01*
X41472859Y-29531642D01*
X41487500Y-29517001D01*
X41502141Y-29531642D01*
X41630058Y-29617113D01*
X41772191Y-29675987D01*
X41923078Y-29706000D01*
X42076922Y-29706000D01*
X42227809Y-29675987D01*
X42369942Y-29617113D01*
X42497859Y-29531642D01*
X42606642Y-29422859D01*
X42692113Y-29294942D01*
X42750987Y-29152809D01*
X42781000Y-29001922D01*
X42781000Y-28848078D01*
X42750987Y-28697191D01*
X42692113Y-28555058D01*
X42630268Y-28462500D01*
X42692113Y-28369942D01*
X42750987Y-28227809D01*
X42781000Y-28076922D01*
X42781000Y-27923078D01*
X42750987Y-27772191D01*
X42692113Y-27630058D01*
X42606642Y-27502141D01*
X42510501Y-27406000D01*
X49123000Y-27406000D01*
X49123000Y-28418499D01*
X49122859Y-28418358D01*
X48994942Y-28332887D01*
X48852809Y-28274013D01*
X48701922Y-28244000D01*
X48548078Y-28244000D01*
X48397191Y-28274013D01*
X48255058Y-28332887D01*
X48127141Y-28418358D01*
X48100000Y-28445499D01*
X48072859Y-28418358D01*
X47944942Y-28332887D01*
X47802809Y-28274013D01*
X47651922Y-28244000D01*
X47498078Y-28244000D01*
X47347191Y-28274013D01*
X47205058Y-28332887D01*
X47081000Y-28415780D01*
X47081000Y-28348078D01*
X47050987Y-28197191D01*
X46992113Y-28055058D01*
X46906642Y-27927141D01*
X46797859Y-27818358D01*
X46669942Y-27732887D01*
X46527809Y-27674013D01*
X46376922Y-27644000D01*
X46223078Y-27644000D01*
X46072191Y-27674013D01*
X45930058Y-27732887D01*
X45802141Y-27818358D01*
X45693358Y-27927141D01*
X45607887Y-28055058D01*
X45549013Y-28197191D01*
X45519000Y-28348078D01*
X45519000Y-28501922D01*
X45549013Y-28652809D01*
X45607887Y-28794942D01*
X45693358Y-28922859D01*
X45802141Y-29031642D01*
X45930058Y-29117113D01*
X46072191Y-29175987D01*
X46223078Y-29206000D01*
X46376922Y-29206000D01*
X46527809Y-29175987D01*
X46669942Y-29117113D01*
X46794000Y-29034220D01*
X46794000Y-29101922D01*
X46824013Y-29252809D01*
X46882887Y-29394942D01*
X46968358Y-29522859D01*
X47077141Y-29631642D01*
X47205058Y-29717113D01*
X47347191Y-29775987D01*
X47498078Y-29806000D01*
X47651922Y-29806000D01*
X47802809Y-29775987D01*
X47944942Y-29717113D01*
X48072859Y-29631642D01*
X48100000Y-29604501D01*
X48127141Y-29631642D01*
X48255058Y-29717113D01*
X48397191Y-29775987D01*
X48548078Y-29806000D01*
X48701922Y-29806000D01*
X48852809Y-29775987D01*
X48994942Y-29717113D01*
X49122859Y-29631642D01*
X49123000Y-29631501D01*
X49123000Y-31901141D01*
X49113225Y-31897092D01*
X48971997Y-31869000D01*
X48828003Y-31869000D01*
X48686775Y-31897092D01*
X48553742Y-31952196D01*
X48434015Y-32032195D01*
X48332195Y-32134015D01*
X48252196Y-32253742D01*
X48197092Y-32386775D01*
X48169000Y-32528003D01*
X48169000Y-32671997D01*
X48197092Y-32813225D01*
X48211496Y-32848000D01*
X46850000Y-32848000D01*
X46825224Y-32850440D01*
X46801399Y-32857667D01*
X46779443Y-32869403D01*
X46760197Y-32885197D01*
X46744403Y-32904443D01*
X46732667Y-32926399D01*
X46725440Y-32950224D01*
X46723000Y-32975000D01*
X46723000Y-35350356D01*
X45900364Y-35348001D01*
X45875580Y-35350370D01*
X45851735Y-35357529D01*
X45829745Y-35369202D01*
X45810455Y-35384941D01*
X45794606Y-35404141D01*
X45782807Y-35426063D01*
X45775512Y-35449867D01*
X45773000Y-35475000D01*
X45773000Y-36698056D01*
X45626922Y-36669000D01*
X45473078Y-36669000D01*
X45322191Y-36699013D01*
X45180058Y-36757887D01*
X45052141Y-36843358D01*
X44943358Y-36952141D01*
X44857887Y-37080058D01*
X44799013Y-37222191D01*
X44769000Y-37373078D01*
X44769000Y-37526922D01*
X44798056Y-37673000D01*
X43600000Y-37673000D01*
X43575224Y-37675440D01*
X43551399Y-37682667D01*
X43529443Y-37694403D01*
X43510197Y-37710197D01*
X43494403Y-37729443D01*
X43482667Y-37751399D01*
X43475440Y-37775224D01*
X43473000Y-37800000D01*
X43473000Y-37828961D01*
X43372191Y-37849013D01*
X43230058Y-37907887D01*
X43102141Y-37993358D01*
X42993358Y-38102141D01*
X42907887Y-38230058D01*
X42849013Y-38372191D01*
X42819000Y-38523078D01*
X42819000Y-38676922D01*
X42849013Y-38827809D01*
X42907887Y-38969942D01*
X42993358Y-39097859D01*
X43102141Y-39206642D01*
X43230058Y-39292113D01*
X43372191Y-39350987D01*
X43473000Y-39371039D01*
X43473000Y-41548545D01*
X41981313Y-41543941D01*
X41921646Y-41549632D01*
X41845044Y-41572610D01*
X41774396Y-41610093D01*
X41712418Y-41660638D01*
X41661492Y-41722302D01*
X41623574Y-41792717D01*
X41605858Y-41850477D01*
X40944075Y-41850397D01*
X40927429Y-41794854D01*
X40889965Y-41724197D01*
X40839436Y-41662207D01*
X40777785Y-41611264D01*
X40707379Y-41573329D01*
X40630926Y-41549858D01*
X40571297Y-41543783D01*
X31181417Y-41512391D01*
X31121749Y-41518067D01*
X31045140Y-41541026D01*
X30974483Y-41578490D01*
X30912493Y-41629019D01*
X30861550Y-41690670D01*
X30823615Y-41761075D01*
X30800144Y-41837528D01*
X30798959Y-41849160D01*
X29801245Y-41849039D01*
X29800300Y-41839153D01*
X29777304Y-41762556D01*
X29739806Y-41691916D01*
X29689248Y-41629950D01*
X29627572Y-41579037D01*
X29557148Y-41541136D01*
X29480684Y-41517702D01*
X29421052Y-41511656D01*
X23270437Y-41494057D01*
X22940770Y-41461733D01*
X22643316Y-41371926D01*
X22368975Y-41226056D01*
X22128187Y-41029675D01*
X21930129Y-40790265D01*
X21782346Y-40516948D01*
X21690465Y-40220128D01*
X21656000Y-39892218D01*
X21656000Y-38685486D01*
X21665472Y-38697028D01*
X21814849Y-38819618D01*
X21985271Y-38910711D01*
X22170190Y-38966805D01*
X22314313Y-38981000D01*
X23110687Y-38981000D01*
X23254810Y-38966805D01*
X23439729Y-38910711D01*
X23610151Y-38819618D01*
X23759528Y-38697028D01*
X23882118Y-38547651D01*
X23973211Y-38377229D01*
X24029305Y-38192310D01*
X24048246Y-38000000D01*
X24029305Y-37807690D01*
X23973211Y-37622771D01*
X23882118Y-37452349D01*
X23759528Y-37302972D01*
X23610151Y-37180382D01*
X23439729Y-37089289D01*
X23254810Y-37033195D01*
X23110687Y-37019000D01*
X22314313Y-37019000D01*
X22170190Y-37033195D01*
X21985271Y-37089289D01*
X21814849Y-37180382D01*
X21665472Y-37302972D01*
X21656000Y-37314514D01*
X21656000Y-36891069D01*
X24306500Y-36891069D01*
X24306500Y-37108931D01*
X24349003Y-37322608D01*
X24432376Y-37523887D01*
X24553414Y-37705034D01*
X24707466Y-37859086D01*
X24888613Y-37980124D01*
X25089892Y-38063497D01*
X25303569Y-38106000D01*
X25521431Y-38106000D01*
X25668510Y-38076744D01*
X25632887Y-38130058D01*
X25574013Y-38272191D01*
X25544000Y-38423078D01*
X25544000Y-38576922D01*
X25574013Y-38727809D01*
X25632887Y-38869942D01*
X25718358Y-38997859D01*
X25827141Y-39106642D01*
X25955058Y-39192113D01*
X26097191Y-39250987D01*
X26248078Y-39281000D01*
X26401922Y-39281000D01*
X26552809Y-39250987D01*
X26694942Y-39192113D01*
X26822859Y-39106642D01*
X26847914Y-39081587D01*
X26872856Y-39206978D01*
X26939268Y-39367310D01*
X27035682Y-39511605D01*
X27109077Y-39585000D01*
X27035682Y-39658395D01*
X26939268Y-39802690D01*
X26872856Y-39963022D01*
X26839000Y-40133229D01*
X26839000Y-40306771D01*
X26872856Y-40476978D01*
X26939268Y-40637310D01*
X27035682Y-40781605D01*
X27158395Y-40904318D01*
X27302690Y-41000732D01*
X27463022Y-41067144D01*
X27633229Y-41101000D01*
X27806771Y-41101000D01*
X27976978Y-41067144D01*
X28137310Y-41000732D01*
X28281605Y-40904318D01*
X28355000Y-40830923D01*
X28428395Y-40904318D01*
X28572690Y-41000732D01*
X28733022Y-41067144D01*
X28903229Y-41101000D01*
X29076771Y-41101000D01*
X29246978Y-41067144D01*
X29407310Y-41000732D01*
X29551605Y-40904318D01*
X29625000Y-40830923D01*
X29698395Y-40904318D01*
X29842690Y-41000732D01*
X30003022Y-41067144D01*
X30173229Y-41101000D01*
X30346771Y-41101000D01*
X30516978Y-41067144D01*
X30677310Y-41000732D01*
X30821605Y-40904318D01*
X30895000Y-40830923D01*
X30968395Y-40904318D01*
X31112690Y-41000732D01*
X31273022Y-41067144D01*
X31443229Y-41101000D01*
X31616771Y-41101000D01*
X31786978Y-41067144D01*
X31947310Y-41000732D01*
X32091605Y-40904318D01*
X32165000Y-40830923D01*
X32238395Y-40904318D01*
X32382690Y-41000732D01*
X32543022Y-41067144D01*
X32713229Y-41101000D01*
X32886771Y-41101000D01*
X33056978Y-41067144D01*
X33217310Y-41000732D01*
X33361605Y-40904318D01*
X33484318Y-40781605D01*
X33580732Y-40637310D01*
X33647144Y-40476978D01*
X33681000Y-40306771D01*
X33681000Y-40133229D01*
X33650999Y-39982405D01*
X33654494Y-39980537D01*
X33751185Y-39901185D01*
X33830537Y-39804494D01*
X33889502Y-39694180D01*
X33925812Y-39574482D01*
X33938072Y-39450000D01*
X33935000Y-39235750D01*
X33776250Y-39077000D01*
X32927000Y-39077000D01*
X32927000Y-39097000D01*
X32673000Y-39097000D01*
X32673000Y-39077000D01*
X32653000Y-39077000D01*
X32653000Y-38823000D01*
X32673000Y-38823000D01*
X32673000Y-37973750D01*
X32927000Y-37973750D01*
X32927000Y-38823000D01*
X33776250Y-38823000D01*
X33935000Y-38664250D01*
X33938072Y-38450000D01*
X33925812Y-38325518D01*
X33889502Y-38205820D01*
X33830537Y-38095506D01*
X33751185Y-37998815D01*
X33654494Y-37919463D01*
X33544180Y-37860498D01*
X33424482Y-37824188D01*
X33300000Y-37811928D01*
X33085750Y-37815000D01*
X32927000Y-37973750D01*
X32673000Y-37973750D01*
X32514250Y-37815000D01*
X32300000Y-37811928D01*
X32175518Y-37824188D01*
X32055820Y-37860498D01*
X31945506Y-37919463D01*
X31848815Y-37998815D01*
X31769463Y-38095506D01*
X31767595Y-38099001D01*
X31616771Y-38069000D01*
X31443229Y-38069000D01*
X31273022Y-38102856D01*
X31112690Y-38169268D01*
X30968395Y-38265682D01*
X30895000Y-38339077D01*
X30821605Y-38265682D01*
X30677310Y-38169268D01*
X30516978Y-38102856D01*
X30346771Y-38069000D01*
X30173229Y-38069000D01*
X30003022Y-38102856D01*
X29842690Y-38169268D01*
X29698395Y-38265682D01*
X29625000Y-38339077D01*
X29551605Y-38265682D01*
X29407310Y-38169268D01*
X29246978Y-38102856D01*
X29076771Y-38069000D01*
X28903229Y-38069000D01*
X28733022Y-38102856D01*
X28572690Y-38169268D01*
X28428395Y-38265682D01*
X28355000Y-38339077D01*
X28281605Y-38265682D01*
X28137310Y-38169268D01*
X27976978Y-38102856D01*
X27806771Y-38069000D01*
X27633229Y-38069000D01*
X27463022Y-38102856D01*
X27302690Y-38169268D01*
X27158395Y-38265682D01*
X27088579Y-38335498D01*
X27075987Y-38272191D01*
X27017113Y-38130058D01*
X26931642Y-38002141D01*
X26888756Y-37959255D01*
X26998078Y-37981000D01*
X27151922Y-37981000D01*
X27302809Y-37950987D01*
X27444942Y-37892113D01*
X27572859Y-37806642D01*
X27587500Y-37792001D01*
X27602141Y-37806642D01*
X27730058Y-37892113D01*
X27872191Y-37950987D01*
X28023078Y-37981000D01*
X28176922Y-37981000D01*
X28327809Y-37950987D01*
X28469942Y-37892113D01*
X28597859Y-37806642D01*
X28600000Y-37804501D01*
X28602141Y-37806642D01*
X28730058Y-37892113D01*
X28872191Y-37950987D01*
X29023078Y-37981000D01*
X29176922Y-37981000D01*
X29327809Y-37950987D01*
X29469942Y-37892113D01*
X29597859Y-37806642D01*
X29706642Y-37697859D01*
X29792113Y-37569942D01*
X29850987Y-37427809D01*
X29852952Y-37417927D01*
X35034000Y-37417927D01*
X35034000Y-37552073D01*
X35060171Y-37683640D01*
X35111506Y-37807574D01*
X35186033Y-37919112D01*
X35280888Y-38013967D01*
X35392426Y-38088494D01*
X35516360Y-38139829D01*
X35647927Y-38166000D01*
X35782073Y-38166000D01*
X35913640Y-38139829D01*
X36037574Y-38088494D01*
X36149112Y-38013967D01*
X36243967Y-37919112D01*
X36318494Y-37807574D01*
X36369829Y-37683640D01*
X36396000Y-37552073D01*
X36396000Y-37417927D01*
X36369829Y-37286360D01*
X36318494Y-37162426D01*
X36243967Y-37050888D01*
X36149112Y-36956033D01*
X36037574Y-36881506D01*
X35913640Y-36830171D01*
X35782073Y-36804000D01*
X35647927Y-36804000D01*
X35516360Y-36830171D01*
X35392426Y-36881506D01*
X35280888Y-36956033D01*
X35186033Y-37050888D01*
X35111506Y-37162426D01*
X35060171Y-37286360D01*
X35034000Y-37417927D01*
X29852952Y-37417927D01*
X29881000Y-37276922D01*
X29881000Y-37123078D01*
X29850987Y-36972191D01*
X29792113Y-36830058D01*
X29706642Y-36702141D01*
X29597859Y-36593358D01*
X29469942Y-36507887D01*
X29327809Y-36449013D01*
X29176922Y-36419000D01*
X29023078Y-36419000D01*
X28872191Y-36449013D01*
X28730058Y-36507887D01*
X28602141Y-36593358D01*
X28600000Y-36595499D01*
X28597859Y-36593358D01*
X28469942Y-36507887D01*
X28327809Y-36449013D01*
X28176922Y-36419000D01*
X28023078Y-36419000D01*
X27872191Y-36449013D01*
X27805815Y-36476507D01*
X27825987Y-36427809D01*
X27856000Y-36276922D01*
X27856000Y-36123078D01*
X27825987Y-35972191D01*
X27767113Y-35830058D01*
X27681642Y-35702141D01*
X27572859Y-35593358D01*
X27444942Y-35507887D01*
X27302809Y-35449013D01*
X27151922Y-35419000D01*
X26998078Y-35419000D01*
X26847191Y-35449013D01*
X26705058Y-35507887D01*
X26577141Y-35593358D01*
X26468358Y-35702141D01*
X26382887Y-35830058D01*
X26324013Y-35972191D01*
X26294000Y-36123078D01*
X26294000Y-36276922D01*
X26308611Y-36350378D01*
X26271586Y-36294966D01*
X26117534Y-36140914D01*
X25936387Y-36019876D01*
X25735108Y-35936503D01*
X25521431Y-35894000D01*
X25303569Y-35894000D01*
X25089892Y-35936503D01*
X24888613Y-36019876D01*
X24707466Y-36140914D01*
X24553414Y-36294966D01*
X24432376Y-36476113D01*
X24349003Y-36677392D01*
X24306500Y-36891069D01*
X21656000Y-36891069D01*
X21656000Y-35037852D01*
X27769000Y-35037852D01*
X27769000Y-35162148D01*
X27793249Y-35284056D01*
X27840815Y-35398891D01*
X27909870Y-35502239D01*
X27997761Y-35590130D01*
X28101109Y-35659185D01*
X28215944Y-35706751D01*
X28337852Y-35731000D01*
X28462148Y-35731000D01*
X28584056Y-35706751D01*
X28698891Y-35659185D01*
X28802239Y-35590130D01*
X28890130Y-35502239D01*
X28959185Y-35398891D01*
X29006751Y-35284056D01*
X29031000Y-35162148D01*
X29031000Y-35037852D01*
X29029041Y-35028003D01*
X29619000Y-35028003D01*
X29619000Y-35171997D01*
X29647092Y-35313225D01*
X29702196Y-35446258D01*
X29782195Y-35565985D01*
X29884015Y-35667805D01*
X30003742Y-35747804D01*
X30136775Y-35802908D01*
X30278003Y-35831000D01*
X30421997Y-35831000D01*
X30563225Y-35802908D01*
X30696258Y-35747804D01*
X30815985Y-35667805D01*
X30917805Y-35565985D01*
X30997804Y-35446258D01*
X31052908Y-35313225D01*
X31081000Y-35171997D01*
X31081000Y-35028003D01*
X31052908Y-34886775D01*
X30997804Y-34753742D01*
X30917805Y-34634015D01*
X30815985Y-34532195D01*
X30696258Y-34452196D01*
X30563225Y-34397092D01*
X30421997Y-34369000D01*
X30278003Y-34369000D01*
X30136775Y-34397092D01*
X30003742Y-34452196D01*
X29884015Y-34532195D01*
X29782195Y-34634015D01*
X29702196Y-34753742D01*
X29647092Y-34886775D01*
X29619000Y-35028003D01*
X29029041Y-35028003D01*
X29006751Y-34915944D01*
X28959185Y-34801109D01*
X28890130Y-34697761D01*
X28802239Y-34609870D01*
X28698891Y-34540815D01*
X28584056Y-34493249D01*
X28462148Y-34469000D01*
X28337852Y-34469000D01*
X28215944Y-34493249D01*
X28101109Y-34540815D01*
X27997761Y-34609870D01*
X27909870Y-34697761D01*
X27840815Y-34801109D01*
X27793249Y-34915944D01*
X27769000Y-35037852D01*
X21656000Y-35037852D01*
X21656000Y-33482927D01*
X26369000Y-33482927D01*
X26369000Y-33617073D01*
X26395171Y-33748640D01*
X26446506Y-33872574D01*
X26521033Y-33984112D01*
X26615888Y-34078967D01*
X26727426Y-34153494D01*
X26851360Y-34204829D01*
X26982927Y-34231000D01*
X27117073Y-34231000D01*
X27248640Y-34204829D01*
X27372574Y-34153494D01*
X27484112Y-34078967D01*
X27564662Y-33998417D01*
X27630058Y-34042113D01*
X27772191Y-34100987D01*
X27923078Y-34131000D01*
X28076922Y-34131000D01*
X28227809Y-34100987D01*
X28369942Y-34042113D01*
X28497859Y-33956642D01*
X28606642Y-33847859D01*
X28692113Y-33719942D01*
X28750987Y-33577809D01*
X28781000Y-33426922D01*
X28781000Y-33273078D01*
X28750987Y-33122191D01*
X28692113Y-32980058D01*
X28606642Y-32852141D01*
X28497859Y-32743358D01*
X28369942Y-32657887D01*
X28227809Y-32599013D01*
X28076922Y-32569000D01*
X27923078Y-32569000D01*
X27772191Y-32599013D01*
X27630058Y-32657887D01*
X27502141Y-32743358D01*
X27393358Y-32852141D01*
X27339468Y-32932793D01*
X27248640Y-32895171D01*
X27117073Y-32869000D01*
X26982927Y-32869000D01*
X26851360Y-32895171D01*
X26727426Y-32946506D01*
X26615888Y-33021033D01*
X26521033Y-33115888D01*
X26446506Y-33227426D01*
X26395171Y-33351360D01*
X26369000Y-33482927D01*
X21656000Y-33482927D01*
X21656000Y-31685486D01*
X21665472Y-31697028D01*
X21814849Y-31819618D01*
X21985271Y-31910711D01*
X22170190Y-31966805D01*
X22314313Y-31981000D01*
X23110687Y-31981000D01*
X23254810Y-31966805D01*
X23439729Y-31910711D01*
X23476476Y-31891069D01*
X24306500Y-31891069D01*
X24306500Y-32108931D01*
X24349003Y-32322608D01*
X24432376Y-32523887D01*
X24553414Y-32705034D01*
X24707466Y-32859086D01*
X24888613Y-32980124D01*
X25089892Y-33063497D01*
X25303569Y-33106000D01*
X25521431Y-33106000D01*
X25735108Y-33063497D01*
X25936387Y-32980124D01*
X26117534Y-32859086D01*
X26271586Y-32705034D01*
X26392624Y-32523887D01*
X26475997Y-32322608D01*
X26518500Y-32108931D01*
X26518500Y-31891069D01*
X26475997Y-31677392D01*
X26392624Y-31476113D01*
X26340483Y-31398078D01*
X29819000Y-31398078D01*
X29819000Y-31551922D01*
X29849013Y-31702809D01*
X29907887Y-31844942D01*
X29993358Y-31972859D01*
X30102141Y-32081642D01*
X30230058Y-32167113D01*
X30369808Y-32225000D01*
X30230058Y-32282887D01*
X30102141Y-32368358D01*
X29993358Y-32477141D01*
X29907887Y-32605058D01*
X29849013Y-32747191D01*
X29819000Y-32898078D01*
X29819000Y-33051922D01*
X29849013Y-33202809D01*
X29907887Y-33344942D01*
X29993358Y-33472859D01*
X30102141Y-33581642D01*
X30230058Y-33667113D01*
X30372191Y-33725987D01*
X30523078Y-33756000D01*
X30676922Y-33756000D01*
X30827809Y-33725987D01*
X30969942Y-33667113D01*
X31097859Y-33581642D01*
X31206642Y-33472859D01*
X31256608Y-33398078D01*
X37419000Y-33398078D01*
X37419000Y-33551922D01*
X37449013Y-33702809D01*
X37507887Y-33844942D01*
X37593358Y-33972859D01*
X37610060Y-33989561D01*
X37532887Y-34105058D01*
X37474013Y-34247191D01*
X37444000Y-34398078D01*
X37444000Y-34551922D01*
X37474013Y-34702809D01*
X37532887Y-34844942D01*
X37610060Y-34960439D01*
X37593358Y-34977141D01*
X37507887Y-35105058D01*
X37449013Y-35247191D01*
X37419000Y-35398078D01*
X37419000Y-35551922D01*
X37449013Y-35702809D01*
X37507887Y-35844942D01*
X37593358Y-35972859D01*
X37702141Y-36081642D01*
X37830058Y-36167113D01*
X37972191Y-36225987D01*
X38123078Y-36256000D01*
X38276922Y-36256000D01*
X38427809Y-36225987D01*
X38569942Y-36167113D01*
X38697859Y-36081642D01*
X38806642Y-35972859D01*
X38892113Y-35844942D01*
X38908818Y-35804612D01*
X41464420Y-35804612D01*
X41464420Y-35938758D01*
X41490591Y-36070325D01*
X41541926Y-36194259D01*
X41616453Y-36305797D01*
X41711308Y-36400652D01*
X41822846Y-36475179D01*
X41946780Y-36526514D01*
X42078347Y-36552685D01*
X42212493Y-36552685D01*
X42344060Y-36526514D01*
X42467994Y-36475179D01*
X42579532Y-36400652D01*
X42674387Y-36305797D01*
X42748914Y-36194259D01*
X42800249Y-36070325D01*
X42826420Y-35938758D01*
X42826420Y-35804612D01*
X42800249Y-35673045D01*
X42748914Y-35549111D01*
X42674387Y-35437573D01*
X42579532Y-35342718D01*
X42467994Y-35268191D01*
X42344060Y-35216856D01*
X42212493Y-35190685D01*
X42078347Y-35190685D01*
X41946780Y-35216856D01*
X41822846Y-35268191D01*
X41711308Y-35342718D01*
X41616453Y-35437573D01*
X41541926Y-35549111D01*
X41490591Y-35673045D01*
X41464420Y-35804612D01*
X38908818Y-35804612D01*
X38950987Y-35702809D01*
X38981000Y-35551922D01*
X38981000Y-35398078D01*
X38950987Y-35247191D01*
X38892113Y-35105058D01*
X38814940Y-34989561D01*
X38831642Y-34972859D01*
X38917113Y-34844942D01*
X38975987Y-34702809D01*
X39006000Y-34551922D01*
X39006000Y-34398078D01*
X38975987Y-34247191D01*
X38917113Y-34105058D01*
X38902326Y-34082927D01*
X42369000Y-34082927D01*
X42369000Y-34217073D01*
X42395171Y-34348640D01*
X42446506Y-34472574D01*
X42521033Y-34584112D01*
X42615888Y-34678967D01*
X42727426Y-34753494D01*
X42851360Y-34804829D01*
X42982927Y-34831000D01*
X43117073Y-34831000D01*
X43248640Y-34804829D01*
X43372574Y-34753494D01*
X43484112Y-34678967D01*
X43578967Y-34584112D01*
X43653494Y-34472574D01*
X43704829Y-34348640D01*
X43731000Y-34217073D01*
X43731000Y-34082927D01*
X43704829Y-33951360D01*
X43653494Y-33827426D01*
X43578967Y-33715888D01*
X43484112Y-33621033D01*
X43372574Y-33546506D01*
X43248640Y-33495171D01*
X43117073Y-33469000D01*
X42982927Y-33469000D01*
X42851360Y-33495171D01*
X42727426Y-33546506D01*
X42615888Y-33621033D01*
X42521033Y-33715888D01*
X42446506Y-33827426D01*
X42395171Y-33951360D01*
X42369000Y-34082927D01*
X38902326Y-34082927D01*
X38831642Y-33977141D01*
X38814940Y-33960439D01*
X38892113Y-33844942D01*
X38950987Y-33702809D01*
X38981000Y-33551922D01*
X38981000Y-33398078D01*
X38950987Y-33247191D01*
X38892113Y-33105058D01*
X38806642Y-32977141D01*
X38697859Y-32868358D01*
X38569942Y-32782887D01*
X38427809Y-32724013D01*
X38276922Y-32694000D01*
X38123078Y-32694000D01*
X37972191Y-32724013D01*
X37830058Y-32782887D01*
X37702141Y-32868358D01*
X37593358Y-32977141D01*
X37507887Y-33105058D01*
X37449013Y-33247191D01*
X37419000Y-33398078D01*
X31256608Y-33398078D01*
X31292113Y-33344942D01*
X31350987Y-33202809D01*
X31381000Y-33051922D01*
X31381000Y-32898078D01*
X31350987Y-32747191D01*
X31292113Y-32605058D01*
X31206642Y-32477141D01*
X31097859Y-32368358D01*
X31000048Y-32303003D01*
X40769000Y-32303003D01*
X40769000Y-32446997D01*
X40797092Y-32588225D01*
X40852196Y-32721258D01*
X40932195Y-32840985D01*
X41034015Y-32942805D01*
X41153742Y-33022804D01*
X41286775Y-33077908D01*
X41428003Y-33106000D01*
X41571997Y-33106000D01*
X41713225Y-33077908D01*
X41846258Y-33022804D01*
X41965985Y-32942805D01*
X42067805Y-32840985D01*
X42147804Y-32721258D01*
X42202908Y-32588225D01*
X42231000Y-32446997D01*
X42231000Y-32303003D01*
X42202908Y-32161775D01*
X42147804Y-32028742D01*
X42067805Y-31909015D01*
X41965985Y-31807195D01*
X41846258Y-31727196D01*
X41713225Y-31672092D01*
X41571997Y-31644000D01*
X41428003Y-31644000D01*
X41286775Y-31672092D01*
X41153742Y-31727196D01*
X41034015Y-31807195D01*
X40932195Y-31909015D01*
X40852196Y-32028742D01*
X40797092Y-32161775D01*
X40769000Y-32303003D01*
X31000048Y-32303003D01*
X30969942Y-32282887D01*
X30830192Y-32225000D01*
X30969942Y-32167113D01*
X31097859Y-32081642D01*
X31206642Y-31972859D01*
X31292113Y-31844942D01*
X31350987Y-31702809D01*
X31381000Y-31551922D01*
X31381000Y-31398078D01*
X31371055Y-31348078D01*
X33569000Y-31348078D01*
X33569000Y-31501922D01*
X33599013Y-31652809D01*
X33657887Y-31794942D01*
X33743358Y-31922859D01*
X33852141Y-32031642D01*
X33980058Y-32117113D01*
X34122191Y-32175987D01*
X34273078Y-32206000D01*
X34426922Y-32206000D01*
X34577809Y-32175987D01*
X34719942Y-32117113D01*
X34847859Y-32031642D01*
X34956642Y-31922859D01*
X35042113Y-31794942D01*
X35100987Y-31652809D01*
X35131000Y-31501922D01*
X35131000Y-31348078D01*
X35100987Y-31197191D01*
X35042113Y-31055058D01*
X34956642Y-30927141D01*
X34847859Y-30818358D01*
X34719942Y-30732887D01*
X34577809Y-30674013D01*
X34426922Y-30644000D01*
X34273078Y-30644000D01*
X34122191Y-30674013D01*
X33980058Y-30732887D01*
X33852141Y-30818358D01*
X33743358Y-30927141D01*
X33657887Y-31055058D01*
X33599013Y-31197191D01*
X33569000Y-31348078D01*
X31371055Y-31348078D01*
X31350987Y-31247191D01*
X31292113Y-31105058D01*
X31206642Y-30977141D01*
X31097859Y-30868358D01*
X30969942Y-30782887D01*
X30827809Y-30724013D01*
X30676922Y-30694000D01*
X30523078Y-30694000D01*
X30372191Y-30724013D01*
X30230058Y-30782887D01*
X30102141Y-30868358D01*
X29993358Y-30977141D01*
X29907887Y-31105058D01*
X29849013Y-31247191D01*
X29819000Y-31398078D01*
X26340483Y-31398078D01*
X26271586Y-31294966D01*
X26117534Y-31140914D01*
X25936387Y-31019876D01*
X25735108Y-30936503D01*
X25521431Y-30894000D01*
X25303569Y-30894000D01*
X25089892Y-30936503D01*
X24888613Y-31019876D01*
X24707466Y-31140914D01*
X24553414Y-31294966D01*
X24432376Y-31476113D01*
X24349003Y-31677392D01*
X24306500Y-31891069D01*
X23476476Y-31891069D01*
X23610151Y-31819618D01*
X23759528Y-31697028D01*
X23882118Y-31547651D01*
X23973211Y-31377229D01*
X24029305Y-31192310D01*
X24048246Y-31000000D01*
X24029305Y-30807690D01*
X23973211Y-30622771D01*
X23882118Y-30452349D01*
X23759528Y-30302972D01*
X23610151Y-30180382D01*
X23439729Y-30089289D01*
X23254810Y-30033195D01*
X23110687Y-30019000D01*
X22314313Y-30019000D01*
X22170190Y-30033195D01*
X21985271Y-30089289D01*
X21814849Y-30180382D01*
X21665472Y-30302972D01*
X21656000Y-30314514D01*
X21656000Y-29523078D01*
X31119000Y-29523078D01*
X31119000Y-29676922D01*
X31149013Y-29827809D01*
X31207887Y-29969942D01*
X31293358Y-30097859D01*
X31402141Y-30206642D01*
X31530058Y-30292113D01*
X31672191Y-30350987D01*
X31823078Y-30381000D01*
X31976922Y-30381000D01*
X32127809Y-30350987D01*
X32269942Y-30292113D01*
X32384000Y-30215902D01*
X38185275Y-30215902D01*
X38185275Y-30350048D01*
X38211446Y-30481615D01*
X38262781Y-30605549D01*
X38337308Y-30717087D01*
X38432163Y-30811942D01*
X38543701Y-30886469D01*
X38667635Y-30937804D01*
X38799202Y-30963975D01*
X38933348Y-30963975D01*
X39064915Y-30937804D01*
X39188849Y-30886469D01*
X39300387Y-30811942D01*
X39314251Y-30798078D01*
X41944000Y-30798078D01*
X41944000Y-30951922D01*
X41974013Y-31102809D01*
X42032887Y-31244942D01*
X42118358Y-31372859D01*
X42227141Y-31481642D01*
X42355058Y-31567113D01*
X42497191Y-31625987D01*
X42648078Y-31656000D01*
X42801922Y-31656000D01*
X42952809Y-31625987D01*
X43094942Y-31567113D01*
X43222859Y-31481642D01*
X43331642Y-31372859D01*
X43417113Y-31244942D01*
X43475987Y-31102809D01*
X43506000Y-30951922D01*
X43506000Y-30798078D01*
X43475987Y-30647191D01*
X43417113Y-30505058D01*
X43331642Y-30377141D01*
X43222859Y-30268358D01*
X43094942Y-30182887D01*
X42952809Y-30124013D01*
X42801922Y-30094000D01*
X42648078Y-30094000D01*
X42497191Y-30124013D01*
X42355058Y-30182887D01*
X42227141Y-30268358D01*
X42118358Y-30377141D01*
X42032887Y-30505058D01*
X41974013Y-30647191D01*
X41944000Y-30798078D01*
X39314251Y-30798078D01*
X39395242Y-30717087D01*
X39469769Y-30605549D01*
X39521104Y-30481615D01*
X39547275Y-30350048D01*
X39547275Y-30215902D01*
X39521104Y-30084335D01*
X39469769Y-29960401D01*
X39395242Y-29848863D01*
X39300387Y-29754008D01*
X39188849Y-29679481D01*
X39064915Y-29628146D01*
X38933348Y-29601975D01*
X38799202Y-29601975D01*
X38667635Y-29628146D01*
X38543701Y-29679481D01*
X38432163Y-29754008D01*
X38337308Y-29848863D01*
X38262781Y-29960401D01*
X38211446Y-30084335D01*
X38185275Y-30215902D01*
X32384000Y-30215902D01*
X32397859Y-30206642D01*
X32506642Y-30097859D01*
X32592113Y-29969942D01*
X32650987Y-29827809D01*
X32681000Y-29676922D01*
X32681000Y-29523078D01*
X32650987Y-29372191D01*
X32592113Y-29230058D01*
X32506642Y-29102141D01*
X32397859Y-28993358D01*
X32269942Y-28907887D01*
X32127809Y-28849013D01*
X31976922Y-28819000D01*
X31823078Y-28819000D01*
X31672191Y-28849013D01*
X31530058Y-28907887D01*
X31402141Y-28993358D01*
X31293358Y-29102141D01*
X31207887Y-29230058D01*
X31149013Y-29372191D01*
X31119000Y-29523078D01*
X21656000Y-29523078D01*
X21656000Y-29019854D01*
X21688267Y-28690771D01*
X21778075Y-28393312D01*
X21923945Y-28118972D01*
X22120325Y-27878187D01*
X22359736Y-27680127D01*
X22633053Y-27532346D01*
X22929872Y-27440465D01*
X23257782Y-27406000D01*
X40464499Y-27406000D01*
X40368358Y-27502141D01*
G37*
X40368358Y-27502141D02*
X40282887Y-27630058D01*
X40224013Y-27772191D01*
X40194000Y-27923078D01*
X40194000Y-28076922D01*
X40224013Y-28227809D01*
X40282887Y-28369942D01*
X40344732Y-28462500D01*
X40282887Y-28555058D01*
X40224013Y-28697191D01*
X40194000Y-28848078D01*
X40194000Y-29001922D01*
X40224013Y-29152809D01*
X40282887Y-29294942D01*
X40368358Y-29422859D01*
X40477141Y-29531642D01*
X40605058Y-29617113D01*
X40747191Y-29675987D01*
X40898078Y-29706000D01*
X41051922Y-29706000D01*
X41202809Y-29675987D01*
X41344942Y-29617113D01*
X41472859Y-29531642D01*
X41487500Y-29517001D01*
X41502141Y-29531642D01*
X41630058Y-29617113D01*
X41772191Y-29675987D01*
X41923078Y-29706000D01*
X42076922Y-29706000D01*
X42227809Y-29675987D01*
X42369942Y-29617113D01*
X42497859Y-29531642D01*
X42606642Y-29422859D01*
X42692113Y-29294942D01*
X42750987Y-29152809D01*
X42781000Y-29001922D01*
X42781000Y-28848078D01*
X42750987Y-28697191D01*
X42692113Y-28555058D01*
X42630268Y-28462500D01*
X42692113Y-28369942D01*
X42750987Y-28227809D01*
X42781000Y-28076922D01*
X42781000Y-27923078D01*
X42750987Y-27772191D01*
X42692113Y-27630058D01*
X42606642Y-27502141D01*
X42510501Y-27406000D01*
X49123000Y-27406000D01*
X49123000Y-28418499D01*
X49122859Y-28418358D01*
X48994942Y-28332887D01*
X48852809Y-28274013D01*
X48701922Y-28244000D01*
X48548078Y-28244000D01*
X48397191Y-28274013D01*
X48255058Y-28332887D01*
X48127141Y-28418358D01*
X48100000Y-28445499D01*
X48072859Y-28418358D01*
X47944942Y-28332887D01*
X47802809Y-28274013D01*
X47651922Y-28244000D01*
X47498078Y-28244000D01*
X47347191Y-28274013D01*
X47205058Y-28332887D01*
X47081000Y-28415780D01*
X47081000Y-28348078D01*
X47050987Y-28197191D01*
X46992113Y-28055058D01*
X46906642Y-27927141D01*
X46797859Y-27818358D01*
X46669942Y-27732887D01*
X46527809Y-27674013D01*
X46376922Y-27644000D01*
X46223078Y-27644000D01*
X46072191Y-27674013D01*
X45930058Y-27732887D01*
X45802141Y-27818358D01*
X45693358Y-27927141D01*
X45607887Y-28055058D01*
X45549013Y-28197191D01*
X45519000Y-28348078D01*
X45519000Y-28501922D01*
X45549013Y-28652809D01*
X45607887Y-28794942D01*
X45693358Y-28922859D01*
X45802141Y-29031642D01*
X45930058Y-29117113D01*
X46072191Y-29175987D01*
X46223078Y-29206000D01*
X46376922Y-29206000D01*
X46527809Y-29175987D01*
X46669942Y-29117113D01*
X46794000Y-29034220D01*
X46794000Y-29101922D01*
X46824013Y-29252809D01*
X46882887Y-29394942D01*
X46968358Y-29522859D01*
X47077141Y-29631642D01*
X47205058Y-29717113D01*
X47347191Y-29775987D01*
X47498078Y-29806000D01*
X47651922Y-29806000D01*
X47802809Y-29775987D01*
X47944942Y-29717113D01*
X48072859Y-29631642D01*
X48100000Y-29604501D01*
X48127141Y-29631642D01*
X48255058Y-29717113D01*
X48397191Y-29775987D01*
X48548078Y-29806000D01*
X48701922Y-29806000D01*
X48852809Y-29775987D01*
X48994942Y-29717113D01*
X49122859Y-29631642D01*
X49123000Y-29631501D01*
X49123000Y-31901141D01*
X49113225Y-31897092D01*
X48971997Y-31869000D01*
X48828003Y-31869000D01*
X48686775Y-31897092D01*
X48553742Y-31952196D01*
X48434015Y-32032195D01*
X48332195Y-32134015D01*
X48252196Y-32253742D01*
X48197092Y-32386775D01*
X48169000Y-32528003D01*
X48169000Y-32671997D01*
X48197092Y-32813225D01*
X48211496Y-32848000D01*
X46850000Y-32848000D01*
X46825224Y-32850440D01*
X46801399Y-32857667D01*
X46779443Y-32869403D01*
X46760197Y-32885197D01*
X46744403Y-32904443D01*
X46732667Y-32926399D01*
X46725440Y-32950224D01*
X46723000Y-32975000D01*
X46723000Y-35350356D01*
X45900364Y-35348001D01*
X45875580Y-35350370D01*
X45851735Y-35357529D01*
X45829745Y-35369202D01*
X45810455Y-35384941D01*
X45794606Y-35404141D01*
X45782807Y-35426063D01*
X45775512Y-35449867D01*
X45773000Y-35475000D01*
X45773000Y-36698056D01*
X45626922Y-36669000D01*
X45473078Y-36669000D01*
X45322191Y-36699013D01*
X45180058Y-36757887D01*
X45052141Y-36843358D01*
X44943358Y-36952141D01*
X44857887Y-37080058D01*
X44799013Y-37222191D01*
X44769000Y-37373078D01*
X44769000Y-37526922D01*
X44798056Y-37673000D01*
X43600000Y-37673000D01*
X43575224Y-37675440D01*
X43551399Y-37682667D01*
X43529443Y-37694403D01*
X43510197Y-37710197D01*
X43494403Y-37729443D01*
X43482667Y-37751399D01*
X43475440Y-37775224D01*
X43473000Y-37800000D01*
X43473000Y-37828961D01*
X43372191Y-37849013D01*
X43230058Y-37907887D01*
X43102141Y-37993358D01*
X42993358Y-38102141D01*
X42907887Y-38230058D01*
X42849013Y-38372191D01*
X42819000Y-38523078D01*
X42819000Y-38676922D01*
X42849013Y-38827809D01*
X42907887Y-38969942D01*
X42993358Y-39097859D01*
X43102141Y-39206642D01*
X43230058Y-39292113D01*
X43372191Y-39350987D01*
X43473000Y-39371039D01*
X43473000Y-41548545D01*
X41981313Y-41543941D01*
X41921646Y-41549632D01*
X41845044Y-41572610D01*
X41774396Y-41610093D01*
X41712418Y-41660638D01*
X41661492Y-41722302D01*
X41623574Y-41792717D01*
X41605858Y-41850477D01*
X40944075Y-41850397D01*
X40927429Y-41794854D01*
X40889965Y-41724197D01*
X40839436Y-41662207D01*
X40777785Y-41611264D01*
X40707379Y-41573329D01*
X40630926Y-41549858D01*
X40571297Y-41543783D01*
X31181417Y-41512391D01*
X31121749Y-41518067D01*
X31045140Y-41541026D01*
X30974483Y-41578490D01*
X30912493Y-41629019D01*
X30861550Y-41690670D01*
X30823615Y-41761075D01*
X30800144Y-41837528D01*
X30798959Y-41849160D01*
X29801245Y-41849039D01*
X29800300Y-41839153D01*
X29777304Y-41762556D01*
X29739806Y-41691916D01*
X29689248Y-41629950D01*
X29627572Y-41579037D01*
X29557148Y-41541136D01*
X29480684Y-41517702D01*
X29421052Y-41511656D01*
X23270437Y-41494057D01*
X22940770Y-41461733D01*
X22643316Y-41371926D01*
X22368975Y-41226056D01*
X22128187Y-41029675D01*
X21930129Y-40790265D01*
X21782346Y-40516948D01*
X21690465Y-40220128D01*
X21656000Y-39892218D01*
X21656000Y-38685486D01*
X21665472Y-38697028D01*
X21814849Y-38819618D01*
X21985271Y-38910711D01*
X22170190Y-38966805D01*
X22314313Y-38981000D01*
X23110687Y-38981000D01*
X23254810Y-38966805D01*
X23439729Y-38910711D01*
X23610151Y-38819618D01*
X23759528Y-38697028D01*
X23882118Y-38547651D01*
X23973211Y-38377229D01*
X24029305Y-38192310D01*
X24048246Y-38000000D01*
X24029305Y-37807690D01*
X23973211Y-37622771D01*
X23882118Y-37452349D01*
X23759528Y-37302972D01*
X23610151Y-37180382D01*
X23439729Y-37089289D01*
X23254810Y-37033195D01*
X23110687Y-37019000D01*
X22314313Y-37019000D01*
X22170190Y-37033195D01*
X21985271Y-37089289D01*
X21814849Y-37180382D01*
X21665472Y-37302972D01*
X21656000Y-37314514D01*
X21656000Y-36891069D01*
X24306500Y-36891069D01*
X24306500Y-37108931D01*
X24349003Y-37322608D01*
X24432376Y-37523887D01*
X24553414Y-37705034D01*
X24707466Y-37859086D01*
X24888613Y-37980124D01*
X25089892Y-38063497D01*
X25303569Y-38106000D01*
X25521431Y-38106000D01*
X25668510Y-38076744D01*
X25632887Y-38130058D01*
X25574013Y-38272191D01*
X25544000Y-38423078D01*
X25544000Y-38576922D01*
X25574013Y-38727809D01*
X25632887Y-38869942D01*
X25718358Y-38997859D01*
X25827141Y-39106642D01*
X25955058Y-39192113D01*
X26097191Y-39250987D01*
X26248078Y-39281000D01*
X26401922Y-39281000D01*
X26552809Y-39250987D01*
X26694942Y-39192113D01*
X26822859Y-39106642D01*
X26847914Y-39081587D01*
X26872856Y-39206978D01*
X26939268Y-39367310D01*
X27035682Y-39511605D01*
X27109077Y-39585000D01*
X27035682Y-39658395D01*
X26939268Y-39802690D01*
X26872856Y-39963022D01*
X26839000Y-40133229D01*
X26839000Y-40306771D01*
X26872856Y-40476978D01*
X26939268Y-40637310D01*
X27035682Y-40781605D01*
X27158395Y-40904318D01*
X27302690Y-41000732D01*
X27463022Y-41067144D01*
X27633229Y-41101000D01*
X27806771Y-41101000D01*
X27976978Y-41067144D01*
X28137310Y-41000732D01*
X28281605Y-40904318D01*
X28355000Y-40830923D01*
X28428395Y-40904318D01*
X28572690Y-41000732D01*
X28733022Y-41067144D01*
X28903229Y-41101000D01*
X29076771Y-41101000D01*
X29246978Y-41067144D01*
X29407310Y-41000732D01*
X29551605Y-40904318D01*
X29625000Y-40830923D01*
X29698395Y-40904318D01*
X29842690Y-41000732D01*
X30003022Y-41067144D01*
X30173229Y-41101000D01*
X30346771Y-41101000D01*
X30516978Y-41067144D01*
X30677310Y-41000732D01*
X30821605Y-40904318D01*
X30895000Y-40830923D01*
X30968395Y-40904318D01*
X31112690Y-41000732D01*
X31273022Y-41067144D01*
X31443229Y-41101000D01*
X31616771Y-41101000D01*
X31786978Y-41067144D01*
X31947310Y-41000732D01*
X32091605Y-40904318D01*
X32165000Y-40830923D01*
X32238395Y-40904318D01*
X32382690Y-41000732D01*
X32543022Y-41067144D01*
X32713229Y-41101000D01*
X32886771Y-41101000D01*
X33056978Y-41067144D01*
X33217310Y-41000732D01*
X33361605Y-40904318D01*
X33484318Y-40781605D01*
X33580732Y-40637310D01*
X33647144Y-40476978D01*
X33681000Y-40306771D01*
X33681000Y-40133229D01*
X33650999Y-39982405D01*
X33654494Y-39980537D01*
X33751185Y-39901185D01*
X33830537Y-39804494D01*
X33889502Y-39694180D01*
X33925812Y-39574482D01*
X33938072Y-39450000D01*
X33935000Y-39235750D01*
X33776250Y-39077000D01*
X32927000Y-39077000D01*
X32927000Y-39097000D01*
X32673000Y-39097000D01*
X32673000Y-39077000D01*
X32653000Y-39077000D01*
X32653000Y-38823000D01*
X32673000Y-38823000D01*
X32673000Y-37973750D01*
X32927000Y-37973750D01*
X32927000Y-38823000D01*
X33776250Y-38823000D01*
X33935000Y-38664250D01*
X33938072Y-38450000D01*
X33925812Y-38325518D01*
X33889502Y-38205820D01*
X33830537Y-38095506D01*
X33751185Y-37998815D01*
X33654494Y-37919463D01*
X33544180Y-37860498D01*
X33424482Y-37824188D01*
X33300000Y-37811928D01*
X33085750Y-37815000D01*
X32927000Y-37973750D01*
X32673000Y-37973750D01*
X32514250Y-37815000D01*
X32300000Y-37811928D01*
X32175518Y-37824188D01*
X32055820Y-37860498D01*
X31945506Y-37919463D01*
X31848815Y-37998815D01*
X31769463Y-38095506D01*
X31767595Y-38099001D01*
X31616771Y-38069000D01*
X31443229Y-38069000D01*
X31273022Y-38102856D01*
X31112690Y-38169268D01*
X30968395Y-38265682D01*
X30895000Y-38339077D01*
X30821605Y-38265682D01*
X30677310Y-38169268D01*
X30516978Y-38102856D01*
X30346771Y-38069000D01*
X30173229Y-38069000D01*
X30003022Y-38102856D01*
X29842690Y-38169268D01*
X29698395Y-38265682D01*
X29625000Y-38339077D01*
X29551605Y-38265682D01*
X29407310Y-38169268D01*
X29246978Y-38102856D01*
X29076771Y-38069000D01*
X28903229Y-38069000D01*
X28733022Y-38102856D01*
X28572690Y-38169268D01*
X28428395Y-38265682D01*
X28355000Y-38339077D01*
X28281605Y-38265682D01*
X28137310Y-38169268D01*
X27976978Y-38102856D01*
X27806771Y-38069000D01*
X27633229Y-38069000D01*
X27463022Y-38102856D01*
X27302690Y-38169268D01*
X27158395Y-38265682D01*
X27088579Y-38335498D01*
X27075987Y-38272191D01*
X27017113Y-38130058D01*
X26931642Y-38002141D01*
X26888756Y-37959255D01*
X26998078Y-37981000D01*
X27151922Y-37981000D01*
X27302809Y-37950987D01*
X27444942Y-37892113D01*
X27572859Y-37806642D01*
X27587500Y-37792001D01*
X27602141Y-37806642D01*
X27730058Y-37892113D01*
X27872191Y-37950987D01*
X28023078Y-37981000D01*
X28176922Y-37981000D01*
X28327809Y-37950987D01*
X28469942Y-37892113D01*
X28597859Y-37806642D01*
X28600000Y-37804501D01*
X28602141Y-37806642D01*
X28730058Y-37892113D01*
X28872191Y-37950987D01*
X29023078Y-37981000D01*
X29176922Y-37981000D01*
X29327809Y-37950987D01*
X29469942Y-37892113D01*
X29597859Y-37806642D01*
X29706642Y-37697859D01*
X29792113Y-37569942D01*
X29850987Y-37427809D01*
X29852952Y-37417927D01*
X35034000Y-37417927D01*
X35034000Y-37552073D01*
X35060171Y-37683640D01*
X35111506Y-37807574D01*
X35186033Y-37919112D01*
X35280888Y-38013967D01*
X35392426Y-38088494D01*
X35516360Y-38139829D01*
X35647927Y-38166000D01*
X35782073Y-38166000D01*
X35913640Y-38139829D01*
X36037574Y-38088494D01*
X36149112Y-38013967D01*
X36243967Y-37919112D01*
X36318494Y-37807574D01*
X36369829Y-37683640D01*
X36396000Y-37552073D01*
X36396000Y-37417927D01*
X36369829Y-37286360D01*
X36318494Y-37162426D01*
X36243967Y-37050888D01*
X36149112Y-36956033D01*
X36037574Y-36881506D01*
X35913640Y-36830171D01*
X35782073Y-36804000D01*
X35647927Y-36804000D01*
X35516360Y-36830171D01*
X35392426Y-36881506D01*
X35280888Y-36956033D01*
X35186033Y-37050888D01*
X35111506Y-37162426D01*
X35060171Y-37286360D01*
X35034000Y-37417927D01*
X29852952Y-37417927D01*
X29881000Y-37276922D01*
X29881000Y-37123078D01*
X29850987Y-36972191D01*
X29792113Y-36830058D01*
X29706642Y-36702141D01*
X29597859Y-36593358D01*
X29469942Y-36507887D01*
X29327809Y-36449013D01*
X29176922Y-36419000D01*
X29023078Y-36419000D01*
X28872191Y-36449013D01*
X28730058Y-36507887D01*
X28602141Y-36593358D01*
X28600000Y-36595499D01*
X28597859Y-36593358D01*
X28469942Y-36507887D01*
X28327809Y-36449013D01*
X28176922Y-36419000D01*
X28023078Y-36419000D01*
X27872191Y-36449013D01*
X27805815Y-36476507D01*
X27825987Y-36427809D01*
X27856000Y-36276922D01*
X27856000Y-36123078D01*
X27825987Y-35972191D01*
X27767113Y-35830058D01*
X27681642Y-35702141D01*
X27572859Y-35593358D01*
X27444942Y-35507887D01*
X27302809Y-35449013D01*
X27151922Y-35419000D01*
X26998078Y-35419000D01*
X26847191Y-35449013D01*
X26705058Y-35507887D01*
X26577141Y-35593358D01*
X26468358Y-35702141D01*
X26382887Y-35830058D01*
X26324013Y-35972191D01*
X26294000Y-36123078D01*
X26294000Y-36276922D01*
X26308611Y-36350378D01*
X26271586Y-36294966D01*
X26117534Y-36140914D01*
X25936387Y-36019876D01*
X25735108Y-35936503D01*
X25521431Y-35894000D01*
X25303569Y-35894000D01*
X25089892Y-35936503D01*
X24888613Y-36019876D01*
X24707466Y-36140914D01*
X24553414Y-36294966D01*
X24432376Y-36476113D01*
X24349003Y-36677392D01*
X24306500Y-36891069D01*
X21656000Y-36891069D01*
X21656000Y-35037852D01*
X27769000Y-35037852D01*
X27769000Y-35162148D01*
X27793249Y-35284056D01*
X27840815Y-35398891D01*
X27909870Y-35502239D01*
X27997761Y-35590130D01*
X28101109Y-35659185D01*
X28215944Y-35706751D01*
X28337852Y-35731000D01*
X28462148Y-35731000D01*
X28584056Y-35706751D01*
X28698891Y-35659185D01*
X28802239Y-35590130D01*
X28890130Y-35502239D01*
X28959185Y-35398891D01*
X29006751Y-35284056D01*
X29031000Y-35162148D01*
X29031000Y-35037852D01*
X29029041Y-35028003D01*
X29619000Y-35028003D01*
X29619000Y-35171997D01*
X29647092Y-35313225D01*
X29702196Y-35446258D01*
X29782195Y-35565985D01*
X29884015Y-35667805D01*
X30003742Y-35747804D01*
X30136775Y-35802908D01*
X30278003Y-35831000D01*
X30421997Y-35831000D01*
X30563225Y-35802908D01*
X30696258Y-35747804D01*
X30815985Y-35667805D01*
X30917805Y-35565985D01*
X30997804Y-35446258D01*
X31052908Y-35313225D01*
X31081000Y-35171997D01*
X31081000Y-35028003D01*
X31052908Y-34886775D01*
X30997804Y-34753742D01*
X30917805Y-34634015D01*
X30815985Y-34532195D01*
X30696258Y-34452196D01*
X30563225Y-34397092D01*
X30421997Y-34369000D01*
X30278003Y-34369000D01*
X30136775Y-34397092D01*
X30003742Y-34452196D01*
X29884015Y-34532195D01*
X29782195Y-34634015D01*
X29702196Y-34753742D01*
X29647092Y-34886775D01*
X29619000Y-35028003D01*
X29029041Y-35028003D01*
X29006751Y-34915944D01*
X28959185Y-34801109D01*
X28890130Y-34697761D01*
X28802239Y-34609870D01*
X28698891Y-34540815D01*
X28584056Y-34493249D01*
X28462148Y-34469000D01*
X28337852Y-34469000D01*
X28215944Y-34493249D01*
X28101109Y-34540815D01*
X27997761Y-34609870D01*
X27909870Y-34697761D01*
X27840815Y-34801109D01*
X27793249Y-34915944D01*
X27769000Y-35037852D01*
X21656000Y-35037852D01*
X21656000Y-33482927D01*
X26369000Y-33482927D01*
X26369000Y-33617073D01*
X26395171Y-33748640D01*
X26446506Y-33872574D01*
X26521033Y-33984112D01*
X26615888Y-34078967D01*
X26727426Y-34153494D01*
X26851360Y-34204829D01*
X26982927Y-34231000D01*
X27117073Y-34231000D01*
X27248640Y-34204829D01*
X27372574Y-34153494D01*
X27484112Y-34078967D01*
X27564662Y-33998417D01*
X27630058Y-34042113D01*
X27772191Y-34100987D01*
X27923078Y-34131000D01*
X28076922Y-34131000D01*
X28227809Y-34100987D01*
X28369942Y-34042113D01*
X28497859Y-33956642D01*
X28606642Y-33847859D01*
X28692113Y-33719942D01*
X28750987Y-33577809D01*
X28781000Y-33426922D01*
X28781000Y-33273078D01*
X28750987Y-33122191D01*
X28692113Y-32980058D01*
X28606642Y-32852141D01*
X28497859Y-32743358D01*
X28369942Y-32657887D01*
X28227809Y-32599013D01*
X28076922Y-32569000D01*
X27923078Y-32569000D01*
X27772191Y-32599013D01*
X27630058Y-32657887D01*
X27502141Y-32743358D01*
X27393358Y-32852141D01*
X27339468Y-32932793D01*
X27248640Y-32895171D01*
X27117073Y-32869000D01*
X26982927Y-32869000D01*
X26851360Y-32895171D01*
X26727426Y-32946506D01*
X26615888Y-33021033D01*
X26521033Y-33115888D01*
X26446506Y-33227426D01*
X26395171Y-33351360D01*
X26369000Y-33482927D01*
X21656000Y-33482927D01*
X21656000Y-31685486D01*
X21665472Y-31697028D01*
X21814849Y-31819618D01*
X21985271Y-31910711D01*
X22170190Y-31966805D01*
X22314313Y-31981000D01*
X23110687Y-31981000D01*
X23254810Y-31966805D01*
X23439729Y-31910711D01*
X23476476Y-31891069D01*
X24306500Y-31891069D01*
X24306500Y-32108931D01*
X24349003Y-32322608D01*
X24432376Y-32523887D01*
X24553414Y-32705034D01*
X24707466Y-32859086D01*
X24888613Y-32980124D01*
X25089892Y-33063497D01*
X25303569Y-33106000D01*
X25521431Y-33106000D01*
X25735108Y-33063497D01*
X25936387Y-32980124D01*
X26117534Y-32859086D01*
X26271586Y-32705034D01*
X26392624Y-32523887D01*
X26475997Y-32322608D01*
X26518500Y-32108931D01*
X26518500Y-31891069D01*
X26475997Y-31677392D01*
X26392624Y-31476113D01*
X26340483Y-31398078D01*
X29819000Y-31398078D01*
X29819000Y-31551922D01*
X29849013Y-31702809D01*
X29907887Y-31844942D01*
X29993358Y-31972859D01*
X30102141Y-32081642D01*
X30230058Y-32167113D01*
X30369808Y-32225000D01*
X30230058Y-32282887D01*
X30102141Y-32368358D01*
X29993358Y-32477141D01*
X29907887Y-32605058D01*
X29849013Y-32747191D01*
X29819000Y-32898078D01*
X29819000Y-33051922D01*
X29849013Y-33202809D01*
X29907887Y-33344942D01*
X29993358Y-33472859D01*
X30102141Y-33581642D01*
X30230058Y-33667113D01*
X30372191Y-33725987D01*
X30523078Y-33756000D01*
X30676922Y-33756000D01*
X30827809Y-33725987D01*
X30969942Y-33667113D01*
X31097859Y-33581642D01*
X31206642Y-33472859D01*
X31256608Y-33398078D01*
X37419000Y-33398078D01*
X37419000Y-33551922D01*
X37449013Y-33702809D01*
X37507887Y-33844942D01*
X37593358Y-33972859D01*
X37610060Y-33989561D01*
X37532887Y-34105058D01*
X37474013Y-34247191D01*
X37444000Y-34398078D01*
X37444000Y-34551922D01*
X37474013Y-34702809D01*
X37532887Y-34844942D01*
X37610060Y-34960439D01*
X37593358Y-34977141D01*
X37507887Y-35105058D01*
X37449013Y-35247191D01*
X37419000Y-35398078D01*
X37419000Y-35551922D01*
X37449013Y-35702809D01*
X37507887Y-35844942D01*
X37593358Y-35972859D01*
X37702141Y-36081642D01*
X37830058Y-36167113D01*
X37972191Y-36225987D01*
X38123078Y-36256000D01*
X38276922Y-36256000D01*
X38427809Y-36225987D01*
X38569942Y-36167113D01*
X38697859Y-36081642D01*
X38806642Y-35972859D01*
X38892113Y-35844942D01*
X38908818Y-35804612D01*
X41464420Y-35804612D01*
X41464420Y-35938758D01*
X41490591Y-36070325D01*
X41541926Y-36194259D01*
X41616453Y-36305797D01*
X41711308Y-36400652D01*
X41822846Y-36475179D01*
X41946780Y-36526514D01*
X42078347Y-36552685D01*
X42212493Y-36552685D01*
X42344060Y-36526514D01*
X42467994Y-36475179D01*
X42579532Y-36400652D01*
X42674387Y-36305797D01*
X42748914Y-36194259D01*
X42800249Y-36070325D01*
X42826420Y-35938758D01*
X42826420Y-35804612D01*
X42800249Y-35673045D01*
X42748914Y-35549111D01*
X42674387Y-35437573D01*
X42579532Y-35342718D01*
X42467994Y-35268191D01*
X42344060Y-35216856D01*
X42212493Y-35190685D01*
X42078347Y-35190685D01*
X41946780Y-35216856D01*
X41822846Y-35268191D01*
X41711308Y-35342718D01*
X41616453Y-35437573D01*
X41541926Y-35549111D01*
X41490591Y-35673045D01*
X41464420Y-35804612D01*
X38908818Y-35804612D01*
X38950987Y-35702809D01*
X38981000Y-35551922D01*
X38981000Y-35398078D01*
X38950987Y-35247191D01*
X38892113Y-35105058D01*
X38814940Y-34989561D01*
X38831642Y-34972859D01*
X38917113Y-34844942D01*
X38975987Y-34702809D01*
X39006000Y-34551922D01*
X39006000Y-34398078D01*
X38975987Y-34247191D01*
X38917113Y-34105058D01*
X38902326Y-34082927D01*
X42369000Y-34082927D01*
X42369000Y-34217073D01*
X42395171Y-34348640D01*
X42446506Y-34472574D01*
X42521033Y-34584112D01*
X42615888Y-34678967D01*
X42727426Y-34753494D01*
X42851360Y-34804829D01*
X42982927Y-34831000D01*
X43117073Y-34831000D01*
X43248640Y-34804829D01*
X43372574Y-34753494D01*
X43484112Y-34678967D01*
X43578967Y-34584112D01*
X43653494Y-34472574D01*
X43704829Y-34348640D01*
X43731000Y-34217073D01*
X43731000Y-34082927D01*
X43704829Y-33951360D01*
X43653494Y-33827426D01*
X43578967Y-33715888D01*
X43484112Y-33621033D01*
X43372574Y-33546506D01*
X43248640Y-33495171D01*
X43117073Y-33469000D01*
X42982927Y-33469000D01*
X42851360Y-33495171D01*
X42727426Y-33546506D01*
X42615888Y-33621033D01*
X42521033Y-33715888D01*
X42446506Y-33827426D01*
X42395171Y-33951360D01*
X42369000Y-34082927D01*
X38902326Y-34082927D01*
X38831642Y-33977141D01*
X38814940Y-33960439D01*
X38892113Y-33844942D01*
X38950987Y-33702809D01*
X38981000Y-33551922D01*
X38981000Y-33398078D01*
X38950987Y-33247191D01*
X38892113Y-33105058D01*
X38806642Y-32977141D01*
X38697859Y-32868358D01*
X38569942Y-32782887D01*
X38427809Y-32724013D01*
X38276922Y-32694000D01*
X38123078Y-32694000D01*
X37972191Y-32724013D01*
X37830058Y-32782887D01*
X37702141Y-32868358D01*
X37593358Y-32977141D01*
X37507887Y-33105058D01*
X37449013Y-33247191D01*
X37419000Y-33398078D01*
X31256608Y-33398078D01*
X31292113Y-33344942D01*
X31350987Y-33202809D01*
X31381000Y-33051922D01*
X31381000Y-32898078D01*
X31350987Y-32747191D01*
X31292113Y-32605058D01*
X31206642Y-32477141D01*
X31097859Y-32368358D01*
X31000048Y-32303003D01*
X40769000Y-32303003D01*
X40769000Y-32446997D01*
X40797092Y-32588225D01*
X40852196Y-32721258D01*
X40932195Y-32840985D01*
X41034015Y-32942805D01*
X41153742Y-33022804D01*
X41286775Y-33077908D01*
X41428003Y-33106000D01*
X41571997Y-33106000D01*
X41713225Y-33077908D01*
X41846258Y-33022804D01*
X41965985Y-32942805D01*
X42067805Y-32840985D01*
X42147804Y-32721258D01*
X42202908Y-32588225D01*
X42231000Y-32446997D01*
X42231000Y-32303003D01*
X42202908Y-32161775D01*
X42147804Y-32028742D01*
X42067805Y-31909015D01*
X41965985Y-31807195D01*
X41846258Y-31727196D01*
X41713225Y-31672092D01*
X41571997Y-31644000D01*
X41428003Y-31644000D01*
X41286775Y-31672092D01*
X41153742Y-31727196D01*
X41034015Y-31807195D01*
X40932195Y-31909015D01*
X40852196Y-32028742D01*
X40797092Y-32161775D01*
X40769000Y-32303003D01*
X31000048Y-32303003D01*
X30969942Y-32282887D01*
X30830192Y-32225000D01*
X30969942Y-32167113D01*
X31097859Y-32081642D01*
X31206642Y-31972859D01*
X31292113Y-31844942D01*
X31350987Y-31702809D01*
X31381000Y-31551922D01*
X31381000Y-31398078D01*
X31371055Y-31348078D01*
X33569000Y-31348078D01*
X33569000Y-31501922D01*
X33599013Y-31652809D01*
X33657887Y-31794942D01*
X33743358Y-31922859D01*
X33852141Y-32031642D01*
X33980058Y-32117113D01*
X34122191Y-32175987D01*
X34273078Y-32206000D01*
X34426922Y-32206000D01*
X34577809Y-32175987D01*
X34719942Y-32117113D01*
X34847859Y-32031642D01*
X34956642Y-31922859D01*
X35042113Y-31794942D01*
X35100987Y-31652809D01*
X35131000Y-31501922D01*
X35131000Y-31348078D01*
X35100987Y-31197191D01*
X35042113Y-31055058D01*
X34956642Y-30927141D01*
X34847859Y-30818358D01*
X34719942Y-30732887D01*
X34577809Y-30674013D01*
X34426922Y-30644000D01*
X34273078Y-30644000D01*
X34122191Y-30674013D01*
X33980058Y-30732887D01*
X33852141Y-30818358D01*
X33743358Y-30927141D01*
X33657887Y-31055058D01*
X33599013Y-31197191D01*
X33569000Y-31348078D01*
X31371055Y-31348078D01*
X31350987Y-31247191D01*
X31292113Y-31105058D01*
X31206642Y-30977141D01*
X31097859Y-30868358D01*
X30969942Y-30782887D01*
X30827809Y-30724013D01*
X30676922Y-30694000D01*
X30523078Y-30694000D01*
X30372191Y-30724013D01*
X30230058Y-30782887D01*
X30102141Y-30868358D01*
X29993358Y-30977141D01*
X29907887Y-31105058D01*
X29849013Y-31247191D01*
X29819000Y-31398078D01*
X26340483Y-31398078D01*
X26271586Y-31294966D01*
X26117534Y-31140914D01*
X25936387Y-31019876D01*
X25735108Y-30936503D01*
X25521431Y-30894000D01*
X25303569Y-30894000D01*
X25089892Y-30936503D01*
X24888613Y-31019876D01*
X24707466Y-31140914D01*
X24553414Y-31294966D01*
X24432376Y-31476113D01*
X24349003Y-31677392D01*
X24306500Y-31891069D01*
X23476476Y-31891069D01*
X23610151Y-31819618D01*
X23759528Y-31697028D01*
X23882118Y-31547651D01*
X23973211Y-31377229D01*
X24029305Y-31192310D01*
X24048246Y-31000000D01*
X24029305Y-30807690D01*
X23973211Y-30622771D01*
X23882118Y-30452349D01*
X23759528Y-30302972D01*
X23610151Y-30180382D01*
X23439729Y-30089289D01*
X23254810Y-30033195D01*
X23110687Y-30019000D01*
X22314313Y-30019000D01*
X22170190Y-30033195D01*
X21985271Y-30089289D01*
X21814849Y-30180382D01*
X21665472Y-30302972D01*
X21656000Y-30314514D01*
X21656000Y-29523078D01*
X31119000Y-29523078D01*
X31119000Y-29676922D01*
X31149013Y-29827809D01*
X31207887Y-29969942D01*
X31293358Y-30097859D01*
X31402141Y-30206642D01*
X31530058Y-30292113D01*
X31672191Y-30350987D01*
X31823078Y-30381000D01*
X31976922Y-30381000D01*
X32127809Y-30350987D01*
X32269942Y-30292113D01*
X32384000Y-30215902D01*
X38185275Y-30215902D01*
X38185275Y-30350048D01*
X38211446Y-30481615D01*
X38262781Y-30605549D01*
X38337308Y-30717087D01*
X38432163Y-30811942D01*
X38543701Y-30886469D01*
X38667635Y-30937804D01*
X38799202Y-30963975D01*
X38933348Y-30963975D01*
X39064915Y-30937804D01*
X39188849Y-30886469D01*
X39300387Y-30811942D01*
X39314251Y-30798078D01*
X41944000Y-30798078D01*
X41944000Y-30951922D01*
X41974013Y-31102809D01*
X42032887Y-31244942D01*
X42118358Y-31372859D01*
X42227141Y-31481642D01*
X42355058Y-31567113D01*
X42497191Y-31625987D01*
X42648078Y-31656000D01*
X42801922Y-31656000D01*
X42952809Y-31625987D01*
X43094942Y-31567113D01*
X43222859Y-31481642D01*
X43331642Y-31372859D01*
X43417113Y-31244942D01*
X43475987Y-31102809D01*
X43506000Y-30951922D01*
X43506000Y-30798078D01*
X43475987Y-30647191D01*
X43417113Y-30505058D01*
X43331642Y-30377141D01*
X43222859Y-30268358D01*
X43094942Y-30182887D01*
X42952809Y-30124013D01*
X42801922Y-30094000D01*
X42648078Y-30094000D01*
X42497191Y-30124013D01*
X42355058Y-30182887D01*
X42227141Y-30268358D01*
X42118358Y-30377141D01*
X42032887Y-30505058D01*
X41974013Y-30647191D01*
X41944000Y-30798078D01*
X39314251Y-30798078D01*
X39395242Y-30717087D01*
X39469769Y-30605549D01*
X39521104Y-30481615D01*
X39547275Y-30350048D01*
X39547275Y-30215902D01*
X39521104Y-30084335D01*
X39469769Y-29960401D01*
X39395242Y-29848863D01*
X39300387Y-29754008D01*
X39188849Y-29679481D01*
X39064915Y-29628146D01*
X38933348Y-29601975D01*
X38799202Y-29601975D01*
X38667635Y-29628146D01*
X38543701Y-29679481D01*
X38432163Y-29754008D01*
X38337308Y-29848863D01*
X38262781Y-29960401D01*
X38211446Y-30084335D01*
X38185275Y-30215902D01*
X32384000Y-30215902D01*
X32397859Y-30206642D01*
X32506642Y-30097859D01*
X32592113Y-29969942D01*
X32650987Y-29827809D01*
X32681000Y-29676922D01*
X32681000Y-29523078D01*
X32650987Y-29372191D01*
X32592113Y-29230058D01*
X32506642Y-29102141D01*
X32397859Y-28993358D01*
X32269942Y-28907887D01*
X32127809Y-28849013D01*
X31976922Y-28819000D01*
X31823078Y-28819000D01*
X31672191Y-28849013D01*
X31530058Y-28907887D01*
X31402141Y-28993358D01*
X31293358Y-29102141D01*
X31207887Y-29230058D01*
X31149013Y-29372191D01*
X31119000Y-29523078D01*
X21656000Y-29523078D01*
X21656000Y-29019854D01*
X21688267Y-28690771D01*
X21778075Y-28393312D01*
X21923945Y-28118972D01*
X22120325Y-27878187D01*
X22359736Y-27680127D01*
X22633053Y-27532346D01*
X22929872Y-27440465D01*
X23257782Y-27406000D01*
X40464499Y-27406000D01*
X40368358Y-27502141D01*
M02*
