G04 #@! TF.GenerationSoftware,KiCad,Pcbnew,(5.1.5)-3*
G04 #@! TF.CreationDate,2020-05-11T01:57:27+02:00*
G04 #@! TF.ProjectId,STRF,53545246-2e6b-4696-9361-645f70636258,rev?*
G04 #@! TF.SameCoordinates,Original*
G04 #@! TF.FileFunction,Copper,L4,Bot*
G04 #@! TF.FilePolarity,Positive*
%FSLAX46Y46*%
G04 Gerber Fmt 4.6, Leading zero omitted, Abs format (unit mm)*
G04 Created by KiCad (PCBNEW (5.1.5)-3) date 2020-05-11 01:57:27*
%MOMM*%
%LPD*%
G04 APERTURE LIST*
%ADD10R,4.200000X1.350000*%
%ADD11O,1.000000X1.000000*%
%ADD12R,1.000000X1.000000*%
%ADD13C,1.450000*%
%ADD14O,1.900000X1.200000*%
%ADD15C,0.800000*%
%ADD16C,0.600000*%
%ADD17C,0.700000*%
%ADD18C,0.500000*%
%ADD19C,0.293370*%
%ADD20C,0.500000*%
%ADD21C,0.254000*%
G04 APERTURE END LIST*
D10*
X57600000Y-37325000D03*
X57600000Y-31675000D03*
D11*
X27720000Y-40220000D03*
X27720000Y-38950000D03*
X28990000Y-40220000D03*
X28990000Y-38950000D03*
X30260000Y-40220000D03*
X30260000Y-38950000D03*
X31530000Y-40220000D03*
X31530000Y-38950000D03*
X32800000Y-40220000D03*
D12*
X32800000Y-38950000D03*
D13*
X25412500Y-32000000D03*
X25412500Y-37000000D03*
D14*
X22712500Y-31000000D03*
X22712500Y-38000000D03*
D15*
X54300000Y-32025000D03*
D16*
X35715000Y-37485000D03*
D15*
X48625000Y-29025000D03*
X46300000Y-28425000D03*
X26325000Y-38500000D03*
X42725000Y-30875000D03*
X40975000Y-28925000D03*
X40975000Y-28000000D03*
X34350000Y-31425000D03*
X28000000Y-33350000D03*
X27075000Y-36200000D03*
X28100000Y-37200000D03*
X53250000Y-36900000D03*
X53250000Y-35900000D03*
X58200000Y-30400000D03*
X58200000Y-38600000D03*
X48850000Y-41350000D03*
X43600000Y-38600000D03*
X30600000Y-32975000D03*
X30600000Y-31475000D03*
D17*
X48900000Y-32600000D03*
D15*
X38225000Y-34475000D03*
X38200000Y-33475000D03*
X38200000Y-35475000D03*
X50250000Y-27700000D03*
X50250000Y-30200000D03*
X50250000Y-32500000D03*
X50250000Y-41300000D03*
X50250000Y-39075000D03*
X59500000Y-30000000D03*
X52750000Y-27700000D03*
X55750000Y-27700000D03*
X58400000Y-27700000D03*
X59500000Y-39000000D03*
X50250000Y-36900000D03*
D17*
X30350000Y-35100000D03*
D15*
X27075000Y-37200000D03*
X29100000Y-37200000D03*
D17*
X41500000Y-32375000D03*
D15*
X31900000Y-29600000D03*
X42000000Y-28000000D03*
X42000000Y-28925000D03*
X45550000Y-37450000D03*
X52750000Y-41300000D03*
X55750000Y-41300000D03*
X58400000Y-41300000D03*
D16*
X37250000Y-38700000D03*
X37200000Y-31100000D03*
D15*
X47575000Y-29025000D03*
D17*
X48650000Y-31725000D03*
D15*
X32700000Y-33350000D03*
X44750000Y-28425000D03*
X42925000Y-37550000D03*
X33575000Y-33350000D03*
X34450000Y-33350000D03*
X34450000Y-32475000D03*
D17*
X41175000Y-31525000D03*
D16*
X38866275Y-30282975D03*
D18*
X28400000Y-35100000D03*
D16*
X27050000Y-33550000D03*
X43050000Y-34150000D03*
X42145420Y-35871685D03*
D19*
X58200000Y-37325000D02*
X58200000Y-38600000D01*
X58200000Y-31675000D02*
X58200000Y-30400000D01*
D20*
X39950000Y-31366700D02*
X39950000Y-39475000D01*
X27720000Y-40927106D02*
X27720000Y-40220000D01*
X38225000Y-41200000D02*
X27992894Y-41200000D01*
X38866275Y-30282975D02*
X39950000Y-31366700D01*
X39950000Y-39475000D02*
X38225000Y-41200000D01*
X27992894Y-41200000D02*
X27720000Y-40927106D01*
X27050000Y-33750000D02*
X27050000Y-33550000D01*
X28400000Y-35100000D02*
X27050000Y-33750000D01*
D19*
X42145420Y-35871685D02*
X42700000Y-35317105D01*
X42700000Y-34500000D02*
X43050000Y-34150000D01*
X42700000Y-35317105D02*
X42700000Y-34500000D01*
D21*
G36*
X49123000Y-31164210D02*
G01*
X49115985Y-31157195D01*
X48996258Y-31077196D01*
X48863225Y-31022092D01*
X48721997Y-30994000D01*
X48578003Y-30994000D01*
X48436775Y-31022092D01*
X48303742Y-31077196D01*
X48184015Y-31157195D01*
X48082195Y-31259015D01*
X48002196Y-31378742D01*
X47947092Y-31511775D01*
X47919000Y-31653003D01*
X47919000Y-31796997D01*
X47947092Y-31938225D01*
X48002196Y-32071258D01*
X48082195Y-32190985D01*
X48184015Y-32292805D01*
X48303742Y-32372804D01*
X48436775Y-32427908D01*
X48578003Y-32456000D01*
X48721997Y-32456000D01*
X48863225Y-32427908D01*
X48996258Y-32372804D01*
X49115985Y-32292805D01*
X49123000Y-32285790D01*
X49123000Y-32848000D01*
X46850000Y-32848000D01*
X46825224Y-32850440D01*
X46801399Y-32857667D01*
X46779443Y-32869403D01*
X46760197Y-32885197D01*
X46744403Y-32904443D01*
X46732667Y-32926399D01*
X46725440Y-32950224D01*
X46723000Y-32975000D01*
X46723000Y-35348000D01*
X45900000Y-35348000D01*
X45875224Y-35350440D01*
X45851399Y-35357667D01*
X45829443Y-35369403D01*
X45810197Y-35385197D01*
X45794403Y-35404443D01*
X45782667Y-35426399D01*
X45775440Y-35450224D01*
X45773000Y-35475000D01*
X45773000Y-37673000D01*
X43696835Y-37673000D01*
X43706000Y-37626922D01*
X43706000Y-37473078D01*
X43675987Y-37322191D01*
X43617113Y-37180058D01*
X43531642Y-37052141D01*
X43422859Y-36943358D01*
X43294942Y-36857887D01*
X43152809Y-36799013D01*
X43001922Y-36769000D01*
X42848078Y-36769000D01*
X42697191Y-36799013D01*
X42555058Y-36857887D01*
X42427141Y-36943358D01*
X42318358Y-37052141D01*
X42232887Y-37180058D01*
X42174013Y-37322191D01*
X42144000Y-37473078D01*
X42144000Y-37626922D01*
X42174013Y-37777809D01*
X42198000Y-37835718D01*
X42198000Y-41548214D01*
X38778937Y-41538431D01*
X40374263Y-39943105D01*
X40398343Y-39923343D01*
X40477196Y-39827261D01*
X40535789Y-39717642D01*
X40571870Y-39598698D01*
X40581000Y-39505998D01*
X40581000Y-39505989D01*
X40584052Y-39475001D01*
X40581000Y-39444013D01*
X40581000Y-35804612D01*
X41464420Y-35804612D01*
X41464420Y-35938758D01*
X41490591Y-36070325D01*
X41541926Y-36194259D01*
X41616453Y-36305797D01*
X41711308Y-36400652D01*
X41822846Y-36475179D01*
X41946780Y-36526514D01*
X42078347Y-36552685D01*
X42212493Y-36552685D01*
X42344060Y-36526514D01*
X42467994Y-36475179D01*
X42579532Y-36400652D01*
X42674387Y-36305797D01*
X42748914Y-36194259D01*
X42800249Y-36070325D01*
X42826420Y-35938758D01*
X42826420Y-35936944D01*
X43054798Y-35708566D01*
X43074935Y-35692040D01*
X43128152Y-35627195D01*
X43140877Y-35611690D01*
X43189876Y-35520019D01*
X43210430Y-35452260D01*
X43220050Y-35420549D01*
X43227685Y-35343027D01*
X43227685Y-35343025D01*
X43230238Y-35317105D01*
X43227685Y-35291185D01*
X43227685Y-34808997D01*
X43248640Y-34804829D01*
X43372574Y-34753494D01*
X43484112Y-34678967D01*
X43578967Y-34584112D01*
X43653494Y-34472574D01*
X43704829Y-34348640D01*
X43731000Y-34217073D01*
X43731000Y-34082927D01*
X43704829Y-33951360D01*
X43653494Y-33827426D01*
X43578967Y-33715888D01*
X43484112Y-33621033D01*
X43372574Y-33546506D01*
X43248640Y-33495171D01*
X43117073Y-33469000D01*
X42982927Y-33469000D01*
X42851360Y-33495171D01*
X42727426Y-33546506D01*
X42615888Y-33621033D01*
X42521033Y-33715888D01*
X42446506Y-33827426D01*
X42395171Y-33951360D01*
X42369000Y-34082927D01*
X42369000Y-34084741D01*
X42345197Y-34108544D01*
X42325066Y-34125065D01*
X42308545Y-34145196D01*
X42308541Y-34145200D01*
X42259124Y-34205416D01*
X42210125Y-34297087D01*
X42179951Y-34396556D01*
X42169762Y-34500000D01*
X42172315Y-34525919D01*
X42172315Y-35098531D01*
X42080161Y-35190685D01*
X42078347Y-35190685D01*
X41946780Y-35216856D01*
X41822846Y-35268191D01*
X41711308Y-35342718D01*
X41616453Y-35437573D01*
X41541926Y-35549111D01*
X41490591Y-35673045D01*
X41464420Y-35804612D01*
X40581000Y-35804612D01*
X40581000Y-31951781D01*
X40607195Y-31990985D01*
X40709015Y-32092805D01*
X40828742Y-32172804D01*
X40961775Y-32227908D01*
X41103003Y-32256000D01*
X41246997Y-32256000D01*
X41388225Y-32227908D01*
X41521258Y-32172804D01*
X41640985Y-32092805D01*
X41742805Y-31990985D01*
X41822804Y-31871258D01*
X41877908Y-31738225D01*
X41906000Y-31596997D01*
X41906000Y-31453003D01*
X41877908Y-31311775D01*
X41822804Y-31178742D01*
X41742805Y-31059015D01*
X41640985Y-30957195D01*
X41521258Y-30877196D01*
X41388225Y-30822092D01*
X41246997Y-30794000D01*
X41103003Y-30794000D01*
X40961775Y-30822092D01*
X40828742Y-30877196D01*
X40709015Y-30957195D01*
X40607195Y-31059015D01*
X40544515Y-31152823D01*
X40535789Y-31124058D01*
X40477196Y-31014439D01*
X40418103Y-30942434D01*
X40418101Y-30942432D01*
X40398343Y-30918357D01*
X40374269Y-30898600D01*
X39493598Y-30017930D01*
X39469769Y-29960401D01*
X39395242Y-29848863D01*
X39300387Y-29754008D01*
X39188849Y-29679481D01*
X39064915Y-29628146D01*
X38933348Y-29601975D01*
X38799202Y-29601975D01*
X38667635Y-29628146D01*
X38543701Y-29679481D01*
X38432163Y-29754008D01*
X38337308Y-29848863D01*
X38262781Y-29960401D01*
X38211446Y-30084335D01*
X38185275Y-30215902D01*
X38185275Y-30350048D01*
X38211446Y-30481615D01*
X38262781Y-30605549D01*
X38337308Y-30717087D01*
X38432163Y-30811942D01*
X38543701Y-30886469D01*
X38601230Y-30910298D01*
X39319000Y-31628069D01*
X39319001Y-39213631D01*
X37963632Y-40569000D01*
X33609027Y-40569000D01*
X33647144Y-40476978D01*
X33681000Y-40306771D01*
X33681000Y-40133229D01*
X33647144Y-39963022D01*
X33580732Y-39802690D01*
X33541806Y-39744432D01*
X33570711Y-39720711D01*
X33618322Y-39662696D01*
X33653701Y-39596508D01*
X33675487Y-39524689D01*
X33682843Y-39450000D01*
X33682843Y-38632927D01*
X36569000Y-38632927D01*
X36569000Y-38767073D01*
X36595171Y-38898640D01*
X36646506Y-39022574D01*
X36721033Y-39134112D01*
X36815888Y-39228967D01*
X36927426Y-39303494D01*
X37051360Y-39354829D01*
X37182927Y-39381000D01*
X37317073Y-39381000D01*
X37448640Y-39354829D01*
X37572574Y-39303494D01*
X37684112Y-39228967D01*
X37778967Y-39134112D01*
X37853494Y-39022574D01*
X37904829Y-38898640D01*
X37931000Y-38767073D01*
X37931000Y-38632927D01*
X37904829Y-38501360D01*
X37853494Y-38377426D01*
X37778967Y-38265888D01*
X37684112Y-38171033D01*
X37572574Y-38096506D01*
X37448640Y-38045171D01*
X37317073Y-38019000D01*
X37182927Y-38019000D01*
X37051360Y-38045171D01*
X36927426Y-38096506D01*
X36815888Y-38171033D01*
X36721033Y-38265888D01*
X36646506Y-38377426D01*
X36595171Y-38501360D01*
X36569000Y-38632927D01*
X33682843Y-38632927D01*
X33682843Y-38450000D01*
X33675487Y-38375311D01*
X33653701Y-38303492D01*
X33618322Y-38237304D01*
X33570711Y-38179289D01*
X33512696Y-38131678D01*
X33446508Y-38096299D01*
X33374689Y-38074513D01*
X33300000Y-38067157D01*
X32300000Y-38067157D01*
X32245622Y-38072513D01*
X32090206Y-37962877D01*
X31886864Y-37872554D01*
X31831874Y-37855881D01*
X31657000Y-37982046D01*
X31657000Y-38823000D01*
X31677000Y-38823000D01*
X31677000Y-39077000D01*
X31657000Y-39077000D01*
X31657000Y-39097000D01*
X31403000Y-39097000D01*
X31403000Y-39077000D01*
X30387000Y-39077000D01*
X30387000Y-39097000D01*
X30133000Y-39097000D01*
X30133000Y-39077000D01*
X30113000Y-39077000D01*
X30113000Y-38823000D01*
X30133000Y-38823000D01*
X30133000Y-37982046D01*
X30387000Y-37982046D01*
X30387000Y-38823000D01*
X31403000Y-38823000D01*
X31403000Y-37982046D01*
X31228126Y-37855881D01*
X31173136Y-37872554D01*
X30969794Y-37962877D01*
X30895000Y-38015639D01*
X30820206Y-37962877D01*
X30616864Y-37872554D01*
X30561874Y-37855881D01*
X30387000Y-37982046D01*
X30133000Y-37982046D01*
X29958126Y-37855881D01*
X29903136Y-37872554D01*
X29699794Y-37962877D01*
X29517980Y-38091135D01*
X29429569Y-38184141D01*
X29407310Y-38169268D01*
X29246978Y-38102856D01*
X29076771Y-38069000D01*
X28903229Y-38069000D01*
X28733022Y-38102856D01*
X28572690Y-38169268D01*
X28550431Y-38184141D01*
X28462020Y-38091135D01*
X28280206Y-37962877D01*
X28076864Y-37872554D01*
X28021874Y-37855881D01*
X27847000Y-37982046D01*
X27847000Y-38823000D01*
X27867000Y-38823000D01*
X27867000Y-39077000D01*
X27847000Y-39077000D01*
X27847000Y-39097000D01*
X27593000Y-39097000D01*
X27593000Y-39077000D01*
X26750871Y-39077000D01*
X26625874Y-39251876D01*
X26705790Y-39459529D01*
X26824682Y-39647601D01*
X26952824Y-39782402D01*
X26939268Y-39802690D01*
X26872856Y-39963022D01*
X26839000Y-40133229D01*
X26839000Y-40306771D01*
X26872856Y-40476978D01*
X26939268Y-40637310D01*
X27035682Y-40781605D01*
X27089000Y-40834923D01*
X27089000Y-40896116D01*
X27085948Y-40927106D01*
X27089000Y-40958096D01*
X27089000Y-40958103D01*
X27098130Y-41050803D01*
X27134211Y-41169747D01*
X27192804Y-41279366D01*
X27271657Y-41375449D01*
X27295738Y-41395212D01*
X27406418Y-41505891D01*
X23270437Y-41494057D01*
X22940770Y-41461733D01*
X22643316Y-41371926D01*
X22368975Y-41226056D01*
X22128187Y-41029675D01*
X21930129Y-40790265D01*
X21782346Y-40516948D01*
X21690465Y-40220128D01*
X21656000Y-39892218D01*
X21656000Y-38685486D01*
X21665472Y-38697028D01*
X21814849Y-38819618D01*
X21985271Y-38910711D01*
X22170190Y-38966805D01*
X22314313Y-38981000D01*
X23110687Y-38981000D01*
X23254810Y-38966805D01*
X23439729Y-38910711D01*
X23610151Y-38819618D01*
X23759528Y-38697028D01*
X23799662Y-38648124D01*
X26625874Y-38648124D01*
X26750871Y-38823000D01*
X27593000Y-38823000D01*
X27593000Y-37982046D01*
X27418126Y-37855881D01*
X27363136Y-37872554D01*
X27159794Y-37962877D01*
X26977980Y-38091135D01*
X26824682Y-38252399D01*
X26705790Y-38440471D01*
X26625874Y-38648124D01*
X23799662Y-38648124D01*
X23882118Y-38547651D01*
X23973211Y-38377229D01*
X24029305Y-38192310D01*
X24048246Y-38000000D01*
X24029305Y-37807690D01*
X23973211Y-37622771D01*
X23882118Y-37452349D01*
X23759528Y-37302972D01*
X23610151Y-37180382D01*
X23439729Y-37089289D01*
X23254810Y-37033195D01*
X23110687Y-37019000D01*
X22314313Y-37019000D01*
X22170190Y-37033195D01*
X21985271Y-37089289D01*
X21814849Y-37180382D01*
X21665472Y-37302972D01*
X21656000Y-37314514D01*
X21656000Y-36891069D01*
X24306500Y-36891069D01*
X24306500Y-37108931D01*
X24349003Y-37322608D01*
X24432376Y-37523887D01*
X24553414Y-37705034D01*
X24707466Y-37859086D01*
X24888613Y-37980124D01*
X25089892Y-38063497D01*
X25303569Y-38106000D01*
X25521431Y-38106000D01*
X25735108Y-38063497D01*
X25936387Y-37980124D01*
X26117534Y-37859086D01*
X26271586Y-37705034D01*
X26392624Y-37523887D01*
X26475997Y-37322608D01*
X26518500Y-37108931D01*
X26518500Y-36891069D01*
X26475997Y-36677392D01*
X26392624Y-36476113D01*
X26271586Y-36294966D01*
X26117534Y-36140914D01*
X25936387Y-36019876D01*
X25735108Y-35936503D01*
X25521431Y-35894000D01*
X25303569Y-35894000D01*
X25089892Y-35936503D01*
X24888613Y-36019876D01*
X24707466Y-36140914D01*
X24553414Y-36294966D01*
X24432376Y-36476113D01*
X24349003Y-36677392D01*
X24306500Y-36891069D01*
X21656000Y-36891069D01*
X21656000Y-33482927D01*
X26369000Y-33482927D01*
X26369000Y-33617073D01*
X26395171Y-33748640D01*
X26422252Y-33814021D01*
X26428130Y-33873697D01*
X26464211Y-33992641D01*
X26522804Y-34102260D01*
X26601657Y-34198343D01*
X26625737Y-34218105D01*
X27909870Y-35502239D01*
X27997761Y-35590130D01*
X28023663Y-35607437D01*
X28047738Y-35627195D01*
X28075204Y-35641876D01*
X28101109Y-35659185D01*
X28129893Y-35671108D01*
X28157358Y-35685788D01*
X28187159Y-35694828D01*
X28215944Y-35706751D01*
X28246502Y-35712829D01*
X28276302Y-35721869D01*
X28307292Y-35724921D01*
X28337852Y-35731000D01*
X28369011Y-35731000D01*
X28399999Y-35734052D01*
X28430987Y-35731000D01*
X28462148Y-35731000D01*
X28492709Y-35724921D01*
X28523697Y-35721869D01*
X28553495Y-35712830D01*
X28584056Y-35706751D01*
X28612843Y-35694827D01*
X28642641Y-35685788D01*
X28670102Y-35671110D01*
X28698891Y-35659185D01*
X28724803Y-35641871D01*
X28752260Y-35627195D01*
X28776325Y-35607445D01*
X28802239Y-35590130D01*
X28824278Y-35568091D01*
X28848342Y-35548342D01*
X28868091Y-35524278D01*
X28890130Y-35502239D01*
X28907445Y-35476325D01*
X28927195Y-35452260D01*
X28941871Y-35424803D01*
X28959185Y-35398891D01*
X28971110Y-35370102D01*
X28985788Y-35342641D01*
X28994827Y-35312843D01*
X29006751Y-35284056D01*
X29012830Y-35253495D01*
X29021869Y-35223697D01*
X29024921Y-35192709D01*
X29031000Y-35162148D01*
X29031000Y-35130987D01*
X29034052Y-35099999D01*
X29031000Y-35069011D01*
X29031000Y-35037852D01*
X29024921Y-35007292D01*
X29021869Y-34976302D01*
X29012829Y-34946502D01*
X29006751Y-34915944D01*
X28994828Y-34887159D01*
X28985788Y-34857358D01*
X28971108Y-34829893D01*
X28959185Y-34801109D01*
X28941876Y-34775204D01*
X28927195Y-34747738D01*
X28907437Y-34723663D01*
X28890130Y-34697761D01*
X28802239Y-34609870D01*
X27731000Y-33538632D01*
X27731000Y-33482927D01*
X27704829Y-33351360D01*
X27672404Y-33273078D01*
X31919000Y-33273078D01*
X31919000Y-33426922D01*
X31949013Y-33577809D01*
X32007887Y-33719942D01*
X32093358Y-33847859D01*
X32202141Y-33956642D01*
X32330058Y-34042113D01*
X32472191Y-34100987D01*
X32623078Y-34131000D01*
X32776922Y-34131000D01*
X32927809Y-34100987D01*
X33069942Y-34042113D01*
X33137500Y-33996972D01*
X33205058Y-34042113D01*
X33347191Y-34100987D01*
X33498078Y-34131000D01*
X33651922Y-34131000D01*
X33802809Y-34100987D01*
X33944942Y-34042113D01*
X34012500Y-33996972D01*
X34080058Y-34042113D01*
X34222191Y-34100987D01*
X34373078Y-34131000D01*
X34526922Y-34131000D01*
X34677809Y-34100987D01*
X34819942Y-34042113D01*
X34947859Y-33956642D01*
X35056642Y-33847859D01*
X35142113Y-33719942D01*
X35200987Y-33577809D01*
X35231000Y-33426922D01*
X35231000Y-33273078D01*
X35200987Y-33122191D01*
X35142113Y-32980058D01*
X35096972Y-32912500D01*
X35142113Y-32844942D01*
X35200987Y-32702809D01*
X35231000Y-32551922D01*
X35231000Y-32398078D01*
X35200987Y-32247191D01*
X35142113Y-32105058D01*
X35056642Y-31977141D01*
X34947859Y-31868358D01*
X34819942Y-31782887D01*
X34677809Y-31724013D01*
X34526922Y-31694000D01*
X34373078Y-31694000D01*
X34222191Y-31724013D01*
X34080058Y-31782887D01*
X33952141Y-31868358D01*
X33843358Y-31977141D01*
X33757887Y-32105058D01*
X33699013Y-32247191D01*
X33669000Y-32398078D01*
X33669000Y-32551922D01*
X33673240Y-32573240D01*
X33651922Y-32569000D01*
X33498078Y-32569000D01*
X33347191Y-32599013D01*
X33205058Y-32657887D01*
X33137500Y-32703028D01*
X33069942Y-32657887D01*
X32927809Y-32599013D01*
X32776922Y-32569000D01*
X32623078Y-32569000D01*
X32472191Y-32599013D01*
X32330058Y-32657887D01*
X32202141Y-32743358D01*
X32093358Y-32852141D01*
X32007887Y-32980058D01*
X31949013Y-33122191D01*
X31919000Y-33273078D01*
X27672404Y-33273078D01*
X27653494Y-33227426D01*
X27578967Y-33115888D01*
X27484112Y-33021033D01*
X27372574Y-32946506D01*
X27248640Y-32895171D01*
X27117073Y-32869000D01*
X26982927Y-32869000D01*
X26851360Y-32895171D01*
X26727426Y-32946506D01*
X26615888Y-33021033D01*
X26521033Y-33115888D01*
X26446506Y-33227426D01*
X26395171Y-33351360D01*
X26369000Y-33482927D01*
X21656000Y-33482927D01*
X21656000Y-31685486D01*
X21665472Y-31697028D01*
X21814849Y-31819618D01*
X21985271Y-31910711D01*
X22170190Y-31966805D01*
X22314313Y-31981000D01*
X23110687Y-31981000D01*
X23254810Y-31966805D01*
X23439729Y-31910711D01*
X23476476Y-31891069D01*
X24306500Y-31891069D01*
X24306500Y-32108931D01*
X24349003Y-32322608D01*
X24432376Y-32523887D01*
X24553414Y-32705034D01*
X24707466Y-32859086D01*
X24888613Y-32980124D01*
X25089892Y-33063497D01*
X25303569Y-33106000D01*
X25521431Y-33106000D01*
X25735108Y-33063497D01*
X25936387Y-32980124D01*
X26117534Y-32859086D01*
X26271586Y-32705034D01*
X26392624Y-32523887D01*
X26475997Y-32322608D01*
X26518500Y-32108931D01*
X26518500Y-31891069D01*
X26475997Y-31677392D01*
X26392624Y-31476113D01*
X26271586Y-31294966D01*
X26117534Y-31140914D01*
X25955920Y-31032927D01*
X36519000Y-31032927D01*
X36519000Y-31167073D01*
X36545171Y-31298640D01*
X36596506Y-31422574D01*
X36671033Y-31534112D01*
X36765888Y-31628967D01*
X36877426Y-31703494D01*
X37001360Y-31754829D01*
X37132927Y-31781000D01*
X37267073Y-31781000D01*
X37398640Y-31754829D01*
X37522574Y-31703494D01*
X37634112Y-31628967D01*
X37728967Y-31534112D01*
X37803494Y-31422574D01*
X37854829Y-31298640D01*
X37881000Y-31167073D01*
X37881000Y-31032927D01*
X37854829Y-30901360D01*
X37803494Y-30777426D01*
X37728967Y-30665888D01*
X37634112Y-30571033D01*
X37522574Y-30496506D01*
X37398640Y-30445171D01*
X37267073Y-30419000D01*
X37132927Y-30419000D01*
X37001360Y-30445171D01*
X36877426Y-30496506D01*
X36765888Y-30571033D01*
X36671033Y-30665888D01*
X36596506Y-30777426D01*
X36545171Y-30901360D01*
X36519000Y-31032927D01*
X25955920Y-31032927D01*
X25936387Y-31019876D01*
X25735108Y-30936503D01*
X25521431Y-30894000D01*
X25303569Y-30894000D01*
X25089892Y-30936503D01*
X24888613Y-31019876D01*
X24707466Y-31140914D01*
X24553414Y-31294966D01*
X24432376Y-31476113D01*
X24349003Y-31677392D01*
X24306500Y-31891069D01*
X23476476Y-31891069D01*
X23610151Y-31819618D01*
X23759528Y-31697028D01*
X23882118Y-31547651D01*
X23973211Y-31377229D01*
X24029305Y-31192310D01*
X24048246Y-31000000D01*
X24029305Y-30807690D01*
X23973211Y-30622771D01*
X23882118Y-30452349D01*
X23759528Y-30302972D01*
X23610151Y-30180382D01*
X23439729Y-30089289D01*
X23254810Y-30033195D01*
X23110687Y-30019000D01*
X22314313Y-30019000D01*
X22170190Y-30033195D01*
X21985271Y-30089289D01*
X21814849Y-30180382D01*
X21665472Y-30302972D01*
X21656000Y-30314514D01*
X21656000Y-29019854D01*
X21688267Y-28690771D01*
X21778075Y-28393312D01*
X21802126Y-28348078D01*
X43969000Y-28348078D01*
X43969000Y-28501922D01*
X43999013Y-28652809D01*
X44057887Y-28794942D01*
X44143358Y-28922859D01*
X44252141Y-29031642D01*
X44380058Y-29117113D01*
X44522191Y-29175987D01*
X44673078Y-29206000D01*
X44826922Y-29206000D01*
X44977809Y-29175987D01*
X45119942Y-29117113D01*
X45247859Y-29031642D01*
X45331423Y-28948078D01*
X46794000Y-28948078D01*
X46794000Y-29101922D01*
X46824013Y-29252809D01*
X46882887Y-29394942D01*
X46968358Y-29522859D01*
X47077141Y-29631642D01*
X47205058Y-29717113D01*
X47347191Y-29775987D01*
X47498078Y-29806000D01*
X47651922Y-29806000D01*
X47802809Y-29775987D01*
X47944942Y-29717113D01*
X48072859Y-29631642D01*
X48181642Y-29522859D01*
X48267113Y-29394942D01*
X48325987Y-29252809D01*
X48356000Y-29101922D01*
X48356000Y-28948078D01*
X48325987Y-28797191D01*
X48267113Y-28655058D01*
X48181642Y-28527141D01*
X48072859Y-28418358D01*
X47944942Y-28332887D01*
X47802809Y-28274013D01*
X47651922Y-28244000D01*
X47498078Y-28244000D01*
X47347191Y-28274013D01*
X47205058Y-28332887D01*
X47077141Y-28418358D01*
X46968358Y-28527141D01*
X46882887Y-28655058D01*
X46824013Y-28797191D01*
X46794000Y-28948078D01*
X45331423Y-28948078D01*
X45356642Y-28922859D01*
X45442113Y-28794942D01*
X45500987Y-28652809D01*
X45531000Y-28501922D01*
X45531000Y-28348078D01*
X45500987Y-28197191D01*
X45442113Y-28055058D01*
X45356642Y-27927141D01*
X45247859Y-27818358D01*
X45119942Y-27732887D01*
X44977809Y-27674013D01*
X44826922Y-27644000D01*
X44673078Y-27644000D01*
X44522191Y-27674013D01*
X44380058Y-27732887D01*
X44252141Y-27818358D01*
X44143358Y-27927141D01*
X44057887Y-28055058D01*
X43999013Y-28197191D01*
X43969000Y-28348078D01*
X21802126Y-28348078D01*
X21923945Y-28118972D01*
X22120325Y-27878187D01*
X22359736Y-27680127D01*
X22633053Y-27532346D01*
X22929872Y-27440465D01*
X23257782Y-27406000D01*
X49123000Y-27406000D01*
X49123000Y-31164210D01*
G37*
X49123000Y-31164210D02*
X49115985Y-31157195D01*
X48996258Y-31077196D01*
X48863225Y-31022092D01*
X48721997Y-30994000D01*
X48578003Y-30994000D01*
X48436775Y-31022092D01*
X48303742Y-31077196D01*
X48184015Y-31157195D01*
X48082195Y-31259015D01*
X48002196Y-31378742D01*
X47947092Y-31511775D01*
X47919000Y-31653003D01*
X47919000Y-31796997D01*
X47947092Y-31938225D01*
X48002196Y-32071258D01*
X48082195Y-32190985D01*
X48184015Y-32292805D01*
X48303742Y-32372804D01*
X48436775Y-32427908D01*
X48578003Y-32456000D01*
X48721997Y-32456000D01*
X48863225Y-32427908D01*
X48996258Y-32372804D01*
X49115985Y-32292805D01*
X49123000Y-32285790D01*
X49123000Y-32848000D01*
X46850000Y-32848000D01*
X46825224Y-32850440D01*
X46801399Y-32857667D01*
X46779443Y-32869403D01*
X46760197Y-32885197D01*
X46744403Y-32904443D01*
X46732667Y-32926399D01*
X46725440Y-32950224D01*
X46723000Y-32975000D01*
X46723000Y-35348000D01*
X45900000Y-35348000D01*
X45875224Y-35350440D01*
X45851399Y-35357667D01*
X45829443Y-35369403D01*
X45810197Y-35385197D01*
X45794403Y-35404443D01*
X45782667Y-35426399D01*
X45775440Y-35450224D01*
X45773000Y-35475000D01*
X45773000Y-37673000D01*
X43696835Y-37673000D01*
X43706000Y-37626922D01*
X43706000Y-37473078D01*
X43675987Y-37322191D01*
X43617113Y-37180058D01*
X43531642Y-37052141D01*
X43422859Y-36943358D01*
X43294942Y-36857887D01*
X43152809Y-36799013D01*
X43001922Y-36769000D01*
X42848078Y-36769000D01*
X42697191Y-36799013D01*
X42555058Y-36857887D01*
X42427141Y-36943358D01*
X42318358Y-37052141D01*
X42232887Y-37180058D01*
X42174013Y-37322191D01*
X42144000Y-37473078D01*
X42144000Y-37626922D01*
X42174013Y-37777809D01*
X42198000Y-37835718D01*
X42198000Y-41548214D01*
X38778937Y-41538431D01*
X40374263Y-39943105D01*
X40398343Y-39923343D01*
X40477196Y-39827261D01*
X40535789Y-39717642D01*
X40571870Y-39598698D01*
X40581000Y-39505998D01*
X40581000Y-39505989D01*
X40584052Y-39475001D01*
X40581000Y-39444013D01*
X40581000Y-35804612D01*
X41464420Y-35804612D01*
X41464420Y-35938758D01*
X41490591Y-36070325D01*
X41541926Y-36194259D01*
X41616453Y-36305797D01*
X41711308Y-36400652D01*
X41822846Y-36475179D01*
X41946780Y-36526514D01*
X42078347Y-36552685D01*
X42212493Y-36552685D01*
X42344060Y-36526514D01*
X42467994Y-36475179D01*
X42579532Y-36400652D01*
X42674387Y-36305797D01*
X42748914Y-36194259D01*
X42800249Y-36070325D01*
X42826420Y-35938758D01*
X42826420Y-35936944D01*
X43054798Y-35708566D01*
X43074935Y-35692040D01*
X43128152Y-35627195D01*
X43140877Y-35611690D01*
X43189876Y-35520019D01*
X43210430Y-35452260D01*
X43220050Y-35420549D01*
X43227685Y-35343027D01*
X43227685Y-35343025D01*
X43230238Y-35317105D01*
X43227685Y-35291185D01*
X43227685Y-34808997D01*
X43248640Y-34804829D01*
X43372574Y-34753494D01*
X43484112Y-34678967D01*
X43578967Y-34584112D01*
X43653494Y-34472574D01*
X43704829Y-34348640D01*
X43731000Y-34217073D01*
X43731000Y-34082927D01*
X43704829Y-33951360D01*
X43653494Y-33827426D01*
X43578967Y-33715888D01*
X43484112Y-33621033D01*
X43372574Y-33546506D01*
X43248640Y-33495171D01*
X43117073Y-33469000D01*
X42982927Y-33469000D01*
X42851360Y-33495171D01*
X42727426Y-33546506D01*
X42615888Y-33621033D01*
X42521033Y-33715888D01*
X42446506Y-33827426D01*
X42395171Y-33951360D01*
X42369000Y-34082927D01*
X42369000Y-34084741D01*
X42345197Y-34108544D01*
X42325066Y-34125065D01*
X42308545Y-34145196D01*
X42308541Y-34145200D01*
X42259124Y-34205416D01*
X42210125Y-34297087D01*
X42179951Y-34396556D01*
X42169762Y-34500000D01*
X42172315Y-34525919D01*
X42172315Y-35098531D01*
X42080161Y-35190685D01*
X42078347Y-35190685D01*
X41946780Y-35216856D01*
X41822846Y-35268191D01*
X41711308Y-35342718D01*
X41616453Y-35437573D01*
X41541926Y-35549111D01*
X41490591Y-35673045D01*
X41464420Y-35804612D01*
X40581000Y-35804612D01*
X40581000Y-31951781D01*
X40607195Y-31990985D01*
X40709015Y-32092805D01*
X40828742Y-32172804D01*
X40961775Y-32227908D01*
X41103003Y-32256000D01*
X41246997Y-32256000D01*
X41388225Y-32227908D01*
X41521258Y-32172804D01*
X41640985Y-32092805D01*
X41742805Y-31990985D01*
X41822804Y-31871258D01*
X41877908Y-31738225D01*
X41906000Y-31596997D01*
X41906000Y-31453003D01*
X41877908Y-31311775D01*
X41822804Y-31178742D01*
X41742805Y-31059015D01*
X41640985Y-30957195D01*
X41521258Y-30877196D01*
X41388225Y-30822092D01*
X41246997Y-30794000D01*
X41103003Y-30794000D01*
X40961775Y-30822092D01*
X40828742Y-30877196D01*
X40709015Y-30957195D01*
X40607195Y-31059015D01*
X40544515Y-31152823D01*
X40535789Y-31124058D01*
X40477196Y-31014439D01*
X40418103Y-30942434D01*
X40418101Y-30942432D01*
X40398343Y-30918357D01*
X40374269Y-30898600D01*
X39493598Y-30017930D01*
X39469769Y-29960401D01*
X39395242Y-29848863D01*
X39300387Y-29754008D01*
X39188849Y-29679481D01*
X39064915Y-29628146D01*
X38933348Y-29601975D01*
X38799202Y-29601975D01*
X38667635Y-29628146D01*
X38543701Y-29679481D01*
X38432163Y-29754008D01*
X38337308Y-29848863D01*
X38262781Y-29960401D01*
X38211446Y-30084335D01*
X38185275Y-30215902D01*
X38185275Y-30350048D01*
X38211446Y-30481615D01*
X38262781Y-30605549D01*
X38337308Y-30717087D01*
X38432163Y-30811942D01*
X38543701Y-30886469D01*
X38601230Y-30910298D01*
X39319000Y-31628069D01*
X39319001Y-39213631D01*
X37963632Y-40569000D01*
X33609027Y-40569000D01*
X33647144Y-40476978D01*
X33681000Y-40306771D01*
X33681000Y-40133229D01*
X33647144Y-39963022D01*
X33580732Y-39802690D01*
X33541806Y-39744432D01*
X33570711Y-39720711D01*
X33618322Y-39662696D01*
X33653701Y-39596508D01*
X33675487Y-39524689D01*
X33682843Y-39450000D01*
X33682843Y-38632927D01*
X36569000Y-38632927D01*
X36569000Y-38767073D01*
X36595171Y-38898640D01*
X36646506Y-39022574D01*
X36721033Y-39134112D01*
X36815888Y-39228967D01*
X36927426Y-39303494D01*
X37051360Y-39354829D01*
X37182927Y-39381000D01*
X37317073Y-39381000D01*
X37448640Y-39354829D01*
X37572574Y-39303494D01*
X37684112Y-39228967D01*
X37778967Y-39134112D01*
X37853494Y-39022574D01*
X37904829Y-38898640D01*
X37931000Y-38767073D01*
X37931000Y-38632927D01*
X37904829Y-38501360D01*
X37853494Y-38377426D01*
X37778967Y-38265888D01*
X37684112Y-38171033D01*
X37572574Y-38096506D01*
X37448640Y-38045171D01*
X37317073Y-38019000D01*
X37182927Y-38019000D01*
X37051360Y-38045171D01*
X36927426Y-38096506D01*
X36815888Y-38171033D01*
X36721033Y-38265888D01*
X36646506Y-38377426D01*
X36595171Y-38501360D01*
X36569000Y-38632927D01*
X33682843Y-38632927D01*
X33682843Y-38450000D01*
X33675487Y-38375311D01*
X33653701Y-38303492D01*
X33618322Y-38237304D01*
X33570711Y-38179289D01*
X33512696Y-38131678D01*
X33446508Y-38096299D01*
X33374689Y-38074513D01*
X33300000Y-38067157D01*
X32300000Y-38067157D01*
X32245622Y-38072513D01*
X32090206Y-37962877D01*
X31886864Y-37872554D01*
X31831874Y-37855881D01*
X31657000Y-37982046D01*
X31657000Y-38823000D01*
X31677000Y-38823000D01*
X31677000Y-39077000D01*
X31657000Y-39077000D01*
X31657000Y-39097000D01*
X31403000Y-39097000D01*
X31403000Y-39077000D01*
X30387000Y-39077000D01*
X30387000Y-39097000D01*
X30133000Y-39097000D01*
X30133000Y-39077000D01*
X30113000Y-39077000D01*
X30113000Y-38823000D01*
X30133000Y-38823000D01*
X30133000Y-37982046D01*
X30387000Y-37982046D01*
X30387000Y-38823000D01*
X31403000Y-38823000D01*
X31403000Y-37982046D01*
X31228126Y-37855881D01*
X31173136Y-37872554D01*
X30969794Y-37962877D01*
X30895000Y-38015639D01*
X30820206Y-37962877D01*
X30616864Y-37872554D01*
X30561874Y-37855881D01*
X30387000Y-37982046D01*
X30133000Y-37982046D01*
X29958126Y-37855881D01*
X29903136Y-37872554D01*
X29699794Y-37962877D01*
X29517980Y-38091135D01*
X29429569Y-38184141D01*
X29407310Y-38169268D01*
X29246978Y-38102856D01*
X29076771Y-38069000D01*
X28903229Y-38069000D01*
X28733022Y-38102856D01*
X28572690Y-38169268D01*
X28550431Y-38184141D01*
X28462020Y-38091135D01*
X28280206Y-37962877D01*
X28076864Y-37872554D01*
X28021874Y-37855881D01*
X27847000Y-37982046D01*
X27847000Y-38823000D01*
X27867000Y-38823000D01*
X27867000Y-39077000D01*
X27847000Y-39077000D01*
X27847000Y-39097000D01*
X27593000Y-39097000D01*
X27593000Y-39077000D01*
X26750871Y-39077000D01*
X26625874Y-39251876D01*
X26705790Y-39459529D01*
X26824682Y-39647601D01*
X26952824Y-39782402D01*
X26939268Y-39802690D01*
X26872856Y-39963022D01*
X26839000Y-40133229D01*
X26839000Y-40306771D01*
X26872856Y-40476978D01*
X26939268Y-40637310D01*
X27035682Y-40781605D01*
X27089000Y-40834923D01*
X27089000Y-40896116D01*
X27085948Y-40927106D01*
X27089000Y-40958096D01*
X27089000Y-40958103D01*
X27098130Y-41050803D01*
X27134211Y-41169747D01*
X27192804Y-41279366D01*
X27271657Y-41375449D01*
X27295738Y-41395212D01*
X27406418Y-41505891D01*
X23270437Y-41494057D01*
X22940770Y-41461733D01*
X22643316Y-41371926D01*
X22368975Y-41226056D01*
X22128187Y-41029675D01*
X21930129Y-40790265D01*
X21782346Y-40516948D01*
X21690465Y-40220128D01*
X21656000Y-39892218D01*
X21656000Y-38685486D01*
X21665472Y-38697028D01*
X21814849Y-38819618D01*
X21985271Y-38910711D01*
X22170190Y-38966805D01*
X22314313Y-38981000D01*
X23110687Y-38981000D01*
X23254810Y-38966805D01*
X23439729Y-38910711D01*
X23610151Y-38819618D01*
X23759528Y-38697028D01*
X23799662Y-38648124D01*
X26625874Y-38648124D01*
X26750871Y-38823000D01*
X27593000Y-38823000D01*
X27593000Y-37982046D01*
X27418126Y-37855881D01*
X27363136Y-37872554D01*
X27159794Y-37962877D01*
X26977980Y-38091135D01*
X26824682Y-38252399D01*
X26705790Y-38440471D01*
X26625874Y-38648124D01*
X23799662Y-38648124D01*
X23882118Y-38547651D01*
X23973211Y-38377229D01*
X24029305Y-38192310D01*
X24048246Y-38000000D01*
X24029305Y-37807690D01*
X23973211Y-37622771D01*
X23882118Y-37452349D01*
X23759528Y-37302972D01*
X23610151Y-37180382D01*
X23439729Y-37089289D01*
X23254810Y-37033195D01*
X23110687Y-37019000D01*
X22314313Y-37019000D01*
X22170190Y-37033195D01*
X21985271Y-37089289D01*
X21814849Y-37180382D01*
X21665472Y-37302972D01*
X21656000Y-37314514D01*
X21656000Y-36891069D01*
X24306500Y-36891069D01*
X24306500Y-37108931D01*
X24349003Y-37322608D01*
X24432376Y-37523887D01*
X24553414Y-37705034D01*
X24707466Y-37859086D01*
X24888613Y-37980124D01*
X25089892Y-38063497D01*
X25303569Y-38106000D01*
X25521431Y-38106000D01*
X25735108Y-38063497D01*
X25936387Y-37980124D01*
X26117534Y-37859086D01*
X26271586Y-37705034D01*
X26392624Y-37523887D01*
X26475997Y-37322608D01*
X26518500Y-37108931D01*
X26518500Y-36891069D01*
X26475997Y-36677392D01*
X26392624Y-36476113D01*
X26271586Y-36294966D01*
X26117534Y-36140914D01*
X25936387Y-36019876D01*
X25735108Y-35936503D01*
X25521431Y-35894000D01*
X25303569Y-35894000D01*
X25089892Y-35936503D01*
X24888613Y-36019876D01*
X24707466Y-36140914D01*
X24553414Y-36294966D01*
X24432376Y-36476113D01*
X24349003Y-36677392D01*
X24306500Y-36891069D01*
X21656000Y-36891069D01*
X21656000Y-33482927D01*
X26369000Y-33482927D01*
X26369000Y-33617073D01*
X26395171Y-33748640D01*
X26422252Y-33814021D01*
X26428130Y-33873697D01*
X26464211Y-33992641D01*
X26522804Y-34102260D01*
X26601657Y-34198343D01*
X26625737Y-34218105D01*
X27909870Y-35502239D01*
X27997761Y-35590130D01*
X28023663Y-35607437D01*
X28047738Y-35627195D01*
X28075204Y-35641876D01*
X28101109Y-35659185D01*
X28129893Y-35671108D01*
X28157358Y-35685788D01*
X28187159Y-35694828D01*
X28215944Y-35706751D01*
X28246502Y-35712829D01*
X28276302Y-35721869D01*
X28307292Y-35724921D01*
X28337852Y-35731000D01*
X28369011Y-35731000D01*
X28399999Y-35734052D01*
X28430987Y-35731000D01*
X28462148Y-35731000D01*
X28492709Y-35724921D01*
X28523697Y-35721869D01*
X28553495Y-35712830D01*
X28584056Y-35706751D01*
X28612843Y-35694827D01*
X28642641Y-35685788D01*
X28670102Y-35671110D01*
X28698891Y-35659185D01*
X28724803Y-35641871D01*
X28752260Y-35627195D01*
X28776325Y-35607445D01*
X28802239Y-35590130D01*
X28824278Y-35568091D01*
X28848342Y-35548342D01*
X28868091Y-35524278D01*
X28890130Y-35502239D01*
X28907445Y-35476325D01*
X28927195Y-35452260D01*
X28941871Y-35424803D01*
X28959185Y-35398891D01*
X28971110Y-35370102D01*
X28985788Y-35342641D01*
X28994827Y-35312843D01*
X29006751Y-35284056D01*
X29012830Y-35253495D01*
X29021869Y-35223697D01*
X29024921Y-35192709D01*
X29031000Y-35162148D01*
X29031000Y-35130987D01*
X29034052Y-35099999D01*
X29031000Y-35069011D01*
X29031000Y-35037852D01*
X29024921Y-35007292D01*
X29021869Y-34976302D01*
X29012829Y-34946502D01*
X29006751Y-34915944D01*
X28994828Y-34887159D01*
X28985788Y-34857358D01*
X28971108Y-34829893D01*
X28959185Y-34801109D01*
X28941876Y-34775204D01*
X28927195Y-34747738D01*
X28907437Y-34723663D01*
X28890130Y-34697761D01*
X28802239Y-34609870D01*
X27731000Y-33538632D01*
X27731000Y-33482927D01*
X27704829Y-33351360D01*
X27672404Y-33273078D01*
X31919000Y-33273078D01*
X31919000Y-33426922D01*
X31949013Y-33577809D01*
X32007887Y-33719942D01*
X32093358Y-33847859D01*
X32202141Y-33956642D01*
X32330058Y-34042113D01*
X32472191Y-34100987D01*
X32623078Y-34131000D01*
X32776922Y-34131000D01*
X32927809Y-34100987D01*
X33069942Y-34042113D01*
X33137500Y-33996972D01*
X33205058Y-34042113D01*
X33347191Y-34100987D01*
X33498078Y-34131000D01*
X33651922Y-34131000D01*
X33802809Y-34100987D01*
X33944942Y-34042113D01*
X34012500Y-33996972D01*
X34080058Y-34042113D01*
X34222191Y-34100987D01*
X34373078Y-34131000D01*
X34526922Y-34131000D01*
X34677809Y-34100987D01*
X34819942Y-34042113D01*
X34947859Y-33956642D01*
X35056642Y-33847859D01*
X35142113Y-33719942D01*
X35200987Y-33577809D01*
X35231000Y-33426922D01*
X35231000Y-33273078D01*
X35200987Y-33122191D01*
X35142113Y-32980058D01*
X35096972Y-32912500D01*
X35142113Y-32844942D01*
X35200987Y-32702809D01*
X35231000Y-32551922D01*
X35231000Y-32398078D01*
X35200987Y-32247191D01*
X35142113Y-32105058D01*
X35056642Y-31977141D01*
X34947859Y-31868358D01*
X34819942Y-31782887D01*
X34677809Y-31724013D01*
X34526922Y-31694000D01*
X34373078Y-31694000D01*
X34222191Y-31724013D01*
X34080058Y-31782887D01*
X33952141Y-31868358D01*
X33843358Y-31977141D01*
X33757887Y-32105058D01*
X33699013Y-32247191D01*
X33669000Y-32398078D01*
X33669000Y-32551922D01*
X33673240Y-32573240D01*
X33651922Y-32569000D01*
X33498078Y-32569000D01*
X33347191Y-32599013D01*
X33205058Y-32657887D01*
X33137500Y-32703028D01*
X33069942Y-32657887D01*
X32927809Y-32599013D01*
X32776922Y-32569000D01*
X32623078Y-32569000D01*
X32472191Y-32599013D01*
X32330058Y-32657887D01*
X32202141Y-32743358D01*
X32093358Y-32852141D01*
X32007887Y-32980058D01*
X31949013Y-33122191D01*
X31919000Y-33273078D01*
X27672404Y-33273078D01*
X27653494Y-33227426D01*
X27578967Y-33115888D01*
X27484112Y-33021033D01*
X27372574Y-32946506D01*
X27248640Y-32895171D01*
X27117073Y-32869000D01*
X26982927Y-32869000D01*
X26851360Y-32895171D01*
X26727426Y-32946506D01*
X26615888Y-33021033D01*
X26521033Y-33115888D01*
X26446506Y-33227426D01*
X26395171Y-33351360D01*
X26369000Y-33482927D01*
X21656000Y-33482927D01*
X21656000Y-31685486D01*
X21665472Y-31697028D01*
X21814849Y-31819618D01*
X21985271Y-31910711D01*
X22170190Y-31966805D01*
X22314313Y-31981000D01*
X23110687Y-31981000D01*
X23254810Y-31966805D01*
X23439729Y-31910711D01*
X23476476Y-31891069D01*
X24306500Y-31891069D01*
X24306500Y-32108931D01*
X24349003Y-32322608D01*
X24432376Y-32523887D01*
X24553414Y-32705034D01*
X24707466Y-32859086D01*
X24888613Y-32980124D01*
X25089892Y-33063497D01*
X25303569Y-33106000D01*
X25521431Y-33106000D01*
X25735108Y-33063497D01*
X25936387Y-32980124D01*
X26117534Y-32859086D01*
X26271586Y-32705034D01*
X26392624Y-32523887D01*
X26475997Y-32322608D01*
X26518500Y-32108931D01*
X26518500Y-31891069D01*
X26475997Y-31677392D01*
X26392624Y-31476113D01*
X26271586Y-31294966D01*
X26117534Y-31140914D01*
X25955920Y-31032927D01*
X36519000Y-31032927D01*
X36519000Y-31167073D01*
X36545171Y-31298640D01*
X36596506Y-31422574D01*
X36671033Y-31534112D01*
X36765888Y-31628967D01*
X36877426Y-31703494D01*
X37001360Y-31754829D01*
X37132927Y-31781000D01*
X37267073Y-31781000D01*
X37398640Y-31754829D01*
X37522574Y-31703494D01*
X37634112Y-31628967D01*
X37728967Y-31534112D01*
X37803494Y-31422574D01*
X37854829Y-31298640D01*
X37881000Y-31167073D01*
X37881000Y-31032927D01*
X37854829Y-30901360D01*
X37803494Y-30777426D01*
X37728967Y-30665888D01*
X37634112Y-30571033D01*
X37522574Y-30496506D01*
X37398640Y-30445171D01*
X37267073Y-30419000D01*
X37132927Y-30419000D01*
X37001360Y-30445171D01*
X36877426Y-30496506D01*
X36765888Y-30571033D01*
X36671033Y-30665888D01*
X36596506Y-30777426D01*
X36545171Y-30901360D01*
X36519000Y-31032927D01*
X25955920Y-31032927D01*
X25936387Y-31019876D01*
X25735108Y-30936503D01*
X25521431Y-30894000D01*
X25303569Y-30894000D01*
X25089892Y-30936503D01*
X24888613Y-31019876D01*
X24707466Y-31140914D01*
X24553414Y-31294966D01*
X24432376Y-31476113D01*
X24349003Y-31677392D01*
X24306500Y-31891069D01*
X23476476Y-31891069D01*
X23610151Y-31819618D01*
X23759528Y-31697028D01*
X23882118Y-31547651D01*
X23973211Y-31377229D01*
X24029305Y-31192310D01*
X24048246Y-31000000D01*
X24029305Y-30807690D01*
X23973211Y-30622771D01*
X23882118Y-30452349D01*
X23759528Y-30302972D01*
X23610151Y-30180382D01*
X23439729Y-30089289D01*
X23254810Y-30033195D01*
X23110687Y-30019000D01*
X22314313Y-30019000D01*
X22170190Y-30033195D01*
X21985271Y-30089289D01*
X21814849Y-30180382D01*
X21665472Y-30302972D01*
X21656000Y-30314514D01*
X21656000Y-29019854D01*
X21688267Y-28690771D01*
X21778075Y-28393312D01*
X21802126Y-28348078D01*
X43969000Y-28348078D01*
X43969000Y-28501922D01*
X43999013Y-28652809D01*
X44057887Y-28794942D01*
X44143358Y-28922859D01*
X44252141Y-29031642D01*
X44380058Y-29117113D01*
X44522191Y-29175987D01*
X44673078Y-29206000D01*
X44826922Y-29206000D01*
X44977809Y-29175987D01*
X45119942Y-29117113D01*
X45247859Y-29031642D01*
X45331423Y-28948078D01*
X46794000Y-28948078D01*
X46794000Y-29101922D01*
X46824013Y-29252809D01*
X46882887Y-29394942D01*
X46968358Y-29522859D01*
X47077141Y-29631642D01*
X47205058Y-29717113D01*
X47347191Y-29775987D01*
X47498078Y-29806000D01*
X47651922Y-29806000D01*
X47802809Y-29775987D01*
X47944942Y-29717113D01*
X48072859Y-29631642D01*
X48181642Y-29522859D01*
X48267113Y-29394942D01*
X48325987Y-29252809D01*
X48356000Y-29101922D01*
X48356000Y-28948078D01*
X48325987Y-28797191D01*
X48267113Y-28655058D01*
X48181642Y-28527141D01*
X48072859Y-28418358D01*
X47944942Y-28332887D01*
X47802809Y-28274013D01*
X47651922Y-28244000D01*
X47498078Y-28244000D01*
X47347191Y-28274013D01*
X47205058Y-28332887D01*
X47077141Y-28418358D01*
X46968358Y-28527141D01*
X46882887Y-28655058D01*
X46824013Y-28797191D01*
X46794000Y-28948078D01*
X45331423Y-28948078D01*
X45356642Y-28922859D01*
X45442113Y-28794942D01*
X45500987Y-28652809D01*
X45531000Y-28501922D01*
X45531000Y-28348078D01*
X45500987Y-28197191D01*
X45442113Y-28055058D01*
X45356642Y-27927141D01*
X45247859Y-27818358D01*
X45119942Y-27732887D01*
X44977809Y-27674013D01*
X44826922Y-27644000D01*
X44673078Y-27644000D01*
X44522191Y-27674013D01*
X44380058Y-27732887D01*
X44252141Y-27818358D01*
X44143358Y-27927141D01*
X44057887Y-28055058D01*
X43999013Y-28197191D01*
X43969000Y-28348078D01*
X21802126Y-28348078D01*
X21923945Y-28118972D01*
X22120325Y-27878187D01*
X22359736Y-27680127D01*
X22633053Y-27532346D01*
X22929872Y-27440465D01*
X23257782Y-27406000D01*
X49123000Y-27406000D01*
X49123000Y-31164210D01*
M02*
