G04 #@! TF.GenerationSoftware,KiCad,Pcbnew,(5.1.5)-3*
G04 #@! TF.CreationDate,2020-05-13T19:19:56+02:00*
G04 #@! TF.ProjectId,STRF,53545246-2e6b-4696-9361-645f70636258,rev?*
G04 #@! TF.SameCoordinates,Original*
G04 #@! TF.FileFunction,Soldermask,Bot*
G04 #@! TF.FilePolarity,Negative*
%FSLAX46Y46*%
G04 Gerber Fmt 4.6, Leading zero omitted, Abs format (unit mm)*
G04 Created by KiCad (PCBNEW (5.1.5)-3) date 2020-05-13 19:19:56*
%MOMM*%
%LPD*%
G04 APERTURE LIST*
%ADD10C,0.100000*%
G04 APERTURE END LIST*
D10*
G36*
X27880721Y-38420174D02*
G01*
X27980995Y-38461709D01*
X28025812Y-38491655D01*
X28071242Y-38522010D01*
X28147990Y-38598758D01*
X28163665Y-38622218D01*
X28208291Y-38689005D01*
X28239516Y-38764389D01*
X28251067Y-38786000D01*
X28266612Y-38804941D01*
X28285554Y-38820487D01*
X28307165Y-38832038D01*
X28330614Y-38839151D01*
X28355000Y-38841553D01*
X28379386Y-38839151D01*
X28402835Y-38832038D01*
X28424446Y-38820487D01*
X28443387Y-38804942D01*
X28458933Y-38786000D01*
X28470484Y-38764389D01*
X28501709Y-38689005D01*
X28546335Y-38622218D01*
X28562010Y-38598758D01*
X28638758Y-38522010D01*
X28684188Y-38491655D01*
X28729005Y-38461709D01*
X28829279Y-38420174D01*
X28935730Y-38399000D01*
X29044270Y-38399000D01*
X29150721Y-38420174D01*
X29250995Y-38461709D01*
X29295812Y-38491655D01*
X29341242Y-38522010D01*
X29417990Y-38598758D01*
X29433665Y-38622218D01*
X29478291Y-38689005D01*
X29509516Y-38764389D01*
X29521067Y-38786000D01*
X29536612Y-38804941D01*
X29555554Y-38820487D01*
X29577165Y-38832038D01*
X29600614Y-38839151D01*
X29625000Y-38841553D01*
X29649386Y-38839151D01*
X29672835Y-38832038D01*
X29694446Y-38820487D01*
X29713387Y-38804942D01*
X29728933Y-38786000D01*
X29740484Y-38764389D01*
X29771709Y-38689005D01*
X29816335Y-38622218D01*
X29832010Y-38598758D01*
X29908758Y-38522010D01*
X29954188Y-38491655D01*
X29999005Y-38461709D01*
X30099279Y-38420174D01*
X30205730Y-38399000D01*
X30314270Y-38399000D01*
X30420721Y-38420174D01*
X30520995Y-38461709D01*
X30565812Y-38491655D01*
X30611242Y-38522010D01*
X30687990Y-38598758D01*
X30703665Y-38622218D01*
X30748291Y-38689005D01*
X30779516Y-38764389D01*
X30791067Y-38786000D01*
X30806612Y-38804941D01*
X30825554Y-38820487D01*
X30847165Y-38832038D01*
X30870614Y-38839151D01*
X30895000Y-38841553D01*
X30919386Y-38839151D01*
X30942835Y-38832038D01*
X30964446Y-38820487D01*
X30983387Y-38804942D01*
X30998933Y-38786000D01*
X31010484Y-38764389D01*
X31041709Y-38689005D01*
X31086335Y-38622218D01*
X31102010Y-38598758D01*
X31178758Y-38522010D01*
X31224188Y-38491655D01*
X31269005Y-38461709D01*
X31369279Y-38420174D01*
X31475730Y-38399000D01*
X31584270Y-38399000D01*
X31690721Y-38420174D01*
X31790995Y-38461709D01*
X31835812Y-38491655D01*
X31881242Y-38522010D01*
X31957990Y-38598758D01*
X31973665Y-38622218D01*
X32020068Y-38691664D01*
X32035614Y-38710606D01*
X32054556Y-38726151D01*
X32076167Y-38737702D01*
X32099615Y-38744815D01*
X32124002Y-38747217D01*
X32148388Y-38744815D01*
X32171837Y-38737702D01*
X32193447Y-38726151D01*
X32212389Y-38710605D01*
X32227934Y-38691663D01*
X32239485Y-38670052D01*
X32246598Y-38646604D01*
X32249000Y-38622218D01*
X32249000Y-38399000D01*
X33351000Y-38399000D01*
X33351000Y-39501000D01*
X33127782Y-39501000D01*
X33103396Y-39503402D01*
X33079947Y-39510515D01*
X33058336Y-39522066D01*
X33039394Y-39537611D01*
X33023849Y-39556553D01*
X33012298Y-39578164D01*
X33005185Y-39601613D01*
X33002783Y-39625999D01*
X33005185Y-39650385D01*
X33012298Y-39673834D01*
X33023849Y-39695445D01*
X33039394Y-39714387D01*
X33058336Y-39729932D01*
X33119816Y-39771012D01*
X33151242Y-39792010D01*
X33227990Y-39868758D01*
X33227991Y-39868760D01*
X33288291Y-39959005D01*
X33329826Y-40059279D01*
X33351000Y-40165730D01*
X33351000Y-40274270D01*
X33329826Y-40380721D01*
X33288291Y-40480995D01*
X33288290Y-40480996D01*
X33227990Y-40571242D01*
X33151242Y-40647990D01*
X33105812Y-40678345D01*
X33060995Y-40708291D01*
X32960721Y-40749826D01*
X32854270Y-40771000D01*
X32745730Y-40771000D01*
X32639279Y-40749826D01*
X32539005Y-40708291D01*
X32494188Y-40678345D01*
X32448758Y-40647990D01*
X32372010Y-40571242D01*
X32311710Y-40480996D01*
X32311709Y-40480995D01*
X32280484Y-40405611D01*
X32268933Y-40384000D01*
X32253388Y-40365059D01*
X32234446Y-40349513D01*
X32212835Y-40337962D01*
X32189386Y-40330849D01*
X32165000Y-40328447D01*
X32140614Y-40330849D01*
X32117165Y-40337962D01*
X32095554Y-40349513D01*
X32076613Y-40365058D01*
X32061067Y-40384000D01*
X32049516Y-40405611D01*
X32018291Y-40480995D01*
X32018290Y-40480996D01*
X31957990Y-40571242D01*
X31881242Y-40647990D01*
X31835812Y-40678345D01*
X31790995Y-40708291D01*
X31690721Y-40749826D01*
X31584270Y-40771000D01*
X31475730Y-40771000D01*
X31369279Y-40749826D01*
X31269005Y-40708291D01*
X31224188Y-40678345D01*
X31178758Y-40647990D01*
X31102010Y-40571242D01*
X31041710Y-40480996D01*
X31041709Y-40480995D01*
X31010484Y-40405611D01*
X30998933Y-40384000D01*
X30983388Y-40365059D01*
X30964446Y-40349513D01*
X30942835Y-40337962D01*
X30919386Y-40330849D01*
X30895000Y-40328447D01*
X30870614Y-40330849D01*
X30847165Y-40337962D01*
X30825554Y-40349513D01*
X30806613Y-40365058D01*
X30791067Y-40384000D01*
X30779516Y-40405611D01*
X30748291Y-40480995D01*
X30748290Y-40480996D01*
X30687990Y-40571242D01*
X30611242Y-40647990D01*
X30565812Y-40678345D01*
X30520995Y-40708291D01*
X30420721Y-40749826D01*
X30314270Y-40771000D01*
X30205730Y-40771000D01*
X30099279Y-40749826D01*
X29999005Y-40708291D01*
X29954188Y-40678345D01*
X29908758Y-40647990D01*
X29832010Y-40571242D01*
X29771710Y-40480996D01*
X29771709Y-40480995D01*
X29740484Y-40405611D01*
X29728933Y-40384000D01*
X29713388Y-40365059D01*
X29694446Y-40349513D01*
X29672835Y-40337962D01*
X29649386Y-40330849D01*
X29625000Y-40328447D01*
X29600614Y-40330849D01*
X29577165Y-40337962D01*
X29555554Y-40349513D01*
X29536613Y-40365058D01*
X29521067Y-40384000D01*
X29509516Y-40405611D01*
X29478291Y-40480995D01*
X29478290Y-40480996D01*
X29417990Y-40571242D01*
X29341242Y-40647990D01*
X29295812Y-40678345D01*
X29250995Y-40708291D01*
X29150721Y-40749826D01*
X29044270Y-40771000D01*
X28935730Y-40771000D01*
X28829279Y-40749826D01*
X28729005Y-40708291D01*
X28684188Y-40678345D01*
X28638758Y-40647990D01*
X28562010Y-40571242D01*
X28501710Y-40480996D01*
X28501709Y-40480995D01*
X28470484Y-40405611D01*
X28458933Y-40384000D01*
X28443388Y-40365059D01*
X28424446Y-40349513D01*
X28402835Y-40337962D01*
X28379386Y-40330849D01*
X28355000Y-40328447D01*
X28330614Y-40330849D01*
X28307165Y-40337962D01*
X28285554Y-40349513D01*
X28266613Y-40365058D01*
X28251067Y-40384000D01*
X28239516Y-40405611D01*
X28208291Y-40480995D01*
X28208290Y-40480996D01*
X28147990Y-40571242D01*
X28071242Y-40647990D01*
X28025812Y-40678345D01*
X27980995Y-40708291D01*
X27880721Y-40749826D01*
X27774270Y-40771000D01*
X27665730Y-40771000D01*
X27559279Y-40749826D01*
X27459005Y-40708291D01*
X27414188Y-40678345D01*
X27368758Y-40647990D01*
X27292010Y-40571242D01*
X27231710Y-40480996D01*
X27231709Y-40480995D01*
X27190174Y-40380721D01*
X27169000Y-40274270D01*
X27169000Y-40165730D01*
X27190174Y-40059279D01*
X27231709Y-39959005D01*
X27292009Y-39868760D01*
X27292010Y-39868758D01*
X27368758Y-39792010D01*
X27459004Y-39731710D01*
X27459005Y-39731709D01*
X27534389Y-39700484D01*
X27556000Y-39688933D01*
X27574941Y-39673388D01*
X27590487Y-39654446D01*
X27602038Y-39632835D01*
X27609151Y-39609386D01*
X27611553Y-39585000D01*
X27828447Y-39585000D01*
X27830849Y-39609386D01*
X27837962Y-39632835D01*
X27849513Y-39654446D01*
X27865058Y-39673387D01*
X27884000Y-39688933D01*
X27905611Y-39700484D01*
X27980995Y-39731709D01*
X27980996Y-39731710D01*
X28071242Y-39792010D01*
X28147990Y-39868758D01*
X28147991Y-39868760D01*
X28208291Y-39959005D01*
X28239516Y-40034389D01*
X28251067Y-40056000D01*
X28266612Y-40074941D01*
X28285554Y-40090487D01*
X28307165Y-40102038D01*
X28330614Y-40109151D01*
X28355000Y-40111553D01*
X28379386Y-40109151D01*
X28402835Y-40102038D01*
X28424446Y-40090487D01*
X28443387Y-40074942D01*
X28458933Y-40056000D01*
X28470484Y-40034389D01*
X28501709Y-39959005D01*
X28562009Y-39868760D01*
X28562010Y-39868758D01*
X28638758Y-39792010D01*
X28729004Y-39731710D01*
X28729005Y-39731709D01*
X28804389Y-39700484D01*
X28826000Y-39688933D01*
X28844941Y-39673388D01*
X28860487Y-39654446D01*
X28872038Y-39632835D01*
X28879151Y-39609386D01*
X28881553Y-39585000D01*
X29098447Y-39585000D01*
X29100849Y-39609386D01*
X29107962Y-39632835D01*
X29119513Y-39654446D01*
X29135058Y-39673387D01*
X29154000Y-39688933D01*
X29175611Y-39700484D01*
X29250995Y-39731709D01*
X29250996Y-39731710D01*
X29341242Y-39792010D01*
X29417990Y-39868758D01*
X29417991Y-39868760D01*
X29478291Y-39959005D01*
X29509516Y-40034389D01*
X29521067Y-40056000D01*
X29536612Y-40074941D01*
X29555554Y-40090487D01*
X29577165Y-40102038D01*
X29600614Y-40109151D01*
X29625000Y-40111553D01*
X29649386Y-40109151D01*
X29672835Y-40102038D01*
X29694446Y-40090487D01*
X29713387Y-40074942D01*
X29728933Y-40056000D01*
X29740484Y-40034389D01*
X29771709Y-39959005D01*
X29832009Y-39868760D01*
X29832010Y-39868758D01*
X29908758Y-39792010D01*
X29999004Y-39731710D01*
X29999005Y-39731709D01*
X30074389Y-39700484D01*
X30096000Y-39688933D01*
X30114941Y-39673388D01*
X30130487Y-39654446D01*
X30142038Y-39632835D01*
X30149151Y-39609386D01*
X30151553Y-39585000D01*
X30368447Y-39585000D01*
X30370849Y-39609386D01*
X30377962Y-39632835D01*
X30389513Y-39654446D01*
X30405058Y-39673387D01*
X30424000Y-39688933D01*
X30445611Y-39700484D01*
X30520995Y-39731709D01*
X30520996Y-39731710D01*
X30611242Y-39792010D01*
X30687990Y-39868758D01*
X30687991Y-39868760D01*
X30748291Y-39959005D01*
X30779516Y-40034389D01*
X30791067Y-40056000D01*
X30806612Y-40074941D01*
X30825554Y-40090487D01*
X30847165Y-40102038D01*
X30870614Y-40109151D01*
X30895000Y-40111553D01*
X30919386Y-40109151D01*
X30942835Y-40102038D01*
X30964446Y-40090487D01*
X30983387Y-40074942D01*
X30998933Y-40056000D01*
X31010484Y-40034389D01*
X31041709Y-39959005D01*
X31102009Y-39868760D01*
X31102010Y-39868758D01*
X31178758Y-39792010D01*
X31269004Y-39731710D01*
X31269005Y-39731709D01*
X31344389Y-39700484D01*
X31366000Y-39688933D01*
X31384941Y-39673388D01*
X31400487Y-39654446D01*
X31412038Y-39632835D01*
X31419151Y-39609386D01*
X31421553Y-39585000D01*
X31638447Y-39585000D01*
X31640849Y-39609386D01*
X31647962Y-39632835D01*
X31659513Y-39654446D01*
X31675058Y-39673387D01*
X31694000Y-39688933D01*
X31715611Y-39700484D01*
X31790995Y-39731709D01*
X31790996Y-39731710D01*
X31881242Y-39792010D01*
X31957990Y-39868758D01*
X31957991Y-39868760D01*
X32018291Y-39959005D01*
X32049516Y-40034389D01*
X32061067Y-40056000D01*
X32076612Y-40074941D01*
X32095554Y-40090487D01*
X32117165Y-40102038D01*
X32140614Y-40109151D01*
X32165000Y-40111553D01*
X32189386Y-40109151D01*
X32212835Y-40102038D01*
X32234446Y-40090487D01*
X32253387Y-40074942D01*
X32268933Y-40056000D01*
X32280484Y-40034389D01*
X32311709Y-39959005D01*
X32372009Y-39868760D01*
X32372010Y-39868758D01*
X32448758Y-39792010D01*
X32480184Y-39771012D01*
X32541664Y-39729932D01*
X32560606Y-39714386D01*
X32576151Y-39695444D01*
X32587702Y-39673833D01*
X32594815Y-39650385D01*
X32597217Y-39625998D01*
X32594815Y-39601612D01*
X32587702Y-39578163D01*
X32576151Y-39556553D01*
X32560605Y-39537611D01*
X32541663Y-39522066D01*
X32520052Y-39510515D01*
X32496604Y-39503402D01*
X32472218Y-39501000D01*
X32249000Y-39501000D01*
X32249000Y-39277782D01*
X32246598Y-39253396D01*
X32239485Y-39229947D01*
X32227934Y-39208336D01*
X32212389Y-39189394D01*
X32193447Y-39173849D01*
X32171836Y-39162298D01*
X32148387Y-39155185D01*
X32124001Y-39152783D01*
X32099615Y-39155185D01*
X32076166Y-39162298D01*
X32054555Y-39173849D01*
X32035613Y-39189394D01*
X32020068Y-39208336D01*
X31978988Y-39269816D01*
X31957990Y-39301242D01*
X31881242Y-39377990D01*
X31835812Y-39408345D01*
X31790995Y-39438291D01*
X31715611Y-39469516D01*
X31694000Y-39481067D01*
X31675059Y-39496612D01*
X31659513Y-39515554D01*
X31647962Y-39537165D01*
X31640849Y-39560614D01*
X31638447Y-39585000D01*
X31421553Y-39585000D01*
X31419151Y-39560614D01*
X31412038Y-39537165D01*
X31400487Y-39515554D01*
X31384942Y-39496613D01*
X31366000Y-39481067D01*
X31344389Y-39469516D01*
X31269005Y-39438291D01*
X31224188Y-39408345D01*
X31178758Y-39377990D01*
X31102010Y-39301242D01*
X31070041Y-39253396D01*
X31041709Y-39210995D01*
X31010484Y-39135611D01*
X30998933Y-39114000D01*
X30983388Y-39095059D01*
X30964446Y-39079513D01*
X30942835Y-39067962D01*
X30919386Y-39060849D01*
X30895000Y-39058447D01*
X30870614Y-39060849D01*
X30847165Y-39067962D01*
X30825554Y-39079513D01*
X30806613Y-39095058D01*
X30791067Y-39114000D01*
X30779516Y-39135611D01*
X30748291Y-39210995D01*
X30719959Y-39253396D01*
X30687990Y-39301242D01*
X30611242Y-39377990D01*
X30565812Y-39408345D01*
X30520995Y-39438291D01*
X30445611Y-39469516D01*
X30424000Y-39481067D01*
X30405059Y-39496612D01*
X30389513Y-39515554D01*
X30377962Y-39537165D01*
X30370849Y-39560614D01*
X30368447Y-39585000D01*
X30151553Y-39585000D01*
X30149151Y-39560614D01*
X30142038Y-39537165D01*
X30130487Y-39515554D01*
X30114942Y-39496613D01*
X30096000Y-39481067D01*
X30074389Y-39469516D01*
X29999005Y-39438291D01*
X29954188Y-39408345D01*
X29908758Y-39377990D01*
X29832010Y-39301242D01*
X29800041Y-39253396D01*
X29771709Y-39210995D01*
X29740484Y-39135611D01*
X29728933Y-39114000D01*
X29713388Y-39095059D01*
X29694446Y-39079513D01*
X29672835Y-39067962D01*
X29649386Y-39060849D01*
X29625000Y-39058447D01*
X29600614Y-39060849D01*
X29577165Y-39067962D01*
X29555554Y-39079513D01*
X29536613Y-39095058D01*
X29521067Y-39114000D01*
X29509516Y-39135611D01*
X29478291Y-39210995D01*
X29449959Y-39253396D01*
X29417990Y-39301242D01*
X29341242Y-39377990D01*
X29295812Y-39408345D01*
X29250995Y-39438291D01*
X29175611Y-39469516D01*
X29154000Y-39481067D01*
X29135059Y-39496612D01*
X29119513Y-39515554D01*
X29107962Y-39537165D01*
X29100849Y-39560614D01*
X29098447Y-39585000D01*
X28881553Y-39585000D01*
X28879151Y-39560614D01*
X28872038Y-39537165D01*
X28860487Y-39515554D01*
X28844942Y-39496613D01*
X28826000Y-39481067D01*
X28804389Y-39469516D01*
X28729005Y-39438291D01*
X28684188Y-39408345D01*
X28638758Y-39377990D01*
X28562010Y-39301242D01*
X28530041Y-39253396D01*
X28501709Y-39210995D01*
X28470484Y-39135611D01*
X28458933Y-39114000D01*
X28443388Y-39095059D01*
X28424446Y-39079513D01*
X28402835Y-39067962D01*
X28379386Y-39060849D01*
X28355000Y-39058447D01*
X28330614Y-39060849D01*
X28307165Y-39067962D01*
X28285554Y-39079513D01*
X28266613Y-39095058D01*
X28251067Y-39114000D01*
X28239516Y-39135611D01*
X28208291Y-39210995D01*
X28179959Y-39253396D01*
X28147990Y-39301242D01*
X28071242Y-39377990D01*
X28025812Y-39408345D01*
X27980995Y-39438291D01*
X27905611Y-39469516D01*
X27884000Y-39481067D01*
X27865059Y-39496612D01*
X27849513Y-39515554D01*
X27837962Y-39537165D01*
X27830849Y-39560614D01*
X27828447Y-39585000D01*
X27611553Y-39585000D01*
X27609151Y-39560614D01*
X27602038Y-39537165D01*
X27590487Y-39515554D01*
X27574942Y-39496613D01*
X27556000Y-39481067D01*
X27534389Y-39469516D01*
X27459005Y-39438291D01*
X27414188Y-39408345D01*
X27368758Y-39377990D01*
X27292010Y-39301242D01*
X27260041Y-39253396D01*
X27231709Y-39210995D01*
X27190174Y-39110721D01*
X27169000Y-39004270D01*
X27169000Y-38895730D01*
X27190174Y-38789279D01*
X27231709Y-38689005D01*
X27276335Y-38622218D01*
X27292010Y-38598758D01*
X27368758Y-38522010D01*
X27414188Y-38491655D01*
X27459005Y-38461709D01*
X27559279Y-38420174D01*
X27665730Y-38399000D01*
X27774270Y-38399000D01*
X27880721Y-38420174D01*
G37*
G36*
X23126355Y-37352140D02*
G01*
X23190118Y-37358420D01*
X23280904Y-37385960D01*
X23312836Y-37395646D01*
X23425925Y-37456094D01*
X23525054Y-37537446D01*
X23606406Y-37636575D01*
X23666854Y-37749664D01*
X23666855Y-37749668D01*
X23704080Y-37872382D01*
X23716649Y-38000000D01*
X23704080Y-38127618D01*
X23676540Y-38218404D01*
X23666854Y-38250336D01*
X23606406Y-38363425D01*
X23525054Y-38462554D01*
X23425925Y-38543906D01*
X23312836Y-38604354D01*
X23280904Y-38614040D01*
X23190118Y-38641580D01*
X23139107Y-38646604D01*
X23094474Y-38651000D01*
X22330526Y-38651000D01*
X22285893Y-38646604D01*
X22234882Y-38641580D01*
X22144096Y-38614040D01*
X22112164Y-38604354D01*
X21999075Y-38543906D01*
X21899946Y-38462554D01*
X21818594Y-38363425D01*
X21758146Y-38250336D01*
X21748460Y-38218404D01*
X21720920Y-38127618D01*
X21708351Y-38000000D01*
X21720920Y-37872382D01*
X21758145Y-37749668D01*
X21758146Y-37749664D01*
X21818594Y-37636575D01*
X21899946Y-37537446D01*
X21999075Y-37456094D01*
X22112164Y-37395646D01*
X22144096Y-37385960D01*
X22234882Y-37358420D01*
X22298645Y-37352140D01*
X22330526Y-37349000D01*
X23094474Y-37349000D01*
X23126355Y-37352140D01*
G37*
G36*
X59751000Y-38051000D02*
G01*
X55449000Y-38051000D01*
X55449000Y-36599000D01*
X59751000Y-36599000D01*
X59751000Y-38051000D01*
G37*
G36*
X25638848Y-36253820D02*
G01*
X25638850Y-36253821D01*
X25638851Y-36253821D01*
X25780074Y-36312317D01*
X25780077Y-36312319D01*
X25907169Y-36397239D01*
X26015261Y-36505331D01*
X26100181Y-36632423D01*
X26100183Y-36632426D01*
X26158679Y-36773649D01*
X26188500Y-36923571D01*
X26188500Y-37076429D01*
X26158679Y-37226351D01*
X26100183Y-37367574D01*
X26100181Y-37367577D01*
X26015261Y-37494669D01*
X25907169Y-37602761D01*
X25780077Y-37687681D01*
X25780074Y-37687683D01*
X25638851Y-37746179D01*
X25638850Y-37746179D01*
X25638848Y-37746180D01*
X25488931Y-37776000D01*
X25336069Y-37776000D01*
X25186152Y-37746180D01*
X25186150Y-37746179D01*
X25186149Y-37746179D01*
X25044926Y-37687683D01*
X25044923Y-37687681D01*
X24917831Y-37602761D01*
X24809739Y-37494669D01*
X24724819Y-37367577D01*
X24724817Y-37367574D01*
X24666321Y-37226351D01*
X24636500Y-37076429D01*
X24636500Y-36923571D01*
X24666321Y-36773649D01*
X24724817Y-36632426D01*
X24724819Y-36632423D01*
X24809739Y-36505331D01*
X24917831Y-36397239D01*
X25044923Y-36312319D01*
X25044926Y-36312317D01*
X25186149Y-36253821D01*
X25186150Y-36253821D01*
X25186152Y-36253820D01*
X25336069Y-36224000D01*
X25488931Y-36224000D01*
X25638848Y-36253820D01*
G37*
G36*
X25638848Y-31253820D02*
G01*
X25638850Y-31253821D01*
X25638851Y-31253821D01*
X25780074Y-31312317D01*
X25780077Y-31312319D01*
X25907169Y-31397239D01*
X26015261Y-31505331D01*
X26100181Y-31632423D01*
X26100183Y-31632426D01*
X26158679Y-31773649D01*
X26188500Y-31923571D01*
X26188500Y-32076429D01*
X26158679Y-32226351D01*
X26100183Y-32367574D01*
X26100181Y-32367577D01*
X26015261Y-32494669D01*
X25907169Y-32602761D01*
X25780077Y-32687681D01*
X25780074Y-32687683D01*
X25638851Y-32746179D01*
X25638850Y-32746179D01*
X25638848Y-32746180D01*
X25488931Y-32776000D01*
X25336069Y-32776000D01*
X25186152Y-32746180D01*
X25186150Y-32746179D01*
X25186149Y-32746179D01*
X25044926Y-32687683D01*
X25044923Y-32687681D01*
X24917831Y-32602761D01*
X24809739Y-32494669D01*
X24724819Y-32367577D01*
X24724817Y-32367574D01*
X24666321Y-32226351D01*
X24636500Y-32076429D01*
X24636500Y-31923571D01*
X24666321Y-31773649D01*
X24724817Y-31632426D01*
X24724819Y-31632423D01*
X24809739Y-31505331D01*
X24917831Y-31397239D01*
X25044923Y-31312319D01*
X25044926Y-31312317D01*
X25186149Y-31253821D01*
X25186150Y-31253821D01*
X25186152Y-31253820D01*
X25336069Y-31224000D01*
X25488931Y-31224000D01*
X25638848Y-31253820D01*
G37*
G36*
X59751000Y-32401000D02*
G01*
X55449000Y-32401000D01*
X55449000Y-30949000D01*
X59751000Y-30949000D01*
X59751000Y-32401000D01*
G37*
G36*
X23126355Y-30352140D02*
G01*
X23190118Y-30358420D01*
X23280904Y-30385960D01*
X23312836Y-30395646D01*
X23425925Y-30456094D01*
X23525054Y-30537446D01*
X23606406Y-30636575D01*
X23666854Y-30749664D01*
X23666855Y-30749668D01*
X23704080Y-30872382D01*
X23716649Y-31000000D01*
X23704080Y-31127618D01*
X23676540Y-31218404D01*
X23666854Y-31250336D01*
X23606406Y-31363425D01*
X23525054Y-31462554D01*
X23425925Y-31543906D01*
X23312836Y-31604354D01*
X23280904Y-31614040D01*
X23190118Y-31641580D01*
X23126355Y-31647860D01*
X23094474Y-31651000D01*
X22330526Y-31651000D01*
X22298645Y-31647860D01*
X22234882Y-31641580D01*
X22144096Y-31614040D01*
X22112164Y-31604354D01*
X21999075Y-31543906D01*
X21899946Y-31462554D01*
X21818594Y-31363425D01*
X21758146Y-31250336D01*
X21748460Y-31218404D01*
X21720920Y-31127618D01*
X21708351Y-31000000D01*
X21720920Y-30872382D01*
X21758145Y-30749668D01*
X21758146Y-30749664D01*
X21818594Y-30636575D01*
X21899946Y-30537446D01*
X21999075Y-30456094D01*
X22112164Y-30395646D01*
X22144096Y-30385960D01*
X22234882Y-30358420D01*
X22298645Y-30352140D01*
X22330526Y-30349000D01*
X23094474Y-30349000D01*
X23126355Y-30352140D01*
G37*
M02*
