G04 #@! TF.GenerationSoftware,KiCad,Pcbnew,(5.1.5)-3*
G04 #@! TF.CreationDate,2020-05-12T02:25:37+02:00*
G04 #@! TF.ProjectId,STRF,53545246-2e6b-4696-9361-645f70636258,rev?*
G04 #@! TF.SameCoordinates,Original*
G04 #@! TF.FileFunction,Profile,NP*
%FSLAX46Y46*%
G04 Gerber Fmt 4.6, Leading zero omitted, Abs format (unit mm)*
G04 Created by KiCad (PCBNEW (5.1.5)-3) date 2020-05-12 02:25:37*
%MOMM*%
%LPD*%
G04 APERTURE LIST*
%ADD10C,0.050000*%
G04 APERTURE END LIST*
D10*
X29400000Y-59000000D02*
X23250000Y-59000000D01*
X29400000Y-57919907D02*
X23250000Y-57900000D01*
X40550000Y-41949714D02*
X31200000Y-41918455D01*
X40550000Y-57950644D02*
X31200000Y-57919907D01*
X42000000Y-57950000D02*
X42000000Y-59000000D01*
X42000000Y-41950000D02*
X42000000Y-43000000D01*
X40550000Y-57950000D02*
X40550000Y-59000000D01*
X40550000Y-41950000D02*
X40550000Y-43000000D01*
X31200000Y-57919907D02*
X31200000Y-59000000D01*
X29400000Y-57919907D02*
X29400000Y-59000000D01*
X31200000Y-43000000D02*
X31200000Y-41918455D01*
X29400000Y-43000000D02*
X23250000Y-43000000D01*
X29399950Y-41917597D02*
X23250000Y-41900000D01*
X29399950Y-41917597D02*
X29400000Y-43000000D01*
X21250000Y-69500000D02*
X21250000Y-61600000D01*
X21250000Y-61600000D02*
X21250000Y-61000000D01*
X37500000Y-59000000D02*
X31200000Y-59000000D01*
X60200000Y-66500000D02*
X60200000Y-72000000D01*
X58200000Y-59000000D02*
G75*
G02X60200000Y-61000000I0J-2000000D01*
G01*
X60200000Y-66500000D02*
X60200000Y-63600000D01*
X21250000Y-69500000D02*
X21250000Y-71900000D01*
X60200000Y-72000000D02*
G75*
G02X58200000Y-74000000I-2000000J0D01*
G01*
X23250000Y-73900000D02*
G75*
G02X21250000Y-71900000I0J2000000D01*
G01*
X57850000Y-59000000D02*
X58200000Y-59000000D01*
X60200000Y-63600000D02*
X60200000Y-61000000D01*
X58200000Y-74000000D02*
X23250000Y-73900000D01*
X37500000Y-59000000D02*
X40550000Y-59000000D01*
X21250000Y-61000000D02*
G75*
G02X23250000Y-59000000I2000000J0D01*
G01*
X42000000Y-59000000D02*
X57850000Y-59000000D01*
X21250000Y-53500000D02*
X21250000Y-45600000D01*
X37500000Y-43000000D02*
X31200000Y-43000000D01*
X21250000Y-45600000D02*
X21250000Y-45000000D01*
X42000000Y-43000000D02*
X57850000Y-43000000D01*
X60200000Y-50500000D02*
X60200000Y-56000000D01*
X60200000Y-50500000D02*
X60200000Y-47600000D01*
X21250000Y-53500000D02*
X21250000Y-55900000D01*
X60200000Y-56000000D02*
G75*
G02X58200000Y-58000000I-2000000J0D01*
G01*
X58200000Y-43000000D02*
G75*
G02X60200000Y-45000000I0J-2000000D01*
G01*
X23250000Y-57900000D02*
G75*
G02X21250000Y-55900000I0J2000000D01*
G01*
X57850000Y-43000000D02*
X58200000Y-43000000D01*
X37500000Y-43000000D02*
X40550000Y-43000000D01*
X58200000Y-58000000D02*
X42000000Y-57950000D01*
X21250000Y-45000000D02*
G75*
G02X23250000Y-43000000I2000000J0D01*
G01*
X60200000Y-47600000D02*
X60200000Y-45000000D01*
X23250000Y-41900000D02*
G75*
G02X21250000Y-39900000I0J2000000D01*
G01*
X21250000Y-29000000D02*
G75*
G02X23250000Y-27000000I2000000J0D01*
G01*
X58200000Y-27000000D02*
G75*
G02X60200000Y-29000000I0J-2000000D01*
G01*
X60200000Y-40000000D02*
G75*
G02X58200000Y-42000000I-2000000J0D01*
G01*
X21250000Y-37500000D02*
X21250000Y-39900000D01*
X58200000Y-42000000D02*
X42000000Y-41950000D01*
X60200000Y-34500000D02*
X60200000Y-40000000D01*
X60200000Y-31600000D02*
X60200000Y-29000000D01*
X60200000Y-34500000D02*
X60200000Y-31600000D01*
X57850000Y-27000000D02*
X58200000Y-27000000D01*
X42050000Y-27000000D02*
X57850000Y-27000000D01*
X37500000Y-27000000D02*
X42050000Y-27000000D01*
X21250000Y-29600000D02*
X21250000Y-29000000D01*
X37500000Y-27000000D02*
X23250000Y-27000000D01*
X21250000Y-37500000D02*
X21250000Y-29600000D01*
M02*
