G04 #@! TF.GenerationSoftware,KiCad,Pcbnew,(5.1.5)-3*
G04 #@! TF.CreationDate,2020-05-21T23:45:32+02:00*
G04 #@! TF.ProjectId,STRF_Panel,53545246-5f50-4616-9e65-6c2e6b696361,rev?*
G04 #@! TF.SameCoordinates,Original*
G04 #@! TF.FileFunction,Legend,Bot*
G04 #@! TF.FilePolarity,Positive*
%FSLAX46Y46*%
G04 Gerber Fmt 4.6, Leading zero omitted, Abs format (unit mm)*
G04 Created by KiCad (PCBNEW (5.1.5)-3) date 2020-05-21 23:45:32*
%MOMM*%
%LPD*%
G04 APERTURE LIST*
%ADD10C,0.100000*%
%ADD11C,0.120000*%
%ADD12C,0.150000*%
G04 APERTURE END LIST*
D10*
X41795238Y-56861904D02*
X41795238Y-57433333D01*
X41833333Y-57547619D01*
X41909523Y-57623809D01*
X42023809Y-57661904D01*
X42100000Y-57661904D01*
X41033333Y-57661904D02*
X41414285Y-57661904D01*
X41414285Y-56861904D01*
X40309523Y-57585714D02*
X40347619Y-57623809D01*
X40461904Y-57661904D01*
X40538095Y-57661904D01*
X40652380Y-57623809D01*
X40728571Y-57547619D01*
X40766666Y-57471428D01*
X40804761Y-57319047D01*
X40804761Y-57204761D01*
X40766666Y-57052380D01*
X40728571Y-56976190D01*
X40652380Y-56900000D01*
X40538095Y-56861904D01*
X40461904Y-56861904D01*
X40347619Y-56900000D01*
X40309523Y-56938095D01*
X39738095Y-56861904D02*
X39738095Y-57433333D01*
X39776190Y-57547619D01*
X39852380Y-57623809D01*
X39966666Y-57661904D01*
X40042857Y-57661904D01*
X38976190Y-57661904D02*
X39357142Y-57661904D01*
X39357142Y-56861904D01*
X38252380Y-57585714D02*
X38290476Y-57623809D01*
X38404761Y-57661904D01*
X38480952Y-57661904D01*
X38595238Y-57623809D01*
X38671428Y-57547619D01*
X38709523Y-57471428D01*
X38747619Y-57319047D01*
X38747619Y-57204761D01*
X38709523Y-57052380D01*
X38671428Y-56976190D01*
X38595238Y-56900000D01*
X38480952Y-56861904D01*
X38404761Y-56861904D01*
X38290476Y-56900000D01*
X38252380Y-56938095D01*
X37680952Y-56861904D02*
X37680952Y-57433333D01*
X37719047Y-57547619D01*
X37795238Y-57623809D01*
X37909523Y-57661904D01*
X37985714Y-57661904D01*
X36919047Y-57661904D02*
X37300000Y-57661904D01*
X37300000Y-56861904D01*
X36195238Y-57585714D02*
X36233333Y-57623809D01*
X36347619Y-57661904D01*
X36423809Y-57661904D01*
X36538095Y-57623809D01*
X36614285Y-57547619D01*
X36652380Y-57471428D01*
X36690476Y-57319047D01*
X36690476Y-57204761D01*
X36652380Y-57052380D01*
X36614285Y-56976190D01*
X36538095Y-56900000D01*
X36423809Y-56861904D01*
X36347619Y-56861904D01*
X36233333Y-56900000D01*
X36195238Y-56938095D01*
X35623809Y-56861904D02*
X35623809Y-57433333D01*
X35661904Y-57547619D01*
X35738095Y-57623809D01*
X35852380Y-57661904D01*
X35928571Y-57661904D01*
X34861904Y-57661904D02*
X35242857Y-57661904D01*
X35242857Y-56861904D01*
X34138095Y-57585714D02*
X34176190Y-57623809D01*
X34290476Y-57661904D01*
X34366666Y-57661904D01*
X34480952Y-57623809D01*
X34557142Y-57547619D01*
X34595238Y-57471428D01*
X34633333Y-57319047D01*
X34633333Y-57204761D01*
X34595238Y-57052380D01*
X34557142Y-56976190D01*
X34480952Y-56900000D01*
X34366666Y-56861904D01*
X34290476Y-56861904D01*
X34176190Y-56900000D01*
X34138095Y-56938095D01*
D11*
X46850000Y-50125000D02*
X46850000Y-51225000D01*
X45900000Y-53900000D02*
X43850000Y-53900000D01*
X42325000Y-53900000D02*
X42675000Y-53900000D01*
X42325000Y-53900000D02*
X42325000Y-57900000D01*
X33260000Y-54320000D02*
X34460000Y-54320000D01*
X42700000Y-53900000D02*
X43850000Y-53900000D01*
X34460000Y-54670000D02*
X34460000Y-55520000D01*
X34210000Y-55520000D02*
X33260000Y-55520000D01*
X49250000Y-48250000D02*
X49250000Y-49000000D01*
X33260000Y-55470000D02*
X33260000Y-54320000D01*
X34460000Y-54320000D02*
X34460000Y-54670000D01*
X46200000Y-51475000D02*
X45925000Y-51475000D01*
X45900000Y-51925000D02*
X45900000Y-53900000D01*
X49250000Y-43050000D02*
X49250000Y-48225000D01*
X49250000Y-49000000D02*
X47950000Y-49000000D01*
X46850000Y-51225000D02*
X46850000Y-51475000D01*
X45900000Y-51475000D02*
X45900000Y-51925000D01*
D10*
G36*
X35400000Y-53610000D02*
G01*
X35000000Y-54010000D01*
X35150000Y-54160000D01*
X34650000Y-54160000D01*
X34650000Y-53660000D01*
X34800000Y-53810000D01*
X35200000Y-53410000D01*
X35400000Y-53610000D01*
G37*
X35400000Y-53610000D02*
X35000000Y-54010000D01*
X35150000Y-54160000D01*
X34650000Y-54160000D01*
X34650000Y-53660000D01*
X34800000Y-53810000D01*
X35200000Y-53410000D01*
X35400000Y-53610000D01*
D11*
X46850000Y-49000000D02*
X46850000Y-50100000D01*
X47925000Y-49000000D02*
X46850000Y-49000000D01*
X46825000Y-51475000D02*
X46225000Y-51475000D01*
X32520000Y-55510000D02*
X32520000Y-55460000D01*
X34460000Y-55520000D02*
X34210000Y-55520000D01*
D12*
X31466651Y-43985714D02*
X31591651Y-44985714D01*
X31472604Y-44033333D02*
X31371413Y-43985714D01*
X31180937Y-43985714D01*
X31091651Y-44033333D01*
X31049985Y-44080952D01*
X31014270Y-44176190D01*
X31049985Y-44461904D01*
X31109508Y-44557142D01*
X31163080Y-44604761D01*
X31264270Y-44652380D01*
X31454747Y-44652380D01*
X31544032Y-44604761D01*
X30645223Y-44652380D02*
X30520223Y-43652380D01*
X30216651Y-44652380D02*
X30151175Y-44128571D01*
X30186889Y-44033333D01*
X30276175Y-43985714D01*
X30419032Y-43985714D01*
X30520223Y-44033333D01*
X30573794Y-44080952D01*
X29740461Y-44652380D02*
X29657127Y-43985714D01*
X29615461Y-43652380D02*
X29669032Y-43700000D01*
X29627366Y-43747619D01*
X29573794Y-43700000D01*
X29615461Y-43652380D01*
X29627366Y-43747619D01*
X29121413Y-44652380D02*
X29210699Y-44604761D01*
X29246413Y-44509523D01*
X29139270Y-43652380D01*
X28782127Y-44604761D02*
X28692842Y-44652380D01*
X28502366Y-44652380D01*
X28401175Y-44604761D01*
X28341651Y-44509523D01*
X28335699Y-44461904D01*
X28371413Y-44366666D01*
X28460699Y-44319047D01*
X28603556Y-44319047D01*
X28692842Y-44271428D01*
X28728556Y-44176190D01*
X28722604Y-44128571D01*
X28663080Y-44033333D01*
X28561889Y-43985714D01*
X28419032Y-43985714D01*
X28329747Y-44033333D01*
X27502366Y-44652380D02*
X27436889Y-44128571D01*
X27472604Y-44033333D01*
X27561889Y-43985714D01*
X27752366Y-43985714D01*
X27853556Y-44033333D01*
X27496413Y-44604761D02*
X27597604Y-44652380D01*
X27835699Y-44652380D01*
X27924985Y-44604761D01*
X27960699Y-44509523D01*
X27948794Y-44414285D01*
X27889270Y-44319047D01*
X27788080Y-44271428D01*
X27549985Y-44271428D01*
X27448794Y-44223809D01*
X26883318Y-44652380D02*
X26972604Y-44604761D01*
X27008318Y-44509523D01*
X26901175Y-43652380D01*
X26490461Y-44557142D02*
X26448794Y-44604761D01*
X26502366Y-44652380D01*
X26544032Y-44604761D01*
X26490461Y-44557142D01*
X26502366Y-44652380D01*
X25591651Y-44604761D02*
X25692842Y-44652380D01*
X25883318Y-44652380D01*
X25972604Y-44604761D01*
X26014270Y-44557142D01*
X26049985Y-44461904D01*
X26014270Y-44176190D01*
X25954747Y-44080952D01*
X25901175Y-44033333D01*
X25799985Y-43985714D01*
X25609508Y-43985714D01*
X25520223Y-44033333D01*
X25026175Y-44652380D02*
X25115461Y-44604761D01*
X25157127Y-44557142D01*
X25192842Y-44461904D01*
X25157127Y-44176190D01*
X25097604Y-44080952D01*
X25044032Y-44033333D01*
X24942842Y-43985714D01*
X24799985Y-43985714D01*
X24710699Y-44033333D01*
X24669032Y-44080952D01*
X24633318Y-44176190D01*
X24669032Y-44461904D01*
X24728556Y-44557142D01*
X24782127Y-44604761D01*
X24883318Y-44652380D01*
X25026175Y-44652380D01*
X24252366Y-44557142D02*
X24210699Y-44604761D01*
X24264270Y-44652380D01*
X24305937Y-44604761D01*
X24252366Y-44557142D01*
X24264270Y-44652380D01*
X23276175Y-43985714D02*
X23359508Y-44652380D01*
X23704747Y-43985714D02*
X23770223Y-44509523D01*
X23734508Y-44604761D01*
X23645223Y-44652380D01*
X23502366Y-44652380D01*
X23401175Y-44604761D01*
X23347604Y-44557142D01*
X22883318Y-44652380D02*
X22758318Y-43652380D01*
X22740461Y-44271428D02*
X22502366Y-44652380D01*
X22419032Y-43985714D02*
X22847604Y-44366666D01*
D11*
X45900000Y-35925000D02*
X45900000Y-37900000D01*
X45900000Y-35475000D02*
X45900000Y-35925000D01*
D10*
G36*
X35400000Y-37610000D02*
G01*
X35000000Y-38010000D01*
X35150000Y-38160000D01*
X34650000Y-38160000D01*
X34650000Y-37660000D01*
X34800000Y-37810000D01*
X35200000Y-37410000D01*
X35400000Y-37610000D01*
G37*
X35400000Y-37610000D02*
X35000000Y-38010000D01*
X35150000Y-38160000D01*
X34650000Y-38160000D01*
X34650000Y-37660000D01*
X34800000Y-37810000D01*
X35200000Y-37410000D01*
X35400000Y-37610000D01*
D11*
X32520000Y-39510000D02*
X32520000Y-39460000D01*
X34210000Y-39520000D02*
X33260000Y-39520000D01*
X34460000Y-39520000D02*
X34210000Y-39520000D01*
X34460000Y-38670000D02*
X34460000Y-39520000D01*
X34460000Y-38320000D02*
X34460000Y-38670000D01*
X33260000Y-38320000D02*
X34460000Y-38320000D01*
X33260000Y-39470000D02*
X33260000Y-38320000D01*
X42325000Y-37900000D02*
X42325000Y-41900000D01*
X42325000Y-37900000D02*
X42675000Y-37900000D01*
X42700000Y-37900000D02*
X43850000Y-37900000D01*
X45900000Y-37900000D02*
X43850000Y-37900000D01*
X46200000Y-35475000D02*
X45925000Y-35475000D01*
X46825000Y-35475000D02*
X46225000Y-35475000D01*
X46850000Y-35225000D02*
X46850000Y-35475000D01*
X46850000Y-34125000D02*
X46850000Y-35225000D01*
X46850000Y-33000000D02*
X46850000Y-34100000D01*
X47925000Y-33000000D02*
X46850000Y-33000000D01*
X49250000Y-33000000D02*
X47950000Y-33000000D01*
X49250000Y-32250000D02*
X49250000Y-33000000D01*
X49250000Y-27050000D02*
X49250000Y-32225000D01*
D12*
X31466651Y-27985714D02*
X31591651Y-28985714D01*
X31472604Y-28033333D02*
X31371413Y-27985714D01*
X31180937Y-27985714D01*
X31091651Y-28033333D01*
X31049985Y-28080952D01*
X31014270Y-28176190D01*
X31049985Y-28461904D01*
X31109508Y-28557142D01*
X31163080Y-28604761D01*
X31264270Y-28652380D01*
X31454747Y-28652380D01*
X31544032Y-28604761D01*
X30645223Y-28652380D02*
X30520223Y-27652380D01*
X30216651Y-28652380D02*
X30151175Y-28128571D01*
X30186889Y-28033333D01*
X30276175Y-27985714D01*
X30419032Y-27985714D01*
X30520223Y-28033333D01*
X30573794Y-28080952D01*
X29740461Y-28652380D02*
X29657127Y-27985714D01*
X29615461Y-27652380D02*
X29669032Y-27700000D01*
X29627366Y-27747619D01*
X29573794Y-27700000D01*
X29615461Y-27652380D01*
X29627366Y-27747619D01*
X29121413Y-28652380D02*
X29210699Y-28604761D01*
X29246413Y-28509523D01*
X29139270Y-27652380D01*
X28782127Y-28604761D02*
X28692842Y-28652380D01*
X28502366Y-28652380D01*
X28401175Y-28604761D01*
X28341651Y-28509523D01*
X28335699Y-28461904D01*
X28371413Y-28366666D01*
X28460699Y-28319047D01*
X28603556Y-28319047D01*
X28692842Y-28271428D01*
X28728556Y-28176190D01*
X28722604Y-28128571D01*
X28663080Y-28033333D01*
X28561889Y-27985714D01*
X28419032Y-27985714D01*
X28329747Y-28033333D01*
X27502366Y-28652380D02*
X27436889Y-28128571D01*
X27472604Y-28033333D01*
X27561889Y-27985714D01*
X27752366Y-27985714D01*
X27853556Y-28033333D01*
X27496413Y-28604761D02*
X27597604Y-28652380D01*
X27835699Y-28652380D01*
X27924985Y-28604761D01*
X27960699Y-28509523D01*
X27948794Y-28414285D01*
X27889270Y-28319047D01*
X27788080Y-28271428D01*
X27549985Y-28271428D01*
X27448794Y-28223809D01*
X26883318Y-28652380D02*
X26972604Y-28604761D01*
X27008318Y-28509523D01*
X26901175Y-27652380D01*
X26490461Y-28557142D02*
X26448794Y-28604761D01*
X26502366Y-28652380D01*
X26544032Y-28604761D01*
X26490461Y-28557142D01*
X26502366Y-28652380D01*
X25591651Y-28604761D02*
X25692842Y-28652380D01*
X25883318Y-28652380D01*
X25972604Y-28604761D01*
X26014270Y-28557142D01*
X26049985Y-28461904D01*
X26014270Y-28176190D01*
X25954747Y-28080952D01*
X25901175Y-28033333D01*
X25799985Y-27985714D01*
X25609508Y-27985714D01*
X25520223Y-28033333D01*
X25026175Y-28652380D02*
X25115461Y-28604761D01*
X25157127Y-28557142D01*
X25192842Y-28461904D01*
X25157127Y-28176190D01*
X25097604Y-28080952D01*
X25044032Y-28033333D01*
X24942842Y-27985714D01*
X24799985Y-27985714D01*
X24710699Y-28033333D01*
X24669032Y-28080952D01*
X24633318Y-28176190D01*
X24669032Y-28461904D01*
X24728556Y-28557142D01*
X24782127Y-28604761D01*
X24883318Y-28652380D01*
X25026175Y-28652380D01*
X24252366Y-28557142D02*
X24210699Y-28604761D01*
X24264270Y-28652380D01*
X24305937Y-28604761D01*
X24252366Y-28557142D01*
X24264270Y-28652380D01*
X23276175Y-27985714D02*
X23359508Y-28652380D01*
X23704747Y-27985714D02*
X23770223Y-28509523D01*
X23734508Y-28604761D01*
X23645223Y-28652380D01*
X23502366Y-28652380D01*
X23401175Y-28604761D01*
X23347604Y-28557142D01*
X22883318Y-28652380D02*
X22758318Y-27652380D01*
X22740461Y-28271428D02*
X22502366Y-28652380D01*
X22419032Y-27985714D02*
X22847604Y-28366666D01*
M02*
