M48
METRIC,TZ
T1C0.400
T2C0.600
T3C0.650
T4C0.850
%
G90
G05
T1
X26325Y-38500
X26325Y-54500
X26325Y-70500
X27050Y-33550
X27050Y-49550
X27050Y-65550
X27075Y-36200
X27075Y-37200
X27075Y-52200
X27075Y-53200
X27075Y-68200
X27075Y-69200
X28000Y-33350
X28000Y-49350
X28000Y-65350
X28100Y-37200
X28100Y-53200
X28100Y-69200
X28400Y-35100
X28400Y-51100
X28400Y-67100
X29100Y-37200
X29100Y-53200
X29100Y-69200
X30350Y-35100
X30350Y-51100
X30350Y-67100
X30600Y-31475
X30600Y-32975
X30600Y-47475
X30600Y-48975
X30600Y-63475
X30600Y-64975
X31900Y-29600
X31900Y-45600
X31900Y-61600
X32700Y-33350
X32700Y-49350
X32700Y-65350
X33575Y-33350
X33575Y-49350
X33575Y-65350
X34350Y-31425
X34350Y-47425
X34350Y-63425
X34450Y-32475
X34450Y-33350
X34450Y-48475
X34450Y-49350
X34450Y-64475
X34450Y-65350
X35715Y-37485
X35715Y-53485
X35715Y-69485
X37200Y-31100
X37200Y-47100
X37200Y-63100
X37250Y-38700
X37250Y-54700
X37250Y-70700
X38200Y-33475
X38200Y-35475
X38200Y-49475
X38200Y-51475
X38200Y-65475
X38200Y-67475
X38225Y-34475
X38225Y-50475
X38225Y-66475
X38866Y-30283
X38866Y-46283
X38866Y-62283
X40975Y-28000
X40975Y-28925
X40975Y-44000
X40975Y-44925
X40975Y-60000
X40975Y-60925
X41175Y-31525
X41175Y-47525
X41175Y-63525
X41500Y-32375
X41500Y-48375
X41500Y-64375
X42000Y-28000
X42000Y-28925
X42000Y-44000
X42000Y-44925
X42000Y-60000
X42000Y-60925
X42145Y-35872
X42145Y-51872
X42145Y-67872
X42725Y-30875
X42725Y-46875
X42725Y-62875
X42925Y-37550
X42925Y-53550
X42925Y-69550
X43050Y-34150
X43050Y-50150
X43050Y-66150
X43600Y-38600
X43600Y-54600
X43600Y-70600
X44750Y-28425
X44750Y-44425
X44750Y-60425
X45550Y-37450
X45550Y-53450
X45550Y-69450
X46300Y-28425
X46300Y-44425
X46300Y-60425
X47575Y-29025
X47575Y-45025
X47575Y-61025
X48625Y-29025
X48625Y-45025
X48625Y-61025
X48650Y-31725
X48650Y-47725
X48650Y-63725
X48850Y-41350
X48850Y-57350
X48850Y-73350
X48900Y-32600
X48900Y-48600
X48900Y-64600
X50250Y-27700
X50250Y-30200
X50250Y-32500
X50250Y-36900
X50250Y-39075
X50250Y-41300
X50250Y-43700
X50250Y-46200
X50250Y-48500
X50250Y-52900
X50250Y-55075
X50250Y-57300
X50250Y-59700
X50250Y-62200
X50250Y-64500
X50250Y-68900
X50250Y-71075
X50250Y-73300
X52750Y-27700
X52750Y-41300
X52750Y-43700
X52750Y-57300
X52750Y-59700
X52750Y-73300
X53250Y-35900
X53250Y-36900
X53250Y-51900
X53250Y-52900
X53250Y-67900
X53250Y-68900
X54300Y-32025
X54300Y-48025
X54300Y-64025
X55750Y-27700
X55750Y-41300
X55750Y-43700
X55750Y-57300
X55750Y-59700
X55750Y-73300
X58200Y-30400
X58200Y-38600
X58200Y-46400
X58200Y-54600
X58200Y-62400
X58200Y-70600
X58400Y-27700
X58400Y-41300
X58400Y-43700
X58400Y-57300
X58400Y-59700
X58400Y-73300
X59500Y-30000
X59500Y-39000
X59500Y-46000
X59500Y-55000
X59500Y-62000
X59500Y-71000
T3
X27720Y-54950
X27720Y-56220
X28990Y-54950
X28990Y-56220
X30260Y-54950
X30260Y-56220
X31530Y-54950
X31530Y-56220
X32800Y-54950
X32800Y-56220
X27720Y-38950
X27720Y-40220
X28990Y-38950
X28990Y-40220
X30260Y-38950
X30260Y-40220
X31530Y-38950
X31530Y-40220
X32800Y-38950
X32800Y-40220
X27720Y-70950
X27720Y-72220
X28990Y-70950
X28990Y-72220
X30260Y-70950
X30260Y-72220
X31530Y-70950
X31530Y-72220
X32800Y-70950
X32800Y-72220
T4
X25412Y-32000
X25412Y-37000
X25412Y-48000
X25412Y-53000
X25412Y-64000
X25412Y-69000
T2
G00X22363Y-31000
M15
G01X23063Y-31000
M16
G05
G00X23063Y-38000
M15
G01X22363Y-38000
M16
G05
G00X22363Y-47000
M15
G01X23063Y-47000
M16
G05
G00X23063Y-54000
M15
G01X22363Y-54000
M16
G05
G00X22363Y-63000
M15
G01X23063Y-63000
M16
G05
G00X23063Y-70000
M15
G01X22363Y-70000
M16
G05
T0
M30
