G04 #@! TF.GenerationSoftware,KiCad,Pcbnew,(5.1.5)-3*
G04 #@! TF.CreationDate,2020-05-12T02:25:37+02:00*
G04 #@! TF.ProjectId,STRF,53545246-2e6b-4696-9361-645f70636258,rev?*
G04 #@! TF.SameCoordinates,Original*
G04 #@! TF.FileFunction,Copper,L2,Inr*
G04 #@! TF.FilePolarity,Positive*
%FSLAX46Y46*%
G04 Gerber Fmt 4.6, Leading zero omitted, Abs format (unit mm)*
G04 Created by KiCad (PCBNEW (5.1.5)-3) date 2020-05-12 02:25:37*
%MOMM*%
%LPD*%
G04 APERTURE LIST*
%ADD10C,1.450000*%
%ADD11O,1.900000X1.200000*%
%ADD12O,1.000000X1.000000*%
%ADD13R,1.000000X1.000000*%
%ADD14C,0.800000*%
%ADD15C,0.600000*%
%ADD16C,0.700000*%
%ADD17C,0.500000*%
%ADD18C,0.500000*%
%ADD19C,0.254000*%
G04 APERTURE END LIST*
D10*
X25412500Y-64000000D03*
X25412500Y-69000000D03*
D11*
X22712500Y-63000000D03*
X22712500Y-70000000D03*
D12*
X27720000Y-72220000D03*
X27720000Y-70950000D03*
X28990000Y-72220000D03*
X28990000Y-70950000D03*
X30260000Y-72220000D03*
X30260000Y-70950000D03*
X31530000Y-72220000D03*
X31530000Y-70950000D03*
X32800000Y-72220000D03*
D13*
X32800000Y-70950000D03*
D11*
X22712500Y-54000000D03*
X22712500Y-47000000D03*
D10*
X25412500Y-53000000D03*
X25412500Y-48000000D03*
D13*
X32800000Y-54950000D03*
D12*
X32800000Y-56220000D03*
X31530000Y-54950000D03*
X31530000Y-56220000D03*
X30260000Y-54950000D03*
X30260000Y-56220000D03*
X28990000Y-54950000D03*
X28990000Y-56220000D03*
X27720000Y-54950000D03*
X27720000Y-56220000D03*
X27720000Y-40220000D03*
X27720000Y-38950000D03*
X28990000Y-40220000D03*
X28990000Y-38950000D03*
X30260000Y-40220000D03*
X30260000Y-38950000D03*
X31530000Y-40220000D03*
X31530000Y-38950000D03*
X32800000Y-40220000D03*
D13*
X32800000Y-38950000D03*
D10*
X25412500Y-32000000D03*
X25412500Y-37000000D03*
D11*
X22712500Y-31000000D03*
X22712500Y-38000000D03*
D14*
X54300000Y-32025000D03*
D15*
X35715000Y-37485000D03*
D14*
X48625000Y-29025000D03*
X46300000Y-28425000D03*
X26325000Y-38500000D03*
X42725000Y-30875000D03*
X40975000Y-28925000D03*
X40975000Y-28000000D03*
X34350000Y-31425000D03*
X28000000Y-33350000D03*
X27075000Y-36200000D03*
X28100000Y-37200000D03*
X53250000Y-36900000D03*
X53250000Y-35900000D03*
X58200000Y-30400000D03*
X58200000Y-38600000D03*
X48850000Y-41350000D03*
X43600000Y-38600000D03*
X30600000Y-32975000D03*
X30600000Y-31475000D03*
D16*
X48900000Y-32600000D03*
D14*
X38225000Y-34475000D03*
X38200000Y-33475000D03*
X38200000Y-35475000D03*
X50250000Y-27700000D03*
X50250000Y-30200000D03*
X50250000Y-32500000D03*
X50250000Y-41300000D03*
X50250000Y-39075000D03*
X59500000Y-30000000D03*
X52750000Y-27700000D03*
X55750000Y-27700000D03*
X58400000Y-27700000D03*
X59500000Y-39000000D03*
X50250000Y-36900000D03*
D16*
X30350000Y-35100000D03*
D14*
X27075000Y-37200000D03*
X29100000Y-37200000D03*
D16*
X41500000Y-32375000D03*
D14*
X31900000Y-29600000D03*
X42000000Y-28000000D03*
X42000000Y-28925000D03*
X45550000Y-37450000D03*
X52750000Y-41300000D03*
X55750000Y-41300000D03*
X58400000Y-41300000D03*
X34350000Y-47425000D03*
X40975000Y-44000000D03*
X28000000Y-49350000D03*
X50250000Y-43700000D03*
X50250000Y-46200000D03*
X38200000Y-51475000D03*
X40975000Y-44925000D03*
X48850000Y-57350000D03*
X27075000Y-52200000D03*
X43600000Y-54600000D03*
X42725000Y-46875000D03*
X50250000Y-48500000D03*
X46300000Y-44425000D03*
X26325000Y-54500000D03*
X50250000Y-55075000D03*
X58200000Y-54600000D03*
X59500000Y-46000000D03*
X52750000Y-43700000D03*
X50250000Y-52900000D03*
D16*
X41500000Y-48375000D03*
X30350000Y-51100000D03*
D14*
X31900000Y-45600000D03*
X42000000Y-44925000D03*
X48625000Y-45025000D03*
X52750000Y-57300000D03*
X58400000Y-57300000D03*
X45550000Y-53450000D03*
X42000000Y-44000000D03*
X28100000Y-53200000D03*
X30600000Y-48975000D03*
X38200000Y-49475000D03*
X58400000Y-43700000D03*
X54300000Y-48025000D03*
X55750000Y-57300000D03*
X55750000Y-43700000D03*
X58200000Y-46400000D03*
X50250000Y-57300000D03*
X27075000Y-53200000D03*
X59500000Y-55000000D03*
X29100000Y-53200000D03*
X53250000Y-51900000D03*
X53250000Y-52900000D03*
X30600000Y-47475000D03*
D16*
X48900000Y-48600000D03*
D15*
X35715000Y-53485000D03*
D14*
X38225000Y-50475000D03*
X48850000Y-73350000D03*
X50250000Y-64500000D03*
X26325000Y-70500000D03*
X50250000Y-68900000D03*
X40975000Y-60000000D03*
X38200000Y-67475000D03*
X40975000Y-60925000D03*
X43600000Y-70600000D03*
X58200000Y-70600000D03*
X52750000Y-59700000D03*
X42725000Y-62875000D03*
X50250000Y-71075000D03*
X59500000Y-62000000D03*
X34350000Y-63425000D03*
X50250000Y-62200000D03*
X50250000Y-59700000D03*
X28000000Y-65350000D03*
X27075000Y-68200000D03*
X46300000Y-60425000D03*
D16*
X30350000Y-67100000D03*
D14*
X52750000Y-73300000D03*
X30600000Y-63475000D03*
X30600000Y-64975000D03*
X58400000Y-59700000D03*
X48625000Y-61025000D03*
X42000000Y-60000000D03*
X50250000Y-73300000D03*
X53250000Y-67900000D03*
X54300000Y-64025000D03*
X29100000Y-69200000D03*
X45550000Y-69450000D03*
D16*
X48900000Y-64600000D03*
D14*
X58200000Y-62400000D03*
D15*
X35715000Y-69485000D03*
D14*
X27075000Y-69200000D03*
X42000000Y-60925000D03*
X53250000Y-68900000D03*
X28100000Y-69200000D03*
X55750000Y-73300000D03*
X38225000Y-66475000D03*
X58400000Y-73300000D03*
X55750000Y-59700000D03*
X59500000Y-71000000D03*
D16*
X41500000Y-64375000D03*
D14*
X31900000Y-61600000D03*
X38200000Y-65475000D03*
D15*
X37250000Y-38700000D03*
X37200000Y-31100000D03*
D14*
X47575000Y-29025000D03*
D16*
X48650000Y-31725000D03*
D14*
X32700000Y-33350000D03*
X44750000Y-28425000D03*
X42925000Y-37550000D03*
X33575000Y-33350000D03*
X34450000Y-33350000D03*
X34450000Y-32475000D03*
D16*
X41175000Y-31525000D03*
D15*
X37250000Y-54700000D03*
X37200000Y-47100000D03*
D14*
X33575000Y-49350000D03*
X42925000Y-53550000D03*
X32700000Y-49350000D03*
D16*
X41175000Y-47525000D03*
D14*
X34450000Y-49350000D03*
X44750000Y-44425000D03*
D16*
X48650000Y-47725000D03*
D14*
X47575000Y-45025000D03*
X34450000Y-48475000D03*
D15*
X37250000Y-70700000D03*
D14*
X33575000Y-65350000D03*
X44750000Y-60425000D03*
D16*
X48650000Y-63725000D03*
D14*
X47575000Y-61025000D03*
X34450000Y-64475000D03*
D16*
X41175000Y-63525000D03*
D15*
X37200000Y-63100000D03*
D14*
X42925000Y-69550000D03*
X32700000Y-65350000D03*
X34450000Y-65350000D03*
D15*
X38866275Y-30282975D03*
X38866275Y-46282975D03*
X38866275Y-62282975D03*
D17*
X28400000Y-35100000D03*
D15*
X27050000Y-33550000D03*
D17*
X28400000Y-51100000D03*
D15*
X27050000Y-49550000D03*
D17*
X28400000Y-67100000D03*
D15*
X27050000Y-65550000D03*
X43050000Y-34150000D03*
X42145420Y-35871685D03*
X43050000Y-50150000D03*
X42145420Y-51871685D03*
X43050000Y-66150000D03*
X42145420Y-67871685D03*
D18*
X43600000Y-38600000D02*
X42000000Y-38600000D01*
X43600000Y-54600000D02*
X42000000Y-54600000D01*
X43600000Y-70600000D02*
X42000000Y-70600000D01*
D19*
G36*
X46948000Y-36825000D02*
G01*
X46950440Y-36849776D01*
X46957667Y-36873601D01*
X46969403Y-36895557D01*
X46985197Y-36914803D01*
X47004443Y-36930597D01*
X47026399Y-36942333D01*
X47050224Y-36949560D01*
X47075000Y-36952000D01*
X48273000Y-36952000D01*
X48273000Y-38800000D01*
X48275440Y-38824776D01*
X48282667Y-38848601D01*
X48294403Y-38870557D01*
X48310197Y-38889803D01*
X48329443Y-38905597D01*
X48351399Y-38917333D01*
X48375224Y-38924560D01*
X48400000Y-38927000D01*
X49273000Y-38927000D01*
X49273000Y-41566446D01*
X42927000Y-41546860D01*
X42927000Y-38331000D01*
X43001922Y-38331000D01*
X43152809Y-38300987D01*
X43294942Y-38242113D01*
X43392391Y-38177000D01*
X46225000Y-38177000D01*
X46249776Y-38174560D01*
X46273601Y-38167333D01*
X46295557Y-38155597D01*
X46314803Y-38139803D01*
X46330597Y-38120557D01*
X46342333Y-38098601D01*
X46349560Y-38074776D01*
X46352000Y-38050000D01*
X46352000Y-35877000D01*
X46948000Y-35877000D01*
X46948000Y-36825000D01*
G37*
X46948000Y-36825000D02*
X46950440Y-36849776D01*
X46957667Y-36873601D01*
X46969403Y-36895557D01*
X46985197Y-36914803D01*
X47004443Y-36930597D01*
X47026399Y-36942333D01*
X47050224Y-36949560D01*
X47075000Y-36952000D01*
X48273000Y-36952000D01*
X48273000Y-38800000D01*
X48275440Y-38824776D01*
X48282667Y-38848601D01*
X48294403Y-38870557D01*
X48310197Y-38889803D01*
X48329443Y-38905597D01*
X48351399Y-38917333D01*
X48375224Y-38924560D01*
X48400000Y-38927000D01*
X49273000Y-38927000D01*
X49273000Y-41566446D01*
X42927000Y-41546860D01*
X42927000Y-38331000D01*
X43001922Y-38331000D01*
X43152809Y-38300987D01*
X43294942Y-38242113D01*
X43392391Y-38177000D01*
X46225000Y-38177000D01*
X46249776Y-38174560D01*
X46273601Y-38167333D01*
X46295557Y-38155597D01*
X46314803Y-38139803D01*
X46330597Y-38120557D01*
X46342333Y-38098601D01*
X46349560Y-38074776D01*
X46352000Y-38050000D01*
X46352000Y-35877000D01*
X46948000Y-35877000D01*
X46948000Y-36825000D01*
G36*
X58509229Y-27438267D02*
G01*
X58806688Y-27528075D01*
X59081028Y-27673945D01*
X59321813Y-27870325D01*
X59519873Y-28109736D01*
X59667654Y-28383053D01*
X59759535Y-28679872D01*
X59794001Y-29007792D01*
X59794000Y-31619940D01*
X59794001Y-31619950D01*
X59794000Y-34480059D01*
X59794000Y-34480060D01*
X59794001Y-39980136D01*
X59761733Y-40309230D01*
X59671926Y-40606684D01*
X59526056Y-40881025D01*
X59329675Y-41121813D01*
X59090265Y-41319871D01*
X58816948Y-41467654D01*
X58520128Y-41559535D01*
X58192453Y-41593975D01*
X49927000Y-41568464D01*
X49927000Y-36250000D01*
X49924560Y-36225224D01*
X49917333Y-36201399D01*
X49905597Y-36179443D01*
X49889803Y-36160197D01*
X49870557Y-36144403D01*
X49848601Y-36132667D01*
X49824776Y-36125440D01*
X49800000Y-36123000D01*
X47877000Y-36123000D01*
X47877000Y-35250000D01*
X47874560Y-35225224D01*
X47867333Y-35201399D01*
X47855597Y-35179443D01*
X47839803Y-35160197D01*
X47820557Y-35144403D01*
X47798601Y-35132667D01*
X47774776Y-35125440D01*
X47750000Y-35123000D01*
X45900000Y-35123000D01*
X45875224Y-35125440D01*
X45851399Y-35132667D01*
X45829443Y-35144403D01*
X45810197Y-35160197D01*
X45794403Y-35179443D01*
X45782667Y-35201399D01*
X45775440Y-35225224D01*
X45773000Y-35250000D01*
X45773000Y-37673000D01*
X43696835Y-37673000D01*
X43706000Y-37626922D01*
X43706000Y-37473078D01*
X43675987Y-37322191D01*
X43617113Y-37180058D01*
X43531642Y-37052141D01*
X43422859Y-36943358D01*
X43294942Y-36857887D01*
X43152809Y-36799013D01*
X43001922Y-36769000D01*
X42848078Y-36769000D01*
X42697191Y-36799013D01*
X42555058Y-36857887D01*
X42427141Y-36943358D01*
X42318358Y-37052141D01*
X42232887Y-37180058D01*
X42174013Y-37322191D01*
X42144000Y-37473078D01*
X42144000Y-37626922D01*
X42174013Y-37777809D01*
X42198000Y-37835718D01*
X42198000Y-41544610D01*
X42020572Y-41544062D01*
X42000000Y-41542036D01*
X41960601Y-41545917D01*
X41921646Y-41549632D01*
X41921044Y-41549813D01*
X41920410Y-41549875D01*
X41882557Y-41561358D01*
X41845044Y-41572610D01*
X41844487Y-41572906D01*
X41843879Y-41573090D01*
X41808909Y-41591782D01*
X41774396Y-41610093D01*
X41773911Y-41610489D01*
X41773347Y-41610790D01*
X41742635Y-41635995D01*
X41712418Y-41660638D01*
X41712018Y-41661122D01*
X41711526Y-41661526D01*
X41686413Y-41692127D01*
X41661492Y-41722302D01*
X41661193Y-41722856D01*
X41660790Y-41723348D01*
X41642177Y-41758171D01*
X41623574Y-41792717D01*
X41623389Y-41793321D01*
X41623090Y-41793880D01*
X41611640Y-41831627D01*
X41600123Y-41869176D01*
X41600059Y-41869804D01*
X41599875Y-41870411D01*
X41599705Y-41872138D01*
X40950359Y-41871367D01*
X40950151Y-41870671D01*
X40950125Y-41870410D01*
X40945756Y-41856008D01*
X40927429Y-41794854D01*
X40889965Y-41724197D01*
X40839436Y-41662207D01*
X40777785Y-41611264D01*
X40707379Y-41573329D01*
X40630926Y-41549858D01*
X40571297Y-41543783D01*
X40567612Y-41543771D01*
X40550000Y-41542036D01*
X40533544Y-41543657D01*
X31220622Y-41512522D01*
X31200000Y-41510491D01*
X31160718Y-41514360D01*
X31121749Y-41518067D01*
X31121097Y-41518262D01*
X31120411Y-41518330D01*
X31082612Y-41529796D01*
X31045140Y-41541026D01*
X31044537Y-41541346D01*
X31043880Y-41541545D01*
X31009094Y-41560138D01*
X30974483Y-41578490D01*
X30973954Y-41578921D01*
X30973348Y-41579245D01*
X30942836Y-41604286D01*
X30912493Y-41629019D01*
X30912059Y-41629545D01*
X30911527Y-41629981D01*
X30886546Y-41660420D01*
X30861550Y-41690670D01*
X30861225Y-41691273D01*
X30860791Y-41691802D01*
X30842270Y-41726452D01*
X30823615Y-41761075D01*
X30823414Y-41761730D01*
X30823091Y-41762334D01*
X30811690Y-41799920D01*
X30800144Y-41837528D01*
X30800074Y-41838211D01*
X30799876Y-41838865D01*
X30797862Y-41859310D01*
X29802114Y-41858127D01*
X29800300Y-41839153D01*
X29800130Y-41838586D01*
X29800071Y-41837989D01*
X29788567Y-41800070D01*
X29777304Y-41762556D01*
X29777026Y-41762032D01*
X29776852Y-41761459D01*
X29758197Y-41726562D01*
X29739806Y-41691916D01*
X29739431Y-41691456D01*
X29739149Y-41690929D01*
X29714146Y-41660467D01*
X29689248Y-41629950D01*
X29688787Y-41629570D01*
X29688410Y-41629110D01*
X29657998Y-41604153D01*
X29627572Y-41579037D01*
X29627047Y-41578754D01*
X29626587Y-41578377D01*
X29591778Y-41559773D01*
X29557148Y-41541136D01*
X29556581Y-41540962D01*
X29556053Y-41540680D01*
X29518260Y-41529218D01*
X29480684Y-41517702D01*
X29480091Y-41517642D01*
X29479521Y-41517469D01*
X29440446Y-41513622D01*
X29421052Y-41511656D01*
X29420454Y-41511654D01*
X29399932Y-41509634D01*
X29380585Y-41511540D01*
X23270437Y-41494057D01*
X22940770Y-41461733D01*
X22643316Y-41371926D01*
X22368975Y-41226056D01*
X22128187Y-41029675D01*
X21930129Y-40790265D01*
X21782346Y-40516948D01*
X21690465Y-40220128D01*
X21656000Y-39892218D01*
X21656000Y-39251876D01*
X26625874Y-39251876D01*
X26705790Y-39459529D01*
X26824682Y-39647601D01*
X26952824Y-39782402D01*
X26939268Y-39802690D01*
X26872856Y-39963022D01*
X26839000Y-40133229D01*
X26839000Y-40306771D01*
X26872856Y-40476978D01*
X26939268Y-40637310D01*
X27035682Y-40781605D01*
X27158395Y-40904318D01*
X27302690Y-41000732D01*
X27463022Y-41067144D01*
X27633229Y-41101000D01*
X27806771Y-41101000D01*
X27976978Y-41067144D01*
X28137310Y-41000732D01*
X28281605Y-40904318D01*
X28355000Y-40830923D01*
X28428395Y-40904318D01*
X28572690Y-41000732D01*
X28733022Y-41067144D01*
X28903229Y-41101000D01*
X29076771Y-41101000D01*
X29246978Y-41067144D01*
X29407310Y-41000732D01*
X29551605Y-40904318D01*
X29625000Y-40830923D01*
X29698395Y-40904318D01*
X29842690Y-41000732D01*
X30003022Y-41067144D01*
X30173229Y-41101000D01*
X30346771Y-41101000D01*
X30516978Y-41067144D01*
X30677310Y-41000732D01*
X30821605Y-40904318D01*
X30895000Y-40830923D01*
X30968395Y-40904318D01*
X31112690Y-41000732D01*
X31273022Y-41067144D01*
X31443229Y-41101000D01*
X31616771Y-41101000D01*
X31786978Y-41067144D01*
X31947310Y-41000732D01*
X32091605Y-40904318D01*
X32165000Y-40830923D01*
X32238395Y-40904318D01*
X32382690Y-41000732D01*
X32543022Y-41067144D01*
X32713229Y-41101000D01*
X32886771Y-41101000D01*
X33056978Y-41067144D01*
X33217310Y-41000732D01*
X33361605Y-40904318D01*
X33484318Y-40781605D01*
X33580732Y-40637310D01*
X33647144Y-40476978D01*
X33681000Y-40306771D01*
X33681000Y-40133229D01*
X33647144Y-39963022D01*
X33580732Y-39802690D01*
X33541806Y-39744432D01*
X33570711Y-39720711D01*
X33618322Y-39662696D01*
X33653701Y-39596508D01*
X33675487Y-39524689D01*
X33682843Y-39450000D01*
X33682843Y-38632927D01*
X36569000Y-38632927D01*
X36569000Y-38767073D01*
X36595171Y-38898640D01*
X36646506Y-39022574D01*
X36721033Y-39134112D01*
X36815888Y-39228967D01*
X36927426Y-39303494D01*
X37051360Y-39354829D01*
X37182927Y-39381000D01*
X37317073Y-39381000D01*
X37448640Y-39354829D01*
X37572574Y-39303494D01*
X37684112Y-39228967D01*
X37778967Y-39134112D01*
X37853494Y-39022574D01*
X37904829Y-38898640D01*
X37931000Y-38767073D01*
X37931000Y-38632927D01*
X37904829Y-38501360D01*
X37853494Y-38377426D01*
X37778967Y-38265888D01*
X37684112Y-38171033D01*
X37572574Y-38096506D01*
X37448640Y-38045171D01*
X37317073Y-38019000D01*
X37182927Y-38019000D01*
X37051360Y-38045171D01*
X36927426Y-38096506D01*
X36815888Y-38171033D01*
X36721033Y-38265888D01*
X36646506Y-38377426D01*
X36595171Y-38501360D01*
X36569000Y-38632927D01*
X33682843Y-38632927D01*
X33682843Y-38450000D01*
X33675487Y-38375311D01*
X33653701Y-38303492D01*
X33618322Y-38237304D01*
X33570711Y-38179289D01*
X33512696Y-38131678D01*
X33446508Y-38096299D01*
X33374689Y-38074513D01*
X33300000Y-38067157D01*
X32300000Y-38067157D01*
X32245622Y-38072513D01*
X32090206Y-37962877D01*
X31886864Y-37872554D01*
X31831874Y-37855881D01*
X31657000Y-37982046D01*
X31657000Y-38823000D01*
X31677000Y-38823000D01*
X31677000Y-39077000D01*
X31657000Y-39077000D01*
X31657000Y-39097000D01*
X31403000Y-39097000D01*
X31403000Y-39077000D01*
X30387000Y-39077000D01*
X30387000Y-39097000D01*
X30133000Y-39097000D01*
X30133000Y-39077000D01*
X30113000Y-39077000D01*
X30113000Y-38823000D01*
X30133000Y-38823000D01*
X30133000Y-37982046D01*
X30387000Y-37982046D01*
X30387000Y-38823000D01*
X31403000Y-38823000D01*
X31403000Y-37982046D01*
X31228126Y-37855881D01*
X31173136Y-37872554D01*
X30969794Y-37962877D01*
X30895000Y-38015639D01*
X30820206Y-37962877D01*
X30616864Y-37872554D01*
X30561874Y-37855881D01*
X30387000Y-37982046D01*
X30133000Y-37982046D01*
X29958126Y-37855881D01*
X29903136Y-37872554D01*
X29699794Y-37962877D01*
X29517980Y-38091135D01*
X29429569Y-38184141D01*
X29407310Y-38169268D01*
X29246978Y-38102856D01*
X29076771Y-38069000D01*
X28903229Y-38069000D01*
X28733022Y-38102856D01*
X28572690Y-38169268D01*
X28550431Y-38184141D01*
X28462020Y-38091135D01*
X28280206Y-37962877D01*
X28076864Y-37872554D01*
X28021874Y-37855881D01*
X27847000Y-37982046D01*
X27847000Y-38823000D01*
X27867000Y-38823000D01*
X27867000Y-39077000D01*
X27847000Y-39077000D01*
X27847000Y-39097000D01*
X27593000Y-39097000D01*
X27593000Y-39077000D01*
X26750871Y-39077000D01*
X26625874Y-39251876D01*
X21656000Y-39251876D01*
X21656000Y-38685486D01*
X21665472Y-38697028D01*
X21814849Y-38819618D01*
X21985271Y-38910711D01*
X22170190Y-38966805D01*
X22314313Y-38981000D01*
X23110687Y-38981000D01*
X23254810Y-38966805D01*
X23439729Y-38910711D01*
X23610151Y-38819618D01*
X23759528Y-38697028D01*
X23799662Y-38648124D01*
X26625874Y-38648124D01*
X26750871Y-38823000D01*
X27593000Y-38823000D01*
X27593000Y-37982046D01*
X27418126Y-37855881D01*
X27363136Y-37872554D01*
X27159794Y-37962877D01*
X26977980Y-38091135D01*
X26824682Y-38252399D01*
X26705790Y-38440471D01*
X26625874Y-38648124D01*
X23799662Y-38648124D01*
X23882118Y-38547651D01*
X23973211Y-38377229D01*
X24029305Y-38192310D01*
X24048246Y-38000000D01*
X24029305Y-37807690D01*
X23973211Y-37622771D01*
X23882118Y-37452349D01*
X23759528Y-37302972D01*
X23610151Y-37180382D01*
X23439729Y-37089289D01*
X23254810Y-37033195D01*
X23110687Y-37019000D01*
X22314313Y-37019000D01*
X22170190Y-37033195D01*
X21985271Y-37089289D01*
X21814849Y-37180382D01*
X21665472Y-37302972D01*
X21656000Y-37314514D01*
X21656000Y-36891069D01*
X24306500Y-36891069D01*
X24306500Y-37108931D01*
X24349003Y-37322608D01*
X24432376Y-37523887D01*
X24553414Y-37705034D01*
X24707466Y-37859086D01*
X24888613Y-37980124D01*
X25089892Y-38063497D01*
X25303569Y-38106000D01*
X25521431Y-38106000D01*
X25735108Y-38063497D01*
X25936387Y-37980124D01*
X26117534Y-37859086D01*
X26271586Y-37705034D01*
X26392624Y-37523887D01*
X26475997Y-37322608D01*
X26518500Y-37108931D01*
X26518500Y-36891069D01*
X26475997Y-36677392D01*
X26392624Y-36476113D01*
X26271586Y-36294966D01*
X26117534Y-36140914D01*
X25936387Y-36019876D01*
X25735108Y-35936503D01*
X25521431Y-35894000D01*
X25303569Y-35894000D01*
X25089892Y-35936503D01*
X24888613Y-36019876D01*
X24707466Y-36140914D01*
X24553414Y-36294966D01*
X24432376Y-36476113D01*
X24349003Y-36677392D01*
X24306500Y-36891069D01*
X21656000Y-36891069D01*
X21656000Y-35804612D01*
X41464420Y-35804612D01*
X41464420Y-35938758D01*
X41490591Y-36070325D01*
X41541926Y-36194259D01*
X41616453Y-36305797D01*
X41711308Y-36400652D01*
X41822846Y-36475179D01*
X41946780Y-36526514D01*
X42078347Y-36552685D01*
X42212493Y-36552685D01*
X42344060Y-36526514D01*
X42467994Y-36475179D01*
X42579532Y-36400652D01*
X42674387Y-36305797D01*
X42748914Y-36194259D01*
X42800249Y-36070325D01*
X42826420Y-35938758D01*
X42826420Y-35804612D01*
X42800249Y-35673045D01*
X42748914Y-35549111D01*
X42674387Y-35437573D01*
X42579532Y-35342718D01*
X42467994Y-35268191D01*
X42344060Y-35216856D01*
X42212493Y-35190685D01*
X42078347Y-35190685D01*
X41946780Y-35216856D01*
X41822846Y-35268191D01*
X41711308Y-35342718D01*
X41616453Y-35437573D01*
X41541926Y-35549111D01*
X41490591Y-35673045D01*
X41464420Y-35804612D01*
X21656000Y-35804612D01*
X21656000Y-35037852D01*
X27769000Y-35037852D01*
X27769000Y-35162148D01*
X27793249Y-35284056D01*
X27840815Y-35398891D01*
X27909870Y-35502239D01*
X27997761Y-35590130D01*
X28101109Y-35659185D01*
X28215944Y-35706751D01*
X28337852Y-35731000D01*
X28462148Y-35731000D01*
X28584056Y-35706751D01*
X28698891Y-35659185D01*
X28802239Y-35590130D01*
X28890130Y-35502239D01*
X28959185Y-35398891D01*
X29006751Y-35284056D01*
X29031000Y-35162148D01*
X29031000Y-35037852D01*
X29006751Y-34915944D01*
X28959185Y-34801109D01*
X28890130Y-34697761D01*
X28802239Y-34609870D01*
X28698891Y-34540815D01*
X28584056Y-34493249D01*
X28462148Y-34469000D01*
X28337852Y-34469000D01*
X28215944Y-34493249D01*
X28101109Y-34540815D01*
X27997761Y-34609870D01*
X27909870Y-34697761D01*
X27840815Y-34801109D01*
X27793249Y-34915944D01*
X27769000Y-35037852D01*
X21656000Y-35037852D01*
X21656000Y-33482927D01*
X26369000Y-33482927D01*
X26369000Y-33617073D01*
X26395171Y-33748640D01*
X26446506Y-33872574D01*
X26521033Y-33984112D01*
X26615888Y-34078967D01*
X26727426Y-34153494D01*
X26851360Y-34204829D01*
X26982927Y-34231000D01*
X27117073Y-34231000D01*
X27248640Y-34204829D01*
X27372574Y-34153494D01*
X27484112Y-34078967D01*
X27578967Y-33984112D01*
X27653494Y-33872574D01*
X27704829Y-33748640D01*
X27731000Y-33617073D01*
X27731000Y-33482927D01*
X27704829Y-33351360D01*
X27672404Y-33273078D01*
X31919000Y-33273078D01*
X31919000Y-33426922D01*
X31949013Y-33577809D01*
X32007887Y-33719942D01*
X32093358Y-33847859D01*
X32202141Y-33956642D01*
X32330058Y-34042113D01*
X32472191Y-34100987D01*
X32623078Y-34131000D01*
X32776922Y-34131000D01*
X32927809Y-34100987D01*
X33069942Y-34042113D01*
X33137500Y-33996972D01*
X33205058Y-34042113D01*
X33347191Y-34100987D01*
X33498078Y-34131000D01*
X33651922Y-34131000D01*
X33802809Y-34100987D01*
X33944942Y-34042113D01*
X34012500Y-33996972D01*
X34080058Y-34042113D01*
X34222191Y-34100987D01*
X34373078Y-34131000D01*
X34526922Y-34131000D01*
X34677809Y-34100987D01*
X34721409Y-34082927D01*
X42369000Y-34082927D01*
X42369000Y-34217073D01*
X42395171Y-34348640D01*
X42446506Y-34472574D01*
X42521033Y-34584112D01*
X42615888Y-34678967D01*
X42727426Y-34753494D01*
X42851360Y-34804829D01*
X42982927Y-34831000D01*
X43117073Y-34831000D01*
X43248640Y-34804829D01*
X43372574Y-34753494D01*
X43484112Y-34678967D01*
X43578967Y-34584112D01*
X43653494Y-34472574D01*
X43704829Y-34348640D01*
X43731000Y-34217073D01*
X43731000Y-34082927D01*
X43704829Y-33951360D01*
X43653494Y-33827426D01*
X43578967Y-33715888D01*
X43484112Y-33621033D01*
X43372574Y-33546506D01*
X43248640Y-33495171D01*
X43117073Y-33469000D01*
X42982927Y-33469000D01*
X42851360Y-33495171D01*
X42727426Y-33546506D01*
X42615888Y-33621033D01*
X42521033Y-33715888D01*
X42446506Y-33827426D01*
X42395171Y-33951360D01*
X42369000Y-34082927D01*
X34721409Y-34082927D01*
X34819942Y-34042113D01*
X34947859Y-33956642D01*
X35056642Y-33847859D01*
X35142113Y-33719942D01*
X35200987Y-33577809D01*
X35231000Y-33426922D01*
X35231000Y-33273078D01*
X35200987Y-33122191D01*
X35142113Y-32980058D01*
X35096972Y-32912500D01*
X35142113Y-32844942D01*
X35200987Y-32702809D01*
X35231000Y-32551922D01*
X35231000Y-32398078D01*
X35200987Y-32247191D01*
X35142113Y-32105058D01*
X35056642Y-31977141D01*
X34947859Y-31868358D01*
X34819942Y-31782887D01*
X34677809Y-31724013D01*
X34526922Y-31694000D01*
X34373078Y-31694000D01*
X34222191Y-31724013D01*
X34080058Y-31782887D01*
X33952141Y-31868358D01*
X33843358Y-31977141D01*
X33757887Y-32105058D01*
X33699013Y-32247191D01*
X33669000Y-32398078D01*
X33669000Y-32551922D01*
X33673240Y-32573240D01*
X33651922Y-32569000D01*
X33498078Y-32569000D01*
X33347191Y-32599013D01*
X33205058Y-32657887D01*
X33137500Y-32703028D01*
X33069942Y-32657887D01*
X32927809Y-32599013D01*
X32776922Y-32569000D01*
X32623078Y-32569000D01*
X32472191Y-32599013D01*
X32330058Y-32657887D01*
X32202141Y-32743358D01*
X32093358Y-32852141D01*
X32007887Y-32980058D01*
X31949013Y-33122191D01*
X31919000Y-33273078D01*
X27672404Y-33273078D01*
X27653494Y-33227426D01*
X27578967Y-33115888D01*
X27484112Y-33021033D01*
X27372574Y-32946506D01*
X27248640Y-32895171D01*
X27117073Y-32869000D01*
X26982927Y-32869000D01*
X26851360Y-32895171D01*
X26727426Y-32946506D01*
X26615888Y-33021033D01*
X26521033Y-33115888D01*
X26446506Y-33227426D01*
X26395171Y-33351360D01*
X26369000Y-33482927D01*
X21656000Y-33482927D01*
X21656000Y-31685486D01*
X21665472Y-31697028D01*
X21814849Y-31819618D01*
X21985271Y-31910711D01*
X22170190Y-31966805D01*
X22314313Y-31981000D01*
X23110687Y-31981000D01*
X23254810Y-31966805D01*
X23439729Y-31910711D01*
X23476476Y-31891069D01*
X24306500Y-31891069D01*
X24306500Y-32108931D01*
X24349003Y-32322608D01*
X24432376Y-32523887D01*
X24553414Y-32705034D01*
X24707466Y-32859086D01*
X24888613Y-32980124D01*
X25089892Y-33063497D01*
X25303569Y-33106000D01*
X25521431Y-33106000D01*
X25735108Y-33063497D01*
X25936387Y-32980124D01*
X26117534Y-32859086D01*
X26271586Y-32705034D01*
X26392624Y-32523887D01*
X26475997Y-32322608D01*
X26518500Y-32108931D01*
X26518500Y-31891069D01*
X26475997Y-31677392D01*
X26392624Y-31476113D01*
X26271586Y-31294966D01*
X26117534Y-31140914D01*
X25955920Y-31032927D01*
X36519000Y-31032927D01*
X36519000Y-31167073D01*
X36545171Y-31298640D01*
X36596506Y-31422574D01*
X36671033Y-31534112D01*
X36765888Y-31628967D01*
X36877426Y-31703494D01*
X37001360Y-31754829D01*
X37132927Y-31781000D01*
X37267073Y-31781000D01*
X37398640Y-31754829D01*
X37522574Y-31703494D01*
X37634112Y-31628967D01*
X37728967Y-31534112D01*
X37783162Y-31453003D01*
X40444000Y-31453003D01*
X40444000Y-31596997D01*
X40472092Y-31738225D01*
X40527196Y-31871258D01*
X40607195Y-31990985D01*
X40709015Y-32092805D01*
X40828742Y-32172804D01*
X40961775Y-32227908D01*
X41103003Y-32256000D01*
X41246997Y-32256000D01*
X41388225Y-32227908D01*
X41521258Y-32172804D01*
X41640985Y-32092805D01*
X41742805Y-31990985D01*
X41822804Y-31871258D01*
X41877908Y-31738225D01*
X41894859Y-31653003D01*
X47919000Y-31653003D01*
X47919000Y-31796997D01*
X47947092Y-31938225D01*
X48002196Y-32071258D01*
X48082195Y-32190985D01*
X48184015Y-32292805D01*
X48303742Y-32372804D01*
X48436775Y-32427908D01*
X48578003Y-32456000D01*
X48721997Y-32456000D01*
X48863225Y-32427908D01*
X48996258Y-32372804D01*
X49115985Y-32292805D01*
X49217805Y-32190985D01*
X49297804Y-32071258D01*
X49352908Y-31938225D01*
X49381000Y-31796997D01*
X49381000Y-31653003D01*
X49352908Y-31511775D01*
X49297804Y-31378742D01*
X49217805Y-31259015D01*
X49115985Y-31157195D01*
X48996258Y-31077196D01*
X48863225Y-31022092D01*
X48721997Y-30994000D01*
X48578003Y-30994000D01*
X48436775Y-31022092D01*
X48303742Y-31077196D01*
X48184015Y-31157195D01*
X48082195Y-31259015D01*
X48002196Y-31378742D01*
X47947092Y-31511775D01*
X47919000Y-31653003D01*
X41894859Y-31653003D01*
X41906000Y-31596997D01*
X41906000Y-31453003D01*
X41877908Y-31311775D01*
X41822804Y-31178742D01*
X41742805Y-31059015D01*
X41640985Y-30957195D01*
X41521258Y-30877196D01*
X41388225Y-30822092D01*
X41246997Y-30794000D01*
X41103003Y-30794000D01*
X40961775Y-30822092D01*
X40828742Y-30877196D01*
X40709015Y-30957195D01*
X40607195Y-31059015D01*
X40527196Y-31178742D01*
X40472092Y-31311775D01*
X40444000Y-31453003D01*
X37783162Y-31453003D01*
X37803494Y-31422574D01*
X37854829Y-31298640D01*
X37881000Y-31167073D01*
X37881000Y-31032927D01*
X37854829Y-30901360D01*
X37803494Y-30777426D01*
X37728967Y-30665888D01*
X37634112Y-30571033D01*
X37522574Y-30496506D01*
X37398640Y-30445171D01*
X37267073Y-30419000D01*
X37132927Y-30419000D01*
X37001360Y-30445171D01*
X36877426Y-30496506D01*
X36765888Y-30571033D01*
X36671033Y-30665888D01*
X36596506Y-30777426D01*
X36545171Y-30901360D01*
X36519000Y-31032927D01*
X25955920Y-31032927D01*
X25936387Y-31019876D01*
X25735108Y-30936503D01*
X25521431Y-30894000D01*
X25303569Y-30894000D01*
X25089892Y-30936503D01*
X24888613Y-31019876D01*
X24707466Y-31140914D01*
X24553414Y-31294966D01*
X24432376Y-31476113D01*
X24349003Y-31677392D01*
X24306500Y-31891069D01*
X23476476Y-31891069D01*
X23610151Y-31819618D01*
X23759528Y-31697028D01*
X23882118Y-31547651D01*
X23973211Y-31377229D01*
X24029305Y-31192310D01*
X24048246Y-31000000D01*
X24029305Y-30807690D01*
X23973211Y-30622771D01*
X23882118Y-30452349D01*
X23759528Y-30302972D01*
X23653433Y-30215902D01*
X38185275Y-30215902D01*
X38185275Y-30350048D01*
X38211446Y-30481615D01*
X38262781Y-30605549D01*
X38337308Y-30717087D01*
X38432163Y-30811942D01*
X38543701Y-30886469D01*
X38667635Y-30937804D01*
X38799202Y-30963975D01*
X38933348Y-30963975D01*
X39064915Y-30937804D01*
X39188849Y-30886469D01*
X39300387Y-30811942D01*
X39395242Y-30717087D01*
X39469769Y-30605549D01*
X39521104Y-30481615D01*
X39547275Y-30350048D01*
X39547275Y-30215902D01*
X39521104Y-30084335D01*
X39469769Y-29960401D01*
X39395242Y-29848863D01*
X39300387Y-29754008D01*
X39188849Y-29679481D01*
X39064915Y-29628146D01*
X38933348Y-29601975D01*
X38799202Y-29601975D01*
X38667635Y-29628146D01*
X38543701Y-29679481D01*
X38432163Y-29754008D01*
X38337308Y-29848863D01*
X38262781Y-29960401D01*
X38211446Y-30084335D01*
X38185275Y-30215902D01*
X23653433Y-30215902D01*
X23610151Y-30180382D01*
X23439729Y-30089289D01*
X23254810Y-30033195D01*
X23110687Y-30019000D01*
X22314313Y-30019000D01*
X22170190Y-30033195D01*
X21985271Y-30089289D01*
X21814849Y-30180382D01*
X21665472Y-30302972D01*
X21656000Y-30314514D01*
X21656000Y-29019854D01*
X21688267Y-28690771D01*
X21778075Y-28393312D01*
X21802126Y-28348078D01*
X43969000Y-28348078D01*
X43969000Y-28501922D01*
X43999013Y-28652809D01*
X44057887Y-28794942D01*
X44143358Y-28922859D01*
X44252141Y-29031642D01*
X44380058Y-29117113D01*
X44522191Y-29175987D01*
X44673078Y-29206000D01*
X44826922Y-29206000D01*
X44977809Y-29175987D01*
X45119942Y-29117113D01*
X45247859Y-29031642D01*
X45331423Y-28948078D01*
X46794000Y-28948078D01*
X46794000Y-29101922D01*
X46824013Y-29252809D01*
X46882887Y-29394942D01*
X46968358Y-29522859D01*
X47077141Y-29631642D01*
X47205058Y-29717113D01*
X47347191Y-29775987D01*
X47498078Y-29806000D01*
X47651922Y-29806000D01*
X47802809Y-29775987D01*
X47944942Y-29717113D01*
X48072859Y-29631642D01*
X48181642Y-29522859D01*
X48267113Y-29394942D01*
X48325987Y-29252809D01*
X48356000Y-29101922D01*
X48356000Y-28948078D01*
X48325987Y-28797191D01*
X48267113Y-28655058D01*
X48181642Y-28527141D01*
X48072859Y-28418358D01*
X47944942Y-28332887D01*
X47802809Y-28274013D01*
X47651922Y-28244000D01*
X47498078Y-28244000D01*
X47347191Y-28274013D01*
X47205058Y-28332887D01*
X47077141Y-28418358D01*
X46968358Y-28527141D01*
X46882887Y-28655058D01*
X46824013Y-28797191D01*
X46794000Y-28948078D01*
X45331423Y-28948078D01*
X45356642Y-28922859D01*
X45442113Y-28794942D01*
X45500987Y-28652809D01*
X45531000Y-28501922D01*
X45531000Y-28348078D01*
X45500987Y-28197191D01*
X45442113Y-28055058D01*
X45356642Y-27927141D01*
X45247859Y-27818358D01*
X45119942Y-27732887D01*
X44977809Y-27674013D01*
X44826922Y-27644000D01*
X44673078Y-27644000D01*
X44522191Y-27674013D01*
X44380058Y-27732887D01*
X44252141Y-27818358D01*
X44143358Y-27927141D01*
X44057887Y-28055058D01*
X43999013Y-28197191D01*
X43969000Y-28348078D01*
X21802126Y-28348078D01*
X21923945Y-28118972D01*
X22120325Y-27878187D01*
X22359736Y-27680127D01*
X22633053Y-27532346D01*
X22929872Y-27440465D01*
X23257782Y-27406000D01*
X58180146Y-27406000D01*
X58509229Y-27438267D01*
G37*
X58509229Y-27438267D02*
X58806688Y-27528075D01*
X59081028Y-27673945D01*
X59321813Y-27870325D01*
X59519873Y-28109736D01*
X59667654Y-28383053D01*
X59759535Y-28679872D01*
X59794001Y-29007792D01*
X59794000Y-31619940D01*
X59794001Y-31619950D01*
X59794000Y-34480059D01*
X59794000Y-34480060D01*
X59794001Y-39980136D01*
X59761733Y-40309230D01*
X59671926Y-40606684D01*
X59526056Y-40881025D01*
X59329675Y-41121813D01*
X59090265Y-41319871D01*
X58816948Y-41467654D01*
X58520128Y-41559535D01*
X58192453Y-41593975D01*
X49927000Y-41568464D01*
X49927000Y-36250000D01*
X49924560Y-36225224D01*
X49917333Y-36201399D01*
X49905597Y-36179443D01*
X49889803Y-36160197D01*
X49870557Y-36144403D01*
X49848601Y-36132667D01*
X49824776Y-36125440D01*
X49800000Y-36123000D01*
X47877000Y-36123000D01*
X47877000Y-35250000D01*
X47874560Y-35225224D01*
X47867333Y-35201399D01*
X47855597Y-35179443D01*
X47839803Y-35160197D01*
X47820557Y-35144403D01*
X47798601Y-35132667D01*
X47774776Y-35125440D01*
X47750000Y-35123000D01*
X45900000Y-35123000D01*
X45875224Y-35125440D01*
X45851399Y-35132667D01*
X45829443Y-35144403D01*
X45810197Y-35160197D01*
X45794403Y-35179443D01*
X45782667Y-35201399D01*
X45775440Y-35225224D01*
X45773000Y-35250000D01*
X45773000Y-37673000D01*
X43696835Y-37673000D01*
X43706000Y-37626922D01*
X43706000Y-37473078D01*
X43675987Y-37322191D01*
X43617113Y-37180058D01*
X43531642Y-37052141D01*
X43422859Y-36943358D01*
X43294942Y-36857887D01*
X43152809Y-36799013D01*
X43001922Y-36769000D01*
X42848078Y-36769000D01*
X42697191Y-36799013D01*
X42555058Y-36857887D01*
X42427141Y-36943358D01*
X42318358Y-37052141D01*
X42232887Y-37180058D01*
X42174013Y-37322191D01*
X42144000Y-37473078D01*
X42144000Y-37626922D01*
X42174013Y-37777809D01*
X42198000Y-37835718D01*
X42198000Y-41544610D01*
X42020572Y-41544062D01*
X42000000Y-41542036D01*
X41960601Y-41545917D01*
X41921646Y-41549632D01*
X41921044Y-41549813D01*
X41920410Y-41549875D01*
X41882557Y-41561358D01*
X41845044Y-41572610D01*
X41844487Y-41572906D01*
X41843879Y-41573090D01*
X41808909Y-41591782D01*
X41774396Y-41610093D01*
X41773911Y-41610489D01*
X41773347Y-41610790D01*
X41742635Y-41635995D01*
X41712418Y-41660638D01*
X41712018Y-41661122D01*
X41711526Y-41661526D01*
X41686413Y-41692127D01*
X41661492Y-41722302D01*
X41661193Y-41722856D01*
X41660790Y-41723348D01*
X41642177Y-41758171D01*
X41623574Y-41792717D01*
X41623389Y-41793321D01*
X41623090Y-41793880D01*
X41611640Y-41831627D01*
X41600123Y-41869176D01*
X41600059Y-41869804D01*
X41599875Y-41870411D01*
X41599705Y-41872138D01*
X40950359Y-41871367D01*
X40950151Y-41870671D01*
X40950125Y-41870410D01*
X40945756Y-41856008D01*
X40927429Y-41794854D01*
X40889965Y-41724197D01*
X40839436Y-41662207D01*
X40777785Y-41611264D01*
X40707379Y-41573329D01*
X40630926Y-41549858D01*
X40571297Y-41543783D01*
X40567612Y-41543771D01*
X40550000Y-41542036D01*
X40533544Y-41543657D01*
X31220622Y-41512522D01*
X31200000Y-41510491D01*
X31160718Y-41514360D01*
X31121749Y-41518067D01*
X31121097Y-41518262D01*
X31120411Y-41518330D01*
X31082612Y-41529796D01*
X31045140Y-41541026D01*
X31044537Y-41541346D01*
X31043880Y-41541545D01*
X31009094Y-41560138D01*
X30974483Y-41578490D01*
X30973954Y-41578921D01*
X30973348Y-41579245D01*
X30942836Y-41604286D01*
X30912493Y-41629019D01*
X30912059Y-41629545D01*
X30911527Y-41629981D01*
X30886546Y-41660420D01*
X30861550Y-41690670D01*
X30861225Y-41691273D01*
X30860791Y-41691802D01*
X30842270Y-41726452D01*
X30823615Y-41761075D01*
X30823414Y-41761730D01*
X30823091Y-41762334D01*
X30811690Y-41799920D01*
X30800144Y-41837528D01*
X30800074Y-41838211D01*
X30799876Y-41838865D01*
X30797862Y-41859310D01*
X29802114Y-41858127D01*
X29800300Y-41839153D01*
X29800130Y-41838586D01*
X29800071Y-41837989D01*
X29788567Y-41800070D01*
X29777304Y-41762556D01*
X29777026Y-41762032D01*
X29776852Y-41761459D01*
X29758197Y-41726562D01*
X29739806Y-41691916D01*
X29739431Y-41691456D01*
X29739149Y-41690929D01*
X29714146Y-41660467D01*
X29689248Y-41629950D01*
X29688787Y-41629570D01*
X29688410Y-41629110D01*
X29657998Y-41604153D01*
X29627572Y-41579037D01*
X29627047Y-41578754D01*
X29626587Y-41578377D01*
X29591778Y-41559773D01*
X29557148Y-41541136D01*
X29556581Y-41540962D01*
X29556053Y-41540680D01*
X29518260Y-41529218D01*
X29480684Y-41517702D01*
X29480091Y-41517642D01*
X29479521Y-41517469D01*
X29440446Y-41513622D01*
X29421052Y-41511656D01*
X29420454Y-41511654D01*
X29399932Y-41509634D01*
X29380585Y-41511540D01*
X23270437Y-41494057D01*
X22940770Y-41461733D01*
X22643316Y-41371926D01*
X22368975Y-41226056D01*
X22128187Y-41029675D01*
X21930129Y-40790265D01*
X21782346Y-40516948D01*
X21690465Y-40220128D01*
X21656000Y-39892218D01*
X21656000Y-39251876D01*
X26625874Y-39251876D01*
X26705790Y-39459529D01*
X26824682Y-39647601D01*
X26952824Y-39782402D01*
X26939268Y-39802690D01*
X26872856Y-39963022D01*
X26839000Y-40133229D01*
X26839000Y-40306771D01*
X26872856Y-40476978D01*
X26939268Y-40637310D01*
X27035682Y-40781605D01*
X27158395Y-40904318D01*
X27302690Y-41000732D01*
X27463022Y-41067144D01*
X27633229Y-41101000D01*
X27806771Y-41101000D01*
X27976978Y-41067144D01*
X28137310Y-41000732D01*
X28281605Y-40904318D01*
X28355000Y-40830923D01*
X28428395Y-40904318D01*
X28572690Y-41000732D01*
X28733022Y-41067144D01*
X28903229Y-41101000D01*
X29076771Y-41101000D01*
X29246978Y-41067144D01*
X29407310Y-41000732D01*
X29551605Y-40904318D01*
X29625000Y-40830923D01*
X29698395Y-40904318D01*
X29842690Y-41000732D01*
X30003022Y-41067144D01*
X30173229Y-41101000D01*
X30346771Y-41101000D01*
X30516978Y-41067144D01*
X30677310Y-41000732D01*
X30821605Y-40904318D01*
X30895000Y-40830923D01*
X30968395Y-40904318D01*
X31112690Y-41000732D01*
X31273022Y-41067144D01*
X31443229Y-41101000D01*
X31616771Y-41101000D01*
X31786978Y-41067144D01*
X31947310Y-41000732D01*
X32091605Y-40904318D01*
X32165000Y-40830923D01*
X32238395Y-40904318D01*
X32382690Y-41000732D01*
X32543022Y-41067144D01*
X32713229Y-41101000D01*
X32886771Y-41101000D01*
X33056978Y-41067144D01*
X33217310Y-41000732D01*
X33361605Y-40904318D01*
X33484318Y-40781605D01*
X33580732Y-40637310D01*
X33647144Y-40476978D01*
X33681000Y-40306771D01*
X33681000Y-40133229D01*
X33647144Y-39963022D01*
X33580732Y-39802690D01*
X33541806Y-39744432D01*
X33570711Y-39720711D01*
X33618322Y-39662696D01*
X33653701Y-39596508D01*
X33675487Y-39524689D01*
X33682843Y-39450000D01*
X33682843Y-38632927D01*
X36569000Y-38632927D01*
X36569000Y-38767073D01*
X36595171Y-38898640D01*
X36646506Y-39022574D01*
X36721033Y-39134112D01*
X36815888Y-39228967D01*
X36927426Y-39303494D01*
X37051360Y-39354829D01*
X37182927Y-39381000D01*
X37317073Y-39381000D01*
X37448640Y-39354829D01*
X37572574Y-39303494D01*
X37684112Y-39228967D01*
X37778967Y-39134112D01*
X37853494Y-39022574D01*
X37904829Y-38898640D01*
X37931000Y-38767073D01*
X37931000Y-38632927D01*
X37904829Y-38501360D01*
X37853494Y-38377426D01*
X37778967Y-38265888D01*
X37684112Y-38171033D01*
X37572574Y-38096506D01*
X37448640Y-38045171D01*
X37317073Y-38019000D01*
X37182927Y-38019000D01*
X37051360Y-38045171D01*
X36927426Y-38096506D01*
X36815888Y-38171033D01*
X36721033Y-38265888D01*
X36646506Y-38377426D01*
X36595171Y-38501360D01*
X36569000Y-38632927D01*
X33682843Y-38632927D01*
X33682843Y-38450000D01*
X33675487Y-38375311D01*
X33653701Y-38303492D01*
X33618322Y-38237304D01*
X33570711Y-38179289D01*
X33512696Y-38131678D01*
X33446508Y-38096299D01*
X33374689Y-38074513D01*
X33300000Y-38067157D01*
X32300000Y-38067157D01*
X32245622Y-38072513D01*
X32090206Y-37962877D01*
X31886864Y-37872554D01*
X31831874Y-37855881D01*
X31657000Y-37982046D01*
X31657000Y-38823000D01*
X31677000Y-38823000D01*
X31677000Y-39077000D01*
X31657000Y-39077000D01*
X31657000Y-39097000D01*
X31403000Y-39097000D01*
X31403000Y-39077000D01*
X30387000Y-39077000D01*
X30387000Y-39097000D01*
X30133000Y-39097000D01*
X30133000Y-39077000D01*
X30113000Y-39077000D01*
X30113000Y-38823000D01*
X30133000Y-38823000D01*
X30133000Y-37982046D01*
X30387000Y-37982046D01*
X30387000Y-38823000D01*
X31403000Y-38823000D01*
X31403000Y-37982046D01*
X31228126Y-37855881D01*
X31173136Y-37872554D01*
X30969794Y-37962877D01*
X30895000Y-38015639D01*
X30820206Y-37962877D01*
X30616864Y-37872554D01*
X30561874Y-37855881D01*
X30387000Y-37982046D01*
X30133000Y-37982046D01*
X29958126Y-37855881D01*
X29903136Y-37872554D01*
X29699794Y-37962877D01*
X29517980Y-38091135D01*
X29429569Y-38184141D01*
X29407310Y-38169268D01*
X29246978Y-38102856D01*
X29076771Y-38069000D01*
X28903229Y-38069000D01*
X28733022Y-38102856D01*
X28572690Y-38169268D01*
X28550431Y-38184141D01*
X28462020Y-38091135D01*
X28280206Y-37962877D01*
X28076864Y-37872554D01*
X28021874Y-37855881D01*
X27847000Y-37982046D01*
X27847000Y-38823000D01*
X27867000Y-38823000D01*
X27867000Y-39077000D01*
X27847000Y-39077000D01*
X27847000Y-39097000D01*
X27593000Y-39097000D01*
X27593000Y-39077000D01*
X26750871Y-39077000D01*
X26625874Y-39251876D01*
X21656000Y-39251876D01*
X21656000Y-38685486D01*
X21665472Y-38697028D01*
X21814849Y-38819618D01*
X21985271Y-38910711D01*
X22170190Y-38966805D01*
X22314313Y-38981000D01*
X23110687Y-38981000D01*
X23254810Y-38966805D01*
X23439729Y-38910711D01*
X23610151Y-38819618D01*
X23759528Y-38697028D01*
X23799662Y-38648124D01*
X26625874Y-38648124D01*
X26750871Y-38823000D01*
X27593000Y-38823000D01*
X27593000Y-37982046D01*
X27418126Y-37855881D01*
X27363136Y-37872554D01*
X27159794Y-37962877D01*
X26977980Y-38091135D01*
X26824682Y-38252399D01*
X26705790Y-38440471D01*
X26625874Y-38648124D01*
X23799662Y-38648124D01*
X23882118Y-38547651D01*
X23973211Y-38377229D01*
X24029305Y-38192310D01*
X24048246Y-38000000D01*
X24029305Y-37807690D01*
X23973211Y-37622771D01*
X23882118Y-37452349D01*
X23759528Y-37302972D01*
X23610151Y-37180382D01*
X23439729Y-37089289D01*
X23254810Y-37033195D01*
X23110687Y-37019000D01*
X22314313Y-37019000D01*
X22170190Y-37033195D01*
X21985271Y-37089289D01*
X21814849Y-37180382D01*
X21665472Y-37302972D01*
X21656000Y-37314514D01*
X21656000Y-36891069D01*
X24306500Y-36891069D01*
X24306500Y-37108931D01*
X24349003Y-37322608D01*
X24432376Y-37523887D01*
X24553414Y-37705034D01*
X24707466Y-37859086D01*
X24888613Y-37980124D01*
X25089892Y-38063497D01*
X25303569Y-38106000D01*
X25521431Y-38106000D01*
X25735108Y-38063497D01*
X25936387Y-37980124D01*
X26117534Y-37859086D01*
X26271586Y-37705034D01*
X26392624Y-37523887D01*
X26475997Y-37322608D01*
X26518500Y-37108931D01*
X26518500Y-36891069D01*
X26475997Y-36677392D01*
X26392624Y-36476113D01*
X26271586Y-36294966D01*
X26117534Y-36140914D01*
X25936387Y-36019876D01*
X25735108Y-35936503D01*
X25521431Y-35894000D01*
X25303569Y-35894000D01*
X25089892Y-35936503D01*
X24888613Y-36019876D01*
X24707466Y-36140914D01*
X24553414Y-36294966D01*
X24432376Y-36476113D01*
X24349003Y-36677392D01*
X24306500Y-36891069D01*
X21656000Y-36891069D01*
X21656000Y-35804612D01*
X41464420Y-35804612D01*
X41464420Y-35938758D01*
X41490591Y-36070325D01*
X41541926Y-36194259D01*
X41616453Y-36305797D01*
X41711308Y-36400652D01*
X41822846Y-36475179D01*
X41946780Y-36526514D01*
X42078347Y-36552685D01*
X42212493Y-36552685D01*
X42344060Y-36526514D01*
X42467994Y-36475179D01*
X42579532Y-36400652D01*
X42674387Y-36305797D01*
X42748914Y-36194259D01*
X42800249Y-36070325D01*
X42826420Y-35938758D01*
X42826420Y-35804612D01*
X42800249Y-35673045D01*
X42748914Y-35549111D01*
X42674387Y-35437573D01*
X42579532Y-35342718D01*
X42467994Y-35268191D01*
X42344060Y-35216856D01*
X42212493Y-35190685D01*
X42078347Y-35190685D01*
X41946780Y-35216856D01*
X41822846Y-35268191D01*
X41711308Y-35342718D01*
X41616453Y-35437573D01*
X41541926Y-35549111D01*
X41490591Y-35673045D01*
X41464420Y-35804612D01*
X21656000Y-35804612D01*
X21656000Y-35037852D01*
X27769000Y-35037852D01*
X27769000Y-35162148D01*
X27793249Y-35284056D01*
X27840815Y-35398891D01*
X27909870Y-35502239D01*
X27997761Y-35590130D01*
X28101109Y-35659185D01*
X28215944Y-35706751D01*
X28337852Y-35731000D01*
X28462148Y-35731000D01*
X28584056Y-35706751D01*
X28698891Y-35659185D01*
X28802239Y-35590130D01*
X28890130Y-35502239D01*
X28959185Y-35398891D01*
X29006751Y-35284056D01*
X29031000Y-35162148D01*
X29031000Y-35037852D01*
X29006751Y-34915944D01*
X28959185Y-34801109D01*
X28890130Y-34697761D01*
X28802239Y-34609870D01*
X28698891Y-34540815D01*
X28584056Y-34493249D01*
X28462148Y-34469000D01*
X28337852Y-34469000D01*
X28215944Y-34493249D01*
X28101109Y-34540815D01*
X27997761Y-34609870D01*
X27909870Y-34697761D01*
X27840815Y-34801109D01*
X27793249Y-34915944D01*
X27769000Y-35037852D01*
X21656000Y-35037852D01*
X21656000Y-33482927D01*
X26369000Y-33482927D01*
X26369000Y-33617073D01*
X26395171Y-33748640D01*
X26446506Y-33872574D01*
X26521033Y-33984112D01*
X26615888Y-34078967D01*
X26727426Y-34153494D01*
X26851360Y-34204829D01*
X26982927Y-34231000D01*
X27117073Y-34231000D01*
X27248640Y-34204829D01*
X27372574Y-34153494D01*
X27484112Y-34078967D01*
X27578967Y-33984112D01*
X27653494Y-33872574D01*
X27704829Y-33748640D01*
X27731000Y-33617073D01*
X27731000Y-33482927D01*
X27704829Y-33351360D01*
X27672404Y-33273078D01*
X31919000Y-33273078D01*
X31919000Y-33426922D01*
X31949013Y-33577809D01*
X32007887Y-33719942D01*
X32093358Y-33847859D01*
X32202141Y-33956642D01*
X32330058Y-34042113D01*
X32472191Y-34100987D01*
X32623078Y-34131000D01*
X32776922Y-34131000D01*
X32927809Y-34100987D01*
X33069942Y-34042113D01*
X33137500Y-33996972D01*
X33205058Y-34042113D01*
X33347191Y-34100987D01*
X33498078Y-34131000D01*
X33651922Y-34131000D01*
X33802809Y-34100987D01*
X33944942Y-34042113D01*
X34012500Y-33996972D01*
X34080058Y-34042113D01*
X34222191Y-34100987D01*
X34373078Y-34131000D01*
X34526922Y-34131000D01*
X34677809Y-34100987D01*
X34721409Y-34082927D01*
X42369000Y-34082927D01*
X42369000Y-34217073D01*
X42395171Y-34348640D01*
X42446506Y-34472574D01*
X42521033Y-34584112D01*
X42615888Y-34678967D01*
X42727426Y-34753494D01*
X42851360Y-34804829D01*
X42982927Y-34831000D01*
X43117073Y-34831000D01*
X43248640Y-34804829D01*
X43372574Y-34753494D01*
X43484112Y-34678967D01*
X43578967Y-34584112D01*
X43653494Y-34472574D01*
X43704829Y-34348640D01*
X43731000Y-34217073D01*
X43731000Y-34082927D01*
X43704829Y-33951360D01*
X43653494Y-33827426D01*
X43578967Y-33715888D01*
X43484112Y-33621033D01*
X43372574Y-33546506D01*
X43248640Y-33495171D01*
X43117073Y-33469000D01*
X42982927Y-33469000D01*
X42851360Y-33495171D01*
X42727426Y-33546506D01*
X42615888Y-33621033D01*
X42521033Y-33715888D01*
X42446506Y-33827426D01*
X42395171Y-33951360D01*
X42369000Y-34082927D01*
X34721409Y-34082927D01*
X34819942Y-34042113D01*
X34947859Y-33956642D01*
X35056642Y-33847859D01*
X35142113Y-33719942D01*
X35200987Y-33577809D01*
X35231000Y-33426922D01*
X35231000Y-33273078D01*
X35200987Y-33122191D01*
X35142113Y-32980058D01*
X35096972Y-32912500D01*
X35142113Y-32844942D01*
X35200987Y-32702809D01*
X35231000Y-32551922D01*
X35231000Y-32398078D01*
X35200987Y-32247191D01*
X35142113Y-32105058D01*
X35056642Y-31977141D01*
X34947859Y-31868358D01*
X34819942Y-31782887D01*
X34677809Y-31724013D01*
X34526922Y-31694000D01*
X34373078Y-31694000D01*
X34222191Y-31724013D01*
X34080058Y-31782887D01*
X33952141Y-31868358D01*
X33843358Y-31977141D01*
X33757887Y-32105058D01*
X33699013Y-32247191D01*
X33669000Y-32398078D01*
X33669000Y-32551922D01*
X33673240Y-32573240D01*
X33651922Y-32569000D01*
X33498078Y-32569000D01*
X33347191Y-32599013D01*
X33205058Y-32657887D01*
X33137500Y-32703028D01*
X33069942Y-32657887D01*
X32927809Y-32599013D01*
X32776922Y-32569000D01*
X32623078Y-32569000D01*
X32472191Y-32599013D01*
X32330058Y-32657887D01*
X32202141Y-32743358D01*
X32093358Y-32852141D01*
X32007887Y-32980058D01*
X31949013Y-33122191D01*
X31919000Y-33273078D01*
X27672404Y-33273078D01*
X27653494Y-33227426D01*
X27578967Y-33115888D01*
X27484112Y-33021033D01*
X27372574Y-32946506D01*
X27248640Y-32895171D01*
X27117073Y-32869000D01*
X26982927Y-32869000D01*
X26851360Y-32895171D01*
X26727426Y-32946506D01*
X26615888Y-33021033D01*
X26521033Y-33115888D01*
X26446506Y-33227426D01*
X26395171Y-33351360D01*
X26369000Y-33482927D01*
X21656000Y-33482927D01*
X21656000Y-31685486D01*
X21665472Y-31697028D01*
X21814849Y-31819618D01*
X21985271Y-31910711D01*
X22170190Y-31966805D01*
X22314313Y-31981000D01*
X23110687Y-31981000D01*
X23254810Y-31966805D01*
X23439729Y-31910711D01*
X23476476Y-31891069D01*
X24306500Y-31891069D01*
X24306500Y-32108931D01*
X24349003Y-32322608D01*
X24432376Y-32523887D01*
X24553414Y-32705034D01*
X24707466Y-32859086D01*
X24888613Y-32980124D01*
X25089892Y-33063497D01*
X25303569Y-33106000D01*
X25521431Y-33106000D01*
X25735108Y-33063497D01*
X25936387Y-32980124D01*
X26117534Y-32859086D01*
X26271586Y-32705034D01*
X26392624Y-32523887D01*
X26475997Y-32322608D01*
X26518500Y-32108931D01*
X26518500Y-31891069D01*
X26475997Y-31677392D01*
X26392624Y-31476113D01*
X26271586Y-31294966D01*
X26117534Y-31140914D01*
X25955920Y-31032927D01*
X36519000Y-31032927D01*
X36519000Y-31167073D01*
X36545171Y-31298640D01*
X36596506Y-31422574D01*
X36671033Y-31534112D01*
X36765888Y-31628967D01*
X36877426Y-31703494D01*
X37001360Y-31754829D01*
X37132927Y-31781000D01*
X37267073Y-31781000D01*
X37398640Y-31754829D01*
X37522574Y-31703494D01*
X37634112Y-31628967D01*
X37728967Y-31534112D01*
X37783162Y-31453003D01*
X40444000Y-31453003D01*
X40444000Y-31596997D01*
X40472092Y-31738225D01*
X40527196Y-31871258D01*
X40607195Y-31990985D01*
X40709015Y-32092805D01*
X40828742Y-32172804D01*
X40961775Y-32227908D01*
X41103003Y-32256000D01*
X41246997Y-32256000D01*
X41388225Y-32227908D01*
X41521258Y-32172804D01*
X41640985Y-32092805D01*
X41742805Y-31990985D01*
X41822804Y-31871258D01*
X41877908Y-31738225D01*
X41894859Y-31653003D01*
X47919000Y-31653003D01*
X47919000Y-31796997D01*
X47947092Y-31938225D01*
X48002196Y-32071258D01*
X48082195Y-32190985D01*
X48184015Y-32292805D01*
X48303742Y-32372804D01*
X48436775Y-32427908D01*
X48578003Y-32456000D01*
X48721997Y-32456000D01*
X48863225Y-32427908D01*
X48996258Y-32372804D01*
X49115985Y-32292805D01*
X49217805Y-32190985D01*
X49297804Y-32071258D01*
X49352908Y-31938225D01*
X49381000Y-31796997D01*
X49381000Y-31653003D01*
X49352908Y-31511775D01*
X49297804Y-31378742D01*
X49217805Y-31259015D01*
X49115985Y-31157195D01*
X48996258Y-31077196D01*
X48863225Y-31022092D01*
X48721997Y-30994000D01*
X48578003Y-30994000D01*
X48436775Y-31022092D01*
X48303742Y-31077196D01*
X48184015Y-31157195D01*
X48082195Y-31259015D01*
X48002196Y-31378742D01*
X47947092Y-31511775D01*
X47919000Y-31653003D01*
X41894859Y-31653003D01*
X41906000Y-31596997D01*
X41906000Y-31453003D01*
X41877908Y-31311775D01*
X41822804Y-31178742D01*
X41742805Y-31059015D01*
X41640985Y-30957195D01*
X41521258Y-30877196D01*
X41388225Y-30822092D01*
X41246997Y-30794000D01*
X41103003Y-30794000D01*
X40961775Y-30822092D01*
X40828742Y-30877196D01*
X40709015Y-30957195D01*
X40607195Y-31059015D01*
X40527196Y-31178742D01*
X40472092Y-31311775D01*
X40444000Y-31453003D01*
X37783162Y-31453003D01*
X37803494Y-31422574D01*
X37854829Y-31298640D01*
X37881000Y-31167073D01*
X37881000Y-31032927D01*
X37854829Y-30901360D01*
X37803494Y-30777426D01*
X37728967Y-30665888D01*
X37634112Y-30571033D01*
X37522574Y-30496506D01*
X37398640Y-30445171D01*
X37267073Y-30419000D01*
X37132927Y-30419000D01*
X37001360Y-30445171D01*
X36877426Y-30496506D01*
X36765888Y-30571033D01*
X36671033Y-30665888D01*
X36596506Y-30777426D01*
X36545171Y-30901360D01*
X36519000Y-31032927D01*
X25955920Y-31032927D01*
X25936387Y-31019876D01*
X25735108Y-30936503D01*
X25521431Y-30894000D01*
X25303569Y-30894000D01*
X25089892Y-30936503D01*
X24888613Y-31019876D01*
X24707466Y-31140914D01*
X24553414Y-31294966D01*
X24432376Y-31476113D01*
X24349003Y-31677392D01*
X24306500Y-31891069D01*
X23476476Y-31891069D01*
X23610151Y-31819618D01*
X23759528Y-31697028D01*
X23882118Y-31547651D01*
X23973211Y-31377229D01*
X24029305Y-31192310D01*
X24048246Y-31000000D01*
X24029305Y-30807690D01*
X23973211Y-30622771D01*
X23882118Y-30452349D01*
X23759528Y-30302972D01*
X23653433Y-30215902D01*
X38185275Y-30215902D01*
X38185275Y-30350048D01*
X38211446Y-30481615D01*
X38262781Y-30605549D01*
X38337308Y-30717087D01*
X38432163Y-30811942D01*
X38543701Y-30886469D01*
X38667635Y-30937804D01*
X38799202Y-30963975D01*
X38933348Y-30963975D01*
X39064915Y-30937804D01*
X39188849Y-30886469D01*
X39300387Y-30811942D01*
X39395242Y-30717087D01*
X39469769Y-30605549D01*
X39521104Y-30481615D01*
X39547275Y-30350048D01*
X39547275Y-30215902D01*
X39521104Y-30084335D01*
X39469769Y-29960401D01*
X39395242Y-29848863D01*
X39300387Y-29754008D01*
X39188849Y-29679481D01*
X39064915Y-29628146D01*
X38933348Y-29601975D01*
X38799202Y-29601975D01*
X38667635Y-29628146D01*
X38543701Y-29679481D01*
X38432163Y-29754008D01*
X38337308Y-29848863D01*
X38262781Y-29960401D01*
X38211446Y-30084335D01*
X38185275Y-30215902D01*
X23653433Y-30215902D01*
X23610151Y-30180382D01*
X23439729Y-30089289D01*
X23254810Y-30033195D01*
X23110687Y-30019000D01*
X22314313Y-30019000D01*
X22170190Y-30033195D01*
X21985271Y-30089289D01*
X21814849Y-30180382D01*
X21665472Y-30302972D01*
X21656000Y-30314514D01*
X21656000Y-29019854D01*
X21688267Y-28690771D01*
X21778075Y-28393312D01*
X21802126Y-28348078D01*
X43969000Y-28348078D01*
X43969000Y-28501922D01*
X43999013Y-28652809D01*
X44057887Y-28794942D01*
X44143358Y-28922859D01*
X44252141Y-29031642D01*
X44380058Y-29117113D01*
X44522191Y-29175987D01*
X44673078Y-29206000D01*
X44826922Y-29206000D01*
X44977809Y-29175987D01*
X45119942Y-29117113D01*
X45247859Y-29031642D01*
X45331423Y-28948078D01*
X46794000Y-28948078D01*
X46794000Y-29101922D01*
X46824013Y-29252809D01*
X46882887Y-29394942D01*
X46968358Y-29522859D01*
X47077141Y-29631642D01*
X47205058Y-29717113D01*
X47347191Y-29775987D01*
X47498078Y-29806000D01*
X47651922Y-29806000D01*
X47802809Y-29775987D01*
X47944942Y-29717113D01*
X48072859Y-29631642D01*
X48181642Y-29522859D01*
X48267113Y-29394942D01*
X48325987Y-29252809D01*
X48356000Y-29101922D01*
X48356000Y-28948078D01*
X48325987Y-28797191D01*
X48267113Y-28655058D01*
X48181642Y-28527141D01*
X48072859Y-28418358D01*
X47944942Y-28332887D01*
X47802809Y-28274013D01*
X47651922Y-28244000D01*
X47498078Y-28244000D01*
X47347191Y-28274013D01*
X47205058Y-28332887D01*
X47077141Y-28418358D01*
X46968358Y-28527141D01*
X46882887Y-28655058D01*
X46824013Y-28797191D01*
X46794000Y-28948078D01*
X45331423Y-28948078D01*
X45356642Y-28922859D01*
X45442113Y-28794942D01*
X45500987Y-28652809D01*
X45531000Y-28501922D01*
X45531000Y-28348078D01*
X45500987Y-28197191D01*
X45442113Y-28055058D01*
X45356642Y-27927141D01*
X45247859Y-27818358D01*
X45119942Y-27732887D01*
X44977809Y-27674013D01*
X44826922Y-27644000D01*
X44673078Y-27644000D01*
X44522191Y-27674013D01*
X44380058Y-27732887D01*
X44252141Y-27818358D01*
X44143358Y-27927141D01*
X44057887Y-28055058D01*
X43999013Y-28197191D01*
X43969000Y-28348078D01*
X21802126Y-28348078D01*
X21923945Y-28118972D01*
X22120325Y-27878187D01*
X22359736Y-27680127D01*
X22633053Y-27532346D01*
X22929872Y-27440465D01*
X23257782Y-27406000D01*
X58180146Y-27406000D01*
X58509229Y-27438267D01*
G36*
X46948000Y-52825000D02*
G01*
X46950440Y-52849776D01*
X46957667Y-52873601D01*
X46969403Y-52895557D01*
X46985197Y-52914803D01*
X47004443Y-52930597D01*
X47026399Y-52942333D01*
X47050224Y-52949560D01*
X47075000Y-52952000D01*
X48273000Y-52952000D01*
X48273000Y-54800000D01*
X48275440Y-54824776D01*
X48282667Y-54848601D01*
X48294403Y-54870557D01*
X48310197Y-54889803D01*
X48329443Y-54905597D01*
X48351399Y-54917333D01*
X48375224Y-54924560D01*
X48400000Y-54927000D01*
X49273000Y-54927000D01*
X49273000Y-57566446D01*
X42927000Y-57546860D01*
X42927000Y-54331000D01*
X43001922Y-54331000D01*
X43152809Y-54300987D01*
X43294942Y-54242113D01*
X43392391Y-54177000D01*
X46225000Y-54177000D01*
X46249776Y-54174560D01*
X46273601Y-54167333D01*
X46295557Y-54155597D01*
X46314803Y-54139803D01*
X46330597Y-54120557D01*
X46342333Y-54098601D01*
X46349560Y-54074776D01*
X46352000Y-54050000D01*
X46352000Y-51877000D01*
X46948000Y-51877000D01*
X46948000Y-52825000D01*
G37*
X46948000Y-52825000D02*
X46950440Y-52849776D01*
X46957667Y-52873601D01*
X46969403Y-52895557D01*
X46985197Y-52914803D01*
X47004443Y-52930597D01*
X47026399Y-52942333D01*
X47050224Y-52949560D01*
X47075000Y-52952000D01*
X48273000Y-52952000D01*
X48273000Y-54800000D01*
X48275440Y-54824776D01*
X48282667Y-54848601D01*
X48294403Y-54870557D01*
X48310197Y-54889803D01*
X48329443Y-54905597D01*
X48351399Y-54917333D01*
X48375224Y-54924560D01*
X48400000Y-54927000D01*
X49273000Y-54927000D01*
X49273000Y-57566446D01*
X42927000Y-57546860D01*
X42927000Y-54331000D01*
X43001922Y-54331000D01*
X43152809Y-54300987D01*
X43294942Y-54242113D01*
X43392391Y-54177000D01*
X46225000Y-54177000D01*
X46249776Y-54174560D01*
X46273601Y-54167333D01*
X46295557Y-54155597D01*
X46314803Y-54139803D01*
X46330597Y-54120557D01*
X46342333Y-54098601D01*
X46349560Y-54074776D01*
X46352000Y-54050000D01*
X46352000Y-51877000D01*
X46948000Y-51877000D01*
X46948000Y-52825000D01*
G36*
X30801953Y-43086440D02*
G01*
X30823090Y-43156121D01*
X30860790Y-43226653D01*
X30911526Y-43288474D01*
X30973347Y-43339210D01*
X31043879Y-43376910D01*
X31120410Y-43400125D01*
X31173044Y-43405309D01*
X31200000Y-43407964D01*
X31219940Y-43406000D01*
X40530060Y-43406000D01*
X40550000Y-43407964D01*
X40576957Y-43405309D01*
X40629590Y-43400125D01*
X40706121Y-43376910D01*
X40776653Y-43339210D01*
X40838474Y-43288474D01*
X40889210Y-43226653D01*
X40926910Y-43156121D01*
X40944998Y-43096491D01*
X41605200Y-43097145D01*
X41623090Y-43156121D01*
X41660790Y-43226653D01*
X41711526Y-43288474D01*
X41773347Y-43339210D01*
X41843879Y-43376910D01*
X41920410Y-43400125D01*
X41980059Y-43406000D01*
X41980060Y-43406000D01*
X42000000Y-43407964D01*
X42019941Y-43406000D01*
X58180146Y-43406000D01*
X58509229Y-43438267D01*
X58806688Y-43528075D01*
X59081028Y-43673945D01*
X59321813Y-43870325D01*
X59519873Y-44109736D01*
X59667654Y-44383053D01*
X59759535Y-44679872D01*
X59794001Y-45007792D01*
X59794000Y-47619940D01*
X59794001Y-47619950D01*
X59794000Y-50480059D01*
X59794000Y-50480060D01*
X59794001Y-55980136D01*
X59761733Y-56309230D01*
X59671926Y-56606684D01*
X59526056Y-56881025D01*
X59329675Y-57121813D01*
X59090265Y-57319871D01*
X58816948Y-57467654D01*
X58520128Y-57559535D01*
X58192453Y-57593975D01*
X49927000Y-57568464D01*
X49927000Y-52250000D01*
X49924560Y-52225224D01*
X49917333Y-52201399D01*
X49905597Y-52179443D01*
X49889803Y-52160197D01*
X49870557Y-52144403D01*
X49848601Y-52132667D01*
X49824776Y-52125440D01*
X49800000Y-52123000D01*
X47877000Y-52123000D01*
X47877000Y-51250000D01*
X47874560Y-51225224D01*
X47867333Y-51201399D01*
X47855597Y-51179443D01*
X47839803Y-51160197D01*
X47820557Y-51144403D01*
X47798601Y-51132667D01*
X47774776Y-51125440D01*
X47750000Y-51123000D01*
X45900000Y-51123000D01*
X45875224Y-51125440D01*
X45851399Y-51132667D01*
X45829443Y-51144403D01*
X45810197Y-51160197D01*
X45794403Y-51179443D01*
X45782667Y-51201399D01*
X45775440Y-51225224D01*
X45773000Y-51250000D01*
X45773000Y-53673000D01*
X43696835Y-53673000D01*
X43706000Y-53626922D01*
X43706000Y-53473078D01*
X43675987Y-53322191D01*
X43617113Y-53180058D01*
X43531642Y-53052141D01*
X43422859Y-52943358D01*
X43294942Y-52857887D01*
X43152809Y-52799013D01*
X43001922Y-52769000D01*
X42848078Y-52769000D01*
X42697191Y-52799013D01*
X42555058Y-52857887D01*
X42427141Y-52943358D01*
X42318358Y-53052141D01*
X42232887Y-53180058D01*
X42174013Y-53322191D01*
X42144000Y-53473078D01*
X42144000Y-53626922D01*
X42174013Y-53777809D01*
X42198000Y-53835718D01*
X42198000Y-57544610D01*
X42020572Y-57544062D01*
X42000000Y-57542036D01*
X41960601Y-57545917D01*
X41921646Y-57549632D01*
X41921044Y-57549813D01*
X41920410Y-57549875D01*
X41882557Y-57561358D01*
X41845044Y-57572610D01*
X41844487Y-57572906D01*
X41843879Y-57573090D01*
X41808909Y-57591782D01*
X41774396Y-57610093D01*
X41773911Y-57610489D01*
X41773347Y-57610790D01*
X41742635Y-57635995D01*
X41712418Y-57660638D01*
X41712018Y-57661122D01*
X41711526Y-57661526D01*
X41686413Y-57692127D01*
X41661492Y-57722302D01*
X41661193Y-57722856D01*
X41660790Y-57723348D01*
X41642177Y-57758171D01*
X41623574Y-57792717D01*
X41623389Y-57793321D01*
X41623090Y-57793880D01*
X41611640Y-57831627D01*
X41600123Y-57869176D01*
X41600059Y-57869804D01*
X41599875Y-57870411D01*
X41599705Y-57872138D01*
X40950219Y-57871367D01*
X40950125Y-57870410D01*
X40926910Y-57793879D01*
X40889210Y-57723347D01*
X40838474Y-57661526D01*
X40776652Y-57610790D01*
X40706120Y-57573090D01*
X40629589Y-57549875D01*
X40550000Y-57542036D01*
X40524395Y-57544558D01*
X31220610Y-57513973D01*
X31200000Y-57511943D01*
X31160749Y-57515809D01*
X31121726Y-57519523D01*
X31121083Y-57519716D01*
X31120410Y-57519782D01*
X31082679Y-57531227D01*
X31045119Y-57542486D01*
X31044525Y-57542801D01*
X31043879Y-57542997D01*
X31009099Y-57561587D01*
X30974464Y-57579954D01*
X30973944Y-57580378D01*
X30973347Y-57580697D01*
X30942798Y-57605768D01*
X30912476Y-57630487D01*
X30912049Y-57631004D01*
X30911526Y-57631433D01*
X30886528Y-57661893D01*
X30861537Y-57692141D01*
X30861217Y-57692734D01*
X30860790Y-57693255D01*
X30842234Y-57727971D01*
X30823606Y-57762548D01*
X30823409Y-57763191D01*
X30823090Y-57763787D01*
X30811648Y-57801507D01*
X30800139Y-57839003D01*
X30800071Y-57839672D01*
X30799875Y-57840318D01*
X30798005Y-57859310D01*
X29801953Y-57858127D01*
X29800380Y-57841613D01*
X29800190Y-57840980D01*
X29800125Y-57840317D01*
X29788663Y-57802531D01*
X29777413Y-57765007D01*
X29777103Y-57764423D01*
X29776910Y-57763786D01*
X29758255Y-57728884D01*
X29739941Y-57694354D01*
X29739526Y-57693845D01*
X29739210Y-57693254D01*
X29714073Y-57662625D01*
X29689406Y-57632369D01*
X29688897Y-57631949D01*
X29688474Y-57631433D01*
X29657949Y-57606381D01*
X29627749Y-57581433D01*
X29627166Y-57581119D01*
X29626652Y-57580697D01*
X29591814Y-57562076D01*
X29557339Y-57543505D01*
X29556708Y-57543311D01*
X29556120Y-57542997D01*
X29518350Y-57531540D01*
X29480884Y-57520042D01*
X29480225Y-57519975D01*
X29479589Y-57519782D01*
X29440346Y-57515917D01*
X29421254Y-57513974D01*
X29420599Y-57513972D01*
X29400000Y-57511943D01*
X29380712Y-57513843D01*
X23270514Y-57494065D01*
X22940770Y-57461733D01*
X22643316Y-57371926D01*
X22368975Y-57226056D01*
X22128187Y-57029675D01*
X21930129Y-56790265D01*
X21782346Y-56516948D01*
X21690465Y-56220128D01*
X21656000Y-55892218D01*
X21656000Y-55251876D01*
X26625874Y-55251876D01*
X26705790Y-55459529D01*
X26824682Y-55647601D01*
X26952824Y-55782402D01*
X26939268Y-55802690D01*
X26872856Y-55963022D01*
X26839000Y-56133229D01*
X26839000Y-56306771D01*
X26872856Y-56476978D01*
X26939268Y-56637310D01*
X27035682Y-56781605D01*
X27158395Y-56904318D01*
X27302690Y-57000732D01*
X27463022Y-57067144D01*
X27633229Y-57101000D01*
X27806771Y-57101000D01*
X27976978Y-57067144D01*
X28137310Y-57000732D01*
X28281605Y-56904318D01*
X28355000Y-56830923D01*
X28428395Y-56904318D01*
X28572690Y-57000732D01*
X28733022Y-57067144D01*
X28903229Y-57101000D01*
X29076771Y-57101000D01*
X29246978Y-57067144D01*
X29407310Y-57000732D01*
X29551605Y-56904318D01*
X29625000Y-56830923D01*
X29698395Y-56904318D01*
X29842690Y-57000732D01*
X30003022Y-57067144D01*
X30173229Y-57101000D01*
X30346771Y-57101000D01*
X30516978Y-57067144D01*
X30677310Y-57000732D01*
X30821605Y-56904318D01*
X30895000Y-56830923D01*
X30968395Y-56904318D01*
X31112690Y-57000732D01*
X31273022Y-57067144D01*
X31443229Y-57101000D01*
X31616771Y-57101000D01*
X31786978Y-57067144D01*
X31947310Y-57000732D01*
X32091605Y-56904318D01*
X32165000Y-56830923D01*
X32238395Y-56904318D01*
X32382690Y-57000732D01*
X32543022Y-57067144D01*
X32713229Y-57101000D01*
X32886771Y-57101000D01*
X33056978Y-57067144D01*
X33217310Y-57000732D01*
X33361605Y-56904318D01*
X33484318Y-56781605D01*
X33580732Y-56637310D01*
X33647144Y-56476978D01*
X33681000Y-56306771D01*
X33681000Y-56133229D01*
X33647144Y-55963022D01*
X33580732Y-55802690D01*
X33541806Y-55744432D01*
X33570711Y-55720711D01*
X33618322Y-55662696D01*
X33653701Y-55596508D01*
X33675487Y-55524689D01*
X33682843Y-55450000D01*
X33682843Y-54632927D01*
X36569000Y-54632927D01*
X36569000Y-54767073D01*
X36595171Y-54898640D01*
X36646506Y-55022574D01*
X36721033Y-55134112D01*
X36815888Y-55228967D01*
X36927426Y-55303494D01*
X37051360Y-55354829D01*
X37182927Y-55381000D01*
X37317073Y-55381000D01*
X37448640Y-55354829D01*
X37572574Y-55303494D01*
X37684112Y-55228967D01*
X37778967Y-55134112D01*
X37853494Y-55022574D01*
X37904829Y-54898640D01*
X37931000Y-54767073D01*
X37931000Y-54632927D01*
X37904829Y-54501360D01*
X37853494Y-54377426D01*
X37778967Y-54265888D01*
X37684112Y-54171033D01*
X37572574Y-54096506D01*
X37448640Y-54045171D01*
X37317073Y-54019000D01*
X37182927Y-54019000D01*
X37051360Y-54045171D01*
X36927426Y-54096506D01*
X36815888Y-54171033D01*
X36721033Y-54265888D01*
X36646506Y-54377426D01*
X36595171Y-54501360D01*
X36569000Y-54632927D01*
X33682843Y-54632927D01*
X33682843Y-54450000D01*
X33675487Y-54375311D01*
X33653701Y-54303492D01*
X33618322Y-54237304D01*
X33570711Y-54179289D01*
X33512696Y-54131678D01*
X33446508Y-54096299D01*
X33374689Y-54074513D01*
X33300000Y-54067157D01*
X32300000Y-54067157D01*
X32245622Y-54072513D01*
X32090206Y-53962877D01*
X31886864Y-53872554D01*
X31831874Y-53855881D01*
X31657000Y-53982046D01*
X31657000Y-54823000D01*
X31677000Y-54823000D01*
X31677000Y-55077000D01*
X31657000Y-55077000D01*
X31657000Y-55097000D01*
X31403000Y-55097000D01*
X31403000Y-55077000D01*
X30387000Y-55077000D01*
X30387000Y-55097000D01*
X30133000Y-55097000D01*
X30133000Y-55077000D01*
X30113000Y-55077000D01*
X30113000Y-54823000D01*
X30133000Y-54823000D01*
X30133000Y-53982046D01*
X30387000Y-53982046D01*
X30387000Y-54823000D01*
X31403000Y-54823000D01*
X31403000Y-53982046D01*
X31228126Y-53855881D01*
X31173136Y-53872554D01*
X30969794Y-53962877D01*
X30895000Y-54015639D01*
X30820206Y-53962877D01*
X30616864Y-53872554D01*
X30561874Y-53855881D01*
X30387000Y-53982046D01*
X30133000Y-53982046D01*
X29958126Y-53855881D01*
X29903136Y-53872554D01*
X29699794Y-53962877D01*
X29517980Y-54091135D01*
X29429569Y-54184141D01*
X29407310Y-54169268D01*
X29246978Y-54102856D01*
X29076771Y-54069000D01*
X28903229Y-54069000D01*
X28733022Y-54102856D01*
X28572690Y-54169268D01*
X28550431Y-54184141D01*
X28462020Y-54091135D01*
X28280206Y-53962877D01*
X28076864Y-53872554D01*
X28021874Y-53855881D01*
X27847000Y-53982046D01*
X27847000Y-54823000D01*
X27867000Y-54823000D01*
X27867000Y-55077000D01*
X27847000Y-55077000D01*
X27847000Y-55097000D01*
X27593000Y-55097000D01*
X27593000Y-55077000D01*
X26750871Y-55077000D01*
X26625874Y-55251876D01*
X21656000Y-55251876D01*
X21656000Y-54685486D01*
X21665472Y-54697028D01*
X21814849Y-54819618D01*
X21985271Y-54910711D01*
X22170190Y-54966805D01*
X22314313Y-54981000D01*
X23110687Y-54981000D01*
X23254810Y-54966805D01*
X23439729Y-54910711D01*
X23610151Y-54819618D01*
X23759528Y-54697028D01*
X23799662Y-54648124D01*
X26625874Y-54648124D01*
X26750871Y-54823000D01*
X27593000Y-54823000D01*
X27593000Y-53982046D01*
X27418126Y-53855881D01*
X27363136Y-53872554D01*
X27159794Y-53962877D01*
X26977980Y-54091135D01*
X26824682Y-54252399D01*
X26705790Y-54440471D01*
X26625874Y-54648124D01*
X23799662Y-54648124D01*
X23882118Y-54547651D01*
X23973211Y-54377229D01*
X24029305Y-54192310D01*
X24048246Y-54000000D01*
X24029305Y-53807690D01*
X23973211Y-53622771D01*
X23882118Y-53452349D01*
X23759528Y-53302972D01*
X23610151Y-53180382D01*
X23439729Y-53089289D01*
X23254810Y-53033195D01*
X23110687Y-53019000D01*
X22314313Y-53019000D01*
X22170190Y-53033195D01*
X21985271Y-53089289D01*
X21814849Y-53180382D01*
X21665472Y-53302972D01*
X21656000Y-53314514D01*
X21656000Y-52891069D01*
X24306500Y-52891069D01*
X24306500Y-53108931D01*
X24349003Y-53322608D01*
X24432376Y-53523887D01*
X24553414Y-53705034D01*
X24707466Y-53859086D01*
X24888613Y-53980124D01*
X25089892Y-54063497D01*
X25303569Y-54106000D01*
X25521431Y-54106000D01*
X25735108Y-54063497D01*
X25936387Y-53980124D01*
X26117534Y-53859086D01*
X26271586Y-53705034D01*
X26392624Y-53523887D01*
X26475997Y-53322608D01*
X26518500Y-53108931D01*
X26518500Y-52891069D01*
X26475997Y-52677392D01*
X26392624Y-52476113D01*
X26271586Y-52294966D01*
X26117534Y-52140914D01*
X25936387Y-52019876D01*
X25735108Y-51936503D01*
X25521431Y-51894000D01*
X25303569Y-51894000D01*
X25089892Y-51936503D01*
X24888613Y-52019876D01*
X24707466Y-52140914D01*
X24553414Y-52294966D01*
X24432376Y-52476113D01*
X24349003Y-52677392D01*
X24306500Y-52891069D01*
X21656000Y-52891069D01*
X21656000Y-51804612D01*
X41464420Y-51804612D01*
X41464420Y-51938758D01*
X41490591Y-52070325D01*
X41541926Y-52194259D01*
X41616453Y-52305797D01*
X41711308Y-52400652D01*
X41822846Y-52475179D01*
X41946780Y-52526514D01*
X42078347Y-52552685D01*
X42212493Y-52552685D01*
X42344060Y-52526514D01*
X42467994Y-52475179D01*
X42579532Y-52400652D01*
X42674387Y-52305797D01*
X42748914Y-52194259D01*
X42800249Y-52070325D01*
X42826420Y-51938758D01*
X42826420Y-51804612D01*
X42800249Y-51673045D01*
X42748914Y-51549111D01*
X42674387Y-51437573D01*
X42579532Y-51342718D01*
X42467994Y-51268191D01*
X42344060Y-51216856D01*
X42212493Y-51190685D01*
X42078347Y-51190685D01*
X41946780Y-51216856D01*
X41822846Y-51268191D01*
X41711308Y-51342718D01*
X41616453Y-51437573D01*
X41541926Y-51549111D01*
X41490591Y-51673045D01*
X41464420Y-51804612D01*
X21656000Y-51804612D01*
X21656000Y-51037852D01*
X27769000Y-51037852D01*
X27769000Y-51162148D01*
X27793249Y-51284056D01*
X27840815Y-51398891D01*
X27909870Y-51502239D01*
X27997761Y-51590130D01*
X28101109Y-51659185D01*
X28215944Y-51706751D01*
X28337852Y-51731000D01*
X28462148Y-51731000D01*
X28584056Y-51706751D01*
X28698891Y-51659185D01*
X28802239Y-51590130D01*
X28890130Y-51502239D01*
X28959185Y-51398891D01*
X29006751Y-51284056D01*
X29031000Y-51162148D01*
X29031000Y-51037852D01*
X29006751Y-50915944D01*
X28959185Y-50801109D01*
X28890130Y-50697761D01*
X28802239Y-50609870D01*
X28698891Y-50540815D01*
X28584056Y-50493249D01*
X28462148Y-50469000D01*
X28337852Y-50469000D01*
X28215944Y-50493249D01*
X28101109Y-50540815D01*
X27997761Y-50609870D01*
X27909870Y-50697761D01*
X27840815Y-50801109D01*
X27793249Y-50915944D01*
X27769000Y-51037852D01*
X21656000Y-51037852D01*
X21656000Y-49482927D01*
X26369000Y-49482927D01*
X26369000Y-49617073D01*
X26395171Y-49748640D01*
X26446506Y-49872574D01*
X26521033Y-49984112D01*
X26615888Y-50078967D01*
X26727426Y-50153494D01*
X26851360Y-50204829D01*
X26982927Y-50231000D01*
X27117073Y-50231000D01*
X27248640Y-50204829D01*
X27372574Y-50153494D01*
X27484112Y-50078967D01*
X27578967Y-49984112D01*
X27653494Y-49872574D01*
X27704829Y-49748640D01*
X27731000Y-49617073D01*
X27731000Y-49482927D01*
X27704829Y-49351360D01*
X27672404Y-49273078D01*
X31919000Y-49273078D01*
X31919000Y-49426922D01*
X31949013Y-49577809D01*
X32007887Y-49719942D01*
X32093358Y-49847859D01*
X32202141Y-49956642D01*
X32330058Y-50042113D01*
X32472191Y-50100987D01*
X32623078Y-50131000D01*
X32776922Y-50131000D01*
X32927809Y-50100987D01*
X33069942Y-50042113D01*
X33137500Y-49996972D01*
X33205058Y-50042113D01*
X33347191Y-50100987D01*
X33498078Y-50131000D01*
X33651922Y-50131000D01*
X33802809Y-50100987D01*
X33944942Y-50042113D01*
X34012500Y-49996972D01*
X34080058Y-50042113D01*
X34222191Y-50100987D01*
X34373078Y-50131000D01*
X34526922Y-50131000D01*
X34677809Y-50100987D01*
X34721409Y-50082927D01*
X42369000Y-50082927D01*
X42369000Y-50217073D01*
X42395171Y-50348640D01*
X42446506Y-50472574D01*
X42521033Y-50584112D01*
X42615888Y-50678967D01*
X42727426Y-50753494D01*
X42851360Y-50804829D01*
X42982927Y-50831000D01*
X43117073Y-50831000D01*
X43248640Y-50804829D01*
X43372574Y-50753494D01*
X43484112Y-50678967D01*
X43578967Y-50584112D01*
X43653494Y-50472574D01*
X43704829Y-50348640D01*
X43731000Y-50217073D01*
X43731000Y-50082927D01*
X43704829Y-49951360D01*
X43653494Y-49827426D01*
X43578967Y-49715888D01*
X43484112Y-49621033D01*
X43372574Y-49546506D01*
X43248640Y-49495171D01*
X43117073Y-49469000D01*
X42982927Y-49469000D01*
X42851360Y-49495171D01*
X42727426Y-49546506D01*
X42615888Y-49621033D01*
X42521033Y-49715888D01*
X42446506Y-49827426D01*
X42395171Y-49951360D01*
X42369000Y-50082927D01*
X34721409Y-50082927D01*
X34819942Y-50042113D01*
X34947859Y-49956642D01*
X35056642Y-49847859D01*
X35142113Y-49719942D01*
X35200987Y-49577809D01*
X35231000Y-49426922D01*
X35231000Y-49273078D01*
X35200987Y-49122191D01*
X35142113Y-48980058D01*
X35096972Y-48912500D01*
X35142113Y-48844942D01*
X35200987Y-48702809D01*
X35231000Y-48551922D01*
X35231000Y-48398078D01*
X35200987Y-48247191D01*
X35142113Y-48105058D01*
X35056642Y-47977141D01*
X34947859Y-47868358D01*
X34819942Y-47782887D01*
X34677809Y-47724013D01*
X34526922Y-47694000D01*
X34373078Y-47694000D01*
X34222191Y-47724013D01*
X34080058Y-47782887D01*
X33952141Y-47868358D01*
X33843358Y-47977141D01*
X33757887Y-48105058D01*
X33699013Y-48247191D01*
X33669000Y-48398078D01*
X33669000Y-48551922D01*
X33673240Y-48573240D01*
X33651922Y-48569000D01*
X33498078Y-48569000D01*
X33347191Y-48599013D01*
X33205058Y-48657887D01*
X33137500Y-48703028D01*
X33069942Y-48657887D01*
X32927809Y-48599013D01*
X32776922Y-48569000D01*
X32623078Y-48569000D01*
X32472191Y-48599013D01*
X32330058Y-48657887D01*
X32202141Y-48743358D01*
X32093358Y-48852141D01*
X32007887Y-48980058D01*
X31949013Y-49122191D01*
X31919000Y-49273078D01*
X27672404Y-49273078D01*
X27653494Y-49227426D01*
X27578967Y-49115888D01*
X27484112Y-49021033D01*
X27372574Y-48946506D01*
X27248640Y-48895171D01*
X27117073Y-48869000D01*
X26982927Y-48869000D01*
X26851360Y-48895171D01*
X26727426Y-48946506D01*
X26615888Y-49021033D01*
X26521033Y-49115888D01*
X26446506Y-49227426D01*
X26395171Y-49351360D01*
X26369000Y-49482927D01*
X21656000Y-49482927D01*
X21656000Y-47685486D01*
X21665472Y-47697028D01*
X21814849Y-47819618D01*
X21985271Y-47910711D01*
X22170190Y-47966805D01*
X22314313Y-47981000D01*
X23110687Y-47981000D01*
X23254810Y-47966805D01*
X23439729Y-47910711D01*
X23476476Y-47891069D01*
X24306500Y-47891069D01*
X24306500Y-48108931D01*
X24349003Y-48322608D01*
X24432376Y-48523887D01*
X24553414Y-48705034D01*
X24707466Y-48859086D01*
X24888613Y-48980124D01*
X25089892Y-49063497D01*
X25303569Y-49106000D01*
X25521431Y-49106000D01*
X25735108Y-49063497D01*
X25936387Y-48980124D01*
X26117534Y-48859086D01*
X26271586Y-48705034D01*
X26392624Y-48523887D01*
X26475997Y-48322608D01*
X26518500Y-48108931D01*
X26518500Y-47891069D01*
X26475997Y-47677392D01*
X26392624Y-47476113D01*
X26271586Y-47294966D01*
X26117534Y-47140914D01*
X25955920Y-47032927D01*
X36519000Y-47032927D01*
X36519000Y-47167073D01*
X36545171Y-47298640D01*
X36596506Y-47422574D01*
X36671033Y-47534112D01*
X36765888Y-47628967D01*
X36877426Y-47703494D01*
X37001360Y-47754829D01*
X37132927Y-47781000D01*
X37267073Y-47781000D01*
X37398640Y-47754829D01*
X37522574Y-47703494D01*
X37634112Y-47628967D01*
X37728967Y-47534112D01*
X37783162Y-47453003D01*
X40444000Y-47453003D01*
X40444000Y-47596997D01*
X40472092Y-47738225D01*
X40527196Y-47871258D01*
X40607195Y-47990985D01*
X40709015Y-48092805D01*
X40828742Y-48172804D01*
X40961775Y-48227908D01*
X41103003Y-48256000D01*
X41246997Y-48256000D01*
X41388225Y-48227908D01*
X41521258Y-48172804D01*
X41640985Y-48092805D01*
X41742805Y-47990985D01*
X41822804Y-47871258D01*
X41877908Y-47738225D01*
X41894859Y-47653003D01*
X47919000Y-47653003D01*
X47919000Y-47796997D01*
X47947092Y-47938225D01*
X48002196Y-48071258D01*
X48082195Y-48190985D01*
X48184015Y-48292805D01*
X48303742Y-48372804D01*
X48436775Y-48427908D01*
X48578003Y-48456000D01*
X48721997Y-48456000D01*
X48863225Y-48427908D01*
X48996258Y-48372804D01*
X49115985Y-48292805D01*
X49217805Y-48190985D01*
X49297804Y-48071258D01*
X49352908Y-47938225D01*
X49381000Y-47796997D01*
X49381000Y-47653003D01*
X49352908Y-47511775D01*
X49297804Y-47378742D01*
X49217805Y-47259015D01*
X49115985Y-47157195D01*
X48996258Y-47077196D01*
X48863225Y-47022092D01*
X48721997Y-46994000D01*
X48578003Y-46994000D01*
X48436775Y-47022092D01*
X48303742Y-47077196D01*
X48184015Y-47157195D01*
X48082195Y-47259015D01*
X48002196Y-47378742D01*
X47947092Y-47511775D01*
X47919000Y-47653003D01*
X41894859Y-47653003D01*
X41906000Y-47596997D01*
X41906000Y-47453003D01*
X41877908Y-47311775D01*
X41822804Y-47178742D01*
X41742805Y-47059015D01*
X41640985Y-46957195D01*
X41521258Y-46877196D01*
X41388225Y-46822092D01*
X41246997Y-46794000D01*
X41103003Y-46794000D01*
X40961775Y-46822092D01*
X40828742Y-46877196D01*
X40709015Y-46957195D01*
X40607195Y-47059015D01*
X40527196Y-47178742D01*
X40472092Y-47311775D01*
X40444000Y-47453003D01*
X37783162Y-47453003D01*
X37803494Y-47422574D01*
X37854829Y-47298640D01*
X37881000Y-47167073D01*
X37881000Y-47032927D01*
X37854829Y-46901360D01*
X37803494Y-46777426D01*
X37728967Y-46665888D01*
X37634112Y-46571033D01*
X37522574Y-46496506D01*
X37398640Y-46445171D01*
X37267073Y-46419000D01*
X37132927Y-46419000D01*
X37001360Y-46445171D01*
X36877426Y-46496506D01*
X36765888Y-46571033D01*
X36671033Y-46665888D01*
X36596506Y-46777426D01*
X36545171Y-46901360D01*
X36519000Y-47032927D01*
X25955920Y-47032927D01*
X25936387Y-47019876D01*
X25735108Y-46936503D01*
X25521431Y-46894000D01*
X25303569Y-46894000D01*
X25089892Y-46936503D01*
X24888613Y-47019876D01*
X24707466Y-47140914D01*
X24553414Y-47294966D01*
X24432376Y-47476113D01*
X24349003Y-47677392D01*
X24306500Y-47891069D01*
X23476476Y-47891069D01*
X23610151Y-47819618D01*
X23759528Y-47697028D01*
X23882118Y-47547651D01*
X23973211Y-47377229D01*
X24029305Y-47192310D01*
X24048246Y-47000000D01*
X24029305Y-46807690D01*
X23973211Y-46622771D01*
X23882118Y-46452349D01*
X23759528Y-46302972D01*
X23653433Y-46215902D01*
X38185275Y-46215902D01*
X38185275Y-46350048D01*
X38211446Y-46481615D01*
X38262781Y-46605549D01*
X38337308Y-46717087D01*
X38432163Y-46811942D01*
X38543701Y-46886469D01*
X38667635Y-46937804D01*
X38799202Y-46963975D01*
X38933348Y-46963975D01*
X39064915Y-46937804D01*
X39188849Y-46886469D01*
X39300387Y-46811942D01*
X39395242Y-46717087D01*
X39469769Y-46605549D01*
X39521104Y-46481615D01*
X39547275Y-46350048D01*
X39547275Y-46215902D01*
X39521104Y-46084335D01*
X39469769Y-45960401D01*
X39395242Y-45848863D01*
X39300387Y-45754008D01*
X39188849Y-45679481D01*
X39064915Y-45628146D01*
X38933348Y-45601975D01*
X38799202Y-45601975D01*
X38667635Y-45628146D01*
X38543701Y-45679481D01*
X38432163Y-45754008D01*
X38337308Y-45848863D01*
X38262781Y-45960401D01*
X38211446Y-46084335D01*
X38185275Y-46215902D01*
X23653433Y-46215902D01*
X23610151Y-46180382D01*
X23439729Y-46089289D01*
X23254810Y-46033195D01*
X23110687Y-46019000D01*
X22314313Y-46019000D01*
X22170190Y-46033195D01*
X21985271Y-46089289D01*
X21814849Y-46180382D01*
X21665472Y-46302972D01*
X21656000Y-46314514D01*
X21656000Y-45019854D01*
X21688267Y-44690771D01*
X21778075Y-44393312D01*
X21802126Y-44348078D01*
X43969000Y-44348078D01*
X43969000Y-44501922D01*
X43999013Y-44652809D01*
X44057887Y-44794942D01*
X44143358Y-44922859D01*
X44252141Y-45031642D01*
X44380058Y-45117113D01*
X44522191Y-45175987D01*
X44673078Y-45206000D01*
X44826922Y-45206000D01*
X44977809Y-45175987D01*
X45119942Y-45117113D01*
X45247859Y-45031642D01*
X45331423Y-44948078D01*
X46794000Y-44948078D01*
X46794000Y-45101922D01*
X46824013Y-45252809D01*
X46882887Y-45394942D01*
X46968358Y-45522859D01*
X47077141Y-45631642D01*
X47205058Y-45717113D01*
X47347191Y-45775987D01*
X47498078Y-45806000D01*
X47651922Y-45806000D01*
X47802809Y-45775987D01*
X47944942Y-45717113D01*
X48072859Y-45631642D01*
X48181642Y-45522859D01*
X48267113Y-45394942D01*
X48325987Y-45252809D01*
X48356000Y-45101922D01*
X48356000Y-44948078D01*
X48325987Y-44797191D01*
X48267113Y-44655058D01*
X48181642Y-44527141D01*
X48072859Y-44418358D01*
X47944942Y-44332887D01*
X47802809Y-44274013D01*
X47651922Y-44244000D01*
X47498078Y-44244000D01*
X47347191Y-44274013D01*
X47205058Y-44332887D01*
X47077141Y-44418358D01*
X46968358Y-44527141D01*
X46882887Y-44655058D01*
X46824013Y-44797191D01*
X46794000Y-44948078D01*
X45331423Y-44948078D01*
X45356642Y-44922859D01*
X45442113Y-44794942D01*
X45500987Y-44652809D01*
X45531000Y-44501922D01*
X45531000Y-44348078D01*
X45500987Y-44197191D01*
X45442113Y-44055058D01*
X45356642Y-43927141D01*
X45247859Y-43818358D01*
X45119942Y-43732887D01*
X44977809Y-43674013D01*
X44826922Y-43644000D01*
X44673078Y-43644000D01*
X44522191Y-43674013D01*
X44380058Y-43732887D01*
X44252141Y-43818358D01*
X44143358Y-43927141D01*
X44057887Y-44055058D01*
X43999013Y-44197191D01*
X43969000Y-44348078D01*
X21802126Y-44348078D01*
X21923945Y-44118972D01*
X22120325Y-43878187D01*
X22359736Y-43680127D01*
X22633053Y-43532346D01*
X22929872Y-43440465D01*
X23257782Y-43406000D01*
X29380078Y-43406000D01*
X29400018Y-43407963D01*
X29419941Y-43406000D01*
X29479590Y-43400125D01*
X29479601Y-43400122D01*
X29479608Y-43400121D01*
X29505575Y-43392243D01*
X29556121Y-43376910D01*
X29556133Y-43376903D01*
X29556138Y-43376902D01*
X29574973Y-43366833D01*
X29626653Y-43339210D01*
X29626663Y-43339201D01*
X29626668Y-43339199D01*
X29647545Y-43322064D01*
X29688474Y-43288474D01*
X29688482Y-43288464D01*
X29688487Y-43288460D01*
X29706728Y-43266232D01*
X29739210Y-43226653D01*
X29739216Y-43226642D01*
X29739220Y-43226637D01*
X29752788Y-43201250D01*
X29776910Y-43156121D01*
X29776913Y-43156110D01*
X29776917Y-43156103D01*
X29788881Y-43116656D01*
X29798349Y-43085446D01*
X30801953Y-43086440D01*
G37*
X30801953Y-43086440D02*
X30823090Y-43156121D01*
X30860790Y-43226653D01*
X30911526Y-43288474D01*
X30973347Y-43339210D01*
X31043879Y-43376910D01*
X31120410Y-43400125D01*
X31173044Y-43405309D01*
X31200000Y-43407964D01*
X31219940Y-43406000D01*
X40530060Y-43406000D01*
X40550000Y-43407964D01*
X40576957Y-43405309D01*
X40629590Y-43400125D01*
X40706121Y-43376910D01*
X40776653Y-43339210D01*
X40838474Y-43288474D01*
X40889210Y-43226653D01*
X40926910Y-43156121D01*
X40944998Y-43096491D01*
X41605200Y-43097145D01*
X41623090Y-43156121D01*
X41660790Y-43226653D01*
X41711526Y-43288474D01*
X41773347Y-43339210D01*
X41843879Y-43376910D01*
X41920410Y-43400125D01*
X41980059Y-43406000D01*
X41980060Y-43406000D01*
X42000000Y-43407964D01*
X42019941Y-43406000D01*
X58180146Y-43406000D01*
X58509229Y-43438267D01*
X58806688Y-43528075D01*
X59081028Y-43673945D01*
X59321813Y-43870325D01*
X59519873Y-44109736D01*
X59667654Y-44383053D01*
X59759535Y-44679872D01*
X59794001Y-45007792D01*
X59794000Y-47619940D01*
X59794001Y-47619950D01*
X59794000Y-50480059D01*
X59794000Y-50480060D01*
X59794001Y-55980136D01*
X59761733Y-56309230D01*
X59671926Y-56606684D01*
X59526056Y-56881025D01*
X59329675Y-57121813D01*
X59090265Y-57319871D01*
X58816948Y-57467654D01*
X58520128Y-57559535D01*
X58192453Y-57593975D01*
X49927000Y-57568464D01*
X49927000Y-52250000D01*
X49924560Y-52225224D01*
X49917333Y-52201399D01*
X49905597Y-52179443D01*
X49889803Y-52160197D01*
X49870557Y-52144403D01*
X49848601Y-52132667D01*
X49824776Y-52125440D01*
X49800000Y-52123000D01*
X47877000Y-52123000D01*
X47877000Y-51250000D01*
X47874560Y-51225224D01*
X47867333Y-51201399D01*
X47855597Y-51179443D01*
X47839803Y-51160197D01*
X47820557Y-51144403D01*
X47798601Y-51132667D01*
X47774776Y-51125440D01*
X47750000Y-51123000D01*
X45900000Y-51123000D01*
X45875224Y-51125440D01*
X45851399Y-51132667D01*
X45829443Y-51144403D01*
X45810197Y-51160197D01*
X45794403Y-51179443D01*
X45782667Y-51201399D01*
X45775440Y-51225224D01*
X45773000Y-51250000D01*
X45773000Y-53673000D01*
X43696835Y-53673000D01*
X43706000Y-53626922D01*
X43706000Y-53473078D01*
X43675987Y-53322191D01*
X43617113Y-53180058D01*
X43531642Y-53052141D01*
X43422859Y-52943358D01*
X43294942Y-52857887D01*
X43152809Y-52799013D01*
X43001922Y-52769000D01*
X42848078Y-52769000D01*
X42697191Y-52799013D01*
X42555058Y-52857887D01*
X42427141Y-52943358D01*
X42318358Y-53052141D01*
X42232887Y-53180058D01*
X42174013Y-53322191D01*
X42144000Y-53473078D01*
X42144000Y-53626922D01*
X42174013Y-53777809D01*
X42198000Y-53835718D01*
X42198000Y-57544610D01*
X42020572Y-57544062D01*
X42000000Y-57542036D01*
X41960601Y-57545917D01*
X41921646Y-57549632D01*
X41921044Y-57549813D01*
X41920410Y-57549875D01*
X41882557Y-57561358D01*
X41845044Y-57572610D01*
X41844487Y-57572906D01*
X41843879Y-57573090D01*
X41808909Y-57591782D01*
X41774396Y-57610093D01*
X41773911Y-57610489D01*
X41773347Y-57610790D01*
X41742635Y-57635995D01*
X41712418Y-57660638D01*
X41712018Y-57661122D01*
X41711526Y-57661526D01*
X41686413Y-57692127D01*
X41661492Y-57722302D01*
X41661193Y-57722856D01*
X41660790Y-57723348D01*
X41642177Y-57758171D01*
X41623574Y-57792717D01*
X41623389Y-57793321D01*
X41623090Y-57793880D01*
X41611640Y-57831627D01*
X41600123Y-57869176D01*
X41600059Y-57869804D01*
X41599875Y-57870411D01*
X41599705Y-57872138D01*
X40950219Y-57871367D01*
X40950125Y-57870410D01*
X40926910Y-57793879D01*
X40889210Y-57723347D01*
X40838474Y-57661526D01*
X40776652Y-57610790D01*
X40706120Y-57573090D01*
X40629589Y-57549875D01*
X40550000Y-57542036D01*
X40524395Y-57544558D01*
X31220610Y-57513973D01*
X31200000Y-57511943D01*
X31160749Y-57515809D01*
X31121726Y-57519523D01*
X31121083Y-57519716D01*
X31120410Y-57519782D01*
X31082679Y-57531227D01*
X31045119Y-57542486D01*
X31044525Y-57542801D01*
X31043879Y-57542997D01*
X31009099Y-57561587D01*
X30974464Y-57579954D01*
X30973944Y-57580378D01*
X30973347Y-57580697D01*
X30942798Y-57605768D01*
X30912476Y-57630487D01*
X30912049Y-57631004D01*
X30911526Y-57631433D01*
X30886528Y-57661893D01*
X30861537Y-57692141D01*
X30861217Y-57692734D01*
X30860790Y-57693255D01*
X30842234Y-57727971D01*
X30823606Y-57762548D01*
X30823409Y-57763191D01*
X30823090Y-57763787D01*
X30811648Y-57801507D01*
X30800139Y-57839003D01*
X30800071Y-57839672D01*
X30799875Y-57840318D01*
X30798005Y-57859310D01*
X29801953Y-57858127D01*
X29800380Y-57841613D01*
X29800190Y-57840980D01*
X29800125Y-57840317D01*
X29788663Y-57802531D01*
X29777413Y-57765007D01*
X29777103Y-57764423D01*
X29776910Y-57763786D01*
X29758255Y-57728884D01*
X29739941Y-57694354D01*
X29739526Y-57693845D01*
X29739210Y-57693254D01*
X29714073Y-57662625D01*
X29689406Y-57632369D01*
X29688897Y-57631949D01*
X29688474Y-57631433D01*
X29657949Y-57606381D01*
X29627749Y-57581433D01*
X29627166Y-57581119D01*
X29626652Y-57580697D01*
X29591814Y-57562076D01*
X29557339Y-57543505D01*
X29556708Y-57543311D01*
X29556120Y-57542997D01*
X29518350Y-57531540D01*
X29480884Y-57520042D01*
X29480225Y-57519975D01*
X29479589Y-57519782D01*
X29440346Y-57515917D01*
X29421254Y-57513974D01*
X29420599Y-57513972D01*
X29400000Y-57511943D01*
X29380712Y-57513843D01*
X23270514Y-57494065D01*
X22940770Y-57461733D01*
X22643316Y-57371926D01*
X22368975Y-57226056D01*
X22128187Y-57029675D01*
X21930129Y-56790265D01*
X21782346Y-56516948D01*
X21690465Y-56220128D01*
X21656000Y-55892218D01*
X21656000Y-55251876D01*
X26625874Y-55251876D01*
X26705790Y-55459529D01*
X26824682Y-55647601D01*
X26952824Y-55782402D01*
X26939268Y-55802690D01*
X26872856Y-55963022D01*
X26839000Y-56133229D01*
X26839000Y-56306771D01*
X26872856Y-56476978D01*
X26939268Y-56637310D01*
X27035682Y-56781605D01*
X27158395Y-56904318D01*
X27302690Y-57000732D01*
X27463022Y-57067144D01*
X27633229Y-57101000D01*
X27806771Y-57101000D01*
X27976978Y-57067144D01*
X28137310Y-57000732D01*
X28281605Y-56904318D01*
X28355000Y-56830923D01*
X28428395Y-56904318D01*
X28572690Y-57000732D01*
X28733022Y-57067144D01*
X28903229Y-57101000D01*
X29076771Y-57101000D01*
X29246978Y-57067144D01*
X29407310Y-57000732D01*
X29551605Y-56904318D01*
X29625000Y-56830923D01*
X29698395Y-56904318D01*
X29842690Y-57000732D01*
X30003022Y-57067144D01*
X30173229Y-57101000D01*
X30346771Y-57101000D01*
X30516978Y-57067144D01*
X30677310Y-57000732D01*
X30821605Y-56904318D01*
X30895000Y-56830923D01*
X30968395Y-56904318D01*
X31112690Y-57000732D01*
X31273022Y-57067144D01*
X31443229Y-57101000D01*
X31616771Y-57101000D01*
X31786978Y-57067144D01*
X31947310Y-57000732D01*
X32091605Y-56904318D01*
X32165000Y-56830923D01*
X32238395Y-56904318D01*
X32382690Y-57000732D01*
X32543022Y-57067144D01*
X32713229Y-57101000D01*
X32886771Y-57101000D01*
X33056978Y-57067144D01*
X33217310Y-57000732D01*
X33361605Y-56904318D01*
X33484318Y-56781605D01*
X33580732Y-56637310D01*
X33647144Y-56476978D01*
X33681000Y-56306771D01*
X33681000Y-56133229D01*
X33647144Y-55963022D01*
X33580732Y-55802690D01*
X33541806Y-55744432D01*
X33570711Y-55720711D01*
X33618322Y-55662696D01*
X33653701Y-55596508D01*
X33675487Y-55524689D01*
X33682843Y-55450000D01*
X33682843Y-54632927D01*
X36569000Y-54632927D01*
X36569000Y-54767073D01*
X36595171Y-54898640D01*
X36646506Y-55022574D01*
X36721033Y-55134112D01*
X36815888Y-55228967D01*
X36927426Y-55303494D01*
X37051360Y-55354829D01*
X37182927Y-55381000D01*
X37317073Y-55381000D01*
X37448640Y-55354829D01*
X37572574Y-55303494D01*
X37684112Y-55228967D01*
X37778967Y-55134112D01*
X37853494Y-55022574D01*
X37904829Y-54898640D01*
X37931000Y-54767073D01*
X37931000Y-54632927D01*
X37904829Y-54501360D01*
X37853494Y-54377426D01*
X37778967Y-54265888D01*
X37684112Y-54171033D01*
X37572574Y-54096506D01*
X37448640Y-54045171D01*
X37317073Y-54019000D01*
X37182927Y-54019000D01*
X37051360Y-54045171D01*
X36927426Y-54096506D01*
X36815888Y-54171033D01*
X36721033Y-54265888D01*
X36646506Y-54377426D01*
X36595171Y-54501360D01*
X36569000Y-54632927D01*
X33682843Y-54632927D01*
X33682843Y-54450000D01*
X33675487Y-54375311D01*
X33653701Y-54303492D01*
X33618322Y-54237304D01*
X33570711Y-54179289D01*
X33512696Y-54131678D01*
X33446508Y-54096299D01*
X33374689Y-54074513D01*
X33300000Y-54067157D01*
X32300000Y-54067157D01*
X32245622Y-54072513D01*
X32090206Y-53962877D01*
X31886864Y-53872554D01*
X31831874Y-53855881D01*
X31657000Y-53982046D01*
X31657000Y-54823000D01*
X31677000Y-54823000D01*
X31677000Y-55077000D01*
X31657000Y-55077000D01*
X31657000Y-55097000D01*
X31403000Y-55097000D01*
X31403000Y-55077000D01*
X30387000Y-55077000D01*
X30387000Y-55097000D01*
X30133000Y-55097000D01*
X30133000Y-55077000D01*
X30113000Y-55077000D01*
X30113000Y-54823000D01*
X30133000Y-54823000D01*
X30133000Y-53982046D01*
X30387000Y-53982046D01*
X30387000Y-54823000D01*
X31403000Y-54823000D01*
X31403000Y-53982046D01*
X31228126Y-53855881D01*
X31173136Y-53872554D01*
X30969794Y-53962877D01*
X30895000Y-54015639D01*
X30820206Y-53962877D01*
X30616864Y-53872554D01*
X30561874Y-53855881D01*
X30387000Y-53982046D01*
X30133000Y-53982046D01*
X29958126Y-53855881D01*
X29903136Y-53872554D01*
X29699794Y-53962877D01*
X29517980Y-54091135D01*
X29429569Y-54184141D01*
X29407310Y-54169268D01*
X29246978Y-54102856D01*
X29076771Y-54069000D01*
X28903229Y-54069000D01*
X28733022Y-54102856D01*
X28572690Y-54169268D01*
X28550431Y-54184141D01*
X28462020Y-54091135D01*
X28280206Y-53962877D01*
X28076864Y-53872554D01*
X28021874Y-53855881D01*
X27847000Y-53982046D01*
X27847000Y-54823000D01*
X27867000Y-54823000D01*
X27867000Y-55077000D01*
X27847000Y-55077000D01*
X27847000Y-55097000D01*
X27593000Y-55097000D01*
X27593000Y-55077000D01*
X26750871Y-55077000D01*
X26625874Y-55251876D01*
X21656000Y-55251876D01*
X21656000Y-54685486D01*
X21665472Y-54697028D01*
X21814849Y-54819618D01*
X21985271Y-54910711D01*
X22170190Y-54966805D01*
X22314313Y-54981000D01*
X23110687Y-54981000D01*
X23254810Y-54966805D01*
X23439729Y-54910711D01*
X23610151Y-54819618D01*
X23759528Y-54697028D01*
X23799662Y-54648124D01*
X26625874Y-54648124D01*
X26750871Y-54823000D01*
X27593000Y-54823000D01*
X27593000Y-53982046D01*
X27418126Y-53855881D01*
X27363136Y-53872554D01*
X27159794Y-53962877D01*
X26977980Y-54091135D01*
X26824682Y-54252399D01*
X26705790Y-54440471D01*
X26625874Y-54648124D01*
X23799662Y-54648124D01*
X23882118Y-54547651D01*
X23973211Y-54377229D01*
X24029305Y-54192310D01*
X24048246Y-54000000D01*
X24029305Y-53807690D01*
X23973211Y-53622771D01*
X23882118Y-53452349D01*
X23759528Y-53302972D01*
X23610151Y-53180382D01*
X23439729Y-53089289D01*
X23254810Y-53033195D01*
X23110687Y-53019000D01*
X22314313Y-53019000D01*
X22170190Y-53033195D01*
X21985271Y-53089289D01*
X21814849Y-53180382D01*
X21665472Y-53302972D01*
X21656000Y-53314514D01*
X21656000Y-52891069D01*
X24306500Y-52891069D01*
X24306500Y-53108931D01*
X24349003Y-53322608D01*
X24432376Y-53523887D01*
X24553414Y-53705034D01*
X24707466Y-53859086D01*
X24888613Y-53980124D01*
X25089892Y-54063497D01*
X25303569Y-54106000D01*
X25521431Y-54106000D01*
X25735108Y-54063497D01*
X25936387Y-53980124D01*
X26117534Y-53859086D01*
X26271586Y-53705034D01*
X26392624Y-53523887D01*
X26475997Y-53322608D01*
X26518500Y-53108931D01*
X26518500Y-52891069D01*
X26475997Y-52677392D01*
X26392624Y-52476113D01*
X26271586Y-52294966D01*
X26117534Y-52140914D01*
X25936387Y-52019876D01*
X25735108Y-51936503D01*
X25521431Y-51894000D01*
X25303569Y-51894000D01*
X25089892Y-51936503D01*
X24888613Y-52019876D01*
X24707466Y-52140914D01*
X24553414Y-52294966D01*
X24432376Y-52476113D01*
X24349003Y-52677392D01*
X24306500Y-52891069D01*
X21656000Y-52891069D01*
X21656000Y-51804612D01*
X41464420Y-51804612D01*
X41464420Y-51938758D01*
X41490591Y-52070325D01*
X41541926Y-52194259D01*
X41616453Y-52305797D01*
X41711308Y-52400652D01*
X41822846Y-52475179D01*
X41946780Y-52526514D01*
X42078347Y-52552685D01*
X42212493Y-52552685D01*
X42344060Y-52526514D01*
X42467994Y-52475179D01*
X42579532Y-52400652D01*
X42674387Y-52305797D01*
X42748914Y-52194259D01*
X42800249Y-52070325D01*
X42826420Y-51938758D01*
X42826420Y-51804612D01*
X42800249Y-51673045D01*
X42748914Y-51549111D01*
X42674387Y-51437573D01*
X42579532Y-51342718D01*
X42467994Y-51268191D01*
X42344060Y-51216856D01*
X42212493Y-51190685D01*
X42078347Y-51190685D01*
X41946780Y-51216856D01*
X41822846Y-51268191D01*
X41711308Y-51342718D01*
X41616453Y-51437573D01*
X41541926Y-51549111D01*
X41490591Y-51673045D01*
X41464420Y-51804612D01*
X21656000Y-51804612D01*
X21656000Y-51037852D01*
X27769000Y-51037852D01*
X27769000Y-51162148D01*
X27793249Y-51284056D01*
X27840815Y-51398891D01*
X27909870Y-51502239D01*
X27997761Y-51590130D01*
X28101109Y-51659185D01*
X28215944Y-51706751D01*
X28337852Y-51731000D01*
X28462148Y-51731000D01*
X28584056Y-51706751D01*
X28698891Y-51659185D01*
X28802239Y-51590130D01*
X28890130Y-51502239D01*
X28959185Y-51398891D01*
X29006751Y-51284056D01*
X29031000Y-51162148D01*
X29031000Y-51037852D01*
X29006751Y-50915944D01*
X28959185Y-50801109D01*
X28890130Y-50697761D01*
X28802239Y-50609870D01*
X28698891Y-50540815D01*
X28584056Y-50493249D01*
X28462148Y-50469000D01*
X28337852Y-50469000D01*
X28215944Y-50493249D01*
X28101109Y-50540815D01*
X27997761Y-50609870D01*
X27909870Y-50697761D01*
X27840815Y-50801109D01*
X27793249Y-50915944D01*
X27769000Y-51037852D01*
X21656000Y-51037852D01*
X21656000Y-49482927D01*
X26369000Y-49482927D01*
X26369000Y-49617073D01*
X26395171Y-49748640D01*
X26446506Y-49872574D01*
X26521033Y-49984112D01*
X26615888Y-50078967D01*
X26727426Y-50153494D01*
X26851360Y-50204829D01*
X26982927Y-50231000D01*
X27117073Y-50231000D01*
X27248640Y-50204829D01*
X27372574Y-50153494D01*
X27484112Y-50078967D01*
X27578967Y-49984112D01*
X27653494Y-49872574D01*
X27704829Y-49748640D01*
X27731000Y-49617073D01*
X27731000Y-49482927D01*
X27704829Y-49351360D01*
X27672404Y-49273078D01*
X31919000Y-49273078D01*
X31919000Y-49426922D01*
X31949013Y-49577809D01*
X32007887Y-49719942D01*
X32093358Y-49847859D01*
X32202141Y-49956642D01*
X32330058Y-50042113D01*
X32472191Y-50100987D01*
X32623078Y-50131000D01*
X32776922Y-50131000D01*
X32927809Y-50100987D01*
X33069942Y-50042113D01*
X33137500Y-49996972D01*
X33205058Y-50042113D01*
X33347191Y-50100987D01*
X33498078Y-50131000D01*
X33651922Y-50131000D01*
X33802809Y-50100987D01*
X33944942Y-50042113D01*
X34012500Y-49996972D01*
X34080058Y-50042113D01*
X34222191Y-50100987D01*
X34373078Y-50131000D01*
X34526922Y-50131000D01*
X34677809Y-50100987D01*
X34721409Y-50082927D01*
X42369000Y-50082927D01*
X42369000Y-50217073D01*
X42395171Y-50348640D01*
X42446506Y-50472574D01*
X42521033Y-50584112D01*
X42615888Y-50678967D01*
X42727426Y-50753494D01*
X42851360Y-50804829D01*
X42982927Y-50831000D01*
X43117073Y-50831000D01*
X43248640Y-50804829D01*
X43372574Y-50753494D01*
X43484112Y-50678967D01*
X43578967Y-50584112D01*
X43653494Y-50472574D01*
X43704829Y-50348640D01*
X43731000Y-50217073D01*
X43731000Y-50082927D01*
X43704829Y-49951360D01*
X43653494Y-49827426D01*
X43578967Y-49715888D01*
X43484112Y-49621033D01*
X43372574Y-49546506D01*
X43248640Y-49495171D01*
X43117073Y-49469000D01*
X42982927Y-49469000D01*
X42851360Y-49495171D01*
X42727426Y-49546506D01*
X42615888Y-49621033D01*
X42521033Y-49715888D01*
X42446506Y-49827426D01*
X42395171Y-49951360D01*
X42369000Y-50082927D01*
X34721409Y-50082927D01*
X34819942Y-50042113D01*
X34947859Y-49956642D01*
X35056642Y-49847859D01*
X35142113Y-49719942D01*
X35200987Y-49577809D01*
X35231000Y-49426922D01*
X35231000Y-49273078D01*
X35200987Y-49122191D01*
X35142113Y-48980058D01*
X35096972Y-48912500D01*
X35142113Y-48844942D01*
X35200987Y-48702809D01*
X35231000Y-48551922D01*
X35231000Y-48398078D01*
X35200987Y-48247191D01*
X35142113Y-48105058D01*
X35056642Y-47977141D01*
X34947859Y-47868358D01*
X34819942Y-47782887D01*
X34677809Y-47724013D01*
X34526922Y-47694000D01*
X34373078Y-47694000D01*
X34222191Y-47724013D01*
X34080058Y-47782887D01*
X33952141Y-47868358D01*
X33843358Y-47977141D01*
X33757887Y-48105058D01*
X33699013Y-48247191D01*
X33669000Y-48398078D01*
X33669000Y-48551922D01*
X33673240Y-48573240D01*
X33651922Y-48569000D01*
X33498078Y-48569000D01*
X33347191Y-48599013D01*
X33205058Y-48657887D01*
X33137500Y-48703028D01*
X33069942Y-48657887D01*
X32927809Y-48599013D01*
X32776922Y-48569000D01*
X32623078Y-48569000D01*
X32472191Y-48599013D01*
X32330058Y-48657887D01*
X32202141Y-48743358D01*
X32093358Y-48852141D01*
X32007887Y-48980058D01*
X31949013Y-49122191D01*
X31919000Y-49273078D01*
X27672404Y-49273078D01*
X27653494Y-49227426D01*
X27578967Y-49115888D01*
X27484112Y-49021033D01*
X27372574Y-48946506D01*
X27248640Y-48895171D01*
X27117073Y-48869000D01*
X26982927Y-48869000D01*
X26851360Y-48895171D01*
X26727426Y-48946506D01*
X26615888Y-49021033D01*
X26521033Y-49115888D01*
X26446506Y-49227426D01*
X26395171Y-49351360D01*
X26369000Y-49482927D01*
X21656000Y-49482927D01*
X21656000Y-47685486D01*
X21665472Y-47697028D01*
X21814849Y-47819618D01*
X21985271Y-47910711D01*
X22170190Y-47966805D01*
X22314313Y-47981000D01*
X23110687Y-47981000D01*
X23254810Y-47966805D01*
X23439729Y-47910711D01*
X23476476Y-47891069D01*
X24306500Y-47891069D01*
X24306500Y-48108931D01*
X24349003Y-48322608D01*
X24432376Y-48523887D01*
X24553414Y-48705034D01*
X24707466Y-48859086D01*
X24888613Y-48980124D01*
X25089892Y-49063497D01*
X25303569Y-49106000D01*
X25521431Y-49106000D01*
X25735108Y-49063497D01*
X25936387Y-48980124D01*
X26117534Y-48859086D01*
X26271586Y-48705034D01*
X26392624Y-48523887D01*
X26475997Y-48322608D01*
X26518500Y-48108931D01*
X26518500Y-47891069D01*
X26475997Y-47677392D01*
X26392624Y-47476113D01*
X26271586Y-47294966D01*
X26117534Y-47140914D01*
X25955920Y-47032927D01*
X36519000Y-47032927D01*
X36519000Y-47167073D01*
X36545171Y-47298640D01*
X36596506Y-47422574D01*
X36671033Y-47534112D01*
X36765888Y-47628967D01*
X36877426Y-47703494D01*
X37001360Y-47754829D01*
X37132927Y-47781000D01*
X37267073Y-47781000D01*
X37398640Y-47754829D01*
X37522574Y-47703494D01*
X37634112Y-47628967D01*
X37728967Y-47534112D01*
X37783162Y-47453003D01*
X40444000Y-47453003D01*
X40444000Y-47596997D01*
X40472092Y-47738225D01*
X40527196Y-47871258D01*
X40607195Y-47990985D01*
X40709015Y-48092805D01*
X40828742Y-48172804D01*
X40961775Y-48227908D01*
X41103003Y-48256000D01*
X41246997Y-48256000D01*
X41388225Y-48227908D01*
X41521258Y-48172804D01*
X41640985Y-48092805D01*
X41742805Y-47990985D01*
X41822804Y-47871258D01*
X41877908Y-47738225D01*
X41894859Y-47653003D01*
X47919000Y-47653003D01*
X47919000Y-47796997D01*
X47947092Y-47938225D01*
X48002196Y-48071258D01*
X48082195Y-48190985D01*
X48184015Y-48292805D01*
X48303742Y-48372804D01*
X48436775Y-48427908D01*
X48578003Y-48456000D01*
X48721997Y-48456000D01*
X48863225Y-48427908D01*
X48996258Y-48372804D01*
X49115985Y-48292805D01*
X49217805Y-48190985D01*
X49297804Y-48071258D01*
X49352908Y-47938225D01*
X49381000Y-47796997D01*
X49381000Y-47653003D01*
X49352908Y-47511775D01*
X49297804Y-47378742D01*
X49217805Y-47259015D01*
X49115985Y-47157195D01*
X48996258Y-47077196D01*
X48863225Y-47022092D01*
X48721997Y-46994000D01*
X48578003Y-46994000D01*
X48436775Y-47022092D01*
X48303742Y-47077196D01*
X48184015Y-47157195D01*
X48082195Y-47259015D01*
X48002196Y-47378742D01*
X47947092Y-47511775D01*
X47919000Y-47653003D01*
X41894859Y-47653003D01*
X41906000Y-47596997D01*
X41906000Y-47453003D01*
X41877908Y-47311775D01*
X41822804Y-47178742D01*
X41742805Y-47059015D01*
X41640985Y-46957195D01*
X41521258Y-46877196D01*
X41388225Y-46822092D01*
X41246997Y-46794000D01*
X41103003Y-46794000D01*
X40961775Y-46822092D01*
X40828742Y-46877196D01*
X40709015Y-46957195D01*
X40607195Y-47059015D01*
X40527196Y-47178742D01*
X40472092Y-47311775D01*
X40444000Y-47453003D01*
X37783162Y-47453003D01*
X37803494Y-47422574D01*
X37854829Y-47298640D01*
X37881000Y-47167073D01*
X37881000Y-47032927D01*
X37854829Y-46901360D01*
X37803494Y-46777426D01*
X37728967Y-46665888D01*
X37634112Y-46571033D01*
X37522574Y-46496506D01*
X37398640Y-46445171D01*
X37267073Y-46419000D01*
X37132927Y-46419000D01*
X37001360Y-46445171D01*
X36877426Y-46496506D01*
X36765888Y-46571033D01*
X36671033Y-46665888D01*
X36596506Y-46777426D01*
X36545171Y-46901360D01*
X36519000Y-47032927D01*
X25955920Y-47032927D01*
X25936387Y-47019876D01*
X25735108Y-46936503D01*
X25521431Y-46894000D01*
X25303569Y-46894000D01*
X25089892Y-46936503D01*
X24888613Y-47019876D01*
X24707466Y-47140914D01*
X24553414Y-47294966D01*
X24432376Y-47476113D01*
X24349003Y-47677392D01*
X24306500Y-47891069D01*
X23476476Y-47891069D01*
X23610151Y-47819618D01*
X23759528Y-47697028D01*
X23882118Y-47547651D01*
X23973211Y-47377229D01*
X24029305Y-47192310D01*
X24048246Y-47000000D01*
X24029305Y-46807690D01*
X23973211Y-46622771D01*
X23882118Y-46452349D01*
X23759528Y-46302972D01*
X23653433Y-46215902D01*
X38185275Y-46215902D01*
X38185275Y-46350048D01*
X38211446Y-46481615D01*
X38262781Y-46605549D01*
X38337308Y-46717087D01*
X38432163Y-46811942D01*
X38543701Y-46886469D01*
X38667635Y-46937804D01*
X38799202Y-46963975D01*
X38933348Y-46963975D01*
X39064915Y-46937804D01*
X39188849Y-46886469D01*
X39300387Y-46811942D01*
X39395242Y-46717087D01*
X39469769Y-46605549D01*
X39521104Y-46481615D01*
X39547275Y-46350048D01*
X39547275Y-46215902D01*
X39521104Y-46084335D01*
X39469769Y-45960401D01*
X39395242Y-45848863D01*
X39300387Y-45754008D01*
X39188849Y-45679481D01*
X39064915Y-45628146D01*
X38933348Y-45601975D01*
X38799202Y-45601975D01*
X38667635Y-45628146D01*
X38543701Y-45679481D01*
X38432163Y-45754008D01*
X38337308Y-45848863D01*
X38262781Y-45960401D01*
X38211446Y-46084335D01*
X38185275Y-46215902D01*
X23653433Y-46215902D01*
X23610151Y-46180382D01*
X23439729Y-46089289D01*
X23254810Y-46033195D01*
X23110687Y-46019000D01*
X22314313Y-46019000D01*
X22170190Y-46033195D01*
X21985271Y-46089289D01*
X21814849Y-46180382D01*
X21665472Y-46302972D01*
X21656000Y-46314514D01*
X21656000Y-45019854D01*
X21688267Y-44690771D01*
X21778075Y-44393312D01*
X21802126Y-44348078D01*
X43969000Y-44348078D01*
X43969000Y-44501922D01*
X43999013Y-44652809D01*
X44057887Y-44794942D01*
X44143358Y-44922859D01*
X44252141Y-45031642D01*
X44380058Y-45117113D01*
X44522191Y-45175987D01*
X44673078Y-45206000D01*
X44826922Y-45206000D01*
X44977809Y-45175987D01*
X45119942Y-45117113D01*
X45247859Y-45031642D01*
X45331423Y-44948078D01*
X46794000Y-44948078D01*
X46794000Y-45101922D01*
X46824013Y-45252809D01*
X46882887Y-45394942D01*
X46968358Y-45522859D01*
X47077141Y-45631642D01*
X47205058Y-45717113D01*
X47347191Y-45775987D01*
X47498078Y-45806000D01*
X47651922Y-45806000D01*
X47802809Y-45775987D01*
X47944942Y-45717113D01*
X48072859Y-45631642D01*
X48181642Y-45522859D01*
X48267113Y-45394942D01*
X48325987Y-45252809D01*
X48356000Y-45101922D01*
X48356000Y-44948078D01*
X48325987Y-44797191D01*
X48267113Y-44655058D01*
X48181642Y-44527141D01*
X48072859Y-44418358D01*
X47944942Y-44332887D01*
X47802809Y-44274013D01*
X47651922Y-44244000D01*
X47498078Y-44244000D01*
X47347191Y-44274013D01*
X47205058Y-44332887D01*
X47077141Y-44418358D01*
X46968358Y-44527141D01*
X46882887Y-44655058D01*
X46824013Y-44797191D01*
X46794000Y-44948078D01*
X45331423Y-44948078D01*
X45356642Y-44922859D01*
X45442113Y-44794942D01*
X45500987Y-44652809D01*
X45531000Y-44501922D01*
X45531000Y-44348078D01*
X45500987Y-44197191D01*
X45442113Y-44055058D01*
X45356642Y-43927141D01*
X45247859Y-43818358D01*
X45119942Y-43732887D01*
X44977809Y-43674013D01*
X44826922Y-43644000D01*
X44673078Y-43644000D01*
X44522191Y-43674013D01*
X44380058Y-43732887D01*
X44252141Y-43818358D01*
X44143358Y-43927141D01*
X44057887Y-44055058D01*
X43999013Y-44197191D01*
X43969000Y-44348078D01*
X21802126Y-44348078D01*
X21923945Y-44118972D01*
X22120325Y-43878187D01*
X22359736Y-43680127D01*
X22633053Y-43532346D01*
X22929872Y-43440465D01*
X23257782Y-43406000D01*
X29380078Y-43406000D01*
X29400018Y-43407963D01*
X29419941Y-43406000D01*
X29479590Y-43400125D01*
X29479601Y-43400122D01*
X29479608Y-43400121D01*
X29505575Y-43392243D01*
X29556121Y-43376910D01*
X29556133Y-43376903D01*
X29556138Y-43376902D01*
X29574973Y-43366833D01*
X29626653Y-43339210D01*
X29626663Y-43339201D01*
X29626668Y-43339199D01*
X29647545Y-43322064D01*
X29688474Y-43288474D01*
X29688482Y-43288464D01*
X29688487Y-43288460D01*
X29706728Y-43266232D01*
X29739210Y-43226653D01*
X29739216Y-43226642D01*
X29739220Y-43226637D01*
X29752788Y-43201250D01*
X29776910Y-43156121D01*
X29776913Y-43156110D01*
X29776917Y-43156103D01*
X29788881Y-43116656D01*
X29798349Y-43085446D01*
X30801953Y-43086440D01*
G36*
X46948000Y-68825000D02*
G01*
X46950440Y-68849776D01*
X46957667Y-68873601D01*
X46969403Y-68895557D01*
X46985197Y-68914803D01*
X47004443Y-68930597D01*
X47026399Y-68942333D01*
X47050224Y-68949560D01*
X47075000Y-68952000D01*
X48273000Y-68952000D01*
X48273000Y-70800000D01*
X48275440Y-70824776D01*
X48282667Y-70848601D01*
X48294403Y-70870557D01*
X48310197Y-70889803D01*
X48329443Y-70905597D01*
X48351399Y-70917333D01*
X48375224Y-70924560D01*
X48400000Y-70927000D01*
X49273000Y-70927000D01*
X49273000Y-73568456D01*
X42927000Y-73550299D01*
X42927000Y-70331000D01*
X43001922Y-70331000D01*
X43152809Y-70300987D01*
X43294942Y-70242113D01*
X43392391Y-70177000D01*
X46225000Y-70177000D01*
X46249776Y-70174560D01*
X46273601Y-70167333D01*
X46295557Y-70155597D01*
X46314803Y-70139803D01*
X46330597Y-70120557D01*
X46342333Y-70098601D01*
X46349560Y-70074776D01*
X46352000Y-70050000D01*
X46352000Y-67877000D01*
X46948000Y-67877000D01*
X46948000Y-68825000D01*
G37*
X46948000Y-68825000D02*
X46950440Y-68849776D01*
X46957667Y-68873601D01*
X46969403Y-68895557D01*
X46985197Y-68914803D01*
X47004443Y-68930597D01*
X47026399Y-68942333D01*
X47050224Y-68949560D01*
X47075000Y-68952000D01*
X48273000Y-68952000D01*
X48273000Y-70800000D01*
X48275440Y-70824776D01*
X48282667Y-70848601D01*
X48294403Y-70870557D01*
X48310197Y-70889803D01*
X48329443Y-70905597D01*
X48351399Y-70917333D01*
X48375224Y-70924560D01*
X48400000Y-70927000D01*
X49273000Y-70927000D01*
X49273000Y-73568456D01*
X42927000Y-73550299D01*
X42927000Y-70331000D01*
X43001922Y-70331000D01*
X43152809Y-70300987D01*
X43294942Y-70242113D01*
X43392391Y-70177000D01*
X46225000Y-70177000D01*
X46249776Y-70174560D01*
X46273601Y-70167333D01*
X46295557Y-70155597D01*
X46314803Y-70139803D01*
X46330597Y-70120557D01*
X46342333Y-70098601D01*
X46349560Y-70074776D01*
X46352000Y-70050000D01*
X46352000Y-67877000D01*
X46948000Y-67877000D01*
X46948000Y-68825000D01*
G36*
X30801953Y-59086440D02*
G01*
X30823090Y-59156121D01*
X30860790Y-59226653D01*
X30911526Y-59288474D01*
X30973347Y-59339210D01*
X31043879Y-59376910D01*
X31120410Y-59400125D01*
X31180059Y-59406000D01*
X31180060Y-59406000D01*
X31200000Y-59407964D01*
X31219941Y-59406000D01*
X40530060Y-59406000D01*
X40550000Y-59407964D01*
X40576957Y-59405309D01*
X40629590Y-59400125D01*
X40706121Y-59376910D01*
X40776653Y-59339210D01*
X40838474Y-59288474D01*
X40889210Y-59226653D01*
X40926910Y-59156121D01*
X40944998Y-59096491D01*
X41605200Y-59097145D01*
X41623090Y-59156121D01*
X41660790Y-59226653D01*
X41711526Y-59288474D01*
X41773347Y-59339210D01*
X41843879Y-59376910D01*
X41920410Y-59400125D01*
X41980059Y-59406000D01*
X41980060Y-59406000D01*
X42000000Y-59407964D01*
X42019941Y-59406000D01*
X58180146Y-59406000D01*
X58509229Y-59438267D01*
X58806688Y-59528075D01*
X59081028Y-59673945D01*
X59321813Y-59870325D01*
X59519873Y-60109736D01*
X59667654Y-60383053D01*
X59759535Y-60679872D01*
X59794001Y-61007792D01*
X59794000Y-63619940D01*
X59794001Y-63619950D01*
X59794000Y-66480059D01*
X59794000Y-66480060D01*
X59794001Y-71980136D01*
X59761733Y-72309230D01*
X59671926Y-72606684D01*
X59526056Y-72881025D01*
X59329675Y-73121813D01*
X59090265Y-73319871D01*
X58816948Y-73467654D01*
X58520128Y-73559535D01*
X58192437Y-73593977D01*
X49927000Y-73570328D01*
X49927000Y-68250000D01*
X49924560Y-68225224D01*
X49917333Y-68201399D01*
X49905597Y-68179443D01*
X49889803Y-68160197D01*
X49870557Y-68144403D01*
X49848601Y-68132667D01*
X49824776Y-68125440D01*
X49800000Y-68123000D01*
X47877000Y-68123000D01*
X47877000Y-67250000D01*
X47874560Y-67225224D01*
X47867333Y-67201399D01*
X47855597Y-67179443D01*
X47839803Y-67160197D01*
X47820557Y-67144403D01*
X47798601Y-67132667D01*
X47774776Y-67125440D01*
X47750000Y-67123000D01*
X45900000Y-67123000D01*
X45875224Y-67125440D01*
X45851399Y-67132667D01*
X45829443Y-67144403D01*
X45810197Y-67160197D01*
X45794403Y-67179443D01*
X45782667Y-67201399D01*
X45775440Y-67225224D01*
X45773000Y-67250000D01*
X45773000Y-69673000D01*
X43696835Y-69673000D01*
X43706000Y-69626922D01*
X43706000Y-69473078D01*
X43675987Y-69322191D01*
X43617113Y-69180058D01*
X43531642Y-69052141D01*
X43422859Y-68943358D01*
X43294942Y-68857887D01*
X43152809Y-68799013D01*
X43001922Y-68769000D01*
X42848078Y-68769000D01*
X42697191Y-68799013D01*
X42555058Y-68857887D01*
X42427141Y-68943358D01*
X42318358Y-69052141D01*
X42232887Y-69180058D01*
X42174013Y-69322191D01*
X42144000Y-69473078D01*
X42144000Y-69626922D01*
X42174013Y-69777809D01*
X42198000Y-69835718D01*
X42198000Y-73548213D01*
X23270437Y-73494057D01*
X22940770Y-73461733D01*
X22643316Y-73371926D01*
X22368975Y-73226056D01*
X22128187Y-73029675D01*
X21930129Y-72790265D01*
X21782346Y-72516948D01*
X21690465Y-72220128D01*
X21656000Y-71892218D01*
X21656000Y-71251876D01*
X26625874Y-71251876D01*
X26705790Y-71459529D01*
X26824682Y-71647601D01*
X26952824Y-71782402D01*
X26939268Y-71802690D01*
X26872856Y-71963022D01*
X26839000Y-72133229D01*
X26839000Y-72306771D01*
X26872856Y-72476978D01*
X26939268Y-72637310D01*
X27035682Y-72781605D01*
X27158395Y-72904318D01*
X27302690Y-73000732D01*
X27463022Y-73067144D01*
X27633229Y-73101000D01*
X27806771Y-73101000D01*
X27976978Y-73067144D01*
X28137310Y-73000732D01*
X28281605Y-72904318D01*
X28355000Y-72830923D01*
X28428395Y-72904318D01*
X28572690Y-73000732D01*
X28733022Y-73067144D01*
X28903229Y-73101000D01*
X29076771Y-73101000D01*
X29246978Y-73067144D01*
X29407310Y-73000732D01*
X29551605Y-72904318D01*
X29625000Y-72830923D01*
X29698395Y-72904318D01*
X29842690Y-73000732D01*
X30003022Y-73067144D01*
X30173229Y-73101000D01*
X30346771Y-73101000D01*
X30516978Y-73067144D01*
X30677310Y-73000732D01*
X30821605Y-72904318D01*
X30895000Y-72830923D01*
X30968395Y-72904318D01*
X31112690Y-73000732D01*
X31273022Y-73067144D01*
X31443229Y-73101000D01*
X31616771Y-73101000D01*
X31786978Y-73067144D01*
X31947310Y-73000732D01*
X32091605Y-72904318D01*
X32165000Y-72830923D01*
X32238395Y-72904318D01*
X32382690Y-73000732D01*
X32543022Y-73067144D01*
X32713229Y-73101000D01*
X32886771Y-73101000D01*
X33056978Y-73067144D01*
X33217310Y-73000732D01*
X33361605Y-72904318D01*
X33484318Y-72781605D01*
X33580732Y-72637310D01*
X33647144Y-72476978D01*
X33681000Y-72306771D01*
X33681000Y-72133229D01*
X33647144Y-71963022D01*
X33580732Y-71802690D01*
X33541806Y-71744432D01*
X33570711Y-71720711D01*
X33618322Y-71662696D01*
X33653701Y-71596508D01*
X33675487Y-71524689D01*
X33682843Y-71450000D01*
X33682843Y-70632927D01*
X36569000Y-70632927D01*
X36569000Y-70767073D01*
X36595171Y-70898640D01*
X36646506Y-71022574D01*
X36721033Y-71134112D01*
X36815888Y-71228967D01*
X36927426Y-71303494D01*
X37051360Y-71354829D01*
X37182927Y-71381000D01*
X37317073Y-71381000D01*
X37448640Y-71354829D01*
X37572574Y-71303494D01*
X37684112Y-71228967D01*
X37778967Y-71134112D01*
X37853494Y-71022574D01*
X37904829Y-70898640D01*
X37931000Y-70767073D01*
X37931000Y-70632927D01*
X37904829Y-70501360D01*
X37853494Y-70377426D01*
X37778967Y-70265888D01*
X37684112Y-70171033D01*
X37572574Y-70096506D01*
X37448640Y-70045171D01*
X37317073Y-70019000D01*
X37182927Y-70019000D01*
X37051360Y-70045171D01*
X36927426Y-70096506D01*
X36815888Y-70171033D01*
X36721033Y-70265888D01*
X36646506Y-70377426D01*
X36595171Y-70501360D01*
X36569000Y-70632927D01*
X33682843Y-70632927D01*
X33682843Y-70450000D01*
X33675487Y-70375311D01*
X33653701Y-70303492D01*
X33618322Y-70237304D01*
X33570711Y-70179289D01*
X33512696Y-70131678D01*
X33446508Y-70096299D01*
X33374689Y-70074513D01*
X33300000Y-70067157D01*
X32300000Y-70067157D01*
X32245622Y-70072513D01*
X32090206Y-69962877D01*
X31886864Y-69872554D01*
X31831874Y-69855881D01*
X31657000Y-69982046D01*
X31657000Y-70823000D01*
X31677000Y-70823000D01*
X31677000Y-71077000D01*
X31657000Y-71077000D01*
X31657000Y-71097000D01*
X31403000Y-71097000D01*
X31403000Y-71077000D01*
X30387000Y-71077000D01*
X30387000Y-71097000D01*
X30133000Y-71097000D01*
X30133000Y-71077000D01*
X30113000Y-71077000D01*
X30113000Y-70823000D01*
X30133000Y-70823000D01*
X30133000Y-69982046D01*
X30387000Y-69982046D01*
X30387000Y-70823000D01*
X31403000Y-70823000D01*
X31403000Y-69982046D01*
X31228126Y-69855881D01*
X31173136Y-69872554D01*
X30969794Y-69962877D01*
X30895000Y-70015639D01*
X30820206Y-69962877D01*
X30616864Y-69872554D01*
X30561874Y-69855881D01*
X30387000Y-69982046D01*
X30133000Y-69982046D01*
X29958126Y-69855881D01*
X29903136Y-69872554D01*
X29699794Y-69962877D01*
X29517980Y-70091135D01*
X29429569Y-70184141D01*
X29407310Y-70169268D01*
X29246978Y-70102856D01*
X29076771Y-70069000D01*
X28903229Y-70069000D01*
X28733022Y-70102856D01*
X28572690Y-70169268D01*
X28550431Y-70184141D01*
X28462020Y-70091135D01*
X28280206Y-69962877D01*
X28076864Y-69872554D01*
X28021874Y-69855881D01*
X27847000Y-69982046D01*
X27847000Y-70823000D01*
X27867000Y-70823000D01*
X27867000Y-71077000D01*
X27847000Y-71077000D01*
X27847000Y-71097000D01*
X27593000Y-71097000D01*
X27593000Y-71077000D01*
X26750871Y-71077000D01*
X26625874Y-71251876D01*
X21656000Y-71251876D01*
X21656000Y-70685486D01*
X21665472Y-70697028D01*
X21814849Y-70819618D01*
X21985271Y-70910711D01*
X22170190Y-70966805D01*
X22314313Y-70981000D01*
X23110687Y-70981000D01*
X23254810Y-70966805D01*
X23439729Y-70910711D01*
X23610151Y-70819618D01*
X23759528Y-70697028D01*
X23799662Y-70648124D01*
X26625874Y-70648124D01*
X26750871Y-70823000D01*
X27593000Y-70823000D01*
X27593000Y-69982046D01*
X27418126Y-69855881D01*
X27363136Y-69872554D01*
X27159794Y-69962877D01*
X26977980Y-70091135D01*
X26824682Y-70252399D01*
X26705790Y-70440471D01*
X26625874Y-70648124D01*
X23799662Y-70648124D01*
X23882118Y-70547651D01*
X23973211Y-70377229D01*
X24029305Y-70192310D01*
X24048246Y-70000000D01*
X24029305Y-69807690D01*
X23973211Y-69622771D01*
X23882118Y-69452349D01*
X23759528Y-69302972D01*
X23610151Y-69180382D01*
X23439729Y-69089289D01*
X23254810Y-69033195D01*
X23110687Y-69019000D01*
X22314313Y-69019000D01*
X22170190Y-69033195D01*
X21985271Y-69089289D01*
X21814849Y-69180382D01*
X21665472Y-69302972D01*
X21656000Y-69314514D01*
X21656000Y-68891069D01*
X24306500Y-68891069D01*
X24306500Y-69108931D01*
X24349003Y-69322608D01*
X24432376Y-69523887D01*
X24553414Y-69705034D01*
X24707466Y-69859086D01*
X24888613Y-69980124D01*
X25089892Y-70063497D01*
X25303569Y-70106000D01*
X25521431Y-70106000D01*
X25735108Y-70063497D01*
X25936387Y-69980124D01*
X26117534Y-69859086D01*
X26271586Y-69705034D01*
X26392624Y-69523887D01*
X26475997Y-69322608D01*
X26518500Y-69108931D01*
X26518500Y-68891069D01*
X26475997Y-68677392D01*
X26392624Y-68476113D01*
X26271586Y-68294966D01*
X26117534Y-68140914D01*
X25936387Y-68019876D01*
X25735108Y-67936503D01*
X25521431Y-67894000D01*
X25303569Y-67894000D01*
X25089892Y-67936503D01*
X24888613Y-68019876D01*
X24707466Y-68140914D01*
X24553414Y-68294966D01*
X24432376Y-68476113D01*
X24349003Y-68677392D01*
X24306500Y-68891069D01*
X21656000Y-68891069D01*
X21656000Y-67804612D01*
X41464420Y-67804612D01*
X41464420Y-67938758D01*
X41490591Y-68070325D01*
X41541926Y-68194259D01*
X41616453Y-68305797D01*
X41711308Y-68400652D01*
X41822846Y-68475179D01*
X41946780Y-68526514D01*
X42078347Y-68552685D01*
X42212493Y-68552685D01*
X42344060Y-68526514D01*
X42467994Y-68475179D01*
X42579532Y-68400652D01*
X42674387Y-68305797D01*
X42748914Y-68194259D01*
X42800249Y-68070325D01*
X42826420Y-67938758D01*
X42826420Y-67804612D01*
X42800249Y-67673045D01*
X42748914Y-67549111D01*
X42674387Y-67437573D01*
X42579532Y-67342718D01*
X42467994Y-67268191D01*
X42344060Y-67216856D01*
X42212493Y-67190685D01*
X42078347Y-67190685D01*
X41946780Y-67216856D01*
X41822846Y-67268191D01*
X41711308Y-67342718D01*
X41616453Y-67437573D01*
X41541926Y-67549111D01*
X41490591Y-67673045D01*
X41464420Y-67804612D01*
X21656000Y-67804612D01*
X21656000Y-67037852D01*
X27769000Y-67037852D01*
X27769000Y-67162148D01*
X27793249Y-67284056D01*
X27840815Y-67398891D01*
X27909870Y-67502239D01*
X27997761Y-67590130D01*
X28101109Y-67659185D01*
X28215944Y-67706751D01*
X28337852Y-67731000D01*
X28462148Y-67731000D01*
X28584056Y-67706751D01*
X28698891Y-67659185D01*
X28802239Y-67590130D01*
X28890130Y-67502239D01*
X28959185Y-67398891D01*
X29006751Y-67284056D01*
X29031000Y-67162148D01*
X29031000Y-67037852D01*
X29006751Y-66915944D01*
X28959185Y-66801109D01*
X28890130Y-66697761D01*
X28802239Y-66609870D01*
X28698891Y-66540815D01*
X28584056Y-66493249D01*
X28462148Y-66469000D01*
X28337852Y-66469000D01*
X28215944Y-66493249D01*
X28101109Y-66540815D01*
X27997761Y-66609870D01*
X27909870Y-66697761D01*
X27840815Y-66801109D01*
X27793249Y-66915944D01*
X27769000Y-67037852D01*
X21656000Y-67037852D01*
X21656000Y-65482927D01*
X26369000Y-65482927D01*
X26369000Y-65617073D01*
X26395171Y-65748640D01*
X26446506Y-65872574D01*
X26521033Y-65984112D01*
X26615888Y-66078967D01*
X26727426Y-66153494D01*
X26851360Y-66204829D01*
X26982927Y-66231000D01*
X27117073Y-66231000D01*
X27248640Y-66204829D01*
X27372574Y-66153494D01*
X27484112Y-66078967D01*
X27578967Y-65984112D01*
X27653494Y-65872574D01*
X27704829Y-65748640D01*
X27731000Y-65617073D01*
X27731000Y-65482927D01*
X27704829Y-65351360D01*
X27672404Y-65273078D01*
X31919000Y-65273078D01*
X31919000Y-65426922D01*
X31949013Y-65577809D01*
X32007887Y-65719942D01*
X32093358Y-65847859D01*
X32202141Y-65956642D01*
X32330058Y-66042113D01*
X32472191Y-66100987D01*
X32623078Y-66131000D01*
X32776922Y-66131000D01*
X32927809Y-66100987D01*
X33069942Y-66042113D01*
X33137500Y-65996972D01*
X33205058Y-66042113D01*
X33347191Y-66100987D01*
X33498078Y-66131000D01*
X33651922Y-66131000D01*
X33802809Y-66100987D01*
X33944942Y-66042113D01*
X34012500Y-65996972D01*
X34080058Y-66042113D01*
X34222191Y-66100987D01*
X34373078Y-66131000D01*
X34526922Y-66131000D01*
X34677809Y-66100987D01*
X34721409Y-66082927D01*
X42369000Y-66082927D01*
X42369000Y-66217073D01*
X42395171Y-66348640D01*
X42446506Y-66472574D01*
X42521033Y-66584112D01*
X42615888Y-66678967D01*
X42727426Y-66753494D01*
X42851360Y-66804829D01*
X42982927Y-66831000D01*
X43117073Y-66831000D01*
X43248640Y-66804829D01*
X43372574Y-66753494D01*
X43484112Y-66678967D01*
X43578967Y-66584112D01*
X43653494Y-66472574D01*
X43704829Y-66348640D01*
X43731000Y-66217073D01*
X43731000Y-66082927D01*
X43704829Y-65951360D01*
X43653494Y-65827426D01*
X43578967Y-65715888D01*
X43484112Y-65621033D01*
X43372574Y-65546506D01*
X43248640Y-65495171D01*
X43117073Y-65469000D01*
X42982927Y-65469000D01*
X42851360Y-65495171D01*
X42727426Y-65546506D01*
X42615888Y-65621033D01*
X42521033Y-65715888D01*
X42446506Y-65827426D01*
X42395171Y-65951360D01*
X42369000Y-66082927D01*
X34721409Y-66082927D01*
X34819942Y-66042113D01*
X34947859Y-65956642D01*
X35056642Y-65847859D01*
X35142113Y-65719942D01*
X35200987Y-65577809D01*
X35231000Y-65426922D01*
X35231000Y-65273078D01*
X35200987Y-65122191D01*
X35142113Y-64980058D01*
X35096972Y-64912500D01*
X35142113Y-64844942D01*
X35200987Y-64702809D01*
X35231000Y-64551922D01*
X35231000Y-64398078D01*
X35200987Y-64247191D01*
X35142113Y-64105058D01*
X35056642Y-63977141D01*
X34947859Y-63868358D01*
X34819942Y-63782887D01*
X34677809Y-63724013D01*
X34526922Y-63694000D01*
X34373078Y-63694000D01*
X34222191Y-63724013D01*
X34080058Y-63782887D01*
X33952141Y-63868358D01*
X33843358Y-63977141D01*
X33757887Y-64105058D01*
X33699013Y-64247191D01*
X33669000Y-64398078D01*
X33669000Y-64551922D01*
X33673240Y-64573240D01*
X33651922Y-64569000D01*
X33498078Y-64569000D01*
X33347191Y-64599013D01*
X33205058Y-64657887D01*
X33137500Y-64703028D01*
X33069942Y-64657887D01*
X32927809Y-64599013D01*
X32776922Y-64569000D01*
X32623078Y-64569000D01*
X32472191Y-64599013D01*
X32330058Y-64657887D01*
X32202141Y-64743358D01*
X32093358Y-64852141D01*
X32007887Y-64980058D01*
X31949013Y-65122191D01*
X31919000Y-65273078D01*
X27672404Y-65273078D01*
X27653494Y-65227426D01*
X27578967Y-65115888D01*
X27484112Y-65021033D01*
X27372574Y-64946506D01*
X27248640Y-64895171D01*
X27117073Y-64869000D01*
X26982927Y-64869000D01*
X26851360Y-64895171D01*
X26727426Y-64946506D01*
X26615888Y-65021033D01*
X26521033Y-65115888D01*
X26446506Y-65227426D01*
X26395171Y-65351360D01*
X26369000Y-65482927D01*
X21656000Y-65482927D01*
X21656000Y-63685486D01*
X21665472Y-63697028D01*
X21814849Y-63819618D01*
X21985271Y-63910711D01*
X22170190Y-63966805D01*
X22314313Y-63981000D01*
X23110687Y-63981000D01*
X23254810Y-63966805D01*
X23439729Y-63910711D01*
X23476476Y-63891069D01*
X24306500Y-63891069D01*
X24306500Y-64108931D01*
X24349003Y-64322608D01*
X24432376Y-64523887D01*
X24553414Y-64705034D01*
X24707466Y-64859086D01*
X24888613Y-64980124D01*
X25089892Y-65063497D01*
X25303569Y-65106000D01*
X25521431Y-65106000D01*
X25735108Y-65063497D01*
X25936387Y-64980124D01*
X26117534Y-64859086D01*
X26271586Y-64705034D01*
X26392624Y-64523887D01*
X26475997Y-64322608D01*
X26518500Y-64108931D01*
X26518500Y-63891069D01*
X26475997Y-63677392D01*
X26392624Y-63476113D01*
X26271586Y-63294966D01*
X26117534Y-63140914D01*
X25955920Y-63032927D01*
X36519000Y-63032927D01*
X36519000Y-63167073D01*
X36545171Y-63298640D01*
X36596506Y-63422574D01*
X36671033Y-63534112D01*
X36765888Y-63628967D01*
X36877426Y-63703494D01*
X37001360Y-63754829D01*
X37132927Y-63781000D01*
X37267073Y-63781000D01*
X37398640Y-63754829D01*
X37522574Y-63703494D01*
X37634112Y-63628967D01*
X37728967Y-63534112D01*
X37783162Y-63453003D01*
X40444000Y-63453003D01*
X40444000Y-63596997D01*
X40472092Y-63738225D01*
X40527196Y-63871258D01*
X40607195Y-63990985D01*
X40709015Y-64092805D01*
X40828742Y-64172804D01*
X40961775Y-64227908D01*
X41103003Y-64256000D01*
X41246997Y-64256000D01*
X41388225Y-64227908D01*
X41521258Y-64172804D01*
X41640985Y-64092805D01*
X41742805Y-63990985D01*
X41822804Y-63871258D01*
X41877908Y-63738225D01*
X41894859Y-63653003D01*
X47919000Y-63653003D01*
X47919000Y-63796997D01*
X47947092Y-63938225D01*
X48002196Y-64071258D01*
X48082195Y-64190985D01*
X48184015Y-64292805D01*
X48303742Y-64372804D01*
X48436775Y-64427908D01*
X48578003Y-64456000D01*
X48721997Y-64456000D01*
X48863225Y-64427908D01*
X48996258Y-64372804D01*
X49115985Y-64292805D01*
X49217805Y-64190985D01*
X49297804Y-64071258D01*
X49352908Y-63938225D01*
X49381000Y-63796997D01*
X49381000Y-63653003D01*
X49352908Y-63511775D01*
X49297804Y-63378742D01*
X49217805Y-63259015D01*
X49115985Y-63157195D01*
X48996258Y-63077196D01*
X48863225Y-63022092D01*
X48721997Y-62994000D01*
X48578003Y-62994000D01*
X48436775Y-63022092D01*
X48303742Y-63077196D01*
X48184015Y-63157195D01*
X48082195Y-63259015D01*
X48002196Y-63378742D01*
X47947092Y-63511775D01*
X47919000Y-63653003D01*
X41894859Y-63653003D01*
X41906000Y-63596997D01*
X41906000Y-63453003D01*
X41877908Y-63311775D01*
X41822804Y-63178742D01*
X41742805Y-63059015D01*
X41640985Y-62957195D01*
X41521258Y-62877196D01*
X41388225Y-62822092D01*
X41246997Y-62794000D01*
X41103003Y-62794000D01*
X40961775Y-62822092D01*
X40828742Y-62877196D01*
X40709015Y-62957195D01*
X40607195Y-63059015D01*
X40527196Y-63178742D01*
X40472092Y-63311775D01*
X40444000Y-63453003D01*
X37783162Y-63453003D01*
X37803494Y-63422574D01*
X37854829Y-63298640D01*
X37881000Y-63167073D01*
X37881000Y-63032927D01*
X37854829Y-62901360D01*
X37803494Y-62777426D01*
X37728967Y-62665888D01*
X37634112Y-62571033D01*
X37522574Y-62496506D01*
X37398640Y-62445171D01*
X37267073Y-62419000D01*
X37132927Y-62419000D01*
X37001360Y-62445171D01*
X36877426Y-62496506D01*
X36765888Y-62571033D01*
X36671033Y-62665888D01*
X36596506Y-62777426D01*
X36545171Y-62901360D01*
X36519000Y-63032927D01*
X25955920Y-63032927D01*
X25936387Y-63019876D01*
X25735108Y-62936503D01*
X25521431Y-62894000D01*
X25303569Y-62894000D01*
X25089892Y-62936503D01*
X24888613Y-63019876D01*
X24707466Y-63140914D01*
X24553414Y-63294966D01*
X24432376Y-63476113D01*
X24349003Y-63677392D01*
X24306500Y-63891069D01*
X23476476Y-63891069D01*
X23610151Y-63819618D01*
X23759528Y-63697028D01*
X23882118Y-63547651D01*
X23973211Y-63377229D01*
X24029305Y-63192310D01*
X24048246Y-63000000D01*
X24029305Y-62807690D01*
X23973211Y-62622771D01*
X23882118Y-62452349D01*
X23759528Y-62302972D01*
X23653433Y-62215902D01*
X38185275Y-62215902D01*
X38185275Y-62350048D01*
X38211446Y-62481615D01*
X38262781Y-62605549D01*
X38337308Y-62717087D01*
X38432163Y-62811942D01*
X38543701Y-62886469D01*
X38667635Y-62937804D01*
X38799202Y-62963975D01*
X38933348Y-62963975D01*
X39064915Y-62937804D01*
X39188849Y-62886469D01*
X39300387Y-62811942D01*
X39395242Y-62717087D01*
X39469769Y-62605549D01*
X39521104Y-62481615D01*
X39547275Y-62350048D01*
X39547275Y-62215902D01*
X39521104Y-62084335D01*
X39469769Y-61960401D01*
X39395242Y-61848863D01*
X39300387Y-61754008D01*
X39188849Y-61679481D01*
X39064915Y-61628146D01*
X38933348Y-61601975D01*
X38799202Y-61601975D01*
X38667635Y-61628146D01*
X38543701Y-61679481D01*
X38432163Y-61754008D01*
X38337308Y-61848863D01*
X38262781Y-61960401D01*
X38211446Y-62084335D01*
X38185275Y-62215902D01*
X23653433Y-62215902D01*
X23610151Y-62180382D01*
X23439729Y-62089289D01*
X23254810Y-62033195D01*
X23110687Y-62019000D01*
X22314313Y-62019000D01*
X22170190Y-62033195D01*
X21985271Y-62089289D01*
X21814849Y-62180382D01*
X21665472Y-62302972D01*
X21656000Y-62314514D01*
X21656000Y-61019854D01*
X21688267Y-60690771D01*
X21778075Y-60393312D01*
X21802126Y-60348078D01*
X43969000Y-60348078D01*
X43969000Y-60501922D01*
X43999013Y-60652809D01*
X44057887Y-60794942D01*
X44143358Y-60922859D01*
X44252141Y-61031642D01*
X44380058Y-61117113D01*
X44522191Y-61175987D01*
X44673078Y-61206000D01*
X44826922Y-61206000D01*
X44977809Y-61175987D01*
X45119942Y-61117113D01*
X45247859Y-61031642D01*
X45331423Y-60948078D01*
X46794000Y-60948078D01*
X46794000Y-61101922D01*
X46824013Y-61252809D01*
X46882887Y-61394942D01*
X46968358Y-61522859D01*
X47077141Y-61631642D01*
X47205058Y-61717113D01*
X47347191Y-61775987D01*
X47498078Y-61806000D01*
X47651922Y-61806000D01*
X47802809Y-61775987D01*
X47944942Y-61717113D01*
X48072859Y-61631642D01*
X48181642Y-61522859D01*
X48267113Y-61394942D01*
X48325987Y-61252809D01*
X48356000Y-61101922D01*
X48356000Y-60948078D01*
X48325987Y-60797191D01*
X48267113Y-60655058D01*
X48181642Y-60527141D01*
X48072859Y-60418358D01*
X47944942Y-60332887D01*
X47802809Y-60274013D01*
X47651922Y-60244000D01*
X47498078Y-60244000D01*
X47347191Y-60274013D01*
X47205058Y-60332887D01*
X47077141Y-60418358D01*
X46968358Y-60527141D01*
X46882887Y-60655058D01*
X46824013Y-60797191D01*
X46794000Y-60948078D01*
X45331423Y-60948078D01*
X45356642Y-60922859D01*
X45442113Y-60794942D01*
X45500987Y-60652809D01*
X45531000Y-60501922D01*
X45531000Y-60348078D01*
X45500987Y-60197191D01*
X45442113Y-60055058D01*
X45356642Y-59927141D01*
X45247859Y-59818358D01*
X45119942Y-59732887D01*
X44977809Y-59674013D01*
X44826922Y-59644000D01*
X44673078Y-59644000D01*
X44522191Y-59674013D01*
X44380058Y-59732887D01*
X44252141Y-59818358D01*
X44143358Y-59927141D01*
X44057887Y-60055058D01*
X43999013Y-60197191D01*
X43969000Y-60348078D01*
X21802126Y-60348078D01*
X21923945Y-60118972D01*
X22120325Y-59878187D01*
X22359736Y-59680127D01*
X22633053Y-59532346D01*
X22929872Y-59440465D01*
X23257782Y-59406000D01*
X29380060Y-59406000D01*
X29400000Y-59407964D01*
X29426957Y-59405309D01*
X29479590Y-59400125D01*
X29556121Y-59376910D01*
X29626653Y-59339210D01*
X29688474Y-59288474D01*
X29739210Y-59226653D01*
X29776910Y-59156121D01*
X29798349Y-59085446D01*
X30801953Y-59086440D01*
G37*
X30801953Y-59086440D02*
X30823090Y-59156121D01*
X30860790Y-59226653D01*
X30911526Y-59288474D01*
X30973347Y-59339210D01*
X31043879Y-59376910D01*
X31120410Y-59400125D01*
X31180059Y-59406000D01*
X31180060Y-59406000D01*
X31200000Y-59407964D01*
X31219941Y-59406000D01*
X40530060Y-59406000D01*
X40550000Y-59407964D01*
X40576957Y-59405309D01*
X40629590Y-59400125D01*
X40706121Y-59376910D01*
X40776653Y-59339210D01*
X40838474Y-59288474D01*
X40889210Y-59226653D01*
X40926910Y-59156121D01*
X40944998Y-59096491D01*
X41605200Y-59097145D01*
X41623090Y-59156121D01*
X41660790Y-59226653D01*
X41711526Y-59288474D01*
X41773347Y-59339210D01*
X41843879Y-59376910D01*
X41920410Y-59400125D01*
X41980059Y-59406000D01*
X41980060Y-59406000D01*
X42000000Y-59407964D01*
X42019941Y-59406000D01*
X58180146Y-59406000D01*
X58509229Y-59438267D01*
X58806688Y-59528075D01*
X59081028Y-59673945D01*
X59321813Y-59870325D01*
X59519873Y-60109736D01*
X59667654Y-60383053D01*
X59759535Y-60679872D01*
X59794001Y-61007792D01*
X59794000Y-63619940D01*
X59794001Y-63619950D01*
X59794000Y-66480059D01*
X59794000Y-66480060D01*
X59794001Y-71980136D01*
X59761733Y-72309230D01*
X59671926Y-72606684D01*
X59526056Y-72881025D01*
X59329675Y-73121813D01*
X59090265Y-73319871D01*
X58816948Y-73467654D01*
X58520128Y-73559535D01*
X58192437Y-73593977D01*
X49927000Y-73570328D01*
X49927000Y-68250000D01*
X49924560Y-68225224D01*
X49917333Y-68201399D01*
X49905597Y-68179443D01*
X49889803Y-68160197D01*
X49870557Y-68144403D01*
X49848601Y-68132667D01*
X49824776Y-68125440D01*
X49800000Y-68123000D01*
X47877000Y-68123000D01*
X47877000Y-67250000D01*
X47874560Y-67225224D01*
X47867333Y-67201399D01*
X47855597Y-67179443D01*
X47839803Y-67160197D01*
X47820557Y-67144403D01*
X47798601Y-67132667D01*
X47774776Y-67125440D01*
X47750000Y-67123000D01*
X45900000Y-67123000D01*
X45875224Y-67125440D01*
X45851399Y-67132667D01*
X45829443Y-67144403D01*
X45810197Y-67160197D01*
X45794403Y-67179443D01*
X45782667Y-67201399D01*
X45775440Y-67225224D01*
X45773000Y-67250000D01*
X45773000Y-69673000D01*
X43696835Y-69673000D01*
X43706000Y-69626922D01*
X43706000Y-69473078D01*
X43675987Y-69322191D01*
X43617113Y-69180058D01*
X43531642Y-69052141D01*
X43422859Y-68943358D01*
X43294942Y-68857887D01*
X43152809Y-68799013D01*
X43001922Y-68769000D01*
X42848078Y-68769000D01*
X42697191Y-68799013D01*
X42555058Y-68857887D01*
X42427141Y-68943358D01*
X42318358Y-69052141D01*
X42232887Y-69180058D01*
X42174013Y-69322191D01*
X42144000Y-69473078D01*
X42144000Y-69626922D01*
X42174013Y-69777809D01*
X42198000Y-69835718D01*
X42198000Y-73548213D01*
X23270437Y-73494057D01*
X22940770Y-73461733D01*
X22643316Y-73371926D01*
X22368975Y-73226056D01*
X22128187Y-73029675D01*
X21930129Y-72790265D01*
X21782346Y-72516948D01*
X21690465Y-72220128D01*
X21656000Y-71892218D01*
X21656000Y-71251876D01*
X26625874Y-71251876D01*
X26705790Y-71459529D01*
X26824682Y-71647601D01*
X26952824Y-71782402D01*
X26939268Y-71802690D01*
X26872856Y-71963022D01*
X26839000Y-72133229D01*
X26839000Y-72306771D01*
X26872856Y-72476978D01*
X26939268Y-72637310D01*
X27035682Y-72781605D01*
X27158395Y-72904318D01*
X27302690Y-73000732D01*
X27463022Y-73067144D01*
X27633229Y-73101000D01*
X27806771Y-73101000D01*
X27976978Y-73067144D01*
X28137310Y-73000732D01*
X28281605Y-72904318D01*
X28355000Y-72830923D01*
X28428395Y-72904318D01*
X28572690Y-73000732D01*
X28733022Y-73067144D01*
X28903229Y-73101000D01*
X29076771Y-73101000D01*
X29246978Y-73067144D01*
X29407310Y-73000732D01*
X29551605Y-72904318D01*
X29625000Y-72830923D01*
X29698395Y-72904318D01*
X29842690Y-73000732D01*
X30003022Y-73067144D01*
X30173229Y-73101000D01*
X30346771Y-73101000D01*
X30516978Y-73067144D01*
X30677310Y-73000732D01*
X30821605Y-72904318D01*
X30895000Y-72830923D01*
X30968395Y-72904318D01*
X31112690Y-73000732D01*
X31273022Y-73067144D01*
X31443229Y-73101000D01*
X31616771Y-73101000D01*
X31786978Y-73067144D01*
X31947310Y-73000732D01*
X32091605Y-72904318D01*
X32165000Y-72830923D01*
X32238395Y-72904318D01*
X32382690Y-73000732D01*
X32543022Y-73067144D01*
X32713229Y-73101000D01*
X32886771Y-73101000D01*
X33056978Y-73067144D01*
X33217310Y-73000732D01*
X33361605Y-72904318D01*
X33484318Y-72781605D01*
X33580732Y-72637310D01*
X33647144Y-72476978D01*
X33681000Y-72306771D01*
X33681000Y-72133229D01*
X33647144Y-71963022D01*
X33580732Y-71802690D01*
X33541806Y-71744432D01*
X33570711Y-71720711D01*
X33618322Y-71662696D01*
X33653701Y-71596508D01*
X33675487Y-71524689D01*
X33682843Y-71450000D01*
X33682843Y-70632927D01*
X36569000Y-70632927D01*
X36569000Y-70767073D01*
X36595171Y-70898640D01*
X36646506Y-71022574D01*
X36721033Y-71134112D01*
X36815888Y-71228967D01*
X36927426Y-71303494D01*
X37051360Y-71354829D01*
X37182927Y-71381000D01*
X37317073Y-71381000D01*
X37448640Y-71354829D01*
X37572574Y-71303494D01*
X37684112Y-71228967D01*
X37778967Y-71134112D01*
X37853494Y-71022574D01*
X37904829Y-70898640D01*
X37931000Y-70767073D01*
X37931000Y-70632927D01*
X37904829Y-70501360D01*
X37853494Y-70377426D01*
X37778967Y-70265888D01*
X37684112Y-70171033D01*
X37572574Y-70096506D01*
X37448640Y-70045171D01*
X37317073Y-70019000D01*
X37182927Y-70019000D01*
X37051360Y-70045171D01*
X36927426Y-70096506D01*
X36815888Y-70171033D01*
X36721033Y-70265888D01*
X36646506Y-70377426D01*
X36595171Y-70501360D01*
X36569000Y-70632927D01*
X33682843Y-70632927D01*
X33682843Y-70450000D01*
X33675487Y-70375311D01*
X33653701Y-70303492D01*
X33618322Y-70237304D01*
X33570711Y-70179289D01*
X33512696Y-70131678D01*
X33446508Y-70096299D01*
X33374689Y-70074513D01*
X33300000Y-70067157D01*
X32300000Y-70067157D01*
X32245622Y-70072513D01*
X32090206Y-69962877D01*
X31886864Y-69872554D01*
X31831874Y-69855881D01*
X31657000Y-69982046D01*
X31657000Y-70823000D01*
X31677000Y-70823000D01*
X31677000Y-71077000D01*
X31657000Y-71077000D01*
X31657000Y-71097000D01*
X31403000Y-71097000D01*
X31403000Y-71077000D01*
X30387000Y-71077000D01*
X30387000Y-71097000D01*
X30133000Y-71097000D01*
X30133000Y-71077000D01*
X30113000Y-71077000D01*
X30113000Y-70823000D01*
X30133000Y-70823000D01*
X30133000Y-69982046D01*
X30387000Y-69982046D01*
X30387000Y-70823000D01*
X31403000Y-70823000D01*
X31403000Y-69982046D01*
X31228126Y-69855881D01*
X31173136Y-69872554D01*
X30969794Y-69962877D01*
X30895000Y-70015639D01*
X30820206Y-69962877D01*
X30616864Y-69872554D01*
X30561874Y-69855881D01*
X30387000Y-69982046D01*
X30133000Y-69982046D01*
X29958126Y-69855881D01*
X29903136Y-69872554D01*
X29699794Y-69962877D01*
X29517980Y-70091135D01*
X29429569Y-70184141D01*
X29407310Y-70169268D01*
X29246978Y-70102856D01*
X29076771Y-70069000D01*
X28903229Y-70069000D01*
X28733022Y-70102856D01*
X28572690Y-70169268D01*
X28550431Y-70184141D01*
X28462020Y-70091135D01*
X28280206Y-69962877D01*
X28076864Y-69872554D01*
X28021874Y-69855881D01*
X27847000Y-69982046D01*
X27847000Y-70823000D01*
X27867000Y-70823000D01*
X27867000Y-71077000D01*
X27847000Y-71077000D01*
X27847000Y-71097000D01*
X27593000Y-71097000D01*
X27593000Y-71077000D01*
X26750871Y-71077000D01*
X26625874Y-71251876D01*
X21656000Y-71251876D01*
X21656000Y-70685486D01*
X21665472Y-70697028D01*
X21814849Y-70819618D01*
X21985271Y-70910711D01*
X22170190Y-70966805D01*
X22314313Y-70981000D01*
X23110687Y-70981000D01*
X23254810Y-70966805D01*
X23439729Y-70910711D01*
X23610151Y-70819618D01*
X23759528Y-70697028D01*
X23799662Y-70648124D01*
X26625874Y-70648124D01*
X26750871Y-70823000D01*
X27593000Y-70823000D01*
X27593000Y-69982046D01*
X27418126Y-69855881D01*
X27363136Y-69872554D01*
X27159794Y-69962877D01*
X26977980Y-70091135D01*
X26824682Y-70252399D01*
X26705790Y-70440471D01*
X26625874Y-70648124D01*
X23799662Y-70648124D01*
X23882118Y-70547651D01*
X23973211Y-70377229D01*
X24029305Y-70192310D01*
X24048246Y-70000000D01*
X24029305Y-69807690D01*
X23973211Y-69622771D01*
X23882118Y-69452349D01*
X23759528Y-69302972D01*
X23610151Y-69180382D01*
X23439729Y-69089289D01*
X23254810Y-69033195D01*
X23110687Y-69019000D01*
X22314313Y-69019000D01*
X22170190Y-69033195D01*
X21985271Y-69089289D01*
X21814849Y-69180382D01*
X21665472Y-69302972D01*
X21656000Y-69314514D01*
X21656000Y-68891069D01*
X24306500Y-68891069D01*
X24306500Y-69108931D01*
X24349003Y-69322608D01*
X24432376Y-69523887D01*
X24553414Y-69705034D01*
X24707466Y-69859086D01*
X24888613Y-69980124D01*
X25089892Y-70063497D01*
X25303569Y-70106000D01*
X25521431Y-70106000D01*
X25735108Y-70063497D01*
X25936387Y-69980124D01*
X26117534Y-69859086D01*
X26271586Y-69705034D01*
X26392624Y-69523887D01*
X26475997Y-69322608D01*
X26518500Y-69108931D01*
X26518500Y-68891069D01*
X26475997Y-68677392D01*
X26392624Y-68476113D01*
X26271586Y-68294966D01*
X26117534Y-68140914D01*
X25936387Y-68019876D01*
X25735108Y-67936503D01*
X25521431Y-67894000D01*
X25303569Y-67894000D01*
X25089892Y-67936503D01*
X24888613Y-68019876D01*
X24707466Y-68140914D01*
X24553414Y-68294966D01*
X24432376Y-68476113D01*
X24349003Y-68677392D01*
X24306500Y-68891069D01*
X21656000Y-68891069D01*
X21656000Y-67804612D01*
X41464420Y-67804612D01*
X41464420Y-67938758D01*
X41490591Y-68070325D01*
X41541926Y-68194259D01*
X41616453Y-68305797D01*
X41711308Y-68400652D01*
X41822846Y-68475179D01*
X41946780Y-68526514D01*
X42078347Y-68552685D01*
X42212493Y-68552685D01*
X42344060Y-68526514D01*
X42467994Y-68475179D01*
X42579532Y-68400652D01*
X42674387Y-68305797D01*
X42748914Y-68194259D01*
X42800249Y-68070325D01*
X42826420Y-67938758D01*
X42826420Y-67804612D01*
X42800249Y-67673045D01*
X42748914Y-67549111D01*
X42674387Y-67437573D01*
X42579532Y-67342718D01*
X42467994Y-67268191D01*
X42344060Y-67216856D01*
X42212493Y-67190685D01*
X42078347Y-67190685D01*
X41946780Y-67216856D01*
X41822846Y-67268191D01*
X41711308Y-67342718D01*
X41616453Y-67437573D01*
X41541926Y-67549111D01*
X41490591Y-67673045D01*
X41464420Y-67804612D01*
X21656000Y-67804612D01*
X21656000Y-67037852D01*
X27769000Y-67037852D01*
X27769000Y-67162148D01*
X27793249Y-67284056D01*
X27840815Y-67398891D01*
X27909870Y-67502239D01*
X27997761Y-67590130D01*
X28101109Y-67659185D01*
X28215944Y-67706751D01*
X28337852Y-67731000D01*
X28462148Y-67731000D01*
X28584056Y-67706751D01*
X28698891Y-67659185D01*
X28802239Y-67590130D01*
X28890130Y-67502239D01*
X28959185Y-67398891D01*
X29006751Y-67284056D01*
X29031000Y-67162148D01*
X29031000Y-67037852D01*
X29006751Y-66915944D01*
X28959185Y-66801109D01*
X28890130Y-66697761D01*
X28802239Y-66609870D01*
X28698891Y-66540815D01*
X28584056Y-66493249D01*
X28462148Y-66469000D01*
X28337852Y-66469000D01*
X28215944Y-66493249D01*
X28101109Y-66540815D01*
X27997761Y-66609870D01*
X27909870Y-66697761D01*
X27840815Y-66801109D01*
X27793249Y-66915944D01*
X27769000Y-67037852D01*
X21656000Y-67037852D01*
X21656000Y-65482927D01*
X26369000Y-65482927D01*
X26369000Y-65617073D01*
X26395171Y-65748640D01*
X26446506Y-65872574D01*
X26521033Y-65984112D01*
X26615888Y-66078967D01*
X26727426Y-66153494D01*
X26851360Y-66204829D01*
X26982927Y-66231000D01*
X27117073Y-66231000D01*
X27248640Y-66204829D01*
X27372574Y-66153494D01*
X27484112Y-66078967D01*
X27578967Y-65984112D01*
X27653494Y-65872574D01*
X27704829Y-65748640D01*
X27731000Y-65617073D01*
X27731000Y-65482927D01*
X27704829Y-65351360D01*
X27672404Y-65273078D01*
X31919000Y-65273078D01*
X31919000Y-65426922D01*
X31949013Y-65577809D01*
X32007887Y-65719942D01*
X32093358Y-65847859D01*
X32202141Y-65956642D01*
X32330058Y-66042113D01*
X32472191Y-66100987D01*
X32623078Y-66131000D01*
X32776922Y-66131000D01*
X32927809Y-66100987D01*
X33069942Y-66042113D01*
X33137500Y-65996972D01*
X33205058Y-66042113D01*
X33347191Y-66100987D01*
X33498078Y-66131000D01*
X33651922Y-66131000D01*
X33802809Y-66100987D01*
X33944942Y-66042113D01*
X34012500Y-65996972D01*
X34080058Y-66042113D01*
X34222191Y-66100987D01*
X34373078Y-66131000D01*
X34526922Y-66131000D01*
X34677809Y-66100987D01*
X34721409Y-66082927D01*
X42369000Y-66082927D01*
X42369000Y-66217073D01*
X42395171Y-66348640D01*
X42446506Y-66472574D01*
X42521033Y-66584112D01*
X42615888Y-66678967D01*
X42727426Y-66753494D01*
X42851360Y-66804829D01*
X42982927Y-66831000D01*
X43117073Y-66831000D01*
X43248640Y-66804829D01*
X43372574Y-66753494D01*
X43484112Y-66678967D01*
X43578967Y-66584112D01*
X43653494Y-66472574D01*
X43704829Y-66348640D01*
X43731000Y-66217073D01*
X43731000Y-66082927D01*
X43704829Y-65951360D01*
X43653494Y-65827426D01*
X43578967Y-65715888D01*
X43484112Y-65621033D01*
X43372574Y-65546506D01*
X43248640Y-65495171D01*
X43117073Y-65469000D01*
X42982927Y-65469000D01*
X42851360Y-65495171D01*
X42727426Y-65546506D01*
X42615888Y-65621033D01*
X42521033Y-65715888D01*
X42446506Y-65827426D01*
X42395171Y-65951360D01*
X42369000Y-66082927D01*
X34721409Y-66082927D01*
X34819942Y-66042113D01*
X34947859Y-65956642D01*
X35056642Y-65847859D01*
X35142113Y-65719942D01*
X35200987Y-65577809D01*
X35231000Y-65426922D01*
X35231000Y-65273078D01*
X35200987Y-65122191D01*
X35142113Y-64980058D01*
X35096972Y-64912500D01*
X35142113Y-64844942D01*
X35200987Y-64702809D01*
X35231000Y-64551922D01*
X35231000Y-64398078D01*
X35200987Y-64247191D01*
X35142113Y-64105058D01*
X35056642Y-63977141D01*
X34947859Y-63868358D01*
X34819942Y-63782887D01*
X34677809Y-63724013D01*
X34526922Y-63694000D01*
X34373078Y-63694000D01*
X34222191Y-63724013D01*
X34080058Y-63782887D01*
X33952141Y-63868358D01*
X33843358Y-63977141D01*
X33757887Y-64105058D01*
X33699013Y-64247191D01*
X33669000Y-64398078D01*
X33669000Y-64551922D01*
X33673240Y-64573240D01*
X33651922Y-64569000D01*
X33498078Y-64569000D01*
X33347191Y-64599013D01*
X33205058Y-64657887D01*
X33137500Y-64703028D01*
X33069942Y-64657887D01*
X32927809Y-64599013D01*
X32776922Y-64569000D01*
X32623078Y-64569000D01*
X32472191Y-64599013D01*
X32330058Y-64657887D01*
X32202141Y-64743358D01*
X32093358Y-64852141D01*
X32007887Y-64980058D01*
X31949013Y-65122191D01*
X31919000Y-65273078D01*
X27672404Y-65273078D01*
X27653494Y-65227426D01*
X27578967Y-65115888D01*
X27484112Y-65021033D01*
X27372574Y-64946506D01*
X27248640Y-64895171D01*
X27117073Y-64869000D01*
X26982927Y-64869000D01*
X26851360Y-64895171D01*
X26727426Y-64946506D01*
X26615888Y-65021033D01*
X26521033Y-65115888D01*
X26446506Y-65227426D01*
X26395171Y-65351360D01*
X26369000Y-65482927D01*
X21656000Y-65482927D01*
X21656000Y-63685486D01*
X21665472Y-63697028D01*
X21814849Y-63819618D01*
X21985271Y-63910711D01*
X22170190Y-63966805D01*
X22314313Y-63981000D01*
X23110687Y-63981000D01*
X23254810Y-63966805D01*
X23439729Y-63910711D01*
X23476476Y-63891069D01*
X24306500Y-63891069D01*
X24306500Y-64108931D01*
X24349003Y-64322608D01*
X24432376Y-64523887D01*
X24553414Y-64705034D01*
X24707466Y-64859086D01*
X24888613Y-64980124D01*
X25089892Y-65063497D01*
X25303569Y-65106000D01*
X25521431Y-65106000D01*
X25735108Y-65063497D01*
X25936387Y-64980124D01*
X26117534Y-64859086D01*
X26271586Y-64705034D01*
X26392624Y-64523887D01*
X26475997Y-64322608D01*
X26518500Y-64108931D01*
X26518500Y-63891069D01*
X26475997Y-63677392D01*
X26392624Y-63476113D01*
X26271586Y-63294966D01*
X26117534Y-63140914D01*
X25955920Y-63032927D01*
X36519000Y-63032927D01*
X36519000Y-63167073D01*
X36545171Y-63298640D01*
X36596506Y-63422574D01*
X36671033Y-63534112D01*
X36765888Y-63628967D01*
X36877426Y-63703494D01*
X37001360Y-63754829D01*
X37132927Y-63781000D01*
X37267073Y-63781000D01*
X37398640Y-63754829D01*
X37522574Y-63703494D01*
X37634112Y-63628967D01*
X37728967Y-63534112D01*
X37783162Y-63453003D01*
X40444000Y-63453003D01*
X40444000Y-63596997D01*
X40472092Y-63738225D01*
X40527196Y-63871258D01*
X40607195Y-63990985D01*
X40709015Y-64092805D01*
X40828742Y-64172804D01*
X40961775Y-64227908D01*
X41103003Y-64256000D01*
X41246997Y-64256000D01*
X41388225Y-64227908D01*
X41521258Y-64172804D01*
X41640985Y-64092805D01*
X41742805Y-63990985D01*
X41822804Y-63871258D01*
X41877908Y-63738225D01*
X41894859Y-63653003D01*
X47919000Y-63653003D01*
X47919000Y-63796997D01*
X47947092Y-63938225D01*
X48002196Y-64071258D01*
X48082195Y-64190985D01*
X48184015Y-64292805D01*
X48303742Y-64372804D01*
X48436775Y-64427908D01*
X48578003Y-64456000D01*
X48721997Y-64456000D01*
X48863225Y-64427908D01*
X48996258Y-64372804D01*
X49115985Y-64292805D01*
X49217805Y-64190985D01*
X49297804Y-64071258D01*
X49352908Y-63938225D01*
X49381000Y-63796997D01*
X49381000Y-63653003D01*
X49352908Y-63511775D01*
X49297804Y-63378742D01*
X49217805Y-63259015D01*
X49115985Y-63157195D01*
X48996258Y-63077196D01*
X48863225Y-63022092D01*
X48721997Y-62994000D01*
X48578003Y-62994000D01*
X48436775Y-63022092D01*
X48303742Y-63077196D01*
X48184015Y-63157195D01*
X48082195Y-63259015D01*
X48002196Y-63378742D01*
X47947092Y-63511775D01*
X47919000Y-63653003D01*
X41894859Y-63653003D01*
X41906000Y-63596997D01*
X41906000Y-63453003D01*
X41877908Y-63311775D01*
X41822804Y-63178742D01*
X41742805Y-63059015D01*
X41640985Y-62957195D01*
X41521258Y-62877196D01*
X41388225Y-62822092D01*
X41246997Y-62794000D01*
X41103003Y-62794000D01*
X40961775Y-62822092D01*
X40828742Y-62877196D01*
X40709015Y-62957195D01*
X40607195Y-63059015D01*
X40527196Y-63178742D01*
X40472092Y-63311775D01*
X40444000Y-63453003D01*
X37783162Y-63453003D01*
X37803494Y-63422574D01*
X37854829Y-63298640D01*
X37881000Y-63167073D01*
X37881000Y-63032927D01*
X37854829Y-62901360D01*
X37803494Y-62777426D01*
X37728967Y-62665888D01*
X37634112Y-62571033D01*
X37522574Y-62496506D01*
X37398640Y-62445171D01*
X37267073Y-62419000D01*
X37132927Y-62419000D01*
X37001360Y-62445171D01*
X36877426Y-62496506D01*
X36765888Y-62571033D01*
X36671033Y-62665888D01*
X36596506Y-62777426D01*
X36545171Y-62901360D01*
X36519000Y-63032927D01*
X25955920Y-63032927D01*
X25936387Y-63019876D01*
X25735108Y-62936503D01*
X25521431Y-62894000D01*
X25303569Y-62894000D01*
X25089892Y-62936503D01*
X24888613Y-63019876D01*
X24707466Y-63140914D01*
X24553414Y-63294966D01*
X24432376Y-63476113D01*
X24349003Y-63677392D01*
X24306500Y-63891069D01*
X23476476Y-63891069D01*
X23610151Y-63819618D01*
X23759528Y-63697028D01*
X23882118Y-63547651D01*
X23973211Y-63377229D01*
X24029305Y-63192310D01*
X24048246Y-63000000D01*
X24029305Y-62807690D01*
X23973211Y-62622771D01*
X23882118Y-62452349D01*
X23759528Y-62302972D01*
X23653433Y-62215902D01*
X38185275Y-62215902D01*
X38185275Y-62350048D01*
X38211446Y-62481615D01*
X38262781Y-62605549D01*
X38337308Y-62717087D01*
X38432163Y-62811942D01*
X38543701Y-62886469D01*
X38667635Y-62937804D01*
X38799202Y-62963975D01*
X38933348Y-62963975D01*
X39064915Y-62937804D01*
X39188849Y-62886469D01*
X39300387Y-62811942D01*
X39395242Y-62717087D01*
X39469769Y-62605549D01*
X39521104Y-62481615D01*
X39547275Y-62350048D01*
X39547275Y-62215902D01*
X39521104Y-62084335D01*
X39469769Y-61960401D01*
X39395242Y-61848863D01*
X39300387Y-61754008D01*
X39188849Y-61679481D01*
X39064915Y-61628146D01*
X38933348Y-61601975D01*
X38799202Y-61601975D01*
X38667635Y-61628146D01*
X38543701Y-61679481D01*
X38432163Y-61754008D01*
X38337308Y-61848863D01*
X38262781Y-61960401D01*
X38211446Y-62084335D01*
X38185275Y-62215902D01*
X23653433Y-62215902D01*
X23610151Y-62180382D01*
X23439729Y-62089289D01*
X23254810Y-62033195D01*
X23110687Y-62019000D01*
X22314313Y-62019000D01*
X22170190Y-62033195D01*
X21985271Y-62089289D01*
X21814849Y-62180382D01*
X21665472Y-62302972D01*
X21656000Y-62314514D01*
X21656000Y-61019854D01*
X21688267Y-60690771D01*
X21778075Y-60393312D01*
X21802126Y-60348078D01*
X43969000Y-60348078D01*
X43969000Y-60501922D01*
X43999013Y-60652809D01*
X44057887Y-60794942D01*
X44143358Y-60922859D01*
X44252141Y-61031642D01*
X44380058Y-61117113D01*
X44522191Y-61175987D01*
X44673078Y-61206000D01*
X44826922Y-61206000D01*
X44977809Y-61175987D01*
X45119942Y-61117113D01*
X45247859Y-61031642D01*
X45331423Y-60948078D01*
X46794000Y-60948078D01*
X46794000Y-61101922D01*
X46824013Y-61252809D01*
X46882887Y-61394942D01*
X46968358Y-61522859D01*
X47077141Y-61631642D01*
X47205058Y-61717113D01*
X47347191Y-61775987D01*
X47498078Y-61806000D01*
X47651922Y-61806000D01*
X47802809Y-61775987D01*
X47944942Y-61717113D01*
X48072859Y-61631642D01*
X48181642Y-61522859D01*
X48267113Y-61394942D01*
X48325987Y-61252809D01*
X48356000Y-61101922D01*
X48356000Y-60948078D01*
X48325987Y-60797191D01*
X48267113Y-60655058D01*
X48181642Y-60527141D01*
X48072859Y-60418358D01*
X47944942Y-60332887D01*
X47802809Y-60274013D01*
X47651922Y-60244000D01*
X47498078Y-60244000D01*
X47347191Y-60274013D01*
X47205058Y-60332887D01*
X47077141Y-60418358D01*
X46968358Y-60527141D01*
X46882887Y-60655058D01*
X46824013Y-60797191D01*
X46794000Y-60948078D01*
X45331423Y-60948078D01*
X45356642Y-60922859D01*
X45442113Y-60794942D01*
X45500987Y-60652809D01*
X45531000Y-60501922D01*
X45531000Y-60348078D01*
X45500987Y-60197191D01*
X45442113Y-60055058D01*
X45356642Y-59927141D01*
X45247859Y-59818358D01*
X45119942Y-59732887D01*
X44977809Y-59674013D01*
X44826922Y-59644000D01*
X44673078Y-59644000D01*
X44522191Y-59674013D01*
X44380058Y-59732887D01*
X44252141Y-59818358D01*
X44143358Y-59927141D01*
X44057887Y-60055058D01*
X43999013Y-60197191D01*
X43969000Y-60348078D01*
X21802126Y-60348078D01*
X21923945Y-60118972D01*
X22120325Y-59878187D01*
X22359736Y-59680127D01*
X22633053Y-59532346D01*
X22929872Y-59440465D01*
X23257782Y-59406000D01*
X29380060Y-59406000D01*
X29400000Y-59407964D01*
X29426957Y-59405309D01*
X29479590Y-59400125D01*
X29556121Y-59376910D01*
X29626653Y-59339210D01*
X29688474Y-59288474D01*
X29739210Y-59226653D01*
X29776910Y-59156121D01*
X29798349Y-59085446D01*
X30801953Y-59086440D01*
M02*
