M48
; DRILL file {KiCad (5.1.5)-3} date 21/05/2020 23:45:30
; FORMAT={3:3/ absolute / metric / suppress leading zeros}
; #@! TF.CreationDate,2020-05-21T23:45:30+02:00
; #@! TF.GenerationSoftware,Kicad,Pcbnew,(5.1.5)-3
FMAT,2
METRIC,TZ
T1C0.400
T2C0.650
T3C1.000
%
G90
G05
T1
X25030Y-40910
X25030Y-56910
X27050Y-33550
X27050Y-49550
X27075Y-36200
X27075Y-37200
X27075Y-52200
X27075Y-53200
X28000Y-33350
X28000Y-49350
X28100Y-37200
X28100Y-53200
X28700Y-35100
X28700Y-51100
X29100Y-37200
X29100Y-53200
X30350Y-35100
X30350Y-51100
X30600Y-31475
X30600Y-32975
X30600Y-47475
X30600Y-48975
X31900Y-29600
X31900Y-45600
X32700Y-33350
X32700Y-49350
X33575Y-33350
X33575Y-49350
X34350Y-31425
X34350Y-47425
X34450Y-32475
X34450Y-33350
X34450Y-48475
X34450Y-49350
X36155Y-37465
X36155Y-53465
X37640Y-31080
X37640Y-47080
X37690Y-38680
X37690Y-54680
X38640Y-33455
X38640Y-35455
X38640Y-49455
X38640Y-51455
X38665Y-34455
X38665Y-50455
X39306Y-30263
X39306Y-46263
X41415Y-27980
X41415Y-28905
X41415Y-43980
X41415Y-44905
X41615Y-31505
X41615Y-47505
X41940Y-32355
X41940Y-48355
X42440Y-27980
X42440Y-28905
X42440Y-43980
X42440Y-44905
X42580Y-36290
X42580Y-52290
X42600Y-34555
X42600Y-50555
X43070Y-37620
X43070Y-53620
X43600Y-38600
X43600Y-54600
X43620Y-29920
X43620Y-45920
X44750Y-28425
X44750Y-44425
X45250Y-33500
X45250Y-34750
X45250Y-49500
X45250Y-50750
X45550Y-37450
X45550Y-53450
X46300Y-28425
X46300Y-44425
X46500Y-33500
X46500Y-34750
X46500Y-49500
X46500Y-50750
X47575Y-29025
X47575Y-45025
X48625Y-29025
X48625Y-45025
X48650Y-31725
X48650Y-47725
X48850Y-41350
X48850Y-57350
X48900Y-32600
X48900Y-48600
X50250Y-27700
X50250Y-30200
X50250Y-32500
X50250Y-36900
X50250Y-39075
X50250Y-41300
X50250Y-43700
X50250Y-46200
X50250Y-48500
X50250Y-52900
X50250Y-55075
X50250Y-57300
X52750Y-27700
X52750Y-41300
X52750Y-43700
X52750Y-57300
X53250Y-35900
X53250Y-36900
X53250Y-51900
X53250Y-52900
X54300Y-32025
X54300Y-48025
X55750Y-27700
X55750Y-41300
X55750Y-43700
X55750Y-57300
X56250Y-30400
X56250Y-38600
X56250Y-46400
X56250Y-54600
X57250Y-30400
X57250Y-38600
X57250Y-46400
X57250Y-54600
X58200Y-30400
X58200Y-38600
X58200Y-46400
X58200Y-54600
X58400Y-27700
X58400Y-41300
X58400Y-43700
X58400Y-57300
X59500Y-30000
X59500Y-39000
X59500Y-46000
X59500Y-55000
T2
X28790Y-54930
X28790Y-56200
X30060Y-54930
X30060Y-56200
X31330Y-54930
X31330Y-56200
X32600Y-54930
X32600Y-56200
X33870Y-54930
X33870Y-56200
X28790Y-38930
X28790Y-40200
X30060Y-38930
X30060Y-40200
X31330Y-38930
X31330Y-40200
X32600Y-38930
X32600Y-40200
X33870Y-38930
X33870Y-40200
T3
G00X22525Y-31200
M15
G01X22825Y-31200
M16
G05
G00X22525Y-37800
M15
G01X22825Y-37800
M16
G05
G00X22525Y-47200
M15
G01X22825Y-47200
M16
G05
G00X22525Y-53800
M15
G01X22825Y-53800
M16
G05
T0
M30
