G04 #@! TF.GenerationSoftware,KiCad,Pcbnew,(5.1.5)-3*
G04 #@! TF.CreationDate,2020-05-12T02:25:37+02:00*
G04 #@! TF.ProjectId,STRF,53545246-2e6b-4696-9361-645f70636258,rev?*
G04 #@! TF.SameCoordinates,Original*
G04 #@! TF.FileFunction,Soldermask,Bot*
G04 #@! TF.FilePolarity,Negative*
%FSLAX46Y46*%
G04 Gerber Fmt 4.6, Leading zero omitted, Abs format (unit mm)*
G04 Created by KiCad (PCBNEW (5.1.5)-3) date 2020-05-12 02:25:37*
%MOMM*%
%LPD*%
G04 APERTURE LIST*
%ADD10C,0.100000*%
G04 APERTURE END LIST*
D10*
G36*
X27880721Y-70420174D02*
G01*
X27980995Y-70461709D01*
X28025812Y-70491655D01*
X28071242Y-70522010D01*
X28147990Y-70598758D01*
X28163665Y-70622218D01*
X28208291Y-70689005D01*
X28239516Y-70764389D01*
X28251067Y-70786000D01*
X28266612Y-70804941D01*
X28285554Y-70820487D01*
X28307165Y-70832038D01*
X28330614Y-70839151D01*
X28355000Y-70841553D01*
X28379386Y-70839151D01*
X28402835Y-70832038D01*
X28424446Y-70820487D01*
X28443387Y-70804942D01*
X28458933Y-70786000D01*
X28470484Y-70764389D01*
X28501709Y-70689005D01*
X28546335Y-70622218D01*
X28562010Y-70598758D01*
X28638758Y-70522010D01*
X28684188Y-70491655D01*
X28729005Y-70461709D01*
X28829279Y-70420174D01*
X28935730Y-70399000D01*
X29044270Y-70399000D01*
X29150721Y-70420174D01*
X29250995Y-70461709D01*
X29295812Y-70491655D01*
X29341242Y-70522010D01*
X29417990Y-70598758D01*
X29433665Y-70622218D01*
X29478291Y-70689005D01*
X29509516Y-70764389D01*
X29521067Y-70786000D01*
X29536612Y-70804941D01*
X29555554Y-70820487D01*
X29577165Y-70832038D01*
X29600614Y-70839151D01*
X29625000Y-70841553D01*
X29649386Y-70839151D01*
X29672835Y-70832038D01*
X29694446Y-70820487D01*
X29713387Y-70804942D01*
X29728933Y-70786000D01*
X29740484Y-70764389D01*
X29771709Y-70689005D01*
X29816335Y-70622218D01*
X29832010Y-70598758D01*
X29908758Y-70522010D01*
X29954188Y-70491655D01*
X29999005Y-70461709D01*
X30099279Y-70420174D01*
X30205730Y-70399000D01*
X30314270Y-70399000D01*
X30420721Y-70420174D01*
X30520995Y-70461709D01*
X30565812Y-70491655D01*
X30611242Y-70522010D01*
X30687990Y-70598758D01*
X30703665Y-70622218D01*
X30748291Y-70689005D01*
X30779516Y-70764389D01*
X30791067Y-70786000D01*
X30806612Y-70804941D01*
X30825554Y-70820487D01*
X30847165Y-70832038D01*
X30870614Y-70839151D01*
X30895000Y-70841553D01*
X30919386Y-70839151D01*
X30942835Y-70832038D01*
X30964446Y-70820487D01*
X30983387Y-70804942D01*
X30998933Y-70786000D01*
X31010484Y-70764389D01*
X31041709Y-70689005D01*
X31086335Y-70622218D01*
X31102010Y-70598758D01*
X31178758Y-70522010D01*
X31224188Y-70491655D01*
X31269005Y-70461709D01*
X31369279Y-70420174D01*
X31475730Y-70399000D01*
X31584270Y-70399000D01*
X31690721Y-70420174D01*
X31790995Y-70461709D01*
X31835812Y-70491655D01*
X31881242Y-70522010D01*
X31957990Y-70598758D01*
X31973665Y-70622218D01*
X32020068Y-70691664D01*
X32035614Y-70710606D01*
X32054556Y-70726151D01*
X32076167Y-70737702D01*
X32099615Y-70744815D01*
X32124002Y-70747217D01*
X32148388Y-70744815D01*
X32171837Y-70737702D01*
X32193447Y-70726151D01*
X32212389Y-70710605D01*
X32227934Y-70691663D01*
X32239485Y-70670052D01*
X32246598Y-70646604D01*
X32249000Y-70622218D01*
X32249000Y-70399000D01*
X33351000Y-70399000D01*
X33351000Y-71501000D01*
X33127782Y-71501000D01*
X33103396Y-71503402D01*
X33079947Y-71510515D01*
X33058336Y-71522066D01*
X33039394Y-71537611D01*
X33023849Y-71556553D01*
X33012298Y-71578164D01*
X33005185Y-71601613D01*
X33002783Y-71625999D01*
X33005185Y-71650385D01*
X33012298Y-71673834D01*
X33023849Y-71695445D01*
X33039394Y-71714387D01*
X33058336Y-71729932D01*
X33119816Y-71771012D01*
X33151242Y-71792010D01*
X33227990Y-71868758D01*
X33227991Y-71868760D01*
X33288291Y-71959005D01*
X33329826Y-72059279D01*
X33351000Y-72165730D01*
X33351000Y-72274270D01*
X33329826Y-72380721D01*
X33288291Y-72480995D01*
X33288290Y-72480996D01*
X33227990Y-72571242D01*
X33151242Y-72647990D01*
X33105812Y-72678345D01*
X33060995Y-72708291D01*
X32960721Y-72749826D01*
X32854270Y-72771000D01*
X32745730Y-72771000D01*
X32639279Y-72749826D01*
X32539005Y-72708291D01*
X32494188Y-72678345D01*
X32448758Y-72647990D01*
X32372010Y-72571242D01*
X32311710Y-72480996D01*
X32311709Y-72480995D01*
X32280484Y-72405611D01*
X32268933Y-72384000D01*
X32253388Y-72365059D01*
X32234446Y-72349513D01*
X32212835Y-72337962D01*
X32189386Y-72330849D01*
X32165000Y-72328447D01*
X32140614Y-72330849D01*
X32117165Y-72337962D01*
X32095554Y-72349513D01*
X32076613Y-72365058D01*
X32061067Y-72384000D01*
X32049516Y-72405611D01*
X32018291Y-72480995D01*
X32018290Y-72480996D01*
X31957990Y-72571242D01*
X31881242Y-72647990D01*
X31835812Y-72678345D01*
X31790995Y-72708291D01*
X31690721Y-72749826D01*
X31584270Y-72771000D01*
X31475730Y-72771000D01*
X31369279Y-72749826D01*
X31269005Y-72708291D01*
X31224188Y-72678345D01*
X31178758Y-72647990D01*
X31102010Y-72571242D01*
X31041710Y-72480996D01*
X31041709Y-72480995D01*
X31010484Y-72405611D01*
X30998933Y-72384000D01*
X30983388Y-72365059D01*
X30964446Y-72349513D01*
X30942835Y-72337962D01*
X30919386Y-72330849D01*
X30895000Y-72328447D01*
X30870614Y-72330849D01*
X30847165Y-72337962D01*
X30825554Y-72349513D01*
X30806613Y-72365058D01*
X30791067Y-72384000D01*
X30779516Y-72405611D01*
X30748291Y-72480995D01*
X30748290Y-72480996D01*
X30687990Y-72571242D01*
X30611242Y-72647990D01*
X30565812Y-72678345D01*
X30520995Y-72708291D01*
X30420721Y-72749826D01*
X30314270Y-72771000D01*
X30205730Y-72771000D01*
X30099279Y-72749826D01*
X29999005Y-72708291D01*
X29954188Y-72678345D01*
X29908758Y-72647990D01*
X29832010Y-72571242D01*
X29771710Y-72480996D01*
X29771709Y-72480995D01*
X29740484Y-72405611D01*
X29728933Y-72384000D01*
X29713388Y-72365059D01*
X29694446Y-72349513D01*
X29672835Y-72337962D01*
X29649386Y-72330849D01*
X29625000Y-72328447D01*
X29600614Y-72330849D01*
X29577165Y-72337962D01*
X29555554Y-72349513D01*
X29536613Y-72365058D01*
X29521067Y-72384000D01*
X29509516Y-72405611D01*
X29478291Y-72480995D01*
X29478290Y-72480996D01*
X29417990Y-72571242D01*
X29341242Y-72647990D01*
X29295812Y-72678345D01*
X29250995Y-72708291D01*
X29150721Y-72749826D01*
X29044270Y-72771000D01*
X28935730Y-72771000D01*
X28829279Y-72749826D01*
X28729005Y-72708291D01*
X28684188Y-72678345D01*
X28638758Y-72647990D01*
X28562010Y-72571242D01*
X28501710Y-72480996D01*
X28501709Y-72480995D01*
X28470484Y-72405611D01*
X28458933Y-72384000D01*
X28443388Y-72365059D01*
X28424446Y-72349513D01*
X28402835Y-72337962D01*
X28379386Y-72330849D01*
X28355000Y-72328447D01*
X28330614Y-72330849D01*
X28307165Y-72337962D01*
X28285554Y-72349513D01*
X28266613Y-72365058D01*
X28251067Y-72384000D01*
X28239516Y-72405611D01*
X28208291Y-72480995D01*
X28208290Y-72480996D01*
X28147990Y-72571242D01*
X28071242Y-72647990D01*
X28025812Y-72678345D01*
X27980995Y-72708291D01*
X27880721Y-72749826D01*
X27774270Y-72771000D01*
X27665730Y-72771000D01*
X27559279Y-72749826D01*
X27459005Y-72708291D01*
X27414188Y-72678345D01*
X27368758Y-72647990D01*
X27292010Y-72571242D01*
X27231710Y-72480996D01*
X27231709Y-72480995D01*
X27190174Y-72380721D01*
X27169000Y-72274270D01*
X27169000Y-72165730D01*
X27190174Y-72059279D01*
X27231709Y-71959005D01*
X27292009Y-71868760D01*
X27292010Y-71868758D01*
X27368758Y-71792010D01*
X27459004Y-71731710D01*
X27459005Y-71731709D01*
X27534389Y-71700484D01*
X27556000Y-71688933D01*
X27574941Y-71673388D01*
X27590487Y-71654446D01*
X27602038Y-71632835D01*
X27609151Y-71609386D01*
X27611553Y-71585000D01*
X27828447Y-71585000D01*
X27830849Y-71609386D01*
X27837962Y-71632835D01*
X27849513Y-71654446D01*
X27865058Y-71673387D01*
X27884000Y-71688933D01*
X27905611Y-71700484D01*
X27980995Y-71731709D01*
X27980996Y-71731710D01*
X28071242Y-71792010D01*
X28147990Y-71868758D01*
X28147991Y-71868760D01*
X28208291Y-71959005D01*
X28239516Y-72034389D01*
X28251067Y-72056000D01*
X28266612Y-72074941D01*
X28285554Y-72090487D01*
X28307165Y-72102038D01*
X28330614Y-72109151D01*
X28355000Y-72111553D01*
X28379386Y-72109151D01*
X28402835Y-72102038D01*
X28424446Y-72090487D01*
X28443387Y-72074942D01*
X28458933Y-72056000D01*
X28470484Y-72034389D01*
X28501709Y-71959005D01*
X28562009Y-71868760D01*
X28562010Y-71868758D01*
X28638758Y-71792010D01*
X28729004Y-71731710D01*
X28729005Y-71731709D01*
X28804389Y-71700484D01*
X28826000Y-71688933D01*
X28844941Y-71673388D01*
X28860487Y-71654446D01*
X28872038Y-71632835D01*
X28879151Y-71609386D01*
X28881553Y-71585000D01*
X29098447Y-71585000D01*
X29100849Y-71609386D01*
X29107962Y-71632835D01*
X29119513Y-71654446D01*
X29135058Y-71673387D01*
X29154000Y-71688933D01*
X29175611Y-71700484D01*
X29250995Y-71731709D01*
X29250996Y-71731710D01*
X29341242Y-71792010D01*
X29417990Y-71868758D01*
X29417991Y-71868760D01*
X29478291Y-71959005D01*
X29509516Y-72034389D01*
X29521067Y-72056000D01*
X29536612Y-72074941D01*
X29555554Y-72090487D01*
X29577165Y-72102038D01*
X29600614Y-72109151D01*
X29625000Y-72111553D01*
X29649386Y-72109151D01*
X29672835Y-72102038D01*
X29694446Y-72090487D01*
X29713387Y-72074942D01*
X29728933Y-72056000D01*
X29740484Y-72034389D01*
X29771709Y-71959005D01*
X29832009Y-71868760D01*
X29832010Y-71868758D01*
X29908758Y-71792010D01*
X29999004Y-71731710D01*
X29999005Y-71731709D01*
X30074389Y-71700484D01*
X30096000Y-71688933D01*
X30114941Y-71673388D01*
X30130487Y-71654446D01*
X30142038Y-71632835D01*
X30149151Y-71609386D01*
X30151553Y-71585000D01*
X30368447Y-71585000D01*
X30370849Y-71609386D01*
X30377962Y-71632835D01*
X30389513Y-71654446D01*
X30405058Y-71673387D01*
X30424000Y-71688933D01*
X30445611Y-71700484D01*
X30520995Y-71731709D01*
X30520996Y-71731710D01*
X30611242Y-71792010D01*
X30687990Y-71868758D01*
X30687991Y-71868760D01*
X30748291Y-71959005D01*
X30779516Y-72034389D01*
X30791067Y-72056000D01*
X30806612Y-72074941D01*
X30825554Y-72090487D01*
X30847165Y-72102038D01*
X30870614Y-72109151D01*
X30895000Y-72111553D01*
X30919386Y-72109151D01*
X30942835Y-72102038D01*
X30964446Y-72090487D01*
X30983387Y-72074942D01*
X30998933Y-72056000D01*
X31010484Y-72034389D01*
X31041709Y-71959005D01*
X31102009Y-71868760D01*
X31102010Y-71868758D01*
X31178758Y-71792010D01*
X31269004Y-71731710D01*
X31269005Y-71731709D01*
X31344389Y-71700484D01*
X31366000Y-71688933D01*
X31384941Y-71673388D01*
X31400487Y-71654446D01*
X31412038Y-71632835D01*
X31419151Y-71609386D01*
X31421553Y-71585000D01*
X31638447Y-71585000D01*
X31640849Y-71609386D01*
X31647962Y-71632835D01*
X31659513Y-71654446D01*
X31675058Y-71673387D01*
X31694000Y-71688933D01*
X31715611Y-71700484D01*
X31790995Y-71731709D01*
X31790996Y-71731710D01*
X31881242Y-71792010D01*
X31957990Y-71868758D01*
X31957991Y-71868760D01*
X32018291Y-71959005D01*
X32049516Y-72034389D01*
X32061067Y-72056000D01*
X32076612Y-72074941D01*
X32095554Y-72090487D01*
X32117165Y-72102038D01*
X32140614Y-72109151D01*
X32165000Y-72111553D01*
X32189386Y-72109151D01*
X32212835Y-72102038D01*
X32234446Y-72090487D01*
X32253387Y-72074942D01*
X32268933Y-72056000D01*
X32280484Y-72034389D01*
X32311709Y-71959005D01*
X32372009Y-71868760D01*
X32372010Y-71868758D01*
X32448758Y-71792010D01*
X32480184Y-71771012D01*
X32541664Y-71729932D01*
X32560606Y-71714386D01*
X32576151Y-71695444D01*
X32587702Y-71673833D01*
X32594815Y-71650385D01*
X32597217Y-71625998D01*
X32594815Y-71601612D01*
X32587702Y-71578163D01*
X32576151Y-71556553D01*
X32560605Y-71537611D01*
X32541663Y-71522066D01*
X32520052Y-71510515D01*
X32496604Y-71503402D01*
X32472218Y-71501000D01*
X32249000Y-71501000D01*
X32249000Y-71277782D01*
X32246598Y-71253396D01*
X32239485Y-71229947D01*
X32227934Y-71208336D01*
X32212389Y-71189394D01*
X32193447Y-71173849D01*
X32171836Y-71162298D01*
X32148387Y-71155185D01*
X32124001Y-71152783D01*
X32099615Y-71155185D01*
X32076166Y-71162298D01*
X32054555Y-71173849D01*
X32035613Y-71189394D01*
X32020068Y-71208336D01*
X31978988Y-71269816D01*
X31957990Y-71301242D01*
X31881242Y-71377990D01*
X31835812Y-71408345D01*
X31790995Y-71438291D01*
X31715611Y-71469516D01*
X31694000Y-71481067D01*
X31675059Y-71496612D01*
X31659513Y-71515554D01*
X31647962Y-71537165D01*
X31640849Y-71560614D01*
X31638447Y-71585000D01*
X31421553Y-71585000D01*
X31419151Y-71560614D01*
X31412038Y-71537165D01*
X31400487Y-71515554D01*
X31384942Y-71496613D01*
X31366000Y-71481067D01*
X31344389Y-71469516D01*
X31269005Y-71438291D01*
X31224188Y-71408345D01*
X31178758Y-71377990D01*
X31102010Y-71301242D01*
X31070041Y-71253396D01*
X31041709Y-71210995D01*
X31010484Y-71135611D01*
X30998933Y-71114000D01*
X30983388Y-71095059D01*
X30964446Y-71079513D01*
X30942835Y-71067962D01*
X30919386Y-71060849D01*
X30895000Y-71058447D01*
X30870614Y-71060849D01*
X30847165Y-71067962D01*
X30825554Y-71079513D01*
X30806613Y-71095058D01*
X30791067Y-71114000D01*
X30779516Y-71135611D01*
X30748291Y-71210995D01*
X30719959Y-71253396D01*
X30687990Y-71301242D01*
X30611242Y-71377990D01*
X30565812Y-71408345D01*
X30520995Y-71438291D01*
X30445611Y-71469516D01*
X30424000Y-71481067D01*
X30405059Y-71496612D01*
X30389513Y-71515554D01*
X30377962Y-71537165D01*
X30370849Y-71560614D01*
X30368447Y-71585000D01*
X30151553Y-71585000D01*
X30149151Y-71560614D01*
X30142038Y-71537165D01*
X30130487Y-71515554D01*
X30114942Y-71496613D01*
X30096000Y-71481067D01*
X30074389Y-71469516D01*
X29999005Y-71438291D01*
X29954188Y-71408345D01*
X29908758Y-71377990D01*
X29832010Y-71301242D01*
X29800041Y-71253396D01*
X29771709Y-71210995D01*
X29740484Y-71135611D01*
X29728933Y-71114000D01*
X29713388Y-71095059D01*
X29694446Y-71079513D01*
X29672835Y-71067962D01*
X29649386Y-71060849D01*
X29625000Y-71058447D01*
X29600614Y-71060849D01*
X29577165Y-71067962D01*
X29555554Y-71079513D01*
X29536613Y-71095058D01*
X29521067Y-71114000D01*
X29509516Y-71135611D01*
X29478291Y-71210995D01*
X29449959Y-71253396D01*
X29417990Y-71301242D01*
X29341242Y-71377990D01*
X29295812Y-71408345D01*
X29250995Y-71438291D01*
X29175611Y-71469516D01*
X29154000Y-71481067D01*
X29135059Y-71496612D01*
X29119513Y-71515554D01*
X29107962Y-71537165D01*
X29100849Y-71560614D01*
X29098447Y-71585000D01*
X28881553Y-71585000D01*
X28879151Y-71560614D01*
X28872038Y-71537165D01*
X28860487Y-71515554D01*
X28844942Y-71496613D01*
X28826000Y-71481067D01*
X28804389Y-71469516D01*
X28729005Y-71438291D01*
X28684188Y-71408345D01*
X28638758Y-71377990D01*
X28562010Y-71301242D01*
X28530041Y-71253396D01*
X28501709Y-71210995D01*
X28470484Y-71135611D01*
X28458933Y-71114000D01*
X28443388Y-71095059D01*
X28424446Y-71079513D01*
X28402835Y-71067962D01*
X28379386Y-71060849D01*
X28355000Y-71058447D01*
X28330614Y-71060849D01*
X28307165Y-71067962D01*
X28285554Y-71079513D01*
X28266613Y-71095058D01*
X28251067Y-71114000D01*
X28239516Y-71135611D01*
X28208291Y-71210995D01*
X28179959Y-71253396D01*
X28147990Y-71301242D01*
X28071242Y-71377990D01*
X28025812Y-71408345D01*
X27980995Y-71438291D01*
X27905611Y-71469516D01*
X27884000Y-71481067D01*
X27865059Y-71496612D01*
X27849513Y-71515554D01*
X27837962Y-71537165D01*
X27830849Y-71560614D01*
X27828447Y-71585000D01*
X27611553Y-71585000D01*
X27609151Y-71560614D01*
X27602038Y-71537165D01*
X27590487Y-71515554D01*
X27574942Y-71496613D01*
X27556000Y-71481067D01*
X27534389Y-71469516D01*
X27459005Y-71438291D01*
X27414188Y-71408345D01*
X27368758Y-71377990D01*
X27292010Y-71301242D01*
X27260041Y-71253396D01*
X27231709Y-71210995D01*
X27190174Y-71110721D01*
X27169000Y-71004270D01*
X27169000Y-70895730D01*
X27190174Y-70789279D01*
X27231709Y-70689005D01*
X27276335Y-70622218D01*
X27292010Y-70598758D01*
X27368758Y-70522010D01*
X27414188Y-70491655D01*
X27459005Y-70461709D01*
X27559279Y-70420174D01*
X27665730Y-70399000D01*
X27774270Y-70399000D01*
X27880721Y-70420174D01*
G37*
G36*
X23126355Y-69352140D02*
G01*
X23190118Y-69358420D01*
X23280904Y-69385960D01*
X23312836Y-69395646D01*
X23425925Y-69456094D01*
X23525054Y-69537446D01*
X23606406Y-69636575D01*
X23666854Y-69749664D01*
X23666855Y-69749668D01*
X23704080Y-69872382D01*
X23716649Y-70000000D01*
X23704080Y-70127618D01*
X23676540Y-70218404D01*
X23666854Y-70250336D01*
X23606406Y-70363425D01*
X23525054Y-70462554D01*
X23425925Y-70543906D01*
X23312836Y-70604354D01*
X23280904Y-70614040D01*
X23190118Y-70641580D01*
X23139107Y-70646604D01*
X23094474Y-70651000D01*
X22330526Y-70651000D01*
X22285893Y-70646604D01*
X22234882Y-70641580D01*
X22144096Y-70614040D01*
X22112164Y-70604354D01*
X21999075Y-70543906D01*
X21899946Y-70462554D01*
X21818594Y-70363425D01*
X21758146Y-70250336D01*
X21748460Y-70218404D01*
X21720920Y-70127618D01*
X21708351Y-70000000D01*
X21720920Y-69872382D01*
X21758145Y-69749668D01*
X21758146Y-69749664D01*
X21818594Y-69636575D01*
X21899946Y-69537446D01*
X21999075Y-69456094D01*
X22112164Y-69395646D01*
X22144096Y-69385960D01*
X22234882Y-69358420D01*
X22298645Y-69352140D01*
X22330526Y-69349000D01*
X23094474Y-69349000D01*
X23126355Y-69352140D01*
G37*
G36*
X59751000Y-70051000D02*
G01*
X55449000Y-70051000D01*
X55449000Y-68599000D01*
X59751000Y-68599000D01*
X59751000Y-70051000D01*
G37*
G36*
X25638848Y-68253820D02*
G01*
X25638850Y-68253821D01*
X25638851Y-68253821D01*
X25780074Y-68312317D01*
X25780077Y-68312319D01*
X25907169Y-68397239D01*
X26015261Y-68505331D01*
X26100181Y-68632423D01*
X26100183Y-68632426D01*
X26158679Y-68773649D01*
X26188500Y-68923571D01*
X26188500Y-69076429D01*
X26158679Y-69226351D01*
X26100183Y-69367574D01*
X26100181Y-69367577D01*
X26015261Y-69494669D01*
X25907169Y-69602761D01*
X25780077Y-69687681D01*
X25780074Y-69687683D01*
X25638851Y-69746179D01*
X25638850Y-69746179D01*
X25638848Y-69746180D01*
X25488931Y-69776000D01*
X25336069Y-69776000D01*
X25186152Y-69746180D01*
X25186150Y-69746179D01*
X25186149Y-69746179D01*
X25044926Y-69687683D01*
X25044923Y-69687681D01*
X24917831Y-69602761D01*
X24809739Y-69494669D01*
X24724819Y-69367577D01*
X24724817Y-69367574D01*
X24666321Y-69226351D01*
X24636500Y-69076429D01*
X24636500Y-68923571D01*
X24666321Y-68773649D01*
X24724817Y-68632426D01*
X24724819Y-68632423D01*
X24809739Y-68505331D01*
X24917831Y-68397239D01*
X25044923Y-68312319D01*
X25044926Y-68312317D01*
X25186149Y-68253821D01*
X25186150Y-68253821D01*
X25186152Y-68253820D01*
X25336069Y-68224000D01*
X25488931Y-68224000D01*
X25638848Y-68253820D01*
G37*
G36*
X25638848Y-63253820D02*
G01*
X25638850Y-63253821D01*
X25638851Y-63253821D01*
X25780074Y-63312317D01*
X25780077Y-63312319D01*
X25907169Y-63397239D01*
X26015261Y-63505331D01*
X26100181Y-63632423D01*
X26100183Y-63632426D01*
X26158679Y-63773649D01*
X26188500Y-63923571D01*
X26188500Y-64076429D01*
X26158679Y-64226351D01*
X26100183Y-64367574D01*
X26100181Y-64367577D01*
X26015261Y-64494669D01*
X25907169Y-64602761D01*
X25780077Y-64687681D01*
X25780074Y-64687683D01*
X25638851Y-64746179D01*
X25638850Y-64746179D01*
X25638848Y-64746180D01*
X25488931Y-64776000D01*
X25336069Y-64776000D01*
X25186152Y-64746180D01*
X25186150Y-64746179D01*
X25186149Y-64746179D01*
X25044926Y-64687683D01*
X25044923Y-64687681D01*
X24917831Y-64602761D01*
X24809739Y-64494669D01*
X24724819Y-64367577D01*
X24724817Y-64367574D01*
X24666321Y-64226351D01*
X24636500Y-64076429D01*
X24636500Y-63923571D01*
X24666321Y-63773649D01*
X24724817Y-63632426D01*
X24724819Y-63632423D01*
X24809739Y-63505331D01*
X24917831Y-63397239D01*
X25044923Y-63312319D01*
X25044926Y-63312317D01*
X25186149Y-63253821D01*
X25186150Y-63253821D01*
X25186152Y-63253820D01*
X25336069Y-63224000D01*
X25488931Y-63224000D01*
X25638848Y-63253820D01*
G37*
G36*
X59751000Y-64401000D02*
G01*
X55449000Y-64401000D01*
X55449000Y-62949000D01*
X59751000Y-62949000D01*
X59751000Y-64401000D01*
G37*
G36*
X23126355Y-62352140D02*
G01*
X23190118Y-62358420D01*
X23280904Y-62385960D01*
X23312836Y-62395646D01*
X23425925Y-62456094D01*
X23525054Y-62537446D01*
X23606406Y-62636575D01*
X23666854Y-62749664D01*
X23666855Y-62749668D01*
X23704080Y-62872382D01*
X23716649Y-63000000D01*
X23704080Y-63127618D01*
X23676540Y-63218404D01*
X23666854Y-63250336D01*
X23606406Y-63363425D01*
X23525054Y-63462554D01*
X23425925Y-63543906D01*
X23312836Y-63604354D01*
X23280904Y-63614040D01*
X23190118Y-63641580D01*
X23126355Y-63647860D01*
X23094474Y-63651000D01*
X22330526Y-63651000D01*
X22298645Y-63647860D01*
X22234882Y-63641580D01*
X22144096Y-63614040D01*
X22112164Y-63604354D01*
X21999075Y-63543906D01*
X21899946Y-63462554D01*
X21818594Y-63363425D01*
X21758146Y-63250336D01*
X21748460Y-63218404D01*
X21720920Y-63127618D01*
X21708351Y-63000000D01*
X21720920Y-62872382D01*
X21758145Y-62749668D01*
X21758146Y-62749664D01*
X21818594Y-62636575D01*
X21899946Y-62537446D01*
X21999075Y-62456094D01*
X22112164Y-62395646D01*
X22144096Y-62385960D01*
X22234882Y-62358420D01*
X22298645Y-62352140D01*
X22330526Y-62349000D01*
X23094474Y-62349000D01*
X23126355Y-62352140D01*
G37*
G36*
X27880721Y-54420174D02*
G01*
X27980995Y-54461709D01*
X28025812Y-54491655D01*
X28071242Y-54522010D01*
X28147990Y-54598758D01*
X28163665Y-54622218D01*
X28208291Y-54689005D01*
X28239516Y-54764389D01*
X28251067Y-54786000D01*
X28266612Y-54804941D01*
X28285554Y-54820487D01*
X28307165Y-54832038D01*
X28330614Y-54839151D01*
X28355000Y-54841553D01*
X28379386Y-54839151D01*
X28402835Y-54832038D01*
X28424446Y-54820487D01*
X28443387Y-54804942D01*
X28458933Y-54786000D01*
X28470484Y-54764389D01*
X28501709Y-54689005D01*
X28546335Y-54622218D01*
X28562010Y-54598758D01*
X28638758Y-54522010D01*
X28684188Y-54491655D01*
X28729005Y-54461709D01*
X28829279Y-54420174D01*
X28935730Y-54399000D01*
X29044270Y-54399000D01*
X29150721Y-54420174D01*
X29250995Y-54461709D01*
X29295812Y-54491655D01*
X29341242Y-54522010D01*
X29417990Y-54598758D01*
X29433665Y-54622218D01*
X29478291Y-54689005D01*
X29509516Y-54764389D01*
X29521067Y-54786000D01*
X29536612Y-54804941D01*
X29555554Y-54820487D01*
X29577165Y-54832038D01*
X29600614Y-54839151D01*
X29625000Y-54841553D01*
X29649386Y-54839151D01*
X29672835Y-54832038D01*
X29694446Y-54820487D01*
X29713387Y-54804942D01*
X29728933Y-54786000D01*
X29740484Y-54764389D01*
X29771709Y-54689005D01*
X29816335Y-54622218D01*
X29832010Y-54598758D01*
X29908758Y-54522010D01*
X29954188Y-54491655D01*
X29999005Y-54461709D01*
X30099279Y-54420174D01*
X30205730Y-54399000D01*
X30314270Y-54399000D01*
X30420721Y-54420174D01*
X30520995Y-54461709D01*
X30565812Y-54491655D01*
X30611242Y-54522010D01*
X30687990Y-54598758D01*
X30703665Y-54622218D01*
X30748291Y-54689005D01*
X30779516Y-54764389D01*
X30791067Y-54786000D01*
X30806612Y-54804941D01*
X30825554Y-54820487D01*
X30847165Y-54832038D01*
X30870614Y-54839151D01*
X30895000Y-54841553D01*
X30919386Y-54839151D01*
X30942835Y-54832038D01*
X30964446Y-54820487D01*
X30983387Y-54804942D01*
X30998933Y-54786000D01*
X31010484Y-54764389D01*
X31041709Y-54689005D01*
X31086335Y-54622218D01*
X31102010Y-54598758D01*
X31178758Y-54522010D01*
X31224188Y-54491655D01*
X31269005Y-54461709D01*
X31369279Y-54420174D01*
X31475730Y-54399000D01*
X31584270Y-54399000D01*
X31690721Y-54420174D01*
X31790995Y-54461709D01*
X31835812Y-54491655D01*
X31881242Y-54522010D01*
X31957990Y-54598758D01*
X31973665Y-54622218D01*
X32020068Y-54691664D01*
X32035614Y-54710606D01*
X32054556Y-54726151D01*
X32076167Y-54737702D01*
X32099615Y-54744815D01*
X32124002Y-54747217D01*
X32148388Y-54744815D01*
X32171837Y-54737702D01*
X32193447Y-54726151D01*
X32212389Y-54710605D01*
X32227934Y-54691663D01*
X32239485Y-54670052D01*
X32246598Y-54646604D01*
X32249000Y-54622218D01*
X32249000Y-54399000D01*
X33351000Y-54399000D01*
X33351000Y-55501000D01*
X33127782Y-55501000D01*
X33103396Y-55503402D01*
X33079947Y-55510515D01*
X33058336Y-55522066D01*
X33039394Y-55537611D01*
X33023849Y-55556553D01*
X33012298Y-55578164D01*
X33005185Y-55601613D01*
X33002783Y-55625999D01*
X33005185Y-55650385D01*
X33012298Y-55673834D01*
X33023849Y-55695445D01*
X33039394Y-55714387D01*
X33058336Y-55729932D01*
X33119816Y-55771012D01*
X33151242Y-55792010D01*
X33227990Y-55868758D01*
X33227991Y-55868760D01*
X33288291Y-55959005D01*
X33329826Y-56059279D01*
X33351000Y-56165730D01*
X33351000Y-56274270D01*
X33329826Y-56380721D01*
X33288291Y-56480995D01*
X33288290Y-56480996D01*
X33227990Y-56571242D01*
X33151242Y-56647990D01*
X33105812Y-56678345D01*
X33060995Y-56708291D01*
X32960721Y-56749826D01*
X32854270Y-56771000D01*
X32745730Y-56771000D01*
X32639279Y-56749826D01*
X32539005Y-56708291D01*
X32494188Y-56678345D01*
X32448758Y-56647990D01*
X32372010Y-56571242D01*
X32311710Y-56480996D01*
X32311709Y-56480995D01*
X32280484Y-56405611D01*
X32268933Y-56384000D01*
X32253388Y-56365059D01*
X32234446Y-56349513D01*
X32212835Y-56337962D01*
X32189386Y-56330849D01*
X32165000Y-56328447D01*
X32140614Y-56330849D01*
X32117165Y-56337962D01*
X32095554Y-56349513D01*
X32076613Y-56365058D01*
X32061067Y-56384000D01*
X32049516Y-56405611D01*
X32018291Y-56480995D01*
X32018290Y-56480996D01*
X31957990Y-56571242D01*
X31881242Y-56647990D01*
X31835812Y-56678345D01*
X31790995Y-56708291D01*
X31690721Y-56749826D01*
X31584270Y-56771000D01*
X31475730Y-56771000D01*
X31369279Y-56749826D01*
X31269005Y-56708291D01*
X31224188Y-56678345D01*
X31178758Y-56647990D01*
X31102010Y-56571242D01*
X31041710Y-56480996D01*
X31041709Y-56480995D01*
X31010484Y-56405611D01*
X30998933Y-56384000D01*
X30983388Y-56365059D01*
X30964446Y-56349513D01*
X30942835Y-56337962D01*
X30919386Y-56330849D01*
X30895000Y-56328447D01*
X30870614Y-56330849D01*
X30847165Y-56337962D01*
X30825554Y-56349513D01*
X30806613Y-56365058D01*
X30791067Y-56384000D01*
X30779516Y-56405611D01*
X30748291Y-56480995D01*
X30748290Y-56480996D01*
X30687990Y-56571242D01*
X30611242Y-56647990D01*
X30565812Y-56678345D01*
X30520995Y-56708291D01*
X30420721Y-56749826D01*
X30314270Y-56771000D01*
X30205730Y-56771000D01*
X30099279Y-56749826D01*
X29999005Y-56708291D01*
X29954188Y-56678345D01*
X29908758Y-56647990D01*
X29832010Y-56571242D01*
X29771710Y-56480996D01*
X29771709Y-56480995D01*
X29740484Y-56405611D01*
X29728933Y-56384000D01*
X29713388Y-56365059D01*
X29694446Y-56349513D01*
X29672835Y-56337962D01*
X29649386Y-56330849D01*
X29625000Y-56328447D01*
X29600614Y-56330849D01*
X29577165Y-56337962D01*
X29555554Y-56349513D01*
X29536613Y-56365058D01*
X29521067Y-56384000D01*
X29509516Y-56405611D01*
X29478291Y-56480995D01*
X29478290Y-56480996D01*
X29417990Y-56571242D01*
X29341242Y-56647990D01*
X29295812Y-56678345D01*
X29250995Y-56708291D01*
X29150721Y-56749826D01*
X29044270Y-56771000D01*
X28935730Y-56771000D01*
X28829279Y-56749826D01*
X28729005Y-56708291D01*
X28684188Y-56678345D01*
X28638758Y-56647990D01*
X28562010Y-56571242D01*
X28501710Y-56480996D01*
X28501709Y-56480995D01*
X28470484Y-56405611D01*
X28458933Y-56384000D01*
X28443388Y-56365059D01*
X28424446Y-56349513D01*
X28402835Y-56337962D01*
X28379386Y-56330849D01*
X28355000Y-56328447D01*
X28330614Y-56330849D01*
X28307165Y-56337962D01*
X28285554Y-56349513D01*
X28266613Y-56365058D01*
X28251067Y-56384000D01*
X28239516Y-56405611D01*
X28208291Y-56480995D01*
X28208290Y-56480996D01*
X28147990Y-56571242D01*
X28071242Y-56647990D01*
X28025812Y-56678345D01*
X27980995Y-56708291D01*
X27880721Y-56749826D01*
X27774270Y-56771000D01*
X27665730Y-56771000D01*
X27559279Y-56749826D01*
X27459005Y-56708291D01*
X27414188Y-56678345D01*
X27368758Y-56647990D01*
X27292010Y-56571242D01*
X27231710Y-56480996D01*
X27231709Y-56480995D01*
X27190174Y-56380721D01*
X27169000Y-56274270D01*
X27169000Y-56165730D01*
X27190174Y-56059279D01*
X27231709Y-55959005D01*
X27292009Y-55868760D01*
X27292010Y-55868758D01*
X27368758Y-55792010D01*
X27459004Y-55731710D01*
X27459005Y-55731709D01*
X27534389Y-55700484D01*
X27556000Y-55688933D01*
X27574941Y-55673388D01*
X27590487Y-55654446D01*
X27602038Y-55632835D01*
X27609151Y-55609386D01*
X27611553Y-55585000D01*
X27828447Y-55585000D01*
X27830849Y-55609386D01*
X27837962Y-55632835D01*
X27849513Y-55654446D01*
X27865058Y-55673387D01*
X27884000Y-55688933D01*
X27905611Y-55700484D01*
X27980995Y-55731709D01*
X27980996Y-55731710D01*
X28071242Y-55792010D01*
X28147990Y-55868758D01*
X28147991Y-55868760D01*
X28208291Y-55959005D01*
X28239516Y-56034389D01*
X28251067Y-56056000D01*
X28266612Y-56074941D01*
X28285554Y-56090487D01*
X28307165Y-56102038D01*
X28330614Y-56109151D01*
X28355000Y-56111553D01*
X28379386Y-56109151D01*
X28402835Y-56102038D01*
X28424446Y-56090487D01*
X28443387Y-56074942D01*
X28458933Y-56056000D01*
X28470484Y-56034389D01*
X28501709Y-55959005D01*
X28562009Y-55868760D01*
X28562010Y-55868758D01*
X28638758Y-55792010D01*
X28729004Y-55731710D01*
X28729005Y-55731709D01*
X28804389Y-55700484D01*
X28826000Y-55688933D01*
X28844941Y-55673388D01*
X28860487Y-55654446D01*
X28872038Y-55632835D01*
X28879151Y-55609386D01*
X28881553Y-55585000D01*
X29098447Y-55585000D01*
X29100849Y-55609386D01*
X29107962Y-55632835D01*
X29119513Y-55654446D01*
X29135058Y-55673387D01*
X29154000Y-55688933D01*
X29175611Y-55700484D01*
X29250995Y-55731709D01*
X29250996Y-55731710D01*
X29341242Y-55792010D01*
X29417990Y-55868758D01*
X29417991Y-55868760D01*
X29478291Y-55959005D01*
X29509516Y-56034389D01*
X29521067Y-56056000D01*
X29536612Y-56074941D01*
X29555554Y-56090487D01*
X29577165Y-56102038D01*
X29600614Y-56109151D01*
X29625000Y-56111553D01*
X29649386Y-56109151D01*
X29672835Y-56102038D01*
X29694446Y-56090487D01*
X29713387Y-56074942D01*
X29728933Y-56056000D01*
X29740484Y-56034389D01*
X29771709Y-55959005D01*
X29832009Y-55868760D01*
X29832010Y-55868758D01*
X29908758Y-55792010D01*
X29999004Y-55731710D01*
X29999005Y-55731709D01*
X30074389Y-55700484D01*
X30096000Y-55688933D01*
X30114941Y-55673388D01*
X30130487Y-55654446D01*
X30142038Y-55632835D01*
X30149151Y-55609386D01*
X30151553Y-55585000D01*
X30368447Y-55585000D01*
X30370849Y-55609386D01*
X30377962Y-55632835D01*
X30389513Y-55654446D01*
X30405058Y-55673387D01*
X30424000Y-55688933D01*
X30445611Y-55700484D01*
X30520995Y-55731709D01*
X30520996Y-55731710D01*
X30611242Y-55792010D01*
X30687990Y-55868758D01*
X30687991Y-55868760D01*
X30748291Y-55959005D01*
X30779516Y-56034389D01*
X30791067Y-56056000D01*
X30806612Y-56074941D01*
X30825554Y-56090487D01*
X30847165Y-56102038D01*
X30870614Y-56109151D01*
X30895000Y-56111553D01*
X30919386Y-56109151D01*
X30942835Y-56102038D01*
X30964446Y-56090487D01*
X30983387Y-56074942D01*
X30998933Y-56056000D01*
X31010484Y-56034389D01*
X31041709Y-55959005D01*
X31102009Y-55868760D01*
X31102010Y-55868758D01*
X31178758Y-55792010D01*
X31269004Y-55731710D01*
X31269005Y-55731709D01*
X31344389Y-55700484D01*
X31366000Y-55688933D01*
X31384941Y-55673388D01*
X31400487Y-55654446D01*
X31412038Y-55632835D01*
X31419151Y-55609386D01*
X31421553Y-55585000D01*
X31638447Y-55585000D01*
X31640849Y-55609386D01*
X31647962Y-55632835D01*
X31659513Y-55654446D01*
X31675058Y-55673387D01*
X31694000Y-55688933D01*
X31715611Y-55700484D01*
X31790995Y-55731709D01*
X31790996Y-55731710D01*
X31881242Y-55792010D01*
X31957990Y-55868758D01*
X31957991Y-55868760D01*
X32018291Y-55959005D01*
X32049516Y-56034389D01*
X32061067Y-56056000D01*
X32076612Y-56074941D01*
X32095554Y-56090487D01*
X32117165Y-56102038D01*
X32140614Y-56109151D01*
X32165000Y-56111553D01*
X32189386Y-56109151D01*
X32212835Y-56102038D01*
X32234446Y-56090487D01*
X32253387Y-56074942D01*
X32268933Y-56056000D01*
X32280484Y-56034389D01*
X32311709Y-55959005D01*
X32372009Y-55868760D01*
X32372010Y-55868758D01*
X32448758Y-55792010D01*
X32480184Y-55771012D01*
X32541664Y-55729932D01*
X32560606Y-55714386D01*
X32576151Y-55695444D01*
X32587702Y-55673833D01*
X32594815Y-55650385D01*
X32597217Y-55625998D01*
X32594815Y-55601612D01*
X32587702Y-55578163D01*
X32576151Y-55556553D01*
X32560605Y-55537611D01*
X32541663Y-55522066D01*
X32520052Y-55510515D01*
X32496604Y-55503402D01*
X32472218Y-55501000D01*
X32249000Y-55501000D01*
X32249000Y-55277782D01*
X32246598Y-55253396D01*
X32239485Y-55229947D01*
X32227934Y-55208336D01*
X32212389Y-55189394D01*
X32193447Y-55173849D01*
X32171836Y-55162298D01*
X32148387Y-55155185D01*
X32124001Y-55152783D01*
X32099615Y-55155185D01*
X32076166Y-55162298D01*
X32054555Y-55173849D01*
X32035613Y-55189394D01*
X32020068Y-55208336D01*
X31978988Y-55269816D01*
X31957990Y-55301242D01*
X31881242Y-55377990D01*
X31835812Y-55408345D01*
X31790995Y-55438291D01*
X31715611Y-55469516D01*
X31694000Y-55481067D01*
X31675059Y-55496612D01*
X31659513Y-55515554D01*
X31647962Y-55537165D01*
X31640849Y-55560614D01*
X31638447Y-55585000D01*
X31421553Y-55585000D01*
X31419151Y-55560614D01*
X31412038Y-55537165D01*
X31400487Y-55515554D01*
X31384942Y-55496613D01*
X31366000Y-55481067D01*
X31344389Y-55469516D01*
X31269005Y-55438291D01*
X31224188Y-55408345D01*
X31178758Y-55377990D01*
X31102010Y-55301242D01*
X31070041Y-55253396D01*
X31041709Y-55210995D01*
X31010484Y-55135611D01*
X30998933Y-55114000D01*
X30983388Y-55095059D01*
X30964446Y-55079513D01*
X30942835Y-55067962D01*
X30919386Y-55060849D01*
X30895000Y-55058447D01*
X30870614Y-55060849D01*
X30847165Y-55067962D01*
X30825554Y-55079513D01*
X30806613Y-55095058D01*
X30791067Y-55114000D01*
X30779516Y-55135611D01*
X30748291Y-55210995D01*
X30719959Y-55253396D01*
X30687990Y-55301242D01*
X30611242Y-55377990D01*
X30565812Y-55408345D01*
X30520995Y-55438291D01*
X30445611Y-55469516D01*
X30424000Y-55481067D01*
X30405059Y-55496612D01*
X30389513Y-55515554D01*
X30377962Y-55537165D01*
X30370849Y-55560614D01*
X30368447Y-55585000D01*
X30151553Y-55585000D01*
X30149151Y-55560614D01*
X30142038Y-55537165D01*
X30130487Y-55515554D01*
X30114942Y-55496613D01*
X30096000Y-55481067D01*
X30074389Y-55469516D01*
X29999005Y-55438291D01*
X29954188Y-55408345D01*
X29908758Y-55377990D01*
X29832010Y-55301242D01*
X29800041Y-55253396D01*
X29771709Y-55210995D01*
X29740484Y-55135611D01*
X29728933Y-55114000D01*
X29713388Y-55095059D01*
X29694446Y-55079513D01*
X29672835Y-55067962D01*
X29649386Y-55060849D01*
X29625000Y-55058447D01*
X29600614Y-55060849D01*
X29577165Y-55067962D01*
X29555554Y-55079513D01*
X29536613Y-55095058D01*
X29521067Y-55114000D01*
X29509516Y-55135611D01*
X29478291Y-55210995D01*
X29449959Y-55253396D01*
X29417990Y-55301242D01*
X29341242Y-55377990D01*
X29295812Y-55408345D01*
X29250995Y-55438291D01*
X29175611Y-55469516D01*
X29154000Y-55481067D01*
X29135059Y-55496612D01*
X29119513Y-55515554D01*
X29107962Y-55537165D01*
X29100849Y-55560614D01*
X29098447Y-55585000D01*
X28881553Y-55585000D01*
X28879151Y-55560614D01*
X28872038Y-55537165D01*
X28860487Y-55515554D01*
X28844942Y-55496613D01*
X28826000Y-55481067D01*
X28804389Y-55469516D01*
X28729005Y-55438291D01*
X28684188Y-55408345D01*
X28638758Y-55377990D01*
X28562010Y-55301242D01*
X28530041Y-55253396D01*
X28501709Y-55210995D01*
X28470484Y-55135611D01*
X28458933Y-55114000D01*
X28443388Y-55095059D01*
X28424446Y-55079513D01*
X28402835Y-55067962D01*
X28379386Y-55060849D01*
X28355000Y-55058447D01*
X28330614Y-55060849D01*
X28307165Y-55067962D01*
X28285554Y-55079513D01*
X28266613Y-55095058D01*
X28251067Y-55114000D01*
X28239516Y-55135611D01*
X28208291Y-55210995D01*
X28179959Y-55253396D01*
X28147990Y-55301242D01*
X28071242Y-55377990D01*
X28025812Y-55408345D01*
X27980995Y-55438291D01*
X27905611Y-55469516D01*
X27884000Y-55481067D01*
X27865059Y-55496612D01*
X27849513Y-55515554D01*
X27837962Y-55537165D01*
X27830849Y-55560614D01*
X27828447Y-55585000D01*
X27611553Y-55585000D01*
X27609151Y-55560614D01*
X27602038Y-55537165D01*
X27590487Y-55515554D01*
X27574942Y-55496613D01*
X27556000Y-55481067D01*
X27534389Y-55469516D01*
X27459005Y-55438291D01*
X27414188Y-55408345D01*
X27368758Y-55377990D01*
X27292010Y-55301242D01*
X27260041Y-55253396D01*
X27231709Y-55210995D01*
X27190174Y-55110721D01*
X27169000Y-55004270D01*
X27169000Y-54895730D01*
X27190174Y-54789279D01*
X27231709Y-54689005D01*
X27276335Y-54622218D01*
X27292010Y-54598758D01*
X27368758Y-54522010D01*
X27414188Y-54491655D01*
X27459005Y-54461709D01*
X27559279Y-54420174D01*
X27665730Y-54399000D01*
X27774270Y-54399000D01*
X27880721Y-54420174D01*
G37*
G36*
X23126355Y-53352140D02*
G01*
X23190118Y-53358420D01*
X23280904Y-53385960D01*
X23312836Y-53395646D01*
X23425925Y-53456094D01*
X23525054Y-53537446D01*
X23606406Y-53636575D01*
X23666854Y-53749664D01*
X23666855Y-53749668D01*
X23704080Y-53872382D01*
X23716649Y-54000000D01*
X23704080Y-54127618D01*
X23676540Y-54218404D01*
X23666854Y-54250336D01*
X23606406Y-54363425D01*
X23525054Y-54462554D01*
X23425925Y-54543906D01*
X23312836Y-54604354D01*
X23280904Y-54614040D01*
X23190118Y-54641580D01*
X23139107Y-54646604D01*
X23094474Y-54651000D01*
X22330526Y-54651000D01*
X22285893Y-54646604D01*
X22234882Y-54641580D01*
X22144096Y-54614040D01*
X22112164Y-54604354D01*
X21999075Y-54543906D01*
X21899946Y-54462554D01*
X21818594Y-54363425D01*
X21758146Y-54250336D01*
X21748460Y-54218404D01*
X21720920Y-54127618D01*
X21708351Y-54000000D01*
X21720920Y-53872382D01*
X21758145Y-53749668D01*
X21758146Y-53749664D01*
X21818594Y-53636575D01*
X21899946Y-53537446D01*
X21999075Y-53456094D01*
X22112164Y-53395646D01*
X22144096Y-53385960D01*
X22234882Y-53358420D01*
X22298645Y-53352140D01*
X22330526Y-53349000D01*
X23094474Y-53349000D01*
X23126355Y-53352140D01*
G37*
G36*
X59751000Y-54051000D02*
G01*
X55449000Y-54051000D01*
X55449000Y-52599000D01*
X59751000Y-52599000D01*
X59751000Y-54051000D01*
G37*
G36*
X25638848Y-52253820D02*
G01*
X25638850Y-52253821D01*
X25638851Y-52253821D01*
X25780074Y-52312317D01*
X25780077Y-52312319D01*
X25907169Y-52397239D01*
X26015261Y-52505331D01*
X26100181Y-52632423D01*
X26100183Y-52632426D01*
X26158679Y-52773649D01*
X26188500Y-52923571D01*
X26188500Y-53076429D01*
X26158679Y-53226351D01*
X26100183Y-53367574D01*
X26100181Y-53367577D01*
X26015261Y-53494669D01*
X25907169Y-53602761D01*
X25780077Y-53687681D01*
X25780074Y-53687683D01*
X25638851Y-53746179D01*
X25638850Y-53746179D01*
X25638848Y-53746180D01*
X25488931Y-53776000D01*
X25336069Y-53776000D01*
X25186152Y-53746180D01*
X25186150Y-53746179D01*
X25186149Y-53746179D01*
X25044926Y-53687683D01*
X25044923Y-53687681D01*
X24917831Y-53602761D01*
X24809739Y-53494669D01*
X24724819Y-53367577D01*
X24724817Y-53367574D01*
X24666321Y-53226351D01*
X24636500Y-53076429D01*
X24636500Y-52923571D01*
X24666321Y-52773649D01*
X24724817Y-52632426D01*
X24724819Y-52632423D01*
X24809739Y-52505331D01*
X24917831Y-52397239D01*
X25044923Y-52312319D01*
X25044926Y-52312317D01*
X25186149Y-52253821D01*
X25186150Y-52253821D01*
X25186152Y-52253820D01*
X25336069Y-52224000D01*
X25488931Y-52224000D01*
X25638848Y-52253820D01*
G37*
G36*
X25638848Y-47253820D02*
G01*
X25638850Y-47253821D01*
X25638851Y-47253821D01*
X25780074Y-47312317D01*
X25780077Y-47312319D01*
X25907169Y-47397239D01*
X26015261Y-47505331D01*
X26100181Y-47632423D01*
X26100183Y-47632426D01*
X26158679Y-47773649D01*
X26188500Y-47923571D01*
X26188500Y-48076429D01*
X26158679Y-48226351D01*
X26100183Y-48367574D01*
X26100181Y-48367577D01*
X26015261Y-48494669D01*
X25907169Y-48602761D01*
X25780077Y-48687681D01*
X25780074Y-48687683D01*
X25638851Y-48746179D01*
X25638850Y-48746179D01*
X25638848Y-48746180D01*
X25488931Y-48776000D01*
X25336069Y-48776000D01*
X25186152Y-48746180D01*
X25186150Y-48746179D01*
X25186149Y-48746179D01*
X25044926Y-48687683D01*
X25044923Y-48687681D01*
X24917831Y-48602761D01*
X24809739Y-48494669D01*
X24724819Y-48367577D01*
X24724817Y-48367574D01*
X24666321Y-48226351D01*
X24636500Y-48076429D01*
X24636500Y-47923571D01*
X24666321Y-47773649D01*
X24724817Y-47632426D01*
X24724819Y-47632423D01*
X24809739Y-47505331D01*
X24917831Y-47397239D01*
X25044923Y-47312319D01*
X25044926Y-47312317D01*
X25186149Y-47253821D01*
X25186150Y-47253821D01*
X25186152Y-47253820D01*
X25336069Y-47224000D01*
X25488931Y-47224000D01*
X25638848Y-47253820D01*
G37*
G36*
X59751000Y-48401000D02*
G01*
X55449000Y-48401000D01*
X55449000Y-46949000D01*
X59751000Y-46949000D01*
X59751000Y-48401000D01*
G37*
G36*
X23126355Y-46352140D02*
G01*
X23190118Y-46358420D01*
X23280904Y-46385960D01*
X23312836Y-46395646D01*
X23425925Y-46456094D01*
X23525054Y-46537446D01*
X23606406Y-46636575D01*
X23666854Y-46749664D01*
X23666855Y-46749668D01*
X23704080Y-46872382D01*
X23716649Y-47000000D01*
X23704080Y-47127618D01*
X23676540Y-47218404D01*
X23666854Y-47250336D01*
X23606406Y-47363425D01*
X23525054Y-47462554D01*
X23425925Y-47543906D01*
X23312836Y-47604354D01*
X23280904Y-47614040D01*
X23190118Y-47641580D01*
X23126355Y-47647860D01*
X23094474Y-47651000D01*
X22330526Y-47651000D01*
X22298645Y-47647860D01*
X22234882Y-47641580D01*
X22144096Y-47614040D01*
X22112164Y-47604354D01*
X21999075Y-47543906D01*
X21899946Y-47462554D01*
X21818594Y-47363425D01*
X21758146Y-47250336D01*
X21748460Y-47218404D01*
X21720920Y-47127618D01*
X21708351Y-47000000D01*
X21720920Y-46872382D01*
X21758145Y-46749668D01*
X21758146Y-46749664D01*
X21818594Y-46636575D01*
X21899946Y-46537446D01*
X21999075Y-46456094D01*
X22112164Y-46395646D01*
X22144096Y-46385960D01*
X22234882Y-46358420D01*
X22298645Y-46352140D01*
X22330526Y-46349000D01*
X23094474Y-46349000D01*
X23126355Y-46352140D01*
G37*
G36*
X27880721Y-38420174D02*
G01*
X27980995Y-38461709D01*
X28025812Y-38491655D01*
X28071242Y-38522010D01*
X28147990Y-38598758D01*
X28163665Y-38622218D01*
X28208291Y-38689005D01*
X28239516Y-38764389D01*
X28251067Y-38786000D01*
X28266612Y-38804941D01*
X28285554Y-38820487D01*
X28307165Y-38832038D01*
X28330614Y-38839151D01*
X28355000Y-38841553D01*
X28379386Y-38839151D01*
X28402835Y-38832038D01*
X28424446Y-38820487D01*
X28443387Y-38804942D01*
X28458933Y-38786000D01*
X28470484Y-38764389D01*
X28501709Y-38689005D01*
X28546335Y-38622218D01*
X28562010Y-38598758D01*
X28638758Y-38522010D01*
X28684188Y-38491655D01*
X28729005Y-38461709D01*
X28829279Y-38420174D01*
X28935730Y-38399000D01*
X29044270Y-38399000D01*
X29150721Y-38420174D01*
X29250995Y-38461709D01*
X29295812Y-38491655D01*
X29341242Y-38522010D01*
X29417990Y-38598758D01*
X29433665Y-38622218D01*
X29478291Y-38689005D01*
X29509516Y-38764389D01*
X29521067Y-38786000D01*
X29536612Y-38804941D01*
X29555554Y-38820487D01*
X29577165Y-38832038D01*
X29600614Y-38839151D01*
X29625000Y-38841553D01*
X29649386Y-38839151D01*
X29672835Y-38832038D01*
X29694446Y-38820487D01*
X29713387Y-38804942D01*
X29728933Y-38786000D01*
X29740484Y-38764389D01*
X29771709Y-38689005D01*
X29816335Y-38622218D01*
X29832010Y-38598758D01*
X29908758Y-38522010D01*
X29954188Y-38491655D01*
X29999005Y-38461709D01*
X30099279Y-38420174D01*
X30205730Y-38399000D01*
X30314270Y-38399000D01*
X30420721Y-38420174D01*
X30520995Y-38461709D01*
X30565812Y-38491655D01*
X30611242Y-38522010D01*
X30687990Y-38598758D01*
X30703665Y-38622218D01*
X30748291Y-38689005D01*
X30779516Y-38764389D01*
X30791067Y-38786000D01*
X30806612Y-38804941D01*
X30825554Y-38820487D01*
X30847165Y-38832038D01*
X30870614Y-38839151D01*
X30895000Y-38841553D01*
X30919386Y-38839151D01*
X30942835Y-38832038D01*
X30964446Y-38820487D01*
X30983387Y-38804942D01*
X30998933Y-38786000D01*
X31010484Y-38764389D01*
X31041709Y-38689005D01*
X31086335Y-38622218D01*
X31102010Y-38598758D01*
X31178758Y-38522010D01*
X31224188Y-38491655D01*
X31269005Y-38461709D01*
X31369279Y-38420174D01*
X31475730Y-38399000D01*
X31584270Y-38399000D01*
X31690721Y-38420174D01*
X31790995Y-38461709D01*
X31835812Y-38491655D01*
X31881242Y-38522010D01*
X31957990Y-38598758D01*
X31973665Y-38622218D01*
X32020068Y-38691664D01*
X32035614Y-38710606D01*
X32054556Y-38726151D01*
X32076167Y-38737702D01*
X32099615Y-38744815D01*
X32124002Y-38747217D01*
X32148388Y-38744815D01*
X32171837Y-38737702D01*
X32193447Y-38726151D01*
X32212389Y-38710605D01*
X32227934Y-38691663D01*
X32239485Y-38670052D01*
X32246598Y-38646604D01*
X32249000Y-38622218D01*
X32249000Y-38399000D01*
X33351000Y-38399000D01*
X33351000Y-39501000D01*
X33127782Y-39501000D01*
X33103396Y-39503402D01*
X33079947Y-39510515D01*
X33058336Y-39522066D01*
X33039394Y-39537611D01*
X33023849Y-39556553D01*
X33012298Y-39578164D01*
X33005185Y-39601613D01*
X33002783Y-39625999D01*
X33005185Y-39650385D01*
X33012298Y-39673834D01*
X33023849Y-39695445D01*
X33039394Y-39714387D01*
X33058336Y-39729932D01*
X33119816Y-39771012D01*
X33151242Y-39792010D01*
X33227990Y-39868758D01*
X33227991Y-39868760D01*
X33288291Y-39959005D01*
X33329826Y-40059279D01*
X33351000Y-40165730D01*
X33351000Y-40274270D01*
X33329826Y-40380721D01*
X33288291Y-40480995D01*
X33288290Y-40480996D01*
X33227990Y-40571242D01*
X33151242Y-40647990D01*
X33105812Y-40678345D01*
X33060995Y-40708291D01*
X32960721Y-40749826D01*
X32854270Y-40771000D01*
X32745730Y-40771000D01*
X32639279Y-40749826D01*
X32539005Y-40708291D01*
X32494188Y-40678345D01*
X32448758Y-40647990D01*
X32372010Y-40571242D01*
X32311710Y-40480996D01*
X32311709Y-40480995D01*
X32280484Y-40405611D01*
X32268933Y-40384000D01*
X32253388Y-40365059D01*
X32234446Y-40349513D01*
X32212835Y-40337962D01*
X32189386Y-40330849D01*
X32165000Y-40328447D01*
X32140614Y-40330849D01*
X32117165Y-40337962D01*
X32095554Y-40349513D01*
X32076613Y-40365058D01*
X32061067Y-40384000D01*
X32049516Y-40405611D01*
X32018291Y-40480995D01*
X32018290Y-40480996D01*
X31957990Y-40571242D01*
X31881242Y-40647990D01*
X31835812Y-40678345D01*
X31790995Y-40708291D01*
X31690721Y-40749826D01*
X31584270Y-40771000D01*
X31475730Y-40771000D01*
X31369279Y-40749826D01*
X31269005Y-40708291D01*
X31224188Y-40678345D01*
X31178758Y-40647990D01*
X31102010Y-40571242D01*
X31041710Y-40480996D01*
X31041709Y-40480995D01*
X31010484Y-40405611D01*
X30998933Y-40384000D01*
X30983388Y-40365059D01*
X30964446Y-40349513D01*
X30942835Y-40337962D01*
X30919386Y-40330849D01*
X30895000Y-40328447D01*
X30870614Y-40330849D01*
X30847165Y-40337962D01*
X30825554Y-40349513D01*
X30806613Y-40365058D01*
X30791067Y-40384000D01*
X30779516Y-40405611D01*
X30748291Y-40480995D01*
X30748290Y-40480996D01*
X30687990Y-40571242D01*
X30611242Y-40647990D01*
X30565812Y-40678345D01*
X30520995Y-40708291D01*
X30420721Y-40749826D01*
X30314270Y-40771000D01*
X30205730Y-40771000D01*
X30099279Y-40749826D01*
X29999005Y-40708291D01*
X29954188Y-40678345D01*
X29908758Y-40647990D01*
X29832010Y-40571242D01*
X29771710Y-40480996D01*
X29771709Y-40480995D01*
X29740484Y-40405611D01*
X29728933Y-40384000D01*
X29713388Y-40365059D01*
X29694446Y-40349513D01*
X29672835Y-40337962D01*
X29649386Y-40330849D01*
X29625000Y-40328447D01*
X29600614Y-40330849D01*
X29577165Y-40337962D01*
X29555554Y-40349513D01*
X29536613Y-40365058D01*
X29521067Y-40384000D01*
X29509516Y-40405611D01*
X29478291Y-40480995D01*
X29478290Y-40480996D01*
X29417990Y-40571242D01*
X29341242Y-40647990D01*
X29295812Y-40678345D01*
X29250995Y-40708291D01*
X29150721Y-40749826D01*
X29044270Y-40771000D01*
X28935730Y-40771000D01*
X28829279Y-40749826D01*
X28729005Y-40708291D01*
X28684188Y-40678345D01*
X28638758Y-40647990D01*
X28562010Y-40571242D01*
X28501710Y-40480996D01*
X28501709Y-40480995D01*
X28470484Y-40405611D01*
X28458933Y-40384000D01*
X28443388Y-40365059D01*
X28424446Y-40349513D01*
X28402835Y-40337962D01*
X28379386Y-40330849D01*
X28355000Y-40328447D01*
X28330614Y-40330849D01*
X28307165Y-40337962D01*
X28285554Y-40349513D01*
X28266613Y-40365058D01*
X28251067Y-40384000D01*
X28239516Y-40405611D01*
X28208291Y-40480995D01*
X28208290Y-40480996D01*
X28147990Y-40571242D01*
X28071242Y-40647990D01*
X28025812Y-40678345D01*
X27980995Y-40708291D01*
X27880721Y-40749826D01*
X27774270Y-40771000D01*
X27665730Y-40771000D01*
X27559279Y-40749826D01*
X27459005Y-40708291D01*
X27414188Y-40678345D01*
X27368758Y-40647990D01*
X27292010Y-40571242D01*
X27231710Y-40480996D01*
X27231709Y-40480995D01*
X27190174Y-40380721D01*
X27169000Y-40274270D01*
X27169000Y-40165730D01*
X27190174Y-40059279D01*
X27231709Y-39959005D01*
X27292009Y-39868760D01*
X27292010Y-39868758D01*
X27368758Y-39792010D01*
X27459004Y-39731710D01*
X27459005Y-39731709D01*
X27534389Y-39700484D01*
X27556000Y-39688933D01*
X27574941Y-39673388D01*
X27590487Y-39654446D01*
X27602038Y-39632835D01*
X27609151Y-39609386D01*
X27611553Y-39585000D01*
X27828447Y-39585000D01*
X27830849Y-39609386D01*
X27837962Y-39632835D01*
X27849513Y-39654446D01*
X27865058Y-39673387D01*
X27884000Y-39688933D01*
X27905611Y-39700484D01*
X27980995Y-39731709D01*
X27980996Y-39731710D01*
X28071242Y-39792010D01*
X28147990Y-39868758D01*
X28147991Y-39868760D01*
X28208291Y-39959005D01*
X28239516Y-40034389D01*
X28251067Y-40056000D01*
X28266612Y-40074941D01*
X28285554Y-40090487D01*
X28307165Y-40102038D01*
X28330614Y-40109151D01*
X28355000Y-40111553D01*
X28379386Y-40109151D01*
X28402835Y-40102038D01*
X28424446Y-40090487D01*
X28443387Y-40074942D01*
X28458933Y-40056000D01*
X28470484Y-40034389D01*
X28501709Y-39959005D01*
X28562009Y-39868760D01*
X28562010Y-39868758D01*
X28638758Y-39792010D01*
X28729004Y-39731710D01*
X28729005Y-39731709D01*
X28804389Y-39700484D01*
X28826000Y-39688933D01*
X28844941Y-39673388D01*
X28860487Y-39654446D01*
X28872038Y-39632835D01*
X28879151Y-39609386D01*
X28881553Y-39585000D01*
X29098447Y-39585000D01*
X29100849Y-39609386D01*
X29107962Y-39632835D01*
X29119513Y-39654446D01*
X29135058Y-39673387D01*
X29154000Y-39688933D01*
X29175611Y-39700484D01*
X29250995Y-39731709D01*
X29250996Y-39731710D01*
X29341242Y-39792010D01*
X29417990Y-39868758D01*
X29417991Y-39868760D01*
X29478291Y-39959005D01*
X29509516Y-40034389D01*
X29521067Y-40056000D01*
X29536612Y-40074941D01*
X29555554Y-40090487D01*
X29577165Y-40102038D01*
X29600614Y-40109151D01*
X29625000Y-40111553D01*
X29649386Y-40109151D01*
X29672835Y-40102038D01*
X29694446Y-40090487D01*
X29713387Y-40074942D01*
X29728933Y-40056000D01*
X29740484Y-40034389D01*
X29771709Y-39959005D01*
X29832009Y-39868760D01*
X29832010Y-39868758D01*
X29908758Y-39792010D01*
X29999004Y-39731710D01*
X29999005Y-39731709D01*
X30074389Y-39700484D01*
X30096000Y-39688933D01*
X30114941Y-39673388D01*
X30130487Y-39654446D01*
X30142038Y-39632835D01*
X30149151Y-39609386D01*
X30151553Y-39585000D01*
X30368447Y-39585000D01*
X30370849Y-39609386D01*
X30377962Y-39632835D01*
X30389513Y-39654446D01*
X30405058Y-39673387D01*
X30424000Y-39688933D01*
X30445611Y-39700484D01*
X30520995Y-39731709D01*
X30520996Y-39731710D01*
X30611242Y-39792010D01*
X30687990Y-39868758D01*
X30687991Y-39868760D01*
X30748291Y-39959005D01*
X30779516Y-40034389D01*
X30791067Y-40056000D01*
X30806612Y-40074941D01*
X30825554Y-40090487D01*
X30847165Y-40102038D01*
X30870614Y-40109151D01*
X30895000Y-40111553D01*
X30919386Y-40109151D01*
X30942835Y-40102038D01*
X30964446Y-40090487D01*
X30983387Y-40074942D01*
X30998933Y-40056000D01*
X31010484Y-40034389D01*
X31041709Y-39959005D01*
X31102009Y-39868760D01*
X31102010Y-39868758D01*
X31178758Y-39792010D01*
X31269004Y-39731710D01*
X31269005Y-39731709D01*
X31344389Y-39700484D01*
X31366000Y-39688933D01*
X31384941Y-39673388D01*
X31400487Y-39654446D01*
X31412038Y-39632835D01*
X31419151Y-39609386D01*
X31421553Y-39585000D01*
X31638447Y-39585000D01*
X31640849Y-39609386D01*
X31647962Y-39632835D01*
X31659513Y-39654446D01*
X31675058Y-39673387D01*
X31694000Y-39688933D01*
X31715611Y-39700484D01*
X31790995Y-39731709D01*
X31790996Y-39731710D01*
X31881242Y-39792010D01*
X31957990Y-39868758D01*
X31957991Y-39868760D01*
X32018291Y-39959005D01*
X32049516Y-40034389D01*
X32061067Y-40056000D01*
X32076612Y-40074941D01*
X32095554Y-40090487D01*
X32117165Y-40102038D01*
X32140614Y-40109151D01*
X32165000Y-40111553D01*
X32189386Y-40109151D01*
X32212835Y-40102038D01*
X32234446Y-40090487D01*
X32253387Y-40074942D01*
X32268933Y-40056000D01*
X32280484Y-40034389D01*
X32311709Y-39959005D01*
X32372009Y-39868760D01*
X32372010Y-39868758D01*
X32448758Y-39792010D01*
X32480184Y-39771012D01*
X32541664Y-39729932D01*
X32560606Y-39714386D01*
X32576151Y-39695444D01*
X32587702Y-39673833D01*
X32594815Y-39650385D01*
X32597217Y-39625998D01*
X32594815Y-39601612D01*
X32587702Y-39578163D01*
X32576151Y-39556553D01*
X32560605Y-39537611D01*
X32541663Y-39522066D01*
X32520052Y-39510515D01*
X32496604Y-39503402D01*
X32472218Y-39501000D01*
X32249000Y-39501000D01*
X32249000Y-39277782D01*
X32246598Y-39253396D01*
X32239485Y-39229947D01*
X32227934Y-39208336D01*
X32212389Y-39189394D01*
X32193447Y-39173849D01*
X32171836Y-39162298D01*
X32148387Y-39155185D01*
X32124001Y-39152783D01*
X32099615Y-39155185D01*
X32076166Y-39162298D01*
X32054555Y-39173849D01*
X32035613Y-39189394D01*
X32020068Y-39208336D01*
X31978988Y-39269816D01*
X31957990Y-39301242D01*
X31881242Y-39377990D01*
X31835812Y-39408345D01*
X31790995Y-39438291D01*
X31715611Y-39469516D01*
X31694000Y-39481067D01*
X31675059Y-39496612D01*
X31659513Y-39515554D01*
X31647962Y-39537165D01*
X31640849Y-39560614D01*
X31638447Y-39585000D01*
X31421553Y-39585000D01*
X31419151Y-39560614D01*
X31412038Y-39537165D01*
X31400487Y-39515554D01*
X31384942Y-39496613D01*
X31366000Y-39481067D01*
X31344389Y-39469516D01*
X31269005Y-39438291D01*
X31224188Y-39408345D01*
X31178758Y-39377990D01*
X31102010Y-39301242D01*
X31070041Y-39253396D01*
X31041709Y-39210995D01*
X31010484Y-39135611D01*
X30998933Y-39114000D01*
X30983388Y-39095059D01*
X30964446Y-39079513D01*
X30942835Y-39067962D01*
X30919386Y-39060849D01*
X30895000Y-39058447D01*
X30870614Y-39060849D01*
X30847165Y-39067962D01*
X30825554Y-39079513D01*
X30806613Y-39095058D01*
X30791067Y-39114000D01*
X30779516Y-39135611D01*
X30748291Y-39210995D01*
X30719959Y-39253396D01*
X30687990Y-39301242D01*
X30611242Y-39377990D01*
X30565812Y-39408345D01*
X30520995Y-39438291D01*
X30445611Y-39469516D01*
X30424000Y-39481067D01*
X30405059Y-39496612D01*
X30389513Y-39515554D01*
X30377962Y-39537165D01*
X30370849Y-39560614D01*
X30368447Y-39585000D01*
X30151553Y-39585000D01*
X30149151Y-39560614D01*
X30142038Y-39537165D01*
X30130487Y-39515554D01*
X30114942Y-39496613D01*
X30096000Y-39481067D01*
X30074389Y-39469516D01*
X29999005Y-39438291D01*
X29954188Y-39408345D01*
X29908758Y-39377990D01*
X29832010Y-39301242D01*
X29800041Y-39253396D01*
X29771709Y-39210995D01*
X29740484Y-39135611D01*
X29728933Y-39114000D01*
X29713388Y-39095059D01*
X29694446Y-39079513D01*
X29672835Y-39067962D01*
X29649386Y-39060849D01*
X29625000Y-39058447D01*
X29600614Y-39060849D01*
X29577165Y-39067962D01*
X29555554Y-39079513D01*
X29536613Y-39095058D01*
X29521067Y-39114000D01*
X29509516Y-39135611D01*
X29478291Y-39210995D01*
X29449959Y-39253396D01*
X29417990Y-39301242D01*
X29341242Y-39377990D01*
X29295812Y-39408345D01*
X29250995Y-39438291D01*
X29175611Y-39469516D01*
X29154000Y-39481067D01*
X29135059Y-39496612D01*
X29119513Y-39515554D01*
X29107962Y-39537165D01*
X29100849Y-39560614D01*
X29098447Y-39585000D01*
X28881553Y-39585000D01*
X28879151Y-39560614D01*
X28872038Y-39537165D01*
X28860487Y-39515554D01*
X28844942Y-39496613D01*
X28826000Y-39481067D01*
X28804389Y-39469516D01*
X28729005Y-39438291D01*
X28684188Y-39408345D01*
X28638758Y-39377990D01*
X28562010Y-39301242D01*
X28530041Y-39253396D01*
X28501709Y-39210995D01*
X28470484Y-39135611D01*
X28458933Y-39114000D01*
X28443388Y-39095059D01*
X28424446Y-39079513D01*
X28402835Y-39067962D01*
X28379386Y-39060849D01*
X28355000Y-39058447D01*
X28330614Y-39060849D01*
X28307165Y-39067962D01*
X28285554Y-39079513D01*
X28266613Y-39095058D01*
X28251067Y-39114000D01*
X28239516Y-39135611D01*
X28208291Y-39210995D01*
X28179959Y-39253396D01*
X28147990Y-39301242D01*
X28071242Y-39377990D01*
X28025812Y-39408345D01*
X27980995Y-39438291D01*
X27905611Y-39469516D01*
X27884000Y-39481067D01*
X27865059Y-39496612D01*
X27849513Y-39515554D01*
X27837962Y-39537165D01*
X27830849Y-39560614D01*
X27828447Y-39585000D01*
X27611553Y-39585000D01*
X27609151Y-39560614D01*
X27602038Y-39537165D01*
X27590487Y-39515554D01*
X27574942Y-39496613D01*
X27556000Y-39481067D01*
X27534389Y-39469516D01*
X27459005Y-39438291D01*
X27414188Y-39408345D01*
X27368758Y-39377990D01*
X27292010Y-39301242D01*
X27260041Y-39253396D01*
X27231709Y-39210995D01*
X27190174Y-39110721D01*
X27169000Y-39004270D01*
X27169000Y-38895730D01*
X27190174Y-38789279D01*
X27231709Y-38689005D01*
X27276335Y-38622218D01*
X27292010Y-38598758D01*
X27368758Y-38522010D01*
X27414188Y-38491655D01*
X27459005Y-38461709D01*
X27559279Y-38420174D01*
X27665730Y-38399000D01*
X27774270Y-38399000D01*
X27880721Y-38420174D01*
G37*
G36*
X23126355Y-37352140D02*
G01*
X23190118Y-37358420D01*
X23280904Y-37385960D01*
X23312836Y-37395646D01*
X23425925Y-37456094D01*
X23525054Y-37537446D01*
X23606406Y-37636575D01*
X23666854Y-37749664D01*
X23666855Y-37749668D01*
X23704080Y-37872382D01*
X23716649Y-38000000D01*
X23704080Y-38127618D01*
X23676540Y-38218404D01*
X23666854Y-38250336D01*
X23606406Y-38363425D01*
X23525054Y-38462554D01*
X23425925Y-38543906D01*
X23312836Y-38604354D01*
X23280904Y-38614040D01*
X23190118Y-38641580D01*
X23139107Y-38646604D01*
X23094474Y-38651000D01*
X22330526Y-38651000D01*
X22285893Y-38646604D01*
X22234882Y-38641580D01*
X22144096Y-38614040D01*
X22112164Y-38604354D01*
X21999075Y-38543906D01*
X21899946Y-38462554D01*
X21818594Y-38363425D01*
X21758146Y-38250336D01*
X21748460Y-38218404D01*
X21720920Y-38127618D01*
X21708351Y-38000000D01*
X21720920Y-37872382D01*
X21758145Y-37749668D01*
X21758146Y-37749664D01*
X21818594Y-37636575D01*
X21899946Y-37537446D01*
X21999075Y-37456094D01*
X22112164Y-37395646D01*
X22144096Y-37385960D01*
X22234882Y-37358420D01*
X22298645Y-37352140D01*
X22330526Y-37349000D01*
X23094474Y-37349000D01*
X23126355Y-37352140D01*
G37*
G36*
X59751000Y-38051000D02*
G01*
X55449000Y-38051000D01*
X55449000Y-36599000D01*
X59751000Y-36599000D01*
X59751000Y-38051000D01*
G37*
G36*
X25638848Y-36253820D02*
G01*
X25638850Y-36253821D01*
X25638851Y-36253821D01*
X25780074Y-36312317D01*
X25780077Y-36312319D01*
X25907169Y-36397239D01*
X26015261Y-36505331D01*
X26100181Y-36632423D01*
X26100183Y-36632426D01*
X26158679Y-36773649D01*
X26188500Y-36923571D01*
X26188500Y-37076429D01*
X26158679Y-37226351D01*
X26100183Y-37367574D01*
X26100181Y-37367577D01*
X26015261Y-37494669D01*
X25907169Y-37602761D01*
X25780077Y-37687681D01*
X25780074Y-37687683D01*
X25638851Y-37746179D01*
X25638850Y-37746179D01*
X25638848Y-37746180D01*
X25488931Y-37776000D01*
X25336069Y-37776000D01*
X25186152Y-37746180D01*
X25186150Y-37746179D01*
X25186149Y-37746179D01*
X25044926Y-37687683D01*
X25044923Y-37687681D01*
X24917831Y-37602761D01*
X24809739Y-37494669D01*
X24724819Y-37367577D01*
X24724817Y-37367574D01*
X24666321Y-37226351D01*
X24636500Y-37076429D01*
X24636500Y-36923571D01*
X24666321Y-36773649D01*
X24724817Y-36632426D01*
X24724819Y-36632423D01*
X24809739Y-36505331D01*
X24917831Y-36397239D01*
X25044923Y-36312319D01*
X25044926Y-36312317D01*
X25186149Y-36253821D01*
X25186150Y-36253821D01*
X25186152Y-36253820D01*
X25336069Y-36224000D01*
X25488931Y-36224000D01*
X25638848Y-36253820D01*
G37*
G36*
X25638848Y-31253820D02*
G01*
X25638850Y-31253821D01*
X25638851Y-31253821D01*
X25780074Y-31312317D01*
X25780077Y-31312319D01*
X25907169Y-31397239D01*
X26015261Y-31505331D01*
X26100181Y-31632423D01*
X26100183Y-31632426D01*
X26158679Y-31773649D01*
X26188500Y-31923571D01*
X26188500Y-32076429D01*
X26158679Y-32226351D01*
X26100183Y-32367574D01*
X26100181Y-32367577D01*
X26015261Y-32494669D01*
X25907169Y-32602761D01*
X25780077Y-32687681D01*
X25780074Y-32687683D01*
X25638851Y-32746179D01*
X25638850Y-32746179D01*
X25638848Y-32746180D01*
X25488931Y-32776000D01*
X25336069Y-32776000D01*
X25186152Y-32746180D01*
X25186150Y-32746179D01*
X25186149Y-32746179D01*
X25044926Y-32687683D01*
X25044923Y-32687681D01*
X24917831Y-32602761D01*
X24809739Y-32494669D01*
X24724819Y-32367577D01*
X24724817Y-32367574D01*
X24666321Y-32226351D01*
X24636500Y-32076429D01*
X24636500Y-31923571D01*
X24666321Y-31773649D01*
X24724817Y-31632426D01*
X24724819Y-31632423D01*
X24809739Y-31505331D01*
X24917831Y-31397239D01*
X25044923Y-31312319D01*
X25044926Y-31312317D01*
X25186149Y-31253821D01*
X25186150Y-31253821D01*
X25186152Y-31253820D01*
X25336069Y-31224000D01*
X25488931Y-31224000D01*
X25638848Y-31253820D01*
G37*
G36*
X59751000Y-32401000D02*
G01*
X55449000Y-32401000D01*
X55449000Y-30949000D01*
X59751000Y-30949000D01*
X59751000Y-32401000D01*
G37*
G36*
X23126355Y-30352140D02*
G01*
X23190118Y-30358420D01*
X23280904Y-30385960D01*
X23312836Y-30395646D01*
X23425925Y-30456094D01*
X23525054Y-30537446D01*
X23606406Y-30636575D01*
X23666854Y-30749664D01*
X23666855Y-30749668D01*
X23704080Y-30872382D01*
X23716649Y-31000000D01*
X23704080Y-31127618D01*
X23676540Y-31218404D01*
X23666854Y-31250336D01*
X23606406Y-31363425D01*
X23525054Y-31462554D01*
X23425925Y-31543906D01*
X23312836Y-31604354D01*
X23280904Y-31614040D01*
X23190118Y-31641580D01*
X23126355Y-31647860D01*
X23094474Y-31651000D01*
X22330526Y-31651000D01*
X22298645Y-31647860D01*
X22234882Y-31641580D01*
X22144096Y-31614040D01*
X22112164Y-31604354D01*
X21999075Y-31543906D01*
X21899946Y-31462554D01*
X21818594Y-31363425D01*
X21758146Y-31250336D01*
X21748460Y-31218404D01*
X21720920Y-31127618D01*
X21708351Y-31000000D01*
X21720920Y-30872382D01*
X21758145Y-30749668D01*
X21758146Y-30749664D01*
X21818594Y-30636575D01*
X21899946Y-30537446D01*
X21999075Y-30456094D01*
X22112164Y-30395646D01*
X22144096Y-30385960D01*
X22234882Y-30358420D01*
X22298645Y-30352140D01*
X22330526Y-30349000D01*
X23094474Y-30349000D01*
X23126355Y-30352140D01*
G37*
M02*
