G04 #@! TF.GenerationSoftware,KiCad,Pcbnew,(5.1.5)-3*
G04 #@! TF.CreationDate,2020-05-21T23:45:32+02:00*
G04 #@! TF.ProjectId,STRF_Panel,53545246-5f50-4616-9e65-6c2e6b696361,rev?*
G04 #@! TF.SameCoordinates,Original*
G04 #@! TF.FileFunction,Copper,L4,Bot*
G04 #@! TF.FilePolarity,Positive*
%FSLAX46Y46*%
G04 Gerber Fmt 4.6, Leading zero omitted, Abs format (unit mm)*
G04 Created by KiCad (PCBNEW (5.1.5)-3) date 2020-05-21 23:45:32*
%MOMM*%
%LPD*%
G04 APERTURE LIST*
%ADD10R,1.000000X1.000000*%
%ADD11O,1.000000X1.000000*%
%ADD12O,1.950000X1.600000*%
%ADD13R,4.200000X1.350000*%
%ADD14C,0.800000*%
%ADD15C,0.700000*%
%ADD16C,0.293370*%
%ADD17C,0.500000*%
%ADD18C,0.250000*%
%ADD19C,0.254000*%
G04 APERTURE END LIST*
D10*
X33870000Y-54930000D03*
D11*
X33870000Y-56200000D03*
X32600000Y-54930000D03*
X32600000Y-56200000D03*
X31330000Y-54930000D03*
X31330000Y-56200000D03*
X30060000Y-54930000D03*
X30060000Y-56200000D03*
X28790000Y-54930000D03*
X28790000Y-56200000D03*
D12*
X22675000Y-47200000D03*
X22675000Y-53800000D03*
D13*
X57600000Y-47675000D03*
X57600000Y-53325000D03*
D12*
X22675000Y-37800000D03*
X22675000Y-31200000D03*
D13*
X57600000Y-37325000D03*
X57600000Y-31675000D03*
D11*
X28790000Y-40200000D03*
X28790000Y-38930000D03*
X30060000Y-40200000D03*
X30060000Y-38930000D03*
X31330000Y-40200000D03*
X31330000Y-38930000D03*
X32600000Y-40200000D03*
X32600000Y-38930000D03*
X33870000Y-40200000D03*
D10*
X33870000Y-38930000D03*
D14*
X54300000Y-32025000D03*
D15*
X36155000Y-37465000D03*
D14*
X48625000Y-29025000D03*
X46300000Y-28425000D03*
X25030000Y-40910000D03*
X43620000Y-29920000D03*
X41415000Y-28905000D03*
X41415000Y-27980000D03*
X34350000Y-31425000D03*
X28000000Y-33350000D03*
X27075000Y-36200000D03*
X28100000Y-37200000D03*
X53250000Y-36900000D03*
X53250000Y-35900000D03*
X58200000Y-30400000D03*
X58200000Y-38600000D03*
X48850000Y-41350000D03*
X43600000Y-38600000D03*
X30600000Y-32975000D03*
X30600000Y-31475000D03*
D15*
X48900000Y-32600000D03*
D14*
X38665000Y-34455000D03*
X38640000Y-33455000D03*
X38640000Y-35455000D03*
X50250000Y-27700000D03*
X50250000Y-30200000D03*
X50250000Y-32500000D03*
X50250000Y-41300000D03*
X50250000Y-39075000D03*
X59500000Y-30000000D03*
X52750000Y-27700000D03*
X55750000Y-27700000D03*
X58400000Y-27700000D03*
X59500000Y-39000000D03*
X50250000Y-36900000D03*
D15*
X30350000Y-35100000D03*
D14*
X27075000Y-37200000D03*
X29100000Y-37200000D03*
D15*
X41940000Y-32355000D03*
D14*
X31900000Y-29600000D03*
X42440000Y-27980000D03*
X42440000Y-28905000D03*
X45550000Y-37450000D03*
X52750000Y-41300000D03*
X55750000Y-41300000D03*
X58400000Y-41300000D03*
X47575000Y-29025000D03*
D15*
X45250000Y-33500000D03*
X46500000Y-33500000D03*
X45250000Y-34750000D03*
X46500000Y-34750000D03*
D14*
X57250000Y-30400000D03*
X56250000Y-30400000D03*
X57250000Y-38600000D03*
X56250000Y-38600000D03*
X38640000Y-51455000D03*
X50250000Y-43700000D03*
X50250000Y-46200000D03*
X53250000Y-52900000D03*
X58200000Y-46400000D03*
X48625000Y-45025000D03*
X25030000Y-56910000D03*
X28000000Y-49350000D03*
X54300000Y-48025000D03*
X41415000Y-43980000D03*
X43620000Y-45920000D03*
X27075000Y-52200000D03*
X28100000Y-53200000D03*
X46300000Y-44425000D03*
D15*
X36155000Y-53465000D03*
D14*
X41415000Y-44905000D03*
X53250000Y-51900000D03*
X58200000Y-54600000D03*
X30600000Y-48975000D03*
X30600000Y-47475000D03*
X34350000Y-47425000D03*
D15*
X48900000Y-48600000D03*
D14*
X43600000Y-54600000D03*
X48850000Y-57350000D03*
X38665000Y-50455000D03*
X38640000Y-49455000D03*
D15*
X30350000Y-51100000D03*
D14*
X29100000Y-53200000D03*
X52750000Y-57300000D03*
X42440000Y-44905000D03*
D15*
X46500000Y-49500000D03*
D14*
X56250000Y-54600000D03*
X50250000Y-52900000D03*
X58400000Y-57300000D03*
X27075000Y-53200000D03*
D15*
X41940000Y-48355000D03*
D14*
X57250000Y-54600000D03*
X50250000Y-57300000D03*
X59500000Y-55000000D03*
X55750000Y-43700000D03*
D15*
X45250000Y-49500000D03*
D14*
X50250000Y-48500000D03*
X57250000Y-46400000D03*
X55750000Y-57300000D03*
X56250000Y-46400000D03*
X58400000Y-43700000D03*
X31900000Y-45600000D03*
X45550000Y-53450000D03*
X47575000Y-45025000D03*
X52750000Y-43700000D03*
D15*
X45250000Y-50750000D03*
D14*
X42440000Y-43980000D03*
D15*
X46500000Y-50750000D03*
D14*
X50250000Y-55075000D03*
X59500000Y-46000000D03*
D15*
X37690000Y-38680000D03*
X37640000Y-31080000D03*
X48650000Y-31725000D03*
D14*
X32700000Y-33350000D03*
X44750000Y-28425000D03*
X43070000Y-37620000D03*
X33575000Y-33350000D03*
X34450000Y-33350000D03*
X34450000Y-32475000D03*
D15*
X41615000Y-31505000D03*
D14*
X32700000Y-49350000D03*
X34450000Y-49350000D03*
D15*
X41615000Y-47505000D03*
D14*
X44750000Y-44425000D03*
D15*
X37690000Y-54680000D03*
D14*
X33575000Y-49350000D03*
X43070000Y-53620000D03*
D15*
X48650000Y-47725000D03*
X37640000Y-47080000D03*
D14*
X34450000Y-48475000D03*
D15*
X39306275Y-30262975D03*
X39306275Y-46262975D03*
X28700000Y-35100000D03*
X27050000Y-33550000D03*
X27050000Y-49550000D03*
X28700000Y-51100000D03*
X42580000Y-36290000D03*
X42599910Y-34555019D03*
X42580000Y-52290000D03*
X42599910Y-50555019D03*
D16*
X58200000Y-37325000D02*
X58200000Y-38600000D01*
X58200000Y-31675000D02*
X58200000Y-30400000D01*
X58200000Y-53325000D02*
X58200000Y-54600000D01*
X58200000Y-47675000D02*
X58200000Y-46400000D01*
D17*
X40390000Y-31346700D02*
X39306275Y-30262975D01*
X38645000Y-41200000D02*
X40390000Y-39455000D01*
X40390000Y-39455000D02*
X40390000Y-31346700D01*
X38645000Y-41200000D02*
X29080000Y-41200000D01*
X28790000Y-40910000D02*
X28790000Y-40200000D01*
X29080000Y-41200000D02*
X28790000Y-40910000D01*
X38645000Y-57200000D02*
X40390000Y-55455000D01*
X40390000Y-47346700D02*
X39306275Y-46262975D01*
X40390000Y-55455000D02*
X40390000Y-47346700D01*
X38645000Y-57200000D02*
X29080000Y-57200000D01*
X29080000Y-57200000D02*
X28790000Y-56910000D01*
X28790000Y-56910000D02*
X28790000Y-56200000D01*
X27050000Y-33750000D02*
X27050000Y-33550000D01*
X28400000Y-35100000D02*
X27050000Y-33750000D01*
X28400000Y-51100000D02*
X27050000Y-49750000D01*
X27050000Y-49750000D02*
X27050000Y-49550000D01*
D18*
X42599910Y-36270090D02*
X42580000Y-36290000D01*
X42599910Y-34555019D02*
X42599910Y-36270090D01*
X42599910Y-52270090D02*
X42580000Y-52290000D01*
X42599910Y-50555019D02*
X42599910Y-52270090D01*
D19*
G36*
X47240315Y-27427660D02*
G01*
X47165146Y-27609135D01*
X47126825Y-27801787D01*
X47126825Y-27998213D01*
X47165146Y-28190865D01*
X47240315Y-28372340D01*
X47349444Y-28535662D01*
X47488338Y-28674556D01*
X47651660Y-28783685D01*
X47833135Y-28858854D01*
X48025787Y-28897175D01*
X48222213Y-28897175D01*
X48414865Y-28858854D01*
X48596340Y-28783685D01*
X48759662Y-28674556D01*
X48898556Y-28535662D01*
X49007685Y-28372340D01*
X49082854Y-28190865D01*
X49121175Y-27998213D01*
X49121175Y-27801787D01*
X49082854Y-27609135D01*
X49007685Y-27427660D01*
X48993212Y-27406000D01*
X49123000Y-27406000D01*
X49123000Y-31164210D01*
X49115985Y-31157195D01*
X48996258Y-31077196D01*
X48863225Y-31022092D01*
X48721997Y-30994000D01*
X48578003Y-30994000D01*
X48436775Y-31022092D01*
X48303742Y-31077196D01*
X48184015Y-31157195D01*
X48082195Y-31259015D01*
X48002196Y-31378742D01*
X47947092Y-31511775D01*
X47919000Y-31653003D01*
X47919000Y-31796997D01*
X47947092Y-31938225D01*
X48002196Y-32071258D01*
X48082195Y-32190985D01*
X48184015Y-32292805D01*
X48303742Y-32372804D01*
X48436775Y-32427908D01*
X48578003Y-32456000D01*
X48721997Y-32456000D01*
X48863225Y-32427908D01*
X48996258Y-32372804D01*
X49115985Y-32292805D01*
X49123000Y-32285790D01*
X49123000Y-32848000D01*
X46850000Y-32848000D01*
X46825224Y-32850440D01*
X46801399Y-32857667D01*
X46779443Y-32869403D01*
X46760197Y-32885197D01*
X46744403Y-32904443D01*
X46732667Y-32926399D01*
X46725440Y-32950224D01*
X46723000Y-32975000D01*
X46723000Y-35348000D01*
X45900000Y-35348000D01*
X45875224Y-35350440D01*
X45851399Y-35357667D01*
X45829443Y-35369403D01*
X45810197Y-35385197D01*
X45794403Y-35404443D01*
X45782667Y-35426399D01*
X45775440Y-35450224D01*
X45773000Y-35475000D01*
X45773000Y-37673000D01*
X43851000Y-37673000D01*
X43851000Y-37543078D01*
X43820987Y-37392191D01*
X43762113Y-37250058D01*
X43676642Y-37122141D01*
X43567859Y-37013358D01*
X43439942Y-36927887D01*
X43297809Y-36869013D01*
X43146922Y-36839000D01*
X43064790Y-36839000D01*
X43147805Y-36755985D01*
X43227804Y-36636258D01*
X43282908Y-36503225D01*
X43311000Y-36361997D01*
X43311000Y-36218003D01*
X43282908Y-36076775D01*
X43227804Y-35943742D01*
X43147805Y-35824015D01*
X43105910Y-35782120D01*
X43105910Y-35082809D01*
X43167715Y-35021004D01*
X43247714Y-34901277D01*
X43302818Y-34768244D01*
X43330910Y-34627016D01*
X43330910Y-34483022D01*
X43302818Y-34341794D01*
X43247714Y-34208761D01*
X43167715Y-34089034D01*
X43065895Y-33987214D01*
X42946168Y-33907215D01*
X42813135Y-33852111D01*
X42671907Y-33824019D01*
X42527913Y-33824019D01*
X42386685Y-33852111D01*
X42253652Y-33907215D01*
X42133925Y-33987214D01*
X42032105Y-34089034D01*
X41952106Y-34208761D01*
X41897002Y-34341794D01*
X41868910Y-34483022D01*
X41868910Y-34627016D01*
X41897002Y-34768244D01*
X41952106Y-34901277D01*
X42032105Y-35021004D01*
X42093910Y-35082809D01*
X42093911Y-35742299D01*
X42012195Y-35824015D01*
X41932196Y-35943742D01*
X41877092Y-36076775D01*
X41849000Y-36218003D01*
X41849000Y-36361997D01*
X41877092Y-36503225D01*
X41932196Y-36636258D01*
X42012195Y-36755985D01*
X42114015Y-36857805D01*
X42233742Y-36937804D01*
X42366775Y-36992908D01*
X42508003Y-37021000D01*
X42564499Y-37021000D01*
X42463358Y-37122141D01*
X42377887Y-37250058D01*
X42319013Y-37392191D01*
X42289000Y-37543078D01*
X42289000Y-37678845D01*
X42276399Y-37682667D01*
X42254443Y-37694403D01*
X42235197Y-37710197D01*
X42219403Y-37729443D01*
X42207667Y-37751399D01*
X42200440Y-37775224D01*
X42198000Y-37800000D01*
X42198000Y-41594000D01*
X39143368Y-41594000D01*
X40814269Y-39923100D01*
X40838343Y-39903343D01*
X40883977Y-39847739D01*
X40917196Y-39807261D01*
X40975789Y-39697642D01*
X41011870Y-39578698D01*
X41019159Y-39504689D01*
X41021000Y-39485998D01*
X41021000Y-39485991D01*
X41024052Y-39455000D01*
X41021000Y-39424010D01*
X41021000Y-31931781D01*
X41047195Y-31970985D01*
X41149015Y-32072805D01*
X41268742Y-32152804D01*
X41401775Y-32207908D01*
X41543003Y-32236000D01*
X41686997Y-32236000D01*
X41828225Y-32207908D01*
X41961258Y-32152804D01*
X42080985Y-32072805D01*
X42182805Y-31970985D01*
X42262804Y-31851258D01*
X42317908Y-31718225D01*
X42346000Y-31576997D01*
X42346000Y-31433003D01*
X42317908Y-31291775D01*
X42262804Y-31158742D01*
X42182805Y-31039015D01*
X42080985Y-30937195D01*
X41961258Y-30857196D01*
X41828225Y-30802092D01*
X41686997Y-30774000D01*
X41543003Y-30774000D01*
X41401775Y-30802092D01*
X41268742Y-30857196D01*
X41149015Y-30937195D01*
X41047195Y-31039015D01*
X40984515Y-31132823D01*
X40975789Y-31104058D01*
X40917196Y-30994439D01*
X40858103Y-30922434D01*
X40858101Y-30922432D01*
X40838343Y-30898357D01*
X40814268Y-30878599D01*
X40015084Y-30079416D01*
X40009183Y-30049750D01*
X39954079Y-29916717D01*
X39874080Y-29796990D01*
X39772260Y-29695170D01*
X39652533Y-29615171D01*
X39519500Y-29560067D01*
X39378272Y-29531975D01*
X39234278Y-29531975D01*
X39093050Y-29560067D01*
X38960017Y-29615171D01*
X38840290Y-29695170D01*
X38738470Y-29796990D01*
X38658471Y-29916717D01*
X38603367Y-30049750D01*
X38575275Y-30190978D01*
X38575275Y-30334972D01*
X38603367Y-30476200D01*
X38658471Y-30609233D01*
X38738470Y-30728960D01*
X38840290Y-30830780D01*
X38960017Y-30910779D01*
X39093050Y-30965883D01*
X39122716Y-30971784D01*
X39759001Y-31608070D01*
X39759000Y-39193631D01*
X38383632Y-40569000D01*
X34670743Y-40569000D01*
X34717144Y-40456978D01*
X34751000Y-40286771D01*
X34751000Y-40113229D01*
X34717144Y-39943022D01*
X34650732Y-39782690D01*
X34611806Y-39724432D01*
X34640711Y-39700711D01*
X34688322Y-39642696D01*
X34723701Y-39576508D01*
X34745487Y-39504689D01*
X34752843Y-39430000D01*
X34752843Y-38608003D01*
X36959000Y-38608003D01*
X36959000Y-38751997D01*
X36987092Y-38893225D01*
X37042196Y-39026258D01*
X37122195Y-39145985D01*
X37224015Y-39247805D01*
X37343742Y-39327804D01*
X37476775Y-39382908D01*
X37618003Y-39411000D01*
X37761997Y-39411000D01*
X37903225Y-39382908D01*
X38036258Y-39327804D01*
X38155985Y-39247805D01*
X38257805Y-39145985D01*
X38337804Y-39026258D01*
X38392908Y-38893225D01*
X38421000Y-38751997D01*
X38421000Y-38608003D01*
X38392908Y-38466775D01*
X38337804Y-38333742D01*
X38257805Y-38214015D01*
X38155985Y-38112195D01*
X38036258Y-38032196D01*
X37903225Y-37977092D01*
X37761997Y-37949000D01*
X37618003Y-37949000D01*
X37476775Y-37977092D01*
X37343742Y-38032196D01*
X37224015Y-38112195D01*
X37122195Y-38214015D01*
X37042196Y-38333742D01*
X36987092Y-38466775D01*
X36959000Y-38608003D01*
X34752843Y-38608003D01*
X34752843Y-38430000D01*
X34745487Y-38355311D01*
X34723701Y-38283492D01*
X34688322Y-38217304D01*
X34640711Y-38159289D01*
X34582696Y-38111678D01*
X34516508Y-38076299D01*
X34444689Y-38054513D01*
X34370000Y-38047157D01*
X33370000Y-38047157D01*
X33315622Y-38052513D01*
X33160206Y-37942877D01*
X32956864Y-37852554D01*
X32901874Y-37835881D01*
X32727000Y-37962046D01*
X32727000Y-38803000D01*
X32747000Y-38803000D01*
X32747000Y-39057000D01*
X32727000Y-39057000D01*
X32727000Y-39077000D01*
X32473000Y-39077000D01*
X32473000Y-39057000D01*
X31457000Y-39057000D01*
X31457000Y-39077000D01*
X31203000Y-39077000D01*
X31203000Y-39057000D01*
X31183000Y-39057000D01*
X31183000Y-38803000D01*
X31203000Y-38803000D01*
X31203000Y-37962046D01*
X31457000Y-37962046D01*
X31457000Y-38803000D01*
X32473000Y-38803000D01*
X32473000Y-37962046D01*
X32298126Y-37835881D01*
X32243136Y-37852554D01*
X32039794Y-37942877D01*
X31965000Y-37995639D01*
X31890206Y-37942877D01*
X31686864Y-37852554D01*
X31631874Y-37835881D01*
X31457000Y-37962046D01*
X31203000Y-37962046D01*
X31028126Y-37835881D01*
X30973136Y-37852554D01*
X30769794Y-37942877D01*
X30587980Y-38071135D01*
X30499569Y-38164141D01*
X30477310Y-38149268D01*
X30316978Y-38082856D01*
X30146771Y-38049000D01*
X29973229Y-38049000D01*
X29803022Y-38082856D01*
X29642690Y-38149268D01*
X29620431Y-38164141D01*
X29532020Y-38071135D01*
X29350206Y-37942877D01*
X29146864Y-37852554D01*
X29091874Y-37835881D01*
X28917000Y-37962046D01*
X28917000Y-38803000D01*
X28937000Y-38803000D01*
X28937000Y-39057000D01*
X28917000Y-39057000D01*
X28917000Y-39077000D01*
X28663000Y-39077000D01*
X28663000Y-39057000D01*
X27820871Y-39057000D01*
X27695874Y-39231876D01*
X27775790Y-39439529D01*
X27894682Y-39627601D01*
X28022824Y-39762402D01*
X28009268Y-39782690D01*
X27942856Y-39943022D01*
X27909000Y-40113229D01*
X27909000Y-40286771D01*
X27942856Y-40456978D01*
X28009268Y-40617310D01*
X28105682Y-40761605D01*
X28159000Y-40814923D01*
X28159000Y-40879010D01*
X28155948Y-40910000D01*
X28159000Y-40940990D01*
X28159000Y-40940997D01*
X28168130Y-41033697D01*
X28204211Y-41152641D01*
X28262804Y-41262260D01*
X28341657Y-41358343D01*
X28365737Y-41378105D01*
X28611895Y-41624263D01*
X28623757Y-41638717D01*
X28598979Y-41628097D01*
X28593563Y-41626420D01*
X28556196Y-41615138D01*
X28520066Y-41607984D01*
X28484104Y-41600340D01*
X28478470Y-41599747D01*
X28478466Y-41599747D01*
X28439619Y-41595938D01*
X28439618Y-41595938D01*
X28419941Y-41594000D01*
X23269854Y-41594000D01*
X22940770Y-41561733D01*
X22643316Y-41471926D01*
X22368975Y-41326056D01*
X22128187Y-41129675D01*
X21930129Y-40890265D01*
X21782346Y-40616948D01*
X21690465Y-40320128D01*
X21664994Y-40077787D01*
X22002825Y-40077787D01*
X22002825Y-40274213D01*
X22041146Y-40466865D01*
X22116315Y-40648340D01*
X22225444Y-40811662D01*
X22364338Y-40950556D01*
X22527660Y-41059685D01*
X22709135Y-41134854D01*
X22901787Y-41173175D01*
X23098213Y-41173175D01*
X23290865Y-41134854D01*
X23472340Y-41059685D01*
X23635662Y-40950556D01*
X23774556Y-40811662D01*
X23883685Y-40648340D01*
X23958854Y-40466865D01*
X23997175Y-40274213D01*
X23997175Y-40077787D01*
X23958854Y-39885135D01*
X23883685Y-39703660D01*
X23774556Y-39540338D01*
X23635662Y-39401444D01*
X23472340Y-39292315D01*
X23290865Y-39217146D01*
X23098213Y-39178825D01*
X22901787Y-39178825D01*
X22709135Y-39217146D01*
X22527660Y-39292315D01*
X22364338Y-39401444D01*
X22225444Y-39540338D01*
X22116315Y-39703660D01*
X22041146Y-39885135D01*
X22002825Y-40077787D01*
X21664994Y-40077787D01*
X21656000Y-39992218D01*
X21656000Y-38633205D01*
X21660866Y-38639134D01*
X21840697Y-38786717D01*
X22045864Y-38896381D01*
X22268484Y-38963912D01*
X22441984Y-38981000D01*
X22908016Y-38981000D01*
X23081516Y-38963912D01*
X23304136Y-38896381D01*
X23509303Y-38786717D01*
X23689134Y-38639134D01*
X23698169Y-38628124D01*
X27695874Y-38628124D01*
X27820871Y-38803000D01*
X28663000Y-38803000D01*
X28663000Y-37962046D01*
X28488126Y-37835881D01*
X28433136Y-37852554D01*
X28229794Y-37942877D01*
X28047980Y-38071135D01*
X27894682Y-38232399D01*
X27775790Y-38420471D01*
X27695874Y-38628124D01*
X23698169Y-38628124D01*
X23836717Y-38459303D01*
X23946381Y-38254136D01*
X24013912Y-38031516D01*
X24036714Y-37800000D01*
X24013912Y-37568484D01*
X23946381Y-37345864D01*
X23836717Y-37140697D01*
X23689134Y-36960866D01*
X23509303Y-36813283D01*
X23304136Y-36703619D01*
X23081516Y-36636088D01*
X22908016Y-36619000D01*
X22441984Y-36619000D01*
X22268484Y-36636088D01*
X22045864Y-36703619D01*
X21840697Y-36813283D01*
X21660866Y-36960866D01*
X21656000Y-36966795D01*
X21656000Y-33478003D01*
X26319000Y-33478003D01*
X26319000Y-33621997D01*
X26347092Y-33763225D01*
X26402196Y-33896258D01*
X26462227Y-33986101D01*
X26464211Y-33992641D01*
X26522804Y-34102260D01*
X26601657Y-34198343D01*
X26625737Y-34218105D01*
X27975734Y-35568103D01*
X28047738Y-35627195D01*
X28157358Y-35685788D01*
X28276302Y-35721869D01*
X28321605Y-35726331D01*
X28353742Y-35747804D01*
X28486775Y-35802908D01*
X28628003Y-35831000D01*
X28771997Y-35831000D01*
X28913225Y-35802908D01*
X29046258Y-35747804D01*
X29165985Y-35667805D01*
X29267805Y-35565985D01*
X29347804Y-35446258D01*
X29402908Y-35313225D01*
X29431000Y-35171997D01*
X29431000Y-35028003D01*
X29402908Y-34886775D01*
X29347804Y-34753742D01*
X29267805Y-34634015D01*
X29165985Y-34532195D01*
X29046258Y-34452196D01*
X28913225Y-34397092D01*
X28771997Y-34369000D01*
X28628003Y-34369000D01*
X28572424Y-34380055D01*
X27781000Y-33588632D01*
X27781000Y-33478003D01*
X27752908Y-33336775D01*
X27726524Y-33273078D01*
X31919000Y-33273078D01*
X31919000Y-33426922D01*
X31949013Y-33577809D01*
X32007887Y-33719942D01*
X32093358Y-33847859D01*
X32202141Y-33956642D01*
X32330058Y-34042113D01*
X32472191Y-34100987D01*
X32623078Y-34131000D01*
X32776922Y-34131000D01*
X32927809Y-34100987D01*
X33069942Y-34042113D01*
X33137500Y-33996972D01*
X33205058Y-34042113D01*
X33347191Y-34100987D01*
X33498078Y-34131000D01*
X33651922Y-34131000D01*
X33802809Y-34100987D01*
X33944942Y-34042113D01*
X34012500Y-33996972D01*
X34080058Y-34042113D01*
X34222191Y-34100987D01*
X34373078Y-34131000D01*
X34526922Y-34131000D01*
X34677809Y-34100987D01*
X34819942Y-34042113D01*
X34947859Y-33956642D01*
X35056642Y-33847859D01*
X35142113Y-33719942D01*
X35200987Y-33577809D01*
X35231000Y-33426922D01*
X35231000Y-33273078D01*
X35200987Y-33122191D01*
X35142113Y-32980058D01*
X35096972Y-32912500D01*
X35142113Y-32844942D01*
X35200987Y-32702809D01*
X35231000Y-32551922D01*
X35231000Y-32398078D01*
X35200987Y-32247191D01*
X35142113Y-32105058D01*
X35056642Y-31977141D01*
X34947859Y-31868358D01*
X34819942Y-31782887D01*
X34677809Y-31724013D01*
X34526922Y-31694000D01*
X34373078Y-31694000D01*
X34222191Y-31724013D01*
X34080058Y-31782887D01*
X33952141Y-31868358D01*
X33843358Y-31977141D01*
X33757887Y-32105058D01*
X33699013Y-32247191D01*
X33669000Y-32398078D01*
X33669000Y-32551922D01*
X33673240Y-32573240D01*
X33651922Y-32569000D01*
X33498078Y-32569000D01*
X33347191Y-32599013D01*
X33205058Y-32657887D01*
X33137500Y-32703028D01*
X33069942Y-32657887D01*
X32927809Y-32599013D01*
X32776922Y-32569000D01*
X32623078Y-32569000D01*
X32472191Y-32599013D01*
X32330058Y-32657887D01*
X32202141Y-32743358D01*
X32093358Y-32852141D01*
X32007887Y-32980058D01*
X31949013Y-33122191D01*
X31919000Y-33273078D01*
X27726524Y-33273078D01*
X27697804Y-33203742D01*
X27617805Y-33084015D01*
X27515985Y-32982195D01*
X27396258Y-32902196D01*
X27263225Y-32847092D01*
X27121997Y-32819000D01*
X26978003Y-32819000D01*
X26836775Y-32847092D01*
X26703742Y-32902196D01*
X26584015Y-32982195D01*
X26482195Y-33084015D01*
X26402196Y-33203742D01*
X26347092Y-33336775D01*
X26319000Y-33478003D01*
X21656000Y-33478003D01*
X21656000Y-32033205D01*
X21660866Y-32039134D01*
X21840697Y-32186717D01*
X22045864Y-32296381D01*
X22268484Y-32363912D01*
X22441984Y-32381000D01*
X22908016Y-32381000D01*
X23081516Y-32363912D01*
X23304136Y-32296381D01*
X23509303Y-32186717D01*
X23689134Y-32039134D01*
X23836717Y-31859303D01*
X23946381Y-31654136D01*
X24013912Y-31431516D01*
X24036714Y-31200000D01*
X24017805Y-31008003D01*
X36909000Y-31008003D01*
X36909000Y-31151997D01*
X36937092Y-31293225D01*
X36992196Y-31426258D01*
X37072195Y-31545985D01*
X37174015Y-31647805D01*
X37293742Y-31727804D01*
X37426775Y-31782908D01*
X37568003Y-31811000D01*
X37711997Y-31811000D01*
X37853225Y-31782908D01*
X37986258Y-31727804D01*
X38105985Y-31647805D01*
X38207805Y-31545985D01*
X38287804Y-31426258D01*
X38342908Y-31293225D01*
X38371000Y-31151997D01*
X38371000Y-31008003D01*
X38342908Y-30866775D01*
X38287804Y-30733742D01*
X38207805Y-30614015D01*
X38105985Y-30512195D01*
X37986258Y-30432196D01*
X37853225Y-30377092D01*
X37711997Y-30349000D01*
X37568003Y-30349000D01*
X37426775Y-30377092D01*
X37293742Y-30432196D01*
X37174015Y-30512195D01*
X37072195Y-30614015D01*
X36992196Y-30733742D01*
X36937092Y-30866775D01*
X36909000Y-31008003D01*
X24017805Y-31008003D01*
X24013912Y-30968484D01*
X23946381Y-30745864D01*
X23836717Y-30540697D01*
X23689134Y-30360866D01*
X23509303Y-30213283D01*
X23304136Y-30103619D01*
X23081516Y-30036088D01*
X22908016Y-30019000D01*
X22441984Y-30019000D01*
X22268484Y-30036088D01*
X22045864Y-30103619D01*
X21840697Y-30213283D01*
X21660866Y-30360866D01*
X21656000Y-30366795D01*
X21656000Y-29019854D01*
X21688267Y-28690771D01*
X21778075Y-28393312D01*
X21802126Y-28348078D01*
X43969000Y-28348078D01*
X43969000Y-28501922D01*
X43999013Y-28652809D01*
X44057887Y-28794942D01*
X44143358Y-28922859D01*
X44252141Y-29031642D01*
X44380058Y-29117113D01*
X44522191Y-29175987D01*
X44673078Y-29206000D01*
X44826922Y-29206000D01*
X44977809Y-29175987D01*
X45119942Y-29117113D01*
X45247859Y-29031642D01*
X45356642Y-28922859D01*
X45442113Y-28794942D01*
X45500987Y-28652809D01*
X45531000Y-28501922D01*
X45531000Y-28348078D01*
X45500987Y-28197191D01*
X45442113Y-28055058D01*
X45356642Y-27927141D01*
X45247859Y-27818358D01*
X45119942Y-27732887D01*
X44977809Y-27674013D01*
X44826922Y-27644000D01*
X44673078Y-27644000D01*
X44522191Y-27674013D01*
X44380058Y-27732887D01*
X44252141Y-27818358D01*
X44143358Y-27927141D01*
X44057887Y-28055058D01*
X43999013Y-28197191D01*
X43969000Y-28348078D01*
X21802126Y-28348078D01*
X21923945Y-28118972D01*
X22120325Y-27878187D01*
X22359736Y-27680127D01*
X22633053Y-27532346D01*
X22929872Y-27440465D01*
X23257782Y-27406000D01*
X47254788Y-27406000D01*
X47240315Y-27427660D01*
G37*
X47240315Y-27427660D02*
X47165146Y-27609135D01*
X47126825Y-27801787D01*
X47126825Y-27998213D01*
X47165146Y-28190865D01*
X47240315Y-28372340D01*
X47349444Y-28535662D01*
X47488338Y-28674556D01*
X47651660Y-28783685D01*
X47833135Y-28858854D01*
X48025787Y-28897175D01*
X48222213Y-28897175D01*
X48414865Y-28858854D01*
X48596340Y-28783685D01*
X48759662Y-28674556D01*
X48898556Y-28535662D01*
X49007685Y-28372340D01*
X49082854Y-28190865D01*
X49121175Y-27998213D01*
X49121175Y-27801787D01*
X49082854Y-27609135D01*
X49007685Y-27427660D01*
X48993212Y-27406000D01*
X49123000Y-27406000D01*
X49123000Y-31164210D01*
X49115985Y-31157195D01*
X48996258Y-31077196D01*
X48863225Y-31022092D01*
X48721997Y-30994000D01*
X48578003Y-30994000D01*
X48436775Y-31022092D01*
X48303742Y-31077196D01*
X48184015Y-31157195D01*
X48082195Y-31259015D01*
X48002196Y-31378742D01*
X47947092Y-31511775D01*
X47919000Y-31653003D01*
X47919000Y-31796997D01*
X47947092Y-31938225D01*
X48002196Y-32071258D01*
X48082195Y-32190985D01*
X48184015Y-32292805D01*
X48303742Y-32372804D01*
X48436775Y-32427908D01*
X48578003Y-32456000D01*
X48721997Y-32456000D01*
X48863225Y-32427908D01*
X48996258Y-32372804D01*
X49115985Y-32292805D01*
X49123000Y-32285790D01*
X49123000Y-32848000D01*
X46850000Y-32848000D01*
X46825224Y-32850440D01*
X46801399Y-32857667D01*
X46779443Y-32869403D01*
X46760197Y-32885197D01*
X46744403Y-32904443D01*
X46732667Y-32926399D01*
X46725440Y-32950224D01*
X46723000Y-32975000D01*
X46723000Y-35348000D01*
X45900000Y-35348000D01*
X45875224Y-35350440D01*
X45851399Y-35357667D01*
X45829443Y-35369403D01*
X45810197Y-35385197D01*
X45794403Y-35404443D01*
X45782667Y-35426399D01*
X45775440Y-35450224D01*
X45773000Y-35475000D01*
X45773000Y-37673000D01*
X43851000Y-37673000D01*
X43851000Y-37543078D01*
X43820987Y-37392191D01*
X43762113Y-37250058D01*
X43676642Y-37122141D01*
X43567859Y-37013358D01*
X43439942Y-36927887D01*
X43297809Y-36869013D01*
X43146922Y-36839000D01*
X43064790Y-36839000D01*
X43147805Y-36755985D01*
X43227804Y-36636258D01*
X43282908Y-36503225D01*
X43311000Y-36361997D01*
X43311000Y-36218003D01*
X43282908Y-36076775D01*
X43227804Y-35943742D01*
X43147805Y-35824015D01*
X43105910Y-35782120D01*
X43105910Y-35082809D01*
X43167715Y-35021004D01*
X43247714Y-34901277D01*
X43302818Y-34768244D01*
X43330910Y-34627016D01*
X43330910Y-34483022D01*
X43302818Y-34341794D01*
X43247714Y-34208761D01*
X43167715Y-34089034D01*
X43065895Y-33987214D01*
X42946168Y-33907215D01*
X42813135Y-33852111D01*
X42671907Y-33824019D01*
X42527913Y-33824019D01*
X42386685Y-33852111D01*
X42253652Y-33907215D01*
X42133925Y-33987214D01*
X42032105Y-34089034D01*
X41952106Y-34208761D01*
X41897002Y-34341794D01*
X41868910Y-34483022D01*
X41868910Y-34627016D01*
X41897002Y-34768244D01*
X41952106Y-34901277D01*
X42032105Y-35021004D01*
X42093910Y-35082809D01*
X42093911Y-35742299D01*
X42012195Y-35824015D01*
X41932196Y-35943742D01*
X41877092Y-36076775D01*
X41849000Y-36218003D01*
X41849000Y-36361997D01*
X41877092Y-36503225D01*
X41932196Y-36636258D01*
X42012195Y-36755985D01*
X42114015Y-36857805D01*
X42233742Y-36937804D01*
X42366775Y-36992908D01*
X42508003Y-37021000D01*
X42564499Y-37021000D01*
X42463358Y-37122141D01*
X42377887Y-37250058D01*
X42319013Y-37392191D01*
X42289000Y-37543078D01*
X42289000Y-37678845D01*
X42276399Y-37682667D01*
X42254443Y-37694403D01*
X42235197Y-37710197D01*
X42219403Y-37729443D01*
X42207667Y-37751399D01*
X42200440Y-37775224D01*
X42198000Y-37800000D01*
X42198000Y-41594000D01*
X39143368Y-41594000D01*
X40814269Y-39923100D01*
X40838343Y-39903343D01*
X40883977Y-39847739D01*
X40917196Y-39807261D01*
X40975789Y-39697642D01*
X41011870Y-39578698D01*
X41019159Y-39504689D01*
X41021000Y-39485998D01*
X41021000Y-39485991D01*
X41024052Y-39455000D01*
X41021000Y-39424010D01*
X41021000Y-31931781D01*
X41047195Y-31970985D01*
X41149015Y-32072805D01*
X41268742Y-32152804D01*
X41401775Y-32207908D01*
X41543003Y-32236000D01*
X41686997Y-32236000D01*
X41828225Y-32207908D01*
X41961258Y-32152804D01*
X42080985Y-32072805D01*
X42182805Y-31970985D01*
X42262804Y-31851258D01*
X42317908Y-31718225D01*
X42346000Y-31576997D01*
X42346000Y-31433003D01*
X42317908Y-31291775D01*
X42262804Y-31158742D01*
X42182805Y-31039015D01*
X42080985Y-30937195D01*
X41961258Y-30857196D01*
X41828225Y-30802092D01*
X41686997Y-30774000D01*
X41543003Y-30774000D01*
X41401775Y-30802092D01*
X41268742Y-30857196D01*
X41149015Y-30937195D01*
X41047195Y-31039015D01*
X40984515Y-31132823D01*
X40975789Y-31104058D01*
X40917196Y-30994439D01*
X40858103Y-30922434D01*
X40858101Y-30922432D01*
X40838343Y-30898357D01*
X40814268Y-30878599D01*
X40015084Y-30079416D01*
X40009183Y-30049750D01*
X39954079Y-29916717D01*
X39874080Y-29796990D01*
X39772260Y-29695170D01*
X39652533Y-29615171D01*
X39519500Y-29560067D01*
X39378272Y-29531975D01*
X39234278Y-29531975D01*
X39093050Y-29560067D01*
X38960017Y-29615171D01*
X38840290Y-29695170D01*
X38738470Y-29796990D01*
X38658471Y-29916717D01*
X38603367Y-30049750D01*
X38575275Y-30190978D01*
X38575275Y-30334972D01*
X38603367Y-30476200D01*
X38658471Y-30609233D01*
X38738470Y-30728960D01*
X38840290Y-30830780D01*
X38960017Y-30910779D01*
X39093050Y-30965883D01*
X39122716Y-30971784D01*
X39759001Y-31608070D01*
X39759000Y-39193631D01*
X38383632Y-40569000D01*
X34670743Y-40569000D01*
X34717144Y-40456978D01*
X34751000Y-40286771D01*
X34751000Y-40113229D01*
X34717144Y-39943022D01*
X34650732Y-39782690D01*
X34611806Y-39724432D01*
X34640711Y-39700711D01*
X34688322Y-39642696D01*
X34723701Y-39576508D01*
X34745487Y-39504689D01*
X34752843Y-39430000D01*
X34752843Y-38608003D01*
X36959000Y-38608003D01*
X36959000Y-38751997D01*
X36987092Y-38893225D01*
X37042196Y-39026258D01*
X37122195Y-39145985D01*
X37224015Y-39247805D01*
X37343742Y-39327804D01*
X37476775Y-39382908D01*
X37618003Y-39411000D01*
X37761997Y-39411000D01*
X37903225Y-39382908D01*
X38036258Y-39327804D01*
X38155985Y-39247805D01*
X38257805Y-39145985D01*
X38337804Y-39026258D01*
X38392908Y-38893225D01*
X38421000Y-38751997D01*
X38421000Y-38608003D01*
X38392908Y-38466775D01*
X38337804Y-38333742D01*
X38257805Y-38214015D01*
X38155985Y-38112195D01*
X38036258Y-38032196D01*
X37903225Y-37977092D01*
X37761997Y-37949000D01*
X37618003Y-37949000D01*
X37476775Y-37977092D01*
X37343742Y-38032196D01*
X37224015Y-38112195D01*
X37122195Y-38214015D01*
X37042196Y-38333742D01*
X36987092Y-38466775D01*
X36959000Y-38608003D01*
X34752843Y-38608003D01*
X34752843Y-38430000D01*
X34745487Y-38355311D01*
X34723701Y-38283492D01*
X34688322Y-38217304D01*
X34640711Y-38159289D01*
X34582696Y-38111678D01*
X34516508Y-38076299D01*
X34444689Y-38054513D01*
X34370000Y-38047157D01*
X33370000Y-38047157D01*
X33315622Y-38052513D01*
X33160206Y-37942877D01*
X32956864Y-37852554D01*
X32901874Y-37835881D01*
X32727000Y-37962046D01*
X32727000Y-38803000D01*
X32747000Y-38803000D01*
X32747000Y-39057000D01*
X32727000Y-39057000D01*
X32727000Y-39077000D01*
X32473000Y-39077000D01*
X32473000Y-39057000D01*
X31457000Y-39057000D01*
X31457000Y-39077000D01*
X31203000Y-39077000D01*
X31203000Y-39057000D01*
X31183000Y-39057000D01*
X31183000Y-38803000D01*
X31203000Y-38803000D01*
X31203000Y-37962046D01*
X31457000Y-37962046D01*
X31457000Y-38803000D01*
X32473000Y-38803000D01*
X32473000Y-37962046D01*
X32298126Y-37835881D01*
X32243136Y-37852554D01*
X32039794Y-37942877D01*
X31965000Y-37995639D01*
X31890206Y-37942877D01*
X31686864Y-37852554D01*
X31631874Y-37835881D01*
X31457000Y-37962046D01*
X31203000Y-37962046D01*
X31028126Y-37835881D01*
X30973136Y-37852554D01*
X30769794Y-37942877D01*
X30587980Y-38071135D01*
X30499569Y-38164141D01*
X30477310Y-38149268D01*
X30316978Y-38082856D01*
X30146771Y-38049000D01*
X29973229Y-38049000D01*
X29803022Y-38082856D01*
X29642690Y-38149268D01*
X29620431Y-38164141D01*
X29532020Y-38071135D01*
X29350206Y-37942877D01*
X29146864Y-37852554D01*
X29091874Y-37835881D01*
X28917000Y-37962046D01*
X28917000Y-38803000D01*
X28937000Y-38803000D01*
X28937000Y-39057000D01*
X28917000Y-39057000D01*
X28917000Y-39077000D01*
X28663000Y-39077000D01*
X28663000Y-39057000D01*
X27820871Y-39057000D01*
X27695874Y-39231876D01*
X27775790Y-39439529D01*
X27894682Y-39627601D01*
X28022824Y-39762402D01*
X28009268Y-39782690D01*
X27942856Y-39943022D01*
X27909000Y-40113229D01*
X27909000Y-40286771D01*
X27942856Y-40456978D01*
X28009268Y-40617310D01*
X28105682Y-40761605D01*
X28159000Y-40814923D01*
X28159000Y-40879010D01*
X28155948Y-40910000D01*
X28159000Y-40940990D01*
X28159000Y-40940997D01*
X28168130Y-41033697D01*
X28204211Y-41152641D01*
X28262804Y-41262260D01*
X28341657Y-41358343D01*
X28365737Y-41378105D01*
X28611895Y-41624263D01*
X28623757Y-41638717D01*
X28598979Y-41628097D01*
X28593563Y-41626420D01*
X28556196Y-41615138D01*
X28520066Y-41607984D01*
X28484104Y-41600340D01*
X28478470Y-41599747D01*
X28478466Y-41599747D01*
X28439619Y-41595938D01*
X28439618Y-41595938D01*
X28419941Y-41594000D01*
X23269854Y-41594000D01*
X22940770Y-41561733D01*
X22643316Y-41471926D01*
X22368975Y-41326056D01*
X22128187Y-41129675D01*
X21930129Y-40890265D01*
X21782346Y-40616948D01*
X21690465Y-40320128D01*
X21664994Y-40077787D01*
X22002825Y-40077787D01*
X22002825Y-40274213D01*
X22041146Y-40466865D01*
X22116315Y-40648340D01*
X22225444Y-40811662D01*
X22364338Y-40950556D01*
X22527660Y-41059685D01*
X22709135Y-41134854D01*
X22901787Y-41173175D01*
X23098213Y-41173175D01*
X23290865Y-41134854D01*
X23472340Y-41059685D01*
X23635662Y-40950556D01*
X23774556Y-40811662D01*
X23883685Y-40648340D01*
X23958854Y-40466865D01*
X23997175Y-40274213D01*
X23997175Y-40077787D01*
X23958854Y-39885135D01*
X23883685Y-39703660D01*
X23774556Y-39540338D01*
X23635662Y-39401444D01*
X23472340Y-39292315D01*
X23290865Y-39217146D01*
X23098213Y-39178825D01*
X22901787Y-39178825D01*
X22709135Y-39217146D01*
X22527660Y-39292315D01*
X22364338Y-39401444D01*
X22225444Y-39540338D01*
X22116315Y-39703660D01*
X22041146Y-39885135D01*
X22002825Y-40077787D01*
X21664994Y-40077787D01*
X21656000Y-39992218D01*
X21656000Y-38633205D01*
X21660866Y-38639134D01*
X21840697Y-38786717D01*
X22045864Y-38896381D01*
X22268484Y-38963912D01*
X22441984Y-38981000D01*
X22908016Y-38981000D01*
X23081516Y-38963912D01*
X23304136Y-38896381D01*
X23509303Y-38786717D01*
X23689134Y-38639134D01*
X23698169Y-38628124D01*
X27695874Y-38628124D01*
X27820871Y-38803000D01*
X28663000Y-38803000D01*
X28663000Y-37962046D01*
X28488126Y-37835881D01*
X28433136Y-37852554D01*
X28229794Y-37942877D01*
X28047980Y-38071135D01*
X27894682Y-38232399D01*
X27775790Y-38420471D01*
X27695874Y-38628124D01*
X23698169Y-38628124D01*
X23836717Y-38459303D01*
X23946381Y-38254136D01*
X24013912Y-38031516D01*
X24036714Y-37800000D01*
X24013912Y-37568484D01*
X23946381Y-37345864D01*
X23836717Y-37140697D01*
X23689134Y-36960866D01*
X23509303Y-36813283D01*
X23304136Y-36703619D01*
X23081516Y-36636088D01*
X22908016Y-36619000D01*
X22441984Y-36619000D01*
X22268484Y-36636088D01*
X22045864Y-36703619D01*
X21840697Y-36813283D01*
X21660866Y-36960866D01*
X21656000Y-36966795D01*
X21656000Y-33478003D01*
X26319000Y-33478003D01*
X26319000Y-33621997D01*
X26347092Y-33763225D01*
X26402196Y-33896258D01*
X26462227Y-33986101D01*
X26464211Y-33992641D01*
X26522804Y-34102260D01*
X26601657Y-34198343D01*
X26625737Y-34218105D01*
X27975734Y-35568103D01*
X28047738Y-35627195D01*
X28157358Y-35685788D01*
X28276302Y-35721869D01*
X28321605Y-35726331D01*
X28353742Y-35747804D01*
X28486775Y-35802908D01*
X28628003Y-35831000D01*
X28771997Y-35831000D01*
X28913225Y-35802908D01*
X29046258Y-35747804D01*
X29165985Y-35667805D01*
X29267805Y-35565985D01*
X29347804Y-35446258D01*
X29402908Y-35313225D01*
X29431000Y-35171997D01*
X29431000Y-35028003D01*
X29402908Y-34886775D01*
X29347804Y-34753742D01*
X29267805Y-34634015D01*
X29165985Y-34532195D01*
X29046258Y-34452196D01*
X28913225Y-34397092D01*
X28771997Y-34369000D01*
X28628003Y-34369000D01*
X28572424Y-34380055D01*
X27781000Y-33588632D01*
X27781000Y-33478003D01*
X27752908Y-33336775D01*
X27726524Y-33273078D01*
X31919000Y-33273078D01*
X31919000Y-33426922D01*
X31949013Y-33577809D01*
X32007887Y-33719942D01*
X32093358Y-33847859D01*
X32202141Y-33956642D01*
X32330058Y-34042113D01*
X32472191Y-34100987D01*
X32623078Y-34131000D01*
X32776922Y-34131000D01*
X32927809Y-34100987D01*
X33069942Y-34042113D01*
X33137500Y-33996972D01*
X33205058Y-34042113D01*
X33347191Y-34100987D01*
X33498078Y-34131000D01*
X33651922Y-34131000D01*
X33802809Y-34100987D01*
X33944942Y-34042113D01*
X34012500Y-33996972D01*
X34080058Y-34042113D01*
X34222191Y-34100987D01*
X34373078Y-34131000D01*
X34526922Y-34131000D01*
X34677809Y-34100987D01*
X34819942Y-34042113D01*
X34947859Y-33956642D01*
X35056642Y-33847859D01*
X35142113Y-33719942D01*
X35200987Y-33577809D01*
X35231000Y-33426922D01*
X35231000Y-33273078D01*
X35200987Y-33122191D01*
X35142113Y-32980058D01*
X35096972Y-32912500D01*
X35142113Y-32844942D01*
X35200987Y-32702809D01*
X35231000Y-32551922D01*
X35231000Y-32398078D01*
X35200987Y-32247191D01*
X35142113Y-32105058D01*
X35056642Y-31977141D01*
X34947859Y-31868358D01*
X34819942Y-31782887D01*
X34677809Y-31724013D01*
X34526922Y-31694000D01*
X34373078Y-31694000D01*
X34222191Y-31724013D01*
X34080058Y-31782887D01*
X33952141Y-31868358D01*
X33843358Y-31977141D01*
X33757887Y-32105058D01*
X33699013Y-32247191D01*
X33669000Y-32398078D01*
X33669000Y-32551922D01*
X33673240Y-32573240D01*
X33651922Y-32569000D01*
X33498078Y-32569000D01*
X33347191Y-32599013D01*
X33205058Y-32657887D01*
X33137500Y-32703028D01*
X33069942Y-32657887D01*
X32927809Y-32599013D01*
X32776922Y-32569000D01*
X32623078Y-32569000D01*
X32472191Y-32599013D01*
X32330058Y-32657887D01*
X32202141Y-32743358D01*
X32093358Y-32852141D01*
X32007887Y-32980058D01*
X31949013Y-33122191D01*
X31919000Y-33273078D01*
X27726524Y-33273078D01*
X27697804Y-33203742D01*
X27617805Y-33084015D01*
X27515985Y-32982195D01*
X27396258Y-32902196D01*
X27263225Y-32847092D01*
X27121997Y-32819000D01*
X26978003Y-32819000D01*
X26836775Y-32847092D01*
X26703742Y-32902196D01*
X26584015Y-32982195D01*
X26482195Y-33084015D01*
X26402196Y-33203742D01*
X26347092Y-33336775D01*
X26319000Y-33478003D01*
X21656000Y-33478003D01*
X21656000Y-32033205D01*
X21660866Y-32039134D01*
X21840697Y-32186717D01*
X22045864Y-32296381D01*
X22268484Y-32363912D01*
X22441984Y-32381000D01*
X22908016Y-32381000D01*
X23081516Y-32363912D01*
X23304136Y-32296381D01*
X23509303Y-32186717D01*
X23689134Y-32039134D01*
X23836717Y-31859303D01*
X23946381Y-31654136D01*
X24013912Y-31431516D01*
X24036714Y-31200000D01*
X24017805Y-31008003D01*
X36909000Y-31008003D01*
X36909000Y-31151997D01*
X36937092Y-31293225D01*
X36992196Y-31426258D01*
X37072195Y-31545985D01*
X37174015Y-31647805D01*
X37293742Y-31727804D01*
X37426775Y-31782908D01*
X37568003Y-31811000D01*
X37711997Y-31811000D01*
X37853225Y-31782908D01*
X37986258Y-31727804D01*
X38105985Y-31647805D01*
X38207805Y-31545985D01*
X38287804Y-31426258D01*
X38342908Y-31293225D01*
X38371000Y-31151997D01*
X38371000Y-31008003D01*
X38342908Y-30866775D01*
X38287804Y-30733742D01*
X38207805Y-30614015D01*
X38105985Y-30512195D01*
X37986258Y-30432196D01*
X37853225Y-30377092D01*
X37711997Y-30349000D01*
X37568003Y-30349000D01*
X37426775Y-30377092D01*
X37293742Y-30432196D01*
X37174015Y-30512195D01*
X37072195Y-30614015D01*
X36992196Y-30733742D01*
X36937092Y-30866775D01*
X36909000Y-31008003D01*
X24017805Y-31008003D01*
X24013912Y-30968484D01*
X23946381Y-30745864D01*
X23836717Y-30540697D01*
X23689134Y-30360866D01*
X23509303Y-30213283D01*
X23304136Y-30103619D01*
X23081516Y-30036088D01*
X22908016Y-30019000D01*
X22441984Y-30019000D01*
X22268484Y-30036088D01*
X22045864Y-30103619D01*
X21840697Y-30213283D01*
X21660866Y-30360866D01*
X21656000Y-30366795D01*
X21656000Y-29019854D01*
X21688267Y-28690771D01*
X21778075Y-28393312D01*
X21802126Y-28348078D01*
X43969000Y-28348078D01*
X43969000Y-28501922D01*
X43999013Y-28652809D01*
X44057887Y-28794942D01*
X44143358Y-28922859D01*
X44252141Y-29031642D01*
X44380058Y-29117113D01*
X44522191Y-29175987D01*
X44673078Y-29206000D01*
X44826922Y-29206000D01*
X44977809Y-29175987D01*
X45119942Y-29117113D01*
X45247859Y-29031642D01*
X45356642Y-28922859D01*
X45442113Y-28794942D01*
X45500987Y-28652809D01*
X45531000Y-28501922D01*
X45531000Y-28348078D01*
X45500987Y-28197191D01*
X45442113Y-28055058D01*
X45356642Y-27927141D01*
X45247859Y-27818358D01*
X45119942Y-27732887D01*
X44977809Y-27674013D01*
X44826922Y-27644000D01*
X44673078Y-27644000D01*
X44522191Y-27674013D01*
X44380058Y-27732887D01*
X44252141Y-27818358D01*
X44143358Y-27927141D01*
X44057887Y-28055058D01*
X43999013Y-28197191D01*
X43969000Y-28348078D01*
X21802126Y-28348078D01*
X21923945Y-28118972D01*
X22120325Y-27878187D01*
X22359736Y-27680127D01*
X22633053Y-27532346D01*
X22929872Y-27440465D01*
X23257782Y-27406000D01*
X47254788Y-27406000D01*
X47240315Y-27427660D01*
G36*
X29929953Y-43092469D02*
G01*
X29975991Y-43138507D01*
X30110626Y-43228467D01*
X30260225Y-43290433D01*
X30419038Y-43322023D01*
X30580962Y-43322023D01*
X30739775Y-43290433D01*
X30889374Y-43228467D01*
X31024009Y-43138507D01*
X31068013Y-43094503D01*
X31132102Y-43094618D01*
X31175991Y-43138507D01*
X31310626Y-43228467D01*
X31460225Y-43290433D01*
X31619038Y-43322023D01*
X31780962Y-43322023D01*
X31939775Y-43290433D01*
X32089374Y-43228467D01*
X32224009Y-43138507D01*
X32265872Y-43096644D01*
X32334250Y-43096766D01*
X32375991Y-43138507D01*
X32510626Y-43228467D01*
X32660225Y-43290433D01*
X32819038Y-43322023D01*
X32980962Y-43322023D01*
X33139775Y-43290433D01*
X33289374Y-43228467D01*
X33340789Y-43194113D01*
X33346249Y-43200713D01*
X33372366Y-43226648D01*
X33398104Y-43252930D01*
X33402472Y-43256544D01*
X33432721Y-43281214D01*
X33463402Y-43301598D01*
X33493729Y-43322363D01*
X33498715Y-43325060D01*
X33533179Y-43343385D01*
X33567228Y-43357419D01*
X33601021Y-43371903D01*
X33606437Y-43373580D01*
X33643804Y-43384862D01*
X33679934Y-43392016D01*
X33715896Y-43399660D01*
X33721530Y-43400253D01*
X33721534Y-43400253D01*
X33760381Y-43404062D01*
X33760382Y-43404062D01*
X33780059Y-43406000D01*
X42919941Y-43406000D01*
X42937039Y-43404316D01*
X42938191Y-43404324D01*
X42943833Y-43403771D01*
X42962628Y-43401796D01*
X42979590Y-43400125D01*
X42980155Y-43399954D01*
X42982653Y-43399691D01*
X43018733Y-43392285D01*
X43054844Y-43385397D01*
X43060269Y-43383760D01*
X43060272Y-43383759D01*
X43060277Y-43383757D01*
X43097559Y-43372217D01*
X43131535Y-43357935D01*
X43165597Y-43344173D01*
X43170595Y-43341516D01*
X43170605Y-43341512D01*
X43170613Y-43341507D01*
X43204940Y-43322947D01*
X43235479Y-43302349D01*
X43266245Y-43282215D01*
X43270622Y-43278645D01*
X43270631Y-43278639D01*
X43270638Y-43278632D01*
X43300713Y-43253751D01*
X43326648Y-43227634D01*
X43352930Y-43201896D01*
X43356544Y-43197528D01*
X43359288Y-43194164D01*
X43410626Y-43228467D01*
X43560225Y-43290433D01*
X43719038Y-43322023D01*
X43880962Y-43322023D01*
X44039775Y-43290433D01*
X44189374Y-43228467D01*
X44324009Y-43138507D01*
X44344284Y-43118232D01*
X44455915Y-43118431D01*
X44475991Y-43138507D01*
X44610626Y-43228467D01*
X44760225Y-43290433D01*
X44919038Y-43322023D01*
X45080962Y-43322023D01*
X45239775Y-43290433D01*
X45389374Y-43228467D01*
X45524009Y-43138507D01*
X45542143Y-43120373D01*
X45658064Y-43120580D01*
X45675991Y-43138507D01*
X45810626Y-43228467D01*
X45960225Y-43290433D01*
X46119038Y-43322023D01*
X46280962Y-43322023D01*
X46439775Y-43290433D01*
X46589374Y-43228467D01*
X46724009Y-43138507D01*
X46740002Y-43122514D01*
X46860213Y-43122729D01*
X46875991Y-43138507D01*
X47010626Y-43228467D01*
X47160225Y-43290433D01*
X47319038Y-43322023D01*
X47480962Y-43322023D01*
X47639775Y-43290433D01*
X47789374Y-43228467D01*
X47840789Y-43194113D01*
X47846249Y-43200713D01*
X47872366Y-43226648D01*
X47898104Y-43252930D01*
X47902472Y-43256544D01*
X47932721Y-43281214D01*
X47963402Y-43301598D01*
X47993729Y-43322363D01*
X47998715Y-43325060D01*
X48033179Y-43343385D01*
X48067228Y-43357419D01*
X48101021Y-43371903D01*
X48106437Y-43373580D01*
X48143804Y-43384862D01*
X48179934Y-43392016D01*
X48215896Y-43399660D01*
X48221530Y-43400253D01*
X48221534Y-43400253D01*
X48260381Y-43404062D01*
X48260382Y-43404062D01*
X48280059Y-43406000D01*
X49123000Y-43406000D01*
X49123000Y-47164210D01*
X49115985Y-47157195D01*
X48996258Y-47077196D01*
X48863225Y-47022092D01*
X48721997Y-46994000D01*
X48578003Y-46994000D01*
X48436775Y-47022092D01*
X48303742Y-47077196D01*
X48184015Y-47157195D01*
X48082195Y-47259015D01*
X48002196Y-47378742D01*
X47947092Y-47511775D01*
X47919000Y-47653003D01*
X47919000Y-47796997D01*
X47947092Y-47938225D01*
X48002196Y-48071258D01*
X48082195Y-48190985D01*
X48184015Y-48292805D01*
X48303742Y-48372804D01*
X48436775Y-48427908D01*
X48578003Y-48456000D01*
X48721997Y-48456000D01*
X48863225Y-48427908D01*
X48996258Y-48372804D01*
X49115985Y-48292805D01*
X49123000Y-48285790D01*
X49123000Y-48848000D01*
X46850000Y-48848000D01*
X46825224Y-48850440D01*
X46801399Y-48857667D01*
X46779443Y-48869403D01*
X46760197Y-48885197D01*
X46744403Y-48904443D01*
X46732667Y-48926399D01*
X46725440Y-48950224D01*
X46723000Y-48975000D01*
X46723000Y-51348000D01*
X45900000Y-51348000D01*
X45875224Y-51350440D01*
X45851399Y-51357667D01*
X45829443Y-51369403D01*
X45810197Y-51385197D01*
X45794403Y-51404443D01*
X45782667Y-51426399D01*
X45775440Y-51450224D01*
X45773000Y-51475000D01*
X45773000Y-53673000D01*
X43851000Y-53673000D01*
X43851000Y-53543078D01*
X43820987Y-53392191D01*
X43762113Y-53250058D01*
X43676642Y-53122141D01*
X43567859Y-53013358D01*
X43439942Y-52927887D01*
X43297809Y-52869013D01*
X43146922Y-52839000D01*
X43064790Y-52839000D01*
X43147805Y-52755985D01*
X43227804Y-52636258D01*
X43282908Y-52503225D01*
X43311000Y-52361997D01*
X43311000Y-52218003D01*
X43282908Y-52076775D01*
X43227804Y-51943742D01*
X43147805Y-51824015D01*
X43105910Y-51782120D01*
X43105910Y-51082809D01*
X43167715Y-51021004D01*
X43247714Y-50901277D01*
X43302818Y-50768244D01*
X43330910Y-50627016D01*
X43330910Y-50483022D01*
X43302818Y-50341794D01*
X43247714Y-50208761D01*
X43167715Y-50089034D01*
X43065895Y-49987214D01*
X42946168Y-49907215D01*
X42813135Y-49852111D01*
X42671907Y-49824019D01*
X42527913Y-49824019D01*
X42386685Y-49852111D01*
X42253652Y-49907215D01*
X42133925Y-49987214D01*
X42032105Y-50089034D01*
X41952106Y-50208761D01*
X41897002Y-50341794D01*
X41868910Y-50483022D01*
X41868910Y-50627016D01*
X41897002Y-50768244D01*
X41952106Y-50901277D01*
X42032105Y-51021004D01*
X42093910Y-51082809D01*
X42093911Y-51742299D01*
X42012195Y-51824015D01*
X41932196Y-51943742D01*
X41877092Y-52076775D01*
X41849000Y-52218003D01*
X41849000Y-52361997D01*
X41877092Y-52503225D01*
X41932196Y-52636258D01*
X42012195Y-52755985D01*
X42114015Y-52857805D01*
X42233742Y-52937804D01*
X42366775Y-52992908D01*
X42508003Y-53021000D01*
X42564499Y-53021000D01*
X42463358Y-53122141D01*
X42377887Y-53250058D01*
X42319013Y-53392191D01*
X42289000Y-53543078D01*
X42289000Y-53678845D01*
X42276399Y-53682667D01*
X42254443Y-53694403D01*
X42235197Y-53710197D01*
X42219403Y-53729443D01*
X42207667Y-53751399D01*
X42200440Y-53775224D01*
X42198000Y-53800000D01*
X42198000Y-57544610D01*
X42021165Y-57544064D01*
X42021126Y-57544060D01*
X41997703Y-57543992D01*
X41981313Y-57543941D01*
X41981285Y-57543944D01*
X39201543Y-57535825D01*
X40814269Y-55923100D01*
X40838343Y-55903343D01*
X40864457Y-55871524D01*
X40917196Y-55807261D01*
X40975789Y-55697642D01*
X41011870Y-55578698D01*
X41013454Y-55562616D01*
X41021000Y-55485998D01*
X41021000Y-55485991D01*
X41024052Y-55455000D01*
X41021000Y-55424010D01*
X41021000Y-47931781D01*
X41047195Y-47970985D01*
X41149015Y-48072805D01*
X41268742Y-48152804D01*
X41401775Y-48207908D01*
X41543003Y-48236000D01*
X41686997Y-48236000D01*
X41828225Y-48207908D01*
X41961258Y-48152804D01*
X42080985Y-48072805D01*
X42182805Y-47970985D01*
X42262804Y-47851258D01*
X42317908Y-47718225D01*
X42346000Y-47576997D01*
X42346000Y-47433003D01*
X42317908Y-47291775D01*
X42262804Y-47158742D01*
X42182805Y-47039015D01*
X42080985Y-46937195D01*
X41961258Y-46857196D01*
X41828225Y-46802092D01*
X41686997Y-46774000D01*
X41543003Y-46774000D01*
X41401775Y-46802092D01*
X41268742Y-46857196D01*
X41149015Y-46937195D01*
X41047195Y-47039015D01*
X40984515Y-47132823D01*
X40975789Y-47104058D01*
X40917196Y-46994439D01*
X40858103Y-46922434D01*
X40858101Y-46922432D01*
X40838343Y-46898357D01*
X40814268Y-46878599D01*
X40015084Y-46079416D01*
X40009183Y-46049750D01*
X39954079Y-45916717D01*
X39874080Y-45796990D01*
X39772260Y-45695170D01*
X39652533Y-45615171D01*
X39519500Y-45560067D01*
X39378272Y-45531975D01*
X39234278Y-45531975D01*
X39093050Y-45560067D01*
X38960017Y-45615171D01*
X38840290Y-45695170D01*
X38738470Y-45796990D01*
X38658471Y-45916717D01*
X38603367Y-46049750D01*
X38575275Y-46190978D01*
X38575275Y-46334972D01*
X38603367Y-46476200D01*
X38658471Y-46609233D01*
X38738470Y-46728960D01*
X38840290Y-46830780D01*
X38960017Y-46910779D01*
X39093050Y-46965883D01*
X39122716Y-46971784D01*
X39759001Y-47608070D01*
X39759000Y-55193631D01*
X38383632Y-56569000D01*
X34670743Y-56569000D01*
X34717144Y-56456978D01*
X34751000Y-56286771D01*
X34751000Y-56113229D01*
X34717144Y-55943022D01*
X34650732Y-55782690D01*
X34611806Y-55724432D01*
X34640711Y-55700711D01*
X34688322Y-55642696D01*
X34723701Y-55576508D01*
X34745487Y-55504689D01*
X34752843Y-55430000D01*
X34752843Y-54608003D01*
X36959000Y-54608003D01*
X36959000Y-54751997D01*
X36987092Y-54893225D01*
X37042196Y-55026258D01*
X37122195Y-55145985D01*
X37224015Y-55247805D01*
X37343742Y-55327804D01*
X37476775Y-55382908D01*
X37618003Y-55411000D01*
X37761997Y-55411000D01*
X37903225Y-55382908D01*
X38036258Y-55327804D01*
X38155985Y-55247805D01*
X38257805Y-55145985D01*
X38337804Y-55026258D01*
X38392908Y-54893225D01*
X38421000Y-54751997D01*
X38421000Y-54608003D01*
X38392908Y-54466775D01*
X38337804Y-54333742D01*
X38257805Y-54214015D01*
X38155985Y-54112195D01*
X38036258Y-54032196D01*
X37903225Y-53977092D01*
X37761997Y-53949000D01*
X37618003Y-53949000D01*
X37476775Y-53977092D01*
X37343742Y-54032196D01*
X37224015Y-54112195D01*
X37122195Y-54214015D01*
X37042196Y-54333742D01*
X36987092Y-54466775D01*
X36959000Y-54608003D01*
X34752843Y-54608003D01*
X34752843Y-54430000D01*
X34745487Y-54355311D01*
X34723701Y-54283492D01*
X34688322Y-54217304D01*
X34640711Y-54159289D01*
X34582696Y-54111678D01*
X34516508Y-54076299D01*
X34444689Y-54054513D01*
X34370000Y-54047157D01*
X33370000Y-54047157D01*
X33315622Y-54052513D01*
X33160206Y-53942877D01*
X32956864Y-53852554D01*
X32901874Y-53835881D01*
X32727000Y-53962046D01*
X32727000Y-54803000D01*
X32747000Y-54803000D01*
X32747000Y-55057000D01*
X32727000Y-55057000D01*
X32727000Y-55077000D01*
X32473000Y-55077000D01*
X32473000Y-55057000D01*
X31457000Y-55057000D01*
X31457000Y-55077000D01*
X31203000Y-55077000D01*
X31203000Y-55057000D01*
X31183000Y-55057000D01*
X31183000Y-54803000D01*
X31203000Y-54803000D01*
X31203000Y-53962046D01*
X31457000Y-53962046D01*
X31457000Y-54803000D01*
X32473000Y-54803000D01*
X32473000Y-53962046D01*
X32298126Y-53835881D01*
X32243136Y-53852554D01*
X32039794Y-53942877D01*
X31965000Y-53995639D01*
X31890206Y-53942877D01*
X31686864Y-53852554D01*
X31631874Y-53835881D01*
X31457000Y-53962046D01*
X31203000Y-53962046D01*
X31028126Y-53835881D01*
X30973136Y-53852554D01*
X30769794Y-53942877D01*
X30587980Y-54071135D01*
X30499569Y-54164141D01*
X30477310Y-54149268D01*
X30316978Y-54082856D01*
X30146771Y-54049000D01*
X29973229Y-54049000D01*
X29803022Y-54082856D01*
X29642690Y-54149268D01*
X29620431Y-54164141D01*
X29532020Y-54071135D01*
X29350206Y-53942877D01*
X29146864Y-53852554D01*
X29091874Y-53835881D01*
X28917000Y-53962046D01*
X28917000Y-54803000D01*
X28937000Y-54803000D01*
X28937000Y-55057000D01*
X28917000Y-55057000D01*
X28917000Y-55077000D01*
X28663000Y-55077000D01*
X28663000Y-55057000D01*
X27820871Y-55057000D01*
X27695874Y-55231876D01*
X27775790Y-55439529D01*
X27894682Y-55627601D01*
X28022824Y-55762402D01*
X28009268Y-55782690D01*
X27942856Y-55943022D01*
X27909000Y-56113229D01*
X27909000Y-56286771D01*
X27942856Y-56456978D01*
X28009268Y-56617310D01*
X28105682Y-56761605D01*
X28159000Y-56814923D01*
X28159000Y-56879010D01*
X28155948Y-56910000D01*
X28159000Y-56940990D01*
X28159000Y-56940997D01*
X28168130Y-57033697D01*
X28204211Y-57152641D01*
X28262804Y-57262260D01*
X28341657Y-57358343D01*
X28365737Y-57378105D01*
X28494826Y-57507194D01*
X23270372Y-57494051D01*
X22940770Y-57461733D01*
X22643316Y-57371926D01*
X22368975Y-57226056D01*
X22128187Y-57029675D01*
X21930129Y-56790265D01*
X21782346Y-56516948D01*
X21690465Y-56220128D01*
X21678027Y-56101787D01*
X22002825Y-56101787D01*
X22002825Y-56298213D01*
X22041146Y-56490865D01*
X22116315Y-56672340D01*
X22225444Y-56835662D01*
X22364338Y-56974556D01*
X22527660Y-57083685D01*
X22709135Y-57158854D01*
X22901787Y-57197175D01*
X23098213Y-57197175D01*
X23290865Y-57158854D01*
X23472340Y-57083685D01*
X23635662Y-56974556D01*
X23774556Y-56835662D01*
X23883685Y-56672340D01*
X23958854Y-56490865D01*
X23997175Y-56298213D01*
X23997175Y-56101787D01*
X23958854Y-55909135D01*
X23883685Y-55727660D01*
X23774556Y-55564338D01*
X23635662Y-55425444D01*
X23472340Y-55316315D01*
X23290865Y-55241146D01*
X23098213Y-55202825D01*
X22901787Y-55202825D01*
X22709135Y-55241146D01*
X22527660Y-55316315D01*
X22364338Y-55425444D01*
X22225444Y-55564338D01*
X22116315Y-55727660D01*
X22041146Y-55909135D01*
X22002825Y-56101787D01*
X21678027Y-56101787D01*
X21656000Y-55892218D01*
X21656000Y-54633205D01*
X21660866Y-54639134D01*
X21840697Y-54786717D01*
X22045864Y-54896381D01*
X22268484Y-54963912D01*
X22441984Y-54981000D01*
X22908016Y-54981000D01*
X23081516Y-54963912D01*
X23304136Y-54896381D01*
X23509303Y-54786717D01*
X23689134Y-54639134D01*
X23698169Y-54628124D01*
X27695874Y-54628124D01*
X27820871Y-54803000D01*
X28663000Y-54803000D01*
X28663000Y-53962046D01*
X28488126Y-53835881D01*
X28433136Y-53852554D01*
X28229794Y-53942877D01*
X28047980Y-54071135D01*
X27894682Y-54232399D01*
X27775790Y-54420471D01*
X27695874Y-54628124D01*
X23698169Y-54628124D01*
X23836717Y-54459303D01*
X23946381Y-54254136D01*
X24013912Y-54031516D01*
X24036714Y-53800000D01*
X24013912Y-53568484D01*
X23946381Y-53345864D01*
X23836717Y-53140697D01*
X23689134Y-52960866D01*
X23509303Y-52813283D01*
X23304136Y-52703619D01*
X23081516Y-52636088D01*
X22908016Y-52619000D01*
X22441984Y-52619000D01*
X22268484Y-52636088D01*
X22045864Y-52703619D01*
X21840697Y-52813283D01*
X21660866Y-52960866D01*
X21656000Y-52966795D01*
X21656000Y-49478003D01*
X26319000Y-49478003D01*
X26319000Y-49621997D01*
X26347092Y-49763225D01*
X26402196Y-49896258D01*
X26462227Y-49986101D01*
X26464211Y-49992641D01*
X26522804Y-50102260D01*
X26601657Y-50198343D01*
X26625737Y-50218105D01*
X27975734Y-51568103D01*
X28047738Y-51627195D01*
X28157358Y-51685788D01*
X28276302Y-51721869D01*
X28321605Y-51726331D01*
X28353742Y-51747804D01*
X28486775Y-51802908D01*
X28628003Y-51831000D01*
X28771997Y-51831000D01*
X28913225Y-51802908D01*
X29046258Y-51747804D01*
X29165985Y-51667805D01*
X29267805Y-51565985D01*
X29347804Y-51446258D01*
X29402908Y-51313225D01*
X29431000Y-51171997D01*
X29431000Y-51028003D01*
X29402908Y-50886775D01*
X29347804Y-50753742D01*
X29267805Y-50634015D01*
X29165985Y-50532195D01*
X29046258Y-50452196D01*
X28913225Y-50397092D01*
X28771997Y-50369000D01*
X28628003Y-50369000D01*
X28572424Y-50380055D01*
X27781000Y-49588632D01*
X27781000Y-49478003D01*
X27752908Y-49336775D01*
X27726524Y-49273078D01*
X31919000Y-49273078D01*
X31919000Y-49426922D01*
X31949013Y-49577809D01*
X32007887Y-49719942D01*
X32093358Y-49847859D01*
X32202141Y-49956642D01*
X32330058Y-50042113D01*
X32472191Y-50100987D01*
X32623078Y-50131000D01*
X32776922Y-50131000D01*
X32927809Y-50100987D01*
X33069942Y-50042113D01*
X33137500Y-49996972D01*
X33205058Y-50042113D01*
X33347191Y-50100987D01*
X33498078Y-50131000D01*
X33651922Y-50131000D01*
X33802809Y-50100987D01*
X33944942Y-50042113D01*
X34012500Y-49996972D01*
X34080058Y-50042113D01*
X34222191Y-50100987D01*
X34373078Y-50131000D01*
X34526922Y-50131000D01*
X34677809Y-50100987D01*
X34819942Y-50042113D01*
X34947859Y-49956642D01*
X35056642Y-49847859D01*
X35142113Y-49719942D01*
X35200987Y-49577809D01*
X35231000Y-49426922D01*
X35231000Y-49273078D01*
X35200987Y-49122191D01*
X35142113Y-48980058D01*
X35096972Y-48912500D01*
X35142113Y-48844942D01*
X35200987Y-48702809D01*
X35231000Y-48551922D01*
X35231000Y-48398078D01*
X35200987Y-48247191D01*
X35142113Y-48105058D01*
X35056642Y-47977141D01*
X34947859Y-47868358D01*
X34819942Y-47782887D01*
X34677809Y-47724013D01*
X34526922Y-47694000D01*
X34373078Y-47694000D01*
X34222191Y-47724013D01*
X34080058Y-47782887D01*
X33952141Y-47868358D01*
X33843358Y-47977141D01*
X33757887Y-48105058D01*
X33699013Y-48247191D01*
X33669000Y-48398078D01*
X33669000Y-48551922D01*
X33673240Y-48573240D01*
X33651922Y-48569000D01*
X33498078Y-48569000D01*
X33347191Y-48599013D01*
X33205058Y-48657887D01*
X33137500Y-48703028D01*
X33069942Y-48657887D01*
X32927809Y-48599013D01*
X32776922Y-48569000D01*
X32623078Y-48569000D01*
X32472191Y-48599013D01*
X32330058Y-48657887D01*
X32202141Y-48743358D01*
X32093358Y-48852141D01*
X32007887Y-48980058D01*
X31949013Y-49122191D01*
X31919000Y-49273078D01*
X27726524Y-49273078D01*
X27697804Y-49203742D01*
X27617805Y-49084015D01*
X27515985Y-48982195D01*
X27396258Y-48902196D01*
X27263225Y-48847092D01*
X27121997Y-48819000D01*
X26978003Y-48819000D01*
X26836775Y-48847092D01*
X26703742Y-48902196D01*
X26584015Y-48982195D01*
X26482195Y-49084015D01*
X26402196Y-49203742D01*
X26347092Y-49336775D01*
X26319000Y-49478003D01*
X21656000Y-49478003D01*
X21656000Y-48033205D01*
X21660866Y-48039134D01*
X21840697Y-48186717D01*
X22045864Y-48296381D01*
X22268484Y-48363912D01*
X22441984Y-48381000D01*
X22908016Y-48381000D01*
X23081516Y-48363912D01*
X23304136Y-48296381D01*
X23509303Y-48186717D01*
X23689134Y-48039134D01*
X23836717Y-47859303D01*
X23946381Y-47654136D01*
X24013912Y-47431516D01*
X24036714Y-47200000D01*
X24017805Y-47008003D01*
X36909000Y-47008003D01*
X36909000Y-47151997D01*
X36937092Y-47293225D01*
X36992196Y-47426258D01*
X37072195Y-47545985D01*
X37174015Y-47647805D01*
X37293742Y-47727804D01*
X37426775Y-47782908D01*
X37568003Y-47811000D01*
X37711997Y-47811000D01*
X37853225Y-47782908D01*
X37986258Y-47727804D01*
X38105985Y-47647805D01*
X38207805Y-47545985D01*
X38287804Y-47426258D01*
X38342908Y-47293225D01*
X38371000Y-47151997D01*
X38371000Y-47008003D01*
X38342908Y-46866775D01*
X38287804Y-46733742D01*
X38207805Y-46614015D01*
X38105985Y-46512195D01*
X37986258Y-46432196D01*
X37853225Y-46377092D01*
X37711997Y-46349000D01*
X37568003Y-46349000D01*
X37426775Y-46377092D01*
X37293742Y-46432196D01*
X37174015Y-46512195D01*
X37072195Y-46614015D01*
X36992196Y-46733742D01*
X36937092Y-46866775D01*
X36909000Y-47008003D01*
X24017805Y-47008003D01*
X24013912Y-46968484D01*
X23946381Y-46745864D01*
X23836717Y-46540697D01*
X23689134Y-46360866D01*
X23509303Y-46213283D01*
X23304136Y-46103619D01*
X23081516Y-46036088D01*
X22908016Y-46019000D01*
X22441984Y-46019000D01*
X22268484Y-46036088D01*
X22045864Y-46103619D01*
X21840697Y-46213283D01*
X21660866Y-46360866D01*
X21656000Y-46366795D01*
X21656000Y-45019854D01*
X21688267Y-44690771D01*
X21778075Y-44393312D01*
X21802126Y-44348078D01*
X43969000Y-44348078D01*
X43969000Y-44501922D01*
X43999013Y-44652809D01*
X44057887Y-44794942D01*
X44143358Y-44922859D01*
X44252141Y-45031642D01*
X44380058Y-45117113D01*
X44522191Y-45175987D01*
X44673078Y-45206000D01*
X44826922Y-45206000D01*
X44977809Y-45175987D01*
X45119942Y-45117113D01*
X45247859Y-45031642D01*
X45356642Y-44922859D01*
X45442113Y-44794942D01*
X45500987Y-44652809D01*
X45531000Y-44501922D01*
X45531000Y-44348078D01*
X45500987Y-44197191D01*
X45442113Y-44055058D01*
X45356642Y-43927141D01*
X45247859Y-43818358D01*
X45119942Y-43732887D01*
X44977809Y-43674013D01*
X44826922Y-43644000D01*
X44673078Y-43644000D01*
X44522191Y-43674013D01*
X44380058Y-43732887D01*
X44252141Y-43818358D01*
X44143358Y-43927141D01*
X44057887Y-44055058D01*
X43999013Y-44197191D01*
X43969000Y-44348078D01*
X21802126Y-44348078D01*
X21923945Y-44118972D01*
X22120325Y-43878187D01*
X22359736Y-43680127D01*
X22633053Y-43532346D01*
X22929872Y-43440465D01*
X23257782Y-43406000D01*
X28419941Y-43406000D01*
X28437039Y-43404316D01*
X28438191Y-43404324D01*
X28443833Y-43403771D01*
X28462628Y-43401796D01*
X28479590Y-43400125D01*
X28480155Y-43399954D01*
X28482653Y-43399691D01*
X28518733Y-43392285D01*
X28554844Y-43385397D01*
X28560269Y-43383760D01*
X28560272Y-43383759D01*
X28560277Y-43383757D01*
X28597559Y-43372217D01*
X28631535Y-43357935D01*
X28665597Y-43344173D01*
X28670595Y-43341516D01*
X28670605Y-43341512D01*
X28670613Y-43341507D01*
X28704940Y-43322947D01*
X28735479Y-43302349D01*
X28766245Y-43282215D01*
X28770622Y-43278645D01*
X28770631Y-43278639D01*
X28770638Y-43278632D01*
X28800713Y-43253751D01*
X28826648Y-43227634D01*
X28852930Y-43201896D01*
X28856544Y-43197528D01*
X28859288Y-43194164D01*
X28910626Y-43228467D01*
X29060225Y-43290433D01*
X29219038Y-43322023D01*
X29380962Y-43322023D01*
X29539775Y-43290433D01*
X29689374Y-43228467D01*
X29824009Y-43138507D01*
X29870154Y-43092362D01*
X29929953Y-43092469D01*
G37*
X29929953Y-43092469D02*
X29975991Y-43138507D01*
X30110626Y-43228467D01*
X30260225Y-43290433D01*
X30419038Y-43322023D01*
X30580962Y-43322023D01*
X30739775Y-43290433D01*
X30889374Y-43228467D01*
X31024009Y-43138507D01*
X31068013Y-43094503D01*
X31132102Y-43094618D01*
X31175991Y-43138507D01*
X31310626Y-43228467D01*
X31460225Y-43290433D01*
X31619038Y-43322023D01*
X31780962Y-43322023D01*
X31939775Y-43290433D01*
X32089374Y-43228467D01*
X32224009Y-43138507D01*
X32265872Y-43096644D01*
X32334250Y-43096766D01*
X32375991Y-43138507D01*
X32510626Y-43228467D01*
X32660225Y-43290433D01*
X32819038Y-43322023D01*
X32980962Y-43322023D01*
X33139775Y-43290433D01*
X33289374Y-43228467D01*
X33340789Y-43194113D01*
X33346249Y-43200713D01*
X33372366Y-43226648D01*
X33398104Y-43252930D01*
X33402472Y-43256544D01*
X33432721Y-43281214D01*
X33463402Y-43301598D01*
X33493729Y-43322363D01*
X33498715Y-43325060D01*
X33533179Y-43343385D01*
X33567228Y-43357419D01*
X33601021Y-43371903D01*
X33606437Y-43373580D01*
X33643804Y-43384862D01*
X33679934Y-43392016D01*
X33715896Y-43399660D01*
X33721530Y-43400253D01*
X33721534Y-43400253D01*
X33760381Y-43404062D01*
X33760382Y-43404062D01*
X33780059Y-43406000D01*
X42919941Y-43406000D01*
X42937039Y-43404316D01*
X42938191Y-43404324D01*
X42943833Y-43403771D01*
X42962628Y-43401796D01*
X42979590Y-43400125D01*
X42980155Y-43399954D01*
X42982653Y-43399691D01*
X43018733Y-43392285D01*
X43054844Y-43385397D01*
X43060269Y-43383760D01*
X43060272Y-43383759D01*
X43060277Y-43383757D01*
X43097559Y-43372217D01*
X43131535Y-43357935D01*
X43165597Y-43344173D01*
X43170595Y-43341516D01*
X43170605Y-43341512D01*
X43170613Y-43341507D01*
X43204940Y-43322947D01*
X43235479Y-43302349D01*
X43266245Y-43282215D01*
X43270622Y-43278645D01*
X43270631Y-43278639D01*
X43270638Y-43278632D01*
X43300713Y-43253751D01*
X43326648Y-43227634D01*
X43352930Y-43201896D01*
X43356544Y-43197528D01*
X43359288Y-43194164D01*
X43410626Y-43228467D01*
X43560225Y-43290433D01*
X43719038Y-43322023D01*
X43880962Y-43322023D01*
X44039775Y-43290433D01*
X44189374Y-43228467D01*
X44324009Y-43138507D01*
X44344284Y-43118232D01*
X44455915Y-43118431D01*
X44475991Y-43138507D01*
X44610626Y-43228467D01*
X44760225Y-43290433D01*
X44919038Y-43322023D01*
X45080962Y-43322023D01*
X45239775Y-43290433D01*
X45389374Y-43228467D01*
X45524009Y-43138507D01*
X45542143Y-43120373D01*
X45658064Y-43120580D01*
X45675991Y-43138507D01*
X45810626Y-43228467D01*
X45960225Y-43290433D01*
X46119038Y-43322023D01*
X46280962Y-43322023D01*
X46439775Y-43290433D01*
X46589374Y-43228467D01*
X46724009Y-43138507D01*
X46740002Y-43122514D01*
X46860213Y-43122729D01*
X46875991Y-43138507D01*
X47010626Y-43228467D01*
X47160225Y-43290433D01*
X47319038Y-43322023D01*
X47480962Y-43322023D01*
X47639775Y-43290433D01*
X47789374Y-43228467D01*
X47840789Y-43194113D01*
X47846249Y-43200713D01*
X47872366Y-43226648D01*
X47898104Y-43252930D01*
X47902472Y-43256544D01*
X47932721Y-43281214D01*
X47963402Y-43301598D01*
X47993729Y-43322363D01*
X47998715Y-43325060D01*
X48033179Y-43343385D01*
X48067228Y-43357419D01*
X48101021Y-43371903D01*
X48106437Y-43373580D01*
X48143804Y-43384862D01*
X48179934Y-43392016D01*
X48215896Y-43399660D01*
X48221530Y-43400253D01*
X48221534Y-43400253D01*
X48260381Y-43404062D01*
X48260382Y-43404062D01*
X48280059Y-43406000D01*
X49123000Y-43406000D01*
X49123000Y-47164210D01*
X49115985Y-47157195D01*
X48996258Y-47077196D01*
X48863225Y-47022092D01*
X48721997Y-46994000D01*
X48578003Y-46994000D01*
X48436775Y-47022092D01*
X48303742Y-47077196D01*
X48184015Y-47157195D01*
X48082195Y-47259015D01*
X48002196Y-47378742D01*
X47947092Y-47511775D01*
X47919000Y-47653003D01*
X47919000Y-47796997D01*
X47947092Y-47938225D01*
X48002196Y-48071258D01*
X48082195Y-48190985D01*
X48184015Y-48292805D01*
X48303742Y-48372804D01*
X48436775Y-48427908D01*
X48578003Y-48456000D01*
X48721997Y-48456000D01*
X48863225Y-48427908D01*
X48996258Y-48372804D01*
X49115985Y-48292805D01*
X49123000Y-48285790D01*
X49123000Y-48848000D01*
X46850000Y-48848000D01*
X46825224Y-48850440D01*
X46801399Y-48857667D01*
X46779443Y-48869403D01*
X46760197Y-48885197D01*
X46744403Y-48904443D01*
X46732667Y-48926399D01*
X46725440Y-48950224D01*
X46723000Y-48975000D01*
X46723000Y-51348000D01*
X45900000Y-51348000D01*
X45875224Y-51350440D01*
X45851399Y-51357667D01*
X45829443Y-51369403D01*
X45810197Y-51385197D01*
X45794403Y-51404443D01*
X45782667Y-51426399D01*
X45775440Y-51450224D01*
X45773000Y-51475000D01*
X45773000Y-53673000D01*
X43851000Y-53673000D01*
X43851000Y-53543078D01*
X43820987Y-53392191D01*
X43762113Y-53250058D01*
X43676642Y-53122141D01*
X43567859Y-53013358D01*
X43439942Y-52927887D01*
X43297809Y-52869013D01*
X43146922Y-52839000D01*
X43064790Y-52839000D01*
X43147805Y-52755985D01*
X43227804Y-52636258D01*
X43282908Y-52503225D01*
X43311000Y-52361997D01*
X43311000Y-52218003D01*
X43282908Y-52076775D01*
X43227804Y-51943742D01*
X43147805Y-51824015D01*
X43105910Y-51782120D01*
X43105910Y-51082809D01*
X43167715Y-51021004D01*
X43247714Y-50901277D01*
X43302818Y-50768244D01*
X43330910Y-50627016D01*
X43330910Y-50483022D01*
X43302818Y-50341794D01*
X43247714Y-50208761D01*
X43167715Y-50089034D01*
X43065895Y-49987214D01*
X42946168Y-49907215D01*
X42813135Y-49852111D01*
X42671907Y-49824019D01*
X42527913Y-49824019D01*
X42386685Y-49852111D01*
X42253652Y-49907215D01*
X42133925Y-49987214D01*
X42032105Y-50089034D01*
X41952106Y-50208761D01*
X41897002Y-50341794D01*
X41868910Y-50483022D01*
X41868910Y-50627016D01*
X41897002Y-50768244D01*
X41952106Y-50901277D01*
X42032105Y-51021004D01*
X42093910Y-51082809D01*
X42093911Y-51742299D01*
X42012195Y-51824015D01*
X41932196Y-51943742D01*
X41877092Y-52076775D01*
X41849000Y-52218003D01*
X41849000Y-52361997D01*
X41877092Y-52503225D01*
X41932196Y-52636258D01*
X42012195Y-52755985D01*
X42114015Y-52857805D01*
X42233742Y-52937804D01*
X42366775Y-52992908D01*
X42508003Y-53021000D01*
X42564499Y-53021000D01*
X42463358Y-53122141D01*
X42377887Y-53250058D01*
X42319013Y-53392191D01*
X42289000Y-53543078D01*
X42289000Y-53678845D01*
X42276399Y-53682667D01*
X42254443Y-53694403D01*
X42235197Y-53710197D01*
X42219403Y-53729443D01*
X42207667Y-53751399D01*
X42200440Y-53775224D01*
X42198000Y-53800000D01*
X42198000Y-57544610D01*
X42021165Y-57544064D01*
X42021126Y-57544060D01*
X41997703Y-57543992D01*
X41981313Y-57543941D01*
X41981285Y-57543944D01*
X39201543Y-57535825D01*
X40814269Y-55923100D01*
X40838343Y-55903343D01*
X40864457Y-55871524D01*
X40917196Y-55807261D01*
X40975789Y-55697642D01*
X41011870Y-55578698D01*
X41013454Y-55562616D01*
X41021000Y-55485998D01*
X41021000Y-55485991D01*
X41024052Y-55455000D01*
X41021000Y-55424010D01*
X41021000Y-47931781D01*
X41047195Y-47970985D01*
X41149015Y-48072805D01*
X41268742Y-48152804D01*
X41401775Y-48207908D01*
X41543003Y-48236000D01*
X41686997Y-48236000D01*
X41828225Y-48207908D01*
X41961258Y-48152804D01*
X42080985Y-48072805D01*
X42182805Y-47970985D01*
X42262804Y-47851258D01*
X42317908Y-47718225D01*
X42346000Y-47576997D01*
X42346000Y-47433003D01*
X42317908Y-47291775D01*
X42262804Y-47158742D01*
X42182805Y-47039015D01*
X42080985Y-46937195D01*
X41961258Y-46857196D01*
X41828225Y-46802092D01*
X41686997Y-46774000D01*
X41543003Y-46774000D01*
X41401775Y-46802092D01*
X41268742Y-46857196D01*
X41149015Y-46937195D01*
X41047195Y-47039015D01*
X40984515Y-47132823D01*
X40975789Y-47104058D01*
X40917196Y-46994439D01*
X40858103Y-46922434D01*
X40858101Y-46922432D01*
X40838343Y-46898357D01*
X40814268Y-46878599D01*
X40015084Y-46079416D01*
X40009183Y-46049750D01*
X39954079Y-45916717D01*
X39874080Y-45796990D01*
X39772260Y-45695170D01*
X39652533Y-45615171D01*
X39519500Y-45560067D01*
X39378272Y-45531975D01*
X39234278Y-45531975D01*
X39093050Y-45560067D01*
X38960017Y-45615171D01*
X38840290Y-45695170D01*
X38738470Y-45796990D01*
X38658471Y-45916717D01*
X38603367Y-46049750D01*
X38575275Y-46190978D01*
X38575275Y-46334972D01*
X38603367Y-46476200D01*
X38658471Y-46609233D01*
X38738470Y-46728960D01*
X38840290Y-46830780D01*
X38960017Y-46910779D01*
X39093050Y-46965883D01*
X39122716Y-46971784D01*
X39759001Y-47608070D01*
X39759000Y-55193631D01*
X38383632Y-56569000D01*
X34670743Y-56569000D01*
X34717144Y-56456978D01*
X34751000Y-56286771D01*
X34751000Y-56113229D01*
X34717144Y-55943022D01*
X34650732Y-55782690D01*
X34611806Y-55724432D01*
X34640711Y-55700711D01*
X34688322Y-55642696D01*
X34723701Y-55576508D01*
X34745487Y-55504689D01*
X34752843Y-55430000D01*
X34752843Y-54608003D01*
X36959000Y-54608003D01*
X36959000Y-54751997D01*
X36987092Y-54893225D01*
X37042196Y-55026258D01*
X37122195Y-55145985D01*
X37224015Y-55247805D01*
X37343742Y-55327804D01*
X37476775Y-55382908D01*
X37618003Y-55411000D01*
X37761997Y-55411000D01*
X37903225Y-55382908D01*
X38036258Y-55327804D01*
X38155985Y-55247805D01*
X38257805Y-55145985D01*
X38337804Y-55026258D01*
X38392908Y-54893225D01*
X38421000Y-54751997D01*
X38421000Y-54608003D01*
X38392908Y-54466775D01*
X38337804Y-54333742D01*
X38257805Y-54214015D01*
X38155985Y-54112195D01*
X38036258Y-54032196D01*
X37903225Y-53977092D01*
X37761997Y-53949000D01*
X37618003Y-53949000D01*
X37476775Y-53977092D01*
X37343742Y-54032196D01*
X37224015Y-54112195D01*
X37122195Y-54214015D01*
X37042196Y-54333742D01*
X36987092Y-54466775D01*
X36959000Y-54608003D01*
X34752843Y-54608003D01*
X34752843Y-54430000D01*
X34745487Y-54355311D01*
X34723701Y-54283492D01*
X34688322Y-54217304D01*
X34640711Y-54159289D01*
X34582696Y-54111678D01*
X34516508Y-54076299D01*
X34444689Y-54054513D01*
X34370000Y-54047157D01*
X33370000Y-54047157D01*
X33315622Y-54052513D01*
X33160206Y-53942877D01*
X32956864Y-53852554D01*
X32901874Y-53835881D01*
X32727000Y-53962046D01*
X32727000Y-54803000D01*
X32747000Y-54803000D01*
X32747000Y-55057000D01*
X32727000Y-55057000D01*
X32727000Y-55077000D01*
X32473000Y-55077000D01*
X32473000Y-55057000D01*
X31457000Y-55057000D01*
X31457000Y-55077000D01*
X31203000Y-55077000D01*
X31203000Y-55057000D01*
X31183000Y-55057000D01*
X31183000Y-54803000D01*
X31203000Y-54803000D01*
X31203000Y-53962046D01*
X31457000Y-53962046D01*
X31457000Y-54803000D01*
X32473000Y-54803000D01*
X32473000Y-53962046D01*
X32298126Y-53835881D01*
X32243136Y-53852554D01*
X32039794Y-53942877D01*
X31965000Y-53995639D01*
X31890206Y-53942877D01*
X31686864Y-53852554D01*
X31631874Y-53835881D01*
X31457000Y-53962046D01*
X31203000Y-53962046D01*
X31028126Y-53835881D01*
X30973136Y-53852554D01*
X30769794Y-53942877D01*
X30587980Y-54071135D01*
X30499569Y-54164141D01*
X30477310Y-54149268D01*
X30316978Y-54082856D01*
X30146771Y-54049000D01*
X29973229Y-54049000D01*
X29803022Y-54082856D01*
X29642690Y-54149268D01*
X29620431Y-54164141D01*
X29532020Y-54071135D01*
X29350206Y-53942877D01*
X29146864Y-53852554D01*
X29091874Y-53835881D01*
X28917000Y-53962046D01*
X28917000Y-54803000D01*
X28937000Y-54803000D01*
X28937000Y-55057000D01*
X28917000Y-55057000D01*
X28917000Y-55077000D01*
X28663000Y-55077000D01*
X28663000Y-55057000D01*
X27820871Y-55057000D01*
X27695874Y-55231876D01*
X27775790Y-55439529D01*
X27894682Y-55627601D01*
X28022824Y-55762402D01*
X28009268Y-55782690D01*
X27942856Y-55943022D01*
X27909000Y-56113229D01*
X27909000Y-56286771D01*
X27942856Y-56456978D01*
X28009268Y-56617310D01*
X28105682Y-56761605D01*
X28159000Y-56814923D01*
X28159000Y-56879010D01*
X28155948Y-56910000D01*
X28159000Y-56940990D01*
X28159000Y-56940997D01*
X28168130Y-57033697D01*
X28204211Y-57152641D01*
X28262804Y-57262260D01*
X28341657Y-57358343D01*
X28365737Y-57378105D01*
X28494826Y-57507194D01*
X23270372Y-57494051D01*
X22940770Y-57461733D01*
X22643316Y-57371926D01*
X22368975Y-57226056D01*
X22128187Y-57029675D01*
X21930129Y-56790265D01*
X21782346Y-56516948D01*
X21690465Y-56220128D01*
X21678027Y-56101787D01*
X22002825Y-56101787D01*
X22002825Y-56298213D01*
X22041146Y-56490865D01*
X22116315Y-56672340D01*
X22225444Y-56835662D01*
X22364338Y-56974556D01*
X22527660Y-57083685D01*
X22709135Y-57158854D01*
X22901787Y-57197175D01*
X23098213Y-57197175D01*
X23290865Y-57158854D01*
X23472340Y-57083685D01*
X23635662Y-56974556D01*
X23774556Y-56835662D01*
X23883685Y-56672340D01*
X23958854Y-56490865D01*
X23997175Y-56298213D01*
X23997175Y-56101787D01*
X23958854Y-55909135D01*
X23883685Y-55727660D01*
X23774556Y-55564338D01*
X23635662Y-55425444D01*
X23472340Y-55316315D01*
X23290865Y-55241146D01*
X23098213Y-55202825D01*
X22901787Y-55202825D01*
X22709135Y-55241146D01*
X22527660Y-55316315D01*
X22364338Y-55425444D01*
X22225444Y-55564338D01*
X22116315Y-55727660D01*
X22041146Y-55909135D01*
X22002825Y-56101787D01*
X21678027Y-56101787D01*
X21656000Y-55892218D01*
X21656000Y-54633205D01*
X21660866Y-54639134D01*
X21840697Y-54786717D01*
X22045864Y-54896381D01*
X22268484Y-54963912D01*
X22441984Y-54981000D01*
X22908016Y-54981000D01*
X23081516Y-54963912D01*
X23304136Y-54896381D01*
X23509303Y-54786717D01*
X23689134Y-54639134D01*
X23698169Y-54628124D01*
X27695874Y-54628124D01*
X27820871Y-54803000D01*
X28663000Y-54803000D01*
X28663000Y-53962046D01*
X28488126Y-53835881D01*
X28433136Y-53852554D01*
X28229794Y-53942877D01*
X28047980Y-54071135D01*
X27894682Y-54232399D01*
X27775790Y-54420471D01*
X27695874Y-54628124D01*
X23698169Y-54628124D01*
X23836717Y-54459303D01*
X23946381Y-54254136D01*
X24013912Y-54031516D01*
X24036714Y-53800000D01*
X24013912Y-53568484D01*
X23946381Y-53345864D01*
X23836717Y-53140697D01*
X23689134Y-52960866D01*
X23509303Y-52813283D01*
X23304136Y-52703619D01*
X23081516Y-52636088D01*
X22908016Y-52619000D01*
X22441984Y-52619000D01*
X22268484Y-52636088D01*
X22045864Y-52703619D01*
X21840697Y-52813283D01*
X21660866Y-52960866D01*
X21656000Y-52966795D01*
X21656000Y-49478003D01*
X26319000Y-49478003D01*
X26319000Y-49621997D01*
X26347092Y-49763225D01*
X26402196Y-49896258D01*
X26462227Y-49986101D01*
X26464211Y-49992641D01*
X26522804Y-50102260D01*
X26601657Y-50198343D01*
X26625737Y-50218105D01*
X27975734Y-51568103D01*
X28047738Y-51627195D01*
X28157358Y-51685788D01*
X28276302Y-51721869D01*
X28321605Y-51726331D01*
X28353742Y-51747804D01*
X28486775Y-51802908D01*
X28628003Y-51831000D01*
X28771997Y-51831000D01*
X28913225Y-51802908D01*
X29046258Y-51747804D01*
X29165985Y-51667805D01*
X29267805Y-51565985D01*
X29347804Y-51446258D01*
X29402908Y-51313225D01*
X29431000Y-51171997D01*
X29431000Y-51028003D01*
X29402908Y-50886775D01*
X29347804Y-50753742D01*
X29267805Y-50634015D01*
X29165985Y-50532195D01*
X29046258Y-50452196D01*
X28913225Y-50397092D01*
X28771997Y-50369000D01*
X28628003Y-50369000D01*
X28572424Y-50380055D01*
X27781000Y-49588632D01*
X27781000Y-49478003D01*
X27752908Y-49336775D01*
X27726524Y-49273078D01*
X31919000Y-49273078D01*
X31919000Y-49426922D01*
X31949013Y-49577809D01*
X32007887Y-49719942D01*
X32093358Y-49847859D01*
X32202141Y-49956642D01*
X32330058Y-50042113D01*
X32472191Y-50100987D01*
X32623078Y-50131000D01*
X32776922Y-50131000D01*
X32927809Y-50100987D01*
X33069942Y-50042113D01*
X33137500Y-49996972D01*
X33205058Y-50042113D01*
X33347191Y-50100987D01*
X33498078Y-50131000D01*
X33651922Y-50131000D01*
X33802809Y-50100987D01*
X33944942Y-50042113D01*
X34012500Y-49996972D01*
X34080058Y-50042113D01*
X34222191Y-50100987D01*
X34373078Y-50131000D01*
X34526922Y-50131000D01*
X34677809Y-50100987D01*
X34819942Y-50042113D01*
X34947859Y-49956642D01*
X35056642Y-49847859D01*
X35142113Y-49719942D01*
X35200987Y-49577809D01*
X35231000Y-49426922D01*
X35231000Y-49273078D01*
X35200987Y-49122191D01*
X35142113Y-48980058D01*
X35096972Y-48912500D01*
X35142113Y-48844942D01*
X35200987Y-48702809D01*
X35231000Y-48551922D01*
X35231000Y-48398078D01*
X35200987Y-48247191D01*
X35142113Y-48105058D01*
X35056642Y-47977141D01*
X34947859Y-47868358D01*
X34819942Y-47782887D01*
X34677809Y-47724013D01*
X34526922Y-47694000D01*
X34373078Y-47694000D01*
X34222191Y-47724013D01*
X34080058Y-47782887D01*
X33952141Y-47868358D01*
X33843358Y-47977141D01*
X33757887Y-48105058D01*
X33699013Y-48247191D01*
X33669000Y-48398078D01*
X33669000Y-48551922D01*
X33673240Y-48573240D01*
X33651922Y-48569000D01*
X33498078Y-48569000D01*
X33347191Y-48599013D01*
X33205058Y-48657887D01*
X33137500Y-48703028D01*
X33069942Y-48657887D01*
X32927809Y-48599013D01*
X32776922Y-48569000D01*
X32623078Y-48569000D01*
X32472191Y-48599013D01*
X32330058Y-48657887D01*
X32202141Y-48743358D01*
X32093358Y-48852141D01*
X32007887Y-48980058D01*
X31949013Y-49122191D01*
X31919000Y-49273078D01*
X27726524Y-49273078D01*
X27697804Y-49203742D01*
X27617805Y-49084015D01*
X27515985Y-48982195D01*
X27396258Y-48902196D01*
X27263225Y-48847092D01*
X27121997Y-48819000D01*
X26978003Y-48819000D01*
X26836775Y-48847092D01*
X26703742Y-48902196D01*
X26584015Y-48982195D01*
X26482195Y-49084015D01*
X26402196Y-49203742D01*
X26347092Y-49336775D01*
X26319000Y-49478003D01*
X21656000Y-49478003D01*
X21656000Y-48033205D01*
X21660866Y-48039134D01*
X21840697Y-48186717D01*
X22045864Y-48296381D01*
X22268484Y-48363912D01*
X22441984Y-48381000D01*
X22908016Y-48381000D01*
X23081516Y-48363912D01*
X23304136Y-48296381D01*
X23509303Y-48186717D01*
X23689134Y-48039134D01*
X23836717Y-47859303D01*
X23946381Y-47654136D01*
X24013912Y-47431516D01*
X24036714Y-47200000D01*
X24017805Y-47008003D01*
X36909000Y-47008003D01*
X36909000Y-47151997D01*
X36937092Y-47293225D01*
X36992196Y-47426258D01*
X37072195Y-47545985D01*
X37174015Y-47647805D01*
X37293742Y-47727804D01*
X37426775Y-47782908D01*
X37568003Y-47811000D01*
X37711997Y-47811000D01*
X37853225Y-47782908D01*
X37986258Y-47727804D01*
X38105985Y-47647805D01*
X38207805Y-47545985D01*
X38287804Y-47426258D01*
X38342908Y-47293225D01*
X38371000Y-47151997D01*
X38371000Y-47008003D01*
X38342908Y-46866775D01*
X38287804Y-46733742D01*
X38207805Y-46614015D01*
X38105985Y-46512195D01*
X37986258Y-46432196D01*
X37853225Y-46377092D01*
X37711997Y-46349000D01*
X37568003Y-46349000D01*
X37426775Y-46377092D01*
X37293742Y-46432196D01*
X37174015Y-46512195D01*
X37072195Y-46614015D01*
X36992196Y-46733742D01*
X36937092Y-46866775D01*
X36909000Y-47008003D01*
X24017805Y-47008003D01*
X24013912Y-46968484D01*
X23946381Y-46745864D01*
X23836717Y-46540697D01*
X23689134Y-46360866D01*
X23509303Y-46213283D01*
X23304136Y-46103619D01*
X23081516Y-46036088D01*
X22908016Y-46019000D01*
X22441984Y-46019000D01*
X22268484Y-46036088D01*
X22045864Y-46103619D01*
X21840697Y-46213283D01*
X21660866Y-46360866D01*
X21656000Y-46366795D01*
X21656000Y-45019854D01*
X21688267Y-44690771D01*
X21778075Y-44393312D01*
X21802126Y-44348078D01*
X43969000Y-44348078D01*
X43969000Y-44501922D01*
X43999013Y-44652809D01*
X44057887Y-44794942D01*
X44143358Y-44922859D01*
X44252141Y-45031642D01*
X44380058Y-45117113D01*
X44522191Y-45175987D01*
X44673078Y-45206000D01*
X44826922Y-45206000D01*
X44977809Y-45175987D01*
X45119942Y-45117113D01*
X45247859Y-45031642D01*
X45356642Y-44922859D01*
X45442113Y-44794942D01*
X45500987Y-44652809D01*
X45531000Y-44501922D01*
X45531000Y-44348078D01*
X45500987Y-44197191D01*
X45442113Y-44055058D01*
X45356642Y-43927141D01*
X45247859Y-43818358D01*
X45119942Y-43732887D01*
X44977809Y-43674013D01*
X44826922Y-43644000D01*
X44673078Y-43644000D01*
X44522191Y-43674013D01*
X44380058Y-43732887D01*
X44252141Y-43818358D01*
X44143358Y-43927141D01*
X44057887Y-44055058D01*
X43999013Y-44197191D01*
X43969000Y-44348078D01*
X21802126Y-44348078D01*
X21923945Y-44118972D01*
X22120325Y-43878187D01*
X22359736Y-43680127D01*
X22633053Y-43532346D01*
X22929872Y-43440465D01*
X23257782Y-43406000D01*
X28419941Y-43406000D01*
X28437039Y-43404316D01*
X28438191Y-43404324D01*
X28443833Y-43403771D01*
X28462628Y-43401796D01*
X28479590Y-43400125D01*
X28480155Y-43399954D01*
X28482653Y-43399691D01*
X28518733Y-43392285D01*
X28554844Y-43385397D01*
X28560269Y-43383760D01*
X28560272Y-43383759D01*
X28560277Y-43383757D01*
X28597559Y-43372217D01*
X28631535Y-43357935D01*
X28665597Y-43344173D01*
X28670595Y-43341516D01*
X28670605Y-43341512D01*
X28670613Y-43341507D01*
X28704940Y-43322947D01*
X28735479Y-43302349D01*
X28766245Y-43282215D01*
X28770622Y-43278645D01*
X28770631Y-43278639D01*
X28770638Y-43278632D01*
X28800713Y-43253751D01*
X28826648Y-43227634D01*
X28852930Y-43201896D01*
X28856544Y-43197528D01*
X28859288Y-43194164D01*
X28910626Y-43228467D01*
X29060225Y-43290433D01*
X29219038Y-43322023D01*
X29380962Y-43322023D01*
X29539775Y-43290433D01*
X29689374Y-43228467D01*
X29824009Y-43138507D01*
X29870154Y-43092362D01*
X29929953Y-43092469D01*
M02*
