G04 #@! TF.GenerationSoftware,KiCad,Pcbnew,(5.1.5)-3*
G04 #@! TF.CreationDate,2020-05-21T23:45:33+02:00*
G04 #@! TF.ProjectId,STRF_Panel,53545246-5f50-4616-9e65-6c2e6b696361,rev?*
G04 #@! TF.SameCoordinates,Original*
G04 #@! TF.FileFunction,Soldermask,Bot*
G04 #@! TF.FilePolarity,Negative*
%FSLAX46Y46*%
G04 Gerber Fmt 4.6, Leading zero omitted, Abs format (unit mm)*
G04 Created by KiCad (PCBNEW (5.1.5)-3) date 2020-05-21 23:45:33*
%MOMM*%
%LPD*%
G04 APERTURE LIST*
%ADD10C,0.100000*%
G04 APERTURE END LIST*
D10*
G36*
X28950721Y-54400174D02*
G01*
X29050995Y-54441709D01*
X29050996Y-54441710D01*
X29141242Y-54502010D01*
X29217990Y-54578758D01*
X29225518Y-54590025D01*
X29278291Y-54669005D01*
X29309516Y-54744389D01*
X29321067Y-54766000D01*
X29336612Y-54784941D01*
X29355554Y-54800487D01*
X29377165Y-54812038D01*
X29400614Y-54819151D01*
X29425000Y-54821553D01*
X29449386Y-54819151D01*
X29472835Y-54812038D01*
X29494446Y-54800487D01*
X29513387Y-54784942D01*
X29528933Y-54766000D01*
X29540484Y-54744389D01*
X29571709Y-54669005D01*
X29624482Y-54590025D01*
X29632010Y-54578758D01*
X29708758Y-54502010D01*
X29799004Y-54441710D01*
X29799005Y-54441709D01*
X29899279Y-54400174D01*
X30005730Y-54379000D01*
X30114270Y-54379000D01*
X30220721Y-54400174D01*
X30320995Y-54441709D01*
X30320996Y-54441710D01*
X30411242Y-54502010D01*
X30487990Y-54578758D01*
X30495518Y-54590025D01*
X30548291Y-54669005D01*
X30579516Y-54744389D01*
X30591067Y-54766000D01*
X30606612Y-54784941D01*
X30625554Y-54800487D01*
X30647165Y-54812038D01*
X30670614Y-54819151D01*
X30695000Y-54821553D01*
X30719386Y-54819151D01*
X30742835Y-54812038D01*
X30764446Y-54800487D01*
X30783387Y-54784942D01*
X30798933Y-54766000D01*
X30810484Y-54744389D01*
X30841709Y-54669005D01*
X30894482Y-54590025D01*
X30902010Y-54578758D01*
X30978758Y-54502010D01*
X31069004Y-54441710D01*
X31069005Y-54441709D01*
X31169279Y-54400174D01*
X31275730Y-54379000D01*
X31384270Y-54379000D01*
X31490721Y-54400174D01*
X31590995Y-54441709D01*
X31590996Y-54441710D01*
X31681242Y-54502010D01*
X31757990Y-54578758D01*
X31765518Y-54590025D01*
X31818291Y-54669005D01*
X31849516Y-54744389D01*
X31861067Y-54766000D01*
X31876612Y-54784941D01*
X31895554Y-54800487D01*
X31917165Y-54812038D01*
X31940614Y-54819151D01*
X31965000Y-54821553D01*
X31989386Y-54819151D01*
X32012835Y-54812038D01*
X32034446Y-54800487D01*
X32053387Y-54784942D01*
X32068933Y-54766000D01*
X32080484Y-54744389D01*
X32111709Y-54669005D01*
X32164482Y-54590025D01*
X32172010Y-54578758D01*
X32248758Y-54502010D01*
X32339004Y-54441710D01*
X32339005Y-54441709D01*
X32439279Y-54400174D01*
X32545730Y-54379000D01*
X32654270Y-54379000D01*
X32760721Y-54400174D01*
X32860995Y-54441709D01*
X32860996Y-54441710D01*
X32951242Y-54502010D01*
X33027990Y-54578758D01*
X33035518Y-54590025D01*
X33090068Y-54671664D01*
X33105614Y-54690606D01*
X33124556Y-54706151D01*
X33146167Y-54717702D01*
X33169615Y-54724815D01*
X33194002Y-54727217D01*
X33218388Y-54724815D01*
X33241837Y-54717702D01*
X33263447Y-54706151D01*
X33282389Y-54690605D01*
X33297934Y-54671663D01*
X33309485Y-54650052D01*
X33316598Y-54626604D01*
X33319000Y-54602218D01*
X33319000Y-54379000D01*
X34421000Y-54379000D01*
X34421000Y-55481000D01*
X34197782Y-55481000D01*
X34173396Y-55483402D01*
X34149947Y-55490515D01*
X34128336Y-55502066D01*
X34109394Y-55517611D01*
X34093849Y-55536553D01*
X34082298Y-55558164D01*
X34075185Y-55581613D01*
X34072783Y-55605999D01*
X34075185Y-55630385D01*
X34082298Y-55653834D01*
X34093849Y-55675445D01*
X34109394Y-55694387D01*
X34128336Y-55709932D01*
X34189816Y-55751012D01*
X34221242Y-55772010D01*
X34297990Y-55848758D01*
X34297991Y-55848760D01*
X34358291Y-55939005D01*
X34399826Y-56039279D01*
X34421000Y-56145730D01*
X34421000Y-56254270D01*
X34399826Y-56360721D01*
X34358291Y-56460995D01*
X34358290Y-56460996D01*
X34297990Y-56551242D01*
X34221242Y-56627990D01*
X34175812Y-56658345D01*
X34130995Y-56688291D01*
X34030721Y-56729826D01*
X33924270Y-56751000D01*
X33815730Y-56751000D01*
X33709279Y-56729826D01*
X33609005Y-56688291D01*
X33564188Y-56658345D01*
X33518758Y-56627990D01*
X33442010Y-56551242D01*
X33381710Y-56460996D01*
X33381709Y-56460995D01*
X33350484Y-56385611D01*
X33338933Y-56364000D01*
X33323388Y-56345059D01*
X33304446Y-56329513D01*
X33282835Y-56317962D01*
X33259386Y-56310849D01*
X33235000Y-56308447D01*
X33210614Y-56310849D01*
X33187165Y-56317962D01*
X33165554Y-56329513D01*
X33146613Y-56345058D01*
X33131067Y-56364000D01*
X33119516Y-56385611D01*
X33088291Y-56460995D01*
X33088290Y-56460996D01*
X33027990Y-56551242D01*
X32951242Y-56627990D01*
X32905812Y-56658345D01*
X32860995Y-56688291D01*
X32760721Y-56729826D01*
X32654270Y-56751000D01*
X32545730Y-56751000D01*
X32439279Y-56729826D01*
X32339005Y-56688291D01*
X32294188Y-56658345D01*
X32248758Y-56627990D01*
X32172010Y-56551242D01*
X32111710Y-56460996D01*
X32111709Y-56460995D01*
X32080484Y-56385611D01*
X32068933Y-56364000D01*
X32053388Y-56345059D01*
X32034446Y-56329513D01*
X32012835Y-56317962D01*
X31989386Y-56310849D01*
X31965000Y-56308447D01*
X31940614Y-56310849D01*
X31917165Y-56317962D01*
X31895554Y-56329513D01*
X31876613Y-56345058D01*
X31861067Y-56364000D01*
X31849516Y-56385611D01*
X31818291Y-56460995D01*
X31818290Y-56460996D01*
X31757990Y-56551242D01*
X31681242Y-56627990D01*
X31635812Y-56658345D01*
X31590995Y-56688291D01*
X31490721Y-56729826D01*
X31384270Y-56751000D01*
X31275730Y-56751000D01*
X31169279Y-56729826D01*
X31069005Y-56688291D01*
X31024188Y-56658345D01*
X30978758Y-56627990D01*
X30902010Y-56551242D01*
X30841710Y-56460996D01*
X30841709Y-56460995D01*
X30810484Y-56385611D01*
X30798933Y-56364000D01*
X30783388Y-56345059D01*
X30764446Y-56329513D01*
X30742835Y-56317962D01*
X30719386Y-56310849D01*
X30695000Y-56308447D01*
X30670614Y-56310849D01*
X30647165Y-56317962D01*
X30625554Y-56329513D01*
X30606613Y-56345058D01*
X30591067Y-56364000D01*
X30579516Y-56385611D01*
X30548291Y-56460995D01*
X30548290Y-56460996D01*
X30487990Y-56551242D01*
X30411242Y-56627990D01*
X30365812Y-56658345D01*
X30320995Y-56688291D01*
X30220721Y-56729826D01*
X30114270Y-56751000D01*
X30005730Y-56751000D01*
X29899279Y-56729826D01*
X29799005Y-56688291D01*
X29754188Y-56658345D01*
X29708758Y-56627990D01*
X29632010Y-56551242D01*
X29571710Y-56460996D01*
X29571709Y-56460995D01*
X29540484Y-56385611D01*
X29528933Y-56364000D01*
X29513388Y-56345059D01*
X29494446Y-56329513D01*
X29472835Y-56317962D01*
X29449386Y-56310849D01*
X29425000Y-56308447D01*
X29400614Y-56310849D01*
X29377165Y-56317962D01*
X29355554Y-56329513D01*
X29336613Y-56345058D01*
X29321067Y-56364000D01*
X29309516Y-56385611D01*
X29278291Y-56460995D01*
X29278290Y-56460996D01*
X29217990Y-56551242D01*
X29141242Y-56627990D01*
X29095812Y-56658345D01*
X29050995Y-56688291D01*
X28950721Y-56729826D01*
X28844270Y-56751000D01*
X28735730Y-56751000D01*
X28629279Y-56729826D01*
X28529005Y-56688291D01*
X28484188Y-56658345D01*
X28438758Y-56627990D01*
X28362010Y-56551242D01*
X28301710Y-56460996D01*
X28301709Y-56460995D01*
X28260174Y-56360721D01*
X28239000Y-56254270D01*
X28239000Y-56145730D01*
X28260174Y-56039279D01*
X28301709Y-55939005D01*
X28362009Y-55848760D01*
X28362010Y-55848758D01*
X28438758Y-55772010D01*
X28529004Y-55711710D01*
X28529005Y-55711709D01*
X28604389Y-55680484D01*
X28626000Y-55668933D01*
X28644941Y-55653388D01*
X28660487Y-55634446D01*
X28672038Y-55612835D01*
X28679151Y-55589386D01*
X28681553Y-55565000D01*
X28898447Y-55565000D01*
X28900849Y-55589386D01*
X28907962Y-55612835D01*
X28919513Y-55634446D01*
X28935058Y-55653387D01*
X28954000Y-55668933D01*
X28975611Y-55680484D01*
X29050995Y-55711709D01*
X29050996Y-55711710D01*
X29141242Y-55772010D01*
X29217990Y-55848758D01*
X29217991Y-55848760D01*
X29278291Y-55939005D01*
X29309516Y-56014389D01*
X29321067Y-56036000D01*
X29336612Y-56054941D01*
X29355554Y-56070487D01*
X29377165Y-56082038D01*
X29400614Y-56089151D01*
X29425000Y-56091553D01*
X29449386Y-56089151D01*
X29472835Y-56082038D01*
X29494446Y-56070487D01*
X29513387Y-56054942D01*
X29528933Y-56036000D01*
X29540484Y-56014389D01*
X29571709Y-55939005D01*
X29632009Y-55848760D01*
X29632010Y-55848758D01*
X29708758Y-55772010D01*
X29799004Y-55711710D01*
X29799005Y-55711709D01*
X29874389Y-55680484D01*
X29896000Y-55668933D01*
X29914941Y-55653388D01*
X29930487Y-55634446D01*
X29942038Y-55612835D01*
X29949151Y-55589386D01*
X29951553Y-55565000D01*
X30168447Y-55565000D01*
X30170849Y-55589386D01*
X30177962Y-55612835D01*
X30189513Y-55634446D01*
X30205058Y-55653387D01*
X30224000Y-55668933D01*
X30245611Y-55680484D01*
X30320995Y-55711709D01*
X30320996Y-55711710D01*
X30411242Y-55772010D01*
X30487990Y-55848758D01*
X30487991Y-55848760D01*
X30548291Y-55939005D01*
X30579516Y-56014389D01*
X30591067Y-56036000D01*
X30606612Y-56054941D01*
X30625554Y-56070487D01*
X30647165Y-56082038D01*
X30670614Y-56089151D01*
X30695000Y-56091553D01*
X30719386Y-56089151D01*
X30742835Y-56082038D01*
X30764446Y-56070487D01*
X30783387Y-56054942D01*
X30798933Y-56036000D01*
X30810484Y-56014389D01*
X30841709Y-55939005D01*
X30902009Y-55848760D01*
X30902010Y-55848758D01*
X30978758Y-55772010D01*
X31069004Y-55711710D01*
X31069005Y-55711709D01*
X31144389Y-55680484D01*
X31166000Y-55668933D01*
X31184941Y-55653388D01*
X31200487Y-55634446D01*
X31212038Y-55612835D01*
X31219151Y-55589386D01*
X31221553Y-55565000D01*
X31438447Y-55565000D01*
X31440849Y-55589386D01*
X31447962Y-55612835D01*
X31459513Y-55634446D01*
X31475058Y-55653387D01*
X31494000Y-55668933D01*
X31515611Y-55680484D01*
X31590995Y-55711709D01*
X31590996Y-55711710D01*
X31681242Y-55772010D01*
X31757990Y-55848758D01*
X31757991Y-55848760D01*
X31818291Y-55939005D01*
X31849516Y-56014389D01*
X31861067Y-56036000D01*
X31876612Y-56054941D01*
X31895554Y-56070487D01*
X31917165Y-56082038D01*
X31940614Y-56089151D01*
X31965000Y-56091553D01*
X31989386Y-56089151D01*
X32012835Y-56082038D01*
X32034446Y-56070487D01*
X32053387Y-56054942D01*
X32068933Y-56036000D01*
X32080484Y-56014389D01*
X32111709Y-55939005D01*
X32172009Y-55848760D01*
X32172010Y-55848758D01*
X32248758Y-55772010D01*
X32339004Y-55711710D01*
X32339005Y-55711709D01*
X32414389Y-55680484D01*
X32436000Y-55668933D01*
X32454941Y-55653388D01*
X32470487Y-55634446D01*
X32482038Y-55612835D01*
X32489151Y-55589386D01*
X32491553Y-55565000D01*
X32708447Y-55565000D01*
X32710849Y-55589386D01*
X32717962Y-55612835D01*
X32729513Y-55634446D01*
X32745058Y-55653387D01*
X32764000Y-55668933D01*
X32785611Y-55680484D01*
X32860995Y-55711709D01*
X32860996Y-55711710D01*
X32951242Y-55772010D01*
X33027990Y-55848758D01*
X33027991Y-55848760D01*
X33088291Y-55939005D01*
X33119516Y-56014389D01*
X33131067Y-56036000D01*
X33146612Y-56054941D01*
X33165554Y-56070487D01*
X33187165Y-56082038D01*
X33210614Y-56089151D01*
X33235000Y-56091553D01*
X33259386Y-56089151D01*
X33282835Y-56082038D01*
X33304446Y-56070487D01*
X33323387Y-56054942D01*
X33338933Y-56036000D01*
X33350484Y-56014389D01*
X33381709Y-55939005D01*
X33442009Y-55848760D01*
X33442010Y-55848758D01*
X33518758Y-55772010D01*
X33550184Y-55751012D01*
X33611664Y-55709932D01*
X33630606Y-55694386D01*
X33646151Y-55675444D01*
X33657702Y-55653833D01*
X33664815Y-55630385D01*
X33667217Y-55605998D01*
X33664815Y-55581612D01*
X33657702Y-55558163D01*
X33646151Y-55536553D01*
X33630605Y-55517611D01*
X33611663Y-55502066D01*
X33590052Y-55490515D01*
X33566604Y-55483402D01*
X33542218Y-55481000D01*
X33319000Y-55481000D01*
X33319000Y-55257782D01*
X33316598Y-55233396D01*
X33309485Y-55209947D01*
X33297934Y-55188336D01*
X33282389Y-55169394D01*
X33263447Y-55153849D01*
X33241836Y-55142298D01*
X33218387Y-55135185D01*
X33194001Y-55132783D01*
X33169615Y-55135185D01*
X33146166Y-55142298D01*
X33124555Y-55153849D01*
X33105613Y-55169394D01*
X33090068Y-55188336D01*
X33048988Y-55249816D01*
X33027990Y-55281242D01*
X32951242Y-55357990D01*
X32905812Y-55388345D01*
X32860995Y-55418291D01*
X32785611Y-55449516D01*
X32764000Y-55461067D01*
X32745059Y-55476612D01*
X32729513Y-55495554D01*
X32717962Y-55517165D01*
X32710849Y-55540614D01*
X32708447Y-55565000D01*
X32491553Y-55565000D01*
X32489151Y-55540614D01*
X32482038Y-55517165D01*
X32470487Y-55495554D01*
X32454942Y-55476613D01*
X32436000Y-55461067D01*
X32414389Y-55449516D01*
X32339005Y-55418291D01*
X32294188Y-55388345D01*
X32248758Y-55357990D01*
X32172010Y-55281242D01*
X32140041Y-55233396D01*
X32111709Y-55190995D01*
X32080484Y-55115611D01*
X32068933Y-55094000D01*
X32053388Y-55075059D01*
X32034446Y-55059513D01*
X32012835Y-55047962D01*
X31989386Y-55040849D01*
X31965000Y-55038447D01*
X31940614Y-55040849D01*
X31917165Y-55047962D01*
X31895554Y-55059513D01*
X31876613Y-55075058D01*
X31861067Y-55094000D01*
X31849516Y-55115611D01*
X31818291Y-55190995D01*
X31789959Y-55233396D01*
X31757990Y-55281242D01*
X31681242Y-55357990D01*
X31635812Y-55388345D01*
X31590995Y-55418291D01*
X31515611Y-55449516D01*
X31494000Y-55461067D01*
X31475059Y-55476612D01*
X31459513Y-55495554D01*
X31447962Y-55517165D01*
X31440849Y-55540614D01*
X31438447Y-55565000D01*
X31221553Y-55565000D01*
X31219151Y-55540614D01*
X31212038Y-55517165D01*
X31200487Y-55495554D01*
X31184942Y-55476613D01*
X31166000Y-55461067D01*
X31144389Y-55449516D01*
X31069005Y-55418291D01*
X31024188Y-55388345D01*
X30978758Y-55357990D01*
X30902010Y-55281242D01*
X30870041Y-55233396D01*
X30841709Y-55190995D01*
X30810484Y-55115611D01*
X30798933Y-55094000D01*
X30783388Y-55075059D01*
X30764446Y-55059513D01*
X30742835Y-55047962D01*
X30719386Y-55040849D01*
X30695000Y-55038447D01*
X30670614Y-55040849D01*
X30647165Y-55047962D01*
X30625554Y-55059513D01*
X30606613Y-55075058D01*
X30591067Y-55094000D01*
X30579516Y-55115611D01*
X30548291Y-55190995D01*
X30519959Y-55233396D01*
X30487990Y-55281242D01*
X30411242Y-55357990D01*
X30365812Y-55388345D01*
X30320995Y-55418291D01*
X30245611Y-55449516D01*
X30224000Y-55461067D01*
X30205059Y-55476612D01*
X30189513Y-55495554D01*
X30177962Y-55517165D01*
X30170849Y-55540614D01*
X30168447Y-55565000D01*
X29951553Y-55565000D01*
X29949151Y-55540614D01*
X29942038Y-55517165D01*
X29930487Y-55495554D01*
X29914942Y-55476613D01*
X29896000Y-55461067D01*
X29874389Y-55449516D01*
X29799005Y-55418291D01*
X29754188Y-55388345D01*
X29708758Y-55357990D01*
X29632010Y-55281242D01*
X29600041Y-55233396D01*
X29571709Y-55190995D01*
X29540484Y-55115611D01*
X29528933Y-55094000D01*
X29513388Y-55075059D01*
X29494446Y-55059513D01*
X29472835Y-55047962D01*
X29449386Y-55040849D01*
X29425000Y-55038447D01*
X29400614Y-55040849D01*
X29377165Y-55047962D01*
X29355554Y-55059513D01*
X29336613Y-55075058D01*
X29321067Y-55094000D01*
X29309516Y-55115611D01*
X29278291Y-55190995D01*
X29249959Y-55233396D01*
X29217990Y-55281242D01*
X29141242Y-55357990D01*
X29095812Y-55388345D01*
X29050995Y-55418291D01*
X28975611Y-55449516D01*
X28954000Y-55461067D01*
X28935059Y-55476612D01*
X28919513Y-55495554D01*
X28907962Y-55517165D01*
X28900849Y-55540614D01*
X28898447Y-55565000D01*
X28681553Y-55565000D01*
X28679151Y-55540614D01*
X28672038Y-55517165D01*
X28660487Y-55495554D01*
X28644942Y-55476613D01*
X28626000Y-55461067D01*
X28604389Y-55449516D01*
X28529005Y-55418291D01*
X28484188Y-55388345D01*
X28438758Y-55357990D01*
X28362010Y-55281242D01*
X28330041Y-55233396D01*
X28301709Y-55190995D01*
X28260174Y-55090721D01*
X28239000Y-54984270D01*
X28239000Y-54875730D01*
X28260174Y-54769279D01*
X28301709Y-54669005D01*
X28354482Y-54590025D01*
X28362010Y-54578758D01*
X28438758Y-54502010D01*
X28529004Y-54441710D01*
X28529005Y-54441709D01*
X28629279Y-54400174D01*
X28735730Y-54379000D01*
X28844270Y-54379000D01*
X28950721Y-54400174D01*
G37*
G36*
X23016823Y-52961313D02*
G01*
X23177242Y-53009976D01*
X23309906Y-53080886D01*
X23325078Y-53088996D01*
X23454659Y-53195341D01*
X23561004Y-53324922D01*
X23561005Y-53324924D01*
X23640024Y-53472758D01*
X23688687Y-53633177D01*
X23705117Y-53800000D01*
X23688687Y-53966823D01*
X23640024Y-54127242D01*
X23569114Y-54259906D01*
X23561004Y-54275078D01*
X23454659Y-54404659D01*
X23325078Y-54511004D01*
X23325076Y-54511005D01*
X23177242Y-54590024D01*
X23016823Y-54638687D01*
X22891804Y-54651000D01*
X22458196Y-54651000D01*
X22333177Y-54638687D01*
X22172758Y-54590024D01*
X22024924Y-54511005D01*
X22024922Y-54511004D01*
X21895341Y-54404659D01*
X21788996Y-54275078D01*
X21780886Y-54259906D01*
X21709976Y-54127242D01*
X21661313Y-53966823D01*
X21644883Y-53800000D01*
X21661313Y-53633177D01*
X21709976Y-53472758D01*
X21788995Y-53324924D01*
X21788996Y-53324922D01*
X21895341Y-53195341D01*
X22024922Y-53088996D01*
X22040094Y-53080886D01*
X22172758Y-53009976D01*
X22333177Y-52961313D01*
X22458196Y-52949000D01*
X22891804Y-52949000D01*
X23016823Y-52961313D01*
G37*
G36*
X59751000Y-54051000D02*
G01*
X55449000Y-54051000D01*
X55449000Y-52599000D01*
X59751000Y-52599000D01*
X59751000Y-54051000D01*
G37*
G36*
X59751000Y-48401000D02*
G01*
X55449000Y-48401000D01*
X55449000Y-46949000D01*
X59751000Y-46949000D01*
X59751000Y-48401000D01*
G37*
G36*
X23016823Y-46361313D02*
G01*
X23177242Y-46409976D01*
X23309906Y-46480886D01*
X23325078Y-46488996D01*
X23454659Y-46595341D01*
X23561004Y-46724922D01*
X23561005Y-46724924D01*
X23640024Y-46872758D01*
X23688687Y-47033177D01*
X23705117Y-47200000D01*
X23688687Y-47366823D01*
X23640024Y-47527242D01*
X23569114Y-47659906D01*
X23561004Y-47675078D01*
X23454659Y-47804659D01*
X23325078Y-47911004D01*
X23325076Y-47911005D01*
X23177242Y-47990024D01*
X23016823Y-48038687D01*
X22891804Y-48051000D01*
X22458196Y-48051000D01*
X22333177Y-48038687D01*
X22172758Y-47990024D01*
X22024924Y-47911005D01*
X22024922Y-47911004D01*
X21895341Y-47804659D01*
X21788996Y-47675078D01*
X21780886Y-47659906D01*
X21709976Y-47527242D01*
X21661313Y-47366823D01*
X21644883Y-47200000D01*
X21661313Y-47033177D01*
X21709976Y-46872758D01*
X21788995Y-46724924D01*
X21788996Y-46724922D01*
X21895341Y-46595341D01*
X22024922Y-46488996D01*
X22040094Y-46480886D01*
X22172758Y-46409976D01*
X22333177Y-46361313D01*
X22458196Y-46349000D01*
X22891804Y-46349000D01*
X23016823Y-46361313D01*
G37*
G36*
X28950721Y-38400174D02*
G01*
X29050995Y-38441709D01*
X29050996Y-38441710D01*
X29141242Y-38502010D01*
X29217990Y-38578758D01*
X29225518Y-38590025D01*
X29278291Y-38669005D01*
X29309516Y-38744389D01*
X29321067Y-38766000D01*
X29336612Y-38784941D01*
X29355554Y-38800487D01*
X29377165Y-38812038D01*
X29400614Y-38819151D01*
X29425000Y-38821553D01*
X29449386Y-38819151D01*
X29472835Y-38812038D01*
X29494446Y-38800487D01*
X29513387Y-38784942D01*
X29528933Y-38766000D01*
X29540484Y-38744389D01*
X29571709Y-38669005D01*
X29624482Y-38590025D01*
X29632010Y-38578758D01*
X29708758Y-38502010D01*
X29799004Y-38441710D01*
X29799005Y-38441709D01*
X29899279Y-38400174D01*
X30005730Y-38379000D01*
X30114270Y-38379000D01*
X30220721Y-38400174D01*
X30320995Y-38441709D01*
X30320996Y-38441710D01*
X30411242Y-38502010D01*
X30487990Y-38578758D01*
X30495518Y-38590025D01*
X30548291Y-38669005D01*
X30579516Y-38744389D01*
X30591067Y-38766000D01*
X30606612Y-38784941D01*
X30625554Y-38800487D01*
X30647165Y-38812038D01*
X30670614Y-38819151D01*
X30695000Y-38821553D01*
X30719386Y-38819151D01*
X30742835Y-38812038D01*
X30764446Y-38800487D01*
X30783387Y-38784942D01*
X30798933Y-38766000D01*
X30810484Y-38744389D01*
X30841709Y-38669005D01*
X30894482Y-38590025D01*
X30902010Y-38578758D01*
X30978758Y-38502010D01*
X31069004Y-38441710D01*
X31069005Y-38441709D01*
X31169279Y-38400174D01*
X31275730Y-38379000D01*
X31384270Y-38379000D01*
X31490721Y-38400174D01*
X31590995Y-38441709D01*
X31590996Y-38441710D01*
X31681242Y-38502010D01*
X31757990Y-38578758D01*
X31765518Y-38590025D01*
X31818291Y-38669005D01*
X31849516Y-38744389D01*
X31861067Y-38766000D01*
X31876612Y-38784941D01*
X31895554Y-38800487D01*
X31917165Y-38812038D01*
X31940614Y-38819151D01*
X31965000Y-38821553D01*
X31989386Y-38819151D01*
X32012835Y-38812038D01*
X32034446Y-38800487D01*
X32053387Y-38784942D01*
X32068933Y-38766000D01*
X32080484Y-38744389D01*
X32111709Y-38669005D01*
X32164482Y-38590025D01*
X32172010Y-38578758D01*
X32248758Y-38502010D01*
X32339004Y-38441710D01*
X32339005Y-38441709D01*
X32439279Y-38400174D01*
X32545730Y-38379000D01*
X32654270Y-38379000D01*
X32760721Y-38400174D01*
X32860995Y-38441709D01*
X32860996Y-38441710D01*
X32951242Y-38502010D01*
X33027990Y-38578758D01*
X33035518Y-38590025D01*
X33090068Y-38671664D01*
X33105614Y-38690606D01*
X33124556Y-38706151D01*
X33146167Y-38717702D01*
X33169615Y-38724815D01*
X33194002Y-38727217D01*
X33218388Y-38724815D01*
X33241837Y-38717702D01*
X33263447Y-38706151D01*
X33282389Y-38690605D01*
X33297934Y-38671663D01*
X33309485Y-38650052D01*
X33316598Y-38626604D01*
X33319000Y-38602218D01*
X33319000Y-38379000D01*
X34421000Y-38379000D01*
X34421000Y-39481000D01*
X34197782Y-39481000D01*
X34173396Y-39483402D01*
X34149947Y-39490515D01*
X34128336Y-39502066D01*
X34109394Y-39517611D01*
X34093849Y-39536553D01*
X34082298Y-39558164D01*
X34075185Y-39581613D01*
X34072783Y-39605999D01*
X34075185Y-39630385D01*
X34082298Y-39653834D01*
X34093849Y-39675445D01*
X34109394Y-39694387D01*
X34128336Y-39709932D01*
X34189816Y-39751012D01*
X34221242Y-39772010D01*
X34297990Y-39848758D01*
X34297991Y-39848760D01*
X34358291Y-39939005D01*
X34399826Y-40039279D01*
X34421000Y-40145730D01*
X34421000Y-40254270D01*
X34399826Y-40360721D01*
X34358291Y-40460995D01*
X34358290Y-40460996D01*
X34297990Y-40551242D01*
X34221242Y-40627990D01*
X34175812Y-40658345D01*
X34130995Y-40688291D01*
X34030721Y-40729826D01*
X33924270Y-40751000D01*
X33815730Y-40751000D01*
X33709279Y-40729826D01*
X33609005Y-40688291D01*
X33564188Y-40658345D01*
X33518758Y-40627990D01*
X33442010Y-40551242D01*
X33381710Y-40460996D01*
X33381709Y-40460995D01*
X33350484Y-40385611D01*
X33338933Y-40364000D01*
X33323388Y-40345059D01*
X33304446Y-40329513D01*
X33282835Y-40317962D01*
X33259386Y-40310849D01*
X33235000Y-40308447D01*
X33210614Y-40310849D01*
X33187165Y-40317962D01*
X33165554Y-40329513D01*
X33146613Y-40345058D01*
X33131067Y-40364000D01*
X33119516Y-40385611D01*
X33088291Y-40460995D01*
X33088290Y-40460996D01*
X33027990Y-40551242D01*
X32951242Y-40627990D01*
X32905812Y-40658345D01*
X32860995Y-40688291D01*
X32760721Y-40729826D01*
X32654270Y-40751000D01*
X32545730Y-40751000D01*
X32439279Y-40729826D01*
X32339005Y-40688291D01*
X32294188Y-40658345D01*
X32248758Y-40627990D01*
X32172010Y-40551242D01*
X32111710Y-40460996D01*
X32111709Y-40460995D01*
X32080484Y-40385611D01*
X32068933Y-40364000D01*
X32053388Y-40345059D01*
X32034446Y-40329513D01*
X32012835Y-40317962D01*
X31989386Y-40310849D01*
X31965000Y-40308447D01*
X31940614Y-40310849D01*
X31917165Y-40317962D01*
X31895554Y-40329513D01*
X31876613Y-40345058D01*
X31861067Y-40364000D01*
X31849516Y-40385611D01*
X31818291Y-40460995D01*
X31818290Y-40460996D01*
X31757990Y-40551242D01*
X31681242Y-40627990D01*
X31635812Y-40658345D01*
X31590995Y-40688291D01*
X31490721Y-40729826D01*
X31384270Y-40751000D01*
X31275730Y-40751000D01*
X31169279Y-40729826D01*
X31069005Y-40688291D01*
X31024188Y-40658345D01*
X30978758Y-40627990D01*
X30902010Y-40551242D01*
X30841710Y-40460996D01*
X30841709Y-40460995D01*
X30810484Y-40385611D01*
X30798933Y-40364000D01*
X30783388Y-40345059D01*
X30764446Y-40329513D01*
X30742835Y-40317962D01*
X30719386Y-40310849D01*
X30695000Y-40308447D01*
X30670614Y-40310849D01*
X30647165Y-40317962D01*
X30625554Y-40329513D01*
X30606613Y-40345058D01*
X30591067Y-40364000D01*
X30579516Y-40385611D01*
X30548291Y-40460995D01*
X30548290Y-40460996D01*
X30487990Y-40551242D01*
X30411242Y-40627990D01*
X30365812Y-40658345D01*
X30320995Y-40688291D01*
X30220721Y-40729826D01*
X30114270Y-40751000D01*
X30005730Y-40751000D01*
X29899279Y-40729826D01*
X29799005Y-40688291D01*
X29754188Y-40658345D01*
X29708758Y-40627990D01*
X29632010Y-40551242D01*
X29571710Y-40460996D01*
X29571709Y-40460995D01*
X29540484Y-40385611D01*
X29528933Y-40364000D01*
X29513388Y-40345059D01*
X29494446Y-40329513D01*
X29472835Y-40317962D01*
X29449386Y-40310849D01*
X29425000Y-40308447D01*
X29400614Y-40310849D01*
X29377165Y-40317962D01*
X29355554Y-40329513D01*
X29336613Y-40345058D01*
X29321067Y-40364000D01*
X29309516Y-40385611D01*
X29278291Y-40460995D01*
X29278290Y-40460996D01*
X29217990Y-40551242D01*
X29141242Y-40627990D01*
X29095812Y-40658345D01*
X29050995Y-40688291D01*
X28950721Y-40729826D01*
X28844270Y-40751000D01*
X28735730Y-40751000D01*
X28629279Y-40729826D01*
X28529005Y-40688291D01*
X28484188Y-40658345D01*
X28438758Y-40627990D01*
X28362010Y-40551242D01*
X28301710Y-40460996D01*
X28301709Y-40460995D01*
X28260174Y-40360721D01*
X28239000Y-40254270D01*
X28239000Y-40145730D01*
X28260174Y-40039279D01*
X28301709Y-39939005D01*
X28362009Y-39848760D01*
X28362010Y-39848758D01*
X28438758Y-39772010D01*
X28529004Y-39711710D01*
X28529005Y-39711709D01*
X28604389Y-39680484D01*
X28626000Y-39668933D01*
X28644941Y-39653388D01*
X28660487Y-39634446D01*
X28672038Y-39612835D01*
X28679151Y-39589386D01*
X28681553Y-39565000D01*
X28898447Y-39565000D01*
X28900849Y-39589386D01*
X28907962Y-39612835D01*
X28919513Y-39634446D01*
X28935058Y-39653387D01*
X28954000Y-39668933D01*
X28975611Y-39680484D01*
X29050995Y-39711709D01*
X29050996Y-39711710D01*
X29141242Y-39772010D01*
X29217990Y-39848758D01*
X29217991Y-39848760D01*
X29278291Y-39939005D01*
X29309516Y-40014389D01*
X29321067Y-40036000D01*
X29336612Y-40054941D01*
X29355554Y-40070487D01*
X29377165Y-40082038D01*
X29400614Y-40089151D01*
X29425000Y-40091553D01*
X29449386Y-40089151D01*
X29472835Y-40082038D01*
X29494446Y-40070487D01*
X29513387Y-40054942D01*
X29528933Y-40036000D01*
X29540484Y-40014389D01*
X29571709Y-39939005D01*
X29632009Y-39848760D01*
X29632010Y-39848758D01*
X29708758Y-39772010D01*
X29799004Y-39711710D01*
X29799005Y-39711709D01*
X29874389Y-39680484D01*
X29896000Y-39668933D01*
X29914941Y-39653388D01*
X29930487Y-39634446D01*
X29942038Y-39612835D01*
X29949151Y-39589386D01*
X29951553Y-39565000D01*
X30168447Y-39565000D01*
X30170849Y-39589386D01*
X30177962Y-39612835D01*
X30189513Y-39634446D01*
X30205058Y-39653387D01*
X30224000Y-39668933D01*
X30245611Y-39680484D01*
X30320995Y-39711709D01*
X30320996Y-39711710D01*
X30411242Y-39772010D01*
X30487990Y-39848758D01*
X30487991Y-39848760D01*
X30548291Y-39939005D01*
X30579516Y-40014389D01*
X30591067Y-40036000D01*
X30606612Y-40054941D01*
X30625554Y-40070487D01*
X30647165Y-40082038D01*
X30670614Y-40089151D01*
X30695000Y-40091553D01*
X30719386Y-40089151D01*
X30742835Y-40082038D01*
X30764446Y-40070487D01*
X30783387Y-40054942D01*
X30798933Y-40036000D01*
X30810484Y-40014389D01*
X30841709Y-39939005D01*
X30902009Y-39848760D01*
X30902010Y-39848758D01*
X30978758Y-39772010D01*
X31069004Y-39711710D01*
X31069005Y-39711709D01*
X31144389Y-39680484D01*
X31166000Y-39668933D01*
X31184941Y-39653388D01*
X31200487Y-39634446D01*
X31212038Y-39612835D01*
X31219151Y-39589386D01*
X31221553Y-39565000D01*
X31438447Y-39565000D01*
X31440849Y-39589386D01*
X31447962Y-39612835D01*
X31459513Y-39634446D01*
X31475058Y-39653387D01*
X31494000Y-39668933D01*
X31515611Y-39680484D01*
X31590995Y-39711709D01*
X31590996Y-39711710D01*
X31681242Y-39772010D01*
X31757990Y-39848758D01*
X31757991Y-39848760D01*
X31818291Y-39939005D01*
X31849516Y-40014389D01*
X31861067Y-40036000D01*
X31876612Y-40054941D01*
X31895554Y-40070487D01*
X31917165Y-40082038D01*
X31940614Y-40089151D01*
X31965000Y-40091553D01*
X31989386Y-40089151D01*
X32012835Y-40082038D01*
X32034446Y-40070487D01*
X32053387Y-40054942D01*
X32068933Y-40036000D01*
X32080484Y-40014389D01*
X32111709Y-39939005D01*
X32172009Y-39848760D01*
X32172010Y-39848758D01*
X32248758Y-39772010D01*
X32339004Y-39711710D01*
X32339005Y-39711709D01*
X32414389Y-39680484D01*
X32436000Y-39668933D01*
X32454941Y-39653388D01*
X32470487Y-39634446D01*
X32482038Y-39612835D01*
X32489151Y-39589386D01*
X32491553Y-39565000D01*
X32708447Y-39565000D01*
X32710849Y-39589386D01*
X32717962Y-39612835D01*
X32729513Y-39634446D01*
X32745058Y-39653387D01*
X32764000Y-39668933D01*
X32785611Y-39680484D01*
X32860995Y-39711709D01*
X32860996Y-39711710D01*
X32951242Y-39772010D01*
X33027990Y-39848758D01*
X33027991Y-39848760D01*
X33088291Y-39939005D01*
X33119516Y-40014389D01*
X33131067Y-40036000D01*
X33146612Y-40054941D01*
X33165554Y-40070487D01*
X33187165Y-40082038D01*
X33210614Y-40089151D01*
X33235000Y-40091553D01*
X33259386Y-40089151D01*
X33282835Y-40082038D01*
X33304446Y-40070487D01*
X33323387Y-40054942D01*
X33338933Y-40036000D01*
X33350484Y-40014389D01*
X33381709Y-39939005D01*
X33442009Y-39848760D01*
X33442010Y-39848758D01*
X33518758Y-39772010D01*
X33550184Y-39751012D01*
X33611664Y-39709932D01*
X33630606Y-39694386D01*
X33646151Y-39675444D01*
X33657702Y-39653833D01*
X33664815Y-39630385D01*
X33667217Y-39605998D01*
X33664815Y-39581612D01*
X33657702Y-39558163D01*
X33646151Y-39536553D01*
X33630605Y-39517611D01*
X33611663Y-39502066D01*
X33590052Y-39490515D01*
X33566604Y-39483402D01*
X33542218Y-39481000D01*
X33319000Y-39481000D01*
X33319000Y-39257782D01*
X33316598Y-39233396D01*
X33309485Y-39209947D01*
X33297934Y-39188336D01*
X33282389Y-39169394D01*
X33263447Y-39153849D01*
X33241836Y-39142298D01*
X33218387Y-39135185D01*
X33194001Y-39132783D01*
X33169615Y-39135185D01*
X33146166Y-39142298D01*
X33124555Y-39153849D01*
X33105613Y-39169394D01*
X33090068Y-39188336D01*
X33048988Y-39249816D01*
X33027990Y-39281242D01*
X32951242Y-39357990D01*
X32905812Y-39388345D01*
X32860995Y-39418291D01*
X32785611Y-39449516D01*
X32764000Y-39461067D01*
X32745059Y-39476612D01*
X32729513Y-39495554D01*
X32717962Y-39517165D01*
X32710849Y-39540614D01*
X32708447Y-39565000D01*
X32491553Y-39565000D01*
X32489151Y-39540614D01*
X32482038Y-39517165D01*
X32470487Y-39495554D01*
X32454942Y-39476613D01*
X32436000Y-39461067D01*
X32414389Y-39449516D01*
X32339005Y-39418291D01*
X32294188Y-39388345D01*
X32248758Y-39357990D01*
X32172010Y-39281242D01*
X32140041Y-39233396D01*
X32111709Y-39190995D01*
X32080484Y-39115611D01*
X32068933Y-39094000D01*
X32053388Y-39075059D01*
X32034446Y-39059513D01*
X32012835Y-39047962D01*
X31989386Y-39040849D01*
X31965000Y-39038447D01*
X31940614Y-39040849D01*
X31917165Y-39047962D01*
X31895554Y-39059513D01*
X31876613Y-39075058D01*
X31861067Y-39094000D01*
X31849516Y-39115611D01*
X31818291Y-39190995D01*
X31789959Y-39233396D01*
X31757990Y-39281242D01*
X31681242Y-39357990D01*
X31635812Y-39388345D01*
X31590995Y-39418291D01*
X31515611Y-39449516D01*
X31494000Y-39461067D01*
X31475059Y-39476612D01*
X31459513Y-39495554D01*
X31447962Y-39517165D01*
X31440849Y-39540614D01*
X31438447Y-39565000D01*
X31221553Y-39565000D01*
X31219151Y-39540614D01*
X31212038Y-39517165D01*
X31200487Y-39495554D01*
X31184942Y-39476613D01*
X31166000Y-39461067D01*
X31144389Y-39449516D01*
X31069005Y-39418291D01*
X31024188Y-39388345D01*
X30978758Y-39357990D01*
X30902010Y-39281242D01*
X30870041Y-39233396D01*
X30841709Y-39190995D01*
X30810484Y-39115611D01*
X30798933Y-39094000D01*
X30783388Y-39075059D01*
X30764446Y-39059513D01*
X30742835Y-39047962D01*
X30719386Y-39040849D01*
X30695000Y-39038447D01*
X30670614Y-39040849D01*
X30647165Y-39047962D01*
X30625554Y-39059513D01*
X30606613Y-39075058D01*
X30591067Y-39094000D01*
X30579516Y-39115611D01*
X30548291Y-39190995D01*
X30519959Y-39233396D01*
X30487990Y-39281242D01*
X30411242Y-39357990D01*
X30365812Y-39388345D01*
X30320995Y-39418291D01*
X30245611Y-39449516D01*
X30224000Y-39461067D01*
X30205059Y-39476612D01*
X30189513Y-39495554D01*
X30177962Y-39517165D01*
X30170849Y-39540614D01*
X30168447Y-39565000D01*
X29951553Y-39565000D01*
X29949151Y-39540614D01*
X29942038Y-39517165D01*
X29930487Y-39495554D01*
X29914942Y-39476613D01*
X29896000Y-39461067D01*
X29874389Y-39449516D01*
X29799005Y-39418291D01*
X29754188Y-39388345D01*
X29708758Y-39357990D01*
X29632010Y-39281242D01*
X29600041Y-39233396D01*
X29571709Y-39190995D01*
X29540484Y-39115611D01*
X29528933Y-39094000D01*
X29513388Y-39075059D01*
X29494446Y-39059513D01*
X29472835Y-39047962D01*
X29449386Y-39040849D01*
X29425000Y-39038447D01*
X29400614Y-39040849D01*
X29377165Y-39047962D01*
X29355554Y-39059513D01*
X29336613Y-39075058D01*
X29321067Y-39094000D01*
X29309516Y-39115611D01*
X29278291Y-39190995D01*
X29249959Y-39233396D01*
X29217990Y-39281242D01*
X29141242Y-39357990D01*
X29095812Y-39388345D01*
X29050995Y-39418291D01*
X28975611Y-39449516D01*
X28954000Y-39461067D01*
X28935059Y-39476612D01*
X28919513Y-39495554D01*
X28907962Y-39517165D01*
X28900849Y-39540614D01*
X28898447Y-39565000D01*
X28681553Y-39565000D01*
X28679151Y-39540614D01*
X28672038Y-39517165D01*
X28660487Y-39495554D01*
X28644942Y-39476613D01*
X28626000Y-39461067D01*
X28604389Y-39449516D01*
X28529005Y-39418291D01*
X28484188Y-39388345D01*
X28438758Y-39357990D01*
X28362010Y-39281242D01*
X28330041Y-39233396D01*
X28301709Y-39190995D01*
X28260174Y-39090721D01*
X28239000Y-38984270D01*
X28239000Y-38875730D01*
X28260174Y-38769279D01*
X28301709Y-38669005D01*
X28354482Y-38590025D01*
X28362010Y-38578758D01*
X28438758Y-38502010D01*
X28529004Y-38441710D01*
X28529005Y-38441709D01*
X28629279Y-38400174D01*
X28735730Y-38379000D01*
X28844270Y-38379000D01*
X28950721Y-38400174D01*
G37*
G36*
X23016823Y-36961313D02*
G01*
X23177242Y-37009976D01*
X23309906Y-37080886D01*
X23325078Y-37088996D01*
X23454659Y-37195341D01*
X23561004Y-37324922D01*
X23561005Y-37324924D01*
X23640024Y-37472758D01*
X23688687Y-37633177D01*
X23705117Y-37800000D01*
X23688687Y-37966823D01*
X23640024Y-38127242D01*
X23569114Y-38259906D01*
X23561004Y-38275078D01*
X23454659Y-38404659D01*
X23325078Y-38511004D01*
X23325076Y-38511005D01*
X23177242Y-38590024D01*
X23016823Y-38638687D01*
X22891804Y-38651000D01*
X22458196Y-38651000D01*
X22333177Y-38638687D01*
X22172758Y-38590024D01*
X22024924Y-38511005D01*
X22024922Y-38511004D01*
X21895341Y-38404659D01*
X21788996Y-38275078D01*
X21780886Y-38259906D01*
X21709976Y-38127242D01*
X21661313Y-37966823D01*
X21644883Y-37800000D01*
X21661313Y-37633177D01*
X21709976Y-37472758D01*
X21788995Y-37324924D01*
X21788996Y-37324922D01*
X21895341Y-37195341D01*
X22024922Y-37088996D01*
X22040094Y-37080886D01*
X22172758Y-37009976D01*
X22333177Y-36961313D01*
X22458196Y-36949000D01*
X22891804Y-36949000D01*
X23016823Y-36961313D01*
G37*
G36*
X59751000Y-38051000D02*
G01*
X55449000Y-38051000D01*
X55449000Y-36599000D01*
X59751000Y-36599000D01*
X59751000Y-38051000D01*
G37*
G36*
X59751000Y-32401000D02*
G01*
X55449000Y-32401000D01*
X55449000Y-30949000D01*
X59751000Y-30949000D01*
X59751000Y-32401000D01*
G37*
G36*
X23016823Y-30361313D02*
G01*
X23177242Y-30409976D01*
X23309906Y-30480886D01*
X23325078Y-30488996D01*
X23454659Y-30595341D01*
X23561004Y-30724922D01*
X23561005Y-30724924D01*
X23640024Y-30872758D01*
X23688687Y-31033177D01*
X23705117Y-31200000D01*
X23688687Y-31366823D01*
X23640024Y-31527242D01*
X23569114Y-31659906D01*
X23561004Y-31675078D01*
X23454659Y-31804659D01*
X23325078Y-31911004D01*
X23325076Y-31911005D01*
X23177242Y-31990024D01*
X23016823Y-32038687D01*
X22891804Y-32051000D01*
X22458196Y-32051000D01*
X22333177Y-32038687D01*
X22172758Y-31990024D01*
X22024924Y-31911005D01*
X22024922Y-31911004D01*
X21895341Y-31804659D01*
X21788996Y-31675078D01*
X21780886Y-31659906D01*
X21709976Y-31527242D01*
X21661313Y-31366823D01*
X21644883Y-31200000D01*
X21661313Y-31033177D01*
X21709976Y-30872758D01*
X21788995Y-30724924D01*
X21788996Y-30724922D01*
X21895341Y-30595341D01*
X22024922Y-30488996D01*
X22040094Y-30480886D01*
X22172758Y-30409976D01*
X22333177Y-30361313D01*
X22458196Y-30349000D01*
X22891804Y-30349000D01*
X23016823Y-30361313D01*
G37*
M02*
